<svg xmlns="http://www.w3.org/2000/svg" viewBox="0 0 420 520">
  <defs><filter id="shadow"><feDropShadow dx="1" dy="1.5" stdDeviation="2" flood-color="#2D1B14" flood-opacity="0.08"/></filter></defs>
  <style>.region-label { display: none !important; }</style>
  <text x="210" y="24" text-anchor="middle" font-family="Cormorant Garamond, Georgia, serif" font-size="16" font-weight="400" fill="#2D1B14" letter-spacing="5">BORDEAUX</text>
  <text x="210" y="42" text-anchor="middle" font-family="Inter, sans-serif" font-size="8" fill="#8a7a6a" letter-spacing="1" class="region-label">Placera regionerna och namnge de viktigaste druvorna</text>
  <g filter="url(#shadow)">    <path d="M753.9,-828.8 L756.7,-824.6 L758.5,-816.7 L760.3,-813.2 L766.7,-808.7 L769.5,-806.0 L770.1,-802.4 L764.9,-798.7 L763.8,-797.1 L767.4,-789.2 L765.6,-785.2 L769.2,-783.3 L771.7,-780.0 L775.6,-779.2 L782.2,-779.4 L784.5,-778.6 L787.2,-775.0 L793.9,-770.9 L798.3,-765.0 L801.6,-763.2 L819.6,-758.4 L822.0,-759.6 L827.4,-765.5 L830.7,-767.8 L834.9,-769.4 L858.6,-774.1 L863.3,-773.2 L866.3,-771.4 L871.8,-765.1 L874.0,-761.7 L875.4,-760.7 L880.4,-759.9 L881.8,-758.3 L883.9,-754.0 L881.4,-751.0 L882.8,-745.8 L887.6,-735.6 L887.9,-729.9 L888.8,-727.8 L894.0,-724.3 L905.0,-721.2 L909.4,-721.5 L917.3,-723.3 L923.3,-726.4 L925.9,-726.6 L928.5,-726.1 L929.6,-725.1 L929.4,-723.7 L927.6,-721.7 L929.8,-720.6 L941.5,-720.6 L949.5,-718.8 L953.1,-716.6 L956.0,-713.2 L957.5,-706.2 L957.5,-697.8 L959.1,-690.5 L965.4,-686.7 L966.1,-687.8 L967.5,-688.1 L972.0,-693.7 L973.5,-694.8 L975.9,-695.3 L983.8,-695.7 L991.2,-695.1 L1001.3,-691.6 L1005.3,-691.6 L1016.8,-694.7 L1020.6,-694.9 L1024.1,-693.9 L1030.1,-689.6 L1037.6,-686.1 L1042.5,-679.3 L1045.9,-678.3 L1047.2,-679.1 L1047.0,-681.5 L1049.3,-682.1 L1055.6,-679.5 L1056.7,-678.4 L1056.2,-676.5 L1050.2,-673.0 L1047.5,-669.8 L1046.5,-666.5 L1043.1,-659.3 L1042.6,-656.1 L1045.2,-655.2 L1050.7,-656.5 L1052.5,-655.9 L1055.5,-648.1 L1057.9,-645.0 L1057.8,-643.8 L1049.3,-640.5 L1044.7,-637.5 L1043.1,-634.0 L1043.9,-633.8 L1045.1,-628.4 L1043.7,-628.5 L1056.2,-624.5 L1070.0,-625.8 L1098.3,-620.8 L1103.7,-621.4 L1128.8,-629.4 L1136.3,-630.2 L1138.2,-631.0 L1139.9,-633.1 L1141.1,-635.9 L1142.5,-641.7 L1141.2,-644.9 L1142.7,-648.1 L1161.9,-660.6 L1166.8,-662.0 L1167.6,-659.4 L1169.6,-658.8 L1175.3,-659.6 L1176.9,-658.2 L1175.3,-648.1 L1173.4,-649.5 L1172.3,-649.3 L1168.9,-644.5 L1168.8,-639.5 L1161.9,-628.4 L1161.1,-625.5 L1163.5,-623.0 L1172.0,-620.7 L1174.8,-617.4 L1175.2,-615.1 L1174.7,-613.5 L1172.2,-608.9 L1170.6,-607.6 L1170.3,-606.5 L1172.9,-602.7 L1172.8,-596.0 L1174.4,-594.6 L1179.2,-594.1 L1191.0,-596.4 L1194.8,-596.5 L1198.0,-595.3 L1204.7,-591.0 L1208.3,-589.7 L1214.7,-588.5 L1216.9,-587.2 L1224.5,-580.0 L1230.5,-576.7 L1234.6,-575.9 L1242.8,-577.4 L1246.7,-577.4 L1253.9,-572.2 L1255.1,-569.6 L1252.9,-568.3 L1252.3,-565.7 L1252.7,-564.1 L1253.6,-563.4 L1257.9,-563.3 L1260.3,-565.6 L1269.0,-563.4 L1272.4,-561.4 L1281.0,-551.2 L1281.8,-549.6 L1281.0,-544.4 L1282.1,-542.8 L1286.0,-542.1 L1298.6,-547.2 L1304.2,-545.5 L1308.4,-545.5 L1309.4,-547.5 L1311.6,-549.4 L1316.0,-550.9 L1327.8,-548.6 L1330.1,-549.2 L1332.4,-551.2 L1334.3,-551.9 L1342.3,-549.8 L1348.0,-544.9 L1351.1,-543.0 L1355.6,-541.6 L1367.1,-539.8 L1370.5,-537.6 L1372.9,-532.4 L1376.1,-533.1 L1391.4,-533.7 L1394.0,-534.4 L1395.8,-536.1 L1398.0,-536.6 L1398.4,-538.8 L1399.3,-539.9 L1405.7,-540.5 L1404.5,-542.1 L1414.8,-542.9 L1420.0,-542.5 L1424.9,-541.3 L1433.8,-536.9 L1438.6,-535.2 L1443.7,-534.9 L1450.5,-537.0 L1452.5,-536.8 L1469.0,-531.4 L1472.1,-529.5 L1473.7,-526.5 L1473.4,-525.4 L1483.4,-518.1 L1484.0,-517.0 L1483.2,-515.6 L1480.0,-515.5 L1479.0,-513.8 L1480.2,-511.8 L1495.1,-501.8 L1495.3,-498.5 L1499.5,-496.9 L1502.5,-490.3 L1506.5,-491.5 L1507.6,-488.6 L1506.2,-484.1 L1508.5,-481.6 L1510.6,-481.0 L1518.6,-481.0 L1525.6,-479.3 L1527.9,-479.6 L1531.0,-482.3 L1529.0,-488.2 L1530.0,-490.7 L1531.8,-491.0 L1539.3,-489.9 L1544.6,-490.2 L1546.6,-490.0 L1557.8,-485.8 L1561.7,-485.7 L1561.6,-479.4 L1563.7,-474.4 L1567.7,-472.4 L1573.2,-474.7 L1573.5,-475.6 L1572.7,-477.5 L1574.4,-478.6 L1582.2,-475.2 L1587.9,-473.6 L1603.4,-473.5 L1609.4,-471.9 L1613.5,-476.1 L1620.1,-477.1 L1623.2,-481.7 L1630.4,-483.6 L1633.9,-483.4 L1634.7,-481.4 L1642.4,-481.1 L1645.7,-480.3 L1646.9,-477.7 L1644.8,-476.1 L1647.3,-474.4 L1653.8,-468.1 L1657.7,-466.4 L1665.6,-465.5 L1669.5,-464.2 L1672.6,-460.7 L1674.3,-459.8 L1676.8,-459.4 L1683.3,-460.7 L1690.9,-459.4 L1699.3,-461.7 L1714.2,-458.8 L1727.7,-459.3 L1756.3,-449.3 L1774.0,-446.8 L1776.1,-445.5 L1772.3,-442.7 L1766.7,-435.7 L1758.5,-420.8 L1756.3,-418.4 L1748.6,-415.4 L1747.0,-415.3 L1744.9,-413.4 L1744.1,-410.7 L1743.1,-410.1 L1734.6,-409.3 L1733.7,-407.7 L1733.5,-404.3 L1732.7,-402.8 L1721.3,-394.8 L1718.5,-393.2 L1713.4,-391.6 L1705.8,-383.7 L1704.3,-377.8 L1704.3,-371.6 L1706.4,-367.7 L1706.4,-366.5 L1699.8,-362.7 L1698.8,-361.0 L1698.5,-357.6 L1695.1,-353.0 L1692.9,-346.2 L1692.7,-343.8 L1693.3,-341.7 L1695.4,-337.0 L1695.1,-334.4 L1692.7,-331.8 L1686.4,-329.0 L1683.7,-318.5 L1681.8,-315.9 L1670.4,-305.3 L1669.2,-303.1 L1668.9,-300.5 L1665.4,-296.4 L1663.1,-290.1 L1663.6,-282.7 L1671.4,-273.5 L1671.8,-267.9 L1670.1,-265.7 L1665.3,-262.3 L1664.3,-259.9 L1664.2,-256.1 L1660.6,-251.9 L1660.6,-249.4 L1661.6,-246.1 L1661.2,-244.1 L1657.7,-242.3 L1655.2,-236.5 L1654.7,-234.0 L1656.9,-227.7 L1656.8,-224.7 L1652.1,-220.3 L1653.2,-214.5 L1653.9,-213.7 L1656.6,-212.7 L1659.0,-210.4 L1663.1,-205.0 L1666.3,-202.4 L1666.6,-200.7 L1665.5,-198.2 L1654.7,-195.0 L1646.9,-190.6 L1650.9,-188.9 L1651.0,-187.1 L1650.2,-186.1 L1645.8,-185.7 L1646.0,-184.4 L1647.5,-182.7 L1647.2,-181.7 L1644.1,-179.7 L1636.7,-181.7 L1634.6,-181.2 L1634.6,-180.1 L1637.0,-177.7 L1637.3,-176.7 L1636.7,-175.0 L1633.1,-171.9 L1628.1,-170.5 L1615.6,-170.9 L1610.9,-170.2 L1602.9,-168.0 L1601.5,-168.4 L1599.5,-170.1 L1594.2,-171.3 L1590.3,-172.8 L1589.3,-175.8 L1592.5,-180.9 L1587.7,-180.6 L1578.7,-182.3 L1569.7,-181.3 L1565.0,-181.7 L1561.8,-182.9 L1555.2,-181.0 L1555.6,-179.0 L1558.4,-174.4 L1557.0,-172.9 L1554.3,-171.3 L1551.4,-170.2 L1546.7,-169.5 L1546.4,-166.1 L1541.8,-164.2 L1539.1,-161.9 L1536.9,-159.1 L1536.0,-156.7 L1557.4,-158.2 L1560.7,-159.3 L1566.1,-156.1 L1568.0,-154.3 L1566.6,-152.3 L1561.2,-150.5 L1558.5,-148.1 L1555.9,-147.7 L1552.6,-145.3 L1551.4,-141.6 L1552.1,-137.1 L1539.9,-131.0 L1534.7,-127.4 L1531.3,-123.5 L1519.5,-116.1 L1514.1,-114.8 L1514.3,-111.7 L1511.0,-110.5 L1510.4,-109.3 L1505.8,-108.2 L1504.1,-107.1 L1501.7,-104.2 L1503.9,-100.9 L1499.8,-96.8 L1487.8,-90.6 L1468.4,-86.4 L1459.7,-82.9 L1457.0,-76.6 L1460.1,-71.9 L1460.7,-69.9 L1460.4,-67.4 L1458.2,-64.1 L1455.1,-57.4 L1457.9,-54.5 L1457.9,-51.4 L1457.3,-49.9 L1453.3,-47.2 L1447.4,-45.0 L1440.8,-40.3 L1427.9,-35.5 L1403.7,-20.2 L1401.3,-18.0 L1401.9,-15.7 L1406.2,-12.3 L1399.9,-6.7 L1393.6,0.7 L1391.5,2.2 L1390.8,4.2 L1391.7,5.8 L1392.2,9.0 L1391.8,10.1 L1389.8,11.5 L1399.5,15.6 L1402.1,17.6 L1404.3,20.3 L1404.6,22.3 L1398.1,32.7 L1396.9,37.8 L1396.9,41.5 L1396.1,42.7 L1391.1,43.6 L1387.7,43.2 L1376.9,46.9 L1372.5,48.8 L1371.9,51.0 L1373.7,53.5 L1376.9,56.3 L1372.6,63.5 L1376.9,61.7 L1385.1,60.4 L1393.3,60.1 L1399.4,62.0 L1405.3,60.0 L1414.4,52.5 L1426.0,47.2 L1430.6,43.8 L1429.7,39.6 L1428.4,39.3 L1425.4,40.2 L1422.8,38.8 L1418.5,30.2 L1419.5,27.8 L1428.4,19.5 L1434.3,16.0 L1439.8,14.8 L1445.7,14.6 L1451.6,13.5 L1466.9,6.3 L1478.5,4.7 L1490.5,4.9 L1517.3,9.7 L1520.0,10.7 L1521.7,12.4 L1522.1,15.9 L1520.8,18.9 L1516.0,22.7 L1515.1,24.8 L1518.5,28.9 L1524.9,33.6 L1529.0,38.5 L1522.6,47.1 L1519.5,53.5 L1517.8,59.7 L1519.4,62.7 L1533.7,64.9 L1536.5,66.8 L1536.3,68.2 L1532.7,71.7 L1533.2,71.5 L1533.6,73.3 L1533.2,78.1 L1536.5,79.1 L1540.6,77.0 L1544.7,78.2 L1557.8,88.2 L1561.8,97.2 L1564.0,100.5 L1561.4,101.3 L1559.5,103.0 L1556.9,107.6 L1554.4,110.4 L1550.8,112.6 L1542.9,114.8 L1537.2,114.9 L1536.7,117.9 L1535.6,118.2 L1534.5,117.0 L1531.8,116.0 L1524.1,118.2 L1521.9,120.9 L1520.9,123.8 L1521.2,130.3 L1523.3,137.7 L1526.9,141.6 L1531.8,144.1 L1538.9,145.4 L1545.4,149.5 L1551.2,150.6 L1553.4,151.7 L1554.5,154.3 L1551.5,160.0 L1551.9,161.5 L1554.6,164.9 L1555.5,172.4 L1556.9,175.0 L1565.1,178.2 L1573.0,182.4 L1577.4,188.6 L1588.9,193.0 L1588.7,195.3 L1587.1,198.0 L1583.4,202.7 L1576.7,208.7 L1577.6,213.9 L1579.5,217.5 L1579.5,220.3 L1574.6,223.2 L1570.0,228.5 L1565.4,225.9 L1559.0,227.2 L1552.6,229.2 L1550.2,230.8 L1547.1,234.7 L1544.5,236.4 L1537.2,237.1 L1536.3,238.7 L1538.2,240.5 L1537.8,241.6 L1531.9,243.6 L1525.5,242.0 L1518.9,239.4 L1512.6,238.7 L1506.4,241.6 L1500.1,241.9 L1493.9,244.4 L1490.6,246.3 L1488.5,248.4 L1491.7,251.8 L1494.6,253.6 L1495.1,257.9 L1497.3,260.6 L1499.2,261.7 L1505.5,262.2 L1510.2,264.6 L1511.4,269.8 L1511.0,279.8 L1514.2,283.6 L1520.1,287.2 L1532.5,292.4 L1535.9,293.0 L1544.8,291.7 L1547.9,291.9 L1556.9,294.5 L1560.1,297.1 L1561.3,299.0 L1561.1,300.9 L1559.7,304.1 L1561.8,308.0 L1563.4,314.0 L1568.9,321.4 L1569.9,323.7 L1566.7,323.8 L1560.2,322.4 L1556.9,322.4 L1552.8,324.0 L1549.5,326.9 L1548.2,330.6 L1550.2,334.4 L1547.7,335.8 L1541.5,343.4 L1532.3,348.5 L1530.4,350.9 L1531.0,356.5 L1535.0,361.5 L1545.2,368.5 L1539.2,370.9 L1537.9,372.4 L1535.9,380.0 L1536.6,381.7 L1542.7,387.6 L1545.8,392.6 L1552.7,397.1 L1555.2,402.1 L1556.9,403.5 L1559.3,404.2 L1566.0,403.3 L1568.3,403.7 L1578.9,407.8 L1586.1,409.7 L1605.2,418.2 L1615.7,420.5 L1617.9,423.3 L1619.6,424.5 L1628.5,424.9 L1659.9,418.4 L1665.0,418.1 L1672.5,414.6 L1678.0,415.3 L1675.5,421.2 L1677.7,424.5 L1681.7,427.4 L1684.5,431.8 L1684.2,434.9 L1677.6,439.9 L1673.6,448.2 L1669.5,451.4 L1660.2,457.1 L1656.6,461.3 L1648.8,467.5 L1646.0,471.2 L1646.9,475.8 L1650.4,484.4 L1648.0,485.6 L1645.8,485.8 L1645.8,489.4 L1643.3,489.8 L1638.7,493.2 L1636.7,491.0 L1633.3,489.6 L1629.8,490.6 L1627.1,492.8 L1625.8,496.9 L1621.6,499.6 L1619.5,503.4 L1614.2,503.2 L1610.4,502.2 L1606.3,502.5 L1603.5,503.7 L1601.1,505.6 L1601.7,507.6 L1598.5,510.2 L1596.7,511.0 L1595.4,508.8 L1592.0,508.2 L1587.3,509.1 L1584.6,511.6 L1582.7,518.0 L1585.0,527.3 L1582.6,528.4 L1580.3,525.4 L1578.8,524.7 L1575.9,524.6 L1572.8,526.1 L1566.7,530.5 L1565.5,528.4 L1555.6,528.5 L1553.2,529.8 L1550.1,532.1 L1549.4,534.8 L1551.7,536.2 L1551.8,537.0 L1546.5,541.9 L1545.7,546.2 L1541.7,548.2 L1540.9,550.0 L1536.8,550.3 L1535.3,547.9 L1534.4,548.5 L1534.1,549.8 L1534.8,552.1 L1532.4,552.7 L1527.4,552.1 L1520.9,553.4 L1519.1,551.7 L1516.3,550.9 L1511.6,553.6 L1511.9,558.2 L1509.2,561.0 L1509.2,563.9 L1501.4,564.7 L1499.0,569.0 L1492.4,573.7 L1487.5,575.9 L1486.4,578.6 L1490.1,579.4 L1501.0,577.3 L1504.8,577.9 L1505.6,579.2 L1503.4,582.4 L1500.3,583.9 L1499.8,587.2 L1502.4,590.7 L1495.3,594.3 L1489.8,595.8 L1487.9,595.5 L1486.8,593.2 L1484.6,593.8 L1477.2,594.2 L1476.6,595.9 L1474.8,598.1 L1471.0,599.8 L1466.2,598.9 L1456.0,599.6 L1452.3,600.6 L1448.1,602.5 L1445.9,605.6 L1447.6,610.6 L1441.6,610.7 L1438.6,608.2 L1430.5,605.6 L1425.6,605.2 L1419.5,606.0 L1414.8,607.4 L1409.3,610.3 L1407.6,614.0 L1407.5,618.3 L1410.8,619.4 L1413.4,618.8 L1412.4,620.5 L1397.6,621.4 L1395.9,620.7 L1401.5,618.9 L1403.8,617.5 L1403.2,614.2 L1399.7,611.8 L1384.9,612.9 L1383.0,609.2 L1378.5,608.6 L1372.6,608.6 L1368.1,606.6 L1369.4,602.9 L1363.5,603.4 L1358.3,605.3 L1361.3,606.2 L1363.9,610.2 L1371.2,612.6 L1369.3,614.2 L1359.8,614.0 L1357.6,614.6 L1354.2,618.9 L1347.4,617.4 L1342.2,614.4 L1340.7,612.8 L1347.3,609.2 L1346.1,607.8 L1341.0,606.4 L1339.7,603.5 L1333.4,603.2 L1325.3,600.6 L1323.8,596.6 L1321.3,594.6 L1317.9,593.6 L1314.2,593.3 L1312.1,595.2 L1310.2,598.1 L1305.9,596.8 L1303.1,596.6 L1298.5,592.1 L1296.8,589.7 L1294.5,588.7 L1290.8,590.0 L1271.2,588.8 L1266.7,589.6 L1262.5,588.1 L1263.7,583.1 L1266.4,578.3 L1264.3,576.5 L1264.1,574.4 L1261.0,566.8 L1253.0,563.0 L1242.9,568.0 L1229.4,567.7 L1222.5,568.4 L1211.7,568.0 L1206.1,566.6 L1202.5,562.6 L1201.0,558.3 L1204.7,553.3 L1210.3,551.0 L1226.3,551.0 L1231.3,549.9 L1234.7,547.9 L1238.4,544.6 L1240.7,540.5 L1240.1,536.3 L1234.9,538.8 L1229.8,540.2 L1225.2,539.6 L1221.3,536.3 L1220.0,532.0 L1219.0,531.1 L1215.3,530.1 L1209.7,530.1 L1205.2,526.5 L1204.0,527.6 L1201.7,533.8 L1202.6,537.2 L1204.3,538.7 L1209.1,541.2 L1211.2,545.7 L1209.2,549.7 L1205.0,551.9 L1199.7,552.4 L1197.0,551.9 L1187.1,547.8 L1180.7,550.4 L1176.3,551.1 L1174.5,552.3 L1173.0,554.7 L1175.7,559.0 L1176.2,561.3 L1182.2,560.9 L1177.9,563.9 L1174.0,565.5 L1173.1,562.4 L1170.0,558.2 L1162.5,555.2 L1156.4,551.0 L1153.6,546.2 L1154.1,535.7 L1153.6,532.6 L1150.7,526.8 L1148.1,524.1 L1145.0,522.8 L1145.0,523.9 L1150.4,530.1 L1151.2,532.0 L1151.2,544.9 L1153.7,550.9 L1158.5,554.7 L1164.0,557.5 L1168.1,560.9 L1167.7,564.7 L1139.9,564.4 L1126.6,562.2 L1121.9,560.2 L1121.8,557.2 L1125.4,554.2 L1125.8,552.0 L1124.3,549.6 L1119.9,547.2 L1112.3,545.0 L1093.7,546.4 L1057.1,544.2 L1052.7,543.5 L1048.9,542.1 L1043.9,539.3 L1041.1,535.1 L1043.9,531.1 L1039.0,527.7 L1028.5,526.9 L1018.4,527.8 L1011.5,529.8 L973.2,552.7 L952.0,559.5 L946.1,563.1 L932.4,576.4 L928.6,577.6 L921.4,575.0 L909.4,575.9 L897.2,579.6 L884.0,587.5 L879.8,591.9 L872.2,597.3 L867.8,602.6 L860.5,607.9 L852.7,622.2 L847.0,637.3 L847.5,639.1 L849.8,640.1 L850.1,643.7 L847.3,664.8 L847.0,672.0 L847.8,676.6 L846.8,684.0 L847.5,693.8 L849.3,707.1 L851.9,709.4 L864.7,712.5 L866.3,714.3 L865.8,718.4 L871.7,724.8 L872.6,729.3 L864.8,730.3 L855.5,730.1 L849.6,728.2 L847.9,726.9 L845.3,723.2 L837.0,722.5 L833.9,724.0 L828.1,722.4 L822.2,725.8 L813.1,726.3 L801.9,732.8 L798.2,733.3 L791.1,732.5 L787.5,732.7 L784.3,733.9 L776.7,738.3 L775.3,739.9 L776.9,743.3 L779.1,745.2 L779.2,746.0 L774.4,746.2 L762.1,743.5 L758.7,743.6 L757.3,744.5 L755.8,747.5 L754.5,748.3 L752.7,748.4 L743.7,745.7 L740.2,743.6 L737.4,740.8 L736.1,737.9 L727.6,736.9 L717.1,733.3 L709.9,729.8 L704.3,730.3 L693.2,732.9 L684.7,732.1 L681.8,733.1 L678.7,737.7 L669.3,743.6 L661.7,744.5 L659.2,744.2 L653.5,740.9 L651.8,738.1 L649.4,731.4 L646.9,728.4 L644.2,727.4 L636.6,726.6 L626.5,721.5 L622.7,720.3 L611.5,719.2 L608.2,718.1 L608.2,717.1 L607.3,716.5 L607.9,712.0 L609.9,708.3 L613.2,705.9 L617.7,705.6 L615.5,703.2 L611.3,702.2 L608.4,700.9 L610.0,697.2 L589.5,695.7 L577.8,690.1 L575.0,690.3 L569.7,691.8 L564.0,691.5 L561.3,698.6 L557.3,699.8 L554.7,697.3 L551.6,691.1 L545.0,683.4 L541.8,682.7 L540.9,682.0 L541.7,679.4 L537.4,678.6 L515.3,678.5 L509.3,680.0 L507.3,679.8 L504.2,678.1 L499.2,670.3 L496.0,668.2 L492.3,667.3 L476.9,666.5 L471.0,663.7 L465.8,665.8 L463.9,665.2 L459.4,662.2 L454.1,660.7 L446.3,657.3 L439.7,657.2 L430.4,654.8 L427.2,654.6 L422.3,654.9 L418.1,656.1 L417.3,658.7 L417.7,662.5 L415.1,667.6 L417.1,669.6 L415.8,670.4 L414.0,672.9 L416.6,673.6 L418.7,675.6 L420.0,678.3 L419.8,681.2 L418.2,683.2 L415.8,683.8 L409.5,683.2 L387.0,683.6 L384.0,682.7 L373.7,684.2 L370.1,683.7 L369.2,683.1 L368.7,681.0 L363.8,677.9 L360.5,678.7 L357.3,681.1 L352.2,686.3 L349.6,686.6 L346.8,684.2 L342.9,679.1 L340.0,678.1 L330.5,676.2 L327.5,676.6 L324.2,678.3 L313.1,679.5 L299.2,683.2 L293.0,683.7 L285.9,681.6 L282.8,679.1 L278.6,678.0 L277.8,675.5 L273.8,672.7 L271.6,670.1 L270.5,667.0 L270.9,663.8 L262.5,665.9 L257.7,665.5 L255.5,662.1 L244.7,657.3 L241.9,655.3 L239.7,658.5 L238.3,658.9 L236.7,657.7 L228.0,662.8 L223.7,664.7 L218.2,665.0 L208.5,661.7 L203.9,661.6 L203.6,665.8 L197.6,667.9 L195.8,667.1 L196.1,664.8 L195.1,663.7 L190.2,663.2 L190.3,660.9 L183.3,654.0 L173.9,649.2 L168.6,649.0 L166.7,647.7 L165.7,646.1 L166.6,643.0 L163.3,636.6 L158.4,635.4 L144.6,637.2 L130.2,636.4 L123.3,634.7 L117.1,631.3 L114.9,629.4 L105.7,628.2 L99.8,625.5 L93.0,626.0 L87.1,622.4 L81.0,619.9 L70.5,618.6 L67.1,617.1 L64.1,614.5 L63.3,612.1 L64.7,609.7 L68.5,607.3 L64.4,606.6 L60.4,607.7 L57.3,610.2 L56.1,613.9 L55.6,618.6 L54.1,621.0 L51.0,621.7 L46.1,621.4 L41.7,620.6 L37.7,618.9 L34.4,616.2 L32.2,612.3 L43.4,602.7 L46.1,597.0 L48.1,589.8 L47.4,583.2 L42.2,579.3 L36.0,580.1 L28.5,577.2 L22.9,576.0 L19.4,575.9 L16.7,577.1 L14.2,581.7 L12.3,582.5 L8.1,582.5 L5.0,581.0 L3.4,576.3 L3.9,574.4 L2.1,573.4 L-2.9,572.1 L-14.5,574.6 L-15.4,573.2 L-16.0,569.7 L-18.3,567.4 L-23.4,565.6 L-23.4,559.6 L-22.9,557.5 L-19.6,559.3 L-18.2,557.9 L-14.9,556.9 L1.0,555.1 L5.2,550.7 L12.6,547.3 L18.0,540.2 L18.8,538.2 L27.5,530.0 L34.2,522.6 L35.4,516.9 L39.7,506.7 L47.1,477.2 L51.4,466.9 L57.7,443.5 L69.3,392.6 L74.3,367.4 L75.5,356.2 L73.5,348.4 L73.7,346.9 L78.5,342.0 L82.9,330.4 L86.4,327.2 L90.9,327.1 L102.0,329.0 L108.3,328.4 L111.9,326.5 L112.0,323.8 L107.6,320.4 L110.0,320.4 L108.2,317.9 L94.6,308.7 L90.2,306.8 L89.0,306.9 L86.1,310.9 L77.9,319.8 L75.9,327.7 L73.1,334.1 L84.1,245.2 L91.6,216.8 L94.8,178.8 L95.9,176.1 L102.1,167.4 L104.7,164.6 L107.6,163.8 L109.5,164.5 L109.9,165.3 L109.7,168.7 L108.8,171.2 L112.8,175.7 L124.9,182.3 L135.3,185.9 L157.0,203.0 L162.1,208.3 L164.2,213.7 L164.7,217.3 L167.0,224.0 L171.1,242.8 L177.2,253.2 L183.3,258.9 L190.2,263.7 L196.0,266.1 L197.6,267.4 L199.1,269.6 L199.3,271.3 L198.8,274.2 L199.8,281.7 L201.3,284.6 L203.8,285.9 L202.4,278.3 L201.3,276.1 L203.0,271.2 L200.9,267.3 L196.9,264.4 L192.7,262.6 L202.9,263.5 L207.0,265.0 L211.1,267.4 L206.6,261.7 L199.4,259.2 L191.6,257.4 L185.2,253.8 L181.9,249.2 L179.6,243.5 L172.8,209.0 L170.5,202.0 L164.5,190.7 L156.8,181.1 L148.5,174.4 L123.0,161.3 L121.6,157.2 L120.5,156.4 L114.6,154.9 L104.9,148.1 L96.1,146.1 L93.1,144.8 L88.4,141.0 L85.0,139.2 L78.7,140.1 L75.5,139.2 L78.6,126.7 L78.5,124.4 L90.5,121.8 L94.0,121.9 L105.5,131.4 L109.7,133.8 L122.3,137.9 L118.3,134.7 L102.1,125.5 L97.4,121.6 L96.5,120.0 L95.4,115.2 L92.7,110.7 L94.7,110.0 L99.7,105.8 L102.5,104.6 L106.8,104.2 L107.6,102.1 L107.3,100.3 L103.8,95.9 L107.6,93.4 L104.6,92.0 L102.6,89.6 L100.1,83.7 L103.8,85.5 L106.9,85.7 L109.2,84.2 L111.2,81.1 L111.2,80.0 L108.3,77.7 L104.8,76.8 L104.0,73.5 L102.7,71.1 L102.5,68.7 L99.6,67.9 L96.8,66.2 L96.8,65.4 L98.9,63.9 L92.6,61.1 L92.7,58.9 L84.0,58.4 L82.3,57.1 L82.1,55.6 L83.2,53.8 L86.7,51.5 L85.7,48.1 L87.7,45.7 L100.1,40.3 L101.5,38.0 L100.1,32.5 L96.2,28.7 L88.1,28.3 L81.4,31.1 L81.6,36.8 L76.8,35.8 L70.1,29.5 L65.4,28.7 L59.8,26.4 L55.8,23.9 L53.4,23.2 L43.8,25.4 L39.2,25.2 L37.3,21.3 L36.2,16.8 L33.3,13.5 L29.2,11.5 L24.3,10.8 L12.2,10.5 L7.4,9.4 L8.9,7.2 L6.0,5.2 L-3.6,4.0 L-9.7,0.4 L-14.7,-0.6 L-17.0,-1.6 L-22.1,-8.9 L-22.0,-6.7 L-20.7,-2.2 L-21.5,-1.4 L-23.2,-2.0 L-24.9,-3.6 L-28.9,-16.9 L-28.1,-20.0 L-31.0,-20.8 L-34.3,-27.4 L-42.0,-32.9 L-43.8,-37.5 L-46.2,-38.8 L-52.2,-39.8 L-53.7,-40.9 L-59.0,-48.4 L-69.1,-55.6 L-74.6,-58.3 L-79.3,-59.4 L-81.4,-60.6 L-82.7,-63.4 L-83.4,-66.8 L-83.2,-73.8 L-82.0,-75.7 L-77.3,-78.0 L-78.4,-80.5 L-75.7,-82.4 L-68.9,-85.3 L-66.7,-88.1 L-63.6,-94.6 L-61.5,-97.7 L-58.3,-99.4 L-58.7,-102.4 L-60.7,-105.6 L-65.4,-109.6 L-76.2,-113.7 L-97.0,-116.2 L-103.4,-118.6 L-97.0,-122.0 L-91.1,-122.6 L-89.7,-123.2 L-88.6,-129.8 L-90.5,-132.6 L-91.0,-135.3 L-90.1,-139.7 L-88.9,-141.8 L-87.3,-143.3 L-83.0,-144.6 L-66.4,-145.8 L-62.6,-147.0 L-59.8,-144.9 L-50.6,-143.3 L-47.8,-143.3 L-49.1,-144.6 L-45.1,-144.1 L-41.7,-142.2 L-45.4,-142.2 L-45.4,-140.9 L-38.0,-137.2 L-30.5,-136.2 L-24.7,-132.4 L-20.6,-131.2 L-10.9,-130.9 L-14.5,-132.6 L-21.9,-133.6 L-25.0,-135.3 L-30.5,-139.8 L-36.8,-143.3 L-43.0,-145.9 L-50.9,-147.0 L-52.5,-147.4 L-55.0,-149.2 L-61.8,-150.6 L-86.7,-149.4 L-92.3,-147.0 L-95.3,-143.4 L-97.1,-142.2 L-102.5,-141.1 L-106.7,-138.3 L-110.1,-137.4 L-113.7,-137.4 L-116.9,-138.3 L-124.0,-143.4 L-126.9,-144.6 L-132.9,-144.6 L-134.3,-143.7 L-135.5,-140.9 L-140.7,-141.0 L-157.6,-147.0 L-157.6,-148.3 L-153.4,-147.8 L-145.7,-145.3 L-141.6,-145.8 L-138.5,-148.3 L-140.2,-150.7 L-146.5,-155.6 L-149.0,-154.5 L-148.0,-152.5 L-149.0,-150.7 L-150.3,-150.7 L-150.6,-155.9 L-152.7,-158.7 L-160.1,-162.0 L-145.8,-167.8 L-139.0,-166.8 L-139.4,-165.8 L-140.4,-165.5 L-139.0,-164.3 L-137.3,-165.7 L-131.1,-168.1 L-130.5,-169.3 L-137.7,-169.7 L-140.7,-170.5 L-139.0,-173.1 L-142.0,-174.4 L-145.7,-174.7 L-148.0,-175.7 L-146.5,-179.1 L-149.1,-181.4 L-147.1,-182.6 L-135.8,-183.0 L-129.2,-184.3 L-125.5,-184.1 L-128.4,-184.7 L-136.6,-184.1 L-150.3,-187.8 L-153.1,-188.1 L-161.4,-186.6 L-168.1,-186.6 L-171.9,-185.4 L-173.8,-186.6 L-171.0,-186.9 L-167.9,-188.2 L-165.2,-190.3 L-163.8,-192.7 L-166.6,-190.9 L-174.9,-190.2 L-172.3,-189.7 L-171.2,-187.8 L-175.8,-187.8 L-179.8,-189.0 L-180.1,-184.7 L-182.5,-183.8 L-188.5,-185.2 L-191.5,-185.1 L-200.9,-182.9 L-207.1,-182.9 L-211.9,-185.2 L-216.4,-190.6 L-220.7,-191.6 L-220.6,-192.7 L-223.7,-193.5 L-220.7,-195.0 L-215.8,-195.0 L-213.1,-191.4 L-211.9,-191.4 L-209.8,-192.7 L-207.0,-191.4 L-205.7,-195.2 L-202.9,-192.9 L-198.4,-191.9 L-193.5,-192.2 L-189.6,-193.9 L-191.0,-195.2 L-184.0,-201.8 L-183.1,-205.1 L-187.2,-208.7 L-187.2,-207.6 L-185.4,-206.4 L-185.2,-205.2 L-186.3,-204.3 L-188.5,-203.9 L-186.0,-202.7 L-187.5,-201.4 L-189.6,-201.3 L-190.6,-202.3 L-199.6,-206.2 L-192.2,-205.0 L-194.3,-207.1 L-196.5,-208.0 L-202.0,-208.7 L-199.6,-207.6 L-203.3,-206.4 L-212.6,-205.7 L-214.4,-204.4 L-216.0,-202.3 L-225.5,-200.2 L-225.5,-201.3 L-224.3,-201.3 L-224.3,-202.7 L-229.2,-201.3 L-230.1,-205.3 L-229.5,-206.7 L-228.0,-207.6 L-230.5,-207.6 L-232.4,-208.6 L-233.6,-210.3 L-234.1,-212.5 L-235.4,-212.5 L-234.1,-207.6 L-234.1,-203.3 L-233.5,-201.5 L-231.8,-199.5 L-228.0,-196.4 L-229.2,-193.9 L-231.5,-196.4 L-233.0,-195.7 L-239.0,-200.2 L-237.9,-197.8 L-239.0,-196.7 L-240.6,-197.2 L-242.1,-202.3 L-243.3,-202.0 L-243.9,-200.0 L-242.8,-197.6 L-246.4,-198.0 L-247.6,-198.9 L-253.3,-196.8 L-256.2,-196.6 L-258.7,-197.6 L-256.3,-198.9 L-260.2,-200.9 L-262.2,-200.8 L-263.7,-198.9 L-261.2,-197.6 L-263.2,-191.6 L-262.2,-186.4 L-259.2,-182.2 L-255.2,-179.1 L-261.4,-179.9 L-262.6,-179.1 L-263.7,-179.1 L-266.2,-185.9 L-265.8,-187.9 L-264.1,-190.9 L-263.7,-193.3 L-264.2,-197.5 L-265.4,-200.6 L-270.0,-205.0 L-275.4,-207.0 L-276.1,-208.1 L-275.7,-210.5 L-273.5,-215.5 L-260.0,-219.8 L-261.1,-221.7 L-261.2,-224.8 L-265.0,-223.4 L-265.0,-228.5 L-266.2,-228.5 L-267.6,-226.6 L-271.9,-227.7 L-274.8,-227.4 L-272.3,-226.7 L-270.5,-225.4 L-268.6,-221.0 L-269.7,-220.7 L-270.0,-219.8 L-272.1,-220.8 L-274.8,-219.0 L-277.3,-218.5 L-274.8,-216.1 L-277.3,-215.2 L-278.7,-211.9 L-280.4,-211.2 L-287.2,-216.1 L-299.7,-218.4 L-304.5,-218.5 L-301.2,-219.4 L-298.0,-219.2 L-290.9,-217.4 L-290.9,-218.5 L-293.7,-219.7 L-296.9,-220.5 L-304.5,-221.0 L-304.5,-222.3 L-302.1,-222.8 L-301.9,-225.4 L-301.3,-226.1 L-297.1,-226.0 L-293.2,-232.1 L-290.9,-233.4 L-290.9,-234.7 L-299.7,-228.5 L-305.2,-226.3 L-309.0,-225.7 L-306.5,-224.4 L-305.6,-223.4 L-305.6,-222.3 L-320.4,-219.8 L-322.9,-220.4 L-329.1,-226.0 L-335.1,-233.4 L-337.1,-232.3 L-346.4,-233.4 L-352.5,-233.4 L-356.8,-235.8 L-363.6,-235.6 L-367.1,-236.4 L-368.6,-238.9 L-370.2,-239.4 L-379.6,-235.8 L-382.2,-237.6 L-393.3,-237.2 L-397.0,-242.1 L-399.6,-243.7 L-400.2,-244.8 L-399.5,-246.9 L-401.0,-247.0 L-404.4,-248.2 L-404.9,-250.2 L-408.3,-252.8 L-413.1,-255.0 L-417.9,-255.6 L-416.3,-251.9 L-417.6,-249.2 L-421.6,-246.2 L-425.3,-246.9 L-422.0,-247.1 L-421.0,-247.9 L-420.3,-249.5 L-425.7,-248.5 L-426.6,-246.9 L-431.7,-249.7 L-439.2,-251.4 L-441.5,-253.5 L-443.2,-256.4 L-443.8,-259.3 L-445.7,-257.2 L-444.6,-254.4 L-440.0,-250.6 L-440.0,-249.5 L-444.1,-248.9 L-447.5,-246.9 L-450.9,-250.9 L-453.4,-250.4 L-453.9,-248.2 L-451.3,-246.9 L-452.4,-245.7 L-452.4,-244.6 L-447.5,-244.6 L-447.5,-243.2 L-453.3,-239.4 L-460.5,-237.4 L-486.9,-238.3 L-486.9,-243.2 L-482.6,-243.9 L-481.9,-245.1 L-482.5,-248.3 L-485.2,-252.9 L-487.0,-257.9 L-489.7,-261.1 L-498.2,-268.6 L-516.0,-277.7 L-523.0,-274.1 L-528.4,-277.6 L-537.5,-277.7 L-551.1,-280.3 L-549.0,-282.0 L-546.1,-286.5 L-543.1,-285.1 L-485.1,-293.8 L-474.9,-291.7 L-472.2,-292.5 L-471.4,-293.8 L-469.6,-298.9 L-470.4,-300.9 L-473.0,-303.1 L-474.4,-308.3 L-476.8,-310.0 L-485.9,-311.7 L-487.0,-312.6 L-488.3,-314.8 L-492.8,-313.7 L-502.4,-317.8 L-507.4,-316.7 L-512.5,-309.4 L-515.7,-306.0 L-520.3,-304.9 L-517.9,-309.9 L-519.9,-312.0 L-521.5,-314.8 L-520.6,-317.0 L-518.5,-318.5 L-519.7,-320.3 L-532.7,-321.0 L-532.3,-322.9 L-532.7,-324.7 L-530.8,-325.4 L-525.8,-324.7 L-523.5,-325.2 L-523.1,-326.4 L-523.9,-328.4 L-520.7,-334.0 L-518.4,-335.4 L-515.4,-334.5 L-517.8,-327.8 L-512.8,-326.3 L-496.8,-327.0 L-492.4,-324.9 L-490.0,-324.7 L-479.3,-326.5 L-467.3,-327.0 L-469.5,-325.9 L-472.2,-325.9 L-468.5,-324.9 L-453.7,-327.0 L-453.7,-328.4 L-459.4,-328.1 L-461.5,-328.8 L-462.3,-330.9 L-463.9,-329.5 L-466.4,-329.0 L-468.6,-329.6 L-469.6,-331.5 L-478.4,-330.9 L-476.9,-332.5 L-474.7,-333.4 L-473.7,-334.9 L-468.5,-338.3 L-471.5,-338.3 L-475.6,-336.3 L-478.4,-335.7 L-478.4,-337.0 L-477.1,-337.0 L-477.1,-338.3 L-478.4,-338.3 L-480.8,-335.7 L-483.5,-336.5 L-489.2,-333.9 L-493.2,-333.4 L-491.8,-334.5 L-493.2,-335.7 L-496.8,-334.0 L-501.7,-333.4 L-501.7,-334.5 L-491.4,-342.8 L-472.2,-350.7 L-484.6,-347.0 L-496.8,-345.7 L-502.4,-344.1 L-513.7,-339.3 L-522.5,-337.9 L-527.9,-336.0 L-531.4,-335.7 L-544.3,-338.3 L-544.9,-337.7 L-545.2,-335.1 L-546.8,-334.5 L-555.9,-334.6 L-558.3,-335.2 L-559.9,-337.0 L-561.0,-340.8 L-557.7,-341.0 L-557.9,-343.3 L-561.0,-348.1 L-561.3,-351.5 L-560.4,-354.9 L-558.3,-357.4 L-554.9,-358.1 L-554.9,-359.2 L-559.4,-361.4 L-557.6,-366.6 L-550.0,-375.3 L-546.1,-373.9 L-547.5,-375.3 L-544.6,-376.6 L-535.6,-377.7 L-532.1,-377.1 L-526.2,-374.8 L-523.9,-375.3 L-528.1,-379.1 L-529.4,-381.5 L-527.0,-382.6 L-518.8,-381.2 L-515.4,-381.3 L-520.3,-382.6 L-519.5,-384.0 L-521.5,-385.2 L-521.5,-386.3 L-507.4,-386.3 L-503.3,-386.8 L-497.4,-388.7 L-493.2,-388.8 L-496.8,-390.0 L-496.8,-391.4 L-491.7,-392.0 L-481.8,-395.2 L-477.1,-395.0 L-473.8,-392.5 L-475.2,-388.5 L-471.0,-388.8 L-463.6,-391.4 L-457.3,-390.0 L-454.9,-390.0 L-454.9,-391.4 L-458.3,-392.0 L-457.4,-393.8 L-451.3,-397.4 L-443.7,-398.8 L-439.6,-398.7 L-436.3,-397.4 L-435.3,-398.5 L-434.3,-398.4 L-432.6,-396.3 L-431.5,-396.3 L-429.6,-398.2 L-429.5,-399.6 L-430.2,-401.2 L-415.3,-404.9 L-414.2,-404.3 L-415.3,-401.3 L-415.1,-400.4 L-413.0,-399.9 L-413.0,-398.7 L-414.2,-398.7 L-414.2,-397.4 L-412.4,-396.6 L-411.2,-395.3 L-410.9,-393.5 L-411.9,-391.4 L-406.8,-394.7 L-404.1,-395.6 L-400.6,-395.0 L-403.1,-393.7 L-403.1,-392.6 L-401.0,-390.6 L-395.6,-388.4 L-393.3,-386.3 L-392.0,-387.6 L-393.3,-388.8 L-392.0,-390.0 L-393.4,-392.6 L-394.4,-396.3 L-393.3,-396.3 L-390.7,-393.7 L-391.2,-396.9 L-390.7,-400.3 L-389.3,-402.3 L-387.1,-401.2 L-385.9,-402.9 L-385.8,-405.0 L-383.5,-402.8 L-380.1,-402.1 L-371.7,-402.4 L-363.6,-398.7 L-354.9,-399.9 L-354.9,-396.8 L-350.5,-395.9 L-345.3,-395.9 L-342.7,-396.8 L-345.2,-403.7 L-344.5,-405.0 L-335.1,-406.1 L-337.7,-407.2 L-343.9,-412.4 L-344.7,-415.3 L-342.9,-416.8 L-337.7,-418.4 L-332.8,-424.6 L-330.0,-423.7 L-324.3,-423.4 L-318.0,-421.0 L-315.6,-420.9 L-318.0,-418.4 L-311.6,-418.3 L-306.9,-421.0 L-291.7,-424.8 L-289.6,-425.9 L-286.7,-425.6 L-281.4,-430.0 L-278.5,-429.6 L-277.3,-427.0 L-277.4,-423.5 L-278.7,-420.2 L-281.0,-418.4 L-279.7,-415.9 L-279.0,-418.2 L-277.6,-419.9 L-272.2,-424.4 L-266.2,-428.2 L-264.3,-427.7 L-261.0,-430.3 L-258.7,-430.8 L-256.5,-429.8 L-255.2,-428.2 L-255.1,-426.3 L-256.3,-424.6 L-256.3,-423.4 L-253.9,-422.1 L-255.2,-420.6 L-257.6,-415.9 L-262.6,-411.1 L-262.6,-409.8 L-261.2,-409.8 L-255.3,-417.9 L-251.8,-421.3 L-248.9,-420.9 L-245.2,-422.2 L-241.5,-420.9 L-242.8,-419.6 L-241.7,-419.5 L-241.5,-418.4 L-247.6,-415.9 L-247.6,-414.8 L-245.3,-413.5 L-240.7,-412.3 L-231.5,-412.0 L-228.0,-411.1 L-228.0,-407.3 L-230.4,-406.1 L-230.4,-405.0 L-224.5,-402.0 L-221.8,-399.9 L-220.6,-398.1 L-208.9,-391.4 L-206.1,-383.6 L-207.0,-381.9 L-206.3,-380.7 L-198.8,-377.3 L-188.5,-373.9 L-189.8,-371.0 L-192.2,-369.1 L-188.4,-368.4 L-182.8,-364.6 L-182.4,-368.9 L-181.7,-370.2 L-174.5,-370.0 L-171.6,-370.8 L-168.1,-373.4 L-162.5,-379.0 L-145.3,-385.7 L-142.7,-387.6 L-142.7,-388.8 L-147.7,-390.0 L-139.7,-391.6 L-135.8,-391.3 L-134.2,-388.8 L-129.5,-390.0 L-124.1,-392.4 L-119.4,-395.5 L-116.9,-398.7 L-116.2,-396.7 L-115.0,-395.3 L-113.1,-394.8 L-110.8,-395.0 L-110.8,-393.7 L-112.1,-393.0 L-114.4,-390.0 L-119.5,-386.3 L-116.3,-384.6 L-109.2,-388.7 L-105.2,-390.0 L-104.3,-389.0 L-102.7,-383.9 L-100.7,-383.2 L-99.5,-381.7 L-98.5,-377.7 L-96.5,-378.5 L-95.2,-379.8 L-94.6,-381.7 L-94.7,-383.9 L-92.9,-379.0 L-91.3,-377.9 L-88.6,-379.0 L-88.6,-380.2 L-91.0,-381.3 L-89.0,-383.3 L-86.9,-384.4 L-84.7,-384.2 L-82.4,-382.6 L-84.6,-385.0 L-86.1,-387.6 L-78.0,-389.4 L-69.4,-390.0 L-65.2,-384.5 L-64.0,-380.8 L-62.4,-379.5 L-60.2,-379.0 L-61.5,-376.5 L-56.8,-371.8 L-55.8,-369.4 L-56.5,-365.4 L-49.1,-369.1 L-54.1,-371.5 L-53.1,-372.9 L-55.8,-376.1 L-56.5,-379.0 L-55.2,-379.0 L-51.5,-376.5 L-52.9,-378.6 L-54.5,-379.7 L-58.4,-380.2 L-60.1,-381.2 L-65.2,-388.8 L-63.3,-391.9 L-57.8,-394.3 L-57.5,-396.8 L-55.9,-397.4 L-49.1,-397.4 L-50.2,-398.7 L-31.9,-401.2 L-32.4,-399.6 L-30.5,-397.4 L-35.0,-392.6 L-35.0,-388.4 L-30.9,-385.3 L-23.3,-383.9 L-10.1,-383.8 L4.1,-385.2 L12.8,-388.4 L15.7,-388.8 L29.9,-387.6 L49.2,-390.4 L55.8,-388.8 L53.0,-391.9 L49.0,-393.3 L42.1,-393.7 L41.2,-392.6 L40.2,-392.3 L38.9,-395.3 L38.0,-396.0 L31.8,-397.2 L29.5,-398.2 L28.6,-399.3 L27.0,-403.5 L20.3,-407.5 L18.8,-411.7 L18.7,-416.7 L18.0,-421.0 L15.8,-423.8 L11.5,-424.6 L11.5,-425.9 L14.0,-426.6 L15.9,-428.3 L17.1,-430.4 L18.5,-439.0 L19.7,-440.8 L21.3,-439.3 L22.3,-441.3 L22.4,-442.9 L21.5,-443.9 L19.4,-444.3 L18.6,-445.4 L20.6,-455.8 L21.8,-458.5 L24.2,-459.3 L28.6,-458.0 L28.6,-459.1 L25.1,-460.2 L21.1,-460.2 L17.7,-458.9 L15.7,-455.4 L13.2,-458.2 L12.6,-459.7 L12.7,-464.0 L13.9,-467.8 L11.4,-468.1 L10.4,-469.5 L10.6,-471.5 L12.7,-476.1 L17.5,-478.8 L15.3,-480.0 L13.9,-478.8 L11.2,-485.1 L10.1,-491.9 L11.5,-493.6 L14.8,-493.7 L21.3,-492.5 L21.3,-493.6 L12.8,-495.8 L9.0,-495.9 L7.6,-492.5 L4.7,-494.7 L1.7,-501.3 L-0.9,-503.4 L1.5,-504.8 L-3.6,-507.4 L-5.8,-509.4 L-7.2,-512.3 L-3.5,-512.3 L-3.5,-513.4 L-5.8,-517.1 L-7.2,-517.1 L-8.7,-513.9 L-12.0,-515.3 L-16.0,-518.2 L-19.6,-519.6 L-18.2,-522.1 L-25.2,-520.8 L-27.0,-522.1 L-27.5,-524.4 L-26.8,-530.6 L-27.5,-534.4 L-30.9,-538.6 L-31.9,-541.8 L-39.2,-548.6 L-38.1,-551.1 L-33.0,-554.1 L-31.9,-555.9 L-31.1,-564.6 L-34.9,-570.9 L-36.5,-572.1 L-42.3,-572.9 L-50.2,-575.0 L-48.8,-579.3 L-49.1,-582.0 L-48.3,-583.3 L-43.5,-583.7 L-36.1,-581.3 L-31.1,-581.8 L-28.4,-580.5 L-27.0,-577.5 L-23.3,-577.5 L-19.3,-576.6 L-7.4,-575.4 L6.1,-572.4 L8.9,-572.6 L9.5,-570.4 L10.8,-570.0 L12.5,-570.4 L14.9,-572.2 L16.9,-572.6 L22.7,-571.4 L24.9,-571.3 L27.9,-572.3 L30.7,-574.0 L35.4,-578.1 L38.0,-579.4 L46.3,-581.1 L49.6,-581.3 L72.7,-578.2 L74.3,-573.9 L78.2,-568.5 L79.0,-565.3 L74.4,-563.2 L72.5,-559.1 L68.5,-559.0 L65.7,-557.7 L64.9,-553.5 L67.2,-549.9 L70.2,-546.7 L72.9,-541.8 L86.6,-530.5 L88.4,-527.7 L89.0,-523.8 L88.6,-521.8 L86.7,-519.0 L87.2,-517.1 L92.7,-518.3 L97.9,-515.2 L101.4,-515.8 L101.4,-517.1 L99.5,-518.8 L100.9,-521.3 L103.9,-523.5 L107.0,-524.4 L130.7,-523.6 L152.0,-518.3 L182.9,-517.1 L190.6,-515.5 L195.0,-515.3 L201.5,-517.6 L205.9,-517.0 L213.7,-514.7 L226.0,-514.7 L234.6,-511.5 L243.6,-510.1 L260.5,-503.4 L265.1,-506.1 L293.9,-510.6 L302.3,-513.2 L307.3,-516.1 L311.4,-516.8 L313.0,-517.7 L317.3,-522.1 L329.2,-527.7 L374.0,-534.4 L382.3,-537.1 L385.8,-539.2 L388.8,-541.8 L376.0,-536.6 L361.1,-535.2 L346.2,-536.5 L333.4,-539.4 L326.5,-539.6 L318.8,-541.8 L316.7,-544.7 L314.2,-545.8 L313.6,-547.3 L313.8,-549.3 L314.3,-550.6 L323.6,-561.6 L330.8,-577.5 L333.5,-579.6 L342.5,-584.3 L344.4,-584.3 L346.2,-585.5 L369.7,-592.5 L371.6,-594.2 L394.1,-602.9 L400.3,-604.2 L407.4,-607.3 L421.5,-610.6 L437.0,-610.5 L511.1,-626.0 L515.5,-628.2 L519.8,-629.2 L527.0,-634.4 L550.4,-646.5 L562.0,-655.2 L563.6,-656.8 L567.6,-666.3 L573.8,-671.6 L580.0,-672.2 L597.8,-666.6 L599.5,-666.7 L601.1,-667.7 L601.1,-668.9 L598.0,-669.1 L596.0,-671.2 L599.7,-671.2 L599.7,-672.6 L592.6,-673.4 L589.8,-674.8 L586.9,-679.1 L579.2,-681.5 L577.5,-683.0 L577.8,-688.8 L579.3,-695.8 L583.0,-700.6 L589.9,-699.7 L589.9,-700.8 L579.9,-705.9 L579.9,-707.1 L583.2,-713.2 L583.4,-721.6 L584.3,-729.0 L589.9,-731.7 L585.0,-736.4 L584.0,-738.9 L583.2,-747.4 L581.4,-755.1 L581.3,-758.8 L582.2,-762.0 L586.0,-769.1 L588.0,-771.8 L589.0,-775.2 L587.9,-779.3 L585.0,-786.0 L584.5,-789.4 L588.9,-791.6 L597.6,-793.0 L605.8,-799.6 L611.4,-802.9 L645.9,-812.4 L649.1,-812.0 L655.2,-814.3 L684.1,-816.6 L716.9,-823.6 L729.2,-823.0 L743.9,-825.4 L753.9,-828.8 Z" fill="#faf5ef" stroke="#8B1A2B" stroke-width="1.3" stroke-linejoin="round"/></g>
  <g>    <path class="region-area" d="M75.5,356.2 L73.5,348.4 L73.7,346.9 L78.5,342.0 L82.9,330.4 L86.4,327.2 L90.9,327.1 L102.0,329.0 L108.3,328.4 L111.9,326.5 L112.0,323.8 L107.6,320.4 L110.0,320.4 L108.2,317.9 L94.6,308.7 L90.2,306.8 L89.0,306.9 L86.1,310.9 L77.9,319.8 L75.9,327.7 L73.1,334.1 L84.1,245.2 L91.6,216.8 L94.8,178.8 L95.9,176.1 L102.1,167.4 L104.7,164.6 L107.6,163.8 L109.5,164.5 L109.9,165.3 L109.7,168.7 L108.8,171.2 L112.8,175.7 L124.9,182.3 L135.3,185.9 L157.0,203.0 L162.1,208.3 L164.2,213.7 L164.7,217.3 L167.0,224.0 L171.1,242.8 L177.2,253.2 L183.3,258.9 L190.2,263.7 L196.0,266.1 L197.6,267.4 L199.1,269.6 L199.3,271.3 L198.8,274.2 L199.8,281.7 L201.3,284.6 L203.8,285.9 L202.4,278.3 L201.3,276.1 L203.0,271.2 L200.9,267.3 L196.9,264.4 L192.7,262.6 L202.9,263.5 L207.0,265.0 L211.1,267.4 L206.6,261.7 L199.4,259.2 L191.6,257.4 L185.2,253.8 L181.9,249.2 L179.6,243.5 L172.8,209.0 L179.3,208.8 L187.2,209.5 L189.7,208.1 L192.0,205.1 L194.9,204.6 L197.4,207.1 L198.6,212.0 L199.8,213.1 L201.9,214.1 L205.7,214.7 L212.7,215.0 L220.7,218.8 L222.7,220.5 L224.0,222.0 L224.2,223.2 L223.7,228.3 L224.2,230.7 L225.5,233.1 L229.0,237.0 L232.0,237.7 L239.0,237.0 L244.7,239.8 L247.4,240.2 L250.0,241.2 L254.9,244.8 L259.3,246.7 L268.7,248.8 L273.8,248.2 L281.3,245.9 L284.0,245.6 L289.0,246.9 L294.0,245.4 L305.7,245.4 L308.7,247.4 L311.4,252.3 L311.9,255.6 L306.9,263.7 L306.6,265.1 L307.1,267.7 L302.5,271.9 L301.3,274.1 L300.9,276.7 L301.9,278.3 L305.6,281.4 L305.5,283.1 L297.7,292.0 L300.1,291.7 L305.6,295.8 L331.4,298.2 L334.8,297.3 L343.2,290.8 L341.9,288.4 L354.9,290.8 L358.0,292.8 L356.0,295.1 L353.4,296.9 L350.4,298.1 L347.5,298.2 L349.4,304.8 L351.0,307.6 L353.5,309.8 L349.2,310.8 L343.1,310.2 L341.8,310.5 L340.9,311.3 L339.8,317.4 L338.5,318.3 L336.1,318.5 L330.8,314.1 L328.6,313.8 L323.2,315.3 L321.4,316.7 L319.9,319.1 L319.5,321.6 L320.4,324.0 L322.6,325.9 L329.8,327.5 L331.4,329.0 L330.6,332.3 L314.7,346.7 L313.0,347.9 L307.4,347.5 L306.0,348.2 L298.9,355.4 L297.5,357.4 L296.8,359.7 L297.3,361.7 L301.4,364.6 L302.0,366.2 L299.9,371.4 L299.8,373.1 L302.9,378.4 L302.7,381.0 L299.1,380.5 L286.8,383.2 L284.6,384.8 L286.3,387.4 L291.4,391.7 L293.7,397.3 L288.1,401.3 L274.7,406.2 L263.4,399.4 L260.4,400.5 L259.7,408.8 L257.0,411.4 L231.6,409.4 L229.8,407.9 L228.7,404.3 L230.9,396.6 L229.7,395.0 L221.1,389.6 L209.4,387.2 L206.8,386.0 L205.3,382.1 L204.4,381.1 L190.2,375.0 L188.0,372.8 L187.1,368.9 L184.1,366.3 L177.5,365.7 L148.6,370.9 L134.1,367.8 L125.0,369.4 L121.9,369.3 L118.6,368.4 L121.9,360.0 L120.0,356.2 L105.7,351.6 L104.6,352.8 L93.9,358.2 L74.8,362.7 L75.5,356.2 Z" fill="rgba(139,26,43,0.15)" stroke="rgba(139,26,43,0.4)" stroke-width="0.5"/></g>
  <g>    <circle cx="196.4" cy="298.4" r="9" fill="#8B1A2B" stroke="#fff" stroke-width="0.8"/>
    <text x="196.4" y="301.9" text-anchor="middle" font-family="Inter, sans-serif" font-size="9" font-weight="700" fill="#fff">1</text></g>
  <line x1="28" y1="482" x2="392" y2="482" stroke="#8B1A2B" stroke-width="0.3" opacity="0.25"/>
  <text x="32" y="490" font-family="Inter, sans-serif" font-size="8.5" fill="#2D1B14"><tspan font-weight="700">1. _______________</tspan> : _______________</text>
  <text x="210" y="512" text-anchor="middle" font-family="Inter, sans-serif" font-size="7" fill="#b0a89e">Cellar -- Sommelier Companion</text>
</svg>