<svg xmlns="http://www.w3.org/2000/svg" viewBox="0 0 420 480">
  <defs><filter id="shadow"><feDropShadow dx="1" dy="1.5" stdDeviation="2" flood-color="#2D1B14" flood-opacity="0.08"/></filter></defs>
  <text x="210" y="24" text-anchor="middle" font-family="Cormorant Garamond, Georgia, serif" font-size="16" font-weight="400" fill="#2D1B14" letter-spacing="5">BORDEAUX</text>
  <text x="210" y="42" text-anchor="middle" font-family="Inter, sans-serif" font-size="8" fill="#8a7a6a" letter-spacing="1" class="region-label">Placera regionerna och namnge de viktigaste druvorna</text>
  <g filter="url(#shadow)">    <path d="M753.9,-848.8 L756.7,-844.6 L758.5,-836.7 L760.3,-833.2 L766.7,-828.7 L769.5,-826.0 L770.1,-822.4 L764.9,-818.7 L763.8,-817.1 L767.4,-809.2 L765.6,-805.2 L769.2,-803.3 L771.7,-800.0 L775.6,-799.2 L782.2,-799.4 L784.5,-798.6 L787.2,-795.0 L793.9,-790.9 L798.3,-785.0 L801.6,-783.2 L819.6,-778.4 L822.0,-779.6 L827.4,-785.5 L830.7,-787.8 L834.9,-789.4 L858.6,-794.1 L863.3,-793.2 L866.3,-791.4 L871.8,-785.1 L874.0,-781.7 L875.4,-780.7 L880.4,-779.9 L881.8,-778.3 L883.9,-774.0 L881.4,-771.0 L882.8,-765.8 L887.6,-755.6 L887.9,-749.9 L888.8,-747.8 L894.0,-744.3 L905.0,-741.2 L909.4,-741.5 L917.3,-743.3 L923.3,-746.4 L925.9,-746.6 L928.5,-746.1 L929.6,-745.1 L929.4,-743.7 L927.6,-741.7 L929.8,-740.6 L941.5,-740.6 L949.5,-738.8 L953.1,-736.6 L956.0,-733.2 L957.5,-726.2 L957.5,-717.8 L959.1,-710.5 L965.4,-706.7 L966.1,-707.8 L967.5,-708.1 L972.0,-713.7 L973.5,-714.8 L975.9,-715.3 L983.8,-715.7 L991.2,-715.1 L1001.3,-711.6 L1005.3,-711.6 L1016.8,-714.7 L1020.6,-714.9 L1024.1,-713.9 L1030.1,-709.6 L1037.6,-706.1 L1042.5,-699.3 L1045.9,-698.3 L1047.2,-699.1 L1047.0,-701.5 L1049.3,-702.1 L1055.6,-699.5 L1056.7,-698.4 L1056.2,-696.5 L1050.2,-693.0 L1047.5,-689.8 L1046.5,-686.5 L1043.1,-679.3 L1042.6,-676.1 L1045.2,-675.2 L1050.7,-676.5 L1052.5,-675.9 L1055.5,-668.1 L1057.9,-665.0 L1057.8,-663.8 L1049.3,-660.5 L1044.7,-657.5 L1043.1,-654.0 L1043.9,-653.8 L1045.1,-648.4 L1043.7,-648.5 L1056.2,-644.5 L1070.0,-645.8 L1098.3,-640.8 L1103.7,-641.4 L1128.8,-649.4 L1136.3,-650.2 L1138.2,-651.0 L1139.9,-653.1 L1141.1,-655.9 L1142.5,-661.7 L1141.2,-664.9 L1142.7,-668.1 L1161.9,-680.6 L1166.8,-682.0 L1167.6,-679.4 L1169.6,-678.8 L1175.3,-679.6 L1176.9,-678.2 L1175.3,-668.1 L1173.4,-669.5 L1172.3,-669.3 L1168.9,-664.5 L1168.8,-659.5 L1161.9,-648.4 L1161.1,-645.5 L1163.5,-643.0 L1172.0,-640.7 L1174.8,-637.4 L1175.2,-635.1 L1174.7,-633.5 L1172.2,-628.9 L1170.6,-627.6 L1170.3,-626.5 L1172.9,-622.7 L1172.8,-616.0 L1174.4,-614.6 L1179.2,-614.1 L1191.0,-616.4 L1194.8,-616.5 L1198.0,-615.3 L1204.7,-611.0 L1208.3,-609.7 L1214.7,-608.5 L1216.9,-607.2 L1224.5,-600.0 L1230.5,-596.7 L1234.6,-595.9 L1242.8,-597.4 L1246.7,-597.4 L1253.9,-592.2 L1255.1,-589.6 L1252.9,-588.3 L1252.3,-585.7 L1252.7,-584.1 L1253.6,-583.4 L1257.9,-583.3 L1260.3,-585.6 L1269.0,-583.4 L1272.4,-581.4 L1281.0,-571.2 L1281.8,-569.6 L1281.0,-564.4 L1282.1,-562.8 L1286.0,-562.1 L1298.6,-567.2 L1304.2,-565.5 L1308.4,-565.5 L1309.4,-567.5 L1311.6,-569.4 L1316.0,-570.9 L1327.8,-568.6 L1330.1,-569.2 L1332.4,-571.2 L1334.3,-571.9 L1342.3,-569.8 L1348.0,-564.9 L1351.1,-563.0 L1355.6,-561.6 L1367.1,-559.8 L1370.5,-557.6 L1372.9,-552.4 L1376.1,-553.1 L1391.4,-553.7 L1394.0,-554.4 L1395.8,-556.1 L1398.0,-556.6 L1398.4,-558.8 L1399.3,-559.9 L1405.7,-560.5 L1404.5,-562.1 L1414.8,-562.9 L1420.0,-562.5 L1424.9,-561.3 L1433.8,-556.9 L1438.6,-555.2 L1443.7,-554.9 L1450.5,-557.0 L1452.5,-556.8 L1469.0,-551.4 L1472.1,-549.5 L1473.7,-546.5 L1473.4,-545.4 L1483.4,-538.1 L1484.0,-537.0 L1483.2,-535.6 L1480.0,-535.5 L1479.0,-533.8 L1480.2,-531.8 L1495.1,-521.8 L1495.3,-518.5 L1499.5,-516.9 L1502.5,-510.3 L1506.5,-511.5 L1507.6,-508.6 L1506.2,-504.1 L1508.5,-501.6 L1510.6,-501.0 L1518.6,-501.0 L1525.6,-499.3 L1527.9,-499.6 L1531.0,-502.3 L1529.0,-508.2 L1530.0,-510.7 L1531.8,-511.0 L1539.3,-509.9 L1544.6,-510.2 L1546.6,-510.0 L1557.8,-505.8 L1561.7,-505.7 L1561.6,-499.4 L1563.7,-494.4 L1567.7,-492.4 L1573.2,-494.7 L1573.5,-495.6 L1572.7,-497.5 L1574.4,-498.6 L1582.2,-495.2 L1587.9,-493.6 L1603.4,-493.5 L1609.4,-491.9 L1613.5,-496.1 L1620.1,-497.1 L1623.2,-501.7 L1630.4,-503.6 L1633.9,-503.4 L1634.7,-501.4 L1642.4,-501.1 L1645.7,-500.3 L1646.9,-497.7 L1644.8,-496.1 L1647.3,-494.4 L1653.8,-488.1 L1657.7,-486.4 L1665.6,-485.5 L1669.5,-484.2 L1672.6,-480.7 L1674.3,-479.8 L1676.8,-479.4 L1683.3,-480.7 L1690.9,-479.4 L1699.3,-481.7 L1714.2,-478.8 L1727.7,-479.3 L1756.3,-469.3 L1774.0,-466.8 L1776.1,-465.5 L1772.3,-462.7 L1766.7,-455.7 L1758.5,-440.8 L1756.3,-438.4 L1748.6,-435.4 L1747.0,-435.3 L1744.9,-433.4 L1744.1,-430.7 L1743.1,-430.1 L1734.6,-429.3 L1733.7,-427.7 L1733.5,-424.3 L1732.7,-422.8 L1721.3,-414.8 L1718.5,-413.2 L1713.4,-411.6 L1705.8,-403.7 L1704.3,-397.8 L1704.3,-391.6 L1706.4,-387.7 L1706.4,-386.5 L1699.8,-382.7 L1698.8,-381.0 L1698.5,-377.6 L1695.1,-373.0 L1692.9,-366.2 L1692.7,-363.8 L1693.3,-361.7 L1695.4,-357.0 L1695.1,-354.4 L1692.7,-351.8 L1686.4,-349.0 L1683.7,-338.5 L1681.8,-335.9 L1670.4,-325.3 L1669.2,-323.1 L1668.9,-320.5 L1665.4,-316.4 L1663.1,-310.1 L1663.6,-302.7 L1671.4,-293.5 L1671.8,-287.9 L1670.1,-285.7 L1665.3,-282.3 L1664.3,-279.9 L1664.2,-276.1 L1660.6,-271.9 L1660.6,-269.4 L1661.6,-266.1 L1661.2,-264.1 L1657.7,-262.3 L1655.2,-256.5 L1654.7,-254.0 L1656.9,-247.7 L1656.8,-244.7 L1652.1,-240.3 L1653.2,-234.5 L1653.9,-233.7 L1656.6,-232.7 L1659.0,-230.4 L1663.1,-225.0 L1666.3,-222.4 L1666.6,-220.7 L1665.5,-218.2 L1654.7,-215.0 L1646.9,-210.6 L1650.9,-208.9 L1651.0,-207.1 L1650.2,-206.1 L1645.8,-205.7 L1646.0,-204.4 L1647.5,-202.7 L1647.2,-201.7 L1644.1,-199.7 L1636.7,-201.7 L1634.6,-201.2 L1634.6,-200.1 L1637.0,-197.7 L1637.3,-196.7 L1636.7,-195.0 L1633.1,-191.9 L1628.1,-190.5 L1615.6,-190.9 L1610.9,-190.2 L1602.9,-188.0 L1601.5,-188.4 L1599.5,-190.1 L1594.2,-191.3 L1590.3,-192.8 L1589.3,-195.8 L1592.5,-200.9 L1587.7,-200.6 L1578.7,-202.3 L1569.7,-201.3 L1565.0,-201.7 L1561.8,-202.9 L1555.2,-201.0 L1555.6,-199.0 L1558.4,-194.4 L1557.0,-192.9 L1554.3,-191.3 L1551.4,-190.2 L1546.7,-189.5 L1546.4,-186.1 L1541.8,-184.2 L1539.1,-181.9 L1536.9,-179.1 L1536.0,-176.7 L1557.4,-178.2 L1560.7,-179.3 L1566.1,-176.1 L1568.0,-174.3 L1566.6,-172.3 L1561.2,-170.5 L1558.5,-168.1 L1555.9,-167.7 L1552.6,-165.3 L1551.4,-161.6 L1552.1,-157.1 L1539.9,-151.0 L1534.7,-147.4 L1531.3,-143.5 L1519.5,-136.1 L1514.1,-134.8 L1514.3,-131.7 L1511.0,-130.5 L1510.4,-129.3 L1505.8,-128.2 L1504.1,-127.1 L1501.7,-124.2 L1503.9,-120.9 L1499.8,-116.8 L1487.8,-110.6 L1468.4,-106.4 L1459.7,-102.9 L1457.0,-96.6 L1460.1,-91.9 L1460.7,-89.9 L1460.4,-87.4 L1458.2,-84.1 L1455.1,-77.4 L1457.9,-74.5 L1457.9,-71.4 L1457.3,-69.9 L1453.3,-67.2 L1447.4,-65.0 L1440.8,-60.3 L1427.9,-55.5 L1403.7,-40.2 L1401.3,-38.0 L1401.9,-35.7 L1406.2,-32.3 L1399.9,-26.7 L1393.6,-19.3 L1391.5,-17.8 L1390.8,-15.8 L1391.7,-14.2 L1392.2,-11.0 L1391.8,-9.9 L1389.8,-8.5 L1399.5,-4.4 L1402.1,-2.4 L1404.3,0.3 L1404.6,2.3 L1398.1,12.7 L1396.9,17.8 L1396.9,21.5 L1396.1,22.7 L1391.1,23.6 L1387.7,23.2 L1376.9,26.9 L1372.5,28.8 L1371.9,31.0 L1373.7,33.5 L1376.9,36.3 L1372.6,43.5 L1376.9,41.7 L1385.1,40.4 L1393.3,40.1 L1399.4,42.0 L1405.3,40.0 L1414.4,32.5 L1426.0,27.2 L1430.6,23.8 L1429.7,19.6 L1428.4,19.3 L1425.4,20.2 L1422.8,18.8 L1418.5,10.2 L1419.5,7.8 L1428.4,-0.5 L1434.3,-4.0 L1439.8,-5.2 L1445.7,-5.4 L1451.6,-6.5 L1466.9,-13.7 L1478.5,-15.3 L1490.5,-15.1 L1517.3,-10.3 L1520.0,-9.3 L1521.7,-7.6 L1522.1,-4.1 L1520.8,-1.1 L1516.0,2.7 L1515.1,4.8 L1518.5,8.9 L1524.9,13.6 L1529.0,18.5 L1522.6,27.1 L1519.5,33.5 L1517.8,39.7 L1519.4,42.7 L1533.7,44.9 L1536.5,46.8 L1536.3,48.2 L1532.7,51.7 L1533.2,51.5 L1533.6,53.3 L1533.2,58.1 L1536.5,59.1 L1540.6,57.0 L1544.7,58.2 L1557.8,68.2 L1561.8,77.2 L1564.0,80.5 L1561.4,81.3 L1559.5,83.0 L1556.9,87.6 L1554.4,90.4 L1550.8,92.6 L1542.9,94.8 L1537.2,94.9 L1536.7,97.9 L1535.6,98.2 L1534.5,97.0 L1531.8,96.0 L1524.1,98.2 L1521.9,100.9 L1520.9,103.8 L1521.2,110.3 L1523.3,117.7 L1526.9,121.6 L1531.8,124.1 L1538.9,125.4 L1545.4,129.5 L1551.2,130.6 L1553.4,131.7 L1554.5,134.3 L1551.5,140.0 L1551.9,141.5 L1554.6,144.9 L1555.5,152.4 L1556.9,155.0 L1565.1,158.2 L1573.0,162.4 L1577.4,168.6 L1588.9,173.0 L1588.7,175.3 L1587.1,178.0 L1583.4,182.7 L1576.7,188.7 L1577.6,193.9 L1579.5,197.5 L1579.5,200.3 L1574.6,203.2 L1570.0,208.5 L1565.4,205.9 L1559.0,207.2 L1552.6,209.2 L1550.2,210.8 L1547.1,214.7 L1544.5,216.4 L1537.2,217.1 L1536.3,218.7 L1538.2,220.5 L1537.8,221.6 L1531.9,223.6 L1525.5,222.0 L1518.9,219.4 L1512.6,218.7 L1506.4,221.6 L1500.1,221.9 L1493.9,224.4 L1490.6,226.3 L1488.5,228.4 L1491.7,231.8 L1494.6,233.6 L1495.1,237.9 L1497.3,240.6 L1499.2,241.7 L1505.5,242.2 L1510.2,244.6 L1511.4,249.8 L1511.0,259.8 L1514.2,263.6 L1520.1,267.2 L1532.5,272.4 L1535.9,273.0 L1544.8,271.7 L1547.9,271.9 L1556.9,274.5 L1560.1,277.1 L1561.3,279.0 L1561.1,280.9 L1559.7,284.1 L1561.8,288.0 L1563.4,294.0 L1568.9,301.4 L1569.9,303.7 L1566.7,303.8 L1560.2,302.4 L1556.9,302.4 L1552.8,304.0 L1549.5,306.9 L1548.2,310.6 L1550.2,314.4 L1547.7,315.8 L1541.5,323.4 L1532.3,328.5 L1530.4,330.9 L1531.0,336.5 L1535.0,341.5 L1545.2,348.5 L1539.2,350.9 L1537.9,352.4 L1535.9,360.0 L1536.6,361.7 L1542.7,367.6 L1545.8,372.6 L1552.7,377.1 L1555.2,382.1 L1556.9,383.5 L1559.3,384.2 L1566.0,383.3 L1568.3,383.7 L1578.9,387.8 L1586.1,389.7 L1605.2,398.2 L1615.7,400.5 L1617.9,403.3 L1619.6,404.5 L1628.5,404.9 L1659.9,398.4 L1665.0,398.1 L1672.5,394.6 L1678.0,395.3 L1675.5,401.2 L1677.7,404.5 L1681.7,407.4 L1684.5,411.8 L1684.2,414.9 L1677.6,419.9 L1673.6,428.2 L1669.5,431.4 L1660.2,437.1 L1656.6,441.3 L1648.8,447.5 L1646.0,451.2 L1646.9,455.8 L1650.4,464.4 L1648.0,465.6 L1645.8,465.8 L1645.8,469.4 L1643.3,469.8 L1638.7,473.2 L1636.7,471.0 L1633.3,469.6 L1629.8,470.6 L1627.1,472.8 L1625.8,476.9 L1621.6,479.6 L1619.5,483.4 L1614.2,483.2 L1610.4,482.2 L1606.3,482.5 L1603.5,483.7 L1601.1,485.6 L1601.7,487.6 L1598.5,490.2 L1596.7,491.0 L1595.4,488.8 L1592.0,488.2 L1587.3,489.1 L1584.6,491.6 L1582.7,498.0 L1585.0,507.3 L1582.6,508.4 L1580.3,505.4 L1578.8,504.7 L1575.9,504.6 L1572.8,506.1 L1566.7,510.5 L1565.5,508.4 L1555.6,508.5 L1553.2,509.8 L1550.1,512.1 L1549.4,514.8 L1551.7,516.2 L1551.8,517.0 L1546.5,521.9 L1545.7,526.2 L1541.7,528.2 L1540.9,530.0 L1536.8,530.3 L1535.3,527.9 L1534.4,528.5 L1534.1,529.8 L1534.8,532.1 L1532.4,532.7 L1527.4,532.1 L1520.9,533.4 L1519.1,531.7 L1516.3,530.9 L1511.6,533.6 L1511.9,538.2 L1509.2,541.0 L1509.2,543.9 L1501.4,544.7 L1499.0,549.0 L1492.4,553.7 L1487.5,555.9 L1486.4,558.6 L1490.1,559.4 L1501.0,557.3 L1504.8,557.9 L1505.6,559.2 L1503.4,562.4 L1500.3,563.9 L1499.8,567.2 L1502.4,570.7 L1495.3,574.3 L1489.8,575.8 L1487.9,575.5 L1486.8,573.2 L1484.6,573.8 L1477.2,574.2 L1476.6,575.9 L1474.8,578.1 L1471.0,579.8 L1466.2,578.9 L1456.0,579.6 L1452.3,580.6 L1448.1,582.5 L1445.9,585.6 L1447.6,590.6 L1441.6,590.7 L1438.6,588.2 L1430.5,585.6 L1425.6,585.2 L1419.5,586.0 L1414.8,587.4 L1409.3,590.3 L1407.6,594.0 L1407.5,598.3 L1410.8,599.4 L1413.4,598.8 L1412.4,600.5 L1397.6,601.4 L1395.9,600.7 L1401.5,598.9 L1403.8,597.5 L1403.2,594.2 L1399.7,591.8 L1384.9,592.9 L1383.0,589.2 L1378.5,588.6 L1372.6,588.6 L1368.1,586.6 L1369.4,582.9 L1363.5,583.4 L1358.3,585.3 L1361.3,586.2 L1363.9,590.2 L1371.2,592.6 L1369.3,594.2 L1359.8,594.0 L1357.6,594.6 L1354.2,598.9 L1347.4,597.4 L1342.2,594.4 L1340.7,592.8 L1347.3,589.2 L1346.1,587.8 L1341.0,586.4 L1339.7,583.5 L1333.4,583.2 L1325.3,580.6 L1323.8,576.6 L1321.3,574.6 L1317.9,573.6 L1314.2,573.3 L1312.1,575.2 L1310.2,578.1 L1305.9,576.8 L1303.1,576.6 L1298.5,572.1 L1296.8,569.7 L1294.5,568.7 L1290.8,570.0 L1271.2,568.8 L1266.7,569.6 L1262.5,568.1 L1263.7,563.1 L1266.4,558.3 L1264.3,556.5 L1264.1,554.4 L1261.0,546.8 L1253.0,543.0 L1242.9,548.0 L1229.4,547.7 L1222.5,548.4 L1211.7,548.0 L1206.1,546.6 L1202.5,542.6 L1201.0,538.3 L1204.7,533.3 L1210.3,531.0 L1226.3,531.0 L1231.3,529.9 L1234.7,527.9 L1238.4,524.6 L1240.7,520.5 L1240.1,516.3 L1234.9,518.8 L1229.8,520.2 L1225.2,519.6 L1221.3,516.3 L1220.0,512.0 L1219.0,511.1 L1215.3,510.1 L1209.7,510.1 L1205.2,506.5 L1204.0,507.6 L1201.7,513.8 L1202.6,517.2 L1204.3,518.7 L1209.1,521.2 L1211.2,525.7 L1209.2,529.7 L1205.0,531.9 L1199.7,532.4 L1197.0,531.9 L1187.1,527.8 L1180.7,530.4 L1176.3,531.1 L1174.5,532.3 L1173.0,534.7 L1175.7,539.0 L1176.2,541.3 L1182.2,540.9 L1177.9,543.9 L1174.0,545.5 L1173.1,542.4 L1170.0,538.2 L1162.5,535.2 L1156.4,531.0 L1153.6,526.2 L1154.1,515.7 L1153.6,512.6 L1150.7,506.8 L1148.1,504.1 L1145.0,502.8 L1145.0,503.9 L1150.4,510.1 L1151.2,512.0 L1151.2,524.9 L1153.7,530.9 L1158.5,534.7 L1164.0,537.5 L1168.1,540.9 L1167.7,544.7 L1139.9,544.4 L1126.6,542.2 L1121.9,540.2 L1121.8,537.2 L1125.4,534.2 L1125.8,532.0 L1124.3,529.6 L1119.9,527.2 L1112.3,525.0 L1093.7,526.4 L1057.1,524.2 L1052.7,523.5 L1048.9,522.1 L1043.9,519.3 L1041.1,515.1 L1043.9,511.1 L1039.0,507.7 L1028.5,506.9 L1018.4,507.8 L1011.5,509.8 L973.2,532.7 L952.0,539.5 L946.1,543.1 L932.4,556.4 L928.6,557.6 L921.4,555.0 L909.4,555.9 L897.2,559.6 L884.0,567.5 L879.8,571.9 L872.2,577.3 L867.8,582.6 L860.5,587.9 L852.7,602.2 L847.0,617.3 L847.5,619.1 L849.8,620.1 L850.1,623.7 L847.3,644.8 L847.0,652.0 L847.8,656.6 L846.8,664.0 L847.5,673.8 L849.3,687.1 L851.9,689.4 L864.7,692.5 L866.3,694.3 L865.8,698.4 L871.7,704.8 L872.6,709.3 L864.8,710.3 L855.5,710.1 L849.6,708.2 L847.9,706.9 L845.3,703.2 L837.0,702.5 L833.9,704.0 L828.1,702.4 L822.2,705.8 L813.1,706.3 L801.9,712.8 L798.2,713.3 L791.1,712.5 L787.5,712.7 L784.3,713.9 L776.7,718.3 L775.3,719.9 L776.9,723.3 L779.1,725.2 L779.2,726.0 L774.4,726.2 L762.1,723.5 L758.7,723.6 L757.3,724.5 L755.8,727.5 L754.5,728.3 L752.7,728.4 L743.7,725.7 L740.2,723.6 L737.4,720.8 L736.1,717.9 L727.6,716.9 L717.1,713.3 L709.9,709.8 L704.3,710.3 L693.2,712.9 L684.7,712.1 L681.8,713.1 L678.7,717.7 L669.3,723.6 L661.7,724.5 L659.2,724.2 L653.5,720.9 L651.8,718.1 L649.4,711.4 L646.9,708.4 L644.2,707.4 L636.6,706.6 L626.5,701.5 L622.7,700.3 L611.5,699.2 L608.2,698.1 L608.2,697.1 L607.3,696.5 L607.9,692.0 L609.9,688.3 L613.2,685.9 L617.7,685.6 L615.5,683.2 L611.3,682.2 L608.4,680.9 L610.0,677.2 L589.5,675.7 L577.8,670.1 L575.0,670.3 L569.7,671.8 L564.0,671.5 L561.3,678.6 L557.3,679.8 L554.7,677.3 L551.6,671.1 L545.0,663.4 L541.8,662.7 L540.9,662.0 L541.7,659.4 L537.4,658.6 L515.3,658.5 L509.3,660.0 L507.3,659.8 L504.2,658.1 L499.2,650.3 L496.0,648.2 L492.3,647.3 L476.9,646.5 L471.0,643.7 L465.8,645.8 L463.9,645.2 L459.4,642.2 L454.1,640.7 L446.3,637.3 L439.7,637.2 L430.4,634.8 L427.2,634.6 L422.3,634.9 L418.1,636.1 L417.3,638.7 L417.7,642.5 L415.1,647.6 L417.1,649.6 L415.8,650.4 L414.0,652.9 L416.6,653.6 L418.7,655.6 L420.0,658.3 L419.8,661.2 L418.2,663.2 L415.8,663.8 L409.5,663.2 L387.0,663.6 L384.0,662.7 L373.7,664.2 L370.1,663.7 L369.2,663.1 L368.7,661.0 L363.8,657.9 L360.5,658.7 L357.3,661.1 L352.2,666.3 L349.6,666.6 L346.8,664.2 L342.9,659.1 L340.0,658.1 L330.5,656.2 L327.5,656.6 L324.2,658.3 L313.1,659.5 L299.2,663.2 L293.0,663.7 L285.9,661.6 L282.8,659.1 L278.6,658.0 L277.8,655.5 L273.8,652.7 L271.6,650.1 L270.5,647.0 L270.9,643.8 L262.5,645.9 L257.7,645.5 L255.5,642.1 L244.7,637.3 L241.9,635.3 L239.7,638.5 L238.3,638.9 L236.7,637.7 L228.0,642.8 L223.7,644.7 L218.2,645.0 L208.5,641.7 L203.9,641.6 L203.6,645.8 L197.6,647.9 L195.8,647.1 L196.1,644.8 L195.1,643.7 L190.2,643.2 L190.3,640.9 L183.3,634.0 L173.9,629.2 L168.6,629.0 L166.7,627.7 L165.7,626.1 L166.6,623.0 L163.3,616.6 L158.4,615.4 L144.6,617.2 L130.2,616.4 L123.3,614.7 L117.1,611.3 L114.9,609.4 L105.7,608.2 L99.8,605.5 L93.0,606.0 L87.1,602.4 L81.0,599.9 L70.5,598.6 L67.1,597.1 L64.1,594.5 L63.3,592.1 L64.7,589.7 L68.5,587.3 L64.4,586.6 L60.4,587.7 L57.3,590.2 L56.1,593.9 L55.6,598.6 L54.1,601.0 L51.0,601.7 L46.1,601.4 L41.7,600.6 L37.7,598.9 L34.4,596.2 L32.2,592.3 L43.4,582.7 L46.1,577.0 L48.1,569.8 L47.4,563.2 L42.2,559.3 L36.0,560.1 L28.5,557.2 L22.9,556.0 L19.4,555.9 L16.7,557.1 L14.2,561.7 L12.3,562.5 L8.1,562.5 L5.0,561.0 L3.4,556.3 L3.9,554.4 L2.1,553.4 L-2.9,552.1 L-14.5,554.6 L-15.4,553.2 L-16.0,549.7 L-18.3,547.4 L-23.4,545.6 L-23.4,539.6 L-22.9,537.5 L-19.6,539.3 L-18.2,537.9 L-14.9,536.9 L1.0,535.1 L5.2,530.7 L12.6,527.3 L18.0,520.2 L18.8,518.2 L27.5,510.0 L34.2,502.6 L35.4,496.9 L39.7,486.7 L47.1,457.2 L51.4,446.9 L57.7,423.5 L69.3,372.6 L74.3,347.4 L75.5,336.2 L73.5,328.4 L73.7,326.9 L78.5,322.0 L82.9,310.4 L86.4,307.2 L90.9,307.1 L102.0,309.0 L108.3,308.4 L111.9,306.5 L112.0,303.8 L107.6,300.4 L110.0,300.4 L108.2,297.9 L94.6,288.7 L90.2,286.8 L89.0,286.9 L86.1,290.9 L77.9,299.8 L75.9,307.7 L73.1,314.1 L84.1,225.2 L91.6,196.8 L94.8,158.8 L95.9,156.1 L102.1,147.4 L104.7,144.6 L107.6,143.8 L109.5,144.5 L109.9,145.3 L109.7,148.7 L108.8,151.2 L112.8,155.7 L124.9,162.3 L135.3,165.9 L157.0,183.0 L162.1,188.3 L164.2,193.7 L164.7,197.3 L167.0,204.0 L171.1,222.8 L177.2,233.2 L183.3,238.9 L190.2,243.7 L196.0,246.1 L197.6,247.4 L199.1,249.6 L199.3,251.3 L198.8,254.2 L199.8,261.7 L201.3,264.6 L203.8,265.9 L202.4,258.3 L201.3,256.1 L203.0,251.2 L200.9,247.3 L196.9,244.4 L192.7,242.6 L202.9,243.5 L207.0,245.0 L211.1,247.4 L206.6,241.7 L199.4,239.2 L191.6,237.4 L185.2,233.8 L181.9,229.2 L179.6,223.5 L172.8,189.0 L170.5,182.0 L164.5,170.7 L156.8,161.1 L148.5,154.4 L123.0,141.3 L121.6,137.2 L120.5,136.4 L114.6,134.9 L104.9,128.1 L96.1,126.1 L93.1,124.8 L88.4,121.0 L85.0,119.2 L78.7,120.1 L75.5,119.2 L78.6,106.7 L78.5,104.4 L90.5,101.8 L94.0,101.9 L105.5,111.4 L109.7,113.8 L122.3,117.9 L118.3,114.7 L102.1,105.5 L97.4,101.6 L96.5,100.0 L95.4,95.2 L92.7,90.7 L94.7,90.0 L99.7,85.8 L102.5,84.6 L106.8,84.2 L107.6,82.1 L107.3,80.3 L103.8,75.9 L107.6,73.4 L104.6,72.0 L102.6,69.6 L100.1,63.7 L103.8,65.5 L106.9,65.7 L109.2,64.2 L111.2,61.1 L111.2,60.0 L108.3,57.7 L104.8,56.8 L104.0,53.5 L102.7,51.1 L102.5,48.7 L99.6,47.9 L96.8,46.2 L96.8,45.4 L98.9,43.9 L92.6,41.1 L92.7,38.9 L84.0,38.4 L82.3,37.1 L82.1,35.6 L83.2,33.8 L86.7,31.5 L85.7,28.1 L87.7,25.7 L100.1,20.3 L101.5,18.0 L100.1,12.5 L96.2,8.7 L88.1,8.3 L81.4,11.1 L81.6,16.8 L76.8,15.8 L70.1,9.5 L65.4,8.7 L59.8,6.4 L55.8,3.9 L53.4,3.2 L43.8,5.4 L39.2,5.2 L37.3,1.3 L36.2,-3.2 L33.3,-6.5 L29.2,-8.5 L24.3,-9.2 L12.2,-9.5 L7.4,-10.6 L8.9,-12.8 L6.0,-14.8 L-3.6,-16.0 L-9.7,-19.6 L-14.7,-20.6 L-17.0,-21.6 L-22.1,-28.9 L-22.0,-26.7 L-20.7,-22.2 L-21.5,-21.4 L-23.2,-22.0 L-24.9,-23.6 L-28.9,-36.9 L-28.1,-40.0 L-31.0,-40.8 L-34.3,-47.4 L-42.0,-52.9 L-43.8,-57.5 L-46.2,-58.8 L-52.2,-59.8 L-53.7,-60.9 L-59.0,-68.4 L-69.1,-75.6 L-74.6,-78.3 L-79.3,-79.4 L-81.4,-80.6 L-82.7,-83.4 L-83.4,-86.8 L-83.2,-93.8 L-82.0,-95.7 L-77.3,-98.0 L-78.4,-100.5 L-75.7,-102.4 L-68.9,-105.3 L-66.7,-108.1 L-63.6,-114.6 L-61.5,-117.7 L-58.3,-119.4 L-58.7,-122.4 L-60.7,-125.6 L-65.4,-129.6 L-76.2,-133.7 L-97.0,-136.2 L-103.4,-138.6 L-97.0,-142.0 L-91.1,-142.6 L-89.7,-143.2 L-88.6,-149.8 L-90.5,-152.6 L-91.0,-155.3 L-90.1,-159.7 L-88.9,-161.8 L-87.3,-163.3 L-83.0,-164.6 L-66.4,-165.8 L-62.6,-167.0 L-59.8,-164.9 L-50.6,-163.3 L-47.8,-163.3 L-49.1,-164.6 L-45.1,-164.1 L-41.7,-162.2 L-45.4,-162.2 L-45.4,-160.9 L-38.0,-157.2 L-30.5,-156.2 L-24.7,-152.4 L-20.6,-151.2 L-10.9,-150.9 L-14.5,-152.6 L-21.9,-153.6 L-25.0,-155.3 L-30.5,-159.8 L-36.8,-163.3 L-43.0,-165.9 L-50.9,-167.0 L-52.5,-167.4 L-55.0,-169.2 L-61.8,-170.6 L-86.7,-169.4 L-92.3,-167.0 L-95.3,-163.4 L-97.1,-162.2 L-102.5,-161.1 L-106.7,-158.3 L-110.1,-157.4 L-113.7,-157.4 L-116.9,-158.3 L-124.0,-163.4 L-126.9,-164.6 L-132.9,-164.6 L-134.3,-163.7 L-135.5,-160.9 L-140.7,-161.0 L-157.6,-167.0 L-157.6,-168.3 L-153.4,-167.8 L-145.7,-165.3 L-141.6,-165.8 L-138.5,-168.3 L-140.2,-170.7 L-146.5,-175.6 L-149.0,-174.5 L-148.0,-172.5 L-149.0,-170.7 L-150.3,-170.7 L-150.6,-175.9 L-152.7,-178.7 L-160.1,-182.0 L-145.8,-187.8 L-139.0,-186.8 L-139.4,-185.8 L-140.4,-185.5 L-139.0,-184.3 L-137.3,-185.7 L-131.1,-188.1 L-130.5,-189.3 L-137.7,-189.7 L-140.7,-190.5 L-139.0,-193.1 L-142.0,-194.4 L-145.7,-194.7 L-148.0,-195.7 L-146.5,-199.1 L-149.1,-201.4 L-147.1,-202.6 L-135.8,-203.0 L-129.2,-204.3 L-125.5,-204.1 L-128.4,-204.7 L-136.6,-204.1 L-150.3,-207.8 L-153.1,-208.1 L-161.4,-206.6 L-168.1,-206.6 L-171.9,-205.4 L-173.8,-206.6 L-171.0,-206.9 L-167.9,-208.2 L-165.2,-210.3 L-163.8,-212.7 L-166.6,-210.9 L-174.9,-210.2 L-172.3,-209.7 L-171.2,-207.8 L-175.8,-207.8 L-179.8,-209.0 L-180.1,-204.7 L-182.5,-203.8 L-188.5,-205.2 L-191.5,-205.1 L-200.9,-202.9 L-207.1,-202.9 L-211.9,-205.2 L-216.4,-210.6 L-220.7,-211.6 L-220.6,-212.7 L-223.7,-213.5 L-220.7,-215.0 L-215.8,-215.0 L-213.1,-211.4 L-211.9,-211.4 L-209.8,-212.7 L-207.0,-211.4 L-205.7,-215.2 L-202.9,-212.9 L-198.4,-211.9 L-193.5,-212.2 L-189.6,-213.9 L-191.0,-215.2 L-184.0,-221.8 L-183.1,-225.1 L-187.2,-228.7 L-187.2,-227.6 L-185.4,-226.4 L-185.2,-225.2 L-186.3,-224.3 L-188.5,-223.9 L-186.0,-222.7 L-187.5,-221.4 L-189.6,-221.3 L-190.6,-222.3 L-199.6,-226.2 L-192.2,-225.0 L-194.3,-227.1 L-196.5,-228.0 L-202.0,-228.7 L-199.6,-227.6 L-203.3,-226.4 L-212.6,-225.7 L-214.4,-224.4 L-216.0,-222.3 L-225.5,-220.2 L-225.5,-221.3 L-224.3,-221.3 L-224.3,-222.7 L-229.2,-221.3 L-230.1,-225.3 L-229.5,-226.7 L-228.0,-227.6 L-230.5,-227.6 L-232.4,-228.6 L-233.6,-230.3 L-234.1,-232.5 L-235.4,-232.5 L-234.1,-227.6 L-234.1,-223.3 L-233.5,-221.5 L-231.8,-219.5 L-228.0,-216.4 L-229.2,-213.9 L-231.5,-216.4 L-233.0,-215.7 L-239.0,-220.2 L-237.9,-217.8 L-239.0,-216.7 L-240.6,-217.2 L-242.1,-222.3 L-243.3,-222.0 L-243.9,-220.0 L-242.8,-217.6 L-246.4,-218.0 L-247.6,-218.9 L-253.3,-216.8 L-256.2,-216.6 L-258.7,-217.6 L-256.3,-218.9 L-260.2,-220.9 L-262.2,-220.8 L-263.7,-218.9 L-261.2,-217.6 L-263.2,-211.6 L-262.2,-206.4 L-259.2,-202.2 L-255.2,-199.1 L-261.4,-199.9 L-262.6,-199.1 L-263.7,-199.1 L-266.2,-205.9 L-265.8,-207.9 L-264.1,-210.9 L-263.7,-213.3 L-264.2,-217.5 L-265.4,-220.6 L-270.0,-225.0 L-275.4,-227.0 L-276.1,-228.1 L-275.7,-230.5 L-273.5,-235.5 L-260.0,-239.8 L-261.1,-241.7 L-261.2,-244.8 L-265.0,-243.4 L-265.0,-248.5 L-266.2,-248.5 L-267.6,-246.6 L-271.9,-247.7 L-274.8,-247.4 L-272.3,-246.7 L-270.5,-245.4 L-268.6,-241.0 L-269.7,-240.7 L-270.0,-239.8 L-272.1,-240.8 L-274.8,-239.0 L-277.3,-238.5 L-274.8,-236.1 L-277.3,-235.2 L-278.7,-231.9 L-280.4,-231.2 L-287.2,-236.1 L-299.7,-238.4 L-304.5,-238.5 L-301.2,-239.4 L-298.0,-239.2 L-290.9,-237.4 L-290.9,-238.5 L-293.7,-239.7 L-296.9,-240.5 L-304.5,-241.0 L-304.5,-242.3 L-302.1,-242.8 L-301.9,-245.4 L-301.3,-246.1 L-297.1,-246.0 L-293.2,-252.1 L-290.9,-253.4 L-290.9,-254.7 L-299.7,-248.5 L-305.2,-246.3 L-309.0,-245.7 L-306.5,-244.4 L-305.6,-243.4 L-305.6,-242.3 L-320.4,-239.8 L-322.9,-240.4 L-329.1,-246.0 L-335.1,-253.4 L-337.1,-252.3 L-346.4,-253.4 L-352.5,-253.4 L-356.8,-255.8 L-363.6,-255.6 L-367.1,-256.4 L-368.6,-258.9 L-370.2,-259.4 L-379.6,-255.8 L-382.2,-257.6 L-393.3,-257.2 L-397.0,-262.1 L-399.6,-263.7 L-400.2,-264.8 L-399.5,-266.9 L-401.0,-267.0 L-404.4,-268.2 L-404.9,-270.2 L-408.3,-272.8 L-413.1,-275.0 L-417.9,-275.6 L-416.3,-271.9 L-417.6,-269.2 L-421.6,-266.2 L-425.3,-266.9 L-422.0,-267.1 L-421.0,-267.9 L-420.3,-269.5 L-425.7,-268.5 L-426.6,-266.9 L-431.7,-269.7 L-439.2,-271.4 L-441.5,-273.5 L-443.2,-276.4 L-443.8,-279.3 L-445.7,-277.2 L-444.6,-274.4 L-440.0,-270.6 L-440.0,-269.5 L-444.1,-268.9 L-447.5,-266.9 L-450.9,-270.9 L-453.4,-270.4 L-453.9,-268.2 L-451.3,-266.9 L-452.4,-265.7 L-452.4,-264.6 L-447.5,-264.6 L-447.5,-263.2 L-453.3,-259.4 L-460.5,-257.4 L-486.9,-258.3 L-486.9,-263.2 L-482.6,-263.9 L-481.9,-265.1 L-482.5,-268.3 L-485.2,-272.9 L-487.0,-277.9 L-489.7,-281.1 L-498.2,-288.6 L-516.0,-297.7 L-523.0,-294.1 L-528.4,-297.6 L-537.5,-297.7 L-551.1,-300.3 L-549.0,-302.0 L-546.1,-306.5 L-543.1,-305.1 L-485.1,-313.8 L-474.9,-311.7 L-472.2,-312.5 L-471.4,-313.8 L-469.6,-318.9 L-470.4,-320.9 L-473.0,-323.1 L-474.4,-328.3 L-476.8,-330.0 L-485.9,-331.7 L-487.0,-332.6 L-488.3,-334.8 L-492.8,-333.7 L-502.4,-337.8 L-507.4,-336.7 L-512.5,-329.4 L-515.7,-326.0 L-520.3,-324.9 L-517.9,-329.9 L-519.9,-332.0 L-521.5,-334.8 L-520.6,-337.0 L-518.5,-338.5 L-519.7,-340.3 L-532.7,-341.0 L-532.3,-342.9 L-532.7,-344.7 L-530.8,-345.4 L-525.8,-344.7 L-523.5,-345.2 L-523.1,-346.4 L-523.9,-348.4 L-520.7,-354.0 L-518.4,-355.4 L-515.4,-354.5 L-517.8,-347.8 L-512.8,-346.3 L-496.8,-347.0 L-492.4,-344.9 L-490.0,-344.7 L-479.3,-346.5 L-467.3,-347.0 L-469.5,-345.9 L-472.2,-345.9 L-468.5,-344.9 L-453.7,-347.0 L-453.7,-348.4 L-459.4,-348.1 L-461.5,-348.8 L-462.3,-350.9 L-463.9,-349.5 L-466.4,-349.0 L-468.6,-349.6 L-469.6,-351.5 L-478.4,-350.9 L-476.9,-352.5 L-474.7,-353.4 L-473.7,-354.9 L-468.5,-358.3 L-471.5,-358.3 L-475.6,-356.3 L-478.4,-355.7 L-478.4,-357.0 L-477.1,-357.0 L-477.1,-358.3 L-478.4,-358.3 L-480.8,-355.7 L-483.5,-356.5 L-489.2,-353.9 L-493.2,-353.4 L-491.8,-354.5 L-493.2,-355.7 L-496.8,-354.0 L-501.7,-353.4 L-501.7,-354.5 L-491.4,-362.8 L-472.2,-370.7 L-484.6,-367.0 L-496.8,-365.7 L-502.4,-364.1 L-513.7,-359.3 L-522.5,-357.9 L-527.9,-356.0 L-531.4,-355.7 L-544.3,-358.3 L-544.9,-357.7 L-545.2,-355.1 L-546.8,-354.5 L-555.9,-354.6 L-558.3,-355.2 L-559.9,-357.0 L-561.0,-360.8 L-557.7,-361.0 L-557.9,-363.3 L-561.0,-368.1 L-561.3,-371.5 L-560.4,-374.9 L-558.3,-377.4 L-554.9,-378.1 L-554.9,-379.2 L-559.4,-381.4 L-557.6,-386.6 L-550.0,-395.3 L-546.1,-393.9 L-547.5,-395.3 L-544.6,-396.6 L-535.6,-397.7 L-532.1,-397.1 L-526.2,-394.8 L-523.9,-395.3 L-528.1,-399.1 L-529.4,-401.5 L-527.0,-402.6 L-518.8,-401.2 L-515.4,-401.3 L-520.3,-402.6 L-519.5,-404.0 L-521.5,-405.2 L-521.5,-406.3 L-507.4,-406.3 L-503.3,-406.8 L-497.4,-408.7 L-493.2,-408.8 L-496.8,-410.0 L-496.8,-411.4 L-491.7,-412.0 L-481.8,-415.2 L-477.1,-415.0 L-473.8,-412.5 L-475.2,-408.5 L-471.0,-408.8 L-463.6,-411.4 L-457.3,-410.0 L-454.9,-410.0 L-454.9,-411.4 L-458.3,-412.0 L-457.4,-413.8 L-451.3,-417.4 L-443.7,-418.8 L-439.6,-418.7 L-436.3,-417.4 L-435.3,-418.5 L-434.3,-418.4 L-432.6,-416.3 L-431.5,-416.3 L-429.6,-418.2 L-429.5,-419.6 L-430.2,-421.2 L-415.3,-424.9 L-414.2,-424.3 L-415.3,-421.3 L-415.1,-420.4 L-413.0,-419.9 L-413.0,-418.7 L-414.2,-418.7 L-414.2,-417.4 L-412.4,-416.6 L-411.2,-415.3 L-410.9,-413.5 L-411.9,-411.4 L-406.8,-414.7 L-404.1,-415.6 L-400.6,-415.0 L-403.1,-413.7 L-403.1,-412.6 L-401.0,-410.6 L-395.6,-408.4 L-393.3,-406.3 L-392.0,-407.6 L-393.3,-408.8 L-392.0,-410.0 L-393.4,-412.6 L-394.4,-416.3 L-393.3,-416.3 L-390.7,-413.7 L-391.2,-416.9 L-390.7,-420.3 L-389.3,-422.3 L-387.1,-421.2 L-385.9,-422.9 L-385.8,-425.0 L-383.5,-422.8 L-380.1,-422.1 L-371.7,-422.4 L-363.6,-418.7 L-354.9,-419.9 L-354.9,-416.8 L-350.5,-415.9 L-345.3,-415.9 L-342.7,-416.8 L-345.2,-423.7 L-344.5,-425.0 L-335.1,-426.1 L-337.7,-427.2 L-343.9,-432.4 L-344.7,-435.3 L-342.9,-436.8 L-337.7,-438.4 L-332.8,-444.6 L-330.0,-443.7 L-324.3,-443.4 L-318.0,-441.0 L-315.6,-440.9 L-318.0,-438.4 L-311.6,-438.3 L-306.9,-441.0 L-291.7,-444.8 L-289.6,-445.9 L-286.7,-445.6 L-281.4,-450.0 L-278.5,-449.6 L-277.3,-447.0 L-277.4,-443.5 L-278.7,-440.2 L-281.0,-438.4 L-279.7,-435.9 L-279.0,-438.2 L-277.6,-439.9 L-272.2,-444.4 L-266.2,-448.2 L-264.3,-447.7 L-261.0,-450.3 L-258.7,-450.8 L-256.5,-449.8 L-255.2,-448.2 L-255.1,-446.3 L-256.3,-444.6 L-256.3,-443.4 L-253.9,-442.1 L-255.2,-440.6 L-257.6,-435.9 L-262.6,-431.1 L-262.6,-429.8 L-261.2,-429.8 L-255.3,-437.9 L-251.8,-441.3 L-248.9,-440.9 L-245.2,-442.2 L-241.5,-440.9 L-242.8,-439.6 L-241.7,-439.5 L-241.5,-438.4 L-247.6,-435.9 L-247.6,-434.8 L-245.3,-433.5 L-240.7,-432.3 L-231.5,-432.0 L-228.0,-431.1 L-228.0,-427.3 L-230.4,-426.1 L-230.4,-425.0 L-224.5,-422.0 L-221.8,-419.9 L-220.6,-418.1 L-208.9,-411.4 L-206.1,-403.6 L-207.0,-401.9 L-206.3,-400.7 L-198.8,-397.3 L-188.5,-393.9 L-189.8,-391.0 L-192.2,-389.1 L-188.4,-388.4 L-182.8,-384.6 L-182.4,-388.9 L-181.7,-390.2 L-174.5,-390.0 L-171.6,-390.8 L-168.1,-393.4 L-162.5,-399.0 L-145.3,-405.7 L-142.7,-407.6 L-142.7,-408.8 L-147.7,-410.0 L-139.7,-411.6 L-135.8,-411.3 L-134.2,-408.8 L-129.5,-410.0 L-124.1,-412.4 L-119.4,-415.5 L-116.9,-418.7 L-116.2,-416.7 L-115.0,-415.3 L-113.1,-414.8 L-110.8,-415.0 L-110.8,-413.7 L-112.1,-413.0 L-114.4,-410.0 L-119.5,-406.3 L-116.3,-404.6 L-109.2,-408.7 L-105.2,-410.0 L-104.3,-409.0 L-102.7,-403.9 L-100.7,-403.2 L-99.5,-401.7 L-98.5,-397.7 L-96.5,-398.5 L-95.2,-399.8 L-94.6,-401.7 L-94.7,-403.9 L-92.9,-399.0 L-91.3,-397.9 L-88.6,-399.0 L-88.6,-400.2 L-91.0,-401.3 L-89.0,-403.3 L-86.9,-404.4 L-84.7,-404.2 L-82.4,-402.6 L-84.6,-405.0 L-86.1,-407.6 L-78.0,-409.4 L-69.4,-410.0 L-65.2,-404.5 L-64.0,-400.8 L-62.4,-399.5 L-60.2,-399.0 L-61.5,-396.5 L-56.8,-391.8 L-55.8,-389.4 L-56.5,-385.4 L-49.1,-389.1 L-54.1,-391.5 L-53.1,-392.9 L-55.8,-396.1 L-56.5,-399.0 L-55.2,-399.0 L-51.5,-396.5 L-52.9,-398.6 L-54.5,-399.7 L-58.4,-400.2 L-60.1,-401.2 L-65.2,-408.8 L-63.3,-411.9 L-57.8,-414.3 L-57.5,-416.8 L-55.9,-417.4 L-49.1,-417.4 L-50.2,-418.7 L-31.9,-421.2 L-32.4,-419.6 L-30.5,-417.4 L-35.0,-412.6 L-35.0,-408.4 L-30.9,-405.3 L-23.3,-403.9 L-10.1,-403.8 L4.1,-405.2 L12.8,-408.4 L15.7,-408.8 L29.9,-407.6 L49.2,-410.4 L55.8,-408.8 L53.0,-411.9 L49.0,-413.3 L42.1,-413.7 L41.2,-412.6 L40.2,-412.3 L38.9,-415.3 L38.0,-416.0 L31.8,-417.2 L29.5,-418.2 L28.6,-419.3 L27.0,-423.5 L20.3,-427.5 L18.8,-431.7 L18.7,-436.7 L18.0,-441.0 L15.8,-443.8 L11.5,-444.6 L11.5,-445.9 L14.0,-446.6 L15.9,-448.3 L17.1,-450.4 L18.5,-459.0 L19.7,-460.8 L21.3,-459.3 L22.3,-461.3 L22.4,-462.9 L21.5,-463.9 L19.4,-464.3 L18.6,-465.4 L20.6,-475.8 L21.8,-478.5 L24.2,-479.3 L28.6,-478.0 L28.6,-479.1 L25.1,-480.2 L21.1,-480.2 L17.7,-478.9 L15.7,-475.4 L13.2,-478.2 L12.6,-479.7 L12.7,-484.0 L13.9,-487.8 L11.4,-488.1 L10.4,-489.5 L10.6,-491.5 L12.7,-496.1 L17.5,-498.8 L15.3,-500.0 L13.9,-498.8 L11.2,-505.1 L10.1,-511.9 L11.5,-513.6 L14.8,-513.7 L21.3,-512.5 L21.3,-513.6 L12.8,-515.8 L9.0,-515.9 L7.6,-512.5 L4.7,-514.7 L1.7,-521.3 L-0.9,-523.4 L1.5,-524.8 L-3.6,-527.4 L-5.8,-529.4 L-7.2,-532.3 L-3.5,-532.3 L-3.5,-533.4 L-5.8,-537.1 L-7.2,-537.1 L-8.7,-533.9 L-12.0,-535.3 L-16.0,-538.2 L-19.6,-539.6 L-18.2,-542.1 L-25.2,-540.8 L-27.0,-542.1 L-27.5,-544.4 L-26.8,-550.6 L-27.5,-554.4 L-30.9,-558.6 L-31.9,-561.8 L-39.2,-568.6 L-38.1,-571.1 L-33.0,-574.1 L-31.9,-575.9 L-31.1,-584.6 L-34.9,-590.9 L-36.5,-592.1 L-42.3,-592.9 L-50.2,-595.0 L-48.8,-599.3 L-49.1,-602.0 L-48.3,-603.3 L-43.5,-603.7 L-36.1,-601.3 L-31.1,-601.8 L-28.4,-600.5 L-27.0,-597.5 L-23.3,-597.5 L-19.3,-596.6 L-7.4,-595.4 L6.1,-592.4 L8.9,-592.6 L9.5,-590.4 L10.8,-590.0 L12.5,-590.4 L14.9,-592.2 L16.9,-592.6 L22.7,-591.4 L24.9,-591.3 L27.9,-592.3 L30.7,-594.0 L35.4,-598.1 L38.0,-599.4 L46.3,-601.1 L49.6,-601.3 L72.7,-598.2 L74.3,-593.9 L78.2,-588.5 L79.0,-585.3 L74.4,-583.2 L72.5,-579.1 L68.5,-579.0 L65.7,-577.7 L64.9,-573.5 L67.2,-569.9 L70.2,-566.7 L72.9,-561.8 L86.6,-550.5 L88.4,-547.7 L89.0,-543.8 L88.6,-541.8 L86.7,-539.0 L87.2,-537.1 L92.7,-538.3 L97.9,-535.2 L101.4,-535.8 L101.4,-537.1 L99.5,-538.8 L100.9,-541.3 L103.9,-543.5 L107.0,-544.4 L130.7,-543.6 L152.0,-538.3 L182.9,-537.1 L190.6,-535.5 L195.0,-535.3 L201.5,-537.6 L205.9,-537.0 L213.7,-534.7 L226.0,-534.7 L234.6,-531.5 L243.6,-530.1 L260.5,-523.4 L265.1,-526.1 L293.9,-530.6 L302.3,-533.2 L307.3,-536.1 L311.4,-536.8 L313.0,-537.7 L317.3,-542.1 L329.2,-547.7 L374.0,-554.4 L382.3,-557.1 L385.8,-559.2 L388.8,-561.8 L376.0,-556.6 L361.1,-555.2 L346.2,-556.5 L333.4,-559.4 L326.5,-559.6 L318.8,-561.8 L316.7,-564.7 L314.2,-565.8 L313.6,-567.3 L313.8,-569.3 L314.3,-570.6 L323.6,-581.6 L330.8,-597.5 L333.5,-599.6 L342.5,-604.3 L344.4,-604.3 L346.2,-605.5 L369.7,-612.5 L371.6,-614.2 L394.1,-622.9 L400.3,-624.2 L407.4,-627.3 L421.5,-630.6 L437.0,-630.5 L511.1,-646.0 L515.5,-648.2 L519.8,-649.2 L527.0,-654.4 L550.4,-666.5 L562.0,-675.2 L563.6,-676.8 L567.6,-686.3 L573.8,-691.6 L580.0,-692.2 L597.8,-686.6 L599.5,-686.7 L601.1,-687.7 L601.1,-688.9 L598.0,-689.1 L596.0,-691.2 L599.7,-691.2 L599.7,-692.6 L592.6,-693.4 L589.8,-694.8 L586.9,-699.1 L579.2,-701.5 L577.5,-703.0 L577.8,-708.8 L579.3,-715.8 L583.0,-720.6 L589.9,-719.7 L589.9,-720.8 L579.9,-725.9 L579.9,-727.1 L583.2,-733.2 L583.4,-741.6 L584.3,-749.0 L589.9,-751.7 L585.0,-756.4 L584.0,-758.9 L583.2,-767.4 L581.4,-775.1 L581.3,-778.8 L582.2,-782.0 L586.0,-789.1 L588.0,-791.8 L589.0,-795.2 L587.9,-799.3 L585.0,-806.0 L584.5,-809.4 L588.9,-811.6 L597.6,-813.0 L605.8,-819.6 L611.4,-822.9 L645.9,-832.4 L649.1,-832.0 L655.2,-834.3 L684.1,-836.6 L716.9,-843.6 L729.2,-843.0 L743.9,-845.4 L753.9,-848.8 Z" fill="#faf5ef" stroke="#8B1A2B" stroke-width="1.3" stroke-linejoin="round"/></g>
  <g>    <path class="region-area" d="M75.5,336.2 L73.5,328.4 L73.7,326.9 L78.5,322.0 L82.9,310.4 L86.4,307.2 L90.9,307.1 L102.0,309.0 L108.3,308.4 L111.9,306.5 L112.0,303.8 L107.6,300.4 L110.0,300.4 L108.2,297.9 L94.6,288.7 L90.2,286.8 L89.0,286.9 L86.1,290.9 L77.9,299.8 L75.9,307.7 L73.1,314.1 L84.1,225.2 L91.6,196.8 L94.8,158.8 L95.9,156.1 L102.1,147.4 L104.7,144.6 L107.6,143.8 L109.5,144.5 L109.9,145.3 L109.7,148.7 L108.8,151.2 L112.8,155.7 L124.9,162.3 L135.3,165.9 L157.0,183.0 L162.1,188.3 L164.2,193.7 L164.7,197.3 L167.0,204.0 L171.1,222.8 L177.2,233.2 L183.3,238.9 L190.2,243.7 L196.0,246.1 L197.6,247.4 L199.1,249.6 L199.3,251.3 L198.8,254.2 L199.8,261.7 L201.3,264.6 L203.8,265.9 L202.4,258.3 L201.3,256.1 L203.0,251.2 L200.9,247.3 L196.9,244.4 L192.7,242.6 L202.9,243.5 L207.0,245.0 L211.1,247.4 L206.6,241.7 L199.4,239.2 L191.6,237.4 L185.2,233.8 L181.9,229.2 L179.6,223.5 L172.8,189.0 L179.3,188.8 L187.2,189.5 L189.7,188.1 L192.0,185.1 L194.9,184.6 L197.4,187.1 L198.6,192.0 L199.8,193.1 L201.9,194.1 L205.7,194.7 L212.7,195.0 L220.7,198.8 L222.7,200.5 L224.0,202.0 L224.2,203.2 L223.7,208.3 L224.2,210.7 L225.5,213.1 L229.0,217.0 L232.0,217.7 L239.0,217.0 L244.7,219.8 L247.4,220.2 L250.0,221.2 L254.9,224.8 L259.3,226.7 L268.7,228.8 L273.8,228.2 L281.3,225.9 L284.0,225.6 L289.0,226.9 L294.0,225.4 L305.7,225.4 L308.7,227.4 L311.4,232.3 L311.9,235.6 L306.9,243.7 L306.6,245.1 L307.1,247.7 L302.5,251.9 L301.3,254.1 L300.9,256.7 L301.9,258.3 L305.6,261.4 L305.5,263.1 L297.7,272.0 L300.1,271.7 L305.6,275.8 L331.4,278.2 L334.8,277.3 L343.2,270.8 L341.9,268.4 L354.9,270.8 L358.0,272.8 L356.0,275.1 L353.4,276.9 L350.4,278.1 L347.5,278.2 L349.4,284.8 L351.0,287.6 L353.5,289.8 L349.2,290.8 L343.1,290.2 L341.8,290.5 L340.9,291.3 L339.8,297.4 L338.5,298.3 L336.1,298.5 L330.8,294.1 L328.6,293.8 L323.2,295.3 L321.4,296.7 L319.9,299.1 L319.5,301.6 L320.4,304.0 L322.6,305.9 L329.8,307.5 L331.4,309.0 L330.6,312.3 L314.7,326.7 L313.0,327.9 L307.4,327.5 L306.0,328.2 L298.9,335.4 L297.5,337.4 L296.8,339.7 L297.3,341.7 L301.4,344.6 L302.0,346.2 L299.9,351.4 L299.8,353.1 L302.9,358.4 L302.7,361.0 L299.1,360.5 L286.8,363.2 L284.6,364.8 L286.3,367.4 L291.4,371.7 L293.7,377.3 L288.1,381.3 L274.7,386.2 L263.4,379.4 L260.4,380.5 L259.7,388.8 L257.0,391.4 L231.6,389.4 L229.8,387.9 L228.7,384.3 L230.9,376.6 L229.7,375.0 L221.1,369.6 L209.4,367.2 L206.8,366.0 L205.3,362.1 L204.4,361.1 L190.2,355.0 L188.0,352.8 L187.1,348.9 L184.1,346.3 L177.5,345.7 L148.6,350.9 L134.1,347.8 L125.0,349.4 L121.9,349.3 L118.6,348.4 L121.9,340.0 L120.0,336.2 L105.7,331.6 L104.6,332.8 L93.9,338.2 L74.8,342.7 L75.5,336.2 Z" fill="rgba(139,26,43,0.15)" stroke="rgba(139,26,43,0.4)" stroke-width="0.5"/>
    <path class="region-area" d="M305.5,263.1 L305.6,261.4 L301.9,258.3 L300.9,256.7 L301.3,254.1 L302.5,251.9 L307.1,247.7 L306.6,245.1 L306.9,243.7 L311.9,235.6 L311.4,232.3 L308.7,227.4 L305.7,225.4 L294.0,225.4 L299.8,219.7 L300.0,218.6 L297.8,215.0 L300.0,212.5 L313.1,207.3 L316.5,206.9 L322.4,208.5 L325.6,207.8 L328.8,205.4 L331.1,201.0 L339.6,198.0 L344.9,194.3 L346.2,190.7 L345.6,185.8 L346.1,181.1 L348.4,174.2 L350.6,171.0 L370.1,160.5 L373.8,159.6 L376.5,159.9 L378.1,159.0 L385.4,150.3 L390.9,144.7 L392.3,140.6 L392.3,135.1 L393.1,132.8 L394.2,131.9 L399.9,131.4 L401.7,130.4 L408.2,123.3 L414.5,119.1 L417.9,121.1 L422.9,121.8 L428.5,121.5 L432.2,122.3 L438.7,127.9 L439.1,130.4 L437.0,136.4 L438.5,137.7 L441.4,138.7 L447.4,139.8 L450.5,139.5 L452.5,138.8 L455.6,135.7 L457.0,135.4 L460.4,137.4 L462.9,137.5 L470.0,136.2 L474.8,136.9 L481.6,136.4 L483.1,137.0 L485.0,138.1 L491.7,146.1 L494.9,148.6 L498.5,149.6 L506.0,150.4 L508.6,151.9 L508.8,153.4 L507.8,154.6 L503.0,157.9 L502.8,159.0 L503.5,160.1 L515.9,164.8 L521.2,164.0 L526.9,167.1 L529.0,166.9 L531.7,167.8 L532.4,168.9 L531.7,170.6 L528.8,174.3 L529.1,176.8 L530.7,177.8 L532.3,178.1 L537.3,177.4 L538.4,178.1 L538.8,179.3 L538.2,180.9 L536.9,182.1 L532.3,184.2 L529.5,187.1 L525.7,189.3 L523.7,196.2 L524.6,197.4 L530.9,201.2 L530.4,202.6 L529.2,203.8 L524.5,206.6 L523.0,208.6 L523.0,209.7 L523.6,210.6 L525.5,211.1 L530.6,211.0 L531.9,211.9 L532.2,214.7 L530.0,218.0 L530.5,219.3 L532.0,220.6 L535.5,222.2 L540.0,223.3 L550.2,222.9 L551.5,223.3 L552.3,224.1 L552.2,226.0 L551.0,228.7 L550.9,230.1 L551.6,231.7 L556.1,238.4 L560.6,241.6 L562.6,244.3 L557.4,247.0 L556.5,249.9 L560.4,259.1 L560.3,261.1 L558.2,263.9 L558.7,268.0 L558.0,269.3 L550.4,274.7 L545.5,281.0 L538.7,282.7 L536.5,285.0 L535.9,286.5 L536.1,287.8 L538.0,289.9 L537.9,291.7 L533.9,296.4 L531.8,297.9 L526.4,299.7 L520.9,303.0 L514.1,304.1 L511.5,305.9 L501.6,318.3 L493.9,323.6 L490.1,318.9 L483.0,314.8 L475.0,312.1 L469.1,312.2 L457.1,318.3 L451.3,318.6 L447.1,314.1 L450.9,311.5 L451.6,308.3 L449.7,305.1 L446.1,302.8 L442.7,302.4 L432.3,305.2 L423.4,305.7 L419.6,304.6 L417.1,301.7 L415.3,301.0 L408.1,300.8 L405.7,301.2 L400.9,306.1 L398.4,307.3 L391.0,305.2 L379.1,310.1 L375.1,310.9 L367.6,308.7 L363.1,303.0 L359.2,296.0 L351.0,287.6 L349.4,284.8 L347.5,278.2 L350.4,278.1 L353.4,276.9 L356.0,275.1 L358.0,272.8 L355.8,271.2 L341.9,268.4 L343.2,270.8 L334.8,277.3 L331.4,278.2 L305.6,275.8 L300.1,271.7 L297.7,272.0 L305.5,263.1 Z" fill="rgba(139,26,43,0.15)" stroke="rgba(139,26,43,0.4)" stroke-width="0.5"/>
    <path class="region-area" d="M276.7,392.7 L276.1,389.4 L274.7,386.2 L288.1,381.3 L293.7,377.3 L291.4,371.7 L286.3,367.4 L284.6,364.8 L286.8,363.2 L299.1,360.5 L302.7,361.0 L302.9,358.4 L299.8,353.1 L299.9,351.4 L302.0,346.2 L301.4,344.6 L297.3,341.7 L296.8,339.7 L297.5,337.4 L298.9,335.4 L306.0,328.2 L307.4,327.5 L313.0,327.9 L314.7,326.7 L330.6,312.3 L331.4,309.0 L329.8,307.5 L322.6,305.9 L320.4,304.0 L319.5,301.6 L319.9,299.1 L321.4,296.7 L325.8,294.3 L328.6,293.8 L330.8,294.1 L336.1,298.5 L338.5,298.3 L339.8,297.4 L340.9,291.3 L341.8,290.5 L343.1,290.2 L349.2,290.8 L353.5,289.8 L359.2,296.0 L363.1,303.0 L367.6,308.7 L375.1,310.9 L379.1,310.1 L391.0,305.2 L398.4,307.3 L400.9,306.1 L405.7,301.2 L408.1,300.8 L415.3,301.0 L417.1,301.7 L419.6,304.6 L423.4,305.7 L432.3,305.2 L442.7,302.4 L446.1,302.8 L449.7,305.1 L451.6,308.3 L450.9,311.5 L447.1,314.1 L451.3,318.6 L457.1,318.3 L469.1,312.2 L475.0,312.1 L483.0,314.8 L490.1,318.9 L493.9,323.6 L491.1,325.3 L482.3,328.4 L479.7,331.1 L483.5,336.0 L483.8,340.7 L486.8,346.6 L491.0,349.5 L492.1,351.0 L491.6,358.9 L489.2,360.8 L474.5,361.7 L470.9,361.2 L465.6,358.8 L464.0,359.0 L462.2,360.9 L462.0,365.6 L459.7,369.5 L459.6,370.7 L461.7,373.7 L468.9,376.0 L470.1,376.8 L470.5,377.9 L469.8,380.3 L463.1,390.8 L456.9,394.4 L456.8,395.3 L460.4,397.4 L461.0,398.6 L461.0,400.1 L460.1,401.1 L457.1,401.8 L453.8,401.5 L449.1,400.1 L445.4,400.8 L444.6,401.4 L443.1,404.9 L436.5,408.0 L434.3,411.9 L433.5,414.9 L422.3,419.7 L418.6,420.2 L410.3,414.9 L406.6,413.9 L403.8,414.2 L391.6,417.6 L383.9,416.9 L380.5,418.7 L367.4,423.4 L363.8,423.9 L354.7,427.6 L351.7,427.4 L339.9,423.7 L338.1,423.9 L335.7,425.6 L331.9,430.4 L328.3,432.6 L325.4,432.5 L324.1,430.8 L322.3,430.4 L316.2,431.9 L315.3,432.9 L310.9,422.5 L314.2,420.1 L318.3,412.5 L324.4,405.9 L321.4,404.3 L285.7,399.3 L276.7,399.6 L276.7,392.7 Z" fill="rgba(139,26,43,0.15)" stroke="rgba(139,26,43,0.4)" stroke-width="0.5"/></g>
  <g>    <circle cx="196.4" cy="278.4" r="9" fill="#8B1A2B" stroke="#fff" stroke-width="0.8"/>
    <text x="196.4" y="281.9" text-anchor="middle" font-family="Inter, sans-serif" font-size="9" font-weight="700" fill="#fff">1</text>
    <circle cx="434.5" cy="227.9" r="9" fill="#8B1A2B" stroke="#fff" stroke-width="0.8"/>
    <text x="434.5" y="231.4" text-anchor="middle" font-family="Inter, sans-serif" font-size="9" font-weight="700" fill="#fff">2</text>
    <circle cx="383.2" cy="361.0" r="9" fill="#8B1A2B" stroke="#fff" stroke-width="0.8"/>
    <text x="383.2" y="364.5" text-anchor="middle" font-family="Inter, sans-serif" font-size="9" font-weight="700" fill="#fff">3</text></g>
  <line x1="28" y1="412" x2="392" y2="412" stroke="#8B1A2B" stroke-width="0.3" opacity="0.25"/>
  <text x="32" y="420" font-family="Inter, sans-serif" font-size="8.5" fill="#2D1B14"><tspan font-weight="700">1. Bordeaux</tspan> : Cab Sauv, Merlot, Cab Franc, Semillon</text>
  <text x="32" y="435" font-family="Inter, sans-serif" font-size="8.5" fill="#2D1B14"><tspan font-weight="700">2. Dordogne</tspan> : Bergerac, Monbazillac</text>
  <text x="32" y="450" font-family="Inter, sans-serif" font-size="8.5" fill="#2D1B14"><tspan font-weight="700">3. Lot-et-Garonne</tspan> : Buzet, Cotes du Marmandais</text>
  <text x="210" y="472" text-anchor="middle" font-family="Inter, sans-serif" font-size="7" fill="#b0a89e">Cellar -- Sommelier Companion</text>
</svg>