<svg xmlns="http://www.w3.org/2000/svg" viewBox="0 0 320 600">
  <defs><filter id="shadow"><feDropShadow dx="1" dy="1.5" stdDeviation="2" flood-color="#2D1B14" flood-opacity="0.08"/></filter></defs>
  <style>.region-label { display: none !important; }</style>
  <text x="160" y="24" text-anchor="middle" font-family="Cormorant Garamond, Georgia, serif" font-size="16" font-weight="400" fill="#2D1B14" letter-spacing="5">BOURGOGNE</text>
  <text x="160" y="42" text-anchor="middle" font-family="Inter, sans-serif" font-size="8" fill="#8a7a6a" letter-spacing="1" class="region-label">Placera regionerna och namnge de viktigaste druvorna</text>
  <g filter="url(#shadow)">    <path d="M31.6,21.4 L32.8,23.1 L33.5,26.3 L34.2,27.8 L36.9,29.6 L38.1,30.7 L38.3,32.2 L36.1,33.8 L35.7,34.4 L37.2,37.7 L36.4,39.3 L37.9,40.1 L38.9,41.5 L40.6,41.8 L43.3,41.7 L44.3,42.1 L45.4,43.5 L48.1,45.2 L49.9,47.7 L51.3,48.4 L58.7,50.4 L59.7,49.9 L62.0,47.5 L63.3,46.5 L65.0,45.8 L74.8,43.9 L76.7,44.3 L78.0,45.0 L80.3,47.6 L81.2,49.0 L81.8,49.5 L83.8,49.8 L84.4,50.4 L85.3,52.2 L84.2,53.5 L84.8,55.6 L86.8,59.8 L86.9,62.2 L87.3,63.0 L89.4,64.4 L94.0,65.8 L95.8,65.6 L99.0,64.9 L101.5,63.6 L102.6,63.5 L103.7,63.7 L104.1,64.1 L104.0,64.7 L103.3,65.5 L104.2,66.0 L109.0,66.0 L112.3,66.7 L113.8,67.6 L115.0,69.0 L115.6,71.9 L115.6,75.4 L116.3,78.4 L118.9,80.0 L119.2,79.5 L119.8,79.4 L121.6,77.1 L122.2,76.7 L123.2,76.4 L126.5,76.3 L129.6,76.5 L133.7,78.0 L135.4,78.0 L140.1,76.7 L141.7,76.6 L143.1,77.0 L145.6,78.8 L148.7,80.2 L150.7,83.0 L152.1,83.5 L152.6,83.1 L152.6,82.1 L153.5,81.9 L156.1,82.9 L156.6,83.4 L156.4,84.2 L153.9,85.6 L152.8,86.9 L152.4,88.3 L150.9,91.3 L150.8,92.6 L151.8,93.0 L154.1,92.4 L154.8,92.7 L156.1,95.9 L157.1,97.2 L157.0,97.7 L153.5,99.0 L151.6,100.3 L150.9,101.7 L151.3,101.8 L151.8,104.0 L151.2,104.0 L156.4,105.6 L162.1,105.1 L173.8,107.2 L176.0,106.9 L186.3,103.6 L189.4,103.3 L190.2,103.0 L190.9,102.1 L191.4,100.9 L192.0,98.6 L191.5,97.2 L192.1,95.9 L200.0,90.7 L202.0,90.2 L202.4,91.3 L203.2,91.5 L205.5,91.2 L206.2,91.8 L205.5,95.9 L204.7,95.3 L204.3,95.4 L202.9,97.4 L202.8,99.5 L200.0,104.1 L199.7,105.2 L200.7,106.3 L204.2,107.2 L205.3,108.6 L205.5,109.5 L205.3,110.2 L204.2,112.1 L203.6,112.6 L203.4,113.1 L204.5,114.7 L204.5,117.4 L205.2,118.0 L207.1,118.2 L212.0,117.3 L213.6,117.2 L214.9,117.7 L217.7,119.5 L219.1,120.0 L221.8,120.5 L222.7,121.1 L225.8,124.0 L228.3,125.4 L230.0,125.7 L233.4,125.1 L235.0,125.1 L238.0,127.2 L238.5,128.3 L237.5,128.8 L237.3,129.9 L237.5,130.6 L237.8,130.9 L239.6,130.9 L240.6,129.9 L244.2,130.9 L245.6,131.7 L249.2,135.9 L249.5,136.6 L249.1,138.7 L249.6,139.4 L251.2,139.6 L256.4,137.5 L258.7,138.3 L260.5,138.3 L260.9,137.4 L261.8,136.6 L263.6,136.0 L268.5,137.0 L269.4,136.7 L270.4,135.9 L271.2,135.6 L274.5,136.5 L276.8,138.5 L278.1,139.3 L279.9,139.9 L284.7,140.6 L286.1,141.5 L287.1,143.6 L288.4,143.4 L294.7,143.1 L295.8,142.8 L296.5,142.1 L297.4,141.9 L297.6,141.0 L298.0,140.6 L300.6,140.3 L300.1,139.6 L304.4,139.3 L306.5,139.5 L308.5,140.0 L312.2,141.8 L314.2,142.5 L316.3,142.6 L319.1,141.8 L319.9,141.9 L326.7,144.1 L328.0,144.9 L328.7,146.1 L328.5,146.6 L332.7,149.6 L332.9,150.0 L332.6,150.6 L331.3,150.6 L330.9,151.3 L331.3,152.2 L337.5,156.3 L337.6,157.7 L339.3,158.3 L340.6,161.0 L342.2,160.6 L342.7,161.7 L342.1,163.6 L343.0,164.6 L343.9,164.9 L347.2,164.9 L350.1,165.6 L351.0,165.5 L352.3,164.3 L351.5,161.9 L351.9,160.9 L352.7,160.8 L355.8,161.2 L357.9,161.1 L358.7,161.2 L363.4,162.9 L365.0,162.9 L365.0,165.6 L365.8,167.6 L367.4,168.4 L369.7,167.5 L369.8,167.1 L369.5,166.3 L370.2,165.9 L373.5,167.3 L375.8,167.9 L382.2,168.0 L384.7,168.6 L386.4,166.9 L389.1,166.5 L390.4,164.6 L393.3,163.8 L394.8,163.9 L395.1,164.7 L398.3,164.9 L399.7,165.2 L400.1,166.2 L399.3,166.9 L400.3,167.6 L403.0,170.2 L404.6,170.9 L407.8,171.3 L409.5,171.8 L410.8,173.2 L411.5,173.6 L412.5,173.8 L415.2,173.2 L418.3,173.8 L421.8,172.9 L427.9,174.0 L433.5,173.8 L445.3,178.0 L452.6,179.0 L453.5,179.5 L451.9,180.7 L449.6,183.6 L446.2,189.7 L445.3,190.7 L442.1,192.0 L441.5,192.0 L440.6,192.8 L440.3,193.9 L439.9,194.1 L436.4,194.5 L436.0,195.1 L435.9,196.5 L435.5,197.1 L430.8,200.5 L429.7,201.1 L427.6,201.8 L424.5,205.0 L423.8,207.5 L423.8,210.0 L424.7,211.6 L424.7,212.1 L422.0,213.7 L421.6,214.4 L421.4,215.8 L420.1,217.7 L419.1,220.5 L419.0,221.5 L419.3,222.4 L420.1,224.3 L420.1,225.4 L419.0,226.4 L416.5,227.6 L415.3,231.9 L414.5,233.0 L409.8,237.4 L409.4,238.3 L409.2,239.4 L407.8,241.1 L406.8,243.7 L407.1,246.7 L410.3,250.5 L410.4,252.8 L409.7,253.7 L407.7,255.1 L407.3,256.1 L407.3,257.7 L405.8,259.4 L405.8,260.4 L406.2,261.8 L406.0,262.7 L404.6,263.4 L403.6,265.8 L403.4,266.8 L404.3,269.4 L404.2,270.6 L402.3,272.5 L402.8,274.9 L403.0,275.2 L404.1,275.6 L405.2,276.5 L406.8,278.8 L408.1,279.8 L408.3,280.5 L407.8,281.6 L403.4,282.9 L400.1,284.7 L401.8,285.4 L401.8,286.1 L401.5,286.6 L399.7,286.8 L399.8,287.3 L400.4,288.0 L400.3,288.4 L399.0,289.2 L395.9,288.4 L395.1,288.6 L395.1,289.0 L396.1,290.0 L396.2,290.4 L395.9,291.1 L394.5,292.4 L392.4,293.0 L387.2,292.9 L385.3,293.1 L382.0,294.0 L381.4,293.9 L380.6,293.2 L378.4,292.7 L376.8,292.0 L376.4,290.8 L377.7,288.7 L375.7,288.9 L372.0,288.1 L368.3,288.6 L366.4,288.4 L365.0,287.9 L362.3,288.7 L362.5,289.5 L363.6,291.4 L363.1,292.0 L361.9,292.7 L360.7,293.1 L358.8,293.4 L358.7,294.8 L356.8,295.6 L355.7,296.6 L354.7,297.7 L354.4,298.7 L363.2,298.1 L364.6,297.7 L366.8,299.0 L367.6,299.7 L367.0,300.5 L364.8,301.3 L363.7,302.3 L362.6,302.4 L361.2,303.4 L360.7,304.9 L361.0,306.8 L356.0,309.3 L353.8,310.8 L352.4,312.4 L347.6,315.5 L345.3,316.0 L345.4,317.3 L344.1,317.8 L343.8,318.3 L341.9,318.7 L341.2,319.2 L340.2,320.4 L341.1,321.7 L339.4,323.4 L334.5,326.0 L326.5,327.7 L322.9,329.1 L321.8,331.8 L323.1,333.7 L323.3,334.5 L323.2,335.6 L322.3,336.9 L321.0,339.7 L322.1,340.9 L322.2,342.2 L321.9,342.8 L320.3,343.9 L317.8,344.8 L315.1,346.7 L309.8,348.7 L299.8,355.0 L298.8,355.9 L299.0,356.9 L300.8,358.3 L298.2,360.6 L295.6,363.7 L294.8,364.3 L294.5,365.1 L294.8,365.8 L295.0,367.1 L294.9,367.6 L294.0,368.1 L298.0,369.8 L299.1,370.6 L300.0,371.8 L300.1,372.6 L297.5,376.9 L297.0,379.0 L297.0,380.5 L296.7,381.0 L294.6,381.4 L293.2,381.2 L288.7,382.7 L286.9,383.5 L286.6,384.4 L287.4,385.5 L288.7,386.6 L286.9,389.6 L288.7,388.9 L292.1,388.3 L295.5,388.2 L298.0,389.0 L300.4,388.1 L304.2,385.0 L309.0,382.9 L310.9,381.5 L310.5,379.7 L310.0,379.6 L308.7,380.0 L307.6,379.4 L305.9,375.9 L306.3,374.8 L310.0,371.4 L312.4,370.0 L314.7,369.5 L317.1,369.4 L319.5,369.0 L325.9,366.0 L330.6,365.3 L335.6,365.4 L346.7,367.4 L347.8,367.8 L348.5,368.5 L348.6,369.9 L348.1,371.2 L346.1,372.8 L345.7,373.6 L347.2,375.3 L349.8,377.3 L351.5,379.3 L348.9,382.8 L347.6,385.5 L346.9,388.0 L347.5,389.3 L353.4,390.2 L354.6,390.9 L354.5,391.5 L353.0,393.0 L353.2,392.9 L353.4,393.6 L353.2,395.6 L354.6,396.0 L356.3,395.2 L358.0,395.7 L363.4,399.8 L365.0,403.5 L365.9,404.8 L364.9,405.2 L364.1,405.9 L363.0,407.8 L362.0,409.0 L360.5,409.8 L357.2,410.8 L354.9,410.8 L354.7,412.0 L354.2,412.1 L353.8,411.7 L352.6,411.3 L349.5,412.2 L348.5,413.3 L348.1,414.5 L348.3,417.1 L349.1,420.2 L350.6,421.8 L352.6,422.9 L355.6,423.4 L358.2,425.1 L360.7,425.5 L361.6,426.0 L362.0,427.1 L360.8,429.4 L360.9,430.0 L362.0,431.5 L362.4,434.5 L363.0,435.6 L366.4,436.9 L369.6,438.7 L371.5,441.2 L376.2,443.0 L376.1,444.0 L375.5,445.1 L373.9,447.0 L371.2,449.5 L371.5,451.7 L372.3,453.1 L372.3,454.3 L370.3,455.5 L368.4,457.7 L366.5,456.6 L363.9,457.1 L361.2,458.0 L360.3,458.6 L359.0,460.2 L357.9,460.9 L354.9,461.2 L354.5,461.9 L355.3,462.6 L355.1,463.1 L352.7,463.9 L350.0,463.2 L347.3,462.2 L344.7,461.9 L342.2,463.1 L339.6,463.2 L337.0,464.2 L335.7,465.0 L334.8,465.9 L336.1,467.3 L337.3,468.0 L337.5,469.8 L338.4,470.9 L339.2,471.4 L341.8,471.6 L343.7,472.6 L344.2,474.7 L344.1,478.9 L345.4,480.4 L347.8,481.9 L352.9,484.0 L354.3,484.3 L358.0,483.8 L359.3,483.8 L363.0,484.9 L364.3,486.0 L364.8,486.8 L364.7,487.6 L364.2,488.9 L365.0,490.5 L365.7,493.0 L368.0,496.0 L368.4,497.0 L367.1,497.0 L364.4,496.4 L363.0,496.4 L361.3,497.1 L359.9,498.3 L359.4,499.8 L360.2,501.4 L359.2,502.0 L356.7,505.1 L352.9,507.2 L352.1,508.2 L352.3,510.5 L354.0,512.6 L358.2,515.4 L355.7,516.4 L355.2,517.1 L354.3,520.2 L354.6,520.9 L357.1,523.3 L358.4,525.4 L361.3,527.3 L362.3,529.3 L363.0,529.9 L364.0,530.2 L366.8,529.8 L367.7,530.0 L372.1,531.7 L375.1,532.5 L383.0,536.0 L387.3,536.9 L388.2,538.1 L388.9,538.6 L392.6,538.7 L405.5,536.0 L407.6,535.9 L410.7,534.5 L413.0,534.8 L412.0,537.2 L412.9,538.6 L414.5,539.8 L415.7,541.6 L415.5,542.9 L412.8,544.9 L411.2,548.3 L409.5,549.7 L405.7,552.0 L404.2,553.7 L400.9,556.3 L399.8,557.8 L400.1,559.7 L401.6,563.3 L400.6,563.8 L399.7,563.9 L399.7,565.3 L398.7,565.5 L396.8,566.9 L395.9,566.0 L394.5,565.4 L393.1,565.8 L392.0,566.7 L391.5,568.5 L389.7,569.6 L388.8,571.2 L386.6,571.1 L385.1,570.6 L383.4,570.8 L382.2,571.3 L381.3,572.1 L381.5,572.9 L380.2,574.0 L379.4,574.3 L378.9,573.3 L377.5,573.1 L375.5,573.5 L374.4,574.5 L373.7,577.1 L374.6,581.0 L373.6,581.5 L372.7,580.2 L372.0,579.9 L370.9,579.9 L369.6,580.5 L367.0,582.3 L366.6,581.4 L362.5,581.5 L361.5,582.0 L360.2,583.0 L359.9,584.1 L360.9,584.7 L360.9,585.0 L358.7,587.0 L358.4,588.8 L356.7,589.6 L356.4,590.4 L354.7,590.5 L354.1,589.5 L353.7,589.7 L353.6,590.3 L353.9,591.2 L352.9,591.5 L350.8,591.2 L348.2,591.8 L347.4,591.1 L346.2,590.7 L344.3,591.8 L344.4,593.8 L343.3,594.9 L343.3,596.1 L340.1,596.4 L339.1,598.2 L336.4,600.2 L334.4,601.0 L333.9,602.2 L335.4,602.5 L339.9,601.6 L341.5,601.9 L341.9,602.4 L340.9,603.7 L339.6,604.3 L339.4,605.7 L340.5,607.2 L337.6,608.6 L335.3,609.3 L334.5,609.1 L334.1,608.2 L333.2,608.4 L330.1,608.6 L329.8,609.3 L329.1,610.2 L327.6,610.9 L325.6,610.5 L321.3,610.8 L319.8,611.2 L318.1,612.0 L317.2,613.3 L317.9,615.4 L315.4,615.4 L314.2,614.4 L310.8,613.3 L308.8,613.2 L306.3,613.5 L304.4,614.1 L302.1,615.3 L301.4,616.8 L301.3,618.6 L302.7,619.0 L303.8,618.8 L303.4,619.5 L297.3,619.8 L296.6,619.6 L298.9,618.8 L299.8,618.2 L299.6,616.8 L298.1,615.9 L292.0,616.3 L291.2,614.8 L289.4,614.5 L286.9,614.6 L285.1,613.7 L285.6,612.2 L283.2,612.4 L281.0,613.2 L282.3,613.6 L283.4,615.2 L286.4,616.2 L285.6,616.9 L281.7,616.8 L280.7,617.0 L279.3,618.8 L276.6,618.2 L274.4,616.9 L273.8,616.3 L276.5,614.8 L276.0,614.2 L273.9,613.6 L273.4,612.4 L270.8,612.3 L267.4,611.2 L266.8,609.6 L265.8,608.8 L264.4,608.4 L262.8,608.2 L262.0,609.0 L261.2,610.2 L259.4,609.7 L258.3,609.6 L256.4,607.7 L255.7,606.7 L254.7,606.3 L253.2,606.9 L245.1,606.4 L243.2,606.7 L241.5,606.1 L242.0,604.0 L243.1,602.1 L242.3,601.3 L242.2,600.4 L240.9,597.3 L237.6,595.7 L233.4,597.8 L227.8,597.7 L225.0,597.9 L220.5,597.8 L218.2,597.2 L216.7,595.6 L216.1,593.8 L217.7,591.7 L220.0,590.8 L226.6,590.8 L228.6,590.3 L230.0,589.5 L231.6,588.1 L232.5,586.5 L232.3,584.7 L230.1,585.7 L228.0,586.3 L226.1,586.1 L224.5,584.7 L223.9,582.9 L223.6,582.5 L222.0,582.2 L219.7,582.2 L217.9,580.6 L217.4,581.1 L216.4,583.7 L216.8,585.1 L217.5,585.7 L219.5,586.7 L220.3,588.6 L219.5,590.3 L217.8,591.2 L215.6,591.3 L214.5,591.2 L210.4,589.4 L207.7,590.5 L205.9,590.8 L205.2,591.3 L204.6,592.3 L205.7,594.1 L205.9,595.0 L208.4,594.9 L206.6,596.1 L205.0,596.8 L204.6,595.5 L203.3,593.8 L200.2,592.5 L197.7,590.8 L196.6,588.8 L196.8,584.5 L196.6,583.2 L195.3,580.8 L194.3,579.7 L193.0,579.1 L193.0,579.6 L195.2,582.1 L195.6,582.9 L195.6,588.3 L196.6,590.8 L198.6,592.3 L200.9,593.5 L202.6,594.9 L202.4,596.4 L190.9,596.3 L185.4,595.4 L183.5,594.6 L183.4,593.3 L184.9,592.1 L185.1,591.2 L184.5,590.2 L182.7,589.2 L179.5,588.3 L171.8,588.9 L156.7,588.0 L154.9,587.7 L153.3,587.1 L151.3,586.0 L150.1,584.2 L151.3,582.6 L149.3,581.1 L145.0,580.8 L140.8,581.2 L137.9,582.0 L122.1,591.5 L113.4,594.3 L110.9,595.8 L105.3,601.3 L103.7,601.8 L100.7,600.7 L95.8,601.1 L90.7,602.6 L85.3,605.8 L83.6,607.6 L80.4,609.9 L78.6,612.1 L75.6,614.2 L72.4,620.1 L70.0,626.4 L70.3,627.1 L71.2,627.6 L71.3,629.0 L70.1,637.7 L70.0,640.7 L70.4,642.6 L69.9,645.7 L70.3,649.7 L71.0,655.2 L72.1,656.2 L77.3,657.4 L78.0,658.2 L77.8,659.9 L80.2,662.5 L80.6,664.4 L77.4,664.8 L73.5,664.7 L71.1,663.9 L70.4,663.4 L69.3,661.8 L65.9,661.6 L64.6,662.2 L62.2,661.5 L59.8,662.9 L56.1,663.1 L51.4,665.8 L49.9,666.0 L47.0,665.7 L45.5,665.8 L44.1,666.3 L41.0,668.1 L40.4,668.7 L41.1,670.2 L42.0,670.9 L42.0,671.2 L40.1,671.3 L35.0,670.2 L33.6,670.3 L33.0,670.7 L32.4,671.9 L31.9,672.2 L31.1,672.2 L27.4,671.1 L26.0,670.3 L24.8,669.1 L24.2,667.9 L20.8,667.5 L16.4,666.0 L13.5,664.6 L11.1,664.8 L6.5,665.8 L3.0,665.5 L1.8,665.9 L0.6,667.8 L-3.3,670.3 L-6.5,670.6 L-7.5,670.5 L-9.8,669.1 L-10.5,668.0 L-11.5,665.2 L-12.5,664.0 L-13.7,663.6 L-16.8,663.2 L-21.0,661.1 L-22.5,660.6 L-27.2,660.2 L-28.5,659.8 L-28.5,659.3 L-28.9,659.1 L-28.6,657.2 L-27.8,655.7 L-26.5,654.7 L-24.6,654.6 L-25.5,653.6 L-27.2,653.2 L-28.4,652.6 L-27.8,651.1 L-36.2,650.5 L-41.1,648.2 L-42.2,648.3 L-44.4,648.9 L-46.8,648.8 L-47.9,651.7 L-49.5,652.2 L-50.6,651.2 L-51.9,648.6 L-54.6,645.4 L-55.9,645.1 L-56.3,644.8 L-56.0,643.8 L-57.7,643.4 L-66.9,643.4 L-69.4,644.0 L-70.2,643.9 L-71.4,643.2 L-73.5,640.0 L-74.8,639.1 L-76.4,638.8 L-82.7,638.5 L-85.1,637.3 L-87.3,638.2 L-88.1,637.9 L-89.9,636.7 L-92.1,636.1 L-95.3,634.7 L-98.0,634.6 L-101.9,633.6 L-103.2,633.5 L-105.2,633.6 L-107.0,634.1 L-107.3,635.2 L-107.2,636.8 L-108.2,638.9 L-107.4,639.7 L-107.9,640.0 L-108.7,641.1 L-107.6,641.4 L-106.7,642.2 L-106.2,643.3 L-106.3,644.5 L-106.9,645.3 L-107.9,645.6 L-110.5,645.3 L-119.8,645.5 L-121.0,645.1 L-125.3,645.7 L-126.8,645.5 L-127.2,645.3 L-127.4,644.4 L-129.4,643.1 L-130.8,643.5 L-132.1,644.5 L-134.2,646.6 L-135.3,646.8 L-136.4,645.7 L-138.0,643.7 L-139.2,643.2 L-143.1,642.5 L-144.4,642.6 L-145.7,643.3 L-150.3,643.8 L-156.0,645.4 L-158.6,645.5 L-161.5,644.7 L-162.8,643.6 L-164.6,643.2 L-164.9,642.2 L-166.5,641.0 L-167.4,639.9 L-167.9,638.6 L-167.7,637.3 L-171.2,638.2 L-173.2,638.0 L-174.1,636.6 L-178.6,634.6 L-179.7,633.8 L-180.6,635.1 L-181.2,635.3 L-181.8,634.8 L-185.4,636.9 L-187.2,637.7 L-189.5,637.8 L-193.5,636.4 L-195.4,636.4 L-195.5,638.2 L-198.0,639.0 L-198.7,638.7 L-198.6,637.8 L-199.0,637.3 L-201.0,637.1 L-201.0,636.1 L-203.9,633.3 L-207.7,631.3 L-210.0,631.2 L-210.7,630.7 L-211.1,630.0 L-210.8,628.8 L-212.1,626.1 L-214.1,625.6 L-219.9,626.4 L-225.8,626.0 L-228.6,625.3 L-231.2,623.9 L-232.1,623.1 L-235.9,622.6 L-238.4,621.5 L-241.1,621.7 L-243.6,620.3 L-246.1,619.2 L-250.4,618.7 L-251.8,618.0 L-253.1,617.0 L-253.4,616.0 L-252.8,615.0 L-251.2,614.0 L-252.9,613.7 L-254.6,614.2 L-255.9,615.2 L-256.4,616.7 L-256.6,618.7 L-257.2,619.7 L-258.5,620.0 L-260.5,619.8 L-262.3,619.5 L-264.0,618.8 L-265.3,617.7 L-266.2,616.1 L-261.6,612.1 L-260.5,609.7 L-259.7,606.8 L-260.0,604.1 L-262.1,602.5 L-264.6,602.8 L-267.7,601.6 L-270.1,601.1 L-271.5,601.0 L-272.6,601.5 L-273.6,603.5 L-274.5,603.8 L-276.2,603.8 L-277.5,603.1 L-278.1,601.2 L-277.9,600.4 L-278.7,600.0 L-280.7,599.5 L-285.5,600.5 L-285.9,599.9 L-286.1,598.5 L-287.1,597.6 L-289.2,596.8 L-289.2,594.3 L-289.0,593.5 L-287.6,594.2 L-287.0,593.6 L-285.7,593.2 L-279.1,592.5 L-277.4,590.7 L-274.3,589.3 L-272.1,586.3 L-271.8,585.5 L-268.2,582.1 L-265.4,579.1 L-264.9,576.7 L-263.1,572.5 L-260.1,560.3 L-258.3,556.1 L-255.7,546.4 L-250.9,525.4 L-248.9,515.0 L-248.4,510.4 L-249.2,507.2 L-249.1,506.6 L-247.1,504.5 L-245.3,499.7 L-243.9,498.4 L-242.0,498.4 L-237.4,499.2 L-234.8,498.9 L-233.3,498.1 L-233.3,497.0 L-235.1,495.6 L-234.1,495.6 L-234.9,494.6 L-240.5,490.8 L-242.3,490.0 L-242.8,490.0 L-244.0,491.7 L-247.4,495.3 L-248.2,498.6 L-249.3,501.2 L-244.8,464.6 L-241.7,452.8 L-240.4,437.2 L-239.9,436.1 L-237.4,432.5 L-236.3,431.3 L-235.1,431.0 L-234.4,431.3 L-234.2,431.6 L-234.3,433.0 L-234.6,434.0 L-233.0,435.9 L-228.0,438.6 L-223.7,440.1 L-214.7,447.2 L-212.6,449.3 L-211.8,451.6 L-211.6,453.1 L-210.6,455.8 L-208.9,463.6 L-206.4,467.9 L-203.9,470.2 L-201.0,472.2 L-198.6,473.2 L-198.0,473.7 L-197.4,474.7 L-197.3,475.3 L-197.5,476.5 L-197.1,479.6 L-196.4,480.8 L-195.4,481.4 L-196.0,478.2 L-196.5,477.3 L-195.8,475.3 L-196.6,473.7 L-198.2,472.5 L-200.0,471.7 L-195.8,472.1 L-194.1,472.7 L-192.4,473.7 L-194.3,471.4 L-197.2,470.3 L-200.4,469.6 L-203.1,468.1 L-204.4,466.2 L-205.4,463.9 L-208.2,449.6 L-209.2,446.7 L-211.7,442.1 L-214.8,438.1 L-218.2,435.3 L-228.8,430.0 L-229.3,428.3 L-229.8,427.9 L-232.2,427.3 L-236.2,424.5 L-239.9,423.7 L-241.1,423.1 L-243.0,421.6 L-244.4,420.8 L-247.0,421.2 L-248.4,420.8 L-247.1,415.7 L-247.1,414.7 L-242.2,413.6 L-240.7,413.7 L-236.0,417.6 L-234.3,418.6 L-229.0,420.3 L-230.7,419.0 L-237.4,415.2 L-239.3,413.6 L-239.7,412.9 L-240.1,410.9 L-241.3,409.1 L-240.4,408.8 L-238.4,407.0 L-237.2,406.5 L-235.4,406.4 L-235.1,405.5 L-235.2,404.8 L-236.7,402.9 L-235.1,401.9 L-236.4,401.4 L-237.2,400.4 L-238.2,397.9 L-236.7,398.7 L-235.4,398.7 L-234.4,398.1 L-233.6,396.9 L-233.6,396.4 L-234.8,395.5 L-236.3,395.1 L-236.6,393.7 L-237.1,392.7 L-237.2,391.7 L-238.4,391.4 L-239.6,390.7 L-239.6,390.4 L-238.7,389.8 L-241.3,388.6 L-241.3,387.7 L-244.9,387.5 L-245.6,386.9 L-245.7,386.3 L-245.2,385.6 L-243.8,384.6 L-244.2,383.2 L-243.3,382.2 L-238.2,380.0 L-237.6,379.1 L-238.2,376.8 L-239.8,375.2 L-243.2,375.1 L-245.9,376.2 L-245.8,378.6 L-247.8,378.2 L-250.6,375.5 L-252.5,375.2 L-254.8,374.3 L-256.5,373.3 L-257.5,373.0 L-261.4,373.8 L-263.3,373.8 L-264.1,372.2 L-264.6,370.3 L-265.8,369.0 L-267.5,368.1 L-269.5,367.9 L-274.5,367.7 L-276.5,367.3 L-275.8,366.3 L-277.1,365.5 L-281.0,365.0 L-283.5,363.5 L-285.6,363.1 L-286.5,362.7 L-288.6,359.7 L-288.6,360.6 L-288.1,362.5 L-288.4,362.8 L-289.1,362.5 L-289.8,361.9 L-291.4,356.4 L-291.1,355.1 L-292.3,354.8 L-293.7,352.1 L-296.8,349.8 L-297.6,347.9 L-298.6,347.3 L-301.1,347.0 L-301.7,346.5 L-303.9,343.4 L-308.0,340.4 L-310.3,339.3 L-312.2,338.9 L-313.1,338.4 L-313.7,337.2 L-313.9,335.8 L-313.9,332.9 L-313.3,332.2 L-311.4,331.2 L-311.9,330.2 L-310.8,329.4 L-307.9,328.2 L-307.0,327.0 L-305.8,324.4 L-304.9,323.0 L-303.6,322.4 L-303.7,321.1 L-304.6,319.8 L-306.5,318.2 L-311.0,316.4 L-319.5,315.4 L-322.2,314.4 L-319.5,313.0 L-317.1,312.8 L-316.6,312.5 L-316.1,309.8 L-316.9,308.6 L-317.1,307.5 L-316.7,305.7 L-316.2,304.9 L-315.6,304.2 L-313.8,303.7 L-306.9,303.2 L-305.4,302.7 L-304.2,303.6 L-300.4,304.2 L-299.3,304.2 L-299.8,303.7 L-298.1,303.9 L-296.7,304.7 L-298.3,304.7 L-298.3,305.2 L-295.2,306.8 L-292.1,307.2 L-289.7,308.7 L-288.0,309.3 L-284.0,309.3 L-285.5,308.7 L-288.6,308.2 L-289.8,307.5 L-292.1,305.7 L-294.7,304.2 L-297.3,303.2 L-300.5,302.7 L-301.2,302.5 L-302.2,301.8 L-305.0,301.2 L-315.3,301.7 L-317.6,302.7 L-318.8,304.2 L-319.6,304.7 L-321.8,305.1 L-323.6,306.3 L-325.0,306.7 L-326.4,306.7 L-327.8,306.3 L-330.7,304.2 L-331.9,303.7 L-334.4,303.7 L-335.0,304.1 L-335.4,305.2 L-337.6,305.2 L-344.5,302.7 L-344.5,302.2 L-342.8,302.4 L-339.7,303.4 L-338.0,303.2 L-336.7,302.2 L-337.4,301.2 L-340.0,299.2 L-341.0,299.6 L-340.6,300.5 L-341.0,301.2 L-341.6,301.2 L-341.7,299.0 L-342.5,297.9 L-345.6,296.5 L-339.7,294.1 L-336.9,294.5 L-337.0,295.0 L-337.4,295.1 L-336.9,295.6 L-336.2,295.0 L-333.6,294.0 L-333.4,293.5 L-336.4,293.3 L-337.6,293.0 L-336.9,292.0 L-338.1,291.4 L-339.7,291.3 L-340.6,290.9 L-340.0,289.5 L-341.0,288.5 L-340.2,288.0 L-335.6,287.8 L-332.9,287.3 L-331.3,287.4 L-332.5,287.2 L-335.9,287.4 L-341.6,285.9 L-342.7,285.7 L-346.1,286.4 L-348.9,286.4 L-350.5,286.9 L-351.2,286.4 L-350.1,286.2 L-348.8,285.7 L-347.7,284.9 L-347.1,283.9 L-348.3,284.6 L-351.7,284.9 L-350.6,285.1 L-350.2,285.9 L-352.1,285.9 L-353.7,285.4 L-353.8,287.1 L-354.9,287.5 L-357.3,286.9 L-358.6,287.0 L-362.4,287.9 L-365.0,287.9 L-367.0,286.9 L-368.8,284.7 L-370.6,284.3 L-370.6,283.9 L-371.8,283.5 L-370.6,282.9 L-368.6,282.9 L-367.5,284.4 L-367.0,284.4 L-366.1,283.8 L-364.9,284.4 L-364.4,282.8 L-363.3,283.8 L-361.4,284.2 L-359.4,284.0 L-357.8,283.3 L-358.3,282.8 L-355.4,280.1 L-355.1,278.7 L-356.8,277.3 L-356.8,277.7 L-356.1,278.2 L-356.0,278.7 L-356.4,279.1 L-357.3,279.2 L-356.3,279.7 L-356.9,280.3 L-357.8,280.3 L-358.2,279.9 L-361.9,278.3 L-358.8,278.8 L-359.7,277.9 L-360.6,277.5 L-362.9,277.3 L-361.9,277.7 L-363.4,278.2 L-367.3,278.5 L-368.0,279.0 L-368.7,279.9 L-372.6,280.8 L-372.6,280.3 L-372.1,280.3 L-372.1,279.7 L-374.1,280.3 L-374.5,278.6 L-374.2,278.1 L-373.6,277.7 L-374.7,277.7 L-375.5,277.3 L-375.9,276.6 L-376.1,275.7 L-376.7,275.7 L-376.1,277.7 L-376.1,279.5 L-375.9,280.2 L-375.2,281.1 L-373.6,282.3 L-374.1,283.3 L-375.1,282.3 L-375.7,282.6 L-378.2,280.8 L-377.7,281.7 L-378.1,282.2 L-378.8,282.0 L-379.4,279.9 L-379.9,280.0 L-380.2,280.8 L-379.7,281.8 L-381.2,281.7 L-381.7,281.3 L-384.1,282.2 L-385.2,282.2 L-386.3,281.8 L-385.3,281.3 L-386.9,280.5 L-387.7,280.5 L-388.4,281.3 L-387.3,281.8 L-388.1,284.3 L-387.7,286.4 L-386.5,288.2 L-384.9,289.5 L-387.4,289.1 L-387.9,289.5 L-388.4,289.5 L-389.4,286.7 L-389.2,285.8 L-388.5,284.6 L-388.4,283.6 L-388.5,281.9 L-389.1,280.6 L-390.9,278.8 L-393.2,277.9 L-393.5,277.5 L-393.3,276.5 L-392.4,274.4 L-386.8,272.7 L-387.3,271.9 L-387.3,270.6 L-388.9,271.2 L-388.9,269.1 L-389.4,269.1 L-390.0,269.9 L-391.7,269.4 L-392.9,269.6 L-391.9,269.8 L-391.2,270.4 L-390.4,272.2 L-390.8,272.3 L-390.9,272.7 L-391.8,272.3 L-392.9,273.0 L-394.0,273.2 L-392.9,274.2 L-394.0,274.5 L-394.5,275.9 L-395.2,276.2 L-398.0,274.2 L-403.2,273.2 L-405.2,273.2 L-403.8,272.8 L-402.5,272.9 L-399.6,273.7 L-399.6,273.2 L-400.7,272.7 L-402.1,272.4 L-405.2,272.2 L-405.2,271.6 L-404.2,271.4 L-404.1,270.4 L-403.9,270.1 L-402.1,270.1 L-400.5,267.6 L-399.6,267.1 L-399.6,266.5 L-403.2,269.1 L-405.5,270.0 L-407.0,270.2 L-406.0,270.8 L-405.6,271.2 L-405.6,271.6 L-411.7,272.7 L-412.8,272.4 L-415.3,270.1 L-417.8,267.1 L-418.6,267.5 L-422.5,267.1 L-425.0,267.1 L-426.8,266.0 L-429.6,266.1 L-431.0,265.8 L-431.7,264.8 L-432.3,264.6 L-436.2,266.0 L-437.3,265.3 L-441.8,265.5 L-443.4,263.5 L-444.4,262.8 L-444.7,262.3 L-444.4,261.5 L-445.0,261.5 L-446.4,260.9 L-446.6,260.1 L-448.0,259.0 L-450.0,258.1 L-452.0,257.9 L-451.3,259.4 L-451.9,260.5 L-453.5,261.8 L-455.0,261.5 L-453.7,261.4 L-453.3,261.1 L-453.0,260.4 L-455.2,260.8 L-455.6,261.5 L-457.7,260.3 L-460.8,259.6 L-461.7,258.7 L-462.5,257.6 L-462.7,256.4 L-463.5,257.3 L-463.0,258.4 L-461.1,260.0 L-461.1,260.4 L-462.8,260.7 L-464.2,261.5 L-465.6,259.8 L-466.6,260.0 L-466.9,261.0 L-465.8,261.5 L-466.2,262.0 L-466.2,262.5 L-464.2,262.5 L-464.2,263.0 L-466.6,264.6 L-469.6,265.4 L-480.5,265.0 L-480.5,263.0 L-478.7,262.7 L-478.4,262.2 L-478.7,260.9 L-479.8,259.0 L-480.5,257.0 L-481.6,255.6 L-485.1,252.5 L-492.5,248.8 L-495.3,250.3 L-497.6,248.8 L-501.4,248.8 L-506.9,247.7 L-506.1,247.0 L-504.9,245.2 L-503.6,245.7 L-479.7,242.1 L-475.5,243.0 L-474.4,242.7 L-474.1,242.1 L-473.3,240.0 L-473.7,239.2 L-474.7,238.3 L-475.3,236.1 L-476.3,235.4 L-480.1,234.7 L-480.5,234.4 L-481.0,233.5 L-482.9,233.9 L-486.9,232.2 L-488.9,232.7 L-491.0,235.7 L-492.4,237.1 L-494.3,237.6 L-493.3,235.5 L-494.1,234.6 L-494.7,233.5 L-494.4,232.6 L-493.5,232.0 L-494.0,231.2 L-499.4,230.9 L-499.2,230.1 L-499.4,229.4 L-498.6,229.1 L-496.5,229.4 L-495.6,229.2 L-495.4,228.7 L-495.7,227.9 L-494.4,225.6 L-493.5,224.9 L-492.2,225.3 L-493.2,228.1 L-491.2,228.7 L-484.5,228.4 L-482.7,229.3 L-481.8,229.4 L-477.3,228.6 L-472.4,228.4 L-473.3,228.9 L-474.4,228.9 L-472.9,229.3 L-466.8,228.4 L-466.8,227.9 L-469.1,228.0 L-470.0,227.7 L-470.3,226.8 L-471.0,227.4 L-472.0,227.6 L-472.9,227.3 L-473.3,226.6 L-477.0,226.8 L-476.4,226.1 L-475.4,225.8 L-475.0,225.2 L-472.9,223.8 L-474.1,223.8 L-475.8,224.6 L-477.0,224.8 L-477.0,224.3 L-476.4,224.3 L-476.4,223.8 L-477.0,223.8 L-477.9,224.8 L-479.1,224.5 L-481.4,225.6 L-483.1,225.8 L-482.5,225.3 L-483.1,224.8 L-484.5,225.5 L-486.6,225.8 L-486.6,225.3 L-482.3,221.9 L-474.4,218.7 L-479.5,220.2 L-484.5,220.7 L-486.8,221.4 L-491.5,223.4 L-495.2,223.9 L-497.4,224.7 L-498.8,224.8 L-504.2,223.8 L-504.4,224.0 L-504.5,225.1 L-505.2,225.3 L-508.9,225.3 L-509.9,225.1 L-510.6,224.3 L-511.0,222.8 L-509.7,222.7 L-509.8,221.7 L-511.0,219.7 L-511.2,218.3 L-510.8,216.9 L-509.9,215.9 L-508.5,215.6 L-508.5,215.1 L-510.4,214.2 L-509.7,212.1 L-506.5,208.5 L-504.9,209.1 L-505.5,208.5 L-504.3,208.0 L-500.6,207.5 L-499.1,207.8 L-496.7,208.7 L-495.7,208.5 L-497.5,206.9 L-498.0,205.9 L-497.0,205.5 L-493.6,206.1 L-492.2,206.0 L-494.3,205.5 L-493.9,204.9 L-494.7,204.4 L-494.7,203.9 L-488.9,203.9 L-487.2,203.7 L-484.8,203.0 L-483.1,202.9 L-484.5,202.4 L-484.5,201.9 L-482.4,201.6 L-478.4,200.3 L-476.4,200.3 L-475.1,201.4 L-475.6,203.1 L-473.9,202.9 L-470.8,201.9 L-468.2,202.4 L-467.3,202.4 L-467.3,201.9 L-468.7,201.6 L-468.3,200.8 L-465.8,199.4 L-462.6,198.8 L-460.9,198.9 L-459.6,199.4 L-459.2,198.9 L-458.7,198.9 L-458.1,199.8 L-457.6,199.8 L-456.8,199.0 L-456.8,198.5 L-457.1,197.8 L-450.9,196.3 L-450.5,196.5 L-450.9,197.8 L-450.8,198.1 L-450.0,198.4 L-450.0,198.8 L-450.5,198.8 L-450.5,199.4 L-449.7,199.7 L-449.2,200.2 L-449.1,201.0 L-449.5,201.9 L-447.4,200.5 L-446.3,200.1 L-444.8,200.3 L-445.9,200.9 L-445.9,201.4 L-445.0,202.2 L-442.8,203.1 L-441.8,203.9 L-441.3,203.4 L-441.8,202.9 L-441.3,202.4 L-441.9,201.3 L-442.3,199.8 L-441.8,199.8 L-440.8,200.9 L-441.0,199.6 L-440.8,198.2 L-440.2,197.3 L-439.3,197.8 L-438.8,197.1 L-438.8,196.2 L-437.8,197.1 L-436.4,197.4 L-432.9,197.3 L-429.6,198.8 L-426.0,198.4 L-426.0,199.6 L-424.2,200.0 L-422.0,200.0 L-421.0,199.6 L-422.0,196.8 L-421.7,196.2 L-417.8,195.8 L-418.9,195.3 L-421.5,193.2 L-421.8,192.0 L-421.0,191.4 L-418.9,190.7 L-416.9,188.2 L-415.7,188.5 L-413.3,188.6 L-410.8,189.6 L-409.8,189.7 L-410.8,190.7 L-408.1,190.7 L-406.2,189.6 L-399.9,188.1 L-399.1,187.6 L-397.8,187.7 L-395.6,185.9 L-394.4,186.1 L-394.0,187.2 L-394.0,188.6 L-394.5,190.0 L-395.5,190.7 L-395.0,191.7 L-394.7,190.8 L-394.1,190.1 L-391.9,188.2 L-389.4,186.7 L-388.6,186.9 L-387.2,185.8 L-386.3,185.6 L-385.4,186.0 L-384.8,186.7 L-384.8,187.4 L-385.3,188.2 L-385.3,188.6 L-384.3,189.2 L-384.9,189.8 L-385.8,191.7 L-387.9,193.7 L-387.9,194.3 L-387.3,194.3 L-384.9,190.9 L-383.4,189.5 L-382.2,189.7 L-380.7,189.1 L-379.2,189.7 L-379.7,190.2 L-379.3,190.3 L-379.2,190.7 L-381.7,191.7 L-381.7,192.2 L-380.7,192.7 L-378.8,193.2 L-375.1,193.3 L-373.6,193.7 L-373.6,195.3 L-374.6,195.8 L-374.6,196.2 L-372.2,197.5 L-371.0,198.4 L-370.6,199.1 L-365.7,201.9 L-364.6,205.1 L-364.9,205.8 L-364.7,206.2 L-361.6,207.7 L-357.3,209.1 L-357.8,210.3 L-358.8,211.0 L-357.3,211.3 L-355.0,212.9 L-354.8,211.1 L-354.5,210.6 L-351.6,210.7 L-350.3,210.3 L-348.9,209.3 L-346.6,207.0 L-339.5,204.2 L-338.4,203.4 L-338.4,202.9 L-340.5,202.4 L-337.2,201.8 L-335.6,201.9 L-334.9,202.9 L-333.0,202.4 L-330.7,201.4 L-328.8,200.2 L-327.8,198.8 L-327.5,199.7 L-327.0,200.2 L-326.2,200.5 L-325.2,200.3 L-325.2,200.9 L-325.8,201.2 L-326.7,202.4 L-328.8,203.9 L-327.5,204.6 L-324.6,203.0 L-322.9,202.4 L-322.6,202.8 L-321.9,205.0 L-321.1,205.2 L-320.6,205.9 L-320.2,207.5 L-319.4,207.2 L-318.8,206.6 L-318.6,205.9 L-318.6,205.0 L-317.9,207.0 L-317.2,207.4 L-316.1,207.0 L-316.1,206.5 L-317.1,206.0 L-316.2,205.2 L-315.4,204.7 L-314.5,204.8 L-313.5,205.5 L-314.4,204.5 L-315.0,203.4 L-311.7,202.7 L-308.2,202.4 L-306.4,204.7 L-305.9,206.2 L-305.3,206.8 L-304.4,207.0 L-304.9,208.0 L-303.0,209.9 L-302.5,210.9 L-302.8,212.6 L-299.8,211.0 L-301.9,210.1 L-301.5,209.5 L-302.5,208.2 L-302.8,207.0 L-302.3,207.0 L-300.8,208.0 L-301.3,207.1 L-302.0,206.7 L-303.6,206.5 L-304.3,206.0 L-306.4,202.9 L-305.6,201.7 L-303.4,200.7 L-303.2,199.6 L-302.6,199.4 L-299.8,199.4 L-300.2,198.8 L-292.7,197.8 L-292.9,198.5 L-292.1,199.4 L-294.0,201.4 L-294.0,203.1 L-292.3,204.4 L-289.1,205.0 L-283.7,205.0 L-277.8,204.4 L-274.3,203.1 L-273.1,202.9 L-267.2,203.4 L-259.2,202.2 L-256.5,202.9 L-257.7,201.6 L-259.3,201.1 L-262.2,200.9 L-262.5,201.4 L-262.9,201.5 L-263.5,200.2 L-263.9,199.9 L-266.4,199.4 L-267.3,199.0 L-267.7,198.6 L-268.4,196.8 L-271.1,195.2 L-271.8,193.5 L-271.8,191.4 L-272.1,189.6 L-273.0,188.5 L-274.8,188.2 L-274.8,187.6 L-273.8,187.3 L-273.0,186.6 L-272.5,185.8 L-271.9,182.2 L-271.4,181.5 L-270.7,182.1 L-270.3,181.2 L-270.3,180.6 L-270.6,180.2 L-271.5,180.0 L-271.8,179.6 L-271.0,175.3 L-270.5,174.2 L-269.5,173.8 L-267.7,174.4 L-267.7,173.9 L-269.2,173.5 L-270.8,173.5 L-272.2,174.0 L-273.0,175.5 L-274.1,174.3 L-274.3,173.6 L-274.3,171.9 L-273.8,170.3 L-274.8,170.2 L-275.2,169.6 L-275.1,168.8 L-274.3,166.9 L-272.3,165.8 L-273.2,165.3 L-273.8,165.8 L-274.9,163.2 L-275.3,160.4 L-274.8,159.7 L-273.4,159.6 L-270.7,160.1 L-270.7,159.7 L-274.2,158.8 L-275.8,158.7 L-276.4,160.1 L-277.6,159.2 L-278.8,156.5 L-279.9,155.6 L-278.9,155.1 L-281.0,154.0 L-281.9,153.1 L-282.5,152.0 L-281.0,152.0 L-281.0,151.5 L-281.9,150.0 L-282.5,150.0 L-283.1,151.3 L-284.5,150.7 L-286.1,149.5 L-287.6,148.9 L-287.0,147.9 L-289.9,148.4 L-290.7,147.9 L-290.9,147.0 L-290.6,144.4 L-290.9,142.8 L-292.3,141.1 L-292.7,139.8 L-295.7,137.0 L-295.3,136.0 L-293.2,134.7 L-292.7,133.9 L-292.4,130.4 L-293.9,127.8 L-294.6,127.3 L-297.0,127.0 L-300.2,126.1 L-299.7,124.3 L-299.8,123.2 L-299.5,122.6 L-297.5,122.5 L-294.4,123.5 L-292.4,123.3 L-291.3,123.8 L-290.7,125.0 L-289.1,125.0 L-287.5,125.4 L-282.6,125.9 L-277.0,127.1 L-275.8,127.1 L-275.6,128.0 L-275.1,128.1 L-274.4,128.0 L-273.4,127.2 L-272.6,127.1 L-270.1,127.6 L-269.3,127.6 L-268.0,127.2 L-266.8,126.5 L-264.9,124.8 L-263.9,124.3 L-260.4,123.6 L-259.1,123.5 L-249.5,124.8 L-248.9,126.5 L-247.3,128.8 L-246.9,130.1 L-248.8,130.9 L-249.6,132.7 L-251.3,132.7 L-252.4,133.2 L-252.8,135.0 L-251.8,136.4 L-250.5,137.7 L-249.4,139.8 L-243.8,144.5 L-243.1,145.6 L-242.8,147.2 L-242.9,148.0 L-243.8,149.2 L-243.5,150.0 L-241.3,149.5 L-239.1,150.8 L-237.7,150.5 L-237.7,150.0 L-238.5,149.3 L-237.9,148.2 L-236.7,147.3 L-235.4,147.0 L-225.6,147.3 L-216.8,149.5 L-204.1,150.0 L-200.9,150.6 L-199.0,150.7 L-196.3,149.8 L-194.5,150.0 L-191.3,151.0 L-186.3,151.0 L-182.7,152.3 L-179.0,152.9 L-172.0,155.6 L-170.1,154.5 L-158.2,152.7 L-154.8,151.6 L-152.7,150.4 L-151.0,150.1 L-150.4,149.7 L-148.6,147.9 L-143.7,145.6 L-125.2,142.8 L-121.7,141.7 L-120.3,140.9 L-119.1,139.8 L-124.4,141.9 L-130.5,142.5 L-136.6,142.0 L-141.9,140.8 L-144.8,140.7 L-148.0,139.8 L-148.8,138.6 L-149.9,138.1 L-150.1,137.5 L-150.0,136.7 L-149.8,136.2 L-146.0,131.6 L-143.0,125.0 L-141.9,124.2 L-138.2,122.3 L-137.4,122.2 L-136.6,121.8 L-126.9,118.9 L-126.2,118.2 L-116.9,114.6 L-114.3,114.0 L-111.4,112.7 L-105.6,111.4 L-99.2,111.4 L-68.6,105.0 L-66.8,104.1 L-65.0,103.7 L-62.0,101.6 L-52.4,96.6 L-47.6,93.0 L-46.9,92.3 L-45.3,88.4 L-42.7,86.2 L-40.2,86.0 L-32.8,88.3 L-32.1,88.2 L-31.5,87.8 L-31.5,87.3 L-32.8,87.2 L-33.5,86.4 L-32.0,86.4 L-32.0,85.8 L-35.0,85.5 L-36.1,84.9 L-37.3,83.1 L-40.5,82.1 L-41.2,81.5 L-41.1,79.1 L-40.5,76.2 L-38.9,74.2 L-36.1,74.6 L-36.1,74.1 L-40.2,72.1 L-40.2,71.6 L-38.8,69.1 L-38.8,65.6 L-38.4,62.5 L-36.1,61.4 L-38.1,59.5 L-38.5,58.4 L-38.8,54.9 L-39.6,51.8 L-39.6,50.2 L-39.3,48.9 L-37.7,46.0 L-36.8,44.9 L-36.4,43.5 L-36.9,41.8 L-38.1,39.0 L-38.3,37.6 L-36.5,36.7 L-32.9,36.1 L-29.5,33.4 L-27.2,32.0 L-13.0,28.1 L-11.7,28.3 L-9.1,27.3 L2.8,26.4 L16.3,23.5 L21.4,23.7 L27.5,22.7 L31.6,21.4 Z" fill="#faf5ef" stroke="#8B1A2B" stroke-width="1.3" stroke-linejoin="round"/></g>
  <g>    <path class="region-area" d="M262.0,609.0 L261.2,610.2 L259.4,609.7 L258.3,609.6 L256.4,607.7 L255.7,606.7 L254.7,606.3 L253.2,606.9 L245.1,606.4 L243.2,606.7 L241.5,606.1 L242.0,604.0 L243.1,602.1 L242.3,601.3 L242.2,600.4 L240.9,597.3 L237.6,595.7 L233.4,597.8 L227.8,597.7 L225.0,597.9 L220.5,597.8 L218.2,597.2 L216.7,595.6 L216.1,593.8 L217.7,591.7 L220.0,590.8 L226.6,590.8 L228.6,590.3 L230.0,589.5 L231.6,588.1 L232.5,586.5 L232.3,584.7 L230.1,585.7 L228.0,586.3 L226.1,586.1 L224.5,584.7 L223.9,582.9 L223.6,582.5 L222.0,582.2 L219.7,582.2 L217.9,580.6 L217.4,581.1 L216.4,583.7 L216.8,585.1 L217.5,585.7 L219.5,586.7 L220.3,588.6 L219.5,590.3 L217.8,591.2 L215.6,591.3 L214.5,591.2 L210.4,589.4 L207.7,590.5 L205.9,590.8 L205.2,591.3 L204.6,592.3 L205.7,594.1 L205.9,595.0 L208.4,594.9 L206.6,596.1 L205.0,596.8 L204.6,595.5 L203.3,593.8 L200.2,592.5 L197.7,590.8 L196.6,588.8 L196.8,584.5 L196.6,583.2 L195.3,580.8 L194.3,579.7 L193.0,579.1 L193.0,579.6 L195.2,582.1 L195.6,582.9 L195.6,588.3 L196.6,590.8 L198.6,592.3 L200.9,593.5 L202.6,594.9 L202.4,596.4 L190.9,596.3 L185.4,595.4 L183.5,594.6 L183.4,593.3 L184.9,592.1 L185.1,591.2 L184.5,590.2 L182.7,589.2 L179.5,588.3 L171.8,588.9 L156.7,588.0 L158.6,587.1 L159.8,584.9 L161.0,584.7 L162.7,583.7 L165.3,583.2 L169.5,580.7 L171.5,580.2 L172.1,578.9 L173.1,578.6 L174.7,578.5 L175.1,578.2 L175.8,576.9 L175.8,576.4 L175.6,576.2 L173.7,576.1 L173.3,575.5 L175.0,572.6 L176.9,570.7 L178.5,569.7 L180.9,569.1 L184.0,569.7 L185.8,570.4 L186.7,570.2 L187.3,569.0 L187.3,567.1 L188.5,565.1 L189.6,562.3 L189.7,561.3 L189.1,558.9 L189.0,557.5 L190.4,556.5 L192.6,555.6 L195.4,554.0 L198.8,552.8 L208.7,555.6 L213.4,557.8 L220.6,562.8 L222.2,563.7 L230.0,566.5 L234.6,566.5 L240.7,567.2 L243.8,569.3 L246.4,570.5 L255.2,572.4 L259.0,572.7 L261.9,571.6 L263.6,570.5 L268.5,569.7 L270.4,568.8 L271.7,567.8 L273.2,568.2 L274.8,570.4 L276.1,571.0 L274.5,573.0 L268.3,574.3 L266.3,576.8 L266.4,578.8 L267.5,579.8 L268.8,580.4 L269.6,581.2 L269.6,582.3 L268.5,585.1 L268.4,586.0 L268.7,586.7 L273.6,591.7 L271.7,592.1 L268.1,591.9 L266.4,592.5 L267.5,594.5 L267.8,595.5 L267.0,596.9 L266.8,598.2 L267.0,598.9 L269.2,598.9 L271.3,600.0 L272.2,601.4 L271.1,602.7 L268.6,603.6 L267.1,604.6 L266.2,606.2 L265.6,608.7 L264.4,608.4 L262.8,608.2 L262.0,609.0 Z" fill="rgba(139,26,43,0.15)" stroke="rgba(139,26,43,0.4)" stroke-width="0.5"/>
    <path class="region-area" d="M194.9,446.9 L188.2,449.4 L186.7,450.3 L185.7,451.5 L185.6,452.3 L186.0,454.5 L185.8,455.6 L175.8,456.0 L173.3,454.3 L171.6,453.6 L168.1,453.2 L167.7,452.9 L166.6,450.8 L166.8,449.6 L167.6,448.8 L167.5,448.0 L167.0,447.1 L165.6,445.3 L164.7,444.6 L163.9,444.4 L162.3,445.5 L161.1,445.9 L156.0,444.8 L153.3,444.8 L152.7,445.1 L152.6,446.1 L151.7,446.9 L144.6,447.8 L141.3,447.9 L139.2,446.2 L138.6,446.1 L136.2,446.7 L134.2,447.9 L133.3,447.5 L132.9,446.9 L133.7,444.2 L134.6,442.8 L138.0,439.9 L139.1,437.7 L139.0,436.6 L138.3,435.7 L136.0,431.2 L135.5,430.7 L126.9,425.4 L125.2,423.1 L123.0,419.1 L122.3,418.2 L121.1,417.7 L118.8,414.5 L119.8,412.7 L120.0,410.2 L121.0,408.6 L121.4,407.3 L120.8,406.1 L117.8,404.2 L117.3,403.1 L117.6,402.5 L120.5,401.4 L125.1,400.7 L126.3,400.4 L127.2,399.9 L127.8,399.2 L127.9,398.6 L127.1,396.5 L126.7,393.2 L125.9,391.2 L125.8,389.5 L126.0,387.3 L125.5,385.2 L125.5,384.1 L125.1,383.6 L124.1,382.9 L124.1,382.3 L128.1,379.8 L133.0,378.8 L133.6,379.7 L133.9,380.7 L133.7,382.5 L133.8,383.4 L134.9,384.0 L137.4,384.6 L139.9,386.1 L140.8,386.2 L141.9,386.1 L147.0,384.9 L152.1,385.8 L155.7,385.2 L161.5,386.4 L162.9,386.5 L165.8,385.8 L167.8,384.7 L170.0,382.6 L171.3,382.9 L172.6,383.8 L173.6,385.1 L174.1,386.4 L173.5,388.1 L171.9,388.6 L167.9,388.8 L166.7,389.5 L160.6,394.3 L160.2,395.6 L161.6,396.6 L163.7,397.6 L164.3,398.4 L163.7,399.4 L161.2,399.9 L160.2,400.4 L160.7,401.5 L165.8,403.6 L166.7,404.9 L166.6,405.7 L166.0,406.9 L166.2,407.7 L166.8,408.3 L169.1,409.2 L170.7,411.0 L169.9,412.8 L167.0,415.8 L167.0,417.1 L168.2,417.5 L170.9,417.9 L171.1,418.8 L169.2,420.7 L168.6,421.7 L170.0,425.0 L173.8,428.0 L178.4,430.1 L182.0,430.7 L186.5,430.2 L189.0,430.4 L190.6,431.3 L190.9,432.4 L189.9,435.7 L190.0,437.1 L190.7,437.8 L191.9,438.1 L194.8,437.9 L195.8,438.4 L197.9,440.6 L197.5,443.7 L198.6,446.4 L194.9,446.9 Z" fill="rgba(139,26,43,0.15)" stroke="rgba(139,26,43,0.4)" stroke-width="0.5"/>
    <path class="region-area" d="M297.0,379.0 L297.0,380.5 L296.7,381.0 L294.6,381.4 L293.2,381.2 L286.9,383.5 L286.6,384.4 L287.4,385.5 L288.7,386.6 L286.9,389.6 L285.9,389.8 L283.6,389.8 L283.0,390.2 L281.5,391.9 L280.5,392.4 L278.6,391.0 L277.0,392.2 L276.9,395.6 L278.0,401.5 L278.2,404.3 L277.5,406.8 L274.0,414.3 L273.1,418.5 L271.8,420.3 L268.7,421.6 L264.8,424.8 L263.3,425.6 L261.8,425.8 L260.3,424.9 L257.8,421.5 L256.4,420.1 L251.2,416.8 L249.2,414.7 L247.9,411.8 L248.3,411.6 L247.7,410.9 L244.3,408.7 L243.1,408.2 L240.5,409.1 L236.0,414.2 L234.8,414.9 L233.5,415.2 L232.0,415.0 L229.9,413.9 L224.5,412.2 L219.5,412.7 L215.1,412.2 L209.5,413.3 L209.4,411.9 L208.6,409.8 L209.0,408.6 L207.3,407.9 L205.8,406.8 L204.3,406.0 L202.3,406.2 L201.8,405.0 L200.4,404.4 L199.7,403.4 L197.7,402.9 L197.0,402.5 L196.9,401.8 L197.5,399.4 L197.1,394.9 L197.8,393.6 L198.6,391.3 L200.5,388.0 L200.7,386.5 L200.4,385.3 L200.9,384.2 L202.0,380.7 L206.3,374.2 L206.4,373.7 L206.4,372.6 L208.5,369.3 L209.3,365.8 L210.8,363.1 L211.1,362.0 L211.7,361.6 L213.7,361.5 L218.8,362.8 L220.5,362.7 L225.0,361.5 L227.3,361.3 L229.0,361.7 L231.6,363.6 L233.6,364.5 L238.8,365.5 L238.8,368.1 L239.5,368.9 L241.3,369.4 L242.7,370.2 L243.6,372.5 L244.8,373.5 L247.4,374.1 L248.4,375.1 L250.6,375.5 L250.9,375.8 L251.0,376.3 L250.5,378.0 L250.6,378.7 L251.6,379.5 L253.6,379.9 L254.9,379.1 L256.8,378.5 L258.2,377.3 L259.9,377.0 L260.5,375.9 L263.8,373.7 L267.6,376.1 L268.3,376.8 L268.8,378.7 L269.3,379.0 L278.1,379.4 L280.5,379.1 L283.7,377.2 L285.1,376.0 L286.4,375.3 L287.7,373.7 L294.4,368.3 L298.0,369.8 L299.1,370.6 L300.0,371.8 L300.1,372.6 L297.7,376.3 L297.0,379.0 Z" fill="rgba(139,26,43,0.15)" stroke="rgba(139,26,43,0.4)" stroke-width="0.5"/>
    <path class="region-area" d="M146.0,299.6 L145.0,299.8 L144.1,300.4 L142.8,301.7 L141.5,301.8 L139.7,300.7 L138.9,297.1 L137.8,295.8 L132.8,297.7 L131.7,297.2 L131.6,296.3 L132.3,294.9 L132.3,294.0 L132.0,293.3 L131.5,293.0 L130.1,293.0 L129.4,293.5 L128.5,295.4 L128.1,296.0 L127.6,296.3 L126.9,296.3 L120.3,294.4 L115.0,291.1 L113.6,290.7 L110.8,290.4 L109.7,288.7 L108.9,287.9 L106.6,286.3 L104.4,283.8 L103.7,283.4 L103.9,285.9 L103.4,288.3 L98.0,287.2 L96.2,287.4 L93.9,288.9 L92.8,289.3 L91.8,289.2 L88.8,287.8 L86.1,288.5 L84.9,288.4 L82.9,286.7 L81.3,286.3 L77.9,286.0 L76.6,285.1 L76.3,283.0 L75.9,282.5 L75.3,282.1 L74.5,282.0 L66.7,283.2 L64.9,282.8 L64.2,281.7 L62.0,279.7 L61.6,279.0 L61.5,278.4 L62.3,277.5 L62.3,276.8 L60.8,274.7 L57.9,272.7 L55.0,271.8 L54.6,270.8 L54.9,269.4 L56.1,268.6 L61.1,268.2 L63.5,267.1 L66.6,266.1 L67.1,265.5 L67.1,263.4 L68.0,262.1 L66.9,260.0 L66.6,258.2 L66.7,257.6 L68.7,257.3 L70.5,255.9 L73.5,254.5 L74.1,253.9 L75.9,250.7 L75.5,248.8 L75.2,248.3 L71.7,246.2 L70.5,245.0 L68.8,240.9 L67.7,240.2 L66.7,239.8 L63.9,239.3 L61.6,239.1 L62.7,235.9 L63.2,235.5 L66.4,234.3 L67.3,233.7 L69.2,231.2 L69.4,230.8 L68.3,229.4 L68.1,227.9 L68.3,226.9 L69.0,226.0 L69.5,224.4 L70.3,223.8 L74.0,223.9 L75.4,223.3 L76.8,223.1 L82.5,223.5 L90.0,222.6 L92.9,223.1 L93.5,222.9 L94.6,221.5 L96.5,220.1 L97.8,220.8 L98.4,223.2 L98.9,223.5 L100.2,223.2 L101.4,223.4 L105.0,224.9 L106.0,225.6 L111.7,230.9 L112.2,231.6 L112.2,232.6 L112.7,234.6 L112.1,235.5 L110.8,236.3 L110.4,236.8 L110.3,237.3 L113.1,238.1 L116.6,240.0 L117.6,240.2 L119.0,239.9 L119.8,238.8 L120.4,238.7 L121.6,239.0 L122.2,239.5 L123.0,241.2 L125.3,243.0 L130.9,249.6 L131.0,250.0 L130.5,250.2 L128.8,250.6 L128.9,251.2 L130.9,252.0 L133.9,251.7 L134.4,252.5 L134.3,254.6 L134.7,255.2 L135.9,255.8 L137.9,256.0 L140.7,255.8 L144.2,256.5 L145.8,255.5 L146.5,255.3 L148.6,255.7 L150.9,255.7 L151.5,255.5 L152.7,254.4 L153.4,254.1 L154.5,254.2 L156.5,255.2 L157.1,254.6 L157.2,252.9 L157.6,252.8 L160.4,255.6 L162.0,256.3 L162.9,256.3 L165.6,254.7 L181.7,253.3 L182.6,253.0 L183.1,252.6 L183.0,251.5 L183.3,250.9 L184.8,249.9 L185.8,249.6 L190.4,250.1 L193.3,249.1 L195.8,250.3 L200.4,250.9 L201.2,251.4 L201.4,251.8 L200.7,252.7 L200.9,253.2 L204.4,254.2 L205.4,254.9 L205.2,255.6 L204.1,256.9 L204.1,257.4 L204.5,258.1 L205.6,258.5 L207.1,257.2 L207.9,257.3 L211.7,260.6 L213.3,262.4 L214.7,264.5 L214.9,265.5 L214.7,265.9 L214.1,266.2 L211.3,266.6 L210.8,266.9 L210.6,267.5 L212.3,269.2 L212.8,271.9 L213.6,273.5 L215.1,274.0 L216.0,273.7 L217.3,272.6 L218.2,272.7 L220.9,275.4 L223.8,276.8 L226.0,276.7 L227.0,276.0 L227.7,275.1 L228.2,274.8 L229.0,274.7 L229.6,275.0 L230.1,276.5 L230.8,277.0 L232.2,277.8 L235.3,279.0 L236.2,281.1 L236.8,281.3 L237.5,281.2 L240.3,279.8 L240.9,279.9 L241.8,280.8 L242.4,280.9 L243.2,280.4 L243.6,279.8 L246.1,280.7 L248.5,279.0 L250.0,279.2 L251.0,280.1 L251.3,280.5 L251.0,281.9 L252.2,283.4 L252.6,284.4 L252.3,285.6 L249.8,287.9 L247.0,288.4 L246.6,288.9 L246.0,291.1 L246.3,291.4 L248.4,291.9 L249.0,292.4 L249.3,292.8 L249.7,295.6 L250.3,296.3 L252.4,297.4 L252.7,298.5 L252.8,300.6 L253.1,302.2 L254.5,303.5 L252.7,308.0 L252.4,310.0 L251.8,310.8 L244.9,318.5 L244.1,319.0 L241.7,319.6 L238.5,320.8 L238.0,321.8 L238.8,324.0 L238.0,324.8 L235.6,325.7 L234.3,326.4 L232.8,326.0 L231.3,326.3 L227.9,327.7 L221.6,327.9 L221.0,327.7 L219.4,326.4 L215.0,327.3 L208.8,327.8 L199.8,330.6 L195.8,330.8 L194.1,331.9 L192.5,332.2 L191.7,332.1 L191.3,331.7 L190.9,330.5 L190.1,329.4 L185.9,328.5 L184.7,327.5 L182.5,323.8 L182.0,323.5 L179.1,323.6 L174.2,322.5 L173.0,321.7 L171.5,320.0 L170.7,319.6 L167.6,320.1 L165.5,317.3 L161.4,316.2 L158.4,313.7 L157.0,313.5 L157.2,312.0 L158.1,310.1 L157.7,308.7 L156.8,307.5 L155.7,306.8 L154.3,306.6 L153.0,306.8 L150.7,306.4 L150.6,301.0 L149.3,299.8 L146.0,299.6 Z" fill="rgba(139,26,43,0.15)" stroke="rgba(139,26,43,0.4)" stroke-width="0.5"/></g>
  <g>    <circle cx="181.5" cy="366.6" r="9" fill="#8B1A2B" stroke="#fff" stroke-width="0.8"/>
    <text x="181.5" y="370.1" text-anchor="middle" font-family="Inter, sans-serif" font-size="9" font-weight="700" fill="#fff">1</text></g>
  <line x1="28" y1="562" x2="292" y2="562" stroke="#8B1A2B" stroke-width="0.3" opacity="0.25"/>
  <text x="32" y="570" font-family="Inter, sans-serif" font-size="8.5" fill="#2D1B14"><tspan font-weight="700">1. _______________</tspan> : _______________</text>
  <text x="160" y="592" text-anchor="middle" font-family="Inter, sans-serif" font-size="7" fill="#b0a89e">Cellar -- Sommelier Companion</text>
</svg>