<svg xmlns="http://www.w3.org/2000/svg" viewBox="0 0 520 680">
  <defs>
    <filter id="shadow"><feDropShadow dx="1" dy="1.5" stdDeviation="2" flood-color="#2D1B14" flood-opacity="0.08"/></filter>
  </defs>

  <!-- Title -->
  <text x="260" y="24" text-anchor="middle" font-family="Cormorant Garamond, Georgia, serif" font-size="16" font-weight="400" fill="#2D1B14" letter-spacing="5">FRANKRIKE</text>
  <text x="260" y="42" text-anchor="middle" font-family="Inter, sans-serif" font-size="8" fill="#8a7a6a" letter-spacing="1" class="region-label">Placera regionerna och namnge de viktigaste druvorna</text>

  <!-- Country outline -->
  <g filter="url(#shadow)">
    <path d="M271.4,186.4 L271.9,187.1 L272.2,188.5 L272.5,189.0 L274.1,190.3 L274.2,190.9 L273.3,191.5 L273.1,191.8 L273.7,193.2 L273.4,193.8 L274.0,194.2 L274.5,194.7 L276.6,195.0 L277.1,195.6 L278.2,196.3 L279.0,197.3 L279.6,197.6 L282.6,198.4 L283.0,198.2 L284.0,197.2 L285.2,196.5 L289.3,195.7 L290.1,195.9 L290.6,196.2 L291.9,197.8 L292.2,198.0 L293.0,198.1 L293.2,198.4 L293.6,199.2 L293.2,199.7 L293.4,200.6 L294.2,202.3 L294.3,203.3 L294.4,203.6 L295.3,204.2 L297.2,204.8 L299.3,204.4 L300.3,203.9 L300.8,203.8 L301.4,204.1 L301.1,204.7 L301.4,204.9 L303.4,204.9 L304.8,205.2 L305.4,205.5 L305.9,206.1 L306.2,207.3 L306.2,208.7 L306.4,210.0 L307.5,210.6 L308.6,209.4 L309.3,209.2 L311.9,209.2 L313.6,209.8 L314.3,209.8 L316.3,209.3 L316.9,209.2 L317.5,209.4 L318.5,210.1 L319.8,210.7 L320.7,211.9 L321.2,212.1 L321.5,211.9 L321.4,211.5 L321.8,211.4 L322.9,211.9 L323.1,212.1 L323.0,212.4 L322.0,213.0 L321.5,213.5 L320.8,215.3 L320.7,215.9 L321.1,216.0 L322.1,215.8 L322.4,215.9 L323.3,218.0 L321.8,218.5 L321.0,219.0 L320.8,219.6 L320.9,219.7 L321.1,220.6 L320.9,220.6 L323.0,221.2 L325.4,221.0 L330.2,221.9 L331.1,221.8 L335.4,220.4 L336.7,220.3 L337.0,220.1 L337.5,219.3 L337.7,218.3 L337.5,217.8 L337.8,217.2 L341.1,215.1 L341.9,214.8 L342.0,215.3 L342.4,215.4 L343.3,215.3 L343.6,215.5 L343.3,217.2 L343.0,217.0 L342.8,217.0 L342.2,217.8 L342.2,218.7 L341.0,220.6 L340.9,221.1 L341.3,221.5 L342.8,221.9 L343.3,222.5 L343.2,223.1 L342.5,224.3 L342.9,225.0 L342.9,226.1 L343.2,226.4 L344.0,226.4 L346.7,226.0 L348.4,227.0 L350.1,227.4 L351.7,228.9 L352.8,229.4 L353.5,229.5 L355.5,229.3 L356.7,230.2 L357.0,230.6 L356.6,230.8 L356.5,231.3 L356.7,231.7 L357.4,231.7 L357.8,231.3 L359.3,231.7 L359.9,232.0 L361.4,233.8 L361.5,234.0 L361.4,234.9 L361.6,235.2 L362.2,235.3 L364.4,234.4 L365.3,234.7 L366.1,234.7 L366.6,234.1 L367.4,233.8 L369.4,234.2 L370.5,233.6 L371.8,234.0 L373.3,235.2 L376.1,235.7 L376.6,236.1 L377.1,237.0 L380.7,236.6 L381.0,236.3 L381.3,236.2 L381.6,235.7 L382.6,235.6 L382.4,235.3 L384.2,235.2 L385.9,235.5 L388.3,236.5 L389.1,236.6 L390.3,236.2 L390.6,236.2 L393.5,237.1 L394.0,237.5 L394.3,238.0 L394.2,238.2 L396.0,239.6 L395.9,239.8 L395.3,239.9 L395.2,240.1 L395.4,240.5 L397.9,242.2 L397.9,242.8 L398.7,243.0 L399.2,244.1 L399.8,244.0 L400.0,244.4 L399.8,245.2 L400.2,245.6 L401.9,245.8 L403.1,246.0 L403.5,246.0 L404.0,245.5 L403.7,244.5 L403.9,244.1 L406.4,244.2 L408.6,244.9 L409.3,244.9 L409.3,246.0 L409.6,246.9 L410.3,247.2 L411.2,246.8 L411.2,246.3 L411.4,246.2 L413.7,247.0 L416.4,247.0 L417.4,247.3 L418.1,246.6 L419.2,246.4 L419.8,245.6 L421.0,245.3 L421.6,245.3 L421.7,245.7 L423.6,245.9 L423.8,246.3 L423.5,246.6 L425.0,248.0 L425.7,248.2 L427.0,248.4 L427.7,248.6 L428.5,249.4 L428.9,249.4 L430.0,249.2 L431.3,249.4 L432.8,249.0 L435.3,249.5 L437.6,249.5 L442.5,251.2 L445.5,251.6 L445.9,251.8 L445.2,252.3 L444.3,253.5 L442.9,256.0 L442.5,256.4 L440.9,257.0 L440.2,257.8 L438.8,258.0 L438.5,259.1 L436.5,260.5 L435.2,261.0 L433.9,262.3 L433.6,263.4 L433.6,264.4 L434.0,265.3 L432.8,265.9 L432.6,266.8 L432.0,267.6 L431.7,268.8 L431.7,269.5 L432.1,270.3 L432.0,270.8 L431.6,271.2 L430.6,271.7 L430.1,273.5 L427.8,275.7 L427.6,276.6 L427.0,277.3 L426.6,278.3 L426.7,279.6 L428.0,281.2 L428.1,282.1 L427.0,283.1 L426.8,284.1 L426.2,284.8 L426.3,286.2 L425.7,286.5 L425.1,287.9 L425.5,289.0 L425.5,289.5 L424.7,290.2 L424.9,291.2 L425.5,291.5 L426.6,292.9 L427.1,293.3 L427.2,293.6 L427.0,294.0 L425.2,294.6 L423.8,295.3 L424.5,295.6 L424.4,296.1 L423.6,296.1 L423.9,296.7 L423.9,296.8 L423.3,297.2 L422.1,296.8 L421.7,296.9 L421.7,297.1 L422.1,297.5 L422.1,298.0 L421.5,298.5 L420.6,298.7 L418.5,298.7 L416.3,299.2 L415.7,298.8 L414.2,298.3 L414.0,297.8 L414.5,297.0 L413.7,297.0 L412.2,296.7 L410.6,296.9 L409.3,296.6 L408.2,296.9 L408.7,298.1 L408.0,298.6 L406.7,298.9 L406.7,299.5 L405.9,299.8 L405.4,300.2 L404.9,301.1 L408.5,300.8 L409.1,300.7 L410.3,301.5 L410.1,301.8 L409.2,302.2 L408.7,302.6 L408.3,302.6 L407.7,303.0 L407.5,303.7 L407.6,304.4 L405.6,305.5 L404.7,306.1 L404.1,306.8 L402.1,308.0 L401.1,308.2 L401.2,308.8 L399.5,309.6 L399.0,310.0 L399.4,310.6 L398.7,311.3 L396.7,312.4 L393.4,313.1 L391.9,313.7 L391.4,314.8 L391.9,315.6 L392.0,316.3 L391.1,318.0 L391.6,318.5 L391.5,319.3 L390.8,319.8 L389.8,320.1 L388.6,320.9 L386.4,321.8 L381.9,324.8 L382.0,325.2 L382.7,325.7 L380.2,328.2 L380.1,328.6 L380.3,329.4 L380.3,329.6 L379.9,329.8 L381.6,330.5 L382.4,331.3 L382.5,331.6 L381.4,333.4 L381.1,334.3 L381.2,334.9 L381.0,335.1 L380.2,335.3 L379.6,335.2 L377.7,335.8 L377.0,336.2 L376.9,336.5 L377.7,337.4 L377.0,338.7 L377.7,338.4 L379.1,338.1 L380.5,338.1 L381.6,338.4 L382.6,338.1 L384.1,336.8 L386.1,335.9 L386.9,335.3 L386.7,334.6 L386.5,334.5 L386.0,334.7 L385.6,334.4 L384.8,333.0 L385.0,332.6 L386.5,331.2 L387.5,330.6 L390.5,330.1 L393.1,328.9 L395.1,328.6 L397.1,328.7 L401.7,329.5 L402.2,329.7 L402.4,330.0 L402.5,330.5 L402.3,331.1 L401.5,331.7 L401.3,332.1 L401.9,332.8 L403.0,333.6 L403.7,334.4 L402.6,335.9 L402.1,337.0 L401.8,338.0 L402.1,338.5 L404.5,338.9 L405.0,339.2 L404.9,339.5 L404.3,340.1 L404.5,340.3 L404.4,341.2 L405.0,341.3 L405.7,341.0 L406.4,341.2 L408.6,342.9 L409.7,345.0 L408.9,345.4 L408.0,346.7 L407.4,347.0 L406.1,347.4 L405.1,347.4 L405.0,348.0 L404.8,348.0 L404.2,347.6 L402.9,348.0 L402.5,348.5 L402.3,349.0 L402.4,350.1 L402.7,351.3 L403.3,352.0 L404.2,352.4 L405.4,352.6 L406.5,353.4 L407.9,353.7 L408.0,354.2 L407.5,355.1 L408.1,356.0 L408.2,357.3 L408.5,357.7 L411.2,359.0 L412.0,360.0 L413.9,360.8 L413.9,361.2 L413.6,361.6 L413.0,362.4 L411.8,363.4 L412.0,364.3 L412.3,365.0 L412.3,365.4 L411.5,365.9 L410.7,366.8 L409.9,366.4 L407.7,367.0 L406.3,368.2 L405.1,368.3 L404.9,368.6 L405.3,368.9 L405.2,369.1 L404.2,369.4 L402.0,368.7 L400.9,368.6 L399.8,369.1 L398.8,369.1 L397.7,369.5 L396.8,370.2 L397.3,370.8 L397.8,371.1 L397.9,371.9 L398.3,372.3 L398.6,372.5 L399.7,372.6 L400.5,373.0 L400.7,373.9 L400.6,375.6 L401.2,376.2 L402.2,376.9 L404.3,377.7 L404.9,377.8 L406.9,377.6 L408.5,378.1 L409.0,378.5 L409.2,378.9 L408.9,379.7 L409.3,380.4 L409.6,381.4 L410.7,383.1 L408.5,382.9 L407.8,383.1 L407.2,383.6 L407.0,384.3 L407.3,384.9 L406.9,385.1 L405.8,386.4 L404.3,387.3 L403.9,387.7 L404.0,388.7 L404.7,389.5 L406.5,390.7 L405.4,391.1 L405.2,391.4 L404.9,392.7 L405.0,393.0 L406.0,394.0 L406.6,394.8 L407.7,395.6 L408.2,396.5 L408.5,396.7 L408.9,396.8 L410.0,396.7 L410.4,396.7 L413.4,397.8 L416.7,399.2 L418.5,399.6 L419.2,400.3 L420.7,400.3 L426.0,399.2 L426.9,399.2 L428.2,398.6 L429.1,398.7 L428.7,399.7 L429.1,400.3 L429.8,400.8 L430.2,401.5 L430.2,402.0 L429.1,402.9 L428.4,404.3 L426.1,405.8 L425.5,406.6 L424.1,407.6 L423.7,408.2 L423.8,409.0 L424.4,410.5 L423.6,410.7 L423.6,411.3 L423.2,411.4 L422.4,412.0 L422.1,411.6 L421.5,411.4 L420.9,411.6 L420.4,411.9 L420.2,412.6 L419.5,413.1 L419.1,413.8 L417.6,413.5 L416.9,413.6 L416.0,414.1 L416.1,414.5 L415.2,415.0 L415.0,414.7 L414.4,414.6 L413.6,414.7 L413.2,415.1 L412.9,416.2 L413.3,417.8 L412.8,418.0 L412.5,417.5 L411.7,417.4 L410.1,418.4 L409.9,418.0 L408.2,418.0 L407.8,418.2 L407.3,418.6 L407.2,419.1 L407.6,419.5 L406.7,420.3 L406.5,421.0 L405.9,421.4 L405.7,421.7 L405.0,421.7 L404.8,421.3 L404.6,421.7 L404.7,422.1 L404.3,422.2 L403.4,422.1 L402.3,422.3 L402.0,422.0 L401.5,421.9 L400.7,422.3 L400.8,423.1 L400.3,423.6 L400.3,424.1 L399.0,424.2 L398.6,424.9 L397.5,425.7 L396.6,426.1 L396.4,426.6 L397.1,426.7 L398.9,426.4 L399.6,426.5 L399.7,426.7 L399.3,427.2 L398.8,427.5 L398.7,428.0 L399.2,428.6 L397.9,429.3 L397.0,429.5 L396.7,429.5 L396.5,429.1 L394.9,429.2 L394.4,429.9 L393.8,430.2 L393.0,430.0 L390.6,430.3 L389.9,430.7 L389.5,431.2 L389.8,432.0 L388.8,432.0 L388.3,431.6 L386.9,431.2 L386.1,431.1 L384.2,431.5 L383.3,432.0 L383.0,432.6 L383.0,433.4 L383.5,433.5 L384.0,433.4 L383.8,433.7 L381.3,433.9 L381.0,433.8 L382.3,433.2 L382.2,432.6 L381.6,432.2 L379.1,432.4 L378.8,431.8 L377.0,431.7 L376.2,431.3 L376.5,430.7 L375.5,430.8 L374.6,431.1 L375.1,431.3 L375.5,432.0 L376.8,432.4 L376.4,432.7 L374.8,432.6 L374.4,432.7 L373.9,433.5 L372.7,433.2 L371.6,432.4 L372.7,431.8 L372.5,431.6 L371.6,431.3 L371.4,430.8 L370.3,430.8 L368.9,430.3 L368.7,429.6 L368.3,429.3 L367.0,429.1 L366.4,429.9 L365.1,429.6 L364.1,428.5 L363.7,428.3 L363.0,428.5 L359.7,428.3 L358.9,428.5 L358.2,428.2 L358.4,427.3 L358.9,426.5 L358.5,426.2 L358.0,424.6 L356.6,423.9 L354.9,424.8 L351.4,424.8 L349.5,424.8 L348.6,424.5 L348.0,423.8 L347.7,423.1 L348.4,422.3 L349.3,421.9 L352.0,421.9 L352.9,421.7 L354.1,420.8 L354.5,420.1 L354.4,419.4 L352.6,420.0 L351.8,419.9 L351.2,419.4 L350.8,418.5 L350.2,418.3 L349.2,418.3 L348.4,417.7 L348.2,417.9 L347.8,418.9 L348.0,419.5 L349.1,420.2 L349.5,421.0 L349.1,421.6 L348.4,422.0 L347.5,422.1 L347.0,422.0 L345.4,421.3 L344.2,421.8 L343.5,421.9 L343.2,422.1 L342.9,422.5 L343.4,423.2 L343.5,423.6 L344.5,423.6 L343.1,424.3 L343.0,423.8 L342.4,423.1 L341.2,422.6 L340.1,421.9 L339.6,421.1 L339.6,418.7 L339.1,417.7 L338.7,417.3 L338.2,417.0 L338.2,417.2 L339.2,418.6 L339.2,420.8 L339.6,421.9 L342.1,423.6 L342.0,424.2 L337.3,424.2 L335.0,423.8 L334.2,423.4 L334.2,422.9 L334.8,422.4 L334.9,422.0 L334.6,421.6 L333.9,421.2 L332.6,420.8 L329.4,421.1 L322.4,420.6 L320.9,419.9 L320.4,419.2 L320.9,418.5 L320.1,417.9 L318.3,417.8 L316.6,417.9 L315.4,418.3 L308.8,422.2 L305.2,423.3 L304.2,423.9 L301.9,426.2 L301.2,426.4 L300.0,426.0 L298.0,426.1 L295.9,426.8 L293.6,428.1 L292.9,428.8 L291.6,429.8 L290.9,430.7 L289.6,431.6 L288.3,434.0 L287.3,436.6 L287.4,436.9 L287.8,437.1 L287.8,437.7 L287.4,441.3 L287.3,442.5 L287.4,443.3 L287.3,444.6 L287.4,446.2 L287.7,448.5 L288.1,448.9 L290.3,449.4 L290.6,449.7 L290.5,450.4 L291.5,451.5 L291.7,452.3 L290.3,452.5 L288.8,452.4 L287.8,452.1 L287.0,451.3 L285.6,451.1 L285.1,451.4 L284.1,451.1 L283.1,451.7 L281.5,451.8 L279.6,452.9 L277.1,452.9 L276.6,453.1 L275.1,454.1 L275.7,455.1 L274.9,455.2 L272.8,454.7 L272.2,454.7 L272.0,454.9 L271.7,455.4 L271.2,455.6 L269.7,455.1 L269.1,454.7 L268.6,454.3 L268.4,453.8 L266.9,453.6 L263.9,452.4 L262.9,452.5 L261.1,452.9 L259.6,452.8 L259.1,452.9 L258.6,453.7 L257.0,454.7 L255.3,454.8 L254.3,454.3 L253.6,452.7 L253.2,452.1 L251.4,451.8 L249.0,450.8 L246.6,450.4 L246.4,450.1 L246.5,449.3 L246.8,448.7 L247.4,448.3 L248.2,448.2 L247.8,447.8 L246.6,447.4 L246.9,446.8 L243.4,446.6 L241.4,445.6 L240.0,445.9 L239.0,445.9 L238.5,447.1 L237.9,447.3 L237.4,446.8 L236.9,445.8 L235.8,444.5 L235.1,444.2 L235.2,443.8 L234.5,443.6 L230.7,443.6 L229.3,443.8 L228.8,443.6 L228.0,442.2 L227.4,441.9 L226.8,441.7 L224.1,441.6 L223.1,441.1 L222.2,441.5 L221.2,440.9 L218.9,440.0 L217.8,440.0 L215.7,439.5 L214.1,439.8 L214.0,440.2 L214.0,440.9 L213.6,441.8 L213.9,442.1 L213.4,442.7 L213.8,442.8 L214.2,443.1 L214.4,443.6 L214.4,444.1 L214.1,444.4 L213.7,444.5 L212.6,444.4 L208.8,444.5 L208.3,444.3 L206.5,444.6 L205.9,444.5 L205.7,444.0 L204.8,443.5 L204.3,443.7 L202.9,445.0 L202.4,445.0 L201.3,443.7 L199.2,443.2 L198.7,443.3 L198.1,443.6 L196.2,443.8 L193.8,444.4 L192.8,444.5 L191.5,444.2 L191.0,443.7 L190.3,443.5 L190.2,443.1 L189.5,442.6 L189.1,442.2 L188.9,441.7 L189.0,441.1 L187.6,441.5 L186.7,441.4 L186.4,440.8 L184.0,439.7 L183.7,440.2 L183.4,440.3 L183.2,440.1 L180.9,441.3 L180.0,441.3 L178.3,440.8 L177.6,440.7 L177.5,441.5 L176.5,441.8 L176.2,441.7 L176.2,441.3 L176.0,441.1 L175.2,441.0 L175.2,440.6 L174.0,439.5 L172.4,438.6 L171.5,438.6 L171.2,438.4 L171.0,438.1 L171.2,437.6 L170.6,436.5 L169.8,436.3 L167.4,436.6 L165.0,436.4 L163.8,436.2 L162.4,435.2 L160.8,435.0 L159.8,434.6 L158.6,434.7 L156.6,433.6 L154.8,433.4 L154.2,433.1 L153.7,432.7 L153.6,432.3 L153.8,431.9 L154.4,431.5 L153.8,431.3 L153.1,431.5 L152.5,432.0 L152.2,433.4 L152.0,433.8 L151.5,433.9 L150.6,433.9 L149.2,433.5 L148.6,433.0 L148.2,432.3 L150.2,430.7 L150.6,429.7 L151.0,428.5 L150.8,427.4 L150.0,426.7 L148.9,426.8 L147.6,426.3 L146.1,426.1 L145.6,426.3 L145.2,427.1 L144.9,427.2 L144.1,427.2 L143.6,427.0 L143.3,426.2 L143.4,425.9 L143.1,425.7 L142.3,425.5 L140.3,425.9 L140.0,425.1 L139.6,424.7 L138.8,424.4 L138.8,423.3 L138.8,423.0 L139.4,423.3 L139.6,423.1 L140.2,422.9 L142.9,422.6 L143.6,421.8 L144.9,421.2 L146.0,419.7 L148.6,417.0 L148.8,416.1 L149.5,414.3 L150.8,409.3 L151.5,407.5 L152.6,403.5 L154.6,394.8 L155.4,390.5 L155.6,388.6 L155.3,387.0 L156.1,386.2 L156.9,384.2 L157.5,383.7 L158.3,383.7 L160.2,384.0 L161.2,383.9 L161.9,383.6 L161.9,383.1 L161.1,382.5 L161.5,382.5 L161.2,382.1 L158.9,380.5 L157.9,380.2 L156.1,382.4 L155.7,383.8 L155.2,384.8 L157.1,369.7 L158.4,364.8 L158.9,358.3 L159.1,357.9 L160.6,355.9 L161.1,355.8 L161.4,355.9 L161.5,356.6 L161.3,357.0 L162.0,357.8 L164.1,358.9 L165.8,359.6 L169.6,362.5 L170.4,363.4 L171.3,366.1 L172.0,369.3 L173.0,371.0 L174.0,372.0 L175.2,372.8 L176.5,373.5 L176.8,374.1 L176.7,374.6 L176.9,375.9 L177.1,376.4 L177.5,376.6 L177.1,374.9 L177.4,374.1 L177.0,373.5 L175.6,372.6 L177.4,372.8 L178.8,373.5 L178.0,372.5 L175.5,371.8 L174.4,371.2 L173.8,370.4 L173.4,369.4 L172.2,363.5 L171.8,362.3 L170.8,360.4 L169.5,358.7 L168.1,357.6 L163.7,355.4 L163.5,354.7 L162.3,354.3 L160.7,353.1 L158.6,352.5 L157.3,351.6 L156.2,351.7 L155.6,351.6 L156.2,349.1 L158.2,348.6 L158.8,348.6 L160.8,350.3 L161.5,350.7 L163.6,351.4 L162.9,350.8 L160.2,349.3 L159.4,348.6 L159.0,347.5 L158.6,346.7 L159.8,345.9 L160.3,345.7 L161.0,345.6 L161.1,344.9 L160.5,344.2 L161.1,343.8 L160.6,343.5 L160.3,343.1 L159.8,342.1 L160.5,342.4 L161.0,342.5 L161.4,342.2 L161.7,341.5 L161.2,341.1 L160.6,340.9 L160.3,339.6 L159.3,339.1 L159.6,338.7 L158.6,338.3 L158.6,337.9 L157.1,337.8 L156.8,337.6 L156.8,337.3 L157.0,337.0 L157.5,336.6 L157.4,336.0 L157.7,335.6 L159.8,334.7 L160.1,334.3 L159.8,333.4 L159.2,332.7 L157.8,332.7 L156.7,333.1 L156.7,334.1 L155.9,333.9 L154.7,332.9 L153.9,332.7 L151.9,331.8 L150.2,332.2 L149.5,332.1 L148.9,330.7 L148.4,330.1 L147.7,329.8 L144.8,329.6 L144.0,329.4 L144.3,329.1 L143.8,328.7 L142.1,328.5 L141.1,327.9 L139.9,327.6 L139.0,326.3 L139.2,327.5 L139.1,327.6 L138.8,327.5 L138.5,327.2 L137.8,325.0 L138.0,324.4 L137.5,324.3 L136.9,323.2 L135.6,322.2 L135.3,321.4 L134.9,321.2 L133.9,321.0 L132.7,319.6 L131.0,318.3 L128.9,317.5 L128.5,316.4 L128.6,315.2 L128.8,314.9 L129.6,314.5 L129.4,314.1 L131.0,313.3 L132.3,311.2 L132.8,310.9 L132.7,310.4 L132.4,309.8 L131.6,309.1 L129.7,308.4 L126.2,308.0 L125.1,307.6 L126.2,307.0 L127.4,306.8 L127.6,305.7 L127.3,305.2 L127.2,304.7 L127.6,303.6 L127.9,303.4 L128.6,303.2 L131.4,303.0 L132.1,302.7 L132.5,303.1 L134.1,303.4 L134.6,303.4 L134.4,303.2 L135.1,303.2 L135.6,303.6 L135.0,303.6 L135.0,303.8 L136.3,304.4 L137.5,304.6 L138.5,305.2 L139.2,305.4 L140.9,305.5 L140.3,305.2 L139.0,305.0 L137.6,304.0 L135.4,302.9 L134.1,302.7 L133.4,302.4 L132.2,302.1 L128.0,302.3 L127.0,302.7 L126.2,303.6 L125.3,303.7 L124.5,304.2 L124.0,304.4 L122.8,304.2 L121.6,303.4 L121.1,303.2 L120.1,303.2 L119.8,303.3 L119.6,303.8 L118.7,303.8 L115.9,302.7 L115.9,302.5 L116.6,302.6 L117.9,303.0 L118.6,303.0 L119.1,302.5 L118.8,302.1 L117.8,301.3 L117.3,301.5 L117.5,301.8 L117.3,302.1 L117.1,302.1 L117.1,301.2 L116.7,300.8 L115.4,300.2 L117.9,299.2 L119.0,299.4 L118.8,299.6 L119.0,299.8 L120.4,299.2 L120.5,298.9 L118.7,298.7 L119.0,298.3 L117.5,297.9 L117.8,297.3 L117.3,296.9 L117.7,296.7 L121.3,296.4 L120.8,296.3 L119.4,296.4 L116.6,295.7 L115.2,296.0 L114.1,296.0 L113.4,296.2 L113.1,296.0 L114.1,295.7 L114.6,295.4 L114.8,294.9 L114.3,295.3 L112.9,295.4 L113.3,295.5 L113.5,295.8 L112.8,295.8 L112.1,295.6 L112.0,296.3 L111.6,296.5 L110.6,296.2 L108.5,296.6 L107.4,296.6 L106.6,296.2 L105.8,295.3 L105.1,295.1 L105.1,294.9 L104.6,294.8 L105.1,294.6 L105.9,294.6 L106.4,295.2 L106.9,294.9 L107.4,295.2 L107.6,294.5 L108.1,294.9 L108.9,295.1 L109.7,295.0 L110.4,294.7 L110.2,294.5 L111.4,293.4 L111.5,292.8 L110.8,292.2 L110.8,292.4 L111.1,292.6 L111.1,292.8 L110.6,293.0 L111.0,293.2 L110.7,293.5 L110.4,293.5 L108.7,292.6 L110.0,292.8 L109.6,292.5 L108.3,292.2 L108.7,292.4 L108.1,292.6 L106.5,292.7 L105.9,293.3 L104.3,293.7 L104.3,293.5 L104.5,293.5 L104.5,293.2 L103.6,293.5 L103.5,292.8 L103.9,292.4 L103.1,292.2 L102.8,291.6 L102.6,291.6 L102.9,293.4 L103.9,294.3 L103.6,294.7 L103.2,294.3 L103.0,294.4 L102.0,293.7 L102.1,294.1 L102.0,294.3 L101.7,294.2 L101.4,293.3 L101.2,293.4 L101.1,293.7 L101.3,294.1 L100.5,293.9 L99.5,294.3 L99.0,294.3 L98.6,294.1 L99.0,293.9 L98.4,293.6 L98.0,293.6 L97.8,293.9 L98.2,294.1 L97.8,295.1 L98.0,296.0 L98.5,296.7 L99.2,297.3 L98.1,297.1 L97.8,297.3 L97.3,296.1 L97.8,294.8 L97.5,293.6 L96.7,292.8 L95.8,292.5 L95.6,292.3 L96.1,291.1 L98.4,290.3 L98.2,290.0 L98.2,289.5 L97.5,289.7 L97.5,288.8 L97.3,288.8 L97.1,289.2 L96.3,289.0 L95.9,289.0 L96.6,289.4 L96.9,290.1 L96.7,290.3 L96.3,290.1 L95.9,290.5 L95.4,290.5 L95.9,291.0 L95.4,291.1 L95.2,291.7 L94.9,291.8 L93.7,291.0 L91.6,290.6 L90.8,290.5 L91.3,290.4 L91.9,290.4 L93.1,290.7 L93.1,290.5 L92.6,290.3 L90.8,290.1 L90.8,289.9 L91.2,289.8 L91.3,289.2 L92.1,289.3 L92.7,288.2 L93.1,288.0 L93.1,287.8 L91.6,288.8 L90.0,289.3 L90.5,289.5 L90.6,289.9 L88.1,290.3 L87.6,290.2 L86.6,289.3 L85.6,288.0 L85.2,288.2 L82.6,288.0 L81.9,287.6 L80.7,287.6 L80.1,287.5 L79.8,287.1 L79.6,287.0 L78.0,287.6 L77.5,287.3 L75.6,287.4 L75.0,286.5 L74.6,286.2 L74.5,286.1 L74.6,285.7 L73.7,285.5 L73.6,285.1 L73.1,284.7 L72.3,284.3 L71.4,284.2 L71.7,284.8 L71.5,285.3 L70.8,285.8 L70.2,285.7 L70.7,285.7 L71.0,285.3 L70.1,285.4 L70.0,285.7 L69.1,285.2 L67.8,284.9 L67.1,284.1 L67.0,283.6 L66.7,283.9 L66.9,284.4 L67.7,285.1 L67.7,285.3 L67.0,285.4 L66.4,285.7 L65.8,285.0 L65.4,285.1 L65.3,285.5 L65.7,285.7 L65.5,286.1 L66.4,286.1 L66.4,286.3 L65.4,287.0 L64.2,287.3 L59.7,287.2 L59.7,286.3 L60.4,286.2 L60.5,286.0 L60.4,285.5 L59.7,283.8 L57.7,282.0 L54.7,280.4 L53.5,281.1 L52.6,280.5 L51.0,280.4 L48.7,280.0 L49.1,279.7 L49.6,278.9 L50.1,279.2 L60.0,277.7 L61.7,278.0 L62.2,277.9 L62.3,277.7 L62.6,276.8 L62.5,276.5 L62.0,276.1 L61.8,275.2 L61.4,274.9 L59.8,274.6 L59.4,274.1 L58.7,274.3 L57.0,273.6 L56.2,273.8 L54.7,275.6 L54.0,275.8 L54.4,274.9 L53.8,274.1 L53.9,273.7 L54.3,273.5 L54.1,273.2 L51.8,273.1 L51.8,272.4 L52.2,272.3 L53.0,272.4 L53.4,272.3 L53.5,272.1 L53.3,271.8 L53.9,270.8 L54.3,270.6 L54.8,270.7 L54.4,271.9 L55.2,272.2 L58.0,272.0 L59.1,272.4 L61.0,272.1 L63.0,272.0 L62.6,272.2 L62.2,272.2 L62.8,272.4 L65.3,272.0 L65.3,271.8 L64.4,271.8 L64.0,271.7 L63.9,271.4 L63.6,271.6 L63.2,271.7 L62.8,271.6 L62.6,271.3 L61.1,271.4 L62.8,270.1 L62.3,270.1 L61.1,270.5 L61.1,270.3 L61.3,270.3 L61.3,270.1 L61.1,270.1 L60.7,270.5 L60.2,270.4 L59.3,270.9 L58.6,270.9 L58.8,270.7 L58.6,270.5 L58.0,270.8 L57.1,270.9 L57.1,270.7 L58.9,269.3 L62.2,268.0 L60.1,268.6 L58.0,268.8 L55.1,269.9 L53.6,270.2 L52.7,270.5 L52.1,270.5 L49.9,270.1 L49.7,270.6 L49.4,270.7 L47.5,270.6 L47.2,270.3 L47.0,269.7 L47.6,269.6 L47.5,269.2 L47.0,268.4 L47.0,267.8 L47.1,267.3 L47.5,266.8 L48.1,266.7 L48.1,266.5 L47.3,266.2 L47.6,265.3 L48.9,263.8 L49.6,264.0 L49.3,263.8 L49.8,263.6 L51.3,263.4 L53.0,263.9 L53.3,263.8 L52.6,263.1 L52.4,262.7 L52.8,262.5 L54.8,262.8 L54.0,262.5 L54.1,262.3 L53.8,262.1 L53.8,261.9 L56.2,261.9 L57.9,261.5 L58.6,261.5 L58.0,261.3 L58.0,261.0 L58.9,260.9 L60.5,260.4 L61.3,260.4 L61.9,260.9 L61.7,261.5 L62.4,261.5 L63.6,261.0 L65.1,261.3 L65.1,261.0 L64.5,260.9 L64.7,260.6 L65.7,260.0 L67.0,259.8 L67.7,259.8 L68.3,260.0 L68.6,259.8 L68.9,260.2 L69.1,260.2 L69.4,259.9 L69.3,259.4 L71.9,258.7 L72.1,258.8 L71.9,259.5 L72.3,259.6 L72.3,259.8 L72.1,259.8 L72.1,260.0 L72.6,260.4 L72.6,260.7 L72.5,261.0 L73.8,260.3 L74.4,260.4 L74.0,260.6 L74.0,260.8 L75.6,261.9 L75.9,261.7 L75.6,261.5 L75.9,261.3 L75.4,260.2 L75.6,260.2 L76.1,260.6 L76.1,259.5 L76.3,259.2 L76.7,259.4 L76.9,259.1 L76.9,258.7 L77.3,259.1 L77.9,259.2 L79.3,259.2 L80.7,259.8 L82.2,259.6 L82.2,260.1 L83.8,260.3 L84.3,260.1 L83.8,258.9 L84.0,258.7 L85.6,258.5 L85.1,258.3 L84.1,257.5 L83.9,257.0 L84.2,256.7 L85.1,256.4 L86.0,255.4 L87.4,255.6 L88.5,256.0 L88.9,256.0 L88.5,256.4 L89.6,256.4 L90.4,256.0 L93.3,255.2 L93.8,255.2 L94.7,254.4 L95.2,254.5 L95.4,255.0 L95.4,255.6 L95.2,256.1 L94.8,256.4 L95.0,256.8 L95.4,256.2 L97.3,254.8 L97.7,254.8 L98.2,254.4 L98.6,254.3 L99.0,254.5 L99.2,254.8 L99.2,255.1 L99.0,255.6 L99.4,255.8 L98.8,256.8 L97.9,257.7 L97.9,257.9 L98.2,257.9 L99.2,256.5 L99.8,255.9 L100.3,256.0 L100.9,255.8 L101.5,256.0 L101.3,256.2 L101.5,256.2 L101.5,256.4 L100.5,256.8 L100.5,257.0 L101.7,257.5 L103.2,257.5 L103.9,257.7 L103.9,258.3 L103.4,258.5 L103.4,258.7 L104.4,259.2 L105.1,259.9 L107.1,261.0 L107.6,262.4 L107.4,262.7 L107.5,262.9 L108.8,263.5 L110.6,264.0 L110.4,264.5 L110.0,264.8 L110.6,265.0 L111.6,265.6 L111.7,264.6 L113.0,264.7 L113.5,264.5 L115.0,263.2 L118.0,262.0 L118.4,261.7 L118.4,261.5 L117.5,261.3 L118.9,261.0 L119.6,261.1 L119.9,261.5 L120.7,261.3 L122.4,260.3 L122.8,259.8 L123.1,260.4 L123.9,260.4 L123.9,260.6 L122.4,261.9 L122.9,262.2 L124.1,261.5 L124.8,261.3 L125.2,262.3 L125.6,262.4 L125.8,262.7 L126.0,263.4 L126.5,263.0 L126.6,262.3 L126.9,263.2 L127.2,263.3 L127.6,263.2 L127.6,263.0 L127.2,262.8 L127.6,262.4 L127.9,262.2 L128.3,262.3 L128.7,262.5 L128.1,261.7 L129.4,261.4 L130.9,261.3 L131.6,262.2 L131.8,262.8 L132.5,263.2 L132.3,263.6 L133.1,264.4 L133.2,264.8 L133.1,265.5 L134.4,264.8 L133.5,264.4 L133.7,264.2 L133.2,263.6 L133.1,263.2 L133.3,263.2 L134.0,263.6 L133.5,263.0 L132.8,263.0 L132.5,262.8 L131.6,261.5 L132.0,261.0 L132.9,260.5 L132.9,260.1 L134.4,260.0 L134.2,259.8 L137.3,259.4 L137.2,259.6 L137.5,260.0 L136.8,260.8 L136.8,261.6 L137.5,262.1 L138.8,262.3 L141.0,262.3 L143.5,262.1 L145.4,261.5 L147.9,261.7 L151.2,261.2 L152.3,261.5 L151.8,260.9 L151.1,260.7 L149.9,260.6 L149.6,260.9 L149.2,260.2 L147.8,259.9 L147.4,259.0 L146.2,258.3 L146.0,257.6 L145.8,256.0 L145.5,255.5 L144.7,255.4 L144.7,255.2 L145.5,254.7 L145.7,254.4 L145.9,252.9 L146.1,252.6 L146.4,252.9 L146.6,252.5 L146.6,252.2 L146.4,252.1 L146.1,252.0 L145.9,251.8 L146.5,249.6 L146.9,249.4 L147.6,249.7 L147.6,249.5 L147.0,249.3 L146.3,249.3 L145.8,249.5 L145.4,250.1 L145.0,249.6 L144.9,248.6 L145.1,248.0 L144.7,247.9 L144.5,247.7 L144.6,247.4 L144.9,246.6 L145.7,246.1 L145.4,245.9 L145.1,246.1 L144.7,245.0 L144.5,243.9 L144.7,243.6 L146.4,243.8 L146.4,243.6 L144.9,243.2 L144.3,243.2 L144.0,243.8 L143.6,243.4 L143.1,242.3 L142.6,241.9 L143.0,241.7 L141.8,240.9 L141.5,240.4 L142.2,240.4 L142.2,240.2 L141.8,239.6 L141.5,239.6 L141.3,240.1 L139.4,239.2 L139.6,238.7 L138.5,238.9 L138.2,238.7 L138.1,236.6 L137.5,235.9 L137.3,235.4 L136.1,234.2 L136.3,233.8 L137.1,233.3 L137.3,233.0 L137.4,231.5 L136.8,230.4 L136.5,230.2 L134.2,229.7 L134.5,228.3 L135.3,228.2 L136.6,228.6 L137.4,228.5 L137.9,228.8 L138.2,229.3 L141.5,229.6 L143.8,230.1 L144.3,230.1 L144.4,230.5 L144.6,230.6 L145.6,230.1 L146.6,230.3 L147.5,230.2 L149.2,229.0 L150.7,228.7 L151.2,228.6 L155.2,229.2 L155.4,229.9 L156.1,230.8 L156.2,231.4 L155.5,231.7 L155.1,232.4 L154.4,232.4 L154.0,232.7 L153.8,233.4 L154.7,234.5 L155.2,235.4 L157.5,237.3 L157.8,237.8 L157.9,238.4 L157.5,239.3 L157.6,239.6 L158.6,239.4 L159.5,239.9 L160.1,239.8 L160.1,239.6 L159.7,239.3 L160.0,238.9 L160.5,238.5 L161.0,238.3 L165.1,238.5 L168.7,239.4 L174.0,239.6 L176.0,239.9 L177.2,239.5 L179.2,240.0 L181.3,240.0 L182.8,240.5 L184.3,240.8 L187.2,241.9 L188.0,241.5 L192.9,240.7 L194.3,240.2 L195.2,239.8 L195.9,239.6 L196.9,238.7 L198.9,237.8 L206.6,236.6 L208.0,236.2 L209.1,235.4 L206.9,236.3 L204.4,236.5 L201.8,236.3 L199.6,235.8 L198.5,235.7 L197.2,235.4 L196.8,234.9 L196.4,234.7 L196.3,234.1 L198.0,232.0 L199.2,229.3 L201.2,228.1 L201.5,228.1 L201.8,227.9 L205.9,226.7 L206.2,226.4 L212.3,224.2 L214.7,223.6 L217.3,223.6 L230.0,221.0 L230.7,220.6 L231.5,220.4 L232.7,219.6 L236.7,217.5 L238.7,216.0 L238.9,215.7 L239.6,214.1 L240.7,213.2 L241.7,213.1 L244.8,214.1 L245.3,213.9 L245.3,213.7 L244.8,213.6 L244.5,213.3 L245.1,213.3 L245.1,213.1 L243.9,212.9 L243.4,212.7 L242.9,211.9 L241.6,211.5 L241.3,211.3 L241.6,209.1 L242.2,208.3 L243.4,208.4 L243.4,208.2 L241.7,207.4 L242.3,206.1 L242.5,203.4 L243.4,203.0 L242.6,202.1 L242.4,201.7 L242.3,200.3 L242.0,199.0 L242.1,197.8 L243.1,196.1 L243.3,195.5 L242.6,193.7 L242.5,193.1 L243.3,192.7 L244.7,192.5 L246.1,191.4 L247.1,190.8 L253.0,189.2 L253.5,189.3 L254.6,188.9 L259.5,188.5 L265.1,187.3 L267.2,187.4 L269.7,187.0 L271.4,186.4 Z" fill="#faf5ef" stroke="#8B1A2B" stroke-width="1.3" stroke-linejoin="round"/>
    <path d="M156.5,344.2 L156.3,344.7 L157.5,345.3 L157.8,345.8 L157.6,347.1 L157.3,347.9 L156.8,348.4 L156.3,348.2 L155.8,347.1 L155.2,346.3 L153.4,344.9 L152.8,344.6 L151.6,343.4 L151.8,342.8 L150.8,341.0 L151.7,341.1 L152.8,341.5 L154.8,342.8 L155.6,342.6 L156.1,342.9 L156.2,344.0 L156.5,344.2 Z" fill="#faf5ef" stroke="#8B1A2B" stroke-width="1.3" stroke-linejoin="round"/>
    <path d="M457.1,459.1 L457.3,458.8 L456.5,458.4 L456.6,458.1 L457.7,458.1 L458.5,457.7 L459.7,457.6 L460.8,457.2 L460.9,456.9 L459.2,456.2 L458.9,455.8 L458.3,456.0 L458.1,455.7 L459.2,455.1 L458.5,454.7 L457.9,454.8 L456.7,455.1 L456.9,454.9 L456.6,454.3 L456.6,454.0 L456.7,453.7 L457.2,453.8 L457.7,453.5 L458.1,453.6 L458.4,453.0 L458.7,452.7 L459.7,452.6 L460.0,452.4 L460.0,451.7 L460.5,451.0 L459.9,450.8 L460.2,449.9 L460.6,449.5 L461.7,449.3 L461.5,449.0 L461.7,448.3 L461.5,447.8 L461.8,447.9 L461.9,448.2 L462.4,448.0 L463.4,448.4 L463.9,448.3 L464.5,447.6 L464.7,447.1 L464.4,446.9 L465.6,446.9 L467.6,446.1 L471.0,445.6 L472.0,445.2 L472.1,444.6 L474.0,443.1 L475.5,443.0 L477.7,443.4 L478.6,443.8 L479.2,444.8 L479.4,444.8 L480.5,443.4 L480.9,442.5 L480.7,441.9 L480.9,441.3 L480.7,440.7 L479.8,439.8 L480.7,438.9 L480.4,438.4 L480.6,437.8 L481.5,437.0 L481.4,436.8 L481.5,436.4 L481.2,436.2 L481.0,435.7 L480.9,435.1 L481.1,434.7 L481.6,434.5 L482.8,434.5 L483.4,434.3 L483.8,434.7 L484.7,435.1 L484.4,435.9 L484.9,436.6 L484.7,437.2 L485.3,440.0 L485.3,440.9 L484.3,443.8 L484.3,445.5 L484.0,445.9 L484.4,446.1 L484.6,446.5 L484.4,446.9 L484.7,447.1 L485.1,447.8 L486.1,448.2 L486.1,447.7 L485.5,446.7 L486.4,447.7 L486.6,448.2 L486.8,448.8 L486.8,451.5 L487.2,452.2 L486.9,453.0 L486.8,454.1 L487.6,456.5 L487.4,460.3 L487.6,461.1 L487.4,462.1 L487.2,462.4 L486.4,462.9 L485.6,464.1 L482.8,467.0 L482.5,470.2 L482.8,472.3 L482.8,474.6 L481.9,475.3 L481.7,475.6 L482.1,475.6 L482.0,476.1 L481.9,476.5 L481.6,476.6 L481.0,476.6 L480.9,476.8 L481.1,477.2 L480.2,477.0 L479.4,477.0 L479.5,477.3 L479.0,477.9 L479.4,478.1 L481.0,477.7 L481.3,478.0 L481.2,478.4 L480.9,478.8 L480.5,479.0 L479.6,479.3 L479.1,479.9 L478.6,480.0 L478.7,480.4 L478.6,480.8 L478.9,480.9 L479.0,481.2 L478.6,481.6 L478.7,481.9 L477.4,482.5 L476.9,482.5 L476.9,482.7 L477.3,483.1 L476.9,483.6 L476.9,483.8 L478.1,483.1 L477.8,484.1 L477.3,484.8 L476.8,485.0 L476.4,484.9 L475.6,484.4 L473.4,483.9 L473.7,483.1 L474.2,482.9 L472.5,482.1 L472.9,481.6 L472.9,481.5 L471.6,482.1 L471.4,481.9 L471.6,481.6 L471.0,481.9 L470.5,481.4 L468.9,481.2 L468.5,481.2 L467.6,480.7 L466.9,480.6 L466.5,480.2 L465.5,480.0 L465.9,479.8 L465.9,479.6 L464.6,479.3 L464.0,479.0 L464.2,478.4 L464.1,478.2 L463.6,478.1 L464.3,476.6 L464.9,476.8 L466.5,476.3 L466.8,476.1 L466.9,475.7 L468.1,474.9 L463.9,474.4 L463.5,474.1 L463.8,473.5 L463.1,473.5 L461.8,473.8 L461.1,473.9 L461.3,473.5 L459.8,473.2 L461.1,473.0 L461.7,472.6 L461.9,472.2 L461.8,472.0 L461.5,471.8 L461.5,471.6 L462.8,471.4 L463.8,470.9 L463.4,470.5 L462.8,470.3 L464.0,469.9 L463.7,469.4 L463.6,469.5 L464.4,468.4 L464.0,468.2 L463.7,467.7 L463.2,467.6 L462.6,467.6 L460.9,468.2 L459.1,468.4 L458.6,468.6 L458.4,468.2 L458.7,467.7 L458.6,467.3 L457.7,466.5 L459.2,466.4 L459.8,466.2 L460.3,465.7 L459.9,465.5 L460.1,465.1 L460.7,464.8 L462.5,464.2 L462.6,463.8 L461.9,463.3 L461.2,462.2 L460.0,462.3 L459.6,461.8 L459.0,461.6 L457.7,461.5 L457.9,461.1 L457.5,460.8 L456.9,460.8 L457.9,460.4 L457.9,460.2 L457.1,460.2 L457.1,460.0 L457.5,459.9 L457.6,459.6 L457.5,459.3 L457.1,459.1 Z" fill="#faf5ef" stroke="#8B1A2B" stroke-width="1.3" stroke-linejoin="round"/>
  </g>

  <!-- Wine regions (filled department areas) -->
  <g>
    <path class="region-area" d="M337.4,265.7 L336.4,267.1 L337.7,267.9 L338.8,269.0 L340.0,269.5 L340.6,270.2 L342.1,270.7 L342.0,271.6 L342.8,272.3 L343.3,275.4 L342.8,276.0 L342.3,277.8 L341.8,278.0 L340.1,277.7 L339.1,277.8 L338.7,278.1 L338.2,278.8 L338.9,279.9 L338.3,280.6 L337.1,281.0 L335.6,280.8 L334.7,280.9 L334.1,281.3 L334.0,282.0 L333.5,282.3 L326.8,282.9 L325.7,283.6 L324.7,283.3 L323.5,282.1 L323.1,283.1 L321.8,282.7 L320.7,283.3 L318.9,283.1 L318.0,283.6 L316.5,283.4 L314.5,283.4 L313.9,282.8 L313.9,282.0 L313.7,281.7 L312.5,281.8 L311.7,281.4 L311.6,281.2 L312.3,281.0 L312.5,280.8 L310.2,278.0 L309.2,277.3 L308.6,276.4 L307.9,276.3 L307.5,276.8 L306.6,276.8 L304.0,275.7 L304.9,274.6 L304.5,273.0 L301.8,270.6 L300.3,269.9 L299.1,269.9 L298.8,268.9 L298.1,268.3 L298.4,267.4 L298.1,266.7 L299.0,265.9 L298.6,265.1 L300.3,264.7 L301.3,263.2 L302.6,262.4 L301.7,261.5 L300.2,261.5 L300.1,260.9 L300.3,260.2 L300.0,259.0 L299.0,258.2 L298.3,258.1 L298.4,257.6 L299.2,257.0 L298.6,256.4 L298.7,256.3 L300.4,256.1 L300.7,255.8 L300.8,255.1 L299.5,255.2 L297.9,254.5 L297.3,253.0 L295.9,253.0 L291.3,250.2 L291.2,249.8 L291.5,249.1 L291.0,248.1 L290.4,247.7 L288.6,247.3 L289.9,246.2 L290.1,245.7 L289.7,245.0 L288.2,244.5 L285.7,244.8 L285.2,244.4 L285.0,243.6 L286.3,243.0 L286.7,242.4 L286.4,241.8 L285.0,240.7 L285.9,240.2 L287.4,240.1 L288.3,239.7 L289.2,237.7 L289.8,237.3 L290.9,237.6 L291.3,237.1 L291.1,236.4 L290.3,236.0 L289.9,235.4 L290.2,232.7 L289.4,231.3 L289.8,229.1 L289.3,227.4 L289.0,226.9 L287.9,226.6 L287.9,226.3 L288.7,225.5 L288.7,224.1 L289.7,223.4 L290.8,221.6 L292.0,220.6 L290.9,219.2 L293.1,218.9 L295.8,219.2 L297.2,218.8 L300.4,219.3 L303.2,218.3 L305.0,218.7 L307.5,218.0 L312.3,218.5 L313.6,219.2 L315.1,218.6 L316.1,218.5 L316.4,218.9 L316.4,219.8 L316.7,220.0 L319.3,220.7 L320.9,220.6 L322.6,221.2 L323.5,221.2 L323.5,222.4 L324.5,223.8 L324.4,224.3 L323.5,225.5 L323.3,226.6 L323.8,227.1 L324.0,227.9 L323.6,228.4 L321.2,229.8 L320.4,230.6 L318.8,230.9 L318.3,231.3 L319.1,233.1 L318.8,233.6 L319.0,234.5 L318.3,235.0 L318.2,235.5 L319.0,236.8 L318.2,237.0 L317.9,237.4 L318.3,237.6 L318.5,238.0 L322.9,238.4 L327.1,240.7 L328.3,240.7 L329.5,241.9 L330.6,242.0 L334.6,241.8 L336.4,243.3 L339.0,242.8 L342.5,243.3 L344.7,242.7 L345.7,242.7 L346.9,243.3 L346.9,244.1 L346.3,244.9 L346.2,245.4 L347.1,247.4 L347.3,249.4 L348.4,249.9 L348.6,250.3 L348.2,250.8 L348.1,251.9 L347.8,252.5 L345.9,253.1 L345.4,253.7 L345.1,254.6 L345.4,255.7 L344.7,256.5 L344.9,257.0 L347.0,258.2 L347.4,259.1 L347.3,260.0 L343.5,259.9 L341.5,260.4 L340.6,261.5 L342.6,261.4 L343.1,262.4 L340.7,263.0 L340.4,263.6 L341.0,264.7 L337.4,264.9 L337.4,265.7 Z" fill="rgba(139,26,43,0.15)" stroke="rgba(139,26,43,0.4)" stroke-width="0.5"/>
    <path class="region-area" d="M428.8,249.4 L430.0,249.2 L431.3,249.4 L432.8,249.0 L435.3,249.5 L437.6,249.5 L442.5,251.2 L445.9,251.8 L444.3,253.5 L442.5,256.4 L440.9,257.0 L440.2,257.8 L438.8,258.0 L438.5,259.1 L436.5,260.5 L435.2,261.0 L433.9,262.3 L433.6,264.4 L434.0,265.3 L432.8,265.9 L431.7,268.8 L432.0,270.8 L431.6,271.2 L430.6,271.7 L430.1,273.5 L427.8,275.7 L427.6,276.6 L426.9,277.5 L425.7,277.5 L425.1,277.3 L424.8,276.6 L423.4,276.3 L423.6,275.2 L423.3,274.9 L418.3,273.3 L417.9,272.2 L415.4,271.9 L415.4,271.6 L414.8,271.1 L413.1,271.0 L412.4,270.7 L412.2,270.4 L412.6,269.3 L412.9,266.4 L413.6,265.9 L411.7,265.2 L414.9,264.9 L415.6,264.2 L417.1,263.6 L418.2,261.1 L417.2,260.6 L417.1,260.2 L418.6,258.5 L418.7,258.0 L418.3,257.4 L416.6,256.1 L415.6,255.8 L415.6,255.2 L415.3,255.0 L414.9,255.2 L414.6,255.9 L413.5,256.3 L412.7,257.0 L412.2,256.9 L411.3,255.9 L411.9,254.9 L409.0,253.9 L408.3,253.1 L408.7,252.2 L410.3,251.2 L410.4,250.5 L411.5,249.4 L411.4,248.9 L411.6,248.5 L412.6,248.8 L413.1,249.9 L413.5,250.2 L417.7,251.2 L418.3,251.9 L419.5,252.3 L424.1,251.8 L425.7,252.4 L426.3,252.4 L427.1,251.7 L428.8,249.4 Z" fill="rgba(139,26,43,0.15)" stroke="rgba(139,26,43,0.4)" stroke-width="0.5"/>
    <path class="region-area" d="M250.0,306.8 L250.5,306.1 L250.4,305.2 L246.9,303.1 L245.3,303.6 L243.2,303.2 L242.9,304.0 L241.5,304.0 L241.0,304.4 L240.8,305.0 L239.2,304.7 L237.7,305.0 L234.7,306.2 L235.6,307.3 L235.8,308.0 L235.6,308.6 L234.4,308.8 L234.1,309.8 L233.7,309.7 L233.0,310.7 L231.9,311.4 L229.4,310.9 L227.0,311.5 L226.4,312.1 L226.5,313.5 L225.8,313.7 L224.9,318.0 L224.1,319.5 L222.9,319.8 L222.1,319.1 L221.0,319.6 L219.5,318.7 L215.9,315.0 L215.2,313.7 L214.6,313.0 L211.5,311.8 L211.5,312.4 L211.9,313.0 L211.5,313.3 L208.8,313.5 L207.3,314.0 L204.0,313.8 L203.4,313.5 L203.3,313.0 L203.5,311.0 L203.4,310.7 L202.5,310.6 L201.9,310.0 L200.1,310.3 L199.8,309.9 L200.0,309.3 L199.8,308.8 L198.5,308.9 L198.1,308.1 L197.0,308.3 L196.0,307.2 L194.4,307.0 L193.8,307.2 L192.8,308.0 L192.3,309.0 L191.1,309.3 L190.3,310.2 L189.6,310.0 L189.1,309.2 L188.4,308.9 L182.4,309.3 L179.4,309.9 L178.1,309.6 L176.9,310.1 L176.9,310.5 L177.2,310.8 L177.1,311.2 L174.5,312.2 L172.6,312.3 L170.0,312.1 L167.8,312.3 L165.2,311.5 L164.9,311.9 L164.4,311.9 L163.4,311.3 L162.2,311.9 L160.9,311.7 L155.0,309.6 L153.9,310.8 L152.7,310.6 L152.1,310.9 L151.9,311.2 L152.1,312.4 L151.9,313.0 L150.2,313.9 L149.6,314.0 L149.1,313.8 L148.9,313.3 L148.9,311.6 L148.6,311.2 L147.9,310.9 L146.4,311.3 L146.2,312.2 L146.7,313.6 L147.3,315.0 L147.9,315.6 L147.3,316.0 L146.3,316.3 L141.1,315.5 L139.5,314.3 L136.3,313.2 L135.3,312.7 L132.8,310.9 L132.4,309.8 L131.6,309.1 L129.7,308.4 L126.2,308.0 L125.1,307.6 L126.2,307.0 L127.4,306.8 L127.6,305.7 L127.2,304.7 L127.4,304.0 L127.9,303.4 L128.6,303.2 L132.1,302.7 L132.5,303.1 L134.1,303.4 L134.7,303.2 L135.6,303.6 L135.0,303.6 L135.0,303.8 L136.3,304.4 L137.5,304.6 L139.2,305.4 L140.9,305.5 L139.0,305.0 L137.6,304.0 L135.4,302.9 L132.2,302.1 L128.0,302.3 L127.0,302.7 L126.2,303.6 L124.0,304.4 L122.8,304.2 L121.1,303.2 L120.1,303.2 L119.6,303.8 L118.7,303.8 L115.9,302.7 L115.9,302.5 L116.6,302.6 L117.9,303.0 L118.6,303.0 L119.1,302.5 L117.8,301.3 L117.3,301.5 L117.5,301.8 L117.1,302.1 L117.1,301.2 L116.7,300.8 L115.4,300.2 L117.9,299.2 L119.0,299.4 L118.8,299.6 L119.0,299.8 L120.5,298.9 L118.7,298.7 L119.0,298.3 L118.4,298.1 L118.6,297.8 L119.2,297.7 L120.4,298.0 L121.9,297.8 L123.5,296.4 L124.7,296.7 L126.3,296.4 L126.4,297.0 L127.0,297.1 L127.8,296.2 L128.8,295.7 L129.1,295.3 L129.9,293.3 L129.8,292.5 L130.0,292.0 L131.6,291.3 L133.8,291.2 L136.6,290.4 L138.5,290.7 L142.2,289.9 L143.6,289.2 L145.0,288.1 L149.1,286.7 L151.0,286.7 L151.6,287.3 L152.4,287.6 L155.5,288.0 L155.8,287.1 L157.4,287.8 L159.0,288.1 L162.4,288.2 L163.7,288.5 L164.6,287.6 L174.7,289.4 L175.2,289.4 L176.2,288.7 L177.7,288.7 L178.5,288.0 L180.0,288.6 L181.1,288.6 L186.5,290.3 L187.6,289.8 L188.0,289.9 L188.3,290.3 L187.5,290.7 L187.6,291.4 L188.0,292.0 L188.8,292.3 L189.6,292.5 L191.0,291.8 L192.6,292.0 L195.9,293.2 L198.6,293.9 L199.3,293.9 L199.7,293.0 L205.8,294.1 L205.8,292.8 L206.5,292.6 L207.6,293.0 L208.6,292.3 L212.6,291.4 L212.8,291.0 L212.4,290.4 L212.8,289.8 L216.8,287.8 L217.6,286.1 L217.6,284.7 L217.9,284.1 L219.4,283.2 L219.8,282.6 L219.6,281.9 L219.9,280.6 L219.0,280.3 L218.4,279.6 L218.7,279.2 L220.1,278.9 L219.5,278.3 L222.6,278.0 L224.9,277.2 L225.3,277.3 L225.5,277.6 L225.8,278.7 L227.7,279.2 L231.0,282.2 L232.4,282.0 L234.7,282.7 L235.4,282.7 L239.1,281.4 L240.6,281.8 L241.6,281.6 L242.1,282.3 L241.2,283.5 L242.5,284.2 L242.5,285.4 L241.1,286.6 L242.2,287.5 L241.5,288.3 L243.1,289.4 L243.6,289.1 L244.0,288.5 L246.4,289.4 L246.7,289.7 L247.2,291.2 L247.9,291.9 L248.9,292.3 L249.9,292.2 L250.5,291.4 L250.6,290.7 L251.1,290.5 L253.6,291.5 L254.5,291.6 L260.7,291.2 L262.3,291.6 L262.7,292.9 L264.4,292.8 L266.8,293.7 L269.0,293.3 L270.4,294.2 L272.8,294.4 L273.3,294.6 L274.6,296.0 L276.2,297.1 L277.0,297.0 L277.9,295.8 L278.6,295.9 L279.9,296.7 L282.3,296.0 L284.0,298.0 L284.0,298.4 L283.7,299.4 L282.3,301.6 L282.7,302.2 L283.5,302.5 L285.4,304.0 L287.1,308.2 L287.1,309.6 L288.2,310.6 L288.4,312.8 L287.8,314.6 L288.4,315.9 L287.2,317.6 L287.0,318.4 L285.4,318.3 L284.0,318.6 L282.0,319.5 L281.1,320.4 L280.1,320.2 L279.4,320.7 L278.1,320.5 L277.6,320.1 L275.5,321.5 L274.5,321.6 L274.6,322.2 L274.4,322.4 L273.2,322.4 L273.1,322.7 L273.6,323.4 L273.3,324.0 L274.3,325.2 L274.2,325.8 L271.7,326.3 L267.7,326.7 L265.8,327.3 L265.1,328.0 L264.4,328.3 L263.2,329.8 L259.7,329.7 L259.9,329.2 L261.0,328.3 L261.4,327.6 L261.0,326.5 L260.3,325.8 L260.2,325.5 L261.0,324.5 L261.1,323.6 L260.7,322.8 L259.8,322.3 L259.9,321.4 L259.6,321.1 L257.9,320.8 L257.4,320.3 L257.7,319.8 L258.7,319.2 L258.9,318.9 L258.8,318.5 L257.8,317.9 L257.8,316.9 L258.4,316.0 L259.4,315.2 L259.5,314.9 L258.1,314.2 L257.8,313.7 L258.3,312.0 L256.7,310.5 L257.0,309.3 L256.6,308.5 L254.4,308.2 L251.9,308.8 L248.5,307.9 L250.0,306.8 Z" fill="rgba(139,26,43,0.15)" stroke="rgba(139,26,43,0.4)" stroke-width="0.5"/>
    <path class="region-area" d="M339.0,362.4 L335.6,363.8 L335.1,364.6 L335.2,366.0 L331.0,366.1 L329.3,365.1 L327.7,364.8 L327.2,364.0 L327.6,362.8 L326.8,361.7 L326.1,361.3 L325.0,362.0 L322.9,361.5 L321.7,361.5 L321.1,362.4 L318.1,362.8 L316.8,362.8 L315.7,362.0 L313.8,362.8 L313.5,362.6 L313.3,362.4 L313.6,361.2 L315.4,359.5 L315.9,358.6 L315.8,358.1 L314.6,355.9 L310.8,353.5 L309.2,350.9 L308.4,350.3 L307.5,349.0 L307.9,348.2 L308.0,347.2 L308.5,346.0 L308.3,345.5 L307.1,344.7 L306.8,344.3 L307.0,344.0 L308.2,343.5 L310.6,343.1 L311.2,342.6 L310.4,339.3 L310.5,337.7 L310.2,336.4 L309.7,335.7 L311.3,334.6 L313.3,334.2 L313.7,335.0 L313.7,336.1 L316.6,337.3 L319.1,336.7 L321.2,337.1 L322.7,336.8 L325.7,337.4 L326.9,337.1 L328.6,335.8 L329.7,336.3 L330.3,337.3 L330.1,338.0 L327.8,338.3 L324.8,340.6 L324.6,341.2 L326.3,342.3 L326.0,342.7 L324.6,343.1 L324.8,343.6 L326.9,344.5 L327.3,345.0 L327.1,346.2 L328.3,346.8 L328.9,347.5 L328.6,348.3 L327.4,349.5 L327.4,350.0 L329.0,350.4 L329.1,350.7 L328.1,351.9 L328.6,353.3 L330.2,354.6 L332.1,355.4 L333.6,355.7 L336.5,355.5 L337.2,355.9 L337.3,356.4 L336.9,358.3 L337.7,358.7 L338.9,358.7 L340.2,359.7 L340.0,361.0 L340.5,362.2 L339.0,362.4 Z" fill="rgba(139,26,43,0.15)" stroke="rgba(139,26,43,0.4)" stroke-width="0.5"/>
    <path class="region-area" d="M320.8,308.1 L318.6,308.4 L318.3,309.3 L318.8,310.5 L318.8,311.2 L318.1,311.7 L316.9,311.9 L316.7,312.3 L316.8,312.7 L317.9,312.9 L318.2,313.3 L318.2,314.8 L319.6,315.6 L319.7,316.1 L319.4,316.5 L318.0,317.0 L318.4,317.6 L318.4,318.4 L316.7,318.8 L314.3,319.9 L312.4,320.4 L311.7,320.9 L311.0,321.1 L309.6,320.0 L308.8,319.6 L305.3,320.0 L304.4,319.9 L304.2,320.7 L303.5,321.0 L303.3,321.7 L300.6,322.7 L300.1,322.5 L300.1,322.0 L299.4,321.0 L298.3,320.9 L297.1,321.6 L294.9,321.1 L292.4,321.6 L290.6,320.4 L289.1,320.3 L287.3,319.2 L287.0,318.7 L287.2,317.7 L288.4,315.9 L287.8,314.6 L288.4,312.8 L288.2,310.6 L287.1,309.6 L287.1,308.2 L285.4,304.0 L283.5,302.5 L282.7,302.2 L282.3,301.6 L283.7,299.4 L284.0,298.2 L282.5,296.2 L281.7,295.5 L281.8,295.2 L283.0,294.8 L285.2,294.5 L283.8,292.9 L284.1,292.0 L283.5,291.2 L282.3,290.3 L281.1,290.0 L280.9,289.5 L281.0,288.9 L281.5,288.6 L283.6,288.5 L285.9,287.6 L286.1,287.3 L286.1,286.5 L286.5,285.9 L286.0,285.1 L285.9,284.1 L286.8,284.0 L288.7,282.8 L289.7,281.2 L289.4,280.2 L287.5,278.9 L286.8,277.2 L285.9,276.7 L283.8,276.5 L284.3,275.1 L286.2,274.2 L287.0,273.2 L286.5,271.8 L287.2,270.2 L289.0,270.2 L290.1,269.8 L292.5,270.0 L295.6,269.6 L296.8,269.8 L298.3,268.6 L298.8,268.9 L299.1,269.9 L300.3,269.9 L301.8,270.6 L304.5,273.0 L304.9,274.6 L304.0,275.7 L306.6,276.8 L307.5,276.8 L307.9,276.3 L308.6,276.4 L309.2,277.3 L310.2,278.0 L312.5,280.8 L312.3,281.0 L311.6,281.2 L311.7,281.4 L312.5,281.8 L313.7,281.7 L313.9,282.0 L313.9,282.8 L314.5,283.4 L316.5,283.4 L318.0,283.6 L318.9,283.1 L320.7,283.3 L321.8,282.7 L323.1,283.1 L323.5,282.1 L324.7,283.3 L325.7,283.6 L326.8,282.9 L333.5,282.3 L334.0,282.0 L334.1,281.3 L335.2,280.8 L337.1,281.0 L338.3,280.6 L339.3,281.1 L341.2,281.3 L341.6,281.7 L341.3,282.1 L341.4,282.3 L343.3,283.0 L342.8,283.8 L342.9,284.3 L343.4,284.4 L344.0,283.9 L344.3,284.0 L345.9,285.3 L347.1,287.0 L347.1,287.5 L345.7,287.8 L345.4,288.2 L346.2,288.9 L346.7,290.7 L347.3,290.9 L348.2,290.3 L348.6,290.3 L349.7,291.5 L350.9,292.0 L351.8,292.0 L352.5,291.3 L353.1,291.2 L353.8,292.1 L355.6,292.9 L356.0,293.8 L356.3,293.9 L357.7,293.3 L358.6,293.7 L359.1,293.3 L360.1,293.6 L361.4,292.9 L362.2,293.4 L362.1,294.1 L362.7,295.0 L362.7,295.6 L361.7,296.6 L360.3,297.0 L360.1,297.9 L361.3,298.5 L361.6,299.8 L362.8,300.8 L363.0,302.5 L363.6,303.1 L362.7,305.7 L359.6,309.3 L357.0,310.2 L356.8,310.6 L357.1,311.6 L357.0,311.7 L355.2,312.5 L354.6,312.4 L352.6,313.1 L350.0,313.2 L349.1,312.5 L348.7,312.5 L347.2,312.9 L344.7,313.1 L341.0,314.3 L339.3,314.4 L337.9,315.0 L337.5,314.7 L337.0,313.8 L335.2,313.4 L334.7,313.0 L333.6,311.3 L332.4,311.4 L330.4,310.9 L328.9,309.7 L327.7,310.0 L326.8,308.8 L325.1,308.3 L323.9,307.3 L322.6,307.3 L320.8,308.1 Z" fill="rgba(139,26,43,0.15)" stroke="rgba(139,26,43,0.4)" stroke-width="0.5"/>
    <path class="region-area" d="M368.2,429.3 L367.0,429.1 L366.4,429.9 L365.1,429.6 L363.7,428.3 L363.0,428.5 L358.9,428.5 L358.2,428.2 L358.9,426.5 L358.5,426.2 L358.0,424.6 L356.6,423.9 L354.9,424.8 L351.4,424.8 L348.6,424.5 L348.0,423.8 L347.7,423.1 L348.4,422.3 L349.3,421.9 L352.9,421.7 L354.1,420.8 L354.5,420.1 L354.4,419.4 L352.6,420.0 L351.8,419.9 L351.2,419.4 L350.8,418.5 L349.2,418.3 L348.4,417.7 L347.8,418.9 L348.0,419.5 L349.1,420.2 L349.5,421.0 L349.1,421.6 L348.4,422.0 L347.5,422.1 L345.4,421.3 L343.5,421.9 L342.9,422.5 L343.5,423.6 L344.5,423.6 L343.1,424.3 L342.4,423.1 L340.1,421.9 L339.6,421.1 L339.6,418.7 L339.1,417.7 L338.2,417.0 L339.2,418.6 L339.2,420.8 L339.6,421.9 L342.1,423.6 L342.0,424.2 L337.3,424.2 L335.0,423.8 L334.2,423.4 L334.2,422.9 L334.8,422.4 L334.9,422.0 L334.6,421.6 L332.6,420.8 L329.4,421.1 L323.2,420.7 L323.9,420.4 L324.4,419.4 L326.7,418.7 L328.4,417.7 L329.3,417.5 L329.5,417.0 L330.7,416.7 L331.1,415.9 L330.2,415.8 L330.0,415.5 L331.5,413.5 L333.1,412.9 L335.5,413.4 L335.8,412.8 L335.8,412.1 L336.8,410.1 L336.5,408.1 L339.2,406.7 L340.6,406.2 L344.7,407.3 L346.6,408.2 L350.2,410.7 L353.5,411.8 L357.9,412.1 L360.3,413.5 L363.9,414.3 L365.4,414.4 L367.3,413.5 L369.4,413.1 L370.7,412.3 L371.3,412.5 L372.0,413.4 L372.5,413.7 L371.8,414.5 L369.3,415.1 L368.5,416.1 L368.5,416.9 L369.8,417.9 L369.4,419.5 L369.5,420.2 L371.5,422.2 L368.5,422.6 L369.1,423.8 L368.7,424.9 L368.8,425.2 L369.7,425.2 L370.5,425.7 L370.9,426.3 L370.5,426.8 L368.8,427.6 L368.2,429.3 Z" fill="rgba(139,26,43,0.15)" stroke="rgba(139,26,43,0.4)" stroke-width="0.5"/>
    <path class="region-area" d="M382.7,325.7 L380.1,328.4 L380.3,329.4 L379.9,329.8 L380.1,329.9 L377.3,332.1 L376.8,332.7 L374.3,334.3 L369.7,334.3 L369.0,333.1 L367.5,332.1 L366.1,333.0 L365.8,333.5 L365.1,333.6 L363.4,334.6 L362.1,334.4 L362.0,332.8 L361.1,332.7 L360.7,332.3 L359.3,331.9 L358.7,330.7 L357.4,330.1 L357.1,329.8 L357.1,328.7 L359.9,328.1 L360.6,327.6 L360.3,327.1 L358.9,326.4 L358.6,325.9 L358.9,325.0 L360.0,324.4 L360.6,322.9 L359.7,320.3 L358.9,319.8 L359.4,319.0 L358.4,318.3 L358.3,317.8 L358.8,317.5 L361.0,317.2 L361.4,316.9 L361.6,316.4 L357.7,314.9 L356.0,313.7 L355.2,312.5 L357.0,311.7 L357.1,311.6 L356.8,310.6 L357.0,310.2 L359.3,309.5 L360.0,308.9 L362.7,305.7 L363.6,303.1 L363.8,303.0 L366.0,303.9 L368.0,303.6 L369.0,303.8 L369.8,305.3 L371.6,306.1 L372.6,307.5 L372.3,308.4 L371.4,309.1 L371.4,310.2 L370.5,311.0 L370.7,311.4 L371.1,311.5 L372.2,311.0 L373.3,311.7 L376.7,312.4 L377.8,313.5 L378.1,315.2 L379.0,316.3 L380.8,316.7 L384.6,319.1 L384.2,319.6 L380.8,321.5 L381.2,322.8 L379.9,323.7 L380.1,324.3 L380.9,324.9 L382.7,325.7 Z" fill="rgba(139,26,43,0.15)" stroke="rgba(139,26,43,0.4)" stroke-width="0.5"/>
    <path class="region-area" d="M411.2,359.0 L412.4,360.2 L413.9,360.8 L413.9,361.2 L413.0,362.4 L411.8,363.4 L412.3,365.4 L411.5,365.9 L410.7,366.8 L409.9,366.4 L407.7,367.0 L406.3,368.2 L405.1,368.3 L404.9,368.6 L405.2,369.1 L404.2,369.4 L400.9,368.6 L399.8,369.1 L398.8,369.1 L395.5,370.2 L394.2,370.2 L393.0,371.6 L392.4,371.8 L390.4,371.2 L389.9,370.5 L389.2,370.1 L387.0,369.9 L386.5,369.6 L386.2,369.0 L383.2,368.6 L382.3,365.4 L382.4,364.8 L382.7,364.2 L384.1,363.3 L384.3,362.6 L384.0,361.8 L383.5,361.1 L382.1,360.0 L379.7,359.8 L377.8,358.6 L376.7,358.4 L375.7,358.8 L375.5,361.3 L370.8,359.9 L366.7,354.6 L366.0,353.3 L366.6,353.6 L367.2,353.6 L369.4,351.9 L370.7,351.4 L371.2,350.8 L371.6,348.9 L373.1,345.8 L373.4,344.7 L372.9,341.1 L372.9,339.8 L373.5,339.3 L374.3,339.8 L375.6,338.7 L376.9,338.7 L377.7,338.4 L380.5,338.1 L381.6,338.4 L382.6,338.1 L384.1,336.8 L386.9,335.3 L386.7,334.6 L386.0,334.7 L385.6,334.4 L384.8,333.0 L385.0,332.6 L386.5,331.2 L387.5,330.6 L390.5,330.1 L393.1,328.9 L395.1,328.6 L397.1,328.7 L401.7,329.5 L402.4,330.0 L402.3,331.1 L401.3,332.1 L403.7,334.4 L402.6,335.9 L401.8,338.0 L402.1,338.5 L404.5,338.9 L405.0,339.2 L404.3,340.1 L404.4,341.2 L405.0,341.3 L405.7,341.0 L406.4,341.2 L408.6,342.9 L409.7,345.0 L408.9,345.4 L408.0,346.7 L407.4,347.0 L405.1,347.4 L404.8,348.0 L404.2,347.6 L402.9,348.0 L402.3,349.0 L402.7,351.3 L404.2,352.4 L405.4,352.6 L406.5,353.4 L407.9,353.7 L408.0,354.2 L407.5,355.1 L408.1,356.0 L408.5,357.7 L411.2,359.0 Z" fill="rgba(139,26,43,0.15)" stroke="rgba(139,26,43,0.4)" stroke-width="0.5"/>
    <path class="region-area" d="M369.4,413.1 L367.3,413.5 L365.4,414.4 L363.9,414.3 L360.3,413.5 L357.9,412.1 L353.5,411.8 L350.2,410.7 L346.6,408.2 L344.7,407.3 L340.6,406.2 L341.8,405.4 L342.1,405.0 L342.0,404.1 L342.8,404.1 L342.9,403.6 L340.6,401.4 L339.1,401.4 L338.9,400.3 L339.0,398.3 L338.0,397.5 L338.0,396.9 L337.3,396.2 L337.0,395.5 L334.8,394.9 L333.7,394.1 L332.8,393.8 L331.1,393.8 L330.7,394.1 L330.5,394.9 L329.7,395.2 L329.0,394.9 L328.9,393.8 L328.3,393.7 L327.1,394.0 L324.5,395.5 L321.4,394.4 L320.8,393.9 L318.4,394.1 L317.9,392.6 L318.4,391.7 L317.5,390.6 L316.6,390.1 L315.5,387.2 L314.1,385.8 L312.9,382.3 L312.9,381.1 L313.6,380.8 L315.2,379.0 L317.2,378.4 L317.8,377.5 L321.5,377.2 L322.8,376.0 L323.4,374.7 L324.6,374.6 L325.9,374.2 L326.0,373.8 L325.7,373.4 L326.1,372.7 L328.1,372.2 L327.5,371.3 L328.6,370.3 L328.2,369.3 L328.9,369.3 L329.7,369.8 L330.3,369.5 L330.5,368.6 L331.5,367.0 L331.5,366.5 L331.0,366.1 L335.2,366.0 L335.2,364.3 L336.2,363.4 L339.0,362.4 L340.5,362.2 L340.7,363.0 L341.8,364.3 L343.8,364.2 L347.2,362.8 L347.7,362.9 L348.2,363.6 L349.1,363.6 L350.2,364.7 L351.6,364.7 L351.3,365.9 L352.5,365.5 L352.9,366.1 L353.4,368.8 L352.8,370.3 L353.0,370.9 L354.7,370.8 L355.1,371.4 L357.1,371.6 L358.0,371.5 L358.3,371.9 L359.6,372.0 L361.6,370.9 L362.5,370.9 L362.0,371.7 L362.7,373.5 L362.3,374.7 L361.7,379.5 L362.2,379.9 L364.4,380.4 L364.4,379.8 L364.9,380.0 L367.7,381.9 L371.3,382.3 L372.5,382.2 L373.0,382.7 L373.0,383.1 L371.9,384.0 L369.8,384.4 L367.8,384.4 L367.6,385.1 L366.2,387.0 L367.8,388.3 L367.8,388.7 L367.6,388.9 L365.8,389.7 L363.7,389.1 L362.1,389.1 L361.9,389.4 L361.9,389.8 L362.8,390.5 L362.9,390.9 L362.4,391.1 L361.0,390.9 L360.7,391.2 L361.4,392.0 L361.7,392.7 L362.8,393.4 L364.9,394.0 L366.8,394.0 L366.7,394.8 L368.6,396.1 L368.5,398.2 L368.2,398.6 L368.2,399.5 L367.5,399.4 L366.8,398.7 L365.7,398.6 L364.0,400.0 L363.1,400.4 L363.0,402.2 L364.1,402.2 L364.3,402.6 L364.1,403.5 L363.2,405.4 L363.4,405.8 L365.3,406.1 L365.7,407.1 L364.4,409.1 L364.3,409.7 L366.3,409.2 L367.9,409.9 L370.7,412.3 L369.4,413.1 Z" fill="rgba(139,26,43,0.15)" stroke="rgba(139,26,43,0.4)" stroke-width="0.5"/>
    <path class="region-area" d="M405.9,421.4 L405.7,421.7 L405.0,421.7 L404.8,421.3 L404.6,421.7 L404.7,422.1 L404.3,422.2 L403.4,422.1 L402.3,422.3 L401.5,421.9 L401.2,422.0 L400.7,422.3 L400.8,423.1 L400.3,423.6 L400.3,424.1 L399.0,424.2 L398.6,424.9 L396.6,426.1 L396.4,426.6 L397.1,426.7 L398.9,426.4 L399.6,426.5 L399.7,426.7 L399.3,427.2 L398.8,427.5 L398.7,428.0 L399.2,428.6 L398.6,429.0 L397.0,429.5 L396.7,429.5 L396.5,429.1 L394.9,429.2 L394.4,429.9 L393.8,430.2 L393.0,430.0 L390.6,430.3 L389.9,430.7 L389.5,431.2 L389.8,432.0 L388.8,432.0 L388.3,431.6 L386.9,431.2 L385.0,431.3 L383.3,432.0 L383.0,433.4 L384.0,433.4 L383.8,433.7 L381.3,433.9 L381.0,433.8 L382.3,433.2 L382.2,432.6 L381.6,432.2 L379.1,432.4 L378.8,431.8 L377.0,431.7 L376.2,431.3 L376.5,430.7 L374.6,431.1 L375.1,431.3 L375.5,432.0 L376.8,432.4 L376.4,432.7 L374.4,432.7 L373.9,433.5 L372.7,433.2 L371.6,432.4 L372.7,431.8 L372.5,431.6 L371.6,431.3 L371.4,430.8 L370.3,430.8 L368.9,430.3 L368.7,429.6 L368.3,429.3 L367.0,429.1 L366.4,429.9 L365.1,429.6 L363.7,428.3 L363.0,428.5 L358.9,428.5 L358.2,428.2 L358.9,426.5 L358.5,426.2 L358.0,424.6 L356.6,423.9 L354.9,424.8 L351.4,424.8 L348.6,424.5 L348.0,423.8 L347.7,423.1 L348.4,422.3 L349.3,421.9 L352.9,421.7 L354.1,420.8 L354.5,420.1 L354.4,419.4 L352.6,420.0 L351.8,419.9 L351.2,419.4 L350.8,418.5 L349.2,418.3 L348.4,417.7 L347.8,418.9 L348.0,419.5 L349.1,420.2 L349.5,421.0 L349.1,421.6 L348.4,422.0 L347.5,422.1 L345.4,421.3 L343.5,421.9 L342.9,422.5 L343.5,423.6 L344.5,423.6 L343.1,424.3 L342.4,423.1 L340.1,421.9 L339.6,421.1 L339.6,418.7 L339.1,417.7 L338.2,417.0 L339.2,418.6 L339.2,420.8 L339.6,421.9 L342.1,423.6 L342.0,424.2 L337.3,424.2 L335.0,423.8 L334.2,423.4 L334.2,422.9 L334.8,422.4 L334.9,422.0 L334.6,421.6 L332.6,420.8 L329.4,421.1 L323.2,420.7 L323.9,420.4 L324.4,419.4 L326.7,418.7 L328.4,417.7 L329.3,417.5 L329.5,417.0 L330.7,416.7 L331.1,415.9 L330.2,415.8 L330.0,415.5 L331.5,413.5 L333.1,412.9 L335.5,413.4 L335.8,412.8 L335.8,412.1 L336.8,410.1 L336.5,408.1 L339.2,406.7 L340.6,406.2 L344.7,407.3 L346.6,408.2 L350.2,410.7 L353.5,411.8 L357.9,412.1 L360.3,413.5 L363.9,414.3 L365.4,414.4 L367.3,413.5 L369.4,413.1 L370.7,412.3 L367.9,409.9 L366.3,409.2 L364.3,409.7 L364.4,409.1 L365.7,407.1 L365.3,406.1 L363.4,405.8 L363.2,405.4 L364.1,403.5 L364.3,402.6 L364.1,402.2 L363.0,402.2 L363.1,400.4 L366.1,398.6 L367.2,398.8 L367.5,399.4 L368.0,399.5 L368.3,399.3 L368.2,398.6 L368.4,398.3 L369.2,398.3 L372.3,397.6 L374.9,398.2 L375.2,398.0 L374.9,397.6 L373.0,396.0 L372.8,395.6 L373.2,394.9 L374.1,395.0 L375.6,395.9 L375.8,394.7 L375.4,394.4 L375.5,393.8 L376.3,393.0 L377.2,391.7 L379.3,390.8 L380.5,389.8 L382.4,389.6 L383.3,390.8 L383.9,391.0 L384.9,392.2 L385.5,392.3 L386.3,391.8 L386.6,391.1 L386.2,389.7 L387.4,389.5 L388.2,389.0 L389.5,387.7 L391.6,389.4 L392.6,390.0 L394.0,390.3 L397.1,390.4 L397.6,390.2 L398.1,389.3 L398.8,388.6 L399.3,387.5 L400.2,387.4 L402.6,385.7 L405.1,384.8 L406.5,383.8 L407.1,383.9 L407.0,384.3 L407.3,384.9 L405.8,386.4 L404.3,387.3 L403.9,387.7 L404.0,388.7 L404.7,389.5 L406.5,390.7 L405.2,391.4 L404.9,392.7 L405.3,393.2 L402.8,394.3 L401.9,395.4 L401.1,396.0 L399.8,398.3 L399.6,399.4 L401.2,401.1 L401.5,403.0 L403.4,403.9 L404.6,405.5 L407.2,407.3 L405.7,407.4 L404.2,406.8 L403.1,406.8 L401.6,407.9 L400.0,408.1 L399.5,408.9 L399.9,409.7 L399.8,410.1 L397.8,410.6 L398.2,411.3 L398.7,411.7 L401.3,412.2 L401.5,412.4 L401.9,413.3 L401.9,414.4 L402.1,414.7 L404.0,416.0 L404.5,416.2 L405.9,416.1 L406.3,416.5 L406.3,416.9 L405.3,418.9 L405.6,419.4 L406.9,420.1 L406.5,421.0 L405.9,421.4 Z" fill="rgba(139,26,43,0.15)" stroke="rgba(139,26,43,0.4)" stroke-width="0.5"/>
    <path class="region-area" d="M482.8,472.3 L482.8,474.6 L481.7,475.6 L482.1,475.6 L481.9,476.5 L481.0,476.6 L481.1,477.2 L479.4,477.0 L479.5,477.3 L479.0,477.9 L479.4,478.1 L481.0,477.7 L481.3,478.0 L481.2,478.4 L480.5,479.0 L479.6,479.3 L479.1,479.9 L478.6,480.0 L478.7,480.4 L478.6,480.8 L479.0,481.2 L478.6,481.6 L478.7,481.9 L476.9,482.5 L477.3,483.1 L476.9,483.8 L478.1,483.1 L477.3,484.8 L476.8,485.0 L475.6,484.4 L473.4,483.9 L473.7,483.1 L474.2,482.9 L472.5,482.1 L472.9,481.5 L471.6,482.1 L471.4,481.9 L471.6,481.6 L471.0,481.9 L470.5,481.4 L468.5,481.2 L467.6,480.7 L466.9,480.6 L466.5,480.2 L465.8,480.1 L465.5,480.0 L465.9,479.6 L464.0,479.0 L464.2,478.4 L463.6,478.1 L464.0,477.1 L464.3,476.6 L464.9,476.8 L466.5,476.3 L466.9,475.7 L468.1,474.9 L463.9,474.4 L463.5,474.1 L463.8,473.5 L461.1,473.9 L461.3,473.5 L459.8,473.2 L461.1,473.0 L461.7,472.6 L461.8,472.0 L461.5,471.6 L462.8,471.4 L463.8,470.9 L463.4,470.5 L462.8,470.3 L464.0,469.9 L463.6,469.5 L464.4,468.4 L463.2,467.6 L458.6,468.6 L458.4,468.2 L458.7,467.7 L458.6,467.3 L457.7,466.5 L459.8,466.2 L460.3,465.7 L459.9,465.5 L460.1,465.1 L462.5,464.2 L462.6,463.8 L461.9,463.3 L461.2,462.2 L460.0,462.3 L459.6,461.8 L457.7,461.5 L457.9,461.1 L456.9,460.8 L457.9,460.4 L457.9,460.2 L457.1,460.2 L457.6,459.6 L457.1,459.1 L457.3,458.8 L456.5,458.4 L456.6,458.1 L457.7,458.1 L460.8,457.2 L460.9,456.9 L459.2,456.2 L458.9,455.8 L458.3,456.0 L458.1,455.7 L459.2,455.1 L458.5,454.7 L456.7,455.1 L456.9,454.9 L456.6,454.0 L456.7,453.7 L457.2,453.8 L457.7,453.5 L458.1,453.6 L458.7,452.7 L460.0,452.4 L460.0,451.7 L460.5,451.0 L459.9,450.8 L460.2,449.9 L460.6,449.5 L461.7,449.3 L461.5,447.8 L461.8,447.9 L461.9,448.2 L462.4,448.0 L463.4,448.4 L463.9,448.3 L464.5,447.6 L464.7,447.1 L464.4,446.9 L465.6,446.9 L467.6,446.1 L471.0,445.6 L472.0,445.2 L472.1,444.6 L474.0,443.1 L475.5,443.0 L477.7,443.4 L478.6,443.8 L479.2,444.8 L479.4,444.8 L480.9,442.5 L480.7,441.9 L480.9,441.3 L480.7,440.7 L479.8,439.8 L480.7,438.9 L480.4,438.4 L480.6,437.8 L481.5,437.0 L481.5,436.4 L481.0,435.7 L481.1,434.7 L483.4,434.3 L484.7,435.1 L484.4,435.9 L484.9,436.6 L484.7,437.2 L485.3,440.0 L485.3,440.9 L484.3,443.8 L484.3,445.5 L484.0,445.9 L484.4,446.1 L484.6,446.5 L484.4,446.9 L485.1,447.8 L486.1,448.2 L485.5,446.7 L486.6,448.2 L486.8,451.5 L487.2,452.2 L486.8,454.1 L487.6,456.5 L487.4,460.3 L487.6,461.1 L487.2,462.4 L486.4,462.9 L482.8,467.0 L482.5,470.2 L482.8,472.3 Z" fill="rgba(139,26,43,0.15)" stroke="rgba(139,26,43,0.4)" stroke-width="0.5"/>
    <path class="region-area" d="M248.2,448.2 L248.1,448.1 L250.6,447.8 L253.2,448.1 L254.0,447.5 L254.2,446.5 L255.2,445.5 L258.4,445.2 L260.1,445.4 L260.6,445.0 L260.2,444.3 L258.7,443.7 L257.7,442.7 L254.6,443.1 L252.9,442.5 L252.6,441.3 L251.4,440.7 L251.4,440.2 L252.1,439.5 L253.2,439.5 L254.9,438.9 L254.6,437.5 L253.6,436.8 L253.8,436.4 L255.1,436.0 L255.1,435.6 L254.6,434.1 L253.6,433.4 L254.2,432.7 L253.7,431.6 L253.1,431.3 L251.7,431.1 L248.2,430.1 L246.6,429.0 L246.1,427.3 L246.4,426.2 L246.9,425.5 L247.1,424.9 L249.3,424.5 L249.6,424.1 L249.5,423.2 L250.8,421.8 L251.5,422.1 L251.8,422.8 L253.9,422.1 L256.4,421.9 L257.9,422.8 L260.5,422.5 L261.8,423.1 L262.5,422.7 L262.4,421.7 L263.1,421.3 L266.7,421.8 L269.6,421.6 L272.8,421.8 L274.7,421.3 L275.7,420.4 L275.4,419.8 L275.6,418.6 L274.5,417.5 L274.5,416.5 L275.1,415.4 L276.5,415.2 L279.2,415.9 L282.6,414.8 L284.1,413.5 L285.6,413.3 L286.6,413.6 L287.4,413.5 L287.8,412.9 L288.0,411.3 L287.6,410.5 L287.9,409.8 L288.8,409.6 L291.7,409.9 L292.5,409.7 L293.2,409.1 L293.6,408.0 L294.5,407.6 L296.0,407.5 L296.6,407.1 L297.1,406.0 L299.7,404.1 L299.8,403.7 L299.6,403.4 L298.2,402.6 L296.9,402.4 L296.3,401.9 L295.5,402.0 L294.9,401.6 L296.1,400.9 L296.1,400.0 L296.6,399.5 L297.7,398.9 L300.9,400.4 L302.0,400.6 L305.0,400.5 L305.7,400.2 L305.9,398.7 L306.7,398.5 L310.4,399.9 L313.0,400.1 L314.4,399.0 L315.8,396.5 L314.9,394.7 L314.6,393.3 L313.6,392.1 L315.6,391.4 L316.6,390.1 L317.5,390.6 L318.4,391.7 L317.9,392.6 L318.4,394.1 L320.8,393.9 L321.4,394.4 L324.5,395.5 L327.3,393.9 L328.7,393.7 L329.0,394.0 L329.0,394.9 L329.7,395.2 L330.5,394.9 L330.8,393.9 L332.8,393.8 L333.7,394.1 L334.8,394.9 L337.0,395.5 L337.3,396.2 L338.0,396.9 L338.0,397.5 L339.0,398.3 L338.9,400.3 L339.1,401.4 L340.6,401.4 L342.9,403.6 L342.8,404.1 L342.0,404.1 L342.1,405.0 L341.6,405.6 L336.5,408.1 L336.8,410.1 L335.8,412.1 L335.8,412.8 L335.5,413.4 L333.1,412.9 L331.5,413.5 L330.0,415.5 L330.2,415.8 L331.1,415.9 L330.7,416.7 L329.5,417.0 L329.3,417.5 L328.4,417.7 L326.7,418.7 L324.4,419.4 L323.9,420.4 L323.2,420.7 L320.9,419.9 L320.4,419.2 L320.9,418.5 L320.1,417.9 L318.3,417.8 L315.4,418.3 L308.8,422.2 L305.2,423.3 L304.2,423.9 L301.9,426.2 L301.2,426.4 L300.0,426.0 L298.0,426.1 L295.9,426.8 L293.6,428.1 L289.6,431.6 L288.3,434.0 L287.3,436.6 L287.4,436.9 L287.8,437.1 L287.8,437.7 L287.4,441.3 L287.4,446.2 L287.7,448.5 L288.1,448.9 L290.3,449.4 L290.6,449.7 L290.5,450.4 L291.5,451.5 L291.7,452.3 L288.8,452.4 L287.8,452.1 L287.0,451.3 L285.6,451.1 L285.1,451.4 L284.1,451.1 L283.1,451.7 L281.5,451.8 L279.6,452.9 L277.1,452.9 L276.6,453.1 L275.1,454.1 L275.7,455.1 L272.2,454.7 L271.7,455.4 L271.2,455.6 L269.1,454.7 L268.4,453.8 L266.9,453.6 L263.9,452.4 L261.1,452.9 L259.6,452.8 L259.1,452.9 L258.6,453.7 L257.3,454.6 L255.7,454.9 L254.3,454.3 L253.2,452.1 L251.4,451.8 L249.0,450.8 L246.6,450.4 L246.5,449.3 L246.8,448.7 L247.4,448.3 L248.2,448.2 Z" fill="rgba(139,26,43,0.15)" stroke="rgba(139,26,43,0.4)" stroke-width="0.5"/>
    <path class="region-area" d="M215.7,439.5 L214.1,439.8 L214.0,440.2 L214.0,440.9 L213.6,441.8 L213.9,442.1 L213.4,442.7 L213.8,442.8 L214.4,443.6 L214.1,444.4 L208.3,444.3 L208.0,442.0 L208.2,439.4 L208.6,438.9 L210.8,438.9 L211.8,438.3 L213.8,436.2 L212.6,433.9 L210.3,434.7 L210.2,434.3 L211.2,432.6 L207.5,430.8 L210.1,428.6 L211.4,428.0 L211.4,427.1 L212.9,425.9 L212.6,425.3 L208.3,424.6 L206.5,424.6 L205.9,423.7 L204.7,424.2 L203.4,423.2 L200.9,423.5 L200.0,423.4 L198.3,422.0 L198.6,420.8 L198.0,420.2 L197.8,419.3 L194.7,418.4 L194.1,417.3 L193.8,416.1 L192.0,416.3 L190.6,417.2 L187.7,416.7 L186.7,416.8 L185.7,415.5 L186.4,414.6 L186.2,413.7 L187.1,413.6 L187.9,412.3 L187.5,411.6 L187.6,410.6 L188.3,409.2 L187.9,408.2 L187.1,407.5 L187.1,407.2 L188.8,406.2 L190.9,406.3 L191.8,405.6 L193.2,405.0 L194.0,405.4 L194.1,405.7 L193.7,406.3 L193.9,406.7 L195.9,406.9 L196.4,406.5 L196.3,405.5 L196.7,405.0 L197.8,404.7 L198.3,405.1 L198.8,405.1 L200.5,403.6 L203.3,404.2 L208.3,402.4 L209.6,402.5 L212.2,401.9 L214.2,403.0 L214.8,402.9 L216.7,402.1 L217.3,400.9 L218.4,400.4 L218.8,399.7 L221.3,399.7 L221.4,399.3 L220.7,398.6 L221.8,397.9 L223.1,395.7 L222.8,395.4 L221.6,395.0 L221.2,394.5 L221.6,393.6 L221.7,392.7 L222.2,392.5 L223.7,393.0 L226.3,392.8 L226.7,392.5 L226.7,391.1 L225.7,390.2 L225.3,389.4 L225.3,388.6 L224.6,387.8 L224.7,387.6 L226.6,386.8 L228.4,385.6 L230.5,383.1 L231.6,382.9 L233.9,381.8 L234.6,381.0 L234.2,380.4 L234.3,379.9 L234.7,379.5 L235.8,379.2 L236.7,378.1 L238.0,377.2 L238.0,376.3 L238.4,375.5 L237.7,373.9 L237.9,373.4 L239.6,372.5 L240.7,372.0 L241.5,372.5 L242.5,372.3 L243.4,372.5 L246.0,373.9 L246.6,374.6 L248.6,375.4 L250.8,375.1 L252.9,374.3 L254.0,374.6 L254.9,374.2 L257.2,374.2 L257.6,374.7 L258.0,377.1 L260.2,380.0 L259.5,382.7 L260.3,383.1 L261.0,384.7 L261.7,385.0 L261.7,385.7 L259.7,386.3 L257.3,386.1 L255.0,387.0 L253.2,388.1 L250.3,389.1 L251.1,391.5 L252.4,393.0 L252.4,393.4 L251.4,394.0 L251.4,395.1 L252.1,395.4 L254.5,395.6 L254.2,396.4 L252.9,396.9 L252.6,397.6 L252.9,398.3 L254.6,398.7 L255.1,399.5 L258.8,398.2 L260.2,398.3 L261.7,399.0 L262.6,399.7 L263.8,399.8 L264.7,400.3 L267.1,401.1 L268.0,402.4 L269.5,402.7 L270.0,403.1 L271.4,404.7 L271.2,405.6 L272.3,406.7 L273.4,409.4 L276.0,411.7 L277.1,412.2 L278.1,412.4 L280.5,411.7 L283.2,412.2 L283.7,412.6 L284.1,413.5 L282.6,414.8 L279.2,415.9 L276.5,415.2 L275.1,415.4 L274.5,416.5 L274.5,417.5 L275.6,418.6 L275.4,419.8 L275.7,420.4 L274.7,421.3 L273.4,421.8 L269.6,421.6 L266.7,421.8 L263.1,421.3 L262.4,421.7 L262.5,422.7 L261.8,423.1 L260.5,422.5 L257.9,422.8 L256.4,421.9 L253.9,422.1 L251.8,422.8 L251.5,422.1 L250.8,421.8 L249.5,423.2 L249.6,424.3 L249.1,424.6 L247.1,424.9 L246.3,426.6 L245.4,426.4 L244.6,427.2 L244.0,427.3 L243.4,426.7 L242.3,426.8 L240.5,425.7 L239.9,425.8 L239.7,426.2 L240.2,427.2 L239.7,427.9 L239.0,428.3 L238.2,428.3 L237.5,427.9 L237.6,426.8 L236.2,425.7 L234.7,425.4 L234.1,425.7 L233.9,426.5 L234.4,426.9 L236.0,427.4 L236.4,427.7 L236.1,428.2 L234.0,429.0 L231.9,429.2 L231.4,429.6 L231.6,430.0 L233.1,430.5 L233.6,431.0 L232.1,432.1 L231.6,432.0 L230.6,430.9 L228.9,430.1 L226.7,430.4 L225.9,431.5 L224.6,431.9 L224.3,432.3 L224.6,434.5 L224.4,435.1 L223.3,435.8 L221.2,436.1 L220.8,436.4 L220.7,437.1 L219.7,437.7 L219.5,438.4 L220.3,440.6 L218.9,440.0 L215.7,439.5 Z" fill="rgba(139,26,43,0.15)" stroke="rgba(139,26,43,0.4)" stroke-width="0.5"/>
    <path class="region-area" d="M155.6,388.6 L155.3,387.0 L156.1,386.2 L156.9,384.2 L157.5,383.7 L160.2,384.0 L161.9,383.6 L161.9,383.1 L161.1,382.5 L161.5,382.5 L161.2,382.1 L158.9,380.5 L157.9,380.2 L156.1,382.4 L155.2,384.8 L157.1,369.7 L158.4,364.8 L158.9,358.3 L160.2,356.4 L160.6,355.9 L161.1,355.8 L161.5,356.0 L161.3,357.0 L162.0,357.8 L164.1,358.9 L165.8,359.6 L170.4,363.4 L172.0,369.3 L173.0,371.0 L174.0,372.0 L176.5,373.5 L176.8,374.1 L176.9,375.9 L177.5,376.6 L177.1,374.9 L177.4,374.1 L177.0,373.5 L175.6,372.6 L177.4,372.8 L178.8,373.5 L178.0,372.5 L175.5,371.8 L174.4,371.2 L173.8,370.4 L173.4,369.4 L172.2,363.5 L174.7,363.6 L175.5,362.8 L176.0,362.8 L176.4,363.2 L176.9,364.2 L179.1,364.5 L180.8,365.5 L181.0,365.9 L181.0,367.2 L181.8,368.3 L183.5,368.3 L185.4,369.0 L187.0,369.9 L188.6,370.3 L191.2,369.7 L192.1,370.0 L192.9,369.7 L194.9,369.7 L195.4,370.1 L196.0,371.4 L195.1,372.8 L195.2,373.5 L194.2,374.6 L194.1,375.0 L194.9,375.9 L194.9,376.1 L193.6,377.7 L194.0,377.6 L194.9,378.3 L199.3,378.7 L199.9,378.6 L201.3,377.5 L201.1,377.0 L203.3,377.5 L203.9,377.8 L203.1,378.5 L202.1,378.7 L202.4,379.8 L203.1,380.7 L201.1,380.8 L200.5,382.2 L200.1,382.2 L199.2,381.4 L198.8,381.4 L197.6,381.9 L197.3,382.7 L197.4,383.1 L197.8,383.4 L199.0,383.7 L199.3,384.0 L199.2,384.5 L196.5,387.0 L195.0,387.2 L193.5,388.8 L193.5,389.6 L194.3,390.3 L193.9,391.5 L194.4,392.4 L194.4,392.9 L193.8,392.8 L191.3,393.5 L192.5,394.7 L192.9,395.6 L191.9,396.3 L189.6,397.2 L187.7,396.0 L187.2,396.2 L187.1,397.6 L186.6,398.0 L182.3,397.7 L181.8,396.8 L182.2,395.5 L182.0,395.2 L180.5,394.3 L178.1,393.7 L177.6,392.9 L175.2,391.8 L174.8,391.5 L174.7,390.8 L174.2,390.3 L173.0,390.2 L168.1,391.1 L165.6,390.6 L163.6,390.9 L163.0,390.7 L163.6,389.3 L163.2,388.6 L160.8,387.8 L158.8,389.0 L155.5,389.7 L155.6,388.6 Z" fill="rgba(139,26,43,0.15)" stroke="rgba(139,26,43,0.4)" stroke-width="0.5"/>
  </g>

  <!-- Region numbers -->
  <g>
    <circle cx="316.2" cy="251.1" r="9" fill="#8B1A2B" stroke="#fff" stroke-width="0.8"/>
    <text x="316.2" y="254.6" text-anchor="middle" font-family="Inter, sans-serif" font-size="9" font-weight="700" fill="#fff">1</text>
    <circle cx="426.0" cy="260.8" r="9" fill="#8B1A2B" stroke="#fff" stroke-width="0.8"/>
    <text x="426.0" y="264.3" text-anchor="middle" font-family="Inter, sans-serif" font-size="9" font-weight="700" fill="#fff">2</text>
    <circle cx="208.6" cy="301.7" r="9" fill="#8B1A2B" stroke="#fff" stroke-width="0.8"/>
    <text x="208.6" y="305.2" text-anchor="middle" font-family="Inter, sans-serif" font-size="9" font-weight="700" fill="#fff">3</text>
    <circle cx="317.8" cy="306.6" r="9" fill="#8B1A2B" stroke="#fff" stroke-width="0.8"/>
    <text x="317.8" y="310.1" text-anchor="middle" font-family="Inter, sans-serif" font-size="9" font-weight="700" fill="#fff">4</text>
    <circle cx="350.3" cy="418.0" r="9" fill="#8B1A2B" stroke="#fff" stroke-width="0.8"/>
    <text x="350.3" y="421.5" text-anchor="middle" font-family="Inter, sans-serif" font-size="9" font-weight="700" fill="#fff">5</text>
    <circle cx="369.0" cy="320.3" r="9" fill="#8B1A2B" stroke="#fff" stroke-width="0.8"/>
    <text x="369.0" y="323.8" text-anchor="middle" font-family="Inter, sans-serif" font-size="9" font-weight="700" fill="#fff">6</text>
    <circle cx="391.3" cy="351.0" r="9" fill="#8B1A2B" stroke="#fff" stroke-width="0.8"/>
    <text x="391.3" y="354.5" text-anchor="middle" font-family="Inter, sans-serif" font-size="9" font-weight="700" fill="#fff">7</text>
    <circle cx="344.6" cy="386.8" r="9" fill="#8B1A2B" stroke="#fff" stroke-width="0.8"/>
    <text x="344.6" y="390.3" text-anchor="middle" font-family="Inter, sans-serif" font-size="9" font-weight="700" fill="#fff">8</text>
    <circle cx="375.6" cy="412.5" r="9" fill="#8B1A2B" stroke="#fff" stroke-width="0.8"/>
    <text x="375.6" y="416.0" text-anchor="middle" font-family="Inter, sans-serif" font-size="9" font-weight="700" fill="#fff">9</text>
    <circle cx="473.6" cy="460.8" r="9" fill="#8B1A2B" stroke="#fff" stroke-width="0.8"/>
    <text x="473.6" y="464.3" text-anchor="middle" font-family="Inter, sans-serif" font-size="9" font-weight="700" fill="#fff">10</text>
    <circle cx="291.1" cy="423.4" r="9" fill="#8B1A2B" stroke="#fff" stroke-width="0.8"/>
    <text x="291.1" y="426.9" text-anchor="middle" font-family="Inter, sans-serif" font-size="9" font-weight="700" fill="#fff">11</text>
    <circle cx="234.4" cy="408.3" r="9" fill="#8B1A2B" stroke="#fff" stroke-width="0.8"/>
    <text x="234.4" y="411.8" text-anchor="middle" font-family="Inter, sans-serif" font-size="9" font-weight="700" fill="#fff">12</text>
    <circle cx="176.3" cy="378.7" r="9" fill="#8B1A2B" stroke="#fff" stroke-width="0.8"/>
    <text x="176.3" y="382.2" text-anchor="middle" font-family="Inter, sans-serif" font-size="9" font-weight="700" fill="#fff">13</text>
  </g>

  <!-- Legend divider -->
  <line x1="28" y1="452" x2="492" y2="452" stroke="#8B1A2B" stroke-width="0.3" opacity="0.25"/>

  <!-- Legend -->
  <text x="32" y="470" font-family="Inter, sans-serif" font-size="8.5" fill="#2D1B14"><tspan font-weight="700">1. Champagne</tspan> : Chardonnay, Pinot Noir, Meunier</text>
  <text x="32" y="485" font-family="Inter, sans-serif" font-size="8.5" fill="#2D1B14"><tspan font-weight="700">2. Alsace</tspan> : Riesling, Gewurztraminer, Pinot Gris</text>
  <text x="32" y="500" font-family="Inter, sans-serif" font-size="8.5" fill="#2D1B14"><tspan font-weight="700">3. Loire</tspan> : Sauvignon Blanc, Chenin Blanc, Cab Franc</text>
  <text x="32" y="515" font-family="Inter, sans-serif" font-size="8.5" fill="#2D1B14"><tspan font-weight="700">4. Bourgogne</tspan> : Pinot Noir, Chardonnay</text>
  <text x="32" y="530" font-family="Inter, sans-serif" font-size="8.5" fill="#2D1B14"><tspan font-weight="700">5. Beaujolais</tspan> : Gamay</text>
  <text x="32" y="545" font-family="Inter, sans-serif" font-size="8.5" fill="#2D1B14"><tspan font-weight="700">6. Jura</tspan> : Savagnin, Chardonnay, Poulsard</text>
  <text x="32" y="560" font-family="Inter, sans-serif" font-size="8.5" fill="#2D1B14"><tspan font-weight="700">7. Savoie</tspan> : Jacquere, Altesse, Mondeuse</text>
  <text x="32" y="575" font-family="Inter, sans-serif" font-size="8.5" fill="#2D1B14"><tspan font-weight="700">8. Rhone</tspan> : Syrah, Grenache, Viognier, Mourvedre</text>
  <text x="32" y="590" font-family="Inter, sans-serif" font-size="8.5" fill="#2D1B14"><tspan font-weight="700">9. Provence</tspan> : Grenache, Cinsault, Mourvedre</text>
  <text x="32" y="605" font-family="Inter, sans-serif" font-size="8.5" fill="#2D1B14"><tspan font-weight="700">10. Korsika</tspan> : Nielluccio, Sciacarello, Vermentino</text>
  <text x="32" y="620" font-family="Inter, sans-serif" font-size="8.5" fill="#2D1B14"><tspan font-weight="700">11. Languedoc-Roussillon</tspan> : Grenache, Syrah, Carignan</text>
  <text x="32" y="635" font-family="Inter, sans-serif" font-size="8.5" fill="#2D1B14"><tspan font-weight="700">12. Sydvast</tspan> : Malbec, Tannat, Gros Manseng</text>
  <text x="32" y="650" font-family="Inter, sans-serif" font-size="8.5" fill="#2D1B14"><tspan font-weight="700">13. Bordeaux</tspan> : Cab Sauvignon, Merlot, Cab Franc</text>

  <!-- Footer -->
  <text x="260" y="672" text-anchor="middle" font-family="Inter, sans-serif" font-size="7" fill="#b0a89e">Cellar -- Sommelier Companion</text>
</svg>