<svg xmlns="http://www.w3.org/2000/svg" viewBox="0 0 420 809">
  <defs><filter id="shadow"><feDropShadow dx="1" dy="1.5" stdDeviation="2" flood-color="#2D1B14" flood-opacity="0.08"/></filter></defs>
  <text x="210" y="24" text-anchor="middle" font-family="Cormorant Garamond, Georgia, serif" font-size="16" font-weight="400" fill="#2D1B14" letter-spacing="5">ITALIEN</text>
  <text x="210" y="42" text-anchor="middle" font-family="Inter, sans-serif" font-size="8" fill="#8a7a6a" letter-spacing="1" class="region-label">Placera regionerna och namnge de viktigaste druvorna</text>
  <g filter="url(#shadow)">    <path d="M58.3,277.5 L60.2,278.7 L61.9,278.8 L65.6,277.8 L67.7,277.9 L68.6,277.7 L70.2,276.9 L71.6,276.6 L72.2,276.0 L72.7,275.8 L75.5,276.3 L77.3,277.4 L78.0,277.3 L79.3,277.7 L81.1,277.6 L81.2,277.1 L81.8,277.0 L82.2,276.1 L84.8,275.5 L85.3,275.1 L85.7,274.6 L86.1,272.9 L87.2,272.6 L88.4,271.9 L89.0,271.0 L89.0,270.0 L88.2,268.9 L87.4,268.4 L87.8,267.9 L88.3,267.5 L90.7,266.8 L92.1,265.6 L93.2,265.1 L93.6,264.7 L93.3,264.2 L94.1,263.4 L96.4,262.9 L97.2,263.0 L97.6,263.3 L97.7,264.0 L97.6,265.6 L97.1,267.7 L97.5,268.9 L99.5,269.6 L102.1,272.0 L104.1,272.7 L104.6,272.7 L105.4,272.4 L106.1,272.8 L107.8,272.9 L108.5,273.5 L106.7,275.9 L107.5,276.0 L109.5,276.9 L110.6,278.6 L110.7,279.1 L110.3,280.2 L111.4,280.0 L113.1,280.3 L114.0,279.6 L114.7,278.7 L114.8,278.2 L114.5,277.7 L113.4,277.4 L112.5,276.4 L113.5,275.6 L113.0,274.6 L113.1,274.3 L114.7,273.7 L115.0,273.1 L115.1,272.1 L115.6,271.6 L117.6,270.6 L118.1,269.7 L119.3,269.0 L120.7,266.2 L120.3,264.9 L120.3,263.8 L119.7,263.3 L120.4,262.0 L120.9,261.6 L122.8,261.6 L122.8,261.9 L123.7,262.5 L125.1,261.6 L125.4,265.0 L126.4,265.5 L127.0,266.5 L127.9,267.1 L131.8,267.3 L132.7,266.8 L132.7,265.9 L133.0,265.7 L134.3,266.0 L136.8,265.2 L138.5,265.1 L139.8,265.5 L140.1,267.1 L141.6,268.2 L141.9,268.7 L142.0,269.3 L142.9,269.3 L144.8,268.6 L145.2,268.1 L143.3,266.3 L143.5,265.6 L144.5,264.8 L144.7,264.2 L144.5,263.9 L141.9,263.4 L141.5,263.0 L142.0,262.5 L141.5,262.0 L141.7,260.6 L142.7,259.8 L143.2,258.6 L146.1,258.0 L146.8,258.0 L147.2,258.3 L147.3,259.5 L148.4,259.7 L148.9,260.1 L153.1,260.5 L153.7,259.4 L153.5,258.1 L152.9,257.8 L151.7,257.7 L151.2,257.3 L151.0,256.8 L151.7,256.0 L151.8,255.0 L152.6,254.5 L152.3,253.3 L153.1,252.6 L153.3,251.4 L154.2,251.9 L155.4,252.0 L158.7,251.5 L161.2,252.4 L161.5,252.7 L160.6,253.4 L160.8,253.6 L161.7,253.5 L162.8,253.9 L163.9,253.8 L164.9,254.2 L166.5,254.0 L168.4,254.1 L169.4,253.1 L169.9,252.8 L170.0,252.3 L171.0,250.1 L173.3,248.7 L177.2,248.0 L179.8,248.5 L181.5,247.5 L183.0,248.0 L185.0,247.7 L187.4,247.9 L188.8,248.5 L190.0,248.0 L191.2,247.9 L193.4,246.9 L194.6,246.6 L196.6,246.6 L199.4,245.6 L201.2,245.3 L201.8,245.5 L201.8,246.2 L201.2,246.8 L199.5,247.4 L199.2,247.9 L200.1,249.7 L200.1,249.9 L199.7,250.2 L200.9,250.5 L201.6,251.0 L203.5,251.3 L203.8,251.9 L203.6,253.5 L205.6,254.2 L206.4,255.7 L207.4,256.3 L210.0,256.8 L211.3,257.3 L213.3,257.2 L214.7,257.3 L215.7,257.7 L216.6,257.6 L219.1,258.5 L225.6,258.8 L227.9,259.2 L230.2,260.1 L231.4,260.1 L234.2,259.7 L237.1,259.8 L237.9,260.2 L239.1,260.3 L242.4,261.0 L243.3,261.0 L242.9,262.4 L242.6,262.9 L240.5,263.1 L238.5,264.6 L235.9,265.6 L234.7,267.0 L234.0,267.3 L234.5,268.6 L235.2,269.6 L236.0,269.5 L235.6,269.1 L236.8,269.2 L238.0,269.5 L239.3,270.3 L241.5,270.4 L241.7,270.9 L240.9,271.9 L237.8,273.6 L237.2,274.1 L237.4,274.3 L237.4,274.7 L236.6,275.2 L238.0,276.3 L240.6,275.8 L241.1,276.3 L240.7,277.4 L239.6,279.1 L239.5,280.1 L239.9,280.7 L242.1,281.1 L243.5,281.9 L245.4,282.5 L247.6,285.1 L248.6,285.6 L247.3,286.9 L246.0,287.0 L244.9,286.6 L243.6,286.6 L244.1,286.1 L246.2,286.1 L244.3,285.1 L244.8,284.9 L244.7,284.5 L244.0,283.6 L241.3,281.7 L239.7,281.2 L239.1,281.1 L238.6,281.4 L238.4,282.0 L238.5,282.6 L239.2,282.7 L235.0,284.4 L234.3,284.2 L235.2,283.9 L235.8,283.5 L235.5,283.0 L234.4,282.9 L234.1,282.5 L233.6,282.6 L230.9,282.1 L229.8,281.5 L228.5,281.8 L228.0,282.3 L227.2,281.7 L226.8,282.1 L227.2,282.7 L226.1,282.9 L225.8,283.3 L225.9,283.8 L226.4,284.0 L228.0,283.6 L226.7,284.6 L226.2,285.3 L222.3,285.7 L217.8,287.7 L207.9,290.9 L207.5,291.0 L208.2,289.9 L208.1,289.7 L208.5,289.7 L208.7,289.3 L209.2,289.6 L209.4,289.5 L209.0,289.1 L209.9,289.0 L210.2,289.3 L209.8,289.3 L209.8,289.5 L210.4,289.4 L210.6,288.7 L211.7,288.4 L212.3,287.8 L211.0,288.2 L210.3,287.6 L210.2,287.2 L208.9,287.9 L208.4,288.4 L208.7,288.9 L207.7,288.6 L207.3,288.7 L207.1,288.1 L206.8,288.6 L207.0,288.8 L207.9,289.1 L207.9,289.3 L207.0,289.5 L206.7,289.4 L206.8,289.1 L205.9,289.1 L204.7,289.5 L203.7,290.2 L203.2,291.0 L203.3,291.2 L203.0,291.7 L203.3,292.1 L203.1,292.4 L202.9,293.1 L202.4,293.3 L202.6,293.6 L202.1,294.3 L201.3,294.6 L200.4,294.4 L200.3,295.0 L200.8,295.8 L201.2,295.9 L201.7,295.5 L201.6,294.8 L202.2,294.9 L202.4,296.1 L202.0,296.3 L202.4,296.7 L202.3,297.1 L202.5,297.4 L203.5,297.6 L203.3,297.5 L204.7,296.7 L204.4,297.1 L205.0,298.3 L205.2,300.3 L204.7,300.1 L204.7,299.5 L204.4,300.6 L204.6,300.9 L205.2,300.9 L205.0,300.5 L205.6,300.8 L206.6,302.0 L206.6,302.2 L206.0,302.4 L206.4,302.8 L206.9,302.0 L206.4,301.3 L207.6,301.9 L207.5,302.2 L209.6,303.7 L210.0,303.5 L209.6,303.5 L209.6,303.3 L210.1,303.3 L210.9,303.9 L210.4,305.2 L210.0,305.3 L209.6,306.9 L208.5,308.0 L207.9,307.1 L208.3,306.5 L208.3,305.8 L208.0,305.7 L207.4,306.1 L207.0,307.0 L207.7,307.2 L207.5,307.6 L207.1,307.7 L207.1,307.9 L207.9,308.0 L207.7,308.5 L206.6,308.8 L204.5,307.4 L203.5,307.9 L203.5,308.0 L203.9,308.0 L203.0,311.1 L203.2,312.3 L204.1,314.1 L204.0,317.3 L205.0,320.8 L205.6,321.6 L205.9,322.8 L206.4,323.8 L209.4,326.9 L211.3,328.2 L212.1,328.4 L213.6,329.9 L215.3,331.0 L217.1,331.5 L218.4,331.7 L220.0,332.6 L221.9,333.1 L222.4,333.6 L230.9,339.0 L234.9,340.9 L237.0,341.5 L237.8,340.9 L238.1,341.0 L238.9,341.5 L239.9,342.6 L240.9,342.9 L241.1,343.3 L240.9,343.7 L245.5,351.9 L245.7,353.1 L247.0,354.9 L247.8,358.3 L250.0,364.0 L251.6,366.8 L253.3,368.9 L253.6,369.6 L257.6,373.1 L262.3,375.8 L263.4,377.2 L267.1,379.9 L271.2,381.3 L271.7,383.4 L272.1,383.8 L273.1,384.1 L275.7,385.3 L279.1,385.9 L280.5,387.0 L282.6,388.0 L283.8,388.2 L287.0,388.1 L291.6,388.7 L296.2,388.1 L300.7,388.3 L307.7,387.7 L310.8,388.4 L311.4,389.1 L311.9,389.1 L311.8,389.5 L312.3,391.5 L312.0,392.3 L311.0,393.1 L309.9,393.4 L307.7,395.0 L304.9,396.1 L304.2,396.8 L303.9,397.9 L304.1,399.0 L304.5,399.9 L305.8,401.1 L307.5,402.0 L309.3,402.4 L310.1,403.0 L315.3,404.8 L319.7,406.6 L321.3,406.9 L323.4,408.1 L329.9,409.8 L330.5,410.2 L330.9,410.0 L331.4,410.4 L336.2,411.6 L340.2,413.3 L342.3,414.4 L344.2,416.3 L346.1,417.1 L347.8,418.5 L349.8,419.3 L352.2,419.8 L355.3,420.8 L358.0,422.3 L360.1,422.6 L361.1,423.0 L361.1,423.6 L362.5,423.5 L362.7,424.2 L363.5,424.9 L363.3,426.1 L365.6,427.6 L368.9,428.9 L369.5,429.6 L370.7,430.5 L371.8,431.8 L372.6,432.2 L374.4,434.1 L376.2,437.3 L376.6,437.7 L376.5,438.0 L376.6,438.6 L375.9,439.2 L375.7,440.0 L374.3,440.9 L373.7,442.1 L373.2,443.9 L373.4,444.9 L373.1,446.6 L372.5,447.2 L371.7,447.1 L370.1,446.2 L368.2,446.0 L364.3,444.0 L362.2,441.7 L362.2,441.5 L362.9,441.3 L362.7,440.5 L361.4,440.0 L362.4,439.5 L362.6,438.9 L362.2,438.2 L360.3,436.7 L360.0,435.3 L359.5,434.6 L359.9,434.6 L359.9,434.5 L358.5,433.6 L348.8,433.1 L346.8,432.4 L345.7,432.4 L344.8,431.8 L340.5,430.3 L340.2,429.9 L341.3,429.3 L341.5,428.9 L340.9,428.4 L341.5,428.2 L342.8,428.4 L343.4,428.2 L343.6,427.7 L341.9,428.0 L342.1,427.8 L341.5,427.6 L339.9,428.2 L338.9,427.3 L336.0,427.2 L334.0,427.9 L332.2,429.2 L328.6,433.2 L327.2,436.0 L326.8,436.2 L325.7,437.5 L324.2,438.5 L323.7,439.2 L323.5,440.6 L324.4,442.5 L323.2,443.8 L321.9,444.7 L320.5,446.9 L320.5,447.8 L320.8,448.5 L321.6,449.3 L321.2,450.1 L322.0,450.9 L324.2,451.9 L327.7,452.1 L328.6,452.3 L329.5,452.9 L330.4,453.9 L332.0,454.6 L333.3,455.4 L334.9,455.8 L336.2,457.0 L337.1,457.5 L338.1,457.9 L339.0,458.0 L338.0,459.9 L337.8,461.8 L338.6,463.4 L338.0,465.9 L338.1,466.7 L339.0,468.1 L340.3,468.4 L339.4,469.1 L339.4,470.3 L338.2,471.2 L337.5,472.0 L337.2,471.5 L336.6,471.4 L335.2,471.8 L334.5,471.2 L333.4,470.9 L330.1,471.5 L327.1,472.6 L323.1,474.8 L321.8,476.9 L321.7,477.5 L322.1,477.8 L322.4,480.4 L322.9,482.3 L322.7,485.0 L321.0,486.6 L319.9,487.3 L316.3,488.6 L315.4,489.2 L311.6,493.0 L311.1,493.9 L310.4,496.8 L309.7,498.0 L309.1,498.6 L307.0,499.2 L305.3,498.8 L300.3,499.0 L298.2,498.2 L297.1,497.2 L296.8,496.7 L296.9,496.2 L297.5,495.7 L296.5,494.4 L297.2,493.0 L296.8,490.8 L297.2,490.2 L301.0,489.2 L301.7,488.6 L302.2,487.2 L304.3,483.8 L304.6,482.6 L304.6,481.7 L304.2,480.9 L302.6,479.8 L302.3,479.4 L302.4,479.0 L302.6,478.6 L304.3,478.1 L307.0,476.8 L310.3,477.0 L311.1,476.7 L311.9,476.2 L312.5,475.4 L313.1,473.2 L312.9,471.5 L312.2,470.8 L311.2,470.5 L309.2,467.1 L307.9,459.7 L306.8,457.1 L305.1,455.0 L303.5,454.0 L302.4,451.2 L301.6,450.0 L301.1,447.2 L301.1,447.3 L300.5,446.2 L300.9,445.2 L300.7,444.6 L299.8,443.5 L299.4,442.5 L296.7,439.9 L296.5,439.4 L294.0,439.4 L292.0,440.7 L291.1,441.5 L290.6,441.7 L288.7,441.4 L287.9,440.6 L286.5,440.7 L287.0,440.2 L286.5,439.5 L285.7,438.8 L284.5,438.2 L282.8,436.8 L282.4,436.7 L280.5,436.9 L279.3,435.7 L278.0,435.1 L277.5,435.2 L276.8,434.8 L276.7,434.4 L277.3,433.6 L277.5,433.0 L277.4,432.3 L279.1,431.6 L279.2,430.5 L276.2,425.7 L274.7,424.0 L273.2,423.0 L272.4,422.8 L270.7,423.6 L268.9,423.6 L267.4,424.4 L266.6,424.5 L265.0,424.0 L263.2,424.5 L261.0,425.7 L260.7,425.4 L260.6,424.8 L260.9,424.2 L262.3,423.9 L263.8,422.5 L264.7,422.3 L264.7,421.3 L263.8,420.6 L263.2,420.7 L262.5,420.4 L259.7,418.3 L257.7,418.5 L257.2,419.4 L256.6,419.4 L256.1,418.9 L254.2,418.4 L253.8,418.5 L253.6,418.8 L253.8,419.8 L252.9,419.7 L252.7,419.5 L253.0,418.3 L252.8,417.3 L252.1,416.0 L250.6,413.9 L249.3,413.2 L249.1,412.1 L247.4,409.8 L245.7,408.1 L243.8,406.9 L242.2,406.9 L242.0,406.7 L240.3,406.8 L239.5,407.3 L239.8,408.1 L238.9,408.1 L238.1,407.5 L237.7,407.7 L237.1,407.2 L232.8,405.7 L231.8,405.7 L229.0,406.1 L227.0,406.9 L226.4,407.6 L225.7,407.7 L225.1,407.5 L224.5,406.3 L223.3,404.7 L220.9,402.8 L219.5,402.3 L216.9,402.1 L214.3,401.0 L213.7,401.5 L211.3,398.8 L208.6,396.4 L205.2,394.1 L202.8,393.5 L202.1,392.6 L201.9,390.9 L200.9,389.5 L200.2,388.8 L197.2,387.1 L196.7,386.3 L195.7,386.2 L193.9,385.1 L191.4,385.2 L190.9,384.3 L189.2,382.6 L188.8,381.5 L186.7,378.4 L183.4,376.5 L182.0,376.2 L179.4,375.3 L179.4,375.1 L178.9,374.9 L177.7,375.1 L175.6,374.5 L174.3,374.6 L173.6,376.0 L172.8,376.0 L172.2,375.5 L171.4,375.3 L170.9,374.6 L171.2,373.9 L173.0,374.0 L173.7,372.9 L173.6,371.7 L172.8,370.5 L172.0,370.7 L171.2,369.3 L170.7,369.2 L170.6,368.6 L168.6,367.7 L168.2,366.5 L166.9,365.6 L165.4,365.0 L161.0,363.9 L161.7,363.5 L162.0,363.0 L162.0,361.9 L162.3,361.4 L161.9,360.7 L159.6,359.9 L158.3,359.6 L156.9,359.6 L155.7,359.9 L155.9,360.3 L155.1,360.5 L154.6,360.1 L154.0,358.7 L155.1,357.8 L155.7,356.3 L155.6,355.3 L155.9,354.4 L155.4,351.6 L152.9,347.7 L151.1,345.9 L149.8,345.3 L149.6,344.8 L148.9,342.7 L148.1,336.0 L147.7,335.0 L146.6,333.0 L145.8,332.0 L144.5,331.4 L143.3,330.1 L140.5,329.1 L139.7,329.5 L137.7,328.2 L137.4,328.3 L136.5,327.8 L136.0,327.8 L136.2,328.0 L135.8,328.2 L136.5,328.8 L136.2,329.3 L136.5,329.5 L136.1,329.6 L135.8,329.0 L134.5,328.6 L132.0,327.0 L130.3,326.7 L128.9,325.5 L126.9,324.6 L126.5,324.0 L125.2,324.1 L124.8,323.7 L123.4,323.2 L123.3,322.6 L119.5,321.0 L119.0,321.5 L118.9,322.3 L117.1,321.7 L117.2,321.4 L116.7,320.7 L115.9,320.4 L113.1,320.0 L111.0,319.4 L108.8,319.3 L108.3,318.9 L106.5,318.8 L105.8,318.9 L104.2,319.8 L103.5,319.8 L101.8,320.7 L101.0,320.9 L98.3,322.3 L97.7,322.9 L97.8,323.4 L97.4,324.1 L96.8,324.5 L96.7,325.4 L96.3,325.7 L93.3,326.7 L92.5,327.2 L91.8,327.9 L91.8,328.8 L91.4,329.5 L90.1,330.6 L89.6,331.2 L90.0,332.0 L89.4,332.1 L88.6,332.8 L87.9,333.0 L87.3,333.6 L86.3,333.9 L84.3,334.8 L79.5,335.7 L78.1,336.4 L72.8,336.7 L71.6,336.5 L70.9,334.5 L73.1,332.3 L75.2,330.9 L75.8,329.7 L76.8,328.9 L76.9,328.4 L75.5,326.8 L75.8,325.9 L75.0,325.8 L73.9,326.3 L68.2,327.4 L67.1,327.3 L66.3,326.7 L64.7,326.3 L61.7,325.0 L59.0,324.1 L57.6,324.2 L57.0,323.9 L56.6,323.1 L55.5,322.4 L54.8,321.4 L54.1,320.7 L54.0,320.3 L54.3,319.3 L55.4,318.7 L53.9,317.6 L53.2,316.8 L53.1,316.0 L53.4,315.6 L54.8,314.8 L56.2,313.4 L55.9,312.9 L56.1,312.3 L56.6,311.9 L57.2,311.6 L59.2,311.8 L58.2,310.3 L57.6,308.8 L57.8,307.8 L57.2,307.3 L55.8,306.9 L53.5,307.0 L50.6,305.6 L50.2,305.1 L50.0,302.7 L49.3,302.3 L48.0,302.1 L47.7,301.7 L47.6,301.0 L46.7,300.2 L48.5,299.2 L49.4,299.2 L50.4,298.7 L53.4,299.5 L54.3,299.2 L54.0,298.7 L54.2,298.5 L55.3,298.4 L56.5,297.3 L58.5,296.8 L59.2,297.2 L59.9,296.3 L60.7,295.9 L60.3,294.1 L61.9,292.5 L62.1,291.7 L60.4,291.0 L59.7,290.1 L57.2,288.9 L56.9,287.4 L56.4,286.6 L56.8,285.7 L56.7,285.3 L52.6,283.8 L52.0,283.2 L51.7,281.5 L51.8,280.6 L52.2,280.2 L53.4,279.9 L53.9,280.2 L54.2,279.7 L56.3,279.3 L56.8,279.0 L57.6,277.8 L58.3,277.5 Z" fill="#faf5ef" stroke="#8B1A2B" stroke-width="1.3" stroke-linejoin="round"/>
    <path d="M196.1,529.2 L197.6,530.4 L197.6,531.0 L197.0,531.8 L196.0,531.7 L195.1,531.1 L194.1,529.8 L194.0,529.4 L194.7,529.0 L195.8,529.5 L196.1,529.2 Z" fill="#faf5ef" stroke="#8B1A2B" stroke-width="1.3" stroke-linejoin="round"/>
    <path d="M293.9,488.5 L297.3,489.3 L297.0,489.7 L296.5,489.7 L295.0,490.6 L294.7,491.4 L295.2,491.4 L293.8,493.1 L293.1,494.6 L290.1,497.6 L286.6,502.1 L285.9,502.6 L285.1,503.5 L285.0,503.9 L285.3,505.0 L284.8,505.6 L283.8,508.9 L282.4,510.2 L281.8,511.4 L281.8,514.6 L282.1,515.5 L284.2,516.6 L285.3,516.7 L286.2,517.5 L286.5,518.1 L286.0,517.8 L285.3,518.5 L285.4,518.0 L284.9,517.8 L284.6,518.0 L284.7,518.3 L284.3,518.9 L284.6,519.7 L285.2,520.3 L285.7,520.0 L286.1,520.2 L286.1,520.4 L285.6,520.5 L286.1,521.3 L287.6,521.8 L287.6,522.9 L287.2,522.7 L287.1,523.3 L288.1,523.5 L288.4,524.3 L287.8,524.1 L286.7,524.6 L286.8,524.8 L286.5,525.0 L286.7,525.4 L286.0,525.4 L284.1,526.2 L283.6,526.7 L282.2,529.9 L281.8,530.2 L282.5,531.6 L282.9,533.6 L281.8,534.2 L281.3,534.1 L280.1,533.1 L279.4,532.8 L278.7,533.2 L276.0,532.1 L275.0,532.2 L273.2,532.9 L273.0,532.6 L272.6,532.8 L272.2,532.4 L270.5,532.2 L269.8,531.4 L267.7,530.7 L267.2,530.8 L265.0,530.3 L262.5,526.1 L261.8,525.4 L259.3,523.4 L257.3,522.4 L255.0,521.5 L254.0,521.4 L250.9,521.6 L249.8,522.0 L248.6,521.8 L246.9,520.8 L243.7,519.9 L239.6,517.0 L236.4,516.3 L231.5,513.7 L230.9,512.7 L229.1,511.6 L228.7,511.1 L225.3,510.8 L224.6,511.0 L224.1,510.6 L223.8,509.8 L223.1,509.2 L222.3,508.9 L220.0,508.7 L214.4,509.0 L213.8,508.5 L212.2,506.6 L210.2,506.2 L209.3,505.1 L208.8,503.6 L208.0,502.5 L208.0,502.2 L209.0,501.8 L209.4,500.2 L209.0,499.3 L209.7,498.2 L210.1,497.0 L210.1,496.6 L209.8,496.3 L210.6,496.1 L212.1,494.9 L213.0,495.2 L214.2,494.4 L214.5,493.7 L215.7,493.9 L216.2,493.4 L216.1,492.1 L216.4,491.6 L216.6,491.9 L217.2,491.9 L218.1,493.7 L218.8,494.8 L221.1,496.1 L222.3,496.0 L224.6,495.2 L225.5,494.6 L225.8,494.3 L225.4,493.0 L226.3,492.3 L226.2,492.1 L226.6,491.7 L229.6,492.0 L230.2,491.8 L230.5,491.2 L230.9,491.3 L232.7,490.8 L232.9,491.4 L234.1,492.1 L234.2,493.0 L234.7,494.1 L238.1,493.9 L238.8,494.3 L239.0,495.4 L241.9,496.9 L243.6,497.3 L243.4,497.5 L245.7,497.7 L248.7,496.8 L249.8,496.1 L251.7,495.9 L252.1,495.6 L253.8,496.3 L255.7,496.1 L259.1,496.5 L262.2,496.1 L263.5,495.6 L264.4,495.9 L265.7,495.7 L269.1,494.7 L270.0,494.2 L271.9,492.6 L273.6,492.5 L276.7,491.7 L277.7,491.9 L278.4,492.5 L280.6,492.7 L281.1,493.3 L281.7,493.4 L284.1,492.6 L285.9,490.2 L285.8,489.6 L286.1,489.9 L286.0,490.9 L287.3,491.2 L290.3,490.5 L293.9,488.5 Z" fill="#faf5ef" stroke="#8B1A2B" stroke-width="1.3" stroke-linejoin="round"/>
    <path d="M97.7,466.4 L98.2,467.4 L98.8,467.3 L98.1,467.9 L98.2,468.1 L97.5,470.1 L96.7,470.3 L95.1,467.5 L95.2,466.7 L95.0,466.7 L95.0,466.5 L95.4,466.0 L96.1,466.3 L97.7,466.4 Z" fill="#faf5ef" stroke="#8B1A2B" stroke-width="1.3" stroke-linejoin="round"/>
    <path d="M93.9,463.9 L94.0,465.9 L93.9,466.3 L93.4,466.5 L92.4,466.3 L92.5,465.8 L91.6,464.9 L91.8,464.4 L93.9,463.9 Z" fill="#faf5ef" stroke="#8B1A2B" stroke-width="1.3" stroke-linejoin="round"/>
    <path d="M250.0,422.1 L249.3,422.0 L248.5,422.3 L247.4,421.7 L247.9,420.8 L247.7,420.4 L248.3,420.4 L250.6,421.2 L250.6,421.7 L250.0,422.1 Z" fill="#faf5ef" stroke="#8B1A2B" stroke-width="1.3" stroke-linejoin="round"/>
    <path d="M93.0,412.3 L92.3,412.6 L92.2,414.0 L91.2,414.0 L91.7,412.7 L93.0,411.9 L93.1,410.9 L93.8,410.9 L94.4,410.4 L94.5,410.7 L94.9,411.1 L94.8,411.8 L94.6,412.1 L93.0,412.3 Z" fill="#faf5ef" stroke="#8B1A2B" stroke-width="1.3" stroke-linejoin="round"/>
    <path d="M135.0,426.1 L136.0,426.9 L135.2,428.9 L134.2,430.7 L133.8,431.1 L132.8,431.4 L132.0,432.6 L131.0,433.3 L130.4,434.3 L130.6,436.1 L131.2,437.5 L133.4,439.2 L132.3,441.7 L132.1,442.6 L132.4,443.4 L132.7,443.2 L133.0,443.4 L132.9,443.6 L132.4,443.8 L132.0,444.5 L132.2,445.1 L132.0,445.3 L132.4,445.6 L132.0,446.0 L131.6,447.2 L131.8,449.3 L131.1,451.2 L131.2,453.5 L130.5,455.3 L130.9,455.8 L129.7,459.4 L129.8,460.2 L130.7,461.0 L129.9,461.2 L129.2,461.9 L128.8,462.6 L129.0,463.3 L128.7,463.6 L129.1,464.1 L128.8,465.1 L127.6,465.8 L127.4,466.3 L127.1,466.1 L127.3,465.8 L126.8,465.5 L125.3,465.8 L122.6,463.8 L121.2,463.1 L121.0,463.3 L119.1,462.9 L118.5,463.1 L117.7,464.1 L116.9,463.8 L115.1,462.3 L114.8,462.5 L114.1,462.0 L113.5,461.9 L113.8,462.1 L113.7,462.6 L114.1,462.9 L115.3,463.0 L115.3,463.4 L114.1,464.3 L113.6,465.2 L113.6,466.4 L114.3,467.8 L113.9,468.4 L113.6,469.4 L113.8,469.4 L113.5,469.5 L113.2,469.4 L110.2,471.9 L109.7,472.0 L109.0,472.6 L107.7,471.8 L107.7,472.4 L106.6,471.4 L105.2,471.1 L103.9,471.7 L103.4,472.2 L103.5,472.8 L103.1,473.0 L103.0,472.8 L103.2,472.3 L102.0,472.0 L102.4,471.4 L102.4,470.7 L102.1,470.2 L101.4,470.3 L100.9,467.7 L100.5,467.8 L99.4,467.5 L99.7,466.9 L99.4,466.7 L98.8,467.0 L98.3,465.9 L98.0,465.8 L97.6,466.0 L97.4,464.6 L97.0,464.3 L96.8,464.4 L96.9,464.6 L96.7,464.5 L96.4,463.7 L95.9,463.5 L95.7,463.1 L95.8,462.6 L97.2,461.4 L97.4,460.9 L96.9,460.3 L96.9,459.8 L96.0,459.3 L95.7,458.7 L96.6,457.4 L96.1,456.2 L97.4,454.7 L98.2,453.3 L98.0,453.0 L98.2,452.7 L97.6,449.4 L97.7,448.3 L97.7,448.1 L98.4,448.3 L99.7,449.8 L100.3,450.0 L101.1,449.8 L99.4,449.3 L99.4,448.8 L100.5,447.5 L99.7,448.1 L100.6,446.9 L100.8,445.6 L100.5,444.9 L99.9,444.3 L99.1,444.0 L98.2,443.9 L97.4,444.3 L97.6,444.5 L98.2,444.3 L97.7,444.8 L97.4,445.5 L97.3,445.3 L97.5,445.0 L96.3,444.0 L96.5,443.2 L96.3,441.9 L96.7,440.9 L96.3,440.5 L95.8,440.6 L96.5,440.2 L98.4,439.8 L99.0,438.6 L98.2,437.0 L98.1,435.6 L98.6,434.3 L98.6,433.4 L97.6,432.4 L96.9,432.0 L96.7,432.2 L96.1,431.8 L96.3,429.8 L95.9,428.6 L95.5,427.9 L94.6,427.4 L94.0,425.5 L93.5,425.1 L92.8,425.1 L91.4,425.7 L90.8,425.5 L91.4,424.6 L90.7,424.4 L90.3,424.7 L89.9,425.9 L89.5,425.1 L89.3,424.2 L90.2,423.8 L90.9,422.4 L90.2,422.2 L89.4,421.4 L89.1,421.4 L91.3,417.1 L91.2,416.2 L90.3,415.8 L90.7,414.8 L91.2,414.5 L91.3,414.9 L91.7,414.9 L91.9,415.1 L91.8,416.3 L93.1,417.6 L94.0,418.0 L98.6,418.7 L99.8,418.6 L102.0,417.9 L102.9,417.1 L103.1,416.7 L105.0,416.0 L106.6,416.2 L108.2,415.3 L110.0,413.4 L109.8,413.2 L110.9,412.8 L111.4,412.2 L112.8,411.2 L113.2,410.5 L116.1,410.0 L116.8,409.4 L117.0,409.6 L117.6,408.7 L117.6,407.6 L117.8,407.1 L119.5,406.6 L119.7,407.0 L120.2,406.9 L120.5,407.3 L120.5,408.3 L120.8,408.4 L120.7,408.0 L121.0,407.7 L121.0,408.4 L121.7,408.3 L122.3,408.7 L122.4,408.0 L123.8,408.8 L123.8,408.7 L124.8,408.8 L124.4,409.4 L125.3,410.2 L125.2,410.7 L125.3,411.3 L126.1,410.4 L125.7,410.0 L126.1,409.8 L127.1,410.0 L127.6,409.7 L127.8,410.0 L127.6,410.2 L128.2,410.5 L128.6,410.4 L128.8,410.5 L128.6,411.2 L128.2,411.7 L128.0,411.3 L127.3,413.4 L127.8,413.4 L127.6,413.0 L128.1,412.8 L128.4,412.9 L128.5,413.2 L128.4,413.6 L128.6,413.4 L129.0,413.6 L129.4,413.3 L130.1,413.3 L131.4,413.8 L131.1,414.1 L129.8,413.8 L129.3,414.0 L129.1,414.9 L128.8,415.3 L128.9,415.6 L127.3,415.7 L127.3,415.8 L127.0,415.9 L127.3,416.2 L128.0,416.0 L129.0,416.4 L130.3,416.0 L130.9,416.0 L130.1,416.8 L131.2,417.3 L131.4,417.8 L132.0,417.6 L132.4,418.0 L133.1,418.1 L131.9,418.6 L132.2,419.1 L131.8,419.0 L131.3,419.4 L131.6,419.7 L131.6,419.3 L132.6,420.5 L132.9,421.4 L133.7,422.7 L134.0,425.1 L134.7,425.4 L135.0,426.1 Z" fill="#faf5ef" stroke="#8B1A2B" stroke-width="1.3" stroke-linejoin="round"/>
    <path d="M153.0,362.7 L152.7,363.2 L152.9,363.9 L152.7,364.3 L151.5,365.0 L152.5,365.6 L152.7,366.2 L152.3,366.5 L152.2,366.3 L151.3,366.1 L150.9,365.4 L150.1,365.0 L149.8,365.0 L149.5,365.6 L149.2,365.1 L148.1,365.5 L147.6,365.2 L147.1,365.8 L144.8,365.7 L143.7,365.2 L143.6,364.4 L143.9,364.0 L144.5,363.7 L145.7,363.5 L147.0,363.9 L148.1,363.9 L147.9,363.7 L148.3,363.5 L148.3,363.2 L149.8,363.3 L149.7,363.7 L150.4,363.8 L151.3,363.1 L151.8,362.1 L152.2,362.0 L152.7,362.2 L153.0,362.7 Z" fill="#faf5ef" stroke="#8B1A2B" stroke-width="1.3" stroke-linejoin="round"/></g>
  <g>    <path class="region-area" d="M75.8,325.9 L75.0,325.8 L73.9,326.3 L68.2,327.4 L67.1,327.3 L66.3,326.7 L64.7,326.3 L61.7,325.0 L59.0,324.1 L57.6,324.2 L57.0,323.9 L56.6,323.1 L55.5,322.4 L54.1,320.7 L54.3,319.3 L55.4,318.7 L53.9,317.6 L53.2,316.8 L53.1,316.0 L54.8,314.8 L56.2,313.4 L55.9,312.9 L56.6,311.9 L57.2,311.6 L59.2,311.8 L58.2,310.3 L57.6,308.8 L57.8,307.8 L57.2,307.3 L55.8,306.9 L53.5,307.0 L50.6,305.6 L50.2,305.1 L50.0,302.7 L48.0,302.1 L47.6,301.0 L46.7,300.2 L48.5,299.2 L49.4,299.2 L50.4,298.7 L53.4,299.5 L54.3,299.2 L54.0,298.7 L54.2,298.5 L55.3,298.4 L56.5,297.3 L58.5,296.8 L59.1,297.1 L59.4,297.0 L60.7,295.9 L60.3,294.1 L62.1,292.0 L62.1,291.7 L60.4,291.0 L59.8,290.2 L61.3,289.0 L61.7,288.9 L61.5,289.3 L61.7,289.4 L63.9,289.7 L68.4,288.6 L70.6,287.2 L72.6,286.8 L76.3,287.5 L77.9,287.5 L82.1,286.4 L83.2,285.1 L82.9,284.5 L83.1,282.9 L81.9,281.9 L81.2,277.9 L81.4,277.6 L81.2,277.1 L81.8,277.0 L81.9,276.5 L82.6,275.9 L85.0,275.4 L85.7,274.6 L86.1,272.9 L87.2,272.6 L88.4,271.9 L89.0,271.0 L89.0,270.0 L88.2,268.9 L87.4,268.4 L87.8,267.9 L88.3,267.5 L90.7,266.8 L92.1,265.6 L93.2,265.1 L93.6,264.7 L93.3,264.2 L94.1,263.4 L96.4,262.9 L97.2,263.0 L97.6,263.3 L97.7,264.0 L97.6,265.6 L97.1,267.7 L97.5,268.9 L99.5,269.6 L102.1,272.0 L104.1,272.7 L105.6,272.4 L105.5,274.8 L101.7,277.7 L102.1,280.0 L101.0,281.0 L102.2,282.7 L103.4,283.2 L103.4,284.2 L104.1,284.4 L104.3,285.2 L103.8,285.5 L104.7,286.4 L104.7,287.0 L104.9,287.2 L105.2,288.6 L106.8,289.4 L107.8,291.2 L108.4,291.8 L105.7,292.7 L106.4,293.2 L105.2,293.8 L104.8,294.6 L103.8,294.4 L102.7,293.2 L100.5,293.0 L99.2,295.1 L99.7,295.4 L99.8,296.1 L100.2,296.4 L100.2,297.1 L100.9,297.7 L100.7,298.1 L100.8,298.5 L101.3,299.3 L102.2,300.1 L103.3,301.9 L103.9,302.4 L104.3,302.2 L106.2,302.4 L108.9,301.5 L109.8,301.6 L109.8,303.1 L112.1,303.7 L112.5,304.9 L114.6,306.4 L114.4,307.2 L114.7,307.6 L115.4,308.1 L117.4,308.4 L118.8,310.8 L118.6,314.2 L117.4,314.7 L116.4,314.5 L115.8,313.7 L114.2,313.3 L111.5,311.8 L110.8,311.9 L110.5,312.5 L109.6,313.1 L110.5,313.8 L110.4,315.1 L108.3,315.3 L107.9,316.0 L106.8,316.9 L106.6,316.7 L106.6,316.1 L105.5,314.7 L102.9,314.5 L102.3,314.6 L101.9,315.2 L102.0,315.7 L101.0,316.5 L96.7,316.5 L95.3,317.5 L93.9,317.0 L92.3,316.0 L91.9,316.0 L90.8,317.6 L91.2,318.4 L91.1,319.1 L89.9,319.7 L89.2,321.0 L87.3,322.2 L87.5,322.6 L87.3,324.5 L87.6,325.5 L86.7,326.4 L85.6,326.2 L85.0,326.5 L84.9,326.8 L85.4,327.2 L85.4,327.6 L80.8,327.3 L78.7,326.8 L77.9,327.4 L78.1,328.0 L76.7,328.3 L75.5,326.8 L75.8,325.9 Z" fill="rgba(139,26,43,0.15)" stroke="rgba(139,26,43,0.4)" stroke-width="0.5"/>
    <path class="region-area" d="M128.0,299.6 L128.1,300.7 L126.9,300.2 L124.8,300.3 L123.7,301.8 L121.5,305.5 L121.6,306.2 L122.8,306.7 L123.0,307.1 L122.9,307.9 L121.5,309.8 L122.0,311.2 L121.2,311.6 L120.5,311.4 L120.0,310.9 L119.8,311.9 L119.5,312.0 L118.7,311.9 L118.7,310.5 L117.3,308.3 L115.2,307.9 L114.4,307.3 L114.6,306.4 L112.3,304.8 L112.1,303.7 L109.8,303.1 L109.8,301.6 L108.9,301.5 L106.2,302.4 L104.3,302.2 L103.9,302.4 L103.3,301.9 L102.2,300.1 L101.3,299.3 L100.8,298.5 L100.7,298.1 L100.9,297.7 L100.2,297.1 L100.2,296.5 L99.2,294.9 L100.4,293.1 L100.8,292.9 L102.7,293.2 L103.8,294.4 L104.8,294.6 L105.2,293.8 L106.4,293.2 L105.7,292.7 L108.4,291.8 L107.8,291.2 L106.8,289.4 L105.2,288.6 L104.9,287.2 L104.7,287.0 L104.7,286.4 L103.8,285.5 L104.3,285.2 L104.1,284.4 L103.4,284.2 L103.4,283.2 L102.2,282.7 L101.1,281.2 L101.1,280.9 L102.1,280.0 L101.7,277.9 L105.5,274.9 L105.7,274.3 L105.6,272.4 L106.1,272.8 L107.8,272.9 L108.5,273.5 L106.7,275.9 L107.5,276.0 L109.5,276.9 L110.6,278.6 L110.3,280.2 L111.4,280.0 L113.1,280.3 L114.0,279.6 L114.8,278.2 L114.5,277.7 L113.4,277.4 L112.5,276.4 L113.5,275.6 L113.0,274.6 L113.1,274.3 L114.7,273.7 L115.0,273.1 L115.1,272.1 L115.6,271.6 L117.6,270.6 L118.1,269.7 L119.3,269.0 L120.7,266.2 L120.3,264.9 L120.3,263.8 L119.7,263.3 L120.4,262.0 L120.9,261.6 L122.8,261.6 L122.8,261.9 L123.7,262.5 L125.1,261.6 L125.4,265.0 L126.4,265.5 L127.0,266.5 L127.9,267.1 L131.8,267.3 L132.7,266.8 L132.7,265.9 L133.0,265.7 L134.3,266.0 L136.8,265.2 L138.5,265.1 L139.8,265.5 L140.1,267.1 L141.6,268.2 L142.0,269.3 L142.9,269.3 L144.8,268.6 L145.2,268.1 L143.3,266.3 L143.5,265.6 L144.5,264.8 L144.7,264.2 L144.5,263.9 L141.9,263.4 L141.5,263.0 L142.0,262.5 L141.5,262.0 L141.7,260.6 L142.7,259.8 L143.2,258.6 L146.8,258.0 L147.2,258.3 L147.3,259.5 L149.3,260.2 L152.6,260.6 L153.3,260.2 L154.3,261.6 L156.5,262.1 L158.2,263.0 L158.5,264.0 L158.3,264.7 L157.6,265.1 L156.1,265.3 L155.4,265.9 L156.8,266.7 L157.1,268.9 L156.4,270.2 L156.2,272.3 L155.0,273.1 L154.5,274.5 L153.7,275.1 L153.5,275.8 L154.6,276.3 L155.2,277.7 L154.8,278.8 L155.3,279.9 L156.3,280.2 L156.3,280.9 L157.1,281.1 L157.8,280.7 L159.1,280.7 L159.8,279.7 L163.2,279.7 L164.2,280.0 L161.8,282.9 L158.6,286.2 L158.5,287.5 L158.8,289.3 L158.6,290.7 L159.1,291.5 L160.2,291.4 L160.2,292.5 L160.7,293.1 L160.3,293.3 L160.3,294.0 L160.1,294.2 L161.3,294.3 L161.8,294.9 L162.8,294.6 L164.3,295.8 L167.0,297.3 L168.1,297.6 L168.6,298.1 L168.5,298.8 L169.8,298.9 L170.0,299.1 L169.8,299.7 L170.6,300.3 L172.8,299.8 L174.1,300.0 L174.3,300.2 L173.8,300.6 L173.9,301.3 L176.0,301.4 L176.0,302.1 L179.2,303.8 L180.1,304.0 L180.1,304.5 L176.9,304.2 L176.2,304.7 L175.6,304.5 L173.0,305.0 L172.5,304.6 L170.8,304.1 L168.4,304.4 L167.8,304.9 L165.4,305.5 L164.6,305.1 L161.9,304.6 L161.7,303.7 L159.9,303.3 L157.4,305.2 L155.2,305.4 L153.1,304.8 L152.2,303.5 L151.8,303.3 L150.5,303.5 L147.0,302.0 L145.9,301.8 L142.8,302.0 L141.4,300.0 L140.4,299.5 L138.4,300.1 L138.6,299.5 L138.1,299.2 L137.5,299.4 L137.9,300.5 L136.1,300.4 L136.3,301.0 L136.2,301.2 L134.2,299.9 L133.9,300.1 L133.9,300.8 L133.1,301.1 L131.9,301.0 L130.7,300.5 L130.8,299.6 L130.1,299.6 L129.4,300.0 L129.0,299.9 L128.4,299.3 L128.0,299.6 Z" fill="rgba(139,26,43,0.15)" stroke="rgba(139,26,43,0.4)" stroke-width="0.5"/>
    <path class="region-area" d="M191.6,262.0 L192.9,262.3 L193.3,262.8 L192.3,263.6 L191.9,264.8 L190.7,265.2 L190.6,265.6 L191.9,266.9 L192.1,267.8 L193.2,267.9 L194.1,268.4 L193.9,269.2 L195.2,269.9 L195.2,270.3 L194.5,270.6 L192.9,271.8 L190.9,272.4 L188.0,272.6 L187.8,273.0 L188.0,273.9 L187.4,274.5 L187.4,275.8 L185.5,276.1 L185.0,275.9 L184.1,275.0 L182.2,275.0 L180.7,275.7 L179.2,276.0 L179.0,276.3 L179.1,276.9 L178.4,277.5 L177.1,277.1 L176.1,277.7 L174.0,280.6 L174.1,281.2 L173.5,281.5 L173.6,282.2 L172.1,283.7 L168.8,283.3 L168.0,283.9 L167.3,283.9 L166.6,284.2 L165.5,283.3 L164.9,283.1 L165.1,282.0 L165.7,281.4 L165.5,280.8 L163.7,279.8 L159.8,279.7 L159.2,280.6 L157.8,280.7 L157.0,281.1 L156.3,280.9 L156.3,280.2 L155.2,279.8 L154.8,278.6 L155.2,277.7 L154.6,276.3 L153.5,275.8 L153.7,275.1 L154.5,274.5 L155.0,273.1 L156.2,272.3 L156.4,270.2 L157.1,268.9 L156.8,266.7 L155.4,265.9 L156.2,265.2 L157.9,265.0 L158.4,264.6 L158.5,264.0 L157.8,262.6 L154.1,261.5 L153.3,260.2 L153.7,259.4 L153.5,258.1 L152.9,257.8 L151.7,257.7 L151.0,256.8 L151.7,256.0 L151.8,255.0 L152.6,254.5 L152.3,253.3 L153.1,252.6 L153.3,251.4 L154.2,251.9 L155.4,252.0 L158.7,251.5 L161.2,252.4 L161.5,252.7 L160.6,253.4 L160.8,253.6 L161.7,253.5 L162.8,253.9 L163.9,253.8 L164.9,254.2 L166.5,254.0 L168.4,254.1 L169.9,252.8 L171.0,250.1 L173.3,248.7 L177.2,248.0 L179.8,248.5 L181.5,247.5 L183.0,248.0 L185.0,247.7 L187.4,247.9 L188.8,248.5 L194.6,246.6 L196.6,246.6 L199.4,245.6 L201.2,245.3 L201.8,245.5 L201.8,246.2 L201.2,246.8 L199.5,247.4 L199.2,247.9 L200.1,249.7 L199.7,250.2 L200.9,250.5 L201.6,251.0 L203.5,251.3 L203.8,251.9 L203.6,253.5 L205.6,254.2 L206.4,255.7 L207.4,256.3 L209.2,256.7 L207.2,257.7 L206.9,258.2 L205.6,258.0 L201.9,258.9 L201.0,257.7 L198.6,256.9 L198.1,258.4 L196.8,260.4 L192.1,261.1 L191.5,261.4 L191.6,262.0 Z" fill="rgba(139,26,43,0.15)" stroke="rgba(139,26,43,0.4)" stroke-width="0.5"/>
    <path class="region-area" d="M242.1,281.1 L243.5,281.9 L245.4,282.5 L247.6,285.1 L248.6,285.5 L248.4,285.9 L247.3,286.9 L246.0,287.0 L244.9,286.6 L243.6,286.6 L244.1,286.1 L246.2,286.1 L244.3,285.1 L244.8,284.9 L244.7,284.5 L244.0,283.6 L241.3,281.7 L239.7,281.2 L239.1,281.1 L238.6,281.4 L238.4,282.0 L238.5,282.6 L239.2,282.7 L235.0,284.4 L234.3,284.2 L235.8,283.5 L235.5,283.0 L234.4,282.9 L234.1,282.5 L233.6,282.6 L230.9,282.1 L229.8,281.5 L228.5,281.8 L228.0,282.3 L227.2,281.7 L226.8,282.1 L227.2,282.7 L226.1,282.9 L225.8,283.3 L225.9,283.8 L226.4,284.0 L228.0,283.6 L226.7,284.6 L226.5,285.0 L224.6,282.5 L224.6,282.0 L223.9,281.4 L223.8,280.2 L223.1,279.7 L222.4,280.4 L220.9,280.2 L220.2,279.6 L219.0,280.2 L218.1,279.4 L215.3,280.9 L214.8,280.9 L213.8,280.0 L212.9,280.2 L211.9,279.8 L210.7,277.6 L208.6,276.5 L207.8,274.0 L208.5,273.0 L210.0,272.4 L209.9,271.1 L209.0,270.4 L208.7,269.6 L206.8,269.0 L205.5,267.9 L206.4,266.9 L208.2,266.2 L209.0,265.5 L210.8,263.0 L212.6,262.5 L214.7,262.7 L214.7,262.2 L213.9,261.8 L214.1,261.5 L215.0,260.8 L217.2,260.5 L216.9,257.6 L219.1,258.5 L225.6,258.8 L227.9,259.2 L230.2,260.1 L234.2,259.7 L237.1,259.8 L237.9,260.2 L243.3,261.0 L242.6,262.9 L240.5,263.1 L238.5,264.6 L235.9,265.6 L234.7,267.0 L234.0,267.3 L235.2,269.6 L236.0,269.5 L235.6,269.1 L236.8,269.2 L238.0,269.5 L239.3,270.3 L241.5,270.4 L241.7,270.9 L240.9,271.9 L237.8,273.6 L237.2,274.1 L237.4,274.7 L236.6,275.2 L238.0,276.3 L240.6,275.8 L241.1,276.3 L239.6,279.1 L239.5,280.1 L239.9,280.7 L242.1,281.1 Z" fill="rgba(139,26,43,0.15)" stroke="rgba(139,26,43,0.4)" stroke-width="0.5"/>
    <path class="region-area" d="M204.7,300.1 L204.7,299.5 L204.4,300.6 L204.6,300.9 L205.2,300.9 L205.0,300.5 L206.6,302.0 L206.0,302.4 L206.4,302.8 L206.9,302.0 L206.4,301.3 L207.6,301.9 L207.5,302.2 L209.6,303.7 L210.0,303.5 L209.6,303.5 L209.6,303.3 L210.1,303.3 L210.9,303.9 L210.4,305.2 L210.0,305.3 L209.6,306.9 L208.5,308.0 L207.9,307.1 L208.3,306.5 L208.3,305.8 L208.0,305.7 L207.4,306.1 L207.0,307.0 L207.7,307.2 L207.7,307.4 L207.1,307.9 L207.9,308.0 L207.7,308.5 L207.2,308.8 L205.8,308.1 L205.5,307.3 L204.3,306.8 L204.0,305.7 L204.3,305.1 L204.1,304.9 L202.3,305.1 L200.3,304.9 L198.6,303.9 L195.6,303.5 L190.5,303.7 L190.2,304.1 L189.2,304.3 L188.8,304.8 L185.7,306.0 L183.0,304.7 L180.4,304.8 L180.1,304.0 L179.2,303.8 L176.0,302.1 L176.0,301.4 L173.9,301.3 L173.8,300.6 L174.3,300.2 L174.1,300.0 L172.8,299.8 L170.6,300.3 L169.8,299.7 L170.0,299.1 L169.8,298.9 L168.5,298.8 L168.6,298.1 L168.1,297.6 L167.0,297.3 L164.3,295.8 L162.8,294.6 L161.8,294.9 L161.3,294.3 L160.1,294.2 L160.3,294.0 L160.3,293.3 L160.7,293.1 L160.2,292.5 L160.2,291.4 L159.1,291.5 L158.6,290.7 L158.8,289.3 L158.5,287.5 L158.6,286.2 L161.8,282.9 L164.2,280.0 L165.3,280.5 L165.7,281.2 L165.1,282.1 L164.9,283.2 L165.5,283.3 L166.6,284.2 L167.3,283.9 L168.0,283.9 L168.8,283.3 L172.1,283.7 L173.6,282.2 L173.5,281.5 L174.1,281.2 L174.0,280.6 L176.1,277.7 L177.1,277.1 L178.4,277.5 L179.1,276.9 L179.0,276.3 L179.2,276.0 L180.7,275.7 L182.2,275.0 L184.1,275.0 L185.0,275.9 L185.5,276.1 L187.4,275.8 L187.4,274.5 L188.0,273.9 L187.8,273.0 L188.0,272.6 L190.9,272.4 L193.4,271.6 L194.3,270.7 L195.4,270.0 L194.0,269.3 L194.1,268.4 L193.2,267.9 L192.1,267.8 L191.9,266.9 L190.6,265.6 L190.7,265.2 L191.9,264.8 L192.3,263.6 L193.3,262.8 L192.9,262.3 L191.6,262.0 L191.5,261.4 L192.1,261.1 L196.8,260.4 L198.1,258.4 L198.6,256.9 L201.0,257.7 L201.9,258.9 L205.6,258.0 L206.9,258.2 L207.2,257.7 L209.2,256.7 L211.3,257.3 L213.3,257.2 L214.7,257.3 L215.7,257.7 L216.9,257.6 L217.2,260.5 L215.0,260.8 L214.1,261.5 L213.9,261.8 L214.7,262.2 L214.7,262.7 L212.6,262.5 L210.8,263.0 L209.0,265.5 L208.2,266.2 L206.4,266.9 L205.5,268.0 L206.8,269.0 L208.7,269.6 L209.0,270.4 L209.9,271.1 L210.0,272.4 L208.5,273.0 L207.8,274.0 L208.6,276.5 L210.7,277.6 L211.9,279.8 L212.9,280.2 L213.8,280.0 L214.8,280.9 L215.3,280.9 L218.1,279.4 L219.0,280.2 L220.2,279.6 L220.9,280.2 L222.4,280.4 L223.1,279.7 L223.8,280.2 L223.9,281.4 L224.6,282.0 L224.6,282.5 L226.5,285.0 L225.5,285.4 L222.3,285.7 L217.8,287.7 L207.9,290.9 L207.5,291.0 L208.2,289.9 L208.1,289.7 L208.5,289.7 L208.7,289.3 L209.2,289.6 L209.4,289.5 L209.0,289.1 L209.9,289.0 L210.2,289.3 L209.8,289.3 L209.8,289.5 L210.4,289.4 L210.6,288.7 L211.7,288.4 L212.3,287.8 L211.0,288.2 L210.2,287.2 L208.4,288.4 L208.7,288.9 L207.7,288.6 L207.3,288.7 L207.1,288.1 L206.8,288.6 L207.9,289.3 L207.0,289.5 L206.7,289.4 L206.8,289.1 L205.9,289.1 L203.7,290.2 L203.0,291.7 L203.3,292.1 L202.9,293.1 L202.4,293.3 L202.6,293.6 L202.1,294.3 L201.3,294.6 L200.4,294.4 L200.3,295.0 L201.2,295.9 L201.7,295.5 L201.6,294.8 L202.2,294.9 L202.4,296.1 L202.0,296.3 L202.4,296.7 L202.3,297.1 L202.5,297.4 L203.0,297.6 L203.5,297.6 L203.3,297.5 L204.7,296.7 L204.4,297.1 L205.0,298.3 L205.2,300.3 L204.7,300.1 Z" fill="rgba(139,26,43,0.15)" stroke="rgba(139,26,43,0.4)" stroke-width="0.5"/>
    <path class="region-area" d="M207.7,331.8 L207.1,332.2 L206.8,332.9 L207.2,333.4 L207.8,333.7 L207.8,334.1 L207.4,334.3 L206.9,334.0 L205.9,334.4 L205.4,335.5 L204.0,336.5 L204.1,337.2 L202.1,337.3 L201.3,337.9 L200.1,337.3 L199.0,337.4 L199.3,336.5 L200.1,335.4 L200.6,333.7 L200.6,332.8 L202.9,332.9 L205.2,331.9 L207.1,330.0 L206.2,329.3 L206.3,329.0 L208.8,328.2 L208.5,327.3 L208.0,326.7 L208.8,326.2 L209.4,326.9 L211.3,328.2 L212.1,328.4 L214.5,330.5 L217.0,331.5 L216.6,332.7 L216.7,333.5 L216.4,334.0 L214.7,335.1 L213.4,335.0 L212.4,333.7 L211.6,334.2 L211.4,334.1 L211.2,333.4 L209.5,332.7 L209.8,332.0 L209.5,331.3 L207.7,331.8 Z" fill="rgba(139,26,43,0.15)" stroke="rgba(139,26,43,0.4)" stroke-width="0.5"/>
    <path class="region-area" d="M204.1,314.1 L204.0,317.3 L205.0,320.8 L205.6,321.6 L205.9,322.8 L206.8,324.4 L205.8,325.5 L204.1,324.4 L203.4,324.4 L202.2,324.8 L201.7,324.4 L201.9,323.7 L201.0,324.0 L199.4,323.4 L199.1,323.2 L199.1,322.8 L197.9,322.4 L197.0,321.6 L195.4,323.7 L194.5,324.3 L193.0,325.9 L191.3,325.4 L190.3,325.6 L189.6,325.3 L188.7,326.1 L188.4,327.1 L186.3,327.5 L184.9,327.3 L184.8,327.0 L185.4,326.6 L185.2,326.3 L184.3,326.0 L183.7,326.3 L182.2,326.2 L180.4,324.5 L179.6,324.3 L178.9,324.9 L177.7,325.0 L176.5,326.0 L174.0,326.4 L174.1,326.9 L175.5,327.5 L175.3,327.8 L169.6,328.2 L168.5,327.6 L168.9,327.0 L168.2,326.9 L167.4,327.9 L166.2,328.9 L160.4,326.3 L158.6,326.4 L157.7,327.3 L156.6,327.3 L154.2,325.6 L153.8,324.5 L151.9,324.2 L150.5,323.2 L148.7,322.9 L147.7,323.3 L146.3,322.0 L144.1,321.1 L142.8,321.0 L140.5,319.5 L140.4,319.2 L140.8,318.8 L140.5,318.4 L137.9,317.5 L136.2,317.6 L134.2,319.4 L133.9,320.0 L132.2,320.4 L132.2,320.9 L131.1,319.5 L129.7,318.9 L127.3,318.9 L126.3,319.3 L125.3,319.4 L125.2,319.0 L125.6,317.7 L126.3,317.3 L126.7,316.6 L126.7,315.4 L125.0,314.8 L124.4,314.3 L123.8,314.6 L123.1,314.7 L121.1,313.9 L120.2,314.0 L119.3,313.6 L118.7,313.8 L118.7,311.9 L119.8,311.9 L120.0,310.9 L120.5,311.4 L121.2,311.6 L122.0,311.2 L121.5,309.8 L122.9,307.9 L123.0,307.1 L122.8,306.7 L121.6,306.2 L121.5,305.5 L124.8,300.3 L126.9,300.2 L128.1,300.7 L128.0,299.6 L128.4,299.3 L129.0,299.9 L129.4,300.0 L130.1,299.6 L130.8,299.6 L130.7,300.5 L131.9,301.0 L133.1,301.1 L133.9,300.8 L133.9,300.1 L134.2,299.9 L136.2,301.2 L136.3,301.0 L136.1,300.4 L137.9,300.5 L137.5,299.4 L138.1,299.2 L138.6,299.5 L138.4,300.1 L140.4,299.5 L140.7,299.6 L141.4,300.0 L142.8,302.0 L145.9,301.8 L147.0,302.0 L150.5,303.5 L151.8,303.3 L152.2,303.5 L153.1,304.8 L155.2,305.4 L157.4,305.2 L159.9,303.3 L161.7,303.7 L161.9,304.6 L164.6,305.1 L165.4,305.5 L167.8,304.9 L168.4,304.4 L171.0,304.1 L172.5,304.6 L173.0,305.0 L175.6,304.5 L176.2,304.7 L176.9,304.2 L180.1,304.5 L180.4,304.8 L183.0,304.7 L185.7,306.0 L188.8,304.8 L189.2,304.3 L190.2,304.1 L190.5,303.7 L192.5,303.5 L194.0,303.7 L195.8,303.5 L198.6,303.9 L200.3,304.9 L202.3,305.1 L204.1,304.9 L204.3,305.1 L204.0,305.7 L204.3,306.8 L205.5,307.3 L205.8,308.1 L207.0,308.8 L206.6,308.8 L204.5,307.4 L203.5,307.9 L203.9,308.0 L203.0,311.1 L203.2,312.3 L204.1,314.1 Z" fill="rgba(139,26,43,0.15)" stroke="rgba(139,26,43,0.4)" stroke-width="0.5"/>
    <path class="region-area" d="M152.7,364.3 L151.5,365.0 L152.5,365.6 L152.7,366.2 L152.3,366.5 L152.2,366.3 L151.3,366.1 L150.9,365.4 L150.1,365.0 L149.8,365.0 L149.5,365.6 L149.2,365.1 L148.1,365.5 L147.6,365.2 L147.3,365.8 L144.8,365.7 L143.7,365.2 L143.6,364.4 L143.9,364.0 L145.2,363.5 L147.5,363.9 L148.1,363.9 L147.9,363.7 L148.3,363.2 L149.8,363.3 L149.7,363.7 L150.4,363.8 L151.3,363.1 L151.8,362.1 L152.2,362.0 L153.0,362.7 L152.7,363.2 L152.9,363.9 L152.7,364.3 Z" fill="rgba(139,26,43,0.15)" stroke="rgba(139,26,43,0.4)" stroke-width="0.5"/>
    <path class="region-area" d="M155.8,360.2 L155.1,360.5 L154.6,360.1 L154.0,358.7 L155.1,357.8 L155.7,356.3 L155.6,355.3 L155.9,354.4 L155.4,351.6 L152.9,347.7 L151.1,345.9 L149.8,345.3 L149.6,344.8 L148.9,342.7 L148.1,336.0 L146.6,333.0 L145.8,332.0 L144.5,331.4 L143.7,330.3 L141.6,329.4 L142.3,328.3 L142.2,328.0 L141.5,327.6 L140.5,327.5 L140.3,326.6 L139.9,326.3 L138.0,326.2 L138.2,325.5 L138.1,325.2 L137.6,325.1 L136.9,325.6 L136.7,323.8 L133.9,322.3 L132.1,320.7 L132.3,320.4 L133.9,320.0 L134.2,319.4 L136.2,317.6 L137.9,317.5 L140.5,318.4 L140.8,318.8 L140.4,319.2 L140.5,319.5 L142.8,321.0 L144.1,321.1 L146.3,322.0 L147.7,323.3 L148.7,322.9 L150.5,323.2 L151.9,324.2 L153.8,324.5 L154.2,325.6 L156.6,327.3 L157.7,327.3 L158.6,326.4 L160.4,326.3 L166.2,328.9 L167.4,327.9 L168.2,326.9 L168.9,327.0 L168.5,327.6 L169.6,328.2 L175.3,327.8 L175.5,327.5 L174.1,326.9 L174.0,326.4 L176.5,326.0 L177.7,325.0 L178.9,324.9 L179.4,324.3 L180.1,324.3 L182.2,326.2 L183.7,326.3 L184.3,326.0 L185.2,326.3 L185.4,326.6 L184.8,327.0 L184.9,327.3 L186.3,327.5 L187.6,327.2 L189.1,327.2 L188.5,328.7 L187.7,329.7 L187.3,330.1 L186.5,330.3 L186.5,331.0 L187.4,331.8 L187.4,332.5 L188.1,333.0 L188.1,334.0 L190.9,335.6 L193.0,335.9 L195.3,337.1 L198.0,337.6 L199.8,337.3 L201.3,337.9 L202.1,337.3 L203.9,337.1 L206.1,338.5 L205.1,339.5 L204.8,339.3 L204.7,338.4 L204.5,338.3 L203.8,339.4 L201.6,340.4 L201.8,341.4 L200.0,343.7 L198.9,344.1 L198.9,344.4 L199.7,344.7 L199.9,345.1 L197.2,346.8 L197.4,347.0 L198.2,347.1 L198.3,348.1 L199.8,348.6 L200.0,350.2 L201.0,350.2 L201.6,349.6 L202.1,350.3 L200.5,351.2 L199.5,351.3 L198.8,351.7 L197.5,351.4 L197.0,351.5 L196.4,353.0 L194.9,353.6 L194.0,354.7 L193.9,355.1 L194.2,356.6 L194.4,356.7 L195.1,356.4 L195.5,357.0 L195.4,357.9 L194.8,358.7 L194.3,360.5 L194.8,361.2 L194.7,361.6 L190.8,363.6 L189.9,363.4 L189.3,363.8 L189.2,364.0 L190.8,365.6 L190.3,366.5 L190.3,368.1 L189.3,368.3 L188.8,369.1 L187.8,369.5 L187.0,370.2 L185.6,370.6 L184.7,370.5 L184.7,371.3 L184.1,371.9 L185.3,372.7 L185.1,373.8 L182.0,374.2 L181.5,374.6 L181.0,375.8 L178.9,374.9 L177.7,375.1 L175.3,374.5 L174.3,374.6 L173.6,376.0 L172.8,376.0 L172.2,375.5 L171.4,375.3 L170.9,374.6 L171.2,373.9 L173.0,374.0 L173.7,372.9 L173.6,371.7 L172.8,370.5 L172.0,370.7 L171.2,369.3 L170.7,369.2 L170.6,368.6 L168.6,367.7 L168.2,366.5 L166.9,365.6 L161.0,363.9 L162.0,363.0 L162.0,361.9 L162.3,361.4 L161.9,360.7 L158.3,359.6 L156.9,359.6 L155.7,359.9 L155.8,360.2 Z" fill="rgba(139,26,43,0.15)" stroke="rgba(139,26,43,0.4)" stroke-width="0.5"/>
    <path class="region-area" d="M202.7,336.0 L202.8,336.3 L201.7,336.8 L200.9,336.2 L201.1,335.7 L202.7,336.0 Z" fill="rgba(139,26,43,0.15)" stroke="rgba(139,26,43,0.4)" stroke-width="0.5"/>
    <path class="region-area" d="M220.4,370.1 L220.5,370.5 L217.8,371.6 L217.1,372.3 L216.0,372.5 L216.3,373.2 L216.2,373.6 L214.2,373.9 L213.5,373.3 L213.1,373.3 L213.1,374.1 L212.6,375.0 L210.9,376.0 L210.3,375.4 L208.3,375.4 L208.1,375.3 L208.7,374.5 L207.7,374.3 L207.7,373.9 L207.1,373.3 L205.6,372.5 L205.0,372.4 L204.5,372.6 L203.9,372.0 L203.7,370.5 L203.3,370.5 L203.0,369.9 L202.7,368.2 L200.4,367.4 L199.7,368.0 L198.7,367.9 L196.8,368.3 L194.2,366.5 L194.2,366.1 L195.1,365.6 L195.4,365.1 L194.3,364.2 L193.1,362.6 L194.8,361.5 L194.8,361.2 L194.3,360.5 L195.5,357.2 L195.1,356.4 L194.3,356.7 L193.9,355.1 L194.6,353.8 L196.4,353.0 L197.0,351.5 L197.5,351.4 L198.8,351.7 L199.5,351.3 L200.5,351.2 L202.1,350.4 L202.0,349.9 L201.6,349.6 L201.0,350.2 L200.0,350.2 L199.8,348.6 L198.4,348.2 L198.2,347.1 L197.2,346.9 L197.7,346.4 L199.8,345.2 L199.7,344.7 L198.9,344.4 L198.9,344.1 L200.0,343.7 L201.8,341.4 L204.1,342.1 L204.8,341.6 L206.1,341.3 L205.9,342.6 L205.6,342.8 L204.7,342.8 L204.7,343.2 L207.0,344.0 L208.1,343.6 L209.7,344.0 L210.3,344.3 L213.0,346.6 L213.8,346.2 L215.3,346.4 L215.9,345.9 L217.1,345.7 L216.8,348.0 L218.1,349.6 L218.2,350.8 L219.7,352.7 L219.9,353.6 L219.2,354.5 L219.4,354.9 L220.2,355.1 L220.9,355.9 L221.0,358.3 L221.4,359.5 L222.9,360.5 L223.1,361.5 L223.6,361.4 L223.5,360.8 L225.0,360.7 L227.6,362.6 L228.0,363.3 L230.1,362.7 L230.5,362.9 L230.9,363.9 L230.8,364.8 L229.4,365.2 L228.9,366.3 L229.0,367.0 L228.1,368.3 L227.1,368.3 L225.5,368.9 L224.3,368.7 L223.8,369.3 L221.1,369.3 L220.4,370.1 Z" fill="rgba(139,26,43,0.15)" stroke="rgba(139,26,43,0.4)" stroke-width="0.5"/>
    <path class="region-area" d="M208.5,341.5 L208.1,342.1 L207.6,342.0 L207.4,341.6 L207.7,341.1 L208.1,341.0 L208.5,341.5 Z" fill="rgba(139,26,43,0.15)" stroke="rgba(139,26,43,0.4)" stroke-width="0.5"/>
    <path class="region-area" d="M242.2,406.9 L242.0,406.7 L240.3,406.8 L239.5,407.3 L239.8,408.1 L238.9,408.1 L238.1,407.5 L237.7,407.7 L237.1,407.2 L232.8,405.7 L231.8,405.7 L229.0,406.1 L227.0,406.9 L226.4,407.6 L225.1,407.5 L224.5,406.3 L223.3,404.7 L220.9,402.8 L219.5,402.3 L216.9,402.1 L214.3,401.0 L213.7,401.5 L211.3,398.8 L208.6,396.4 L205.2,394.1 L202.8,393.5 L202.1,392.6 L201.9,390.9 L200.9,389.5 L200.2,388.8 L197.2,387.1 L196.7,386.3 L195.7,386.2 L193.9,385.1 L191.4,385.2 L190.9,384.3 L189.2,382.6 L188.8,381.5 L186.7,378.4 L183.4,376.5 L181.0,375.8 L181.5,374.6 L182.3,374.1 L185.1,373.8 L185.3,372.7 L184.1,371.9 L184.7,371.3 L184.7,370.5 L185.6,370.6 L187.0,370.2 L187.8,369.5 L188.8,369.1 L189.3,368.3 L190.3,368.1 L190.3,366.5 L190.8,365.6 L189.2,364.0 L189.2,363.8 L189.8,363.4 L190.8,363.6 L191.5,363.1 L193.1,362.6 L194.3,364.2 L195.4,365.1 L195.2,365.6 L194.2,366.3 L194.9,367.1 L196.8,368.3 L198.7,367.9 L199.7,368.0 L200.4,367.4 L202.7,368.2 L203.0,369.9 L203.3,370.5 L203.7,370.5 L203.9,372.0 L204.5,372.6 L205.0,372.4 L205.6,372.5 L207.1,373.3 L207.7,373.9 L207.7,374.3 L208.7,374.5 L208.1,375.3 L208.3,375.4 L210.3,375.4 L210.9,376.0 L212.6,375.0 L213.1,374.1 L213.1,373.3 L213.5,373.3 L214.2,373.9 L216.2,373.6 L216.3,373.2 L216.0,372.5 L217.1,372.3 L217.8,371.6 L220.5,370.5 L220.5,369.8 L221.1,369.3 L223.8,369.3 L224.3,368.7 L225.5,368.9 L227.1,368.3 L228.0,368.3 L229.0,367.0 L228.9,366.3 L229.2,365.8 L231.7,365.7 L232.5,366.2 L233.5,367.9 L234.5,368.3 L234.1,369.9 L231.9,370.3 L229.0,369.9 L228.5,370.9 L227.6,371.1 L227.7,371.5 L228.4,372.0 L228.5,372.6 L228.2,373.1 L227.5,373.6 L227.4,374.1 L227.8,374.7 L228.8,375.1 L228.2,376.1 L228.3,376.7 L229.6,377.3 L230.1,378.6 L231.4,379.8 L232.3,380.1 L232.7,380.8 L234.0,381.0 L232.3,381.5 L232.3,382.2 L232.0,382.5 L231.1,382.3 L230.5,382.6 L226.5,381.4 L225.9,382.2 L224.2,383.2 L224.3,384.6 L224.8,385.4 L225.8,385.6 L226.5,385.5 L231.6,387.6 L232.5,387.7 L233.9,388.6 L234.1,389.0 L233.6,390.4 L233.8,390.9 L235.1,390.8 L237.7,391.8 L238.4,392.4 L238.9,392.6 L240.4,392.3 L241.8,391.4 L243.6,391.8 L244.5,392.9 L246.0,393.0 L248.5,393.8 L250.7,395.4 L251.4,396.5 L251.4,397.7 L251.8,398.4 L251.8,399.3 L251.0,399.9 L251.0,400.4 L250.5,400.8 L247.7,402.1 L248.1,402.9 L247.8,405.5 L246.5,406.2 L246.1,406.8 L244.4,407.3 L243.5,406.7 L242.2,406.9 Z" fill="rgba(139,26,43,0.15)" stroke="rgba(139,26,43,0.4)" stroke-width="0.5"/>
    <path class="region-area" d="M296.5,439.4 L294.0,439.4 L291.1,441.5 L290.6,441.7 L288.7,441.4 L287.9,440.6 L286.5,440.7 L287.0,440.2 L286.5,439.5 L282.8,436.8 L280.5,436.9 L279.3,435.7 L276.8,434.8 L276.7,434.4 L277.5,433.0 L277.4,432.3 L279.1,431.6 L279.2,430.5 L276.2,425.7 L274.0,423.5 L272.4,422.8 L270.7,423.6 L268.5,423.7 L267.4,424.4 L266.6,424.5 L265.0,424.0 L263.2,424.5 L261.0,425.7 L260.7,425.4 L260.9,424.2 L262.3,423.9 L263.8,422.5 L264.7,422.3 L264.7,421.3 L264.3,420.9 L262.5,420.4 L259.7,418.3 L257.7,418.5 L257.2,419.4 L253.8,418.5 L253.6,418.8 L253.8,419.8 L252.9,419.7 L252.7,419.5 L253.0,418.3 L252.1,416.0 L250.6,413.9 L249.3,413.2 L249.1,412.1 L247.4,409.8 L244.4,407.3 L246.1,406.8 L246.5,406.2 L247.8,405.5 L248.1,403.1 L247.7,402.0 L250.5,400.8 L251.2,401.2 L252.4,402.8 L254.4,403.0 L254.5,402.2 L253.8,401.4 L254.9,400.1 L257.7,400.1 L258.9,400.4 L260.6,401.2 L264.3,402.1 L265.3,403.0 L266.9,403.1 L267.8,403.6 L269.8,402.7 L272.2,402.5 L273.1,401.5 L274.4,402.1 L277.2,401.3 L279.1,400.5 L280.5,401.0 L281.8,401.9 L282.1,403.0 L281.1,403.9 L281.3,404.7 L282.8,405.3 L283.2,406.2 L284.4,405.9 L286.0,406.5 L286.6,407.2 L286.0,407.6 L286.2,408.1 L284.9,409.3 L284.8,409.6 L286.3,410.3 L287.0,411.0 L289.8,411.1 L290.5,410.9 L291.8,411.6 L294.7,412.3 L295.2,413.1 L295.2,413.5 L294.1,415.7 L292.3,416.6 L289.5,416.6 L289.2,417.3 L289.4,418.2 L288.8,418.8 L289.4,419.3 L289.6,421.0 L289.9,421.6 L291.3,422.7 L292.7,423.2 L292.7,423.6 L292.0,424.0 L291.6,424.8 L293.6,425.9 L294.2,427.1 L294.1,428.1 L295.2,428.9 L295.8,429.7 L296.5,429.8 L297.5,430.7 L298.7,431.0 L299.1,432.7 L301.1,434.3 L300.7,435.5 L298.5,436.9 L298.4,437.9 L297.2,439.3 L297.6,439.8 L297.1,440.2 L296.5,439.7 L296.5,439.4 Z" fill="rgba(139,26,43,0.15)" stroke="rgba(139,26,43,0.4)" stroke-width="0.5"/>
    <path class="region-area" d="M248.5,422.3 L247.4,421.7 L247.9,420.8 L247.7,420.4 L250.6,421.2 L250.6,421.7 L250.0,422.1 L249.3,422.0 L248.5,422.3 Z" fill="rgba(139,26,43,0.15)" stroke="rgba(139,26,43,0.4)" stroke-width="0.5"/>
    <path class="region-area" d="M368.7,428.8 L374.4,434.1 L376.2,437.3 L376.6,437.7 L376.6,438.6 L375.9,439.2 L375.7,440.0 L374.3,440.9 L373.7,442.1 L373.2,443.9 L373.4,444.9 L373.1,446.6 L372.5,447.2 L371.5,447.0 L370.1,446.2 L368.2,446.0 L364.3,444.0 L362.2,441.7 L362.2,441.5 L362.9,441.3 L362.7,440.5 L361.4,440.0 L362.4,439.5 L362.6,438.9 L362.2,438.2 L360.3,436.7 L360.0,435.3 L359.5,434.6 L359.9,434.5 L358.5,433.6 L348.8,433.1 L346.8,432.4 L345.7,432.4 L344.8,431.8 L340.5,430.3 L340.2,429.9 L341.3,429.3 L341.5,428.9 L340.9,428.4 L341.5,428.2 L342.8,428.4 L343.4,428.2 L343.6,427.7 L341.9,428.0 L342.1,427.8 L341.5,427.6 L339.9,428.2 L338.9,427.3 L336.0,427.2 L334.0,427.9 L332.2,429.2 L330.8,430.7 L328.7,428.4 L327.6,428.6 L327.2,428.3 L326.6,426.3 L326.6,423.9 L326.9,422.9 L326.2,422.2 L326.7,422.0 L326.7,421.7 L326.2,421.2 L323.2,420.4 L322.8,420.8 L321.8,420.6 L322.1,421.2 L321.9,421.3 L321.0,420.5 L319.0,421.9 L318.3,422.0 L316.4,420.7 L313.4,418.1 L312.8,416.7 L312.4,416.3 L311.3,416.0 L310.0,416.5 L306.5,415.2 L306.4,414.9 L307.4,414.4 L307.8,413.4 L305.9,411.6 L304.0,411.0 L303.0,410.1 L300.6,411.0 L295.7,410.8 L294.8,411.5 L294.7,412.3 L291.8,411.6 L290.5,410.9 L289.8,411.1 L286.8,410.9 L286.4,410.4 L284.8,409.4 L286.2,408.1 L286.0,407.6 L286.6,407.3 L286.5,407.0 L285.9,406.5 L284.2,405.8 L283.2,406.2 L282.8,405.3 L281.3,404.7 L281.1,403.9 L282.1,403.0 L281.9,402.1 L277.4,399.3 L277.4,396.7 L278.1,396.3 L279.7,396.7 L282.2,394.9 L283.6,394.4 L282.4,394.0 L282.1,392.7 L282.3,391.8 L282.2,390.7 L283.0,389.6 L283.2,388.1 L287.0,388.1 L291.6,388.7 L296.2,388.1 L300.7,388.3 L307.7,387.7 L310.8,388.4 L311.4,389.1 L311.9,389.1 L312.3,391.5 L312.0,392.3 L307.7,395.0 L304.9,396.1 L304.2,396.8 L303.9,397.9 L304.1,399.0 L304.5,399.9 L305.8,401.1 L307.5,402.0 L309.3,402.4 L310.1,403.0 L319.7,406.6 L321.3,406.9 L323.4,408.1 L329.9,409.8 L330.5,410.2 L330.9,410.0 L331.4,410.4 L336.2,411.6 L340.2,413.3 L342.3,414.4 L344.2,416.3 L346.1,417.1 L347.8,418.5 L349.8,419.3 L352.2,419.8 L355.3,420.8 L358.0,422.3 L361.1,423.0 L361.1,423.6 L362.5,423.5 L362.7,424.2 L363.5,424.9 L363.3,426.1 L365.6,427.6 L368.7,428.8 Z" fill="rgba(139,26,43,0.15)" stroke="rgba(139,26,43,0.4)" stroke-width="0.5"/>
    <path class="region-area" d="M196.0,531.7 L194.4,530.5 L194.0,529.4 L194.8,529.0 L195.8,529.5 L196.1,529.2 L197.2,530.0 L197.6,530.4 L197.6,531.0 L197.0,531.8 L196.0,531.7 Z" fill="rgba(139,26,43,0.15)" stroke="rgba(139,26,43,0.4)" stroke-width="0.5"/>
    <path class="region-area" d="M246.9,520.8 L243.7,519.9 L239.6,517.0 L237.4,516.6 L235.5,515.9 L231.5,513.7 L230.9,512.7 L228.7,511.1 L225.3,510.8 L224.6,511.0 L224.1,510.6 L223.8,509.8 L223.1,509.2 L222.3,508.9 L220.0,508.7 L214.4,509.0 L212.2,506.6 L210.2,506.2 L209.3,505.1 L208.8,503.6 L208.0,502.5 L208.0,502.2 L209.0,501.8 L209.4,500.2 L209.0,499.3 L209.7,498.2 L210.1,497.0 L210.1,496.6 L209.8,496.3 L210.6,496.1 L212.1,494.9 L213.0,495.2 L214.2,494.4 L214.5,493.7 L215.7,493.9 L216.2,493.4 L216.1,492.1 L216.4,491.6 L216.6,491.9 L217.2,491.9 L218.8,494.8 L221.1,496.1 L222.3,496.0 L225.5,494.6 L225.8,494.3 L225.4,493.0 L226.3,492.3 L226.2,492.1 L226.6,491.7 L229.6,492.0 L230.2,491.8 L230.5,491.2 L230.9,491.3 L232.7,490.8 L232.9,491.4 L234.1,492.1 L234.2,493.0 L234.7,494.1 L238.1,493.9 L238.8,494.3 L239.0,495.4 L241.9,496.9 L243.6,497.3 L243.4,497.5 L245.7,497.7 L248.7,496.8 L249.8,496.1 L251.7,495.9 L252.1,495.6 L253.8,496.3 L255.7,496.1 L259.1,496.5 L262.2,496.1 L263.5,495.6 L264.4,495.9 L265.7,495.7 L269.1,494.7 L270.0,494.2 L271.9,492.6 L273.6,492.5 L276.7,491.7 L277.7,491.9 L278.4,492.5 L280.6,492.7 L281.1,493.3 L281.7,493.4 L284.1,492.6 L285.9,490.2 L285.8,489.6 L286.1,489.9 L286.0,490.9 L287.3,491.2 L290.3,490.5 L293.9,488.5 L297.3,489.3 L297.0,489.7 L296.5,489.7 L295.0,490.6 L294.7,491.4 L295.2,491.4 L293.8,493.1 L293.1,494.6 L290.1,497.6 L286.6,502.1 L285.1,503.5 L285.0,503.9 L285.3,505.0 L284.8,505.6 L283.8,508.9 L281.9,510.9 L281.7,511.9 L281.9,515.1 L282.3,515.7 L284.2,516.6 L285.3,516.7 L286.2,517.5 L286.5,518.1 L286.0,517.8 L285.3,518.5 L285.4,518.0 L284.9,517.8 L284.6,518.0 L284.7,518.3 L284.3,518.9 L284.6,519.7 L285.2,520.3 L285.7,520.0 L286.1,520.2 L286.1,520.4 L285.6,520.5 L286.1,521.3 L287.6,521.8 L287.6,522.9 L287.2,522.7 L287.1,523.3 L288.1,523.5 L288.4,524.3 L287.8,524.1 L286.7,524.6 L286.8,524.8 L286.5,525.0 L286.7,525.4 L286.0,525.4 L284.1,526.2 L283.6,526.7 L282.2,529.9 L281.8,530.2 L283.0,533.3 L282.9,533.6 L282.4,534.0 L281.3,534.1 L279.8,532.9 L279.2,532.9 L278.7,533.2 L276.0,532.1 L275.0,532.2 L273.2,532.9 L272.2,532.4 L270.5,532.2 L269.8,531.4 L267.7,530.7 L265.0,530.3 L262.5,526.1 L259.3,523.4 L255.0,521.5 L250.9,521.6 L249.8,522.0 L248.6,521.8 L246.9,520.8 Z" fill="rgba(139,26,43,0.15)" stroke="rgba(139,26,43,0.4)" stroke-width="0.5"/>
    <path class="region-area" d="M204.0,317.3 L205.0,321.0 L205.6,321.6 L205.9,322.8 L206.8,324.4 L205.8,325.5 L204.1,324.4 L203.4,324.4 L202.2,324.8 L201.7,324.4 L201.9,323.7 L201.0,324.0 L199.4,323.4 L199.1,323.2 L199.1,322.8 L197.9,322.4 L197.0,321.6 L195.4,323.7 L194.5,324.3 L193.0,325.9 L191.3,325.4 L190.3,325.6 L189.6,325.3 L188.7,326.1 L188.4,327.1 L186.3,327.5 L184.7,327.2 L185.4,326.6 L184.8,326.0 L183.0,326.3 L183.8,324.7 L186.0,323.7 L186.9,322.8 L187.1,322.0 L188.3,322.3 L189.4,321.9 L191.2,319.8 L191.2,319.3 L190.4,318.9 L190.1,317.7 L189.0,316.7 L190.0,316.4 L190.3,315.4 L192.1,315.4 L192.8,314.7 L196.1,314.1 L196.8,315.1 L197.7,315.5 L201.1,315.1 L202.4,314.6 L203.6,313.3 L204.1,314.1 L204.0,317.3 Z" fill="rgba(139,26,43,0.15)" stroke="rgba(139,26,43,0.4)" stroke-width="0.5"/>
    <path class="region-area" d="M98.1,467.3 L98.8,467.3 L98.1,467.9 L97.5,470.1 L96.7,470.3 L95.1,467.5 L95.2,466.7 L95.0,466.5 L95.4,466.0 L96.1,466.3 L97.7,466.4 L98.1,467.3 Z" fill="rgba(139,26,43,0.15)" stroke="rgba(139,26,43,0.4)" stroke-width="0.5"/>
    <path class="region-area" d="M92.8,466.5 L92.4,466.3 L92.5,465.8 L91.6,464.9 L91.8,464.4 L93.9,463.9 L94.0,465.9 L93.9,466.3 L92.8,466.5 Z" fill="rgba(139,26,43,0.15)" stroke="rgba(139,26,43,0.4)" stroke-width="0.5"/>
    <path class="region-area" d="M100.9,467.7 L100.5,467.8 L99.4,467.5 L99.7,466.9 L99.4,466.7 L98.8,467.0 L98.3,465.9 L98.0,465.8 L97.6,466.0 L97.4,464.6 L97.0,464.3 L96.9,464.6 L96.7,464.5 L96.4,463.7 L95.9,463.5 L95.7,462.8 L97.2,461.4 L97.4,460.9 L96.9,460.3 L96.9,459.8 L96.0,459.3 L95.7,458.7 L96.6,457.4 L96.1,456.2 L97.4,454.7 L98.2,453.3 L98.0,453.0 L98.2,452.1 L97.6,449.4 L97.7,448.1 L98.4,448.3 L99.7,449.8 L101.1,449.8 L99.4,449.3 L99.4,448.8 L100.5,447.5 L99.7,448.1 L100.4,447.4 L100.7,446.5 L100.8,445.6 L100.5,444.9 L99.1,444.0 L98.2,443.9 L97.4,444.3 L97.6,444.5 L98.2,444.3 L97.7,444.8 L97.4,445.5 L97.3,445.3 L97.5,445.0 L96.3,444.0 L96.5,443.2 L96.3,441.9 L96.7,440.9 L96.3,440.5 L95.8,440.6 L96.5,440.2 L98.1,440.0 L98.9,439.1 L98.8,438.3 L98.3,437.5 L98.1,435.6 L98.6,434.3 L98.6,433.4 L97.6,432.4 L96.1,431.8 L96.2,429.3 L95.5,427.9 L94.6,427.4 L94.0,425.5 L93.5,425.1 L92.8,425.1 L91.4,425.7 L90.8,425.5 L91.4,424.6 L90.7,424.4 L90.3,424.7 L89.9,425.9 L89.6,425.5 L89.3,424.2 L90.2,423.8 L90.9,422.4 L90.2,422.2 L89.1,421.4 L91.3,417.1 L91.2,416.2 L90.3,415.8 L90.4,415.4 L91.0,414.5 L91.3,414.9 L91.7,414.9 L91.9,415.1 L91.8,416.3 L93.1,417.6 L94.0,418.0 L99.8,418.6 L102.0,417.9 L103.1,416.7 L105.0,416.0 L106.6,416.2 L108.2,415.3 L110.0,413.4 L109.8,413.2 L110.9,412.8 L111.4,412.2 L112.8,411.2 L113.2,410.5 L116.1,410.0 L116.8,409.4 L117.0,409.6 L117.6,408.7 L117.8,407.1 L119.5,406.6 L119.7,407.0 L120.2,406.9 L120.5,407.3 L120.5,408.3 L120.8,408.4 L120.7,408.0 L121.0,407.7 L121.0,408.4 L121.7,408.3 L122.3,408.7 L122.4,408.0 L123.8,408.8 L123.8,408.7 L124.8,408.8 L124.4,409.4 L125.3,410.2 L125.2,410.7 L125.3,411.3 L126.1,410.4 L125.7,410.0 L126.1,409.8 L127.1,410.0 L127.6,409.7 L127.8,410.0 L127.6,410.2 L128.2,410.5 L128.6,410.4 L128.8,410.5 L128.6,411.2 L128.2,411.7 L128.0,411.3 L127.3,413.4 L127.8,413.4 L127.6,413.0 L128.1,412.8 L128.5,413.2 L128.4,413.6 L130.1,413.3 L131.4,413.8 L131.1,414.1 L129.8,413.8 L129.3,414.0 L128.8,415.3 L128.9,415.6 L127.3,415.7 L127.0,415.9 L127.3,416.2 L128.0,416.0 L129.0,416.4 L130.3,416.0 L130.9,416.0 L130.1,416.8 L131.2,417.3 L131.4,417.8 L132.0,417.6 L132.4,418.0 L133.1,418.1 L131.9,418.6 L132.2,419.1 L131.8,419.0 L131.3,419.4 L131.6,419.7 L131.6,419.3 L132.6,420.5 L133.7,422.7 L134.0,425.1 L134.7,425.4 L135.0,426.1 L136.0,426.9 L135.5,428.5 L134.2,430.7 L133.8,431.1 L132.8,431.4 L132.0,432.6 L131.0,433.3 L130.4,434.3 L130.6,436.1 L131.2,437.5 L133.4,439.2 L132.1,442.6 L132.4,443.4 L132.7,443.2 L133.0,443.4 L132.4,443.8 L132.0,444.5 L132.2,445.1 L132.0,445.3 L132.4,445.6 L132.0,446.0 L131.6,447.2 L131.8,449.3 L131.1,451.2 L131.2,453.5 L130.5,455.3 L130.9,455.8 L129.7,459.4 L129.8,460.2 L130.7,461.0 L129.9,461.2 L129.2,461.9 L128.8,462.6 L129.0,463.3 L128.7,463.6 L129.1,464.1 L128.8,465.1 L127.6,465.8 L127.4,466.3 L127.1,466.1 L127.3,465.8 L126.8,465.5 L125.3,465.8 L122.6,463.8 L121.2,463.1 L121.0,463.3 L119.1,462.9 L118.5,463.1 L117.7,464.1 L116.9,463.8 L115.1,462.3 L114.8,462.5 L114.1,462.0 L113.5,461.9 L113.8,462.1 L113.7,462.6 L114.1,462.9 L115.3,463.0 L115.3,463.4 L114.1,464.3 L113.6,465.2 L113.6,466.4 L114.3,467.8 L113.9,468.4 L113.6,469.4 L113.8,469.4 L113.5,469.5 L113.2,469.4 L110.2,471.9 L109.0,472.6 L107.7,471.8 L107.7,472.4 L106.6,471.4 L105.2,471.1 L103.9,471.7 L103.4,472.2 L103.5,472.8 L103.1,473.0 L103.0,472.8 L103.2,472.3 L102.0,472.0 L102.4,471.4 L102.4,470.7 L102.1,470.2 L101.4,470.3 L101.2,468.9 L100.9,467.7 Z" fill="rgba(139,26,43,0.15)" stroke="rgba(139,26,43,0.4)" stroke-width="0.5"/>
    <path class="region-area" d="M91.2,414.0 L91.7,412.7 L93.0,411.9 L93.1,410.9 L93.8,410.9 L94.4,410.4 L94.9,411.1 L94.8,411.8 L94.6,412.1 L93.0,412.3 L92.3,412.6 L92.2,414.0 L91.2,414.0 Z" fill="rgba(139,26,43,0.15)" stroke="rgba(139,26,43,0.4)" stroke-width="0.5"/></g>
  <g>    <circle cx="82.9" cy="301.3" r="9" fill="#8B1A2B" stroke="#fff" stroke-width="0.8"/>
    <text x="82.9" y="304.8" text-anchor="middle" font-family="Inter, sans-serif" font-size="9" font-weight="700" fill="#fff">1</text>
    <circle cx="134.5" cy="285.8" r="9" fill="#8B1A2B" stroke="#fff" stroke-width="0.8"/>
    <text x="134.5" y="289.3" text-anchor="middle" font-family="Inter, sans-serif" font-size="9" font-weight="700" fill="#fff">2</text>
    <circle cx="176.3" cy="263.1" r="9" fill="#8B1A2B" stroke="#fff" stroke-width="0.8"/>
    <text x="176.3" y="266.6" text-anchor="middle" font-family="Inter, sans-serif" font-size="9" font-weight="700" fill="#fff">3</text>
    <circle cx="225.2" cy="270.9" r="9" fill="#8B1A2B" stroke="#fff" stroke-width="0.8"/>
    <text x="225.2" y="274.4" text-anchor="middle" font-family="Inter, sans-serif" font-size="9" font-weight="700" fill="#fff">4</text>
    <circle cx="192.1" cy="284.8" r="9" fill="#8B1A2B" stroke="#fff" stroke-width="0.8"/>
    <text x="192.1" y="288.3" text-anchor="middle" font-family="Inter, sans-serif" font-size="9" font-weight="700" fill="#fff">5</text>
    <circle cx="166.2" cy="314.6" r="9" fill="#8B1A2B" stroke="#fff" stroke-width="0.8"/>
    <text x="166.2" y="318.1" text-anchor="middle" font-family="Inter, sans-serif" font-size="9" font-weight="700" fill="#fff">6</text>
    <circle cx="172.0" cy="345.8" r="9" fill="#8B1A2B" stroke="#fff" stroke-width="0.8"/>
    <text x="172.0" y="349.3" text-anchor="middle" font-family="Inter, sans-serif" font-size="9" font-weight="700" fill="#fff">7</text>
    <circle cx="209.7" cy="359.4" r="9" fill="#8B1A2B" stroke="#fff" stroke-width="0.8"/>
    <text x="209.7" y="362.9" text-anchor="middle" font-family="Inter, sans-serif" font-size="9" font-weight="700" fill="#fff">8</text>
    <circle cx="217.2" cy="386.7" r="9" fill="#8B1A2B" stroke="#fff" stroke-width="0.8"/>
    <text x="217.2" y="390.2" text-anchor="middle" font-family="Inter, sans-serif" font-size="9" font-weight="700" fill="#fff">9</text>
    <circle cx="274.7" cy="417.6" r="9" fill="#8B1A2B" stroke="#fff" stroke-width="0.8"/>
    <text x="274.7" y="421.1" text-anchor="middle" font-family="Inter, sans-serif" font-size="9" font-weight="700" fill="#fff">10</text>
    <circle cx="324.1" cy="414.2" r="9" fill="#8B1A2B" stroke="#fff" stroke-width="0.8"/>
    <text x="324.1" y="417.7" text-anchor="middle" font-family="Inter, sans-serif" font-size="9" font-weight="700" fill="#fff">11</text>
    <circle cx="250.0" cy="493.0" r="9" fill="#8B1A2B" stroke="#fff" stroke-width="0.8"/>
    <text x="250.0" y="496.5" text-anchor="middle" font-family="Inter, sans-serif" font-size="9" font-weight="700" fill="#fff">12</text>
    <circle cx="113.9" cy="439.1" r="9" fill="#8B1A2B" stroke="#fff" stroke-width="0.8"/>
    <text x="113.9" y="442.6" text-anchor="middle" font-family="Inter, sans-serif" font-size="9" font-weight="700" fill="#fff">13</text></g>
  <line x1="28" y1="556" x2="392" y2="556" stroke="#8B1A2B" stroke-width="0.3" opacity="0.25"/>
  <text x="32" y="564" font-family="Inter, sans-serif" font-size="8.5" fill="#2D1B14"><tspan font-weight="700">1. Piemonte</tspan> : Nebbiolo, Barbera, Dolcetto</text>
  <text x="32" y="579" font-family="Inter, sans-serif" font-size="8.5" fill="#2D1B14"><tspan font-weight="700">2. Lombardiet</tspan> : Chardonnay, Pinot Noir, Nebbiolo</text>
  <text x="32" y="594" font-family="Inter, sans-serif" font-size="8.5" fill="#2D1B14"><tspan font-weight="700">3. Trentino-A.A.</tspan> : Pinot Grigio, Gewurztraminer</text>
  <text x="32" y="609" font-family="Inter, sans-serif" font-size="8.5" fill="#2D1B14"><tspan font-weight="700">4. Friuli-V.G.</tspan> : Pinot Grigio, Friulano</text>
  <text x="32" y="624" font-family="Inter, sans-serif" font-size="8.5" fill="#2D1B14"><tspan font-weight="700">5. Veneto</tspan> : Corvina, Glera, Garganega</text>
  <text x="32" y="639" font-family="Inter, sans-serif" font-size="8.5" fill="#2D1B14"><tspan font-weight="700">6. Emilia-Romagna</tspan> : Lambrusco, Sangiovese</text>
  <text x="32" y="654" font-family="Inter, sans-serif" font-size="8.5" fill="#2D1B14"><tspan font-weight="700">7. Toscana</tspan> : Sangiovese, Cab Sauvignon</text>
  <text x="32" y="669" font-family="Inter, sans-serif" font-size="8.5" fill="#2D1B14"><tspan font-weight="700">8. Umbrien</tspan> : Sagrantino, Grechetto</text>
  <text x="32" y="684" font-family="Inter, sans-serif" font-size="8.5" fill="#2D1B14"><tspan font-weight="700">9. Lazio</tspan> : Malvasia, Trebbiano, Cesanese</text>
  <text x="32" y="699" font-family="Inter, sans-serif" font-size="8.5" fill="#2D1B14"><tspan font-weight="700">10. Kampanien</tspan> : Aglianico, Fiano, Greco</text>
  <text x="32" y="714" font-family="Inter, sans-serif" font-size="8.5" fill="#2D1B14"><tspan font-weight="700">11. Apulien</tspan> : Primitivo, Negroamaro</text>
  <text x="32" y="729" font-family="Inter, sans-serif" font-size="8.5" fill="#2D1B14"><tspan font-weight="700">12. Sicilien</tspan> : Nero d'Avola, Nerello Mascalese</text>
  <text x="32" y="744" font-family="Inter, sans-serif" font-size="8.5" fill="#2D1B14"><tspan font-weight="700">13. Sardinien</tspan> : Cannonau, Vermentino</text>
  <text x="210" y="801" text-anchor="middle" font-family="Inter, sans-serif" font-size="7" fill="#b0a89e">Cellar -- Sommelier Companion</text>
</svg>