<svg xmlns="http://www.w3.org/2000/svg" viewBox="0 0 280 600">
  <defs><filter id="shadow"><feDropShadow dx="1" dy="1.5" stdDeviation="2" flood-color="#2D1B14" flood-opacity="0.08"/></filter></defs>
  <text x="140" y="24" text-anchor="middle" font-family="Cormorant Garamond, Georgia, serif" font-size="16" font-weight="400" fill="#2D1B14" letter-spacing="5">NYA ZEELAND</text>
  <text x="140" y="42" text-anchor="middle" font-family="Inter, sans-serif" font-size="8" fill="#8a7a6a" letter-spacing="1" class="region-label">Placera regionerna och namnge de viktigaste druvorna</text>
  <g filter="url(#shadow)">    <path d="M80.3,420.0 L81.0,420.4 L81.2,420.6 L80.8,420.7 L80.5,420.4 L80.1,420.3 L80.1,420.5 L80.2,420.8 L80.0,420.9 L79.4,420.8 L79.6,421.0 L77.5,421.1 L77.1,421.2 L75.6,422.2 L74.6,421.9 L73.8,422.0 L73.4,421.4 L72.7,421.8 L72.6,422.2 L72.4,422.1 L71.6,422.5 L71.1,422.6 L71.4,422.8 L72.8,422.5 L72.5,423.0 L72.0,423.4 L72.0,423.0 L71.8,423.0 L71.0,423.5 L69.9,423.6 L69.6,423.6 L69.5,423.3 L69.6,422.9 L70.0,422.2 L71.3,421.8 L71.1,421.6 L71.2,421.1 L71.2,420.5 L71.3,420.3 L72.0,419.9 L72.2,419.8 L72.8,419.9 L73.1,419.7 L72.9,418.9 L73.0,418.6 L73.7,418.5 L74.2,417.9 L74.2,417.3 L73.3,416.3 L73.6,415.9 L73.4,415.5 L73.6,414.8 L73.8,414.5 L74.6,414.4 L75.3,414.6 L75.9,414.3 L76.6,414.6 L77.2,415.0 L78.6,416.3 L79.3,416.8 L79.4,417.0 L80.0,417.2 L80.1,417.4 L79.8,417.6 L80.2,417.7 L80.2,417.8 L79.8,417.9 L78.3,417.8 L78.5,417.6 L77.6,417.5 L77.3,417.6 L77.4,417.9 L77.4,418.1 L76.6,418.9 L77.0,418.8 L77.6,418.3 L77.9,418.2 L79.5,418.7 L79.2,419.2 L80.8,418.8 L81.2,419.3 L81.0,419.9 L80.3,419.9 L80.3,420.0 Z" fill="#faf5ef" stroke="#8B1A2B" stroke-width="1.3" stroke-linejoin="round"/>
    <path d="M56.9,397.5 L57.2,397.7 L57.5,398.4 L57.5,399.0 L57.3,399.3 L56.7,399.5 L56.4,399.2 L56.3,399.4 L55.9,399.5 L55.7,398.5 L55.5,398.2 L55.2,398.2 L54.3,399.0 L53.7,399.2 L53.9,398.8 L54.6,397.9 L56.9,397.5 Z" fill="#faf5ef" stroke="#8B1A2B" stroke-width="1.3" stroke-linejoin="round"/>
    <path d="M60.9,390.2 L61.4,391.5 L62.0,392.6 L61.2,392.6 L60.1,392.1 L59.8,391.7 L59.7,391.6 L59.9,391.5 L59.9,391.3 L60.9,390.2 Z" fill="#faf5ef" stroke="#8B1A2B" stroke-width="1.3" stroke-linejoin="round"/>
    <path d="M177.4,326.7 L177.7,326.7 L177.7,327.2 L177.4,328.1 L177.2,328.2 L176.3,328.2 L175.6,328.6 L174.5,328.6 L174.8,328.4 L175.5,328.3 L176.3,327.6 L176.6,327.9 L176.9,327.8 L177.2,327.5 L177.2,327.2 L176.8,327.3 L176.5,327.0 L176.8,327.0 L177.4,326.7 Z" fill="#faf5ef" stroke="#8B1A2B" stroke-width="1.3" stroke-linejoin="round"/>
    <path d="M167.9,323.8 L168.2,323.5 L168.3,323.2 L168.3,323.0 L168.0,323.2 L168.0,323.0 L168.0,322.5 L168.7,323.0 L169.0,323.0 L168.6,322.6 L168.5,322.2 L168.8,321.2 L168.9,321.5 L169.1,321.5 L169.3,321.1 L169.6,321.2 L169.7,321.9 L169.8,321.8 L170.5,321.5 L170.0,321.5 L170.5,321.1 L170.9,320.4 L170.9,320.9 L170.7,321.5 L170.9,321.8 L170.4,322.2 L170.2,322.9 L169.7,322.9 L169.4,323.2 L169.0,323.4 L168.8,323.7 L168.4,323.8 L167.9,323.8 Z" fill="#faf5ef" stroke="#8B1A2B" stroke-width="1.3" stroke-linejoin="round"/>
    <path d="M151.7,360.6 L151.9,361.0 L151.7,362.6 L151.5,362.9 L151.8,364.3 L152.2,365.2 L152.2,365.4 L152.0,365.3 L151.8,365.3 L152.1,365.7 L153.1,365.9 L151.1,366.2 L150.7,366.5 L151.7,366.7 L152.0,366.4 L152.6,366.3 L153.4,366.4 L153.8,366.9 L154.0,366.1 L154.6,366.4 L154.6,367.2 L154.8,367.2 L155.2,366.7 L155.4,366.6 L155.9,366.7 L156.1,367.1 L156.7,366.6 L156.8,366.9 L157.4,367.4 L157.3,367.8 L157.5,368.1 L157.5,369.0 L157.2,369.9 L157.0,369.6 L156.6,370.0 L156.3,370.0 L156.2,370.4 L155.9,370.2 L155.7,370.4 L155.3,369.6 L155.4,369.1 L155.1,368.7 L155.1,368.3 L154.9,368.2 L154.6,368.5 L154.8,368.8 L154.6,369.2 L154.6,369.6 L155.2,370.7 L153.8,370.6 L153.2,370.2 L152.8,370.3 L151.7,369.4 L151.7,369.2 L152.0,368.9 L146.6,369.9 L146.5,369.8 L146.6,369.6 L146.9,369.4 L150.2,368.7 L149.6,368.4 L148.7,368.3 L148.2,367.9 L147.8,367.8 L146.6,368.0 L146.3,368.2 L146.1,368.6 L146.1,369.7 L145.9,370.0 L143.9,370.3 L143.6,370.5 L141.0,371.5 L137.9,373.1 L137.0,373.1 L135.6,373.8 L134.8,373.9 L134.2,374.3 L132.9,374.8 L132.4,375.3 L131.8,375.5 L130.8,376.2 L130.5,376.4 L130.1,376.3 L129.7,376.5 L128.7,378.0 L128.5,379.4 L127.9,380.0 L127.8,380.4 L127.0,380.7 L127.4,381.1 L127.4,382.8 L127.7,383.8 L127.6,384.1 L127.0,384.5 L127.5,384.5 L127.6,384.9 L127.5,386.4 L126.8,387.6 L125.7,389.0 L124.0,390.3 L123.1,391.6 L122.7,392.7 L122.4,393.4 L122.8,393.8 L122.8,394.2 L122.1,394.9 L122.2,395.4 L122.0,395.7 L121.2,396.2 L121.3,396.6 L121.1,396.7 L120.7,396.8 L120.5,396.7 L120.7,397.3 L120.2,397.5 L119.3,397.6 L119.3,397.8 L119.6,397.9 L119.9,398.0 L119.5,398.5 L118.7,398.9 L118.4,399.0 L118.5,399.4 L119.3,399.5 L119.5,399.4 L120.5,399.9 L120.5,400.1 L119.1,400.4 L118.7,400.9 L118.3,401.0 L118.1,401.4 L117.5,401.7 L117.3,401.9 L119.4,401.2 L120.0,400.5 L120.6,400.3 L120.8,400.1 L121.0,400.6 L120.9,401.4 L120.8,401.6 L119.9,401.7 L119.6,401.9 L119.6,402.1 L116.3,402.4 L115.0,402.7 L113.8,403.3 L112.7,404.6 L112.3,406.0 L112.0,406.3 L111.3,406.7 L110.1,407.1 L109.2,407.9 L107.0,409.0 L106.4,409.5 L106.2,410.9 L105.3,411.3 L104.2,411.1 L103.2,411.3 L104.7,411.4 L104.4,412.0 L103.9,412.2 L103.4,412.4 L102.8,412.7 L101.8,412.5 L100.4,413.0 L100.7,413.4 L100.3,413.5 L99.3,413.3 L99.0,413.7 L98.6,413.5 L97.8,413.4 L97.0,413.9 L96.1,413.9 L95.9,413.8 L95.9,413.3 L95.7,413.2 L95.5,413.4 L95.6,413.7 L95.3,414.0 L94.7,414.0 L94.4,413.9 L94.1,413.6 L93.9,413.6 L93.8,414.1 L93.4,414.3 L91.9,413.9 L91.1,413.9 L90.9,413.7 L90.4,412.4 L87.6,412.7 L87.7,412.5 L88.3,412.4 L87.6,412.2 L86.9,412.2 L87.3,412.7 L87.1,412.8 L87.3,413.0 L86.4,413.2 L83.7,413.0 L84.0,412.7 L84.4,412.6 L84.9,412.6 L85.3,412.8 L85.7,412.9 L86.0,412.8 L85.7,412.5 L85.2,412.4 L83.8,412.4 L82.9,412.1 L82.8,412.3 L82.9,412.7 L83.5,413.4 L83.1,413.3 L82.5,412.8 L82.2,412.7 L82.0,412.3 L81.5,412.2 L81.4,411.8 L82.0,411.7 L82.2,411.8 L82.3,412.0 L83.2,411.4 L83.3,411.0 L83.2,410.5 L82.9,410.1 L82.5,410.1 L82.7,410.5 L82.5,410.9 L82.2,411.1 L81.9,411.1 L80.5,409.1 L80.3,408.9 L79.8,408.9 L78.1,409.1 L78.1,409.6 L77.3,409.4 L76.3,409.4 L76.1,409.7 L75.9,409.7 L75.2,409.6 L74.8,409.8 L74.6,409.8 L73.8,409.0 L73.1,408.6 L73.7,408.4 L73.8,408.2 L72.6,407.0 L72.6,406.7 L72.4,406.5 L71.4,406.4 L70.7,406.1 L68.5,405.9 L68.0,407.3 L67.8,407.5 L67.0,407.5 L66.1,407.9 L64.8,407.7 L64.2,407.9 L64.0,407.7 L62.8,407.3 L57.7,407.0 L56.8,406.6 L56.3,406.0 L57.0,405.7 L57.6,405.2 L58.1,404.6 L58.8,403.6 L59.6,403.4 L60.7,402.8 L60.7,402.7 L58.3,403.5 L58.0,403.8 L58.1,404.2 L57.5,404.7 L57.3,404.5 L57.4,404.2 L57.2,404.1 L57.0,404.6 L56.5,404.8 L55.4,405.0 L55.4,404.4 L55.6,404.3 L55.8,404.4 L55.9,403.9 L56.1,403.6 L56.8,403.1 L58.2,402.8 L58.4,402.5 L57.3,402.8 L56.6,402.6 L56.5,402.5 L57.5,401.6 L57.6,401.5 L57.4,401.4 L56.9,401.6 L56.7,402.0 L56.3,402.2 L55.6,403.0 L54.1,403.3 L53.4,403.8 L53.2,403.5 L53.0,401.1 L53.2,400.7 L53.4,400.5 L55.5,400.4 L55.4,400.5 L55.5,400.7 L55.9,400.4 L56.4,400.3 L57.3,400.3 L59.0,400.0 L59.7,400.1 L60.5,399.6 L61.6,399.1 L61.8,398.8 L60.8,399.0 L59.7,398.9 L58.2,399.2 L57.9,399.2 L58.4,398.5 L59.7,398.1 L57.9,398.2 L57.8,397.5 L58.0,397.2 L60.0,396.7 L61.3,396.9 L61.6,396.7 L61.1,396.7 L60.7,396.4 L61.7,396.2 L62.2,396.0 L62.3,395.6 L60.2,396.4 L58.9,396.5 L58.0,396.9 L57.3,397.0 L56.9,396.9 L56.8,396.6 L56.8,396.4 L57.3,395.5 L57.8,394.3 L58.5,394.0 L60.0,394.6 L60.7,394.7 L60.3,394.0 L60.0,393.8 L59.8,394.2 L58.4,393.5 L58.4,393.3 L58.7,392.8 L59.6,392.3 L59.7,392.3 L59.8,392.6 L60.1,392.8 L60.8,393.0 L60.4,393.4 L61.7,393.2 L62.2,393.5 L62.3,394.0 L61.6,394.6 L62.5,394.5 L63.0,393.9 L63.7,394.4 L64.1,395.3 L64.2,395.2 L64.7,395.4 L64.6,394.9 L63.8,394.1 L62.2,393.0 L62.7,392.7 L64.3,392.3 L64.6,392.4 L65.0,392.9 L65.5,393.1 L66.1,393.0 L66.3,392.8 L65.5,392.7 L65.3,392.6 L65.1,392.4 L65.1,392.1 L65.3,391.8 L64.7,391.8 L63.7,392.1 L62.4,392.2 L62.2,392.1 L61.9,391.3 L61.6,391.1 L61.5,390.9 L61.5,390.2 L61.6,389.9 L62.0,389.8 L62.4,389.8 L62.8,390.0 L63.4,390.6 L64.1,390.8 L64.2,390.6 L64.1,390.5 L63.0,389.7 L62.7,389.5 L62.3,389.5 L63.3,388.5 L63.6,388.5 L64.2,389.2 L64.3,389.9 L64.4,390.0 L64.6,389.3 L65.7,389.3 L65.5,389.1 L64.3,388.8 L63.8,388.2 L63.8,388.0 L64.0,387.7 L64.4,387.6 L65.6,387.9 L66.7,388.4 L66.9,388.3 L64.6,387.3 L64.9,386.9 L65.7,386.4 L66.6,386.2 L66.3,385.9 L67.5,385.4 L68.0,385.4 L68.2,385.8 L68.5,386.1 L68.5,386.3 L68.3,386.9 L68.8,387.4 L68.7,387.7 L69.5,387.7 L69.3,387.0 L68.9,386.8 L68.9,386.2 L68.5,385.3 L68.4,385.1 L68.6,384.5 L69.1,384.2 L69.7,384.1 L70.2,384.5 L70.3,384.7 L69.9,385.4 L69.9,385.7 L70.4,386.0 L70.4,385.6 L70.8,384.9 L70.8,384.6 L70.4,384.3 L70.1,383.7 L70.7,383.4 L71.4,384.0 L72.1,384.2 L70.8,383.3 L70.8,383.1 L71.2,382.7 L72.0,382.6 L72.3,382.1 L72.7,382.0 L73.2,381.6 L73.7,381.5 L74.2,381.6 L75.6,382.4 L76.1,383.1 L76.2,382.9 L76.2,382.4 L76.1,382.2 L74.9,381.5 L74.8,380.5 L74.6,380.1 L76.2,378.6 L77.3,378.1 L77.7,377.7 L77.6,377.2 L79.1,377.1 L79.3,376.8 L79.3,376.6 L79.2,376.4 L78.8,376.3 L78.8,376.2 L79.8,375.9 L80.4,375.4 L82.0,374.5 L82.5,374.0 L82.7,373.4 L83.4,373.0 L83.0,372.8 L83.6,372.6 L85.1,372.4 L86.4,371.9 L86.9,371.9 L87.3,371.6 L88.1,372.2 L88.9,372.3 L89.8,372.1 L90.6,371.7 L92.9,370.3 L93.9,369.9 L94.1,369.7 L94.3,369.3 L95.3,368.9 L95.9,368.4 L97.6,367.6 L98.8,367.2 L99.1,366.9 L99.5,366.7 L100.4,366.6 L102.0,365.9 L103.0,366.0 L104.1,365.4 L105.2,364.5 L105.3,364.2 L105.6,363.9 L106.0,363.8 L106.2,363.7 L106.3,363.1 L106.6,362.8 L109.0,361.9 L109.4,361.2 L110.0,361.0 L110.2,360.5 L111.4,360.0 L111.8,360.0 L112.3,360.2 L113.3,359.0 L112.8,358.9 L112.1,359.6 L111.7,359.8 L112.0,359.2 L113.0,358.5 L113.1,358.1 L114.3,358.0 L114.6,357.9 L114.7,357.8 L114.6,357.7 L115.1,357.3 L115.4,357.2 L115.7,357.3 L115.8,357.0 L116.7,356.5 L118.1,356.2 L118.7,355.8 L119.6,355.7 L120.1,355.3 L120.7,355.1 L121.5,354.3 L122.1,354.0 L123.4,352.2 L124.4,351.8 L124.7,351.3 L125.3,351.0 L125.9,350.1 L126.2,350.0 L127.3,348.3 L127.8,347.8 L128.0,346.9 L128.7,346.1 L129.1,345.3 L129.5,343.0 L130.0,341.7 L130.9,340.8 L131.3,339.5 L132.0,338.0 L131.9,337.9 L131.7,338.0 L131.7,337.9 L131.6,337.0 L131.9,336.9 L132.8,337.0 L134.3,336.9 L136.6,335.9 L137.1,335.5 L137.7,335.5 L137.8,335.1 L138.3,334.8 L139.3,333.4 L139.3,333.1 L139.6,332.8 L139.9,332.1 L141.1,331.5 L141.0,331.2 L141.3,330.8 L141.5,329.7 L142.2,329.6 L141.8,328.9 L141.7,327.2 L141.9,326.5 L141.7,323.2 L142.3,323.0 L143.1,321.9 L143.4,321.8 L143.5,321.5 L144.0,321.5 L145.7,320.5 L148.0,318.5 L148.6,318.4 L148.3,319.1 L148.5,319.1 L148.8,318.8 L149.0,318.9 L149.3,318.8 L149.4,318.7 L149.3,318.5 L149.8,318.3 L149.8,318.2 L149.6,318.0 L149.2,318.2 L148.8,318.2 L149.4,317.6 L150.1,317.3 L153.2,317.2 L155.7,317.5 L155.3,317.6 L151.7,317.5 L151.4,318.0 L151.0,318.9 L150.8,319.0 L150.9,319.4 L150.9,319.5 L150.4,319.5 L150.6,319.9 L151.0,320.1 L150.8,320.8 L150.9,321.1 L151.4,320.9 L151.6,321.3 L153.5,322.5 L153.7,322.6 L154.5,322.3 L154.6,321.9 L154.8,321.8 L155.1,321.9 L155.5,321.6 L155.8,321.6 L156.0,321.8 L156.1,322.6 L155.9,322.9 L156.6,323.0 L156.7,323.2 L156.5,324.0 L156.6,324.4 L156.4,324.7 L155.7,325.3 L155.9,325.4 L156.2,325.3 L156.4,326.3 L156.8,327.0 L156.7,327.2 L156.6,326.9 L156.3,326.8 L156.2,327.3 L156.6,328.0 L156.9,327.8 L157.0,328.0 L157.4,329.2 L157.0,329.5 L157.1,329.7 L157.3,329.8 L158.4,329.9 L159.1,329.7 L160.2,329.1 L161.1,328.2 L162.0,327.5 L162.4,327.4 L162.6,327.2 L162.9,327.2 L162.8,327.5 L163.6,327.2 L164.2,326.6 L164.6,326.6 L164.7,326.5 L164.5,326.3 L165.0,325.9 L165.2,325.8 L165.5,325.9 L165.9,326.4 L165.9,326.7 L166.2,326.5 L166.3,326.7 L166.5,326.6 L166.3,326.2 L167.3,325.8 L167.5,325.6 L167.4,325.4 L167.1,325.3 L166.5,325.6 L166.4,325.5 L166.4,325.2 L166.8,324.9 L167.5,324.6 L168.3,324.5 L168.7,324.0 L169.1,323.8 L169.1,324.6 L169.4,324.6 L170.0,324.2 L170.1,323.9 L171.3,323.4 L171.8,323.5 L172.0,324.0 L171.7,324.0 L170.9,323.9 L171.0,324.1 L170.7,324.5 L170.4,324.5 L170.1,324.6 L170.4,324.8 L170.1,325.0 L169.1,325.2 L168.7,325.0 L168.2,325.0 L168.0,325.2 L168.4,325.5 L168.0,325.7 L168.0,325.8 L168.3,325.9 L168.1,326.3 L167.8,326.6 L168.0,326.7 L168.3,326.6 L168.7,325.9 L170.3,325.8 L170.7,325.9 L170.4,325.9 L170.3,326.3 L169.6,326.2 L169.6,326.7 L169.3,326.7 L169.2,327.0 L168.7,327.2 L168.6,327.4 L169.1,327.5 L169.4,327.9 L169.2,328.6 L168.6,329.0 L167.7,329.2 L167.9,329.5 L168.1,329.6 L169.8,328.8 L170.4,328.7 L170.4,328.6 L169.8,328.5 L169.7,328.4 L170.6,328.3 L171.1,328.5 L171.5,328.5 L172.1,328.3 L171.8,328.1 L172.7,328.1 L173.2,328.0 L173.5,327.8 L171.8,327.8 L171.3,328.1 L170.9,328.0 L171.1,327.8 L170.2,328.0 L169.8,328.0 L169.7,327.5 L169.7,327.3 L170.3,326.9 L170.3,326.6 L170.6,326.5 L170.6,326.2 L171.2,326.3 L171.0,326.8 L171.1,327.3 L171.7,326.5 L172.1,326.5 L171.8,326.0 L172.1,325.7 L172.0,325.3 L171.7,325.3 L171.4,325.8 L170.6,325.2 L171.2,325.2 L171.0,324.8 L171.4,324.8 L171.4,324.5 L172.2,325.1 L172.9,325.3 L173.2,325.2 L173.4,324.9 L173.7,325.1 L174.0,325.1 L174.1,324.8 L174.1,324.5 L174.3,324.6 L174.8,325.0 L174.8,325.2 L174.8,325.5 L174.3,325.7 L174.4,325.9 L174.7,326.1 L175.0,326.0 L176.2,325.0 L176.4,324.9 L176.6,325.1 L175.5,326.6 L175.5,327.0 L174.7,327.3 L174.6,326.4 L174.3,326.9 L174.1,326.8 L174.2,327.2 L174.6,327.6 L174.8,328.0 L174.2,328.2 L173.9,328.5 L172.8,328.5 L172.4,328.6 L172.1,328.8 L171.8,328.7 L171.5,328.9 L171.0,328.9 L170.5,329.2 L170.4,329.4 L171.4,329.2 L171.7,329.3 L172.5,328.9 L173.0,329.0 L173.8,328.7 L174.6,329.2 L175.9,328.8 L176.5,328.4 L176.1,329.2 L175.5,329.6 L175.3,330.1 L174.2,330.4 L174.6,329.9 L174.4,329.8 L174.1,330.1 L173.9,330.0 L174.0,329.8 L173.5,330.0 L172.2,331.9 L172.4,332.9 L172.3,333.1 L172.6,333.2 L172.8,333.4 L172.8,333.7 L173.1,333.8 L173.2,333.8 L173.3,333.5 L173.1,332.8 L173.3,333.0 L174.1,334.1 L174.4,335.1 L175.0,336.4 L175.3,336.5 L176.0,336.5 L175.9,336.9 L174.8,338.5 L171.5,341.2 L170.8,342.1 L170.7,343.2 L169.7,344.5 L168.4,345.3 L167.9,345.9 L167.5,346.0 L167.2,346.3 L166.8,346.7 L166.8,347.1 L167.2,347.5 L167.1,347.6 L167.0,347.7 L166.5,347.3 L166.0,347.3 L165.3,347.7 L164.5,348.4 L163.6,350.3 L162.9,350.6 L162.9,350.7 L163.2,350.8 L162.0,352.7 L161.8,353.3 L161.3,353.9 L160.8,354.1 L160.8,354.9 L160.3,355.4 L160.2,355.7 L159.4,356.1 L158.1,356.5 L157.9,356.9 L157.0,357.5 L154.4,358.0 L154.0,358.4 L152.7,359.1 L151.7,360.6 Z" fill="#faf5ef" stroke="#8B1A2B" stroke-width="1.3" stroke-linejoin="round"/>
    <path d="M188.8,258.7 L190.1,257.9 L190.5,258.3 L190.0,258.6 L190.1,259.2 L190.0,259.4 L188.7,259.5 L188.1,259.3 L188.2,259.1 L187.8,258.9 L187.3,259.0 L187.3,258.6 L187.4,258.4 L188.3,258.4 L188.8,258.7 Z" fill="#faf5ef" stroke="#8B1A2B" stroke-width="1.3" stroke-linejoin="round"/>
    <path d="M195.6,250.9 L196.0,251.3 L195.7,251.8 L195.4,252.0 L195.1,251.3 L194.5,251.5 L194.3,250.8 L193.7,250.8 L193.7,250.5 L193.6,250.3 L193.2,250.4 L192.7,250.3 L192.4,249.9 L192.3,249.6 L192.7,250.0 L193.0,249.9 L192.9,249.5 L193.1,249.0 L192.6,248.8 L192.4,248.5 L192.9,248.5 L193.2,248.3 L192.9,248.0 L192.9,247.7 L193.0,247.5 L193.5,247.4 L193.7,247.6 L194.0,248.0 L194.4,248.3 L194.1,248.4 L194.2,248.6 L194.8,249.0 L195.5,249.2 L195.2,249.6 L195.0,250.2 L195.3,250.5 L195.6,250.7 L195.6,250.9 Z" fill="#faf5ef" stroke="#8B1A2B" stroke-width="1.3" stroke-linejoin="round"/>
    <path d="M217.7,301.4 L218.0,303.4 L219.1,304.0 L219.9,304.0 L220.4,304.1 L219.9,305.1 L219.1,305.4 L219.0,305.6 L218.7,306.6 L218.7,307.0 L218.3,307.1 L218.1,307.4 L217.5,308.8 L216.9,309.9 L216.9,310.6 L216.4,311.5 L215.4,312.8 L214.6,313.3 L214.1,313.1 L213.6,313.6 L213.4,314.2 L213.6,313.9 L213.9,313.8 L212.9,315.4 L212.7,316.5 L212.5,316.9 L211.4,316.9 L210.5,318.1 L209.5,318.8 L208.9,319.9 L208.5,320.0 L208.3,320.2 L206.8,322.9 L206.6,323.6 L206.3,324.0 L205.5,324.2 L205.2,324.5 L204.8,325.2 L204.3,326.6 L203.9,327.2 L202.3,328.9 L199.4,330.8 L197.7,331.6 L194.2,333.7 L193.1,334.0 L192.3,334.6 L190.9,334.7 L190.6,334.6 L190.5,334.2 L190.2,334.0 L190.3,333.8 L190.0,333.2 L190.2,331.8 L190.0,331.6 L187.7,331.0 L186.9,331.3 L186.0,332.0 L185.6,331.9 L185.0,331.6 L185.0,331.5 L185.2,331.2 L185.1,330.2 L185.5,329.3 L185.6,328.9 L185.4,328.5 L184.5,328.5 L183.8,328.9 L183.5,329.4 L184.3,329.5 L184.5,329.7 L184.4,330.0 L184.2,330.2 L183.6,330.1 L183.1,330.4 L182.3,330.3 L181.6,330.0 L181.0,329.6 L180.9,329.0 L181.0,328.7 L182.0,328.5 L182.3,328.3 L183.3,327.5 L183.7,326.8 L184.5,326.4 L184.6,326.4 L184.8,326.8 L185.0,326.6 L185.1,326.5 L185.1,326.1 L184.7,325.7 L186.1,324.7 L186.3,324.0 L186.8,323.0 L187.7,322.3 L188.6,321.1 L189.4,319.9 L190.1,318.2 L190.2,316.7 L190.6,316.6 L190.5,315.9 L190.9,313.9 L190.5,313.3 L190.0,311.4 L189.6,310.6 L188.4,309.7 L188.1,309.2 L186.6,308.0 L184.7,307.1 L183.0,307.1 L181.7,306.7 L180.3,306.6 L178.3,305.2 L177.1,303.7 L176.4,303.2 L174.8,302.7 L172.1,302.3 L171.2,302.1 L169.1,300.9 L168.5,300.4 L168.0,299.8 L167.7,299.0 L167.6,298.3 L167.9,296.8 L168.4,296.1 L169.1,295.7 L170.7,295.1 L174.8,293.2 L175.1,293.1 L177.2,293.2 L178.0,293.0 L178.6,292.6 L180.5,291.0 L180.8,290.7 L181.0,289.8 L181.1,289.1 L181.2,288.9 L181.4,288.9 L181.3,288.6 L181.5,287.8 L181.5,285.1 L181.7,284.5 L182.2,283.5 L182.5,282.4 L182.8,280.6 L182.5,279.7 L182.6,279.5 L183.1,279.6 L183.7,279.5 L184.0,280.0 L184.1,280.0 L184.1,279.8 L184.7,280.3 L185.1,280.1 L184.6,279.8 L185.0,279.7 L186.0,279.7 L186.2,279.4 L185.7,279.5 L185.6,279.4 L185.6,279.1 L185.3,278.8 L184.9,278.7 L184.6,278.8 L184.3,279.2 L183.9,279.2 L184.0,278.5 L184.1,278.4 L184.6,278.2 L185.4,277.6 L185.4,277.3 L185.2,277.1 L184.8,277.0 L184.2,277.9 L183.8,277.6 L183.9,275.8 L184.3,275.1 L185.0,274.9 L186.8,274.8 L186.6,274.5 L186.3,274.5 L186.7,274.1 L186.8,273.9 L186.7,273.7 L186.0,274.0 L185.8,274.3 L185.5,274.2 L185.1,274.4 L184.8,274.2 L183.8,271.1 L182.9,269.3 L182.7,268.6 L182.9,268.3 L183.7,268.0 L184.2,267.0 L184.6,266.8 L184.4,266.7 L183.7,267.0 L183.1,267.8 L182.9,267.8 L182.5,267.6 L181.7,266.1 L181.0,264.6 L180.3,263.6 L180.2,263.1 L180.9,263.2 L181.5,263.0 L181.9,263.2 L181.7,263.7 L182.5,264.9 L182.6,265.4 L182.8,265.8 L183.1,266.0 L183.2,265.6 L183.0,265.0 L183.2,264.9 L183.8,264.9 L184.1,264.8 L182.7,264.5 L183.8,263.9 L183.9,263.9 L183.9,264.2 L184.9,263.4 L185.3,263.3 L186.1,264.0 L186.3,263.9 L186.3,263.7 L186.2,263.2 L185.1,262.7 L184.8,262.8 L184.4,262.0 L184.0,262.4 L183.8,262.3 L183.7,261.9 L184.3,261.6 L184.5,261.2 L183.5,261.1 L181.9,261.3 L181.5,261.5 L181.0,262.4 L180.5,262.2 L180.0,262.7 L179.6,262.8 L179.3,262.6 L178.5,260.6 L178.1,259.1 L177.8,258.4 L177.0,257.2 L174.9,255.0 L174.4,254.3 L174.3,253.6 L174.4,253.2 L174.7,253.1 L174.6,253.5 L174.6,254.0 L175.0,253.4 L175.2,253.3 L175.5,253.5 L175.7,254.0 L176.4,254.7 L177.0,255.1 L177.0,255.2 L176.8,255.4 L177.6,255.6 L177.0,255.8 L177.2,256.0 L177.1,256.3 L177.7,256.6 L177.7,256.1 L178.2,256.9 L178.4,256.6 L178.5,256.6 L178.7,255.9 L179.1,255.5 L178.8,255.6 L178.7,255.3 L178.8,254.6 L178.7,254.4 L178.6,254.6 L178.5,254.5 L178.5,253.7 L178.8,253.3 L178.4,252.8 L178.8,252.3 L178.2,252.1 L177.6,252.5 L176.6,252.6 L176.1,252.5 L175.8,252.2 L175.7,251.7 L175.9,251.8 L176.0,251.5 L176.2,251.4 L176.7,251.6 L177.6,251.5 L179.2,250.5 L179.6,250.4 L179.7,250.2 L179.5,250.0 L179.1,250.2 L178.5,250.4 L178.0,250.8 L177.8,250.6 L177.0,251.1 L176.2,250.9 L176.1,250.6 L176.3,250.5 L177.1,250.9 L177.5,250.0 L177.9,249.4 L178.1,248.9 L178.5,249.0 L178.6,248.9 L178.4,248.6 L177.6,248.4 L177.7,248.9 L177.5,249.4 L177.1,249.8 L176.7,250.0 L177.0,249.7 L176.5,249.7 L176.3,249.2 L175.7,249.1 L175.7,248.7 L175.9,248.3 L175.7,248.3 L175.2,248.7 L175.2,248.3 L175.0,248.3 L174.3,248.7 L174.5,248.8 L174.5,249.2 L175.3,249.4 L175.5,249.6 L175.4,249.9 L175.6,250.0 L175.8,249.7 L176.0,249.7 L176.4,250.2 L175.8,250.4 L175.7,250.5 L175.5,250.6 L174.6,250.2 L173.7,249.1 L172.6,249.1 L172.1,248.6 L171.4,248.3 L171.2,247.1 L170.7,246.7 L170.5,246.3 L169.9,245.8 L170.6,245.1 L170.5,244.7 L170.0,244.4 L170.0,244.6 L170.3,244.9 L170.2,245.3 L169.6,245.5 L169.5,245.8 L170.5,246.9 L170.8,247.0 L171.1,248.1 L171.5,248.8 L172.1,249.0 L172.2,249.3 L172.6,249.6 L173.5,250.7 L174.2,250.8 L174.3,251.0 L174.0,251.1 L174.4,251.5 L174.6,251.9 L174.5,252.2 L174.2,252.4 L173.4,252.7 L172.7,252.7 L172.3,252.2 L171.8,250.6 L169.8,248.4 L169.2,247.5 L162.1,239.7 L162.0,239.4 L162.6,238.6 L162.9,237.6 L163.1,237.4 L163.4,237.5 L163.5,237.3 L164.0,237.8 L164.2,237.8 L164.3,237.0 L164.7,237.5 L164.9,236.6 L165.1,236.4 L165.5,236.5 L165.7,236.4 L166.1,235.6 L165.3,235.7 L165.3,235.4 L165.1,235.3 L165.0,236.0 L164.6,235.0 L164.3,235.3 L164.7,236.1 L164.6,236.4 L164.1,236.5 L163.5,236.3 L163.4,236.3 L163.6,236.6 L163.5,236.7 L163.0,236.9 L162.6,236.6 L162.1,236.9 L162.2,237.1 L161.8,237.4 L161.9,237.6 L161.9,238.8 L161.7,238.9 L161.5,238.8 L160.2,237.3 L160.0,236.9 L160.1,236.6 L160.6,236.1 L160.2,236.1 L160.7,235.5 L160.2,235.5 L160.0,235.8 L159.6,236.5 L158.9,235.8 L159.8,235.1 L159.5,235.1 L158.8,235.3 L158.5,235.3 L157.2,234.0 L157.2,233.7 L157.4,233.6 L158.0,233.7 L158.5,233.2 L158.8,232.4 L158.9,231.6 L158.7,230.8 L158.2,229.9 L156.7,228.5 L156.2,227.4 L155.8,227.2 L152.6,223.7 L151.9,223.2 L150.6,222.5 L151.0,222.0 L151.0,221.5 L151.7,221.8 L152.6,221.8 L153.0,222.0 L154.1,221.5 L155.9,221.6 L156.7,221.2 L157.0,221.5 L156.5,221.7 L156.4,222.0 L156.4,222.9 L156.3,223.2 L155.9,223.3 L155.7,222.8 L155.4,222.8 L155.6,222.4 L155.2,222.3 L155.1,222.4 L155.0,223.1 L154.8,223.2 L154.6,223.1 L154.5,223.4 L154.3,223.5 L154.9,224.0 L155.0,223.6 L155.3,223.5 L155.1,224.0 L155.3,224.1 L155.6,224.0 L155.7,223.8 L155.8,225.2 L156.2,224.8 L156.2,224.3 L156.1,223.8 L155.9,223.5 L156.3,223.7 L156.8,226.0 L158.5,227.5 L158.7,228.1 L157.6,227.2 L157.6,227.7 L158.3,228.3 L160.4,229.3 L159.9,230.1 L159.9,230.8 L160.8,230.9 L161.1,230.5 L161.5,230.2 L161.3,229.0 L161.3,228.7 L162.4,228.3 L162.5,228.1 L162.4,227.7 L162.7,227.5 L162.9,228.0 L162.8,228.4 L163.4,228.1 L163.4,228.4 L163.6,228.7 L163.0,228.9 L162.3,228.9 L162.2,228.9 L162.1,229.2 L162.3,229.8 L162.9,230.4 L163.6,230.6 L164.3,230.5 L164.6,230.6 L164.9,230.9 L165.1,230.6 L164.6,230.1 L164.6,229.9 L164.8,229.6 L165.0,229.6 L165.3,230.0 L165.5,229.8 L165.9,229.9 L166.1,230.2 L166.3,230.3 L166.8,230.3 L167.0,230.1 L167.2,230.1 L167.5,230.7 L168.0,230.8 L167.8,230.9 L167.6,231.4 L167.1,231.7 L167.1,231.9 L167.7,232.2 L168.1,232.2 L168.0,231.9 L168.4,231.4 L168.4,230.9 L169.0,230.7 L169.7,230.7 L169.7,230.8 L170.1,231.3 L171.0,231.9 L171.3,232.6 L172.7,232.6 L173.4,232.9 L173.7,233.2 L173.9,233.6 L173.2,233.7 L173.0,233.7 L172.9,233.2 L172.5,233.3 L172.3,233.1 L171.8,233.4 L172.2,233.8 L171.7,233.9 L171.7,234.1 L171.9,234.3 L172.2,234.2 L172.6,234.3 L172.9,234.2 L173.1,234.4 L172.9,235.0 L173.7,235.9 L173.8,236.5 L174.1,235.9 L174.7,236.1 L174.6,235.8 L174.8,235.8 L175.2,236.0 L175.4,235.8 L175.2,235.6 L174.0,235.3 L173.9,235.0 L174.0,235.1 L174.2,235.0 L175.4,235.0 L175.2,234.8 L175.4,234.8 L175.8,234.9 L176.0,234.8 L176.1,234.6 L177.0,233.8 L177.1,234.2 L176.7,235.2 L176.8,235.6 L177.0,235.8 L177.7,235.8 L177.6,236.1 L178.1,236.6 L177.8,236.8 L176.7,235.9 L177.5,237.3 L177.8,237.5 L178.5,237.6 L178.6,237.5 L178.9,237.8 L179.3,238.6 L178.7,238.7 L178.8,238.8 L180.4,240.1 L180.5,240.4 L180.3,241.0 L179.4,240.8 L178.9,240.8 L179.8,241.3 L179.5,241.4 L180.0,241.5 L180.0,241.8 L179.6,242.0 L180.6,242.7 L180.6,243.2 L181.0,244.0 L180.5,244.1 L180.2,243.9 L179.6,243.4 L179.7,243.2 L179.2,243.0 L179.2,242.8 L178.4,243.0 L178.0,242.8 L177.7,243.1 L177.5,243.1 L177.5,242.5 L177.1,241.9 L177.0,243.9 L177.3,244.1 L177.7,243.6 L178.0,243.6 L179.3,243.8 L179.6,244.0 L179.5,244.3 L178.9,244.9 L179.2,245.2 L179.2,246.2 L180.1,246.9 L181.2,247.1 L181.3,247.3 L181.2,247.7 L181.3,248.1 L183.3,250.3 L184.4,250.8 L184.4,251.2 L184.0,251.2 L184.1,251.7 L185.3,251.9 L183.2,252.0 L183.5,252.9 L183.7,253.3 L183.7,254.1 L183.1,253.0 L182.7,252.9 L183.0,253.6 L182.9,253.9 L182.6,253.9 L182.6,254.0 L183.1,254.3 L182.6,254.7 L182.8,255.8 L183.4,256.1 L183.9,256.1 L184.5,255.9 L184.9,256.0 L183.7,256.6 L182.8,256.3 L183.4,257.0 L184.3,259.4 L183.5,259.1 L183.1,259.3 L182.9,259.1 L183.0,258.8 L182.7,258.8 L182.5,258.3 L181.7,258.6 L181.2,258.9 L181.2,259.0 L182.2,259.0 L181.6,259.4 L182.0,259.7 L182.1,260.7 L182.3,260.8 L182.4,260.7 L182.5,260.1 L182.6,260.2 L183.2,259.7 L185.2,259.8 L185.5,260.0 L185.5,260.5 L185.1,260.9 L185.2,261.4 L185.4,261.5 L185.6,261.3 L186.0,259.6 L186.1,259.6 L186.6,260.7 L186.6,261.1 L187.5,260.9 L187.2,260.2 L187.6,260.2 L188.4,260.3 L188.6,260.7 L188.4,261.4 L188.6,261.7 L188.9,261.7 L189.9,261.3 L190.1,261.4 L190.6,261.2 L190.9,261.2 L191.6,261.6 L192.3,262.3 L192.4,262.7 L192.2,264.2 L192.2,264.5 L192.9,265.4 L193.5,265.7 L194.2,265.7 L195.5,265.3 L195.8,265.0 L196.0,265.0 L196.2,265.2 L196.2,265.9 L196.4,266.1 L196.7,266.1 L197.0,265.9 L196.8,265.9 L196.5,265.5 L196.3,264.4 L195.9,263.7 L196.0,262.8 L195.4,261.6 L195.2,261.2 L194.4,260.7 L194.2,260.2 L194.0,260.0 L194.3,259.9 L195.1,260.0 L195.3,259.7 L194.3,259.6 L194.9,259.4 L195.0,259.3 L194.5,259.1 L195.3,259.0 L195.6,258.8 L195.5,258.4 L195.2,258.6 L195.1,258.5 L195.0,258.1 L195.1,258.0 L194.7,257.5 L195.0,256.7 L195.0,256.3 L194.5,256.2 L194.1,255.7 L193.0,255.2 L192.8,254.8 L192.7,254.1 L192.8,253.9 L194.1,253.9 L194.4,254.4 L195.1,254.8 L195.5,254.4 L196.0,255.1 L195.9,255.5 L195.6,255.8 L195.9,256.0 L196.6,256.1 L196.7,256.5 L196.7,257.1 L196.3,256.9 L196.1,257.1 L196.2,257.3 L197.0,257.3 L197.1,257.5 L196.9,258.0 L197.0,258.4 L197.2,258.5 L197.9,258.1 L197.5,258.0 L197.9,257.8 L198.4,258.0 L199.3,257.6 L199.6,257.5 L200.2,257.8 L200.5,257.7 L200.5,258.2 L199.9,258.2 L199.5,258.7 L198.9,259.0 L198.4,259.4 L198.2,259.7 L198.4,259.8 L198.4,260.2 L198.8,260.4 L198.8,260.2 L199.1,260.1 L199.0,259.6 L199.2,259.4 L199.5,259.5 L200.2,259.4 L200.5,259.6 L200.6,260.2 L200.9,260.8 L201.1,261.7 L201.1,262.5 L200.8,263.0 L200.9,263.1 L201.0,263.0 L201.3,262.7 L201.6,263.0 L201.5,263.4 L201.0,264.3 L201.5,264.4 L201.6,265.3 L201.4,265.1 L201.2,264.8 L201.1,264.8 L201.3,265.8 L201.1,265.9 L201.6,266.1 L202.0,266.6 L202.2,268.1 L202.6,268.9 L202.9,269.2 L202.9,269.4 L202.6,269.3 L202.5,269.5 L203.5,269.8 L204.1,270.1 L204.8,271.2 L205.5,271.7 L205.5,272.0 L204.8,271.5 L204.0,271.5 L203.8,271.3 L204.4,271.1 L203.1,270.2 L202.0,270.3 L202.3,270.7 L202.2,271.1 L202.8,271.3 L202.7,271.6 L202.8,272.1 L203.3,272.2 L203.6,272.0 L203.9,272.1 L204.2,272.7 L204.5,272.6 L204.9,272.9 L205.1,272.9 L205.3,272.6 L205.6,272.6 L205.9,272.9 L206.0,273.5 L206.2,273.4 L206.7,273.4 L206.5,272.6 L206.1,271.9 L206.3,271.9 L206.6,272.1 L207.1,272.9 L209.5,273.6 L210.1,274.0 L210.6,274.0 L210.8,274.2 L211.0,274.1 L214.1,275.9 L216.7,276.6 L217.8,276.7 L218.6,277.2 L220.1,277.3 L220.7,277.6 L219.6,277.6 L220.6,278.2 L221.1,278.1 L221.1,278.0 L220.9,277.6 L221.2,277.5 L221.7,277.8 L222.7,277.8 L223.0,278.1 L223.3,278.0 L223.3,277.7 L223.4,277.7 L225.4,277.5 L227.3,276.5 L228.0,276.0 L228.0,275.5 L228.3,274.9 L229.1,274.5 L229.3,274.3 L229.5,273.7 L230.2,272.8 L232.3,272.3 L232.9,271.7 L234.2,271.4 L234.4,271.1 L234.2,270.7 L238.6,270.9 L239.2,271.2 L239.0,271.4 L239.7,271.9 L240.7,272.0 L241.4,272.3 L242.1,272.3 L242.9,272.8 L243.2,273.2 L243.2,273.4 L242.1,274.5 L241.6,275.6 L241.0,275.9 L240.4,277.2 L239.8,278.1 L240.3,279.1 L240.2,279.5 L239.6,279.9 L239.5,280.2 L239.9,280.8 L239.8,281.1 L239.4,281.7 L239.3,282.0 L240.0,282.8 L239.5,283.4 L239.3,284.1 L239.7,284.3 L239.8,284.7 L239.0,285.2 L239.0,286.2 L237.1,287.9 L235.5,289.0 L235.3,289.1 L234.6,288.7 L234.2,288.6 L233.2,288.9 L233.3,289.4 L233.7,289.8 L233.3,290.7 L233.3,291.6 L232.8,293.8 L232.9,294.1 L232.4,294.9 L233.5,295.0 L234.0,295.2 L234.3,295.6 L233.4,296.3 L232.9,297.6 L232.2,298.1 L231.8,297.2 L231.7,296.2 L232.2,295.3 L232.2,295.1 L232.0,295.0 L231.7,295.0 L231.5,295.2 L230.6,294.8 L225.5,294.7 L225.1,294.5 L224.7,294.8 L219.6,296.7 L219.0,297.9 L217.6,299.1 L217.1,299.9 L217.0,300.3 L217.1,300.6 L217.6,301.0 L217.7,301.4 Z" fill="#faf5ef" stroke="#8B1A2B" stroke-width="1.3" stroke-linejoin="round"/></g>
  <g>    <path class="region-area" d="M47.2,479.8 L49.3,480.3 L47.6,480.8 L45.5,480.6 L44.5,479.8 L45.5,480.2 L47.2,479.8 Z" fill="rgba(139,26,43,0.15)" stroke="rgba(139,26,43,0.4)" stroke-width="0.5"/>
    <path class="region-area" d="M49.3,476.0 L48.6,476.0 L49.0,476.7 L48.6,476.6 L48.7,476.9 L48.3,477.2 L49.3,477.3 L47.6,477.5 L48.8,477.8 L48.5,478.3 L49.4,478.3 L49.4,478.8 L48.8,478.9 L49.7,479.3 L49.5,479.8 L49.2,479.9 L47.7,479.4 L47.4,479.0 L46.7,479.5 L47.0,478.8 L46.8,478.4 L46.3,478.2 L46.1,478.4 L46.5,478.8 L45.6,478.6 L46.1,479.0 L46.1,479.6 L45.4,479.7 L44.7,479.3 L44.1,479.8 L43.9,478.9 L44.5,478.3 L47.0,477.0 L47.5,475.5 L47.6,475.1 L47.2,474.8 L49.4,474.6 L49.3,475.1 L50.2,475.0 L50.5,475.5 L49.7,475.5 L49.3,476.0 Z" fill="rgba(139,26,43,0.15)" stroke="rgba(139,26,43,0.4)" stroke-width="0.5"/>
    <path class="region-area" d="M232.8,293.8 L232.9,294.1 L232.4,294.9 L233.5,295.0 L234.0,295.2 L234.3,295.6 L233.4,296.3 L232.9,297.6 L232.2,298.1 L231.7,296.7 L231.8,295.9 L232.2,295.3 L232.0,295.0 L231.5,295.2 L230.6,294.8 L225.5,294.7 L225.1,294.5 L219.4,296.9 L219.0,297.9 L217.6,299.1 L217.1,299.9 L217.0,300.3 L217.7,301.4 L218.0,303.4 L219.1,304.0 L220.4,304.1 L220.4,304.3 L219.9,305.1 L219.0,305.6 L218.7,307.0 L218.1,307.4 L216.9,309.9 L216.9,310.6 L216.0,312.1 L214.7,313.3 L214.1,313.1 L213.6,313.6 L213.4,314.2 L213.9,313.8 L212.9,315.4 L212.8,316.4 L211.7,315.8 L210.0,315.7 L209.0,315.0 L209.1,314.0 L208.6,312.6 L208.7,311.7 L208.0,311.1 L207.8,310.4 L206.2,309.6 L205.1,309.6 L204.5,309.3 L205.0,306.7 L205.8,304.5 L206.0,304.2 L205.6,303.4 L205.7,303.2 L205.1,302.8 L205.9,301.5 L205.1,301.1 L205.1,300.6 L204.8,300.3 L204.7,299.8 L204.4,299.3 L204.9,298.3 L204.7,297.7 L204.6,296.6 L204.1,295.6 L206.2,293.4 L207.1,292.1 L207.7,292.1 L208.3,293.0 L209.3,293.5 L209.9,293.5 L210.2,292.3 L211.2,290.5 L213.9,291.2 L214.1,289.5 L214.4,289.1 L215.2,288.7 L216.6,288.4 L217.5,288.8 L218.3,288.9 L219.3,287.8 L220.2,287.5 L220.4,287.2 L221.3,286.8 L225.8,288.3 L227.3,290.2 L229.5,291.6 L231.7,292.2 L232.2,292.7 L232.9,293.0 L232.8,293.8 Z" fill="rgba(139,26,43,0.15)" stroke="rgba(139,26,43,0.4)" stroke-width="0.5"/>
    <path class="region-area" d="M208.3,320.2 L206.6,323.6 L206.3,324.0 L205.2,324.5 L203.9,327.2 L202.3,328.9 L199.4,330.8 L192.1,334.7 L190.6,334.6 L190.0,333.2 L190.2,331.8 L190.0,331.6 L187.7,331.0 L186.9,331.3 L186.0,332.0 L185.6,331.9 L185.0,331.6 L185.2,331.2 L185.1,330.2 L185.6,328.9 L185.4,328.5 L184.5,328.5 L183.8,328.9 L183.5,329.4 L184.5,329.7 L184.2,330.2 L183.6,330.1 L183.1,330.4 L182.3,330.3 L181.0,329.6 L180.9,329.0 L181.0,328.7 L182.3,328.3 L183.3,327.5 L183.7,326.8 L184.5,326.4 L184.8,326.8 L185.0,326.6 L185.1,326.1 L184.7,325.7 L186.1,324.7 L186.8,323.0 L187.7,322.3 L189.4,319.9 L190.6,321.1 L191.3,321.3 L192.4,321.0 L193.8,321.0 L194.6,320.4 L197.2,320.9 L198.5,320.2 L199.5,320.8 L199.7,321.4 L200.2,321.5 L201.4,321.2 L204.2,320.2 L205.9,320.0 L208.3,320.2 Z" fill="rgba(139,26,43,0.15)" stroke="rgba(139,26,43,0.4)" stroke-width="0.5"/>
    <path class="region-area" d="M165.5,325.9 L165.9,326.4 L165.9,326.7 L166.2,326.5 L166.3,326.7 L166.5,326.6 L166.3,326.2 L167.5,325.6 L167.1,325.3 L166.4,325.5 L166.4,325.2 L166.8,324.9 L168.3,324.5 L169.1,323.8 L169.1,324.6 L169.4,324.6 L170.2,323.8 L171.2,323.4 L171.8,323.5 L172.0,324.0 L170.9,323.9 L171.0,324.1 L170.7,324.5 L170.1,324.6 L170.4,324.8 L170.1,325.0 L169.1,325.2 L168.7,325.0 L168.0,325.2 L168.4,325.5 L168.0,325.7 L168.3,325.9 L167.8,326.6 L168.0,326.7 L168.3,326.6 L168.7,325.9 L170.3,325.8 L170.7,325.9 L170.4,325.9 L170.3,326.3 L169.6,326.2 L169.6,326.7 L169.3,326.7 L169.2,327.0 L168.6,327.4 L169.1,327.5 L169.4,327.9 L169.0,328.8 L167.7,329.2 L168.1,329.6 L170.4,328.7 L169.7,328.4 L171.5,328.5 L172.1,328.3 L171.8,328.1 L172.7,328.1 L173.5,327.8 L171.8,327.8 L171.3,328.1 L170.9,328.0 L171.1,327.8 L169.8,328.0 L169.7,327.3 L170.3,326.9 L170.3,326.6 L170.6,326.5 L170.6,326.2 L171.2,326.3 L171.0,326.8 L171.1,327.3 L171.7,326.5 L172.1,326.5 L171.8,326.0 L172.1,325.7 L172.0,325.3 L171.7,325.3 L171.4,325.8 L170.6,325.2 L171.2,325.2 L171.0,324.8 L171.4,324.8 L171.4,324.5 L172.9,325.3 L173.4,324.9 L173.7,325.1 L174.0,325.1 L174.1,324.5 L174.3,324.6 L174.8,325.2 L174.8,325.5 L174.3,325.7 L174.7,326.1 L176.4,324.9 L176.4,325.4 L175.6,326.4 L175.5,327.0 L174.7,327.3 L174.6,326.4 L174.3,326.9 L174.1,326.8 L174.8,328.0 L173.9,328.5 L171.0,328.9 L170.4,329.4 L171.7,329.3 L172.5,328.9 L173.8,328.7 L174.6,329.2 L176.5,328.4 L175.3,330.1 L174.2,330.4 L174.6,329.9 L174.1,330.1 L173.9,330.0 L174.0,329.8 L173.5,330.0 L172.2,331.9 L172.4,332.9 L172.3,333.1 L172.6,333.2 L173.1,333.8 L173.3,333.5 L173.1,332.8 L173.3,333.0 L174.1,334.1 L175.0,336.4 L176.0,336.5 L175.9,336.9 L174.5,338.8 L172.7,340.2 L172.2,339.7 L170.6,339.4 L168.8,339.6 L168.1,339.9 L167.2,339.4 L166.5,340.2 L163.5,341.8 L163.1,343.2 L162.6,343.9 L160.6,344.5 L158.9,345.7 L158.7,346.0 L159.1,346.2 L159.1,346.4 L158.1,347.5 L156.4,348.1 L155.4,347.6 L155.5,346.9 L154.9,346.5 L154.3,345.7 L153.3,345.2 L153.4,344.6 L152.9,343.6 L151.5,343.1 L151.1,342.5 L151.6,341.2 L153.2,339.7 L153.7,338.1 L154.7,336.8 L155.7,336.2 L158.4,333.4 L159.8,333.1 L160.2,331.1 L161.8,330.2 L163.2,328.6 L164.6,327.3 L165.0,325.9 L165.5,325.9 Z" fill="rgba(139,26,43,0.15)" stroke="rgba(139,26,43,0.4)" stroke-width="0.5"/>
    <path class="region-area" d="M177.7,326.7 L177.4,328.1 L176.3,328.2 L175.6,328.6 L174.5,328.6 L174.8,328.4 L175.5,328.3 L176.3,327.6 L176.6,327.9 L176.9,327.8 L177.2,327.5 L177.2,327.2 L176.8,327.3 L176.5,327.0 L177.4,326.7 L177.7,326.7 Z" fill="rgba(139,26,43,0.15)" stroke="rgba(139,26,43,0.4)" stroke-width="0.5"/>
    <path class="region-area" d="M168.3,323.2 L168.3,323.0 L168.0,323.2 L168.0,323.0 L168.0,322.5 L168.7,323.0 L169.0,323.0 L168.5,322.2 L168.8,321.2 L169.1,321.5 L169.3,321.1 L169.6,321.2 L169.7,321.9 L170.5,321.5 L170.0,321.5 L170.5,321.1 L170.9,320.4 L170.9,320.9 L170.7,321.5 L170.9,321.8 L170.4,322.2 L170.2,322.9 L169.7,322.9 L168.6,323.8 L167.9,323.8 L168.3,323.2 Z" fill="rgba(139,26,43,0.15)" stroke="rgba(139,26,43,0.4)" stroke-width="0.5"/>
    <path class="region-area" d="M171.0,341.8 L170.7,342.4 L170.7,343.2 L169.7,344.5 L168.4,345.3 L167.9,345.9 L167.5,346.0 L166.8,346.7 L166.8,347.1 L167.2,347.5 L167.1,347.6 L167.0,347.7 L166.5,347.3 L166.0,347.3 L164.5,348.4 L163.6,350.3 L162.9,350.6 L163.2,350.8 L161.8,353.3 L161.3,353.9 L160.8,354.1 L160.8,354.9 L160.2,355.7 L158.1,356.5 L157.9,356.9 L157.0,357.5 L154.4,358.0 L152.7,359.1 L151.7,360.6 L151.9,361.0 L151.7,362.6 L151.5,362.9 L152.2,365.2 L152.2,365.4 L152.0,365.3 L151.8,365.3 L152.1,365.7 L153.1,365.9 L151.1,366.2 L150.7,366.5 L151.7,366.7 L152.0,366.4 L153.4,366.4 L153.8,366.9 L154.0,366.1 L154.6,366.4 L154.6,367.2 L155.4,366.6 L155.9,366.7 L156.1,367.1 L156.7,366.6 L156.8,366.9 L157.4,367.4 L157.3,367.8 L157.5,368.1 L157.5,369.0 L157.2,369.9 L157.0,369.6 L156.6,370.0 L156.3,370.0 L156.2,370.4 L155.9,370.2 L155.7,370.4 L155.1,368.7 L155.1,368.3 L154.9,368.2 L154.6,368.5 L154.8,368.8 L154.6,369.6 L155.2,370.7 L153.8,370.6 L153.2,370.2 L152.8,370.3 L151.7,369.4 L152.0,368.9 L146.6,369.9 L146.6,369.6 L146.9,369.4 L150.2,368.7 L149.6,368.4 L148.7,368.3 L147.8,367.8 L146.6,368.0 L146.1,368.6 L146.1,369.7 L145.9,370.0 L143.9,370.3 L141.0,371.5 L137.9,373.1 L137.0,373.1 L135.6,373.8 L134.8,373.9 L134.2,374.3 L132.9,374.8 L130.8,376.2 L129.7,376.5 L128.7,378.0 L128.5,379.4 L127.9,380.0 L127.8,380.4 L127.0,380.7 L127.4,381.1 L127.7,383.8 L127.6,384.1 L127.0,384.5 L127.5,384.5 L127.6,384.9 L127.5,386.4 L127.0,387.1 L121.8,386.0 L119.9,386.3 L118.7,386.6 L116.2,388.2 L114.7,388.8 L114.0,388.2 L113.6,386.7 L112.7,386.5 L111.4,386.7 L109.8,386.5 L108.9,385.7 L107.9,383.6 L107.1,382.6 L106.5,382.4 L105.4,382.5 L104.1,381.4 L103.3,381.3 L103.0,381.0 L102.5,379.6 L101.5,379.2 L101.5,375.3 L103.4,373.0 L103.5,372.6 L103.4,371.8 L105.3,370.2 L107.8,368.7 L110.6,365.6 L112.3,364.6 L113.9,364.2 L116.0,363.3 L117.3,363.0 L117.9,363.1 L119.5,361.8 L122.2,360.2 L124.4,359.3 L125.4,358.1 L127.8,357.4 L128.4,356.5 L129.4,355.9 L130.9,355.6 L132.0,355.1 L132.6,355.2 L135.5,354.9 L136.3,353.2 L138.1,352.6 L138.2,352.1 L139.0,351.4 L139.7,351.0 L141.1,350.7 L143.9,348.1 L145.7,347.0 L147.0,346.5 L147.6,345.2 L148.3,345.0 L149.4,344.2 L150.2,342.5 L151.3,342.6 L151.5,343.1 L152.9,343.6 L153.4,344.6 L153.4,345.4 L154.3,345.7 L154.9,346.5 L155.5,346.9 L155.4,347.6 L156.7,348.1 L158.1,347.5 L158.8,346.9 L159.1,346.2 L158.7,346.0 L158.9,345.7 L160.6,344.5 L162.6,343.9 L163.1,343.2 L163.5,341.8 L166.5,340.2 L167.2,339.4 L168.1,339.9 L168.8,339.6 L170.4,339.4 L172.2,339.7 L172.7,340.2 L171.0,341.8 Z" fill="rgba(139,26,43,0.15)" stroke="rgba(139,26,43,0.4)" stroke-width="0.5"/>
    <path class="region-area" d="M127.0,387.1 L125.7,389.0 L124.0,390.3 L123.1,391.6 L122.4,393.4 L122.8,393.8 L122.8,394.2 L122.1,394.9 L122.2,395.4 L121.2,396.2 L121.3,396.6 L121.1,396.7 L120.5,396.7 L120.7,397.3 L120.2,397.5 L119.3,397.6 L119.6,397.9 L119.9,398.0 L119.5,398.5 L118.4,399.0 L118.5,399.4 L119.3,399.5 L119.5,399.4 L120.5,399.9 L120.5,400.1 L119.1,400.4 L118.7,400.9 L118.3,401.0 L118.1,401.4 L117.5,401.7 L117.3,401.9 L119.4,401.2 L120.0,400.5 L120.8,400.1 L121.0,400.6 L120.8,401.6 L119.9,401.7 L119.6,402.1 L116.3,402.4 L115.0,402.7 L113.8,403.3 L112.7,404.6 L112.3,406.0 L112.0,406.3 L110.1,407.1 L109.2,407.9 L107.0,409.0 L106.4,409.5 L106.2,410.9 L105.3,411.3 L104.2,411.1 L103.2,411.3 L104.7,411.4 L104.4,412.0 L102.8,412.7 L101.8,412.5 L101.4,412.6 L100.4,413.0 L100.7,413.4 L99.3,413.3 L99.0,413.7 L97.8,413.4 L97.0,413.9 L96.3,414.0 L95.9,413.8 L95.9,413.3 L95.9,412.4 L96.4,411.7 L96.4,411.4 L95.7,410.8 L95.3,409.2 L95.8,407.9 L95.8,406.9 L95.1,405.6 L95.0,404.6 L94.1,403.7 L94.0,401.9 L93.1,401.0 L92.9,399.9 L93.2,398.3 L95.3,394.8 L95.9,394.4 L95.6,393.7 L93.6,392.4 L92.9,392.6 L91.2,394.4 L90.5,394.6 L89.4,394.4 L88.0,392.8 L87.5,392.1 L87.2,391.9 L84.4,392.8 L82.7,392.8 L82.0,392.6 L80.9,389.9 L81.5,388.6 L81.4,388.3 L80.5,388.0 L79.7,387.3 L79.4,386.8 L79.1,385.7 L79.5,385.1 L79.7,383.3 L80.4,381.5 L81.4,380.4 L82.3,379.8 L84.3,379.7 L87.3,378.6 L88.8,378.3 L89.8,377.5 L90.4,376.1 L93.3,374.0 L94.0,373.7 L96.4,373.6 L97.0,373.4 L98.6,373.7 L101.5,372.5 L102.3,371.6 L103.0,371.6 L103.4,371.8 L103.5,372.6 L101.5,375.3 L101.5,379.2 L102.5,379.6 L103.0,381.0 L103.3,381.3 L104.1,381.4 L105.4,382.5 L106.5,382.4 L107.1,382.6 L107.9,383.6 L108.9,385.7 L109.8,386.5 L111.4,386.7 L113.3,386.5 L113.8,387.0 L114.0,388.2 L114.7,388.8 L116.2,388.2 L118.7,386.6 L121.8,386.0 L127.0,387.1 Z" fill="rgba(139,26,43,0.15)" stroke="rgba(139,26,43,0.4)" stroke-width="0.5"/></g>
  <g>    <circle cx="47.4" cy="478.0" r="9" fill="#8B1A2B" stroke="#fff" stroke-width="0.8"/>
    <text x="47.4" y="481.5" text-anchor="middle" font-family="Inter, sans-serif" font-size="9" font-weight="700" fill="#fff">1</text>
    <circle cx="215.0" cy="299.6" r="9" fill="#8B1A2B" stroke="#fff" stroke-width="0.8"/>
    <text x="215.0" y="303.1" text-anchor="middle" font-family="Inter, sans-serif" font-size="9" font-weight="700" fill="#fff">2</text>
    <circle cx="194.7" cy="326.4" r="9" fill="#8B1A2B" stroke="#fff" stroke-width="0.8"/>
    <text x="194.7" y="329.9" text-anchor="middle" font-family="Inter, sans-serif" font-size="9" font-weight="700" fill="#fff">3</text>
    <circle cx="164.3" cy="335.8" r="9" fill="#8B1A2B" stroke="#fff" stroke-width="0.8"/>
    <text x="164.3" y="339.3" text-anchor="middle" font-family="Inter, sans-serif" font-size="9" font-weight="700" fill="#fff">4</text>
    <circle cx="133.0" cy="365.5" r="9" fill="#8B1A2B" stroke="#fff" stroke-width="0.8"/>
    <text x="133.0" y="369.0" text-anchor="middle" font-family="Inter, sans-serif" font-size="9" font-weight="700" fill="#fff">5</text>
    <circle cx="101.6" cy="392.3" r="9" fill="#8B1A2B" stroke="#fff" stroke-width="0.8"/>
    <text x="101.6" y="395.8" text-anchor="middle" font-family="Inter, sans-serif" font-size="9" font-weight="700" fill="#fff">6</text></g>
  <line x1="28" y1="487" x2="252" y2="487" stroke="#8B1A2B" stroke-width="0.3" opacity="0.25"/>
  <text x="32" y="495" font-family="Inter, sans-serif" font-size="8.5" fill="#2D1B14"><tspan font-weight="700">1. Auckland</tspan> : Syrah, Chardonnay</text>
  <text x="32" y="510" font-family="Inter, sans-serif" font-size="8.5" fill="#2D1B14"><tspan font-weight="700">2. Hawke's Bay</tspan> : Cab Sauv, Merlot, Chardonnay</text>
  <text x="32" y="525" font-family="Inter, sans-serif" font-size="8.5" fill="#2D1B14"><tspan font-weight="700">3. Wellington</tspan> : Pinot Noir, Sauvignon Blanc</text>
  <text x="32" y="540" font-family="Inter, sans-serif" font-size="8.5" fill="#2D1B14"><tspan font-weight="700">4. Marlborough</tspan> : Sauvignon Blanc, Pinot Noir</text>
  <text x="32" y="555" font-family="Inter, sans-serif" font-size="8.5" fill="#2D1B14"><tspan font-weight="700">5. Canterbury</tspan> : Pinot Noir, Riesling</text>
  <text x="32" y="570" font-family="Inter, sans-serif" font-size="8.5" fill="#2D1B14"><tspan font-weight="700">6. Otago</tspan> : Pinot Noir, Pinot Gris</text>
  <text x="140" y="592" text-anchor="middle" font-family="Inter, sans-serif" font-size="7" fill="#b0a89e">Cellar -- Sommelier Companion</text>
</svg>