<svg xmlns="http://www.w3.org/2000/svg" viewBox="0 0 520 414">
  <defs><filter id="shadow"><feDropShadow dx="1" dy="1.5" stdDeviation="2" flood-color="#2D1B14" flood-opacity="0.08"/></filter></defs>
  <text x="260" y="24" text-anchor="middle" font-family="Cormorant Garamond, Georgia, serif" font-size="16" font-weight="400" fill="#2D1B14" letter-spacing="5">OSTERRIKE</text>
  <text x="260" y="42" text-anchor="middle" font-family="Inter, sans-serif" font-size="8" fill="#8a7a6a" letter-spacing="1" class="region-label">Placera regionerna och namnge de viktigaste druvorna</text>
  <g filter="url(#shadow)">    <path d="M460.0,153.8 L460.5,156.3 L460.1,157.3 L458.3,158.4 L455.6,161.7 L454.5,166.7 L457.6,168.1 L457.9,168.5 L457.4,169.4 L458.4,170.7 L460.5,171.7 L462.0,177.7 L463.3,178.7 L465.5,179.4 L467.3,181.2 L466.1,183.2 L467.0,183.7 L466.7,184.5 L471.0,186.2 L467.6,188.1 L468.1,188.9 L467.0,190.1 L467.7,190.7 L466.6,192.9 L463.2,193.9 L463.2,194.5 L465.1,195.3 L466.0,196.6 L465.1,197.2 L465.7,201.0 L467.0,202.2 L457.7,203.7 L455.6,203.4 L454.8,202.0 L452.0,204.0 L448.3,203.5 L446.8,201.4 L446.2,201.1 L439.6,199.8 L437.6,200.4 L437.3,201.6 L436.6,202.4 L433.4,203.7 L432.6,203.2 L430.9,204.8 L434.9,206.0 L436.4,205.8 L440.0,206.8 L441.7,206.6 L442.9,206.9 L444.3,208.9 L444.0,209.9 L445.7,210.8 L446.1,211.5 L445.5,213.0 L443.3,213.9 L443.5,216.1 L440.7,217.6 L434.9,219.4 L433.5,218.3 L432.3,219.1 L432.4,221.2 L431.8,221.9 L432.6,222.4 L434.4,225.6 L434.1,226.3 L431.6,227.4 L431.8,228.4 L431.0,229.6 L431.2,230.5 L432.7,231.0 L432.3,232.7 L433.0,233.0 L435.7,232.5 L436.4,233.1 L434.9,234.9 L433.8,235.4 L433.4,236.2 L433.8,236.9 L435.5,237.4 L435.5,237.9 L431.8,239.3 L434.1,239.6 L435.1,240.7 L431.3,241.2 L429.8,240.5 L423.7,240.4 L423.0,241.8 L421.4,242.4 L420.9,243.8 L418.1,245.0 L414.8,247.7 L410.6,249.4 L407.8,249.9 L407.3,250.3 L407.6,250.9 L407.2,254.5 L407.8,255.8 L409.0,256.3 L409.6,257.2 L409.7,258.4 L408.1,257.2 L400.7,255.5 L394.1,256.7 L389.1,255.9 L388.6,257.9 L387.4,258.3 L384.3,258.3 L383.4,258.8 L382.4,260.7 L379.7,261.4 L375.7,259.8 L365.8,260.1 L358.1,259.6 L354.9,260.2 L352.9,262.2 L351.9,261.2 L351.1,261.1 L349.2,261.9 L346.6,262.2 L345.1,264.0 L343.3,267.3 L341.8,267.8 L339.0,268.1 L337.4,269.9 L336.4,269.8 L334.8,270.9 L332.5,271.2 L330.8,273.9 L329.8,274.2 L327.8,272.1 L325.0,272.3 L322.0,270.8 L308.7,270.9 L303.3,268.5 L299.6,268.6 L293.0,266.8 L288.8,267.2 L282.7,266.6 L276.2,265.2 L273.9,265.1 L272.3,264.2 L266.7,264.1 L261.2,264.9 L259.0,264.8 L254.4,263.0 L250.0,262.3 L237.3,261.7 L232.4,259.9 L230.6,260.2 L228.6,259.4 L225.9,259.2 L222.0,259.4 L219.4,258.3 L214.3,257.4 L212.4,256.2 L210.9,253.3 L206.9,252.0 L207.3,248.9 L206.8,247.7 L202.9,247.1 L201.7,246.0 L199.2,245.5 L200.0,245.0 L200.0,244.5 L198.4,241.0 L198.9,240.0 L202.2,238.8 L203.4,237.7 L203.4,236.3 L202.1,236.0 L198.6,236.4 L193.2,238.4 L189.3,238.5 L186.9,239.1 L182.7,241.0 L180.3,241.2 L178.0,242.2 L175.2,241.0 L170.5,240.6 L166.6,241.2 L163.8,240.2 L160.5,242.2 L155.2,241.3 L147.7,242.5 L143.2,245.3 L141.2,249.6 L141.1,250.6 L140.0,251.1 L138.1,253.1 L134.5,252.8 L131.2,253.4 L129.3,252.5 L127.1,252.7 L125.0,251.9 L123.2,252.1 L122.9,251.7 L124.6,250.4 L124.1,249.8 L119.1,248.0 L112.7,249.1 L110.4,248.9 L108.7,247.9 L108.5,246.8 L109.2,244.9 L108.9,244.0 L104.3,240.8 L102.5,241.4 L101.1,242.5 L100.1,243.8 L100.1,244.8 L96.8,244.7 L95.0,247.8 L92.7,248.6 L90.1,248.9 L86.6,247.9 L84.5,246.5 L78.7,245.2 L77.4,244.5 L76.7,243.8 L77.1,240.7 L76.3,240.4 L76.4,239.8 L66.2,237.5 L61.5,237.5 L62.9,236.2 L63.3,234.8 L62.8,233.4 L61.5,232.2 L59.9,231.6 L60.5,229.9 L59.2,228.2 L59.6,227.4 L58.2,226.4 L61.8,222.8 L62.5,221.0 L65.2,218.4 L65.2,216.1 L61.6,214.6 L60.0,212.9 L59.6,211.7 L63.2,212.3 L66.6,212.3 L68.1,211.8 L70.7,209.1 L72.3,208.7 L73.7,209.4 L74.0,211.3 L75.1,211.7 L76.5,211.3 L79.7,211.8 L81.2,211.3 L81.3,212.2 L82.6,213.2 L83.2,214.6 L83.8,214.8 L85.3,214.2 L88.5,217.5 L88.2,218.0 L87.0,218.7 L88.6,221.2 L90.1,220.7 L91.2,221.0 L92.1,220.4 L94.4,220.1 L95.4,220.4 L94.4,224.4 L93.2,224.9 L92.8,225.9 L97.1,225.6 L100.7,224.2 L102.7,222.7 L104.2,220.7 L106.4,220.0 L107.3,219.2 L108.6,216.8 L108.3,215.0 L106.8,213.9 L107.4,211.2 L106.5,209.6 L107.3,209.4 L108.9,209.2 L109.1,209.7 L108.7,211.0 L110.2,211.8 L113.2,211.9 L115.7,210.1 L124.2,212.0 L125.3,212.8 L130.6,211.9 L132.4,212.7 L130.2,213.9 L130.6,214.3 L133.4,215.2 L136.1,217.2 L136.2,217.8 L135.8,218.4 L137.1,219.5 L142.8,219.5 L148.7,217.4 L149.9,217.7 L149.8,219.2 L151.1,219.3 L152.2,218.9 L154.8,217.0 L159.0,216.5 L159.5,216.0 L159.3,215.6 L158.0,215.2 L160.6,213.2 L164.4,213.4 L168.1,212.8 L169.0,212.0 L170.1,209.7 L171.8,208.7 L182.6,209.5 L184.3,208.2 L188.9,207.5 L201.7,207.8 L203.3,206.5 L203.5,205.7 L203.5,204.2 L201.9,202.4 L205.5,201.0 L204.4,202.9 L205.3,203.8 L208.2,203.2 L211.4,203.7 L215.3,203.2 L216.4,205.1 L219.2,206.6 L221.5,206.4 L224.7,204.7 L227.7,204.1 L233.6,204.5 L233.0,205.4 L236.4,207.5 L234.9,208.0 L234.2,209.2 L234.5,210.6 L237.2,211.5 L242.8,215.0 L244.8,214.8 L246.6,215.4 L248.5,213.9 L248.0,211.3 L248.7,210.2 L248.5,209.0 L249.6,208.2 L250.4,206.9 L250.4,204.9 L248.9,202.9 L247.5,202.0 L244.5,202.4 L241.5,202.0 L240.6,201.4 L242.0,200.0 L242.5,198.5 L246.0,194.7 L244.6,193.4 L242.7,190.5 L239.0,188.5 L237.3,185.6 L233.0,182.4 L232.2,181.1 L232.7,179.9 L233.7,179.8 L234.7,178.8 L236.8,177.8 L239.0,175.8 L242.8,175.1 L248.2,172.2 L253.9,170.7 L261.3,169.9 L268.4,166.1 L270.1,163.2 L270.2,160.6 L271.3,158.5 L270.3,156.1 L271.1,155.4 L274.6,154.8 L280.3,155.9 L282.1,156.6 L282.9,157.5 L285.2,158.2 L286.2,156.2 L288.4,155.7 L289.9,153.4 L289.8,149.9 L290.0,149.3 L290.7,148.8 L288.9,147.8 L290.6,145.0 L292.8,145.4 L299.6,148.2 L302.5,150.7 L300.9,151.9 L301.4,152.9 L302.8,153.9 L304.6,154.4 L312.3,155.0 L318.2,156.2 L322.5,154.7 L323.4,154.2 L324.6,152.0 L325.4,151.7 L326.7,152.7 L329.5,153.5 L332.7,152.8 L333.3,154.0 L334.9,153.9 L336.3,155.2 L337.2,155.3 L338.2,154.6 L338.7,150.0 L339.7,148.9 L342.5,147.3 L343.9,144.4 L347.5,144.5 L351.4,145.2 L352.1,144.2 L351.4,143.0 L353.0,138.6 L352.8,133.9 L353.7,131.9 L362.1,132.7 L362.8,134.2 L362.4,135.7 L367.6,135.0 L368.6,134.3 L369.2,133.1 L369.6,133.1 L370.3,133.7 L374.1,133.9 L379.1,135.3 L382.9,137.3 L391.6,140.0 L394.0,140.2 L396.9,139.3 L399.0,139.3 L399.8,140.4 L402.7,140.9 L402.1,141.4 L403.4,141.3 L403.9,142.1 L405.1,142.2 L405.1,142.8 L410.6,145.4 L413.4,146.3 L418.4,146.1 L427.2,146.7 L428.2,147.1 L429.7,146.6 L432.4,143.5 L433.3,143.1 L436.9,142.9 L443.6,144.4 L444.6,146.4 L445.4,146.8 L448.3,146.8 L452.1,148.1 L456.1,147.6 L457.3,148.8 L458.1,152.3 L460.0,153.8 Z" fill="#faf5ef" stroke="#8B1A2B" stroke-width="1.3" stroke-linejoin="round"/></g>
  <g>    <path class="region-area" d="M362.1,132.7 L362.8,134.2 L362.4,135.7 L367.6,135.0 L369.6,133.1 L379.1,135.3 L382.9,137.3 L391.6,140.0 L394.0,140.2 L399.0,139.3 L399.8,140.4 L402.7,140.9 L402.1,141.4 L403.4,141.3 L405.1,142.8 L413.4,146.3 L418.4,146.1 L428.2,147.1 L429.7,146.6 L432.4,143.5 L436.9,142.9 L443.6,144.4 L445.4,146.8 L448.3,146.8 L452.1,148.1 L456.1,147.6 L457.3,148.8 L458.1,152.3 L460.0,153.8 L460.5,156.3 L455.6,161.7 L454.5,166.7 L457.6,168.1 L457.4,169.4 L458.4,170.7 L460.5,171.7 L462.0,177.7 L466.3,180.4 L464.8,181.1 L462.7,180.7 L462.0,181.2 L461.9,183.2 L460.9,184.0 L456.4,182.7 L448.3,185.2 L446.9,186.0 L445.6,188.0 L439.8,190.8 L434.2,190.1 L429.1,192.3 L428.3,193.4 L427.7,196.6 L424.5,197.6 L424.5,200.9 L429.2,205.7 L426.2,209.7 L426.4,213.5 L421.3,216.5 L416.8,216.6 L415.0,215.5 L413.2,212.6 L411.0,213.2 L408.7,212.2 L404.3,211.7 L403.0,209.6 L399.5,208.7 L399.7,206.9 L398.9,205.7 L394.9,206.1 L393.4,202.6 L390.0,202.1 L387.5,200.4 L383.9,200.1 L374.2,196.0 L367.1,196.2 L364.3,198.6 L354.4,200.1 L349.5,201.5 L346.0,200.0 L340.3,200.0 L338.4,199.0 L339.3,197.6 L340.2,193.7 L341.2,192.8 L340.8,191.4 L333.4,188.6 L324.7,184.1 L323.8,183.1 L326.6,180.3 L326.0,178.0 L326.9,174.3 L328.7,173.2 L332.1,173.5 L337.1,176.6 L344.9,175.3 L348.2,173.4 L351.5,173.4 L353.0,174.3 L353.4,168.4 L352.7,165.7 L351.5,164.7 L351.2,163.0 L349.8,162.7 L348.3,161.0 L348.5,159.5 L350.2,159.3 L350.2,158.5 L348.9,157.5 L338.1,154.9 L338.7,150.0 L342.5,147.3 L343.9,144.4 L351.4,145.2 L352.1,144.2 L351.4,143.0 L353.0,138.6 L352.8,133.9 L353.6,132.0 L362.1,132.7 Z" fill="rgba(139,26,43,0.15)" stroke="rgba(139,26,43,0.4)" stroke-width="0.5"/>
    <path class="region-area" d="M467.6,188.1 L468.1,188.9 L467.0,190.1 L467.7,190.7 L467.1,192.3 L465.7,193.3 L463.2,193.9 L466.0,196.6 L465.1,197.2 L465.7,201.0 L467.0,202.2 L457.7,203.7 L455.6,203.4 L454.8,202.0 L452.0,204.0 L448.3,203.5 L446.2,201.1 L439.6,199.8 L437.6,200.4 L436.6,202.4 L433.4,203.7 L432.6,203.2 L430.9,204.8 L434.9,206.0 L442.9,206.9 L444.3,208.9 L444.0,209.9 L446.1,211.5 L445.5,213.0 L443.3,213.9 L443.5,216.1 L434.9,219.4 L433.5,218.3 L432.3,219.1 L432.4,221.2 L431.8,221.9 L434.4,225.6 L431.6,227.4 L431.2,230.5 L432.7,231.0 L432.3,232.7 L435.7,232.5 L436.4,233.1 L433.4,236.2 L435.5,237.4 L435.5,237.9 L431.8,239.3 L434.1,239.6 L435.1,240.7 L431.3,241.2 L429.8,240.5 L423.7,240.4 L423.0,241.8 L421.4,242.4 L420.9,243.8 L418.1,245.0 L414.8,247.7 L410.4,249.4 L409.0,247.6 L409.4,245.3 L414.4,241.2 L416.3,238.9 L413.7,236.1 L414.0,231.7 L409.8,220.0 L411.4,218.4 L412.7,219.2 L416.8,216.6 L422.7,216.0 L426.4,213.5 L426.2,209.7 L429.2,205.7 L424.5,200.9 L424.5,197.6 L427.7,196.6 L428.3,193.4 L429.1,192.3 L434.2,190.1 L439.8,190.8 L442.0,190.1 L445.6,188.0 L446.9,186.0 L448.3,185.2 L456.4,182.7 L460.9,184.0 L461.9,183.2 L462.0,181.2 L463.1,180.6 L464.8,181.1 L466.3,180.4 L467.3,181.2 L466.1,183.2 L467.0,183.7 L466.7,184.5 L471.0,186.2 L467.6,188.1 Z" fill="rgba(139,26,43,0.15)" stroke="rgba(139,26,43,0.4)" stroke-width="0.5"/>
    <path class="region-area" d="M410.4,249.4 L407.3,250.3 L407.2,254.5 L409.6,257.2 L409.7,258.4 L408.1,257.2 L400.7,255.5 L394.1,256.7 L389.1,255.9 L388.6,257.9 L384.3,258.3 L382.4,260.7 L379.7,261.4 L375.7,259.8 L360.4,259.7 L356.6,256.6 L355.9,255.4 L354.0,249.1 L355.2,245.4 L350.9,240.9 L347.4,238.4 L333.9,239.7 L327.5,239.3 L321.9,240.7 L311.4,237.5 L309.5,237.5 L302.0,239.6 L299.4,242.0 L292.1,244.8 L288.8,243.1 L293.2,238.3 L294.1,236.7 L294.1,234.9 L297.3,231.9 L293.5,229.1 L290.3,224.6 L289.6,224.2 L284.0,225.7 L280.6,224.0 L277.6,218.4 L277.1,216.1 L278.0,214.3 L283.0,214.9 L285.9,213.5 L286.0,211.0 L283.2,207.7 L283.7,204.7 L291.0,201.6 L298.0,203.0 L300.4,202.8 L302.9,204.7 L303.8,206.7 L310.6,204.9 L315.4,206.8 L318.1,207.0 L325.8,204.3 L327.2,203.0 L335.0,200.8 L338.4,199.0 L340.3,200.0 L346.0,200.0 L349.5,201.5 L354.4,200.1 L364.3,198.6 L367.1,196.2 L374.2,196.0 L383.9,200.1 L387.5,200.4 L390.0,202.1 L393.4,202.6 L394.9,206.1 L398.9,205.7 L399.7,206.9 L399.5,208.7 L403.0,209.6 L404.3,211.7 L408.7,212.2 L411.0,213.2 L413.4,212.7 L415.0,215.5 L416.8,216.6 L412.7,219.2 L411.4,218.4 L409.8,220.0 L414.0,231.7 L413.7,236.1 L416.3,238.9 L414.4,241.2 L409.4,245.3 L409.0,247.6 L410.4,249.4 Z" fill="rgba(139,26,43,0.15)" stroke="rgba(139,26,43,0.4)" stroke-width="0.5"/>
    <path class="region-area" d="M433.0,168.7 L434.9,170.9 L436.5,170.1 L437.9,171.3 L438.9,173.0 L438.2,175.8 L439.7,178.2 L433.5,177.8 L431.0,179.2 L429.8,179.1 L427.6,178.4 L421.4,178.4 L419.8,177.0 L420.2,175.5 L419.0,173.5 L420.1,172.3 L422.8,172.5 L431.3,168.6 L433.0,168.7 Z" fill="rgba(139,26,43,0.15)" stroke="rgba(139,26,43,0.4)" stroke-width="0.5"/></g>
  <g>    <circle cx="395.0" cy="171.6" r="9" fill="#8B1A2B" stroke="#fff" stroke-width="0.8"/>
    <text x="395.0" y="175.1" text-anchor="middle" font-family="Inter, sans-serif" font-size="9" font-weight="700" fill="#fff">1</text>
    <circle cx="436.6" cy="211.0" r="9" fill="#8B1A2B" stroke="#fff" stroke-width="0.8"/>
    <text x="436.6" y="214.5" text-anchor="middle" font-family="Inter, sans-serif" font-size="9" font-weight="700" fill="#fff">2</text>
    <circle cx="354.8" cy="225.8" r="9" fill="#8B1A2B" stroke="#fff" stroke-width="0.8"/>
    <text x="354.8" y="229.3" text-anchor="middle" font-family="Inter, sans-serif" font-size="9" font-weight="700" fill="#fff">3</text>
    <circle cx="429.6" cy="174.4" r="9" fill="#8B1A2B" stroke="#fff" stroke-width="0.8"/>
    <text x="429.6" y="177.9" text-anchor="middle" font-family="Inter, sans-serif" font-size="9" font-weight="700" fill="#fff">4</text></g>
  <line x1="28" y1="296" x2="492" y2="296" stroke="#8B1A2B" stroke-width="0.3" opacity="0.25"/>
  <text x="32" y="304" font-family="Inter, sans-serif" font-size="8.5" fill="#2D1B14"><tspan font-weight="700">1. Niederosterreich</tspan> : Gruner Veltliner, Riesling</text>
  <text x="32" y="319" font-family="Inter, sans-serif" font-size="8.5" fill="#2D1B14"><tspan font-weight="700">2. Burgenland</tspan> : Zweigelt, Blaufrankisch</text>
  <text x="32" y="334" font-family="Inter, sans-serif" font-size="8.5" fill="#2D1B14"><tspan font-weight="700">3. Steiermark</tspan> : Sauvignon Blanc, Welschriesling</text>
  <text x="32" y="349" font-family="Inter, sans-serif" font-size="8.5" fill="#2D1B14"><tspan font-weight="700">4. Wien</tspan> : Gruner Veltliner, Riesling</text>
  <text x="260" y="406" text-anchor="middle" font-family="Inter, sans-serif" font-size="7" fill="#b0a89e">Cellar -- Sommelier Companion</text>
</svg>