<svg xmlns="http://www.w3.org/2000/svg" viewBox="0 0 550 529">
  <defs><filter id="shadow"><feDropShadow dx="1" dy="1.5" stdDeviation="2" flood-color="#2D1B14" flood-opacity="0.08"/></filter></defs>
  <text x="275" y="24" text-anchor="middle" font-family="Cormorant Garamond, Georgia, serif" font-size="16" font-weight="400" fill="#2D1B14" letter-spacing="5">OSTRA EUROPA</text>
  <text x="275" y="42" text-anchor="middle" font-family="Inter, sans-serif" font-size="8" fill="#8a7a6a" letter-spacing="1" class="region-label">Placera regionerna och namnge de viktigaste druvorna</text>
  <g filter="url(#shadow)">    <path d="M111.2,260.8 L111.6,261.0 L111.6,261.4 L111.3,261.0 L110.4,260.7 L110.4,260.5 L107.8,259.3 L107.5,259.0 L107.6,258.4 L107.5,258.4 L105.4,257.9 L105.1,257.7 L105.4,257.7 L104.9,257.2 L104.7,257.3 L103.7,256.7 L102.8,256.4 L102.5,256.2 L102.7,255.8 L102.2,255.8 L101.8,255.6 L101.4,255.5 L101.0,255.7 L100.1,255.3 L100.5,255.6 L100.7,256.0 L100.5,256.1 L100.5,255.8 L100.2,255.7 L95.9,254.6 L96.0,254.2 L95.6,254.0 L94.6,253.9 L93.4,253.3 L92.6,253.0 L90.8,253.0 L90.1,252.8 L89.7,252.5 L89.8,252.3 L89.4,252.0 L89.7,252.0 L90.5,252.4 L91.8,252.3 L93.0,252.4 L95.2,253.1 L96.1,253.6 L96.2,253.9 L96.5,253.9 L96.9,254.1 L97.2,254.1 L97.2,253.9 L97.7,254.0 L98.9,254.4 L99.1,254.6 L99.4,254.6 L100.0,255.0 L100.4,255.1 L99.8,254.7 L100.0,254.5 L99.9,254.4 L99.5,254.5 L99.1,254.3 L99.5,254.0 L99.8,253.9 L101.1,254.2 L101.4,254.1 L101.7,254.4 L101.7,254.9 L102.1,255.4 L102.8,255.6 L104.2,256.6 L107.6,258.2 L108.9,258.6 L109.3,258.6 L110.0,259.2 L110.7,259.3 L110.7,260.2 L111.2,260.8 Z" fill="#faf5ef" stroke="#8B1A2B" stroke-width="1.3" stroke-linejoin="round"/>
    <path d="M94.9,256.3 L94.2,255.8 L95.2,255.7 L94.9,255.8 L96.6,256.0 L97.2,256.2 L98.3,256.4 L98.2,256.5 L99.2,256.5 L100.2,257.0 L100.5,257.3 L95.1,256.1 L94.9,256.3 Z" fill="#faf5ef" stroke="#8B1A2B" stroke-width="1.3" stroke-linejoin="round"/>
    <path d="M87.7,256.7 L87.3,256.5 L86.9,256.7 L86.6,256.4 L86.8,256.4 L86.8,256.2 L86.7,256.2 L86.5,256.2 L86.6,256.1 L87.3,255.9 L88.4,256.1 L88.4,256.4 L88.3,256.6 L88.0,256.7 L87.7,256.7 Z" fill="#faf5ef" stroke="#8B1A2B" stroke-width="1.3" stroke-linejoin="round"/>
    <path d="M91.7,253.9 L91.0,254.0 L89.6,253.8 L89.0,253.8 L87.2,254.2 L84.8,253.8 L84.5,253.9 L84.0,253.7 L85.0,253.3 L85.0,253.2 L83.9,253.0 L84.2,252.8 L85.2,252.9 L86.8,253.3 L87.6,253.3 L88.1,253.1 L89.9,253.0 L91.0,253.3 L91.4,253.2 L92.4,253.9 L92.3,254.0 L91.7,253.9 Z" fill="#faf5ef" stroke="#8B1A2B" stroke-width="1.3" stroke-linejoin="round"/>
    <path d="M78.3,251.8 L77.7,252.2 L75.8,252.6 L75.5,252.5 L75.8,252.3 L75.8,252.1 L75.7,251.9 L75.5,252.0 L75.3,251.8 L76.5,251.4 L77.5,251.5 L77.4,251.7 L78.3,251.6 L78.3,251.8 Z" fill="#faf5ef" stroke="#8B1A2B" stroke-width="1.3" stroke-linejoin="round"/>
    <path d="M80.1,249.8 L80.2,249.7 L80.7,249.8 L81.1,249.6 L81.2,249.7 L81.4,249.5 L81.4,249.6 L81.9,249.5 L82.8,249.9 L83.2,249.9 L82.3,249.3 L82.9,249.3 L83.2,249.5 L83.7,249.4 L84.3,249.5 L84.8,249.9 L84.7,250.0 L85.4,250.3 L87.1,250.3 L87.4,250.2 L87.9,250.4 L89.7,250.6 L91.7,250.6 L92.3,250.8 L84.5,250.9 L82.9,250.6 L80.1,249.8 Z" fill="#faf5ef" stroke="#8B1A2B" stroke-width="1.3" stroke-linejoin="round"/>
    <path d="M80.8,247.9 L81.1,247.8 L81.0,247.6 L81.3,247.5 L80.9,246.9 L81.2,246.9 L81.9,247.1 L84.8,247.1 L86.6,247.5 L86.6,247.6 L86.4,247.6 L86.7,247.7 L86.9,247.6 L87.3,247.9 L87.7,247.9 L87.8,248.1 L87.6,248.4 L87.4,248.4 L87.1,248.7 L83.9,248.8 L82.0,248.5 L80.8,248.0 L80.6,247.8 L80.8,247.9 Z" fill="#faf5ef" stroke="#8B1A2B" stroke-width="1.3" stroke-linejoin="round"/>
    <path d="M77.6,247.0 L77.7,246.9 L77.5,246.7 L77.6,246.6 L78.7,246.6 L79.0,246.7 L79.0,247.0 L79.4,246.9 L80.4,247.6 L80.1,247.8 L79.7,247.7 L78.7,247.2 L77.6,247.0 Z" fill="#faf5ef" stroke="#8B1A2B" stroke-width="1.3" stroke-linejoin="round"/>
    <path d="M78.7,245.5 L77.8,245.5 L77.7,245.4 L78.2,245.4 L78.3,245.3 L78.2,245.2 L78.5,245.1 L80.1,245.4 L79.5,245.6 L78.7,245.5 Z" fill="#faf5ef" stroke="#8B1A2B" stroke-width="1.3" stroke-linejoin="round"/>
    <path d="M68.7,242.7 L68.8,242.6 L69.4,242.7 L69.8,243.1 L70.7,243.4 L69.7,243.3 L68.7,242.7 Z" fill="#faf5ef" stroke="#8B1A2B" stroke-width="1.3" stroke-linejoin="round"/>
    <path d="M64.6,240.9 L63.4,240.1 L63.1,239.7 L63.3,239.6 L65.6,241.3 L64.6,240.9 Z" fill="#faf5ef" stroke="#8B1A2B" stroke-width="1.3" stroke-linejoin="round"/>
    <path d="M65.3,238.3 L65.5,238.7 L66.0,239.0 L66.3,239.5 L65.7,239.4 L65.6,239.2 L65.0,239.1 L64.9,238.9 L65.0,238.8 L64.3,238.5 L63.6,237.7 L64.1,237.8 L64.9,238.2 L65.3,238.3 Z" fill="#faf5ef" stroke="#8B1A2B" stroke-width="1.3" stroke-linejoin="round"/>
    <path d="M61.7,239.0 L62.3,239.5 L62.6,239.6 L62.7,239.7 L62.6,239.8 L61.5,239.2 L60.3,238.0 L59.7,237.1 L59.0,236.8 L57.8,235.8 L57.5,235.3 L57.7,235.3 L58.8,236.0 L59.0,236.3 L59.6,236.6 L59.8,236.5 L59.7,236.7 L60.0,236.8 L60.3,237.5 L61.0,238.0 L61.4,238.1 L61.8,238.6 L62.9,239.2 L63.0,239.3 L62.6,239.4 L61.9,239.0 L61.7,239.0 Z" fill="#faf5ef" stroke="#8B1A2B" stroke-width="1.3" stroke-linejoin="round"/>
    <path d="M62.8,237.2 L62.7,237.0 L62.5,237.2 L61.5,236.5 L60.7,235.9 L60.8,235.8 L60.6,235.5 L63.0,236.9 L63.4,237.2 L63.5,237.6 L63.0,237.1 L62.8,237.2 Z" fill="#faf5ef" stroke="#8B1A2B" stroke-width="1.3" stroke-linejoin="round"/>
    <path d="M57.0,235.6 L57.1,235.4 L57.3,235.6 L57.6,235.6 L57.8,235.8 L57.3,235.8 L57.0,235.6 Z" fill="#faf5ef" stroke="#8B1A2B" stroke-width="1.3" stroke-linejoin="round"/>
    <path d="M56.1,234.0 L55.8,233.8 L56.0,233.6 L56.6,233.8 L56.1,234.0 Z" fill="#faf5ef" stroke="#8B1A2B" stroke-width="1.3" stroke-linejoin="round"/>
    <path d="M53.7,232.7 L54.4,233.0 L54.7,233.3 L54.4,233.2 L53.7,232.7 Z" fill="#faf5ef" stroke="#8B1A2B" stroke-width="1.3" stroke-linejoin="round"/>
    <path d="M56.1,232.5 L56.3,232.2 L56.2,231.7 L56.6,231.7 L56.8,232.0 L56.7,232.2 L56.9,232.7 L56.7,232.8 L56.5,232.7 L56.1,232.5 Z" fill="#faf5ef" stroke="#8B1A2B" stroke-width="1.3" stroke-linejoin="round"/>
    <path d="M55.7,227.4 L57.4,229.0 L58.0,229.3 L57.9,228.8 L58.3,228.8 L59.2,229.4 L59.8,229.9 L60.3,230.0 L60.8,230.7 L59.8,230.4 L59.9,230.2 L59.3,229.9 L58.4,229.7 L58.4,229.8 L59.2,230.1 L60.4,231.4 L61.1,231.7 L60.7,231.4 L60.3,230.8 L60.9,231.0 L63.5,232.8 L63.2,232.9 L62.1,232.4 L62.1,232.5 L62.9,232.9 L63.1,233.0 L62.8,233.0 L63.0,233.2 L61.6,232.9 L62.3,233.4 L61.6,233.2 L61.1,232.8 L61.1,232.7 L61.3,232.7 L61.3,232.6 L61.0,232.3 L61.3,232.3 L61.4,232.1 L60.9,231.9 L60.4,232.0 L60.0,231.5 L59.1,230.9 L58.2,230.6 L58.2,230.5 L58.5,230.4 L57.9,229.6 L56.2,228.1 L55.7,227.4 Z" fill="#faf5ef" stroke="#8B1A2B" stroke-width="1.3" stroke-linejoin="round"/>
    <path d="M51.4,229.8 L51.8,229.9 L51.1,229.4 L50.8,229.3 L50.6,229.5 L50.2,229.4 L50.3,229.3 L50.3,229.2 L50.5,228.9 L50.4,228.6 L50.0,228.1 L49.8,227.2 L50.8,227.7 L50.6,228.0 L50.9,229.0 L52.7,230.4 L52.8,230.7 L52.5,230.7 L51.4,229.9 L51.4,229.8 Z" fill="#faf5ef" stroke="#8B1A2B" stroke-width="1.3" stroke-linejoin="round"/>
    <path d="M48.7,228.1 L48.7,228.4 L48.9,228.8 L48.3,228.6 L48.5,228.1 L48.8,227.8 L49.0,227.8 L48.9,228.1 L48.7,228.1 Z" fill="#faf5ef" stroke="#8B1A2B" stroke-width="1.3" stroke-linejoin="round"/>
    <path d="M117.7,209.4 L117.2,209.7 L117.7,210.1 L116.9,210.3 L116.8,210.9 L117.6,211.7 L117.9,212.5 L118.5,212.9 L118.6,213.1 L117.8,213.8 L117.7,214.5 L118.2,215.0 L118.5,215.0 L119.4,214.6 L119.7,214.9 L120.5,215.2 L120.7,215.4 L120.2,215.7 L119.2,215.6 L119.0,216.0 L119.0,216.3 L119.6,216.9 L119.4,217.1 L118.7,217.2 L118.8,217.5 L119.5,217.9 L120.3,218.0 L120.5,218.1 L120.6,218.6 L121.4,218.9 L123.4,219.5 L124.7,219.6 L125.0,219.7 L125.1,220.0 L125.1,220.4 L124.9,220.5 L123.6,220.6 L123.3,220.4 L123.1,220.6 L122.4,220.6 L121.8,220.5 L121.2,220.1 L120.9,220.1 L121.2,220.6 L121.1,220.9 L120.0,220.8 L119.8,221.0 L120.3,221.8 L120.5,222.7 L120.4,223.4 L120.5,223.5 L120.9,223.4 L121.0,223.7 L120.1,224.4 L119.4,224.1 L119.0,224.3 L119.0,224.6 L119.3,225.0 L117.5,225.1 L116.4,224.7 L115.9,224.3 L115.7,223.9 L116.2,223.4 L116.0,222.9 L115.2,222.8 L114.3,221.7 L113.9,222.1 L113.4,221.6 L112.4,221.6 L112.2,221.7 L112.3,222.2 L111.9,222.2 L111.2,221.9 L110.4,221.4 L109.0,221.2 L107.8,220.7 L107.4,220.7 L107.2,220.9 L107.1,221.4 L106.5,221.6 L105.6,221.4 L104.8,220.9 L104.3,220.8 L102.9,221.8 L101.8,222.1 L101.2,221.8 L100.4,221.1 L99.6,220.6 L99.1,220.6 L98.7,220.7 L97.9,221.2 L96.5,221.3 L96.8,220.9 L96.4,221.1 L96.0,221.0 L96.2,220.9 L96.0,220.6 L95.8,220.8 L95.1,221.0 L93.4,220.2 L93.0,220.7 L92.2,220.8 L90.9,220.4 L90.2,220.1 L89.9,219.6 L89.5,219.8 L89.6,219.6 L89.5,219.4 L89.4,219.6 L88.8,219.3 L88.9,219.5 L88.6,219.5 L88.4,218.9 L88.3,218.8 L87.3,219.6 L86.9,219.8 L86.8,220.2 L86.6,220.3 L86.2,220.4 L83.3,219.8 L82.4,219.7 L81.7,220.1 L81.0,221.1 L80.3,221.3 L80.2,221.4 L80.2,221.8 L79.8,222.3 L79.6,222.9 L79.2,223.0 L77.7,222.6 L76.1,221.4 L75.5,220.5 L74.9,220.3 L75.0,220.0 L74.7,219.8 L71.9,219.9 L71.5,220.2 L71.3,220.5 L71.3,221.5 L70.9,222.4 L71.1,223.1 L71.0,223.4 L70.5,224.1 L70.6,224.5 L71.2,225.3 L71.1,225.6 L70.5,225.7 L70.3,226.0 L70.5,226.5 L71.7,227.5 L72.4,227.4 L72.7,227.1 L72.9,227.1 L73.1,227.6 L73.3,227.7 L73.6,227.6 L73.8,227.8 L73.9,228.2 L74.1,228.4 L75.0,228.6 L75.2,229.1 L75.1,229.2 L74.6,229.8 L74.9,230.1 L75.2,230.1 L75.8,229.9 L76.1,230.0 L76.3,230.1 L76.9,231.7 L76.9,231.9 L76.6,232.3 L77.1,232.3 L77.6,232.5 L77.6,232.9 L77.4,233.3 L77.3,233.7 L77.7,234.8 L78.6,235.5 L79.4,236.7 L80.0,237.0 L80.7,237.1 L81.1,237.7 L82.0,238.0 L82.8,238.8 L84.6,240.2 L84.9,241.0 L85.1,241.3 L86.8,242.2 L89.8,244.6 L90.6,245.1 L91.5,245.5 L93.0,245.6 L93.4,245.8 L93.6,246.2 L93.4,247.5 L93.7,248.2 L94.3,248.9 L95.3,249.5 L95.7,250.3 L96.0,250.5 L98.1,251.5 L98.7,252.0 L99.2,252.8 L99.2,253.2 L98.8,253.5 L98.0,253.6 L97.6,253.4 L97.3,253.5 L97.1,253.3 L96.6,253.0 L96.4,252.5 L96.8,252.3 L96.6,252.2 L95.8,252.5 L96.2,252.3 L95.8,252.2 L95.7,251.8 L95.4,252.0 L94.1,250.8 L92.0,250.0 L91.1,249.6 L90.9,249.3 L90.5,249.2 L90.2,248.9 L90.1,248.6 L89.8,248.5 L88.4,247.2 L87.6,246.7 L85.7,246.5 L83.8,246.1 L82.5,245.3 L82.3,245.1 L82.0,245.2 L80.4,245.1 L80.4,245.0 L81.0,245.0 L81.6,244.7 L81.0,244.6 L79.5,244.5 L78.1,244.9 L76.3,244.9 L76.3,245.0 L77.0,245.2 L77.1,245.5 L76.2,245.5 L76.2,245.6 L75.1,245.4 L74.8,245.2 L74.7,245.3 L74.2,245.3 L74.0,245.1 L73.9,245.2 L74.0,245.1 L74.3,245.0 L74.4,244.6 L73.9,244.7 L73.8,244.5 L73.4,244.4 L73.7,244.4 L73.7,244.3 L73.3,244.2 L73.5,244.0 L73.3,243.9 L73.4,243.8 L73.3,243.7 L73.4,243.6 L73.3,243.4 L74.0,243.3 L74.0,243.2 L73.1,243.1 L73.8,243.1 L73.5,242.8 L73.7,242.7 L73.8,242.5 L73.6,242.4 L73.7,242.7 L73.5,242.7 L73.0,242.3 L72.6,242.3 L72.2,241.9 L71.5,241.5 L70.2,241.4 L69.8,240.9 L69.1,240.7 L68.9,240.5 L69.5,240.7 L69.8,240.7 L69.8,240.6 L68.2,240.0 L67.3,239.2 L66.5,238.9 L65.0,237.5 L64.4,237.2 L63.8,236.6 L62.9,235.9 L62.9,235.7 L61.8,235.0 L62.1,234.7 L62.0,234.4 L61.3,234.0 L61.8,233.7 L62.0,233.7 L62.3,234.2 L62.6,234.1 L62.8,233.8 L62.4,233.6 L62.8,233.6 L62.6,233.4 L63.4,233.8 L63.8,234.1 L64.1,234.2 L63.9,233.6 L64.2,233.4 L63.8,233.3 L63.6,232.9 L66.0,233.9 L67.2,234.0 L67.5,234.0 L67.5,233.8 L66.4,233.6 L65.7,233.1 L64.3,232.6 L62.0,230.9 L60.9,229.9 L59.8,229.4 L58.2,227.6 L58.0,227.1 L58.1,226.9 L58.0,226.2 L58.0,225.1 L58.5,223.6 L57.5,221.6 L57.1,221.3 L56.2,221.0 L54.6,220.1 L53.9,219.4 L53.4,219.1 L53.3,218.9 L53.5,218.8 L52.8,218.4 L53.1,218.6 L53.0,218.8 L52.8,218.8 L52.4,218.6 L50.8,218.0 L49.7,217.8 L49.5,217.9 L48.9,218.7 L48.3,220.8 L48.0,221.2 L47.5,221.0 L47.7,221.2 L47.7,221.5 L47.3,221.8 L47.2,221.7 L47.2,222.2 L47.0,222.1 L47.3,222.7 L47.3,223.1 L47.1,223.4 L46.9,223.5 L46.4,223.4 L45.9,223.8 L46.1,223.2 L46.0,223.0 L45.7,222.8 L45.6,222.5 L45.4,222.5 L45.5,223.0 L45.9,223.1 L46.0,223.3 L45.5,223.8 L45.4,223.7 L45.4,224.0 L45.4,224.2 L45.2,224.2 L45.3,224.4 L45.2,224.5 L44.4,224.5 L44.7,224.8 L44.6,224.9 L44.7,224.9 L44.7,225.0 L44.4,225.3 L44.4,225.6 L44.7,225.6 L44.8,225.8 L44.3,225.8 L43.8,225.7 L43.7,225.8 L43.6,225.6 L43.2,225.5 L43.1,225.6 L43.4,225.7 L43.4,226.0 L43.6,226.3 L43.4,226.4 L43.3,225.8 L42.6,225.6 L42.7,225.4 L42.5,225.4 L42.6,225.3 L42.5,225.2 L42.1,225.2 L41.7,224.9 L41.8,224.8 L42.2,225.0 L42.4,224.9 L42.5,224.7 L42.1,224.8 L41.8,224.6 L42.0,224.3 L41.5,223.6 L39.8,222.1 L39.3,221.9 L39.5,221.6 L39.1,221.3 L39.5,221.1 L40.8,221.0 L40.2,220.9 L38.9,221.0 L38.9,220.5 L38.7,220.4 L38.8,220.2 L38.6,220.1 L38.8,219.9 L38.7,219.6 L38.8,219.3 L38.5,219.1 L38.9,218.8 L38.5,218.5 L39.1,218.3 L38.3,218.2 L38.0,217.9 L38.0,217.7 L38.2,217.7 L38.2,217.6 L38.1,217.4 L37.6,216.6 L37.7,216.2 L37.4,215.6 L37.6,215.4 L38.8,215.8 L38.8,215.3 L38.6,215.3 L38.4,215.0 L41.2,214.8 L40.6,214.2 L41.3,214.2 L41.9,214.4 L42.6,214.3 L43.3,213.6 L42.7,213.4 L41.6,212.0 L40.5,211.7 L39.8,211.3 L38.6,211.0 L38.4,210.7 L38.5,210.2 L39.0,209.3 L39.2,208.7 L39.0,208.4 L37.6,208.7 L36.9,208.1 L37.3,207.8 L37.3,207.6 L37.2,207.5 L37.5,207.2 L39.2,206.3 L39.6,205.8 L39.5,205.5 L38.3,205.4 L37.6,205.0 L37.0,204.9 L36.3,204.8 L36.5,205.0 L36.1,205.1 L35.7,204.6 L35.4,203.9 L35.8,203.7 L36.4,202.9 L37.9,202.4 L38.9,201.6 L40.1,201.5 L40.2,201.2 L40.4,200.5 L41.6,200.6 L42.8,200.5 L44.6,201.0 L45.6,201.0 L47.1,201.6 L50.9,201.7 L51.1,201.9 L51.5,202.0 L52.3,202.0 L52.9,202.6 L53.1,202.5 L53.6,201.7 L54.2,201.6 L54.7,201.4 L54.9,201.4 L55.4,200.9 L56.1,200.8 L56.6,200.7 L57.1,199.8 L57.5,199.3 L58.2,199.2 L58.7,199.0 L58.9,199.0 L59.2,199.3 L59.8,198.7 L60.6,198.5 L62.7,198.7 L65.5,198.6 L66.6,199.1 L67.3,198.9 L67.6,198.3 L67.8,198.2 L68.7,198.2 L69.0,198.1 L69.1,197.5 L70.5,197.7 L72.3,197.4 L74.4,197.9 L74.8,198.2 L74.8,197.9 L74.6,197.7 L74.3,197.5 L74.1,197.1 L74.2,196.2 L74.1,196.0 L74.3,195.9 L75.0,195.7 L76.2,195.3 L77.1,194.5 L77.9,194.2 L78.0,193.8 L78.4,193.7 L78.6,193.3 L80.3,193.3 L80.7,193.5 L81.8,193.4 L81.5,193.1 L80.9,193.0 L81.9,192.6 L81.9,192.4 L81.4,192.3 L81.3,192.1 L81.4,191.9 L81.7,191.8 L82.1,191.3 L81.9,191.1 L81.2,191.3 L81.0,191.2 L81.1,190.7 L80.7,190.6 L80.6,190.3 L80.9,190.0 L80.8,189.7 L81.5,189.4 L81.6,189.2 L81.1,188.3 L80.8,188.2 L81.0,188.0 L81.0,187.4 L81.3,187.2 L81.7,187.5 L83.3,187.0 L84.1,186.6 L84.0,186.0 L84.6,185.8 L84.8,185.3 L84.7,185.2 L84.2,184.9 L84.3,184.6 L83.9,184.1 L83.6,184.0 L83.1,184.1 L82.1,183.8 L81.7,183.8 L80.6,183.5 L81.1,183.1 L81.3,183.2 L82.2,182.9 L82.4,182.6 L82.4,182.3 L83.0,182.1 L84.8,182.5 L85.0,182.6 L85.4,183.1 L86.4,183.3 L87.2,182.7 L87.4,183.1 L87.9,183.2 L90.5,182.8 L90.1,182.5 L90.0,181.4 L90.2,181.3 L90.0,180.9 L89.5,180.7 L89.5,180.5 L90.4,180.2 L90.7,179.6 L90.5,179.5 L90.8,179.1 L90.7,178.9 L92.1,178.2 L94.4,178.5 L94.9,178.8 L96.4,180.1 L97.2,180.4 L97.9,181.0 L98.4,180.9 L98.9,181.2 L99.4,181.6 L100.4,182.0 L101.7,182.2 L105.9,182.0 L107.7,182.1 L108.3,182.1 L109.4,181.8 L112.4,181.6 L114.1,181.8 L114.5,181.8 L115.6,181.1 L116.4,181.0 L115.4,180.4 L115.3,180.1 L115.4,179.2 L115.3,178.9 L116.0,178.6 L116.4,178.0 L116.7,177.9 L119.0,177.5 L120.6,177.4 L122.4,177.6 L123.4,177.2 L125.4,177.2 L126.2,176.8 L126.2,176.5 L126.7,175.5 L128.3,175.1 L128.7,175.1 L129.3,175.6 L130.3,175.5 L130.6,175.7 L130.5,176.1 L130.6,176.3 L131.3,176.1 L131.7,176.2 L132.2,176.6 L132.5,176.6 L132.9,176.6 L133.9,176.0 L135.5,175.5 L135.9,174.8 L136.5,174.9 L137.3,174.5 L138.0,174.7 L138.8,174.3 L139.4,173.5 L140.2,172.1 L141.1,171.4 L141.1,170.7 L145.8,170.0 L146.5,170.4 L147.2,170.5 L148.0,170.8 L149.3,170.8 L150.4,171.2 L152.1,170.8 L152.7,171.0 L152.9,170.9 L153.3,170.5 L153.6,170.4 L155.3,170.2 L156.2,170.5 L156.5,171.1 L157.6,171.2 L157.9,171.9 L158.8,173.0 L159.6,173.4 L160.1,173.5 L160.5,173.5 L162.6,172.9 L163.9,172.8 L164.8,172.9 L165.1,172.9 L165.6,172.5 L166.0,172.5 L166.6,172.3 L167.1,172.3 L167.7,172.5 L167.4,173.2 L168.0,173.2 L168.1,173.3 L168.1,173.8 L168.2,174.1 L169.0,174.9 L169.5,174.9 L170.1,175.0 L170.8,174.9 L171.9,175.9 L172.6,177.0 L173.9,177.0 L174.7,176.8 L176.0,177.4 L176.3,177.8 L176.4,178.1 L176.2,178.6 L176.0,178.8 L176.1,179.0 L176.7,179.3 L176.1,179.9 L175.0,180.3 L174.8,180.5 L174.9,180.9 L174.8,181.0 L174.1,181.2 L173.1,181.9 L172.6,182.0 L171.5,182.0 L170.4,181.6 L169.9,181.7 L169.7,182.3 L169.5,182.4 L168.2,182.4 L167.7,182.6 L166.7,183.3 L166.6,183.8 L166.2,184.2 L166.0,184.6 L165.1,184.9 L163.8,185.7 L163.5,186.0 L163.7,187.5 L163.4,187.9 L162.4,188.1 L161.6,188.9 L161.0,190.1 L161.0,190.8 L160.4,191.2 L160.1,191.8 L159.1,192.3 L158.2,193.0 L158.8,193.4 L158.4,194.2 L157.5,194.7 L157.6,195.4 L157.5,195.6 L156.8,195.8 L156.3,196.2 L155.8,197.1 L156.3,197.4 L156.2,197.7 L156.0,198.0 L155.3,198.2 L154.7,198.9 L154.3,199.0 L153.5,199.0 L153.3,199.2 L153.1,200.1 L152.5,200.8 L152.4,201.1 L152.9,201.7 L153.0,202.0 L152.6,202.2 L151.7,202.3 L151.4,202.5 L151.3,202.8 L151.2,203.5 L150.8,204.0 L150.3,204.1 L149.6,204.7 L149.3,204.7 L148.8,204.4 L148.2,204.5 L147.4,204.3 L146.9,204.4 L146.4,204.2 L145.8,204.2 L144.9,204.7 L144.9,204.9 L145.0,205.3 L144.5,205.4 L144.3,205.9 L144.1,206.0 L143.0,206.3 L142.7,206.2 L142.1,205.9 L140.9,205.6 L140.5,206.0 L138.1,206.0 L137.5,206.6 L136.7,206.1 L136.5,206.0 L136.0,206.2 L135.4,205.9 L134.5,206.1 L133.8,205.8 L132.9,205.8 L130.8,206.3 L129.0,205.6 L127.3,205.7 L126.3,206.2 L126.5,206.6 L126.1,206.7 L125.8,207.0 L125.1,207.3 L124.7,207.7 L123.6,207.8 L123.4,207.9 L123.0,208.5 L121.3,208.4 L121.0,208.3 L120.7,208.0 L120.4,207.9 L120.1,208.0 L119.8,208.3 L119.8,208.7 L119.2,208.7 L118.8,208.9 L118.8,209.0 L118.9,209.3 L117.6,209.2 L117.7,209.4 Z" fill="#faf5ef" stroke="#8B1A2B" stroke-width="1.3" stroke-linejoin="round"/>
    <path d="M55.2,226.5 L54.6,226.0 L55.3,226.1 L55.2,225.8 L55.6,226.0 L55.0,225.3 L55.6,225.4 L55.5,225.2 L55.8,225.2 L56.0,225.3 L56.1,225.5 L55.8,225.7 L57.1,226.4 L57.6,227.2 L57.5,227.4 L55.8,226.3 L56.0,226.6 L55.6,226.5 L55.2,226.5 Z" fill="#faf5ef" stroke="#8B1A2B" stroke-width="1.3" stroke-linejoin="round"/>
    <path d="M52.6,228.7 L51.9,228.7 L51.2,228.1 L50.7,227.4 L50.7,226.7 L50.3,226.6 L50.2,225.8 L49.7,225.5 L49.5,224.6 L49.2,224.4 L49.3,224.2 L49.2,223.9 L49.3,223.9 L49.7,224.0 L50.2,224.4 L50.6,224.4 L50.7,224.1 L50.6,223.6 L50.8,223.8 L51.0,223.7 L50.4,223.2 L49.9,222.2 L49.0,221.3 L49.1,220.8 L49.5,220.5 L50.1,220.5 L50.3,220.7 L50.2,221.6 L50.6,222.5 L51.1,223.1 L51.8,223.3 L51.9,223.5 L51.6,224.2 L51.7,224.3 L51.5,224.5 L51.6,225.2 L51.8,225.9 L51.6,226.0 L51.9,226.5 L51.8,227.0 L51.9,227.4 L52.5,228.0 L52.4,228.3 L52.7,228.3 L52.8,228.5 L52.6,228.7 Z" fill="#faf5ef" stroke="#8B1A2B" stroke-width="1.3" stroke-linejoin="round"/>
    <path d="M54.1,222.4 L53.8,222.5 L54.0,222.7 L52.4,222.6 L51.7,222.3 L51.2,221.7 L51.4,221.5 L51.7,221.5 L51.8,221.2 L51.9,221.1 L52.7,221.0 L52.6,220.8 L52.9,220.5 L52.8,220.0 L53.0,219.7 L52.9,219.5 L52.8,219.5 L53.0,219.3 L53.7,219.5 L53.5,219.5 L53.5,219.6 L54.1,220.4 L53.7,220.6 L54.4,220.7 L54.7,220.6 L54.8,220.9 L54.6,221.4 L54.7,221.7 L55.2,221.9 L55.8,221.9 L55.8,222.4 L56.7,223.0 L56.9,223.4 L56.5,223.5 L56.1,223.4 L55.9,223.5 L56.1,223.7 L56.1,223.8 L55.3,223.8 L54.2,223.4 L54.1,222.4 Z" fill="#faf5ef" stroke="#8B1A2B" stroke-width="1.3" stroke-linejoin="round"/>
    <path d="M182.9,358.8 L182.7,358.4 L182.5,358.1 L183.4,358.7 L183.4,359.2 L182.9,358.8 Z" fill="#faf5ef" stroke="#8B1A2B" stroke-width="1.3" stroke-linejoin="round"/>
    <path d="M179.4,353.5 L179.2,354.5 L178.7,354.5 L178.3,354.6 L178.3,354.4 L177.7,354.2 L177.7,354.0 L177.4,353.9 L177.1,353.6 L177.2,352.4 L177.0,351.8 L177.5,351.0 L177.7,350.9 L177.8,351.0 L178.7,352.1 L179.9,352.9 L180.0,353.1 L179.5,353.3 L179.4,353.5 Z" fill="#faf5ef" stroke="#8B1A2B" stroke-width="1.3" stroke-linejoin="round"/>
    <path d="M160.3,346.3 L160.1,346.0 L159.9,346.1 L160.1,345.5 L160.4,345.6 L160.4,345.7 L160.3,346.3 Z" fill="#faf5ef" stroke="#8B1A2B" stroke-width="1.3" stroke-linejoin="round"/>
    <path d="M159.6,344.9 L159.4,345.1 L159.1,345.7 L159.2,344.9 L159.3,344.8 L159.6,344.9 Z" fill="#faf5ef" stroke="#8B1A2B" stroke-width="1.3" stroke-linejoin="round"/>
    <path d="M180.7,338.3 L180.4,338.2 L179.9,337.7 L180.4,337.5 L180.7,337.7 L180.9,338.0 L180.7,338.3 Z" fill="#faf5ef" stroke="#8B1A2B" stroke-width="1.3" stroke-linejoin="round"/>
    <path d="M185.6,337.1 L184.0,337.3 L184.0,337.2 L185.4,336.5 L187.2,336.3 L186.6,336.6 L186.0,336.6 L186.0,336.9 L185.6,337.1 Z" fill="#faf5ef" stroke="#8B1A2B" stroke-width="1.3" stroke-linejoin="round"/>
    <path d="M185.8,333.8 L186.3,334.0 L186.3,334.1 L185.6,334.3 L185.0,334.1 L185.0,334.0 L185.5,333.8 L185.6,333.6 L185.8,333.8 Z" fill="#faf5ef" stroke="#8B1A2B" stroke-width="1.3" stroke-linejoin="round"/>
    <path d="M186.4,331.0 L186.3,331.5 L185.7,331.7 L185.3,331.5 L185.4,331.2 L184.9,330.9 L184.8,330.4 L186.6,330.3 L186.8,330.4 L186.6,330.8 L186.6,330.9 L186.4,331.0 Z" fill="#faf5ef" stroke="#8B1A2B" stroke-width="1.3" stroke-linejoin="round"/>
    <path d="M147.2,330.9 L146.5,331.4 L146.6,331.8 L146.5,332.1 L146.0,332.1 L144.4,330.9 L144.4,330.6 L143.5,329.8 L143.1,329.6 L143.3,329.1 L143.1,329.0 L144.1,328.0 L144.5,328.1 L145.0,329.0 L145.5,329.3 L145.9,329.2 L146.6,329.4 L147.1,329.7 L147.6,330.5 L148.6,331.0 L148.7,331.4 L148.1,331.1 L147.2,330.9 Z" fill="#faf5ef" stroke="#8B1A2B" stroke-width="1.3" stroke-linejoin="round"/>
    <path d="M185.4,328.0 L185.9,327.5 L185.3,327.7 L184.8,327.6 L185.3,327.4 L184.9,327.1 L185.5,327.3 L185.5,327.1 L185.6,327.0 L186.2,327.0 L186.5,327.1 L186.4,327.3 L186.6,327.7 L187.0,327.7 L186.5,327.9 L186.6,328.0 L186.2,328.2 L186.2,328.5 L185.9,328.4 L185.4,328.7 L184.7,328.6 L184.5,328.4 L184.8,328.0 L185.0,327.9 L185.4,328.0 Z" fill="#faf5ef" stroke="#8B1A2B" stroke-width="1.3" stroke-linejoin="round"/>
    <path d="M142.6,325.3 L142.3,325.6 L141.5,325.3 L141.3,325.1 L141.2,324.6 L140.9,324.1 L141.5,324.4 L141.5,324.3 L141.3,324.1 L140.6,322.9 L140.4,322.8 L140.3,323.1 L140.4,323.8 L140.3,324.4 L139.6,324.7 L139.5,324.5 L139.1,324.3 L139.0,324.0 L139.2,323.6 L139.2,323.2 L139.6,322.9 L139.8,322.5 L139.9,321.6 L140.0,321.9 L140.3,321.6 L140.7,322.2 L140.8,322.0 L141.1,322.4 L141.8,322.0 L142.0,321.4 L141.8,321.1 L142.1,321.3 L141.9,320.6 L142.0,320.2 L141.9,319.9 L142.4,319.9 L143.2,321.7 L143.2,322.1 L142.8,322.5 L143.3,323.1 L143.5,323.2 L144.1,322.8 L144.0,323.0 L144.2,323.0 L144.5,323.6 L145.1,324.0 L145.3,324.4 L145.8,325.0 L145.9,325.5 L145.7,326.0 L145.3,325.9 L144.8,326.0 L143.6,325.3 L143.1,325.2 L142.6,325.3 Z" fill="#faf5ef" stroke="#8B1A2B" stroke-width="1.3" stroke-linejoin="round"/>
    <path d="M145.1,322.0 L145.3,322.1 L145.3,322.2 L144.6,322.3 L144.4,322.2 L144.2,322.0 L144.3,321.9 L143.8,321.5 L143.6,320.9 L143.4,320.3 L143.1,320.0 L143.1,319.8 L143.4,319.9 L143.7,319.5 L143.9,319.6 L143.9,319.8 L143.8,320.1 L144.0,320.1 L144.5,320.3 L144.0,321.4 L144.6,321.5 L144.4,321.3 L144.7,321.3 L144.6,321.1 L144.9,321.3 L145.2,321.5 L144.9,321.5 L145.1,322.0 Z" fill="#faf5ef" stroke="#8B1A2B" stroke-width="1.3" stroke-linejoin="round"/>
    <path d="M201.5,327.3 L200.9,327.5 L200.4,327.5 L200.0,326.8 L199.7,326.7 L199.3,326.8 L199.1,327.0 L199.3,327.1 L199.3,327.3 L199.1,327.4 L198.9,327.4 L198.4,327.0 L198.0,326.5 L198.2,326.3 L198.0,326.0 L197.7,325.9 L197.6,325.7 L197.0,325.5 L196.4,325.6 L196.5,325.5 L196.5,325.1 L196.1,325.1 L196.0,325.0 L196.5,324.5 L196.1,323.7 L195.7,323.6 L195.5,323.6 L195.5,323.8 L195.2,323.7 L195.3,323.5 L195.8,323.0 L195.6,322.8 L195.2,323.0 L195.2,323.2 L195.0,323.2 L195.0,322.9 L194.8,322.9 L195.1,322.4 L194.5,322.1 L193.7,322.1 L194.2,321.9 L194.3,321.8 L194.0,321.0 L193.9,321.1 L193.0,321.0 L192.0,321.1 L191.0,320.9 L190.3,321.1 L189.0,320.8 L188.1,320.9 L187.6,320.1 L187.3,320.2 L187.9,319.5 L187.8,319.3 L187.9,319.1 L187.6,318.7 L187.4,318.5 L186.5,318.3 L186.0,318.1 L185.9,317.6 L185.2,317.2 L185.1,316.9 L184.2,316.5 L183.5,316.0 L183.3,315.6 L181.5,314.6 L180.6,314.3 L179.5,314.4 L179.0,314.0 L178.0,313.8 L177.8,313.8 L177.8,313.9 L178.2,314.0 L178.4,314.1 L178.3,314.3 L178.2,314.4 L176.3,314.6 L176.0,314.8 L176.1,314.3 L176.6,314.0 L179.0,313.2 L179.2,312.9 L179.8,312.8 L179.9,312.5 L179.9,312.3 L180.4,312.0 L181.5,312.0 L182.9,311.5 L183.4,311.8 L184.0,312.0 L184.2,312.1 L184.0,312.4 L184.2,312.6 L184.8,312.8 L185.2,314.0 L185.6,314.5 L186.3,314.7 L186.9,315.2 L187.3,315.3 L187.3,315.5 L187.5,315.5 L187.7,315.6 L188.3,315.8 L188.5,315.7 L188.6,315.8 L188.9,315.6 L189.2,315.7 L189.4,315.8 L189.7,316.3 L191.2,316.8 L192.6,317.0 L192.8,317.0 L193.1,316.8 L193.4,316.9 L194.4,316.9 L195.6,317.3 L195.2,317.5 L195.1,317.9 L195.2,318.1 L196.8,319.2 L196.4,319.4 L196.1,319.9 L196.1,320.4 L196.4,320.8 L196.1,320.9 L196.5,321.4 L196.5,322.0 L197.1,322.6 L197.2,323.1 L197.0,323.4 L197.1,323.6 L198.2,324.2 L198.4,324.6 L199.2,324.5 L199.6,324.8 L200.4,324.9 L202.1,324.6 L201.9,325.7 L202.2,326.0 L201.9,326.9 L201.5,327.3 Z" fill="#faf5ef" stroke="#8B1A2B" stroke-width="1.3" stroke-linejoin="round"/>
    <path d="M147.8,318.0 L147.9,318.0 L147.4,318.6 L147.4,318.8 L147.2,318.8 L147.8,318.0 Z" fill="#faf5ef" stroke="#8B1A2B" stroke-width="1.3" stroke-linejoin="round"/>
    <path d="M147.3,318.0 L146.9,318.3 L146.9,318.0 L147.4,317.4 L148.1,317.3 L148.1,317.5 L147.9,317.7 L147.3,318.0 Z" fill="#faf5ef" stroke="#8B1A2B" stroke-width="1.3" stroke-linejoin="round"/>
    <path d="M145.2,317.7 L145.8,318.1 L145.1,317.7 L144.9,317.3 L145.0,317.1 L145.6,316.9 L145.9,317.1 L145.6,317.4 L145.3,317.5 L145.2,317.7 Z" fill="#faf5ef" stroke="#8B1A2B" stroke-width="1.3" stroke-linejoin="round"/>
    <path d="M142.3,316.7 L142.9,315.4 L143.5,314.7 L144.1,314.3 L144.6,314.8 L144.8,315.4 L144.7,315.5 L144.8,316.0 L144.3,316.7 L144.4,316.9 L144.7,316.5 L144.6,317.7 L144.3,317.5 L144.4,317.8 L144.2,317.7 L144.1,318.0 L143.6,317.9 L143.5,318.1 L143.6,318.3 L143.3,318.2 L143.3,318.0 L143.1,318.0 L142.9,317.7 L142.6,317.8 L142.1,318.5 L142.0,318.5 L142.3,316.7 Z" fill="#faf5ef" stroke="#8B1A2B" stroke-width="1.3" stroke-linejoin="round"/>
    <path d="M153.7,284.4 L154.4,283.9 L155.2,283.8 L156.4,283.9 L157.0,284.3 L157.4,284.4 L158.0,284.0 L158.4,284.0 L158.5,283.6 L159.0,283.5 L159.7,283.6 L160.2,283.6 L160.3,283.4 L160.4,283.0 L161.1,282.5 L162.1,281.6 L162.1,281.2 L162.3,281.0 L163.1,280.6 L164.1,280.4 L164.4,280.2 L164.6,280.4 L165.2,280.6 L166.0,280.2 L166.7,280.0 L168.1,280.3 L168.2,280.6 L169.3,280.5 L169.9,280.7 L170.3,280.7 L172.4,280.6 L172.9,280.2 L173.0,279.8 L173.2,279.7 L174.1,280.4 L174.4,280.0 L174.6,279.4 L174.6,278.2 L174.8,277.7 L175.2,277.5 L175.9,277.4 L180.2,277.8 L180.8,277.7 L181.4,277.5 L181.6,277.0 L181.8,276.8 L182.8,276.5 L183.3,276.9 L183.6,276.9 L184.6,276.5 L186.1,276.5 L187.1,276.9 L187.6,276.9 L188.5,276.4 L189.7,276.5 L190.0,276.1 L191.1,275.9 L191.8,275.5 L192.6,275.9 L192.8,275.9 L193.3,275.5 L193.8,275.7 L194.1,275.5 L194.0,274.6 L194.5,274.5 L195.1,274.5 L195.5,274.6 L195.9,274.8 L196.0,274.4 L196.8,274.1 L197.1,274.1 L197.6,274.4 L197.6,274.7 L197.7,274.8 L199.8,274.6 L200.2,274.3 L200.9,274.1 L201.2,274.3 L201.5,275.2 L202.0,275.6 L202.0,275.9 L202.2,276.0 L202.9,276.1 L202.8,276.2 L203.7,276.4 L204.8,277.3 L205.1,277.3 L205.3,277.1 L205.3,276.6 L206.5,276.5 L209.4,277.5 L209.7,277.4 L209.9,277.7 L210.8,278.1 L211.4,278.7 L211.7,278.8 L212.4,278.9 L214.9,278.3 L215.7,278.3 L216.2,277.8 L216.4,277.7 L217.7,277.8 L218.3,278.0 L218.8,277.8 L219.5,277.7 L220.2,277.4 L221.3,277.9 L221.9,277.7 L222.4,277.7 L223.4,277.4 L224.8,277.1 L225.4,276.2 L225.6,276.0 L225.6,275.8 L225.2,275.3 L225.4,275.1 L225.5,274.6 L225.3,274.3 L225.0,274.2 L225.0,273.8 L224.7,273.3 L224.0,273.0 L223.8,272.8 L223.7,272.2 L223.9,271.9 L224.6,271.6 L225.9,271.5 L226.2,271.3 L226.4,271.3 L227.1,271.8 L228.4,271.8 L229.0,272.2 L230.1,272.4 L229.9,272.8 L231.6,273.6 L231.9,273.3 L232.0,273.7 L231.9,274.4 L232.0,274.7 L232.5,276.5 L232.4,277.1 L232.1,277.5 L231.5,277.5 L231.1,277.2 L230.3,277.8 L229.1,278.5 L228.0,278.7 L227.8,278.8 L228.0,279.0 L227.8,279.6 L228.0,280.2 L227.7,280.6 L228.1,280.7 L227.8,281.1 L227.9,281.3 L228.2,281.8 L228.6,282.0 L228.5,282.3 L228.0,282.6 L228.4,282.9 L227.4,283.5 L227.5,283.8 L227.2,283.8 L226.9,283.6 L226.6,284.1 L226.4,283.9 L226.4,284.2 L226.2,284.2 L226.3,284.3 L226.1,284.4 L226.2,284.7 L225.4,285.2 L225.0,285.9 L224.7,286.2 L224.2,286.4 L223.7,286.3 L223.4,285.5 L223.1,285.3 L223.1,285.2 L223.8,285.2 L223.9,285.1 L223.8,284.9 L223.2,285.0 L223.1,284.8 L223.0,284.8 L223.1,285.1 L223.0,285.1 L222.3,284.7 L221.8,284.6 L221.5,284.7 L220.1,284.6 L219.1,284.6 L217.2,284.3 L216.6,284.4 L216.2,284.3 L215.4,284.0 L214.4,283.8 L213.2,283.3 L212.6,283.1 L212.1,283.5 L210.9,283.3 L210.2,283.0 L210.3,282.7 L210.7,282.5 L210.2,282.3 L208.8,282.3 L208.8,282.6 L208.1,282.9 L208.2,283.2 L208.0,283.3 L207.5,283.3 L206.6,283.6 L205.2,284.6 L204.7,284.4 L203.9,284.6 L203.6,284.5 L203.7,284.4 L203.2,284.2 L202.7,284.5 L202.2,283.9 L202.3,283.7 L201.9,283.5 L201.7,283.1 L200.8,283.0 L200.4,283.1 L200.2,283.3 L199.9,283.2 L199.2,283.4 L198.9,283.7 L198.0,284.2 L198.3,284.5 L198.3,284.6 L197.9,284.6 L197.9,284.8 L198.0,284.9 L198.4,284.9 L195.0,286.5 L194.4,286.6 L193.1,286.4 L191.5,285.7 L191.0,285.6 L190.5,285.7 L189.3,286.1 L188.8,286.6 L188.8,286.9 L188.9,287.3 L189.1,287.5 L189.7,287.7 L190.3,288.5 L191.1,289.0 L191.7,288.9 L192.1,289.3 L192.1,289.4 L192.0,289.5 L190.9,289.6 L190.7,289.7 L190.6,290.0 L190.8,290.4 L191.4,291.1 L192.1,291.5 L192.8,291.6 L193.4,291.5 L193.5,291.3 L193.2,290.8 L193.3,290.7 L193.2,290.6 L193.5,290.6 L194.1,291.4 L194.6,291.8 L195.0,292.0 L195.2,291.9 L196.0,292.1 L196.4,292.6 L196.8,292.6 L198.1,293.9 L199.0,294.6 L199.2,295.0 L198.7,295.3 L197.8,295.4 L197.6,294.9 L196.9,294.5 L195.8,293.2 L195.2,293.0 L193.6,292.7 L192.4,291.9 L190.9,291.7 L189.8,292.1 L189.3,291.9 L188.9,292.4 L188.8,292.7 L189.1,293.5 L189.7,293.8 L190.0,294.3 L191.4,294.7 L191.8,294.7 L192.5,295.2 L193.0,295.3 L193.2,295.5 L193.0,295.9 L193.4,296.3 L193.4,296.4 L193.1,296.5 L193.1,296.6 L193.2,296.7 L193.5,296.6 L193.6,297.0 L193.2,297.4 L193.3,297.6 L192.9,297.7 L192.9,297.8 L193.2,297.9 L193.2,298.0 L192.1,297.9 L192.2,297.6 L191.9,297.7 L191.9,297.4 L191.3,297.2 L191.0,296.9 L190.7,296.9 L190.8,297.1 L190.1,296.3 L190.3,295.9 L190.0,295.8 L189.8,295.4 L188.5,294.0 L188.0,293.8 L186.5,293.6 L185.7,293.3 L185.0,293.1 L184.4,293.1 L183.9,293.4 L183.5,293.9 L183.5,294.2 L183.9,295.0 L184.4,295.1 L185.9,296.6 L187.4,297.3 L188.4,297.5 L188.5,297.9 L188.8,298.2 L189.6,298.3 L188.9,298.6 L187.6,298.4 L185.5,297.7 L185.1,297.6 L183.8,297.9 L184.2,297.2 L183.7,296.4 L183.0,295.7 L183.3,294.7 L183.2,294.1 L182.9,293.8 L181.0,293.1 L180.7,293.2 L179.9,292.7 L178.9,292.4 L178.6,292.1 L177.9,291.6 L177.4,291.5 L176.8,291.5 L177.0,291.3 L176.8,291.1 L175.8,289.8 L177.6,289.6 L178.2,289.1 L178.1,288.8 L177.6,288.6 L177.7,288.3 L177.5,287.9 L177.2,287.7 L176.7,287.7 L176.3,287.8 L176.4,288.1 L176.3,288.5 L175.8,288.8 L175.2,288.7 L174.9,288.8 L174.7,289.2 L174.8,289.5 L174.6,289.4 L174.6,289.6 L174.4,289.5 L174.3,289.7 L174.2,289.7 L173.9,289.4 L173.6,289.4 L173.4,289.6 L173.4,289.8 L173.7,289.9 L173.4,290.0 L173.3,290.3 L172.6,290.1 L172.2,290.3 L172.6,290.7 L172.6,291.1 L173.1,291.6 L173.4,291.6 L173.5,291.8 L172.9,292.7 L172.4,293.9 L171.8,294.8 L171.8,295.1 L172.1,296.0 L172.1,296.5 L172.4,296.6 L172.5,297.0 L173.5,297.7 L174.1,297.8 L174.2,298.3 L174.5,299.0 L175.5,299.6 L176.3,300.4 L176.6,301.5 L177.6,303.5 L179.9,304.7 L180.4,305.4 L181.6,306.5 L181.8,306.8 L182.5,307.3 L182.8,308.1 L183.6,309.3 L183.6,309.5 L183.0,309.9 L181.6,310.2 L181.9,310.3 L181.9,310.4 L181.5,310.6 L181.0,310.5 L180.2,310.8 L179.3,310.7 L179.6,310.3 L179.5,310.1 L179.7,309.9 L180.2,309.8 L180.0,310.6 L181.0,310.1 L181.2,310.0 L181.1,309.8 L181.2,309.8 L181.4,309.9 L181.7,309.5 L181.1,308.6 L181.2,308.4 L181.0,308.1 L180.5,307.7 L179.9,307.5 L178.8,307.4 L178.5,306.8 L177.5,306.8 L177.6,307.0 L177.4,307.3 L177.6,307.6 L176.1,307.8 L175.9,308.1 L175.9,308.8 L176.3,309.8 L176.7,309.5 L176.7,309.3 L176.9,309.6 L177.0,309.5 L177.3,310.3 L177.5,310.5 L177.6,310.4 L177.5,310.2 L177.9,310.4 L178.5,311.1 L178.4,311.3 L178.5,311.4 L177.9,311.7 L177.9,312.0 L179.1,311.5 L179.6,311.5 L179.6,311.6 L178.8,312.0 L178.6,312.5 L178.3,312.8 L177.5,312.9 L177.6,313.1 L177.0,313.3 L176.2,313.2 L176.1,313.7 L175.6,313.7 L175.4,313.9 L174.5,314.0 L174.3,313.8 L173.9,313.9 L172.9,313.4 L171.6,313.9 L171.4,313.8 L171.4,314.2 L172.1,314.1 L171.9,314.4 L172.0,314.6 L172.3,314.6 L172.5,314.4 L172.4,314.6 L173.2,314.6 L174.1,314.3 L174.7,315.1 L175.2,315.4 L175.9,315.3 L176.5,315.8 L176.8,315.5 L177.2,315.5 L177.7,315.7 L179.1,315.9 L179.4,316.2 L179.8,317.3 L180.0,317.5 L180.3,317.5 L180.8,317.3 L181.2,317.3 L181.4,317.1 L181.0,316.9 L181.3,316.8 L182.3,317.1 L183.0,317.3 L183.4,317.6 L183.4,318.0 L182.8,318.4 L182.7,318.7 L182.9,318.5 L183.0,318.5 L183.5,318.9 L184.2,319.0 L184.2,319.1 L183.5,319.2 L183.4,319.4 L183.5,319.5 L184.7,319.5 L186.2,319.7 L186.5,319.4 L186.9,319.5 L187.4,319.9 L187.0,320.1 L187.0,320.2 L187.3,320.3 L187.3,320.6 L187.8,320.8 L188.5,321.7 L189.0,322.0 L190.1,321.9 L192.6,322.6 L194.1,323.8 L194.4,323.9 L194.4,324.4 L194.5,324.5 L194.3,324.7 L194.2,325.0 L194.1,324.8 L193.9,324.8 L193.2,325.1 L193.5,326.4 L193.8,326.9 L193.5,327.5 L193.5,328.1 L193.8,328.1 L194.0,328.4 L193.5,328.6 L193.7,328.7 L194.1,328.8 L194.0,328.9 L194.3,329.0 L194.2,329.2 L194.3,329.4 L194.1,329.6 L194.5,329.8 L194.6,330.2 L194.5,330.6 L194.2,330.9 L194.4,331.0 L194.4,331.1 L194.2,331.1 L194.3,331.2 L194.3,331.4 L194.3,331.3 L194.2,331.4 L194.4,331.6 L193.8,332.1 L192.6,331.8 L192.5,331.6 L192.5,331.0 L192.2,331.1 L191.9,330.2 L191.7,330.3 L191.3,329.8 L190.6,329.5 L190.5,329.8 L190.2,329.8 L190.1,329.9 L190.0,329.7 L189.8,329.7 L189.9,329.5 L189.9,329.4 L189.5,329.1 L189.5,328.8 L188.9,328.1 L188.8,327.9 L188.6,327.8 L187.8,328.0 L188.0,327.7 L187.8,327.7 L187.5,327.5 L186.8,327.4 L186.7,327.3 L187.4,326.7 L187.3,326.4 L187.0,326.3 L186.2,326.3 L185.8,326.5 L185.2,326.7 L184.4,327.1 L184.9,327.3 L184.6,327.4 L183.4,327.3 L181.9,327.4 L179.9,328.3 L179.3,328.1 L178.7,328.1 L178.6,328.5 L178.4,328.7 L178.7,329.2 L179.0,329.2 L179.6,329.3 L180.2,329.2 L181.2,329.8 L181.1,330.1 L181.2,330.3 L180.4,330.5 L180.3,330.8 L180.7,331.0 L181.1,331.1 L180.9,331.7 L181.1,332.2 L180.9,332.2 L181.0,332.7 L181.9,333.2 L182.0,333.1 L182.6,333.5 L183.5,333.9 L183.8,333.7 L183.8,333.3 L183.5,332.9 L183.1,332.8 L183.1,332.7 L183.6,332.4 L184.4,332.3 L184.6,332.5 L184.5,332.9 L184.0,333.6 L184.4,333.8 L184.8,333.9 L184.8,334.0 L184.4,334.1 L184.4,334.2 L185.6,334.5 L186.3,335.0 L186.2,335.1 L186.3,335.3 L185.1,335.7 L183.0,335.7 L183.1,335.9 L182.4,335.9 L182.4,336.0 L181.9,336.1 L181.9,336.3 L182.3,336.3 L182.2,336.5 L182.6,336.6 L181.2,336.8 L181.5,337.3 L181.0,337.4 L180.6,337.2 L180.6,337.1 L180.9,337.1 L180.9,337.0 L180.3,337.0 L180.2,336.8 L180.5,336.9 L180.3,336.7 L180.0,336.5 L179.9,336.6 L179.6,336.5 L179.6,335.9 L179.9,336.0 L180.0,335.9 L180.2,335.5 L180.6,335.7 L180.4,335.2 L179.9,335.0 L179.4,335.1 L179.2,335.0 L179.4,334.9 L179.2,334.6 L178.6,335.0 L178.2,334.3 L177.9,334.1 L177.6,334.1 L177.5,333.9 L177.3,333.8 L177.0,333.8 L177.3,334.0 L176.8,333.9 L176.3,334.2 L175.8,333.9 L175.9,333.7 L175.5,333.5 L175.5,333.3 L175.2,333.0 L174.6,333.2 L174.4,333.4 L174.4,333.8 L174.6,334.1 L174.5,334.5 L174.8,334.9 L174.8,335.2 L175.0,335.4 L174.9,335.9 L175.8,336.7 L175.7,336.9 L175.9,336.9 L175.8,337.1 L177.1,338.9 L177.2,339.1 L177.0,339.3 L176.9,339.8 L177.0,340.0 L177.8,340.0 L177.9,340.2 L177.8,340.4 L178.2,340.6 L177.9,340.6 L178.5,341.3 L178.7,342.0 L178.3,342.0 L178.6,342.3 L178.7,342.2 L178.7,342.7 L179.2,343.6 L179.2,343.8 L179.9,344.5 L179.8,344.8 L179.7,345.0 L180.2,345.1 L179.9,345.4 L179.8,345.8 L179.3,345.6 L178.9,345.9 L178.9,346.0 L179.1,346.2 L179.0,346.4 L179.4,346.4 L179.0,346.6 L179.0,347.0 L179.7,348.1 L180.8,348.6 L180.6,348.7 L180.7,349.0 L180.5,349.1 L180.7,349.4 L181.5,349.9 L181.4,350.2 L180.9,350.0 L180.6,350.2 L179.9,350.1 L179.5,349.6 L179.6,349.3 L179.2,348.9 L179.0,348.8 L178.1,348.9 L177.4,347.8 L176.6,347.3 L176.8,347.1 L176.8,347.0 L176.1,346.5 L175.8,346.8 L175.7,346.7 L175.8,346.0 L175.5,345.1 L175.3,344.9 L175.0,344.7 L173.8,344.6 L172.9,344.7 L172.2,345.0 L172.2,345.7 L171.7,346.0 L171.4,346.5 L171.8,346.6 L171.8,347.0 L171.6,346.7 L171.3,346.8 L171.2,347.0 L171.5,347.3 L171.4,347.6 L171.2,347.7 L171.1,347.4 L170.8,347.7 L170.9,348.9 L171.2,349.7 L171.2,350.0 L171.0,350.2 L171.1,350.7 L171.0,350.6 L170.9,350.9 L170.8,350.7 L170.6,350.0 L169.9,349.6 L169.7,349.4 L169.3,349.5 L168.9,349.1 L169.1,348.5 L169.3,348.6 L169.4,348.4 L169.2,348.0 L169.4,347.7 L169.1,347.7 L169.2,347.1 L169.4,347.1 L169.4,347.0 L169.1,346.9 L169.4,346.2 L169.0,346.2 L168.2,345.2 L168.2,344.9 L168.0,344.5 L166.9,343.3 L166.6,343.2 L166.2,343.4 L165.7,343.0 L165.6,342.8 L165.8,342.5 L165.9,341.5 L164.4,341.3 L163.0,341.8 L162.8,341.9 L162.5,343.8 L162.7,344.3 L162.6,344.5 L163.2,344.8 L163.2,344.9 L162.8,344.9 L162.7,345.3 L161.9,345.9 L161.8,345.9 L161.0,344.7 L160.1,344.9 L159.5,344.5 L159.3,344.5 L159.0,344.1 L159.0,343.4 L159.3,342.9 L159.3,342.7 L159.2,342.5 L159.0,342.3 L158.7,342.4 L158.9,342.2 L158.7,342.2 L158.6,342.4 L158.5,341.9 L157.7,341.1 L157.4,340.7 L157.2,340.1 L157.3,339.0 L157.6,338.5 L158.9,337.6 L159.1,337.1 L159.1,336.5 L158.8,335.9 L157.8,334.4 L157.0,333.5 L155.4,332.6 L154.8,332.1 L153.9,331.9 L153.6,331.9 L153.5,332.3 L153.4,332.3 L153.4,331.9 L153.2,331.8 L153.4,331.5 L153.4,331.0 L153.0,330.2 L152.2,329.8 L150.6,329.4 L150.4,329.1 L150.4,328.8 L150.8,327.8 L151.2,328.0 L151.9,327.8 L152.9,327.0 L153.1,327.0 L153.6,326.7 L153.5,326.4 L153.0,326.7 L154.2,325.2 L154.3,323.7 L154.9,324.2 L154.7,323.8 L155.0,324.0 L155.8,324.1 L156.6,324.5 L157.7,324.7 L158.0,324.7 L158.8,324.3 L159.2,323.9 L160.1,322.6 L161.4,321.9 L162.4,322.1 L163.0,322.0 L163.9,322.3 L164.4,322.9 L165.0,323.1 L165.3,323.0 L165.8,323.3 L166.0,323.8 L166.7,324.0 L166.9,324.2 L168.3,324.4 L168.6,324.3 L169.8,324.9 L170.1,324.8 L171.2,325.0 L173.7,326.0 L175.2,327.0 L175.5,327.3 L176.5,327.9 L177.7,327.8 L178.1,327.3 L177.8,326.9 L177.0,326.6 L176.7,326.5 L176.8,326.5 L176.3,326.4 L176.6,326.2 L177.2,326.1 L177.6,325.7 L178.8,326.0 L179.1,325.9 L179.5,326.1 L181.1,325.8 L181.3,325.6 L181.7,325.4 L181.4,325.1 L181.1,325.0 L181.1,324.8 L181.8,324.7 L181.8,324.6 L180.4,324.4 L180.7,324.2 L180.3,323.9 L180.1,323.8 L179.5,324.2 L179.0,324.2 L179.0,324.1 L179.3,324.1 L178.9,323.8 L177.8,323.6 L177.5,323.7 L177.3,323.9 L177.8,323.9 L178.0,324.1 L177.1,324.1 L176.9,323.4 L176.7,323.6 L176.6,323.4 L175.6,323.6 L175.0,323.3 L175.5,322.8 L174.0,322.3 L173.7,321.9 L173.8,321.6 L173.6,321.3 L173.2,321.2 L172.9,321.5 L173.2,321.5 L173.2,321.6 L173.1,321.7 L172.7,321.6 L172.4,322.0 L172.4,322.1 L172.6,322.2 L172.5,322.5 L172.4,322.6 L172.0,322.6 L171.7,322.5 L171.4,322.0 L171.6,322.0 L171.4,321.6 L170.6,320.7 L169.6,320.2 L169.7,320.8 L169.2,321.1 L169.4,321.3 L169.5,321.3 L169.6,321.4 L169.3,321.7 L169.4,321.8 L169.3,321.9 L168.4,321.8 L167.9,321.8 L167.6,321.6 L167.0,321.6 L166.5,321.9 L166.4,322.2 L166.1,321.8 L165.8,321.7 L165.8,321.6 L165.6,321.4 L164.4,321.1 L163.8,321.1 L163.5,320.9 L163.0,320.9 L161.8,321.4 L161.6,321.4 L161.3,321.0 L161.1,321.1 L160.4,321.6 L160.2,322.0 L160.1,322.1 L159.4,321.7 L158.6,321.7 L157.9,321.8 L157.7,321.8 L156.7,322.3 L156.5,322.6 L155.9,322.4 L155.1,322.1 L155.4,322.0 L156.1,322.4 L156.0,322.1 L156.1,322.0 L155.9,321.9 L155.9,321.8 L156.1,321.7 L155.8,321.7 L155.9,321.5 L155.1,321.6 L155.2,321.3 L155.0,321.1 L154.4,321.0 L154.3,320.9 L154.1,320.0 L153.6,319.6 L153.4,319.6 L154.0,320.5 L153.8,320.5 L153.9,320.6 L153.8,321.1 L153.1,321.4 L153.2,321.5 L153.1,321.6 L152.8,321.5 L152.8,321.7 L152.3,322.1 L151.9,322.1 L151.6,321.9 L151.5,322.1 L151.8,322.2 L151.4,322.3 L151.4,322.5 L151.1,322.5 L150.9,322.0 L150.1,321.9 L150.4,321.7 L150.4,321.5 L150.2,321.6 L150.4,321.3 L150.3,321.4 L150.5,321.4 L150.9,321.0 L150.6,320.9 L150.4,321.0 L150.1,320.9 L150.0,320.5 L150.1,320.4 L150.4,320.7 L150.5,320.6 L150.6,320.4 L150.4,320.5 L150.4,319.8 L150.0,319.7 L150.3,319.6 L150.1,319.5 L150.2,319.1 L150.1,319.0 L149.5,319.4 L149.2,319.4 L149.0,318.9 L149.2,317.9 L148.8,317.7 L148.6,317.1 L148.5,317.0 L147.7,316.9 L147.5,316.8 L147.1,315.4 L146.7,315.0 L146.3,315.3 L146.0,315.6 L145.9,315.5 L145.4,315.7 L145.3,315.4 L144.8,314.9 L145.1,314.2 L145.9,314.1 L145.3,313.7 L145.2,313.5 L145.2,313.0 L145.4,312.7 L145.5,313.1 L146.1,313.3 L146.4,313.2 L146.7,312.7 L146.8,312.7 L146.9,312.9 L146.8,313.2 L147.4,313.2 L147.5,313.1 L147.6,312.8 L147.9,313.0 L148.4,312.9 L149.2,313.1 L149.2,313.6 L150.1,314.1 L150.3,313.8 L150.1,313.5 L150.3,313.4 L150.6,313.5 L151.2,313.9 L151.4,314.0 L151.5,313.8 L151.3,313.4 L151.1,313.4 L150.9,313.0 L150.9,312.5 L151.2,312.5 L151.2,312.2 L150.1,311.2 L149.9,311.4 L150.0,311.6 L149.6,311.6 L149.3,311.8 L149.7,312.0 L148.8,311.9 L148.8,311.8 L148.3,311.5 L148.1,311.6 L147.8,311.3 L148.0,311.1 L147.6,311.2 L147.3,311.0 L146.8,311.3 L147.1,311.6 L146.5,311.6 L146.7,311.5 L146.7,311.2 L146.6,311.1 L146.5,311.2 L146.5,311.0 L146.2,311.1 L146.4,310.8 L146.3,310.5 L146.2,310.4 L146.0,310.6 L145.9,310.5 L145.5,310.8 L145.5,310.9 L145.7,310.9 L145.6,311.4 L145.2,311.8 L145.0,311.7 L145.0,311.9 L145.2,311.9 L146.2,312.5 L146.3,312.7 L145.3,312.5 L144.9,312.9 L144.4,312.1 L144.6,311.9 L144.4,311.4 L144.1,311.0 L142.8,310.3 L141.6,309.1 L141.0,308.8 L141.0,308.3 L141.1,307.9 L140.8,308.0 L140.6,307.8 L140.2,307.9 L139.8,307.7 L139.4,307.8 L138.8,307.6 L138.3,307.2 L138.3,306.7 L137.9,306.4 L137.8,306.2 L137.4,306.2 L137.5,306.0 L137.1,305.6 L137.9,305.5 L137.9,305.3 L137.1,304.9 L137.1,304.8 L137.7,304.8 L137.9,304.6 L137.2,304.4 L137.2,304.6 L136.8,304.4 L136.9,304.3 L136.7,304.2 L135.9,304.3 L136.1,304.0 L136.1,303.6 L136.3,303.7 L136.5,303.6 L136.5,303.2 L136.7,303.1 L136.6,302.8 L135.3,302.1 L133.9,301.8 L134.2,301.7 L135.3,302.0 L136.7,302.7 L136.9,302.6 L137.1,302.2 L137.6,302.3 L137.6,302.0 L138.1,301.7 L138.4,301.3 L138.0,300.8 L138.2,300.5 L138.0,300.3 L138.1,300.2 L138.4,300.2 L139.5,300.5 L139.7,300.3 L139.8,300.0 L139.8,299.7 L139.1,298.8 L138.7,298.5 L138.4,297.5 L139.5,297.4 L139.9,296.6 L140.4,296.3 L140.9,296.4 L141.4,296.2 L142.5,296.3 L143.6,295.9 L143.9,295.2 L143.7,294.6 L144.1,294.4 L144.3,294.1 L144.3,293.1 L144.9,292.8 L145.4,291.9 L145.4,291.0 L146.0,290.8 L146.2,290.4 L146.4,290.3 L147.5,290.4 L147.9,290.3 L148.2,289.6 L148.5,289.5 L149.1,289.0 L149.3,287.5 L149.1,287.0 L148.2,286.3 L148.0,285.9 L148.2,285.7 L148.3,285.4 L148.3,284.7 L150.5,284.6 L151.5,284.4 L152.7,284.5 L153.7,284.4 Z" fill="#faf5ef" stroke="#8B1A2B" stroke-width="1.3" stroke-linejoin="round"/>
    <path d="M187.4,308.9 L187.6,309.0 L188.4,309.6 L189.3,310.0 L189.3,310.2 L190.0,310.2 L190.3,310.3 L190.3,310.4 L189.5,310.9 L189.1,311.0 L188.4,310.7 L188.3,310.6 L188.4,310.4 L187.7,309.8 L187.2,309.0 L187.4,308.9 Z" fill="#faf5ef" stroke="#8B1A2B" stroke-width="1.3" stroke-linejoin="round"/>
    <path d="M184.8,309.6 L185.1,309.2 L185.5,308.9 L186.0,309.2 L186.1,309.5 L186.0,309.8 L185.7,309.6 L185.5,309.8 L185.3,310.2 L184.8,309.9 L184.4,310.0 L184.4,309.7 L184.8,309.6 Z" fill="#faf5ef" stroke="#8B1A2B" stroke-width="1.3" stroke-linejoin="round"/>
    <path d="M136.3,309.3 L135.8,308.8 L135.8,308.6 L136.0,308.5 L136.8,309.1 L136.9,309.5 L136.3,309.3 Z" fill="#faf5ef" stroke="#8B1A2B" stroke-width="1.3" stroke-linejoin="round"/>
    <path d="M191.4,309.4 L191.7,308.9 L192.4,308.0 L192.7,307.8 L192.6,308.0 L192.9,308.1 L192.8,308.4 L192.4,308.8 L192.2,309.3 L191.8,309.7 L191.3,310.0 L190.9,310.0 L191.4,309.4 Z" fill="#faf5ef" stroke="#8B1A2B" stroke-width="1.3" stroke-linejoin="round"/>
    <path d="M135.5,306.7 L134.4,306.3 L133.9,306.2 L133.3,305.8 L132.6,305.7 L132.9,305.5 L132.2,305.3 L132.1,305.4 L131.8,304.9 L131.6,303.9 L131.4,303.6 L130.2,302.9 L129.8,302.1 L129.2,302.0 L129.1,301.4 L128.8,301.5 L128.7,301.1 L128.4,301.0 L129.0,300.3 L131.0,300.2 L131.7,299.9 L132.9,300.4 L133.0,300.5 L133.2,300.4 L133.1,300.8 L133.0,301.1 L131.6,301.7 L131.6,302.0 L131.8,302.2 L131.8,302.3 L131.6,302.3 L131.6,302.4 L132.9,302.8 L132.8,303.2 L132.5,303.1 L132.6,303.5 L133.0,305.1 L134.4,305.6 L135.2,305.5 L135.7,306.6 L135.5,306.7 Z" fill="#faf5ef" stroke="#8B1A2B" stroke-width="1.3" stroke-linejoin="round"/>
    <path d="M194.6,374.1 L194.0,373.8 L194.0,373.7 L194.5,373.5 L195.2,373.6 L195.1,373.9 L195.3,374.3 L194.6,374.1 Z" fill="#faf5ef" stroke="#8B1A2B" stroke-width="1.3" stroke-linejoin="round"/>
    <path d="M227.8,368.6 L227.3,369.3 L227.4,369.5 L227.3,369.8 L226.6,370.9 L225.0,371.5 L224.6,371.5 L224.2,371.2 L223.3,371.2 L222.8,370.9 L222.4,371.1 L221.9,371.0 L221.3,371.1 L220.2,371.4 L217.1,371.3 L215.7,371.7 L214.3,371.6 L213.3,371.6 L212.7,371.7 L211.5,372.2 L210.4,372.2 L209.8,372.4 L209.3,372.3 L208.5,372.5 L207.9,372.4 L204.3,372.5 L204.5,372.1 L204.6,370.9 L204.4,370.4 L204.0,370.1 L201.7,369.9 L201.2,369.5 L200.8,369.3 L200.2,369.3 L199.3,368.9 L199.3,368.7 L197.7,368.8 L196.6,368.7 L196.4,368.5 L196.0,368.6 L194.6,368.5 L194.5,368.6 L194.1,368.7 L193.1,368.1 L191.9,368.1 L191.3,368.0 L190.8,367.8 L190.1,368.0 L189.1,368.0 L188.6,368.2 L188.4,368.0 L187.6,368.0 L187.2,368.0 L187.1,367.7 L186.7,367.6 L186.2,367.1 L186.3,367.0 L186.2,366.9 L186.7,366.7 L186.5,366.5 L186.6,366.2 L186.5,366.0 L187.0,365.1 L186.8,364.8 L187.1,364.2 L187.1,364.1 L186.9,364.0 L187.0,363.8 L186.9,363.7 L187.1,363.3 L187.1,363.0 L187.5,362.4 L187.5,363.3 L187.7,363.7 L188.0,363.8 L188.0,364.0 L188.3,364.1 L188.9,364.0 L189.2,363.9 L189.3,363.3 L189.1,362.5 L189.2,362.4 L189.0,361.9 L189.5,361.3 L190.1,361.5 L189.9,361.8 L190.1,363.0 L190.4,363.4 L190.6,363.6 L192.3,363.8 L193.7,363.8 L194.0,363.7 L194.2,363.3 L194.7,363.3 L194.5,362.8 L195.0,362.6 L195.7,362.6 L196.0,362.8 L196.4,363.5 L196.0,363.9 L195.5,364.0 L194.5,363.9 L194.3,364.0 L194.4,364.1 L196.1,364.8 L196.6,364.7 L197.1,364.4 L197.3,365.1 L197.3,366.0 L198.4,366.3 L199.7,366.0 L200.2,366.1 L200.5,366.0 L201.7,365.8 L203.7,365.2 L205.5,365.4 L205.8,365.5 L206.6,365.2 L207.6,365.5 L207.8,365.2 L208.5,365.4 L208.6,365.5 L209.0,365.5 L208.9,365.9 L209.0,366.2 L209.3,366.4 L211.1,366.3 L211.5,366.5 L212.7,366.4 L213.3,366.5 L213.6,366.4 L213.7,366.5 L213.8,366.4 L214.5,367.1 L214.9,367.1 L218.0,366.3 L218.7,366.5 L219.6,366.5 L218.9,367.1 L219.1,367.2 L219.0,367.6 L219.2,367.7 L219.1,367.4 L219.3,367.3 L219.5,367.7 L219.1,367.9 L219.1,368.0 L218.9,368.4 L218.9,368.7 L218.8,368.8 L219.0,369.5 L219.4,369.5 L220.0,369.8 L220.5,369.7 L220.8,369.3 L221.3,369.1 L221.5,368.8 L222.7,368.6 L223.9,368.1 L224.8,368.3 L224.6,368.5 L225.0,368.6 L225.7,368.4 L226.0,368.3 L225.9,368.2 L226.9,367.3 L227.4,367.2 L227.3,367.0 L227.5,367.0 L227.4,366.8 L227.8,366.8 L227.7,367.1 L227.0,367.7 L227.5,368.8 L227.8,368.6 Z" fill="#faf5ef" stroke="#8B1A2B" stroke-width="1.3" stroke-linejoin="round"/>
    <path d="M215.3,351.4 L214.8,351.7 L213.6,351.4 L214.3,351.3 L214.7,350.9 L214.5,350.3 L214.4,350.2 L214.4,350.0 L213.7,349.7 L213.7,349.6 L213.9,349.5 L214.4,349.7 L215.3,350.4 L215.5,350.8 L215.3,351.4 Z" fill="#faf5ef" stroke="#8B1A2B" stroke-width="1.3" stroke-linejoin="round"/>
    <path d="M207.0,347.7 L206.0,347.1 L205.8,346.8 L206.2,346.8 L207.4,347.4 L207.6,347.8 L207.0,347.7 Z" fill="#faf5ef" stroke="#8B1A2B" stroke-width="1.3" stroke-linejoin="round"/>
    <path d="M209.2,347.2 L209.7,346.3 L210.4,346.0 L210.9,346.0 L210.9,346.2 L210.1,346.9 L209.6,347.2 L209.2,347.2 Z" fill="#faf5ef" stroke="#8B1A2B" stroke-width="1.3" stroke-linejoin="round"/>
    <path d="M201.4,346.4 L200.5,346.8 L198.7,346.8 L198.2,347.0 L198.1,346.8 L198.3,346.5 L198.2,346.3 L198.4,346.1 L198.2,346.0 L198.6,345.5 L199.0,345.8 L199.2,345.7 L199.4,346.2 L199.7,346.3 L200.3,346.2 L200.2,345.9 L200.0,345.8 L199.8,345.9 L199.4,345.5 L199.6,345.2 L200.4,345.6 L201.3,345.3 L201.4,345.5 L201.4,346.4 Z" fill="#faf5ef" stroke="#8B1A2B" stroke-width="1.3" stroke-linejoin="round"/>
    <path d="M211.9,345.9 L212.1,345.3 L212.7,344.9 L213.3,345.6 L214.1,345.9 L214.3,346.1 L214.0,346.2 L214.0,346.6 L213.7,347.0 L213.2,346.7 L212.2,346.0 L212.3,345.9 L211.9,345.9 Z" fill="#faf5ef" stroke="#8B1A2B" stroke-width="1.3" stroke-linejoin="round"/>
    <path d="M202.4,345.1 L202.6,344.9 L202.8,344.9 L203.2,345.2 L203.2,345.3 L203.1,345.5 L202.9,345.6 L202.4,345.1 Z" fill="#faf5ef" stroke="#8B1A2B" stroke-width="1.3" stroke-linejoin="round"/>
    <path d="M201.2,344.9 L201.1,344.5 L201.3,344.3 L201.7,344.1 L202.0,344.2 L202.3,344.2 L202.4,344.3 L201.8,345.1 L201.6,345.1 L201.2,344.9 Z" fill="#faf5ef" stroke="#8B1A2B" stroke-width="1.3" stroke-linejoin="round"/>
    <path d="M215.3,343.9 L215.3,344.3 L215.0,344.4 L214.6,344.5 L214.5,344.3 L215.2,343.7 L215.3,343.7 L215.2,343.8 L215.3,343.9 Z" fill="#faf5ef" stroke="#8B1A2B" stroke-width="1.3" stroke-linejoin="round"/>
    <path d="M204.7,342.6 L203.9,343.2 L203.3,342.1 L203.4,341.8 L202.9,341.4 L203.0,341.2 L202.9,341.1 L203.1,341.1 L203.6,341.4 L203.8,341.3 L204.5,342.0 L204.7,342.6 Z" fill="#faf5ef" stroke="#8B1A2B" stroke-width="1.3" stroke-linejoin="round"/>
    <path d="M209.0,341.3 L209.5,341.2 L209.1,342.2 L209.4,342.5 L208.9,342.3 L208.6,342.0 L208.6,341.7 L209.0,341.3 Z" fill="#faf5ef" stroke="#8B1A2B" stroke-width="1.3" stroke-linejoin="round"/>
    <path d="M211.2,342.0 L210.5,342.0 L209.7,341.6 L209.9,340.9 L210.5,340.5 L210.2,340.4 L210.8,339.9 L211.7,339.6 L211.5,339.8 L212.0,340.0 L212.2,339.8 L212.1,339.6 L212.5,339.6 L212.1,340.5 L212.1,340.7 L212.3,340.8 L212.3,340.9 L212.1,340.9 L212.1,341.0 L212.3,341.0 L212.3,341.1 L212.2,341.1 L211.8,341.6 L211.2,342.0 Z" fill="#faf5ef" stroke="#8B1A2B" stroke-width="1.3" stroke-linejoin="round"/>
    <path d="M201.0,338.8 L201.2,339.1 L201.2,339.9 L201.1,339.7 L201.0,339.7 L201.0,340.0 L200.7,340.2 L200.6,340.0 L200.7,340.0 L200.5,339.9 L200.2,340.0 L200.2,339.8 L200.0,339.9 L199.8,339.8 L199.6,340.0 L199.6,339.8 L199.7,339.7 L199.6,339.5 L199.9,339.2 L199.8,339.1 L200.3,338.8 L200.5,338.8 L200.8,338.9 L201.0,338.8 Z" fill="#faf5ef" stroke="#8B1A2B" stroke-width="1.3" stroke-linejoin="round"/>
    <path d="M199.9,334.6 L199.7,335.2 L200.3,335.5 L200.5,335.7 L200.4,336.0 L200.2,336.0 L200.1,336.1 L199.9,336.6 L199.4,337.0 L198.8,337.2 L199.1,336.5 L199.3,336.3 L199.1,336.1 L199.2,335.7 L198.8,335.7 L198.9,335.3 L199.8,334.6 L199.9,334.6 Z" fill="#faf5ef" stroke="#8B1A2B" stroke-width="1.3" stroke-linejoin="round"/>
    <path d="M207.5,335.9 L206.4,336.4 L206.5,335.9 L206.1,335.9 L206.4,335.5 L206.2,335.4 L206.5,335.4 L206.7,335.2 L206.7,334.7 L206.6,334.2 L207.1,334.3 L207.4,334.6 L207.6,335.0 L207.3,335.4 L207.6,335.5 L207.7,335.8 L207.5,335.9 Z" fill="#faf5ef" stroke="#8B1A2B" stroke-width="1.3" stroke-linejoin="round"/>
    <path d="M212.8,335.3 L213.0,335.3 L213.0,334.9 L213.0,334.8 L212.7,334.8 L212.8,334.6 L213.3,334.3 L213.8,334.9 L213.9,334.5 L214.1,334.5 L214.5,334.6 L215.1,334.9 L215.0,335.2 L214.2,335.3 L214.2,335.6 L212.7,335.7 L212.8,335.3 Z" fill="#faf5ef" stroke="#8B1A2B" stroke-width="1.3" stroke-linejoin="round"/>
    <path d="M197.7,334.0 L197.4,333.9 L197.5,332.6 L197.6,332.2 L197.9,332.0 L198.1,332.0 L198.2,331.9 L198.3,331.8 L198.1,331.8 L198.1,331.7 L198.2,331.7 L198.7,331.7 L198.7,331.6 L198.9,331.6 L199.3,332.1 L199.2,332.5 L197.7,334.0 Z" fill="#faf5ef" stroke="#8B1A2B" stroke-width="1.3" stroke-linejoin="round"/>
    <path d="M207.9,331.9 L208.0,331.7 L208.2,331.7 L209.0,331.7 L209.2,331.8 L209.1,332.0 L209.5,332.2 L209.7,332.1 L210.0,332.1 L210.4,332.4 L210.6,332.2 L211.0,332.3 L211.8,332.5 L211.7,332.7 L211.9,332.8 L212.0,333.1 L211.7,333.5 L211.6,333.8 L210.7,333.8 L209.9,333.5 L209.7,333.2 L209.4,333.1 L208.9,332.7 L208.2,332.3 L207.9,331.9 Z" fill="#faf5ef" stroke="#8B1A2B" stroke-width="1.3" stroke-linejoin="round"/>
    <path d="M203.6,332.7 L204.0,332.4 L204.2,332.4 L204.3,332.5 L204.3,333.0 L204.0,333.0 L203.1,332.8 L203.6,332.7 Z" fill="#faf5ef" stroke="#8B1A2B" stroke-width="1.3" stroke-linejoin="round"/>
    <path d="M207.6,331.6 L206.9,331.1 L206.6,330.4 L206.2,330.3 L205.5,329.6 L205.2,329.7 L205.1,329.3 L204.9,329.0 L204.3,328.6 L204.0,328.8 L204.0,328.5 L203.5,328.0 L203.7,327.9 L203.6,327.5 L204.9,327.0 L205.1,327.1 L205.1,327.3 L205.7,327.5 L205.8,328.2 L206.3,328.4 L207.5,328.4 L207.6,328.5 L207.3,329.3 L208.0,329.7 L207.8,329.8 L207.8,330.0 L207.6,330.3 L208.1,330.4 L208.1,330.6 L207.6,331.3 L207.6,331.6 Z" fill="#faf5ef" stroke="#8B1A2B" stroke-width="1.3" stroke-linejoin="round"/>
    <path d="M203.5,315.3 L203.1,315.5 L202.9,315.5 L202.6,315.5 L202.2,315.2 L201.8,315.4 L201.7,315.6 L201.2,315.1 L201.9,314.9 L201.6,314.4 L201.4,314.5 L201.2,314.3 L200.8,314.4 L200.8,314.3 L200.5,314.2 L200.4,313.9 L200.3,314.0 L200.1,313.8 L199.8,313.9 L199.8,313.6 L200.2,313.4 L200.2,312.6 L200.6,312.4 L201.7,313.0 L201.9,313.1 L201.9,314.0 L203.2,314.7 L203.5,315.1 L203.5,315.3 Z" fill="#faf5ef" stroke="#8B1A2B" stroke-width="1.3" stroke-linejoin="round"/>
    <path d="M194.1,307.5 L194.2,307.5 L193.9,307.2 L194.1,306.9 L194.3,306.7 L194.4,307.0 L194.5,306.9 L194.7,307.0 L194.7,307.2 L194.5,307.6 L194.3,307.7 L194.1,307.5 Z" fill="#faf5ef" stroke="#8B1A2B" stroke-width="1.3" stroke-linejoin="round"/>
    <path d="M208.2,304.0 L208.1,303.8 L208.4,303.7 L208.9,304.0 L208.8,304.4 L208.0,305.2 L207.8,304.5 L207.8,304.1 L208.2,304.0 Z" fill="#faf5ef" stroke="#8B1A2B" stroke-width="1.3" stroke-linejoin="round"/>
    <path d="M214.7,296.9 L214.9,297.4 L214.1,297.8 L213.9,298.1 L214.0,298.5 L213.6,298.5 L213.3,298.7 L213.7,298.8 L213.3,299.0 L213.2,299.1 L213.5,299.3 L213.3,299.4 L213.7,300.0 L213.5,300.1 L213.4,300.4 L212.6,300.1 L212.5,299.8 L212.2,299.7 L212.0,299.4 L211.7,299.4 L212.3,298.9 L212.3,298.7 L211.9,298.5 L211.7,298.5 L211.1,298.9 L211.5,299.0 L211.1,299.1 L210.8,299.6 L211.0,299.5 L211.2,299.6 L211.5,300.1 L211.4,300.2 L210.3,300.0 L210.7,299.5 L210.6,299.4 L210.2,299.7 L210.1,299.7 L210.0,299.4 L208.9,299.7 L209.2,299.4 L208.9,299.3 L208.9,299.1 L209.1,299.0 L209.0,298.8 L209.2,298.7 L209.1,298.7 L209.2,298.4 L208.9,298.1 L208.9,297.5 L208.7,297.4 L208.7,297.3 L210.1,297.1 L210.5,297.3 L211.5,297.1 L212.1,297.4 L212.4,297.9 L212.4,298.0 L213.3,297.5 L213.3,297.4 L213.9,296.9 L214.3,296.9 L214.9,296.7 L214.7,296.9 Z" fill="#faf5ef" stroke="#8B1A2B" stroke-width="1.3" stroke-linejoin="round"/>
    <path d="M204.7,287.3 L204.9,288.2 L204.6,288.1 L204.4,288.2 L203.5,288.4 L202.9,288.8 L202.5,288.4 L202.3,288.4 L202.3,288.2 L202.0,288.0 L201.0,287.8 L200.9,287.4 L201.3,286.6 L201.7,286.1 L202.9,285.3 L204.2,285.6 L204.4,286.0 L205.0,286.3 L205.0,286.4 L204.7,286.4 L204.6,286.5 L204.7,286.7 L205.0,286.8 L205.0,287.1 L204.8,287.1 L204.7,287.3 Z" fill="#faf5ef" stroke="#8B1A2B" stroke-width="1.3" stroke-linejoin="round"/>
    <path d="M238.0,365.6 L237.3,365.7 L236.0,366.3 L235.6,366.0 L236.2,365.5 L236.4,365.2 L236.8,365.3 L238.1,365.0 L238.1,365.1 L237.9,365.2 L238.0,365.6 Z" fill="#faf5ef" stroke="#8B1A2B" stroke-width="1.3" stroke-linejoin="round"/>
    <path d="M240.3,364.8 L240.2,365.2 L240.4,365.1 L239.9,365.5 L240.0,365.3 L239.4,365.0 L239.3,364.7 L239.5,364.6 L239.4,364.4 L239.6,364.3 L239.5,363.8 L239.6,363.3 L239.5,363.2 L239.0,362.9 L238.9,362.6 L239.2,362.2 L239.6,362.0 L239.8,361.2 L240.2,360.9 L240.3,360.4 L240.2,359.6 L240.4,359.5 L240.6,359.6 L241.2,359.2 L241.3,359.3 L241.0,360.0 L241.1,360.7 L240.7,361.2 L240.3,361.8 L240.2,362.3 L241.2,363.3 L240.9,363.7 L241.4,364.2 L241.3,364.5 L240.9,364.4 L240.6,364.6 L240.3,364.8 Z" fill="#faf5ef" stroke="#8B1A2B" stroke-width="1.3" stroke-linejoin="round"/>
    <path d="M255.3,352.4 L255.2,353.1 L254.9,353.3 L254.7,353.9 L254.3,353.9 L253.6,354.9 L254.2,355.1 L253.9,355.5 L254.1,355.8 L253.3,355.7 L252.6,355.7 L251.7,356.3 L250.7,357.5 L250.2,357.9 L249.5,358.3 L248.8,357.9 L248.5,357.4 L248.6,357.2 L249.1,356.1 L249.1,355.4 L248.4,354.8 L248.5,354.5 L248.0,354.3 L249.3,353.7 L249.3,353.6 L249.9,352.6 L250.3,352.5 L251.2,351.6 L252.1,351.4 L254.5,350.3 L255.5,350.4 L255.9,349.9 L256.0,349.9 L256.3,350.2 L256.1,350.5 L256.2,351.1 L255.9,351.4 L255.8,351.9 L255.3,352.4 Z" fill="#faf5ef" stroke="#8B1A2B" stroke-width="1.3" stroke-linejoin="round"/>
    <path d="M247.0,353.4 L245.8,353.5 L245.6,353.4 L245.6,353.2 L246.0,353.0 L247.0,353.1 L247.0,353.4 Z" fill="#faf5ef" stroke="#8B1A2B" stroke-width="1.3" stroke-linejoin="round"/>
    <path d="M220.9,351.3 L220.8,351.5 L220.3,351.3 L219.7,351.4 L219.2,351.3 L219.0,351.0 L219.6,350.7 L220.1,350.9 L220.6,351.2 L220.9,351.3 Z" fill="#faf5ef" stroke="#8B1A2B" stroke-width="1.3" stroke-linejoin="round"/>
    <path d="M244.5,350.7 L244.2,350.9 L243.8,351.0 L243.5,351.0 L243.3,350.8 L243.2,350.6 L243.3,350.4 L243.1,350.3 L242.6,350.6 L242.3,350.2 L242.3,349.6 L242.5,349.9 L243.2,349.5 L243.4,349.7 L243.5,350.1 L243.8,350.2 L243.6,350.4 L243.8,350.6 L244.1,350.6 L244.4,350.5 L244.5,350.7 Z" fill="#faf5ef" stroke="#8B1A2B" stroke-width="1.3" stroke-linejoin="round"/>
    <path d="M229.7,348.0 L229.6,347.9 L229.2,348.1 L228.6,348.2 L228.2,348.6 L228.2,349.0 L227.7,349.1 L227.5,349.0 L227.2,348.7 L227.0,348.5 L227.1,348.3 L226.9,347.9 L227.0,347.8 L227.2,347.9 L227.4,347.8 L228.1,348.2 L228.5,347.9 L229.0,347.9 L228.7,347.7 L228.8,347.5 L228.4,347.3 L228.4,347.2 L228.9,347.2 L229.4,347.5 L229.9,347.8 L229.9,348.0 L229.7,348.0 Z" fill="#faf5ef" stroke="#8B1A2B" stroke-width="1.3" stroke-linejoin="round"/>
    <path d="M250.7,348.4 L250.9,348.6 L250.2,348.8 L250.5,348.5 L249.6,348.2 L249.9,348.1 L249.2,348.1 L249.6,347.7 L249.6,347.5 L249.8,347.4 L249.8,347.5 L250.4,347.1 L250.7,347.1 L250.7,347.2 L250.1,347.4 L250.0,347.6 L250.2,347.6 L250.3,347.7 L250.8,347.4 L250.9,347.5 L250.7,347.7 L250.8,347.7 L250.9,348.3 L250.7,348.4 Z" fill="#faf5ef" stroke="#8B1A2B" stroke-width="1.3" stroke-linejoin="round"/>
    <path d="M239.8,348.2 L239.8,348.1 L239.9,347.8 L240.4,347.5 L240.6,347.5 L240.9,347.9 L240.8,348.2 L240.5,348.3 L239.8,348.2 Z" fill="#faf5ef" stroke="#8B1A2B" stroke-width="1.3" stroke-linejoin="round"/>
    <path d="M239.8,345.4 L239.1,345.4 L238.6,345.2 L237.8,345.5 L237.5,345.7 L237.7,346.0 L237.5,346.0 L237.4,346.2 L237.5,346.6 L236.9,346.4 L236.7,346.0 L236.8,345.3 L237.0,345.4 L237.3,345.1 L237.7,345.3 L238.2,344.7 L238.8,344.2 L240.3,343.4 L242.1,343.2 L242.2,343.4 L242.9,343.6 L243.2,343.8 L242.7,344.1 L241.1,344.4 L239.8,345.4 Z" fill="#faf5ef" stroke="#8B1A2B" stroke-width="1.3" stroke-linejoin="round"/>
    <path d="M224.1,343.4 L223.8,343.3 L223.1,343.4 L221.9,344.2 L221.2,344.9 L220.0,345.2 L219.4,345.2 L219.2,344.9 L219.4,345.0 L219.7,344.7 L220.2,344.8 L220.7,344.7 L221.0,344.3 L220.8,344.3 L220.7,344.1 L222.6,343.3 L222.3,343.0 L223.0,342.7 L223.6,343.1 L224.1,343.3 L224.1,343.4 Z" fill="#faf5ef" stroke="#8B1A2B" stroke-width="1.3" stroke-linejoin="round"/>
    <path d="M218.3,343.4 L218.2,343.6 L217.2,343.5 L217.8,343.1 L218.3,343.4 Z" fill="#faf5ef" stroke="#8B1A2B" stroke-width="1.3" stroke-linejoin="round"/>
    <path d="M236.8,342.1 L237.2,341.3 L237.0,341.2 L236.8,341.3 L236.6,341.2 L236.2,340.7 L236.2,340.5 L236.4,340.7 L237.7,341.1 L237.7,341.2 L237.5,341.2 L238.0,341.6 L238.0,341.8 L238.2,341.6 L238.5,341.7 L238.5,342.3 L238.4,342.5 L238.6,342.4 L238.5,342.6 L237.8,342.5 L237.6,342.9 L237.2,342.8 L237.1,342.9 L236.8,342.7 L236.6,342.6 L236.9,342.3 L236.8,342.1 Z" fill="#faf5ef" stroke="#8B1A2B" stroke-width="1.3" stroke-linejoin="round"/>
    <path d="M217.0,340.6 L216.8,341.6 L216.4,342.3 L216.0,342.4 L215.5,342.8 L214.9,343.0 L214.6,342.7 L214.5,342.3 L214.0,342.0 L214.0,341.8 L213.8,341.5 L213.9,341.3 L213.6,340.9 L213.3,340.7 L213.3,340.5 L213.6,340.6 L214.3,340.0 L215.2,339.4 L215.5,339.0 L216.1,338.8 L216.7,339.2 L216.9,339.4 L217.0,340.6 Z" fill="#faf5ef" stroke="#8B1A2B" stroke-width="1.3" stroke-linejoin="round"/>
    <path d="M219.8,340.0 L220.6,339.8 L220.5,340.0 L220.7,340.2 L220.5,340.4 L220.2,340.3 L220.1,340.4 L219.8,340.0 Z" fill="#faf5ef" stroke="#8B1A2B" stroke-width="1.3" stroke-linejoin="round"/>
    <path d="M235.9,340.4 L235.5,340.3 L235.7,340.0 L235.2,340.0 L235.1,339.9 L235.2,339.6 L234.6,339.3 L234.5,339.1 L235.0,338.8 L235.6,339.0 L235.6,339.4 L235.9,339.5 L236.2,340.1 L236.2,340.2 L235.9,340.4 Z" fill="#faf5ef" stroke="#8B1A2B" stroke-width="1.3" stroke-linejoin="round"/>
    <path d="M232.0,336.8 L231.5,336.7 L231.2,337.0 L231.4,337.2 L231.5,337.7 L231.3,337.8 L230.9,337.4 L231.0,336.8 L231.0,336.3 L231.7,336.3 L231.9,336.5 L232.0,336.8 Z" fill="#faf5ef" stroke="#8B1A2B" stroke-width="1.3" stroke-linejoin="round"/>
    <path d="M224.6,333.7 L223.9,334.1 L223.5,334.1 L222.9,334.2 L222.7,334.2 L222.6,333.9 L223.7,332.7 L224.1,332.3 L226.0,332.4 L226.8,332.1 L227.2,331.8 L228.4,331.6 L227.8,332.4 L226.5,333.3 L224.6,333.7 Z" fill="#faf5ef" stroke="#8B1A2B" stroke-width="1.3" stroke-linejoin="round"/>
    <path d="M236.5,331.8 L235.9,332.2 L234.9,332.2 L234.7,332.2 L234.3,331.6 L233.5,331.2 L232.8,331.4 L232.4,331.6 L232.3,331.7 L232.1,331.6 L231.9,331.8 L231.7,331.4 L231.6,330.8 L231.9,330.5 L232.6,330.3 L232.8,330.0 L234.5,329.7 L235.5,329.8 L236.1,330.2 L236.6,330.3 L237.4,330.7 L237.4,330.6 L237.1,330.1 L237.5,330.2 L237.8,330.0 L237.8,330.2 L238.9,330.3 L238.4,330.5 L238.4,330.6 L238.6,331.0 L238.8,330.9 L238.8,331.0 L238.8,331.3 L238.4,331.2 L237.9,331.3 L236.5,331.8 Z" fill="#faf5ef" stroke="#8B1A2B" stroke-width="1.3" stroke-linejoin="round"/>
    <path d="M225.1,319.9 L225.1,320.0 L225.3,320.0 L225.1,320.3 L225.1,320.7 L225.3,321.9 L225.5,322.5 L225.1,322.5 L224.7,322.7 L224.5,323.1 L224.7,323.7 L223.6,324.0 L223.4,324.5 L223.2,324.6 L222.5,324.4 L221.9,324.0 L221.7,323.6 L221.4,323.7 L221.4,323.3 L221.1,323.4 L221.0,323.3 L221.2,322.9 L221.8,322.7 L222.1,322.5 L222.5,322.5 L222.7,322.0 L222.9,321.9 L222.8,321.1 L222.7,321.3 L222.3,320.9 L222.4,320.6 L222.2,320.2 L221.2,319.8 L220.6,319.1 L220.5,318.9 L220.8,318.4 L223.0,318.0 L224.0,318.2 L224.6,318.9 L224.8,318.7 L224.7,318.6 L225.2,318.6 L225.5,318.9 L225.3,319.1 L225.2,319.7 L224.8,319.7 L225.1,319.9 Z" fill="#faf5ef" stroke="#8B1A2B" stroke-width="1.3" stroke-linejoin="round"/>
    <path d="M217.4,318.3 L217.2,319.0 L216.7,318.9 L216.5,319.0 L216.5,318.6 L216.0,318.1 L216.0,318.0 L216.3,318.1 L216.5,317.9 L216.8,318.0 L216.8,317.9 L216.9,317.9 L217.4,318.3 Z" fill="#faf5ef" stroke="#8B1A2B" stroke-width="1.3" stroke-linejoin="round"/>
    <path d="M231.2,311.9 L230.7,311.6 L230.8,311.5 L230.7,311.3 L230.8,310.9 L230.5,310.5 L230.3,310.4 L229.5,310.6 L231.2,312.0 L231.2,312.3 L230.3,312.5 L229.3,312.6 L228.1,312.4 L227.1,312.0 L225.3,311.8 L224.7,311.1 L224.3,311.0 L224.3,310.9 L225.4,310.7 L225.9,310.2 L226.4,310.2 L227.4,309.5 L227.2,309.2 L226.4,309.0 L225.8,309.1 L225.4,309.4 L225.2,309.8 L224.5,310.6 L224.0,310.8 L222.4,310.4 L221.4,310.0 L220.6,309.5 L220.6,309.3 L220.7,309.3 L220.9,308.8 L220.7,308.7 L220.9,308.6 L220.9,308.3 L221.3,308.1 L221.8,307.7 L222.1,308.0 L223.1,307.9 L223.5,307.9 L223.7,307.6 L223.9,307.8 L224.4,307.5 L225.4,307.3 L225.6,307.1 L225.5,306.5 L228.4,306.5 L228.3,306.8 L229.2,307.2 L228.7,307.9 L228.7,308.0 L229.3,308.5 L230.0,308.7 L230.5,309.4 L231.0,309.7 L230.8,309.8 L230.9,309.9 L231.2,310.1 L231.2,310.4 L231.5,310.4 L231.4,310.7 L231.6,311.0 L232.1,311.4 L232.1,311.8 L231.9,311.9 L231.5,311.8 L231.2,311.9 Z" fill="#faf5ef" stroke="#8B1A2B" stroke-width="1.3" stroke-linejoin="round"/>
    <path d="M214.9,290.3 L214.8,290.1 L215.0,290.1 L216.3,289.6 L216.7,289.6 L218.2,290.0 L218.5,290.4 L218.4,290.6 L218.5,290.8 L218.3,291.0 L216.9,291.4 L216.6,291.3 L214.9,290.3 Z" fill="#faf5ef" stroke="#8B1A2B" stroke-width="1.3" stroke-linejoin="round"/>
    <path d="M450.1,256.1 L449.1,255.7 L448.8,255.6 L448.1,255.8 L448.0,255.8 L447.3,255.0 L447.0,254.1 L446.1,252.9 L445.1,253.1 L444.8,253.0 L444.3,252.5 L444.1,252.4 L443.6,251.8 L442.5,251.5 L441.0,251.3 L439.7,251.5 L438.6,250.8 L438.0,250.7 L436.8,250.3 L436.3,250.3 L435.9,250.6 L435.4,249.9 L434.9,249.5 L435.0,249.0 L434.7,248.6 L434.2,248.0 L432.9,247.7 L432.2,247.2 L430.7,247.0 L431.8,244.8 L432.3,244.4 L433.3,244.2 L434.4,244.2 L438.0,245.2 L438.6,245.2 L440.0,244.8 L440.6,244.7 L441.9,245.4 L443.9,246.0 L445.9,247.2 L446.4,247.2 L447.9,247.1 L448.4,247.2 L449.9,247.8 L451.0,247.6 L451.4,247.8 L451.9,248.4 L453.3,248.9 L454.3,249.5 L456.0,249.5 L457.9,249.7 L459.4,249.7 L460.8,250.0 L461.2,250.0 L461.7,250.0 L463.4,249.4 L465.9,249.2 L466.9,249.3 L468.5,250.3 L469.7,250.7 L470.6,250.3 L471.8,250.1 L472.9,250.2 L474.2,250.9 L475.5,251.3 L475.3,251.9 L475.4,252.1 L476.2,252.5 L477.8,253.6 L478.3,253.8 L483.1,254.8 L484.2,255.2 L485.3,256.0 L486.7,256.2 L487.3,256.5 L487.5,256.9 L487.2,257.3 L486.2,257.9 L486.2,258.3 L486.6,258.7 L488.6,259.0 L489.4,259.4 L489.9,259.2 L490.5,258.7 L491.1,258.4 L492.5,258.4 L493.2,258.2 L493.7,257.9 L494.3,257.1 L495.7,257.1 L497.8,256.4 L499.2,256.5 L500.4,256.8 L501.2,257.5 L501.6,258.4 L501.8,258.5 L502.7,256.7 L503.1,256.3 L503.7,256.4 L505.6,257.3 L506.1,257.4 L507.0,257.1 L507.5,257.3 L509.3,258.9 L509.9,259.7 L510.4,259.9 L512.3,259.5 L514.4,259.7 L515.5,260.0 L516.1,260.6 L516.1,260.9 L514.4,264.2 L514.5,264.6 L517.2,265.9 L518.2,266.1 L518.4,266.2 L518.9,267.0 L519.2,267.2 L519.9,267.1 L520.4,267.3 L520.9,267.3 L521.0,267.3 L521.1,267.7 L521.5,267.8 L523.3,267.7 L524.4,268.5 L526.0,268.8 L526.4,269.2 L525.5,270.5 L524.9,271.0 L524.4,271.3 L523.1,271.2 L522.8,271.4 L522.7,271.9 L522.7,272.7 L522.9,273.4 L523.3,273.6 L523.6,273.3 L523.8,273.3 L524.1,273.8 L524.4,274.8 L524.7,275.1 L525.4,275.5 L525.9,275.6 L526.6,276.1 L528.8,276.9 L529.0,277.3 L529.2,277.2 L529.8,277.7 L530.3,278.4 L530.0,278.5 L529.9,279.0 L529.6,279.3 L529.2,280.7 L528.9,281.0 L528.1,281.0 L527.8,281.1 L527.4,281.8 L527.1,281.8 L526.1,281.1 L524.9,280.7 L523.4,279.5 L522.0,279.5 L520.6,280.0 L519.5,279.9 L517.3,279.3 L515.7,278.4 L515.3,278.0 L515.7,277.7 L516.2,277.5 L516.2,277.4 L514.9,277.2 L512.8,276.6 L512.1,276.0 L511.0,276.1 L509.8,275.7 L509.3,275.7 L508.9,275.8 L504.5,278.5 L502.5,278.4 L502.2,278.6 L502.3,278.8 L502.9,279.0 L503.0,279.2 L502.9,279.3 L500.3,279.3 L499.4,279.1 L499.1,279.2 L498.5,279.8 L498.2,279.7 L498.0,279.4 L497.1,279.7 L496.4,279.6 L495.4,279.3 L494.9,279.5 L494.5,279.6 L493.5,279.1 L493.0,279.0 L492.8,279.1 L492.7,279.5 L492.2,279.8 L491.2,279.7 L489.6,280.0 L488.3,280.1 L487.6,280.3 L486.7,280.8 L483.9,280.6 L483.2,280.6 L482.1,280.9 L482.0,280.8 L482.2,280.5 L482.0,280.1 L481.1,279.6 L480.2,279.6 L478.9,279.9 L478.7,279.7 L478.3,279.1 L478.0,278.8 L477.0,278.7 L477.8,278.4 L478.2,278.0 L477.3,277.8 L475.5,276.7 L474.8,275.9 L474.4,275.6 L473.8,275.4 L473.5,275.0 L472.9,275.4 L472.0,274.9 L472.6,274.4 L472.8,273.9 L472.5,273.8 L470.4,273.7 L469.3,273.8 L469.0,274.0 L468.8,274.3 L468.6,275.1 L467.8,275.9 L467.5,276.0 L467.1,276.0 L464.5,275.3 L463.4,275.3 L463.0,275.0 L462.3,275.1 L461.6,275.0 L460.9,275.2 L459.8,274.9 L459.0,275.2 L458.6,275.7 L457.8,276.2 L457.1,275.7 L456.3,275.5 L456.2,275.2 L455.3,275.3 L453.5,274.8 L454.9,273.0 L455.8,272.6 L456.7,271.3 L456.8,270.9 L457.2,270.4 L457.2,269.0 L457.0,267.7 L455.9,266.1 L455.6,265.9 L455.4,264.4 L454.6,262.4 L454.0,261.8 L453.2,258.1 L452.9,257.5 L452.5,257.0 L452.1,256.6 L451.5,256.3 L450.1,256.1 Z" fill="#faf5ef" stroke="#8B1A2B" stroke-width="1.3" stroke-linejoin="round"/></g>
  <g>    <path class="region-area" d="M101.8,211.2 L99.1,210.5 L99.9,210.3 L99.9,209.8 L98.9,208.9 L98.8,208.5 L99.0,208.2 L98.6,207.3 L99.4,206.9 L99.7,206.5 L99.7,205.6 L100.1,205.2 L101.5,205.0 L103.3,203.5 L105.0,203.4 L105.7,202.7 L105.3,201.3 L104.9,201.1 L104.8,200.5 L105.5,199.2 L105.7,198.1 L106.5,196.7 L108.3,196.3 L109.1,196.3 L110.2,196.8 L111.4,197.1 L112.6,196.5 L113.6,197.7 L114.0,197.8 L115.2,197.3 L116.7,196.0 L118.0,195.6 L118.0,195.9 L118.9,196.7 L119.1,197.7 L118.4,198.4 L117.0,199.1 L117.9,200.8 L117.9,201.2 L117.5,202.6 L117.8,203.3 L117.8,204.5 L116.5,205.0 L116.5,205.1 L116.8,205.1 L116.9,205.3 L116.6,205.8 L116.0,205.9 L116.6,206.4 L115.9,206.7 L116.4,206.7 L116.9,208.0 L116.5,209.1 L116.1,209.4 L116.5,209.6 L116.2,209.5 L115.8,209.9 L114.0,209.6 L112.8,210.9 L112.1,211.3 L111.4,211.3 L110.2,212.0 L109.7,211.8 L109.0,211.9 L107.4,211.4 L106.2,211.4 L105.4,211.6 L103.9,211.3 L102.6,211.3 L102.1,211.6 L101.8,211.2 Z" fill="rgba(139,26,43,0.15)" stroke="rgba(139,26,43,0.4)" stroke-width="0.5"/>
    <path class="region-area" d="M145.7,183.3 L144.5,184.0 L144.6,184.2 L144.3,184.4 L144.2,184.8 L141.5,186.0 L141.1,186.5 L139.8,187.0 L138.4,186.3 L138.1,185.3 L137.5,185.1 L136.8,184.3 L135.4,184.6 L135.8,184.9 L135.1,185.0 L134.3,184.7 L133.9,183.5 L132.3,183.5 L131.2,184.4 L130.7,184.2 L129.1,184.5 L128.0,183.1 L128.3,182.7 L127.7,182.4 L129.1,181.3 L129.7,181.1 L130.4,180.3 L130.8,180.1 L131.3,180.3 L132.1,179.6 L132.5,179.7 L133.3,179.3 L133.5,178.6 L134.4,178.3 L134.2,177.8 L133.6,177.3 L133.7,177.1 L135.4,176.4 L134.5,175.9 L135.5,175.5 L135.9,174.8 L136.5,174.9 L137.3,174.5 L138.0,174.7 L138.8,174.3 L139.4,173.5 L140.2,172.1 L141.1,171.4 L141.1,170.7 L141.5,170.6 L145.8,170.0 L148.0,170.8 L149.3,170.8 L150.4,171.2 L152.1,170.8 L152.7,171.0 L153.6,170.4 L155.1,170.2 L156.2,170.5 L156.5,171.1 L157.6,171.2 L157.9,171.9 L158.8,173.0 L160.1,173.5 L162.6,172.9 L164.8,172.9 L165.6,172.5 L166.0,172.5 L164.8,173.9 L164.4,174.0 L163.8,173.9 L162.6,174.9 L161.4,175.0 L160.6,175.5 L159.0,176.0 L157.6,175.8 L155.6,176.0 L155.1,176.6 L155.4,177.3 L155.2,177.7 L154.8,178.0 L153.2,178.1 L152.3,177.8 L152.1,178.1 L150.8,178.4 L150.4,179.4 L149.6,180.1 L149.6,180.9 L149.2,181.2 L149.3,181.8 L148.5,181.9 L147.9,182.7 L147.2,183.2 L145.7,183.3 Z" fill="rgba(139,26,43,0.15)" stroke="rgba(139,26,43,0.4)" stroke-width="0.5"/>
    <path class="region-area" d="M207.0,347.7 L206.0,347.1 L205.8,346.8 L206.2,346.8 L207.4,347.4 L207.6,347.8 L207.0,347.7 Z" fill="rgba(139,26,43,0.15)" stroke="rgba(139,26,43,0.4)" stroke-width="0.5"/>
    <path class="region-area" d="M210.9,346.0 L209.6,347.2 L209.2,347.2 L209.7,346.3 L210.4,346.0 L210.9,346.0 Z" fill="rgba(139,26,43,0.15)" stroke="rgba(139,26,43,0.4)" stroke-width="0.5"/>
    <path class="region-area" d="M201.4,346.4 L200.5,346.8 L198.7,346.8 L198.2,347.0 L198.1,346.8 L198.2,346.3 L198.4,346.1 L198.2,346.0 L198.6,345.5 L199.2,345.7 L199.4,346.2 L200.3,346.2 L200.2,345.9 L199.8,345.9 L199.4,345.5 L199.6,345.2 L200.4,345.6 L201.3,345.3 L201.4,345.5 L201.4,346.4 Z" fill="rgba(139,26,43,0.15)" stroke="rgba(139,26,43,0.4)" stroke-width="0.5"/>
    <path class="region-area" d="M211.9,345.9 L212.1,345.3 L212.7,344.9 L213.3,345.6 L214.1,345.9 L214.3,346.1 L214.0,346.2 L214.0,346.6 L213.7,347.0 L213.2,346.7 L212.2,346.0 L212.3,345.9 L211.9,345.9 Z" fill="rgba(139,26,43,0.15)" stroke="rgba(139,26,43,0.4)" stroke-width="0.5"/>
    <path class="region-area" d="M160.3,346.3 L160.1,346.0 L159.9,346.1 L160.1,345.5 L160.4,345.7 L160.3,346.3 Z" fill="rgba(139,26,43,0.15)" stroke="rgba(139,26,43,0.4)" stroke-width="0.5"/>
    <path class="region-area" d="M159.2,344.9 L159.6,345.0 L159.1,345.7 L159.2,344.9 Z" fill="rgba(139,26,43,0.15)" stroke="rgba(139,26,43,0.4)" stroke-width="0.5"/>
    <path class="region-area" d="M202.9,345.6 L202.4,345.1 L202.6,344.9 L203.2,345.2 L203.1,345.5 L202.9,345.6 Z" fill="rgba(139,26,43,0.15)" stroke="rgba(139,26,43,0.4)" stroke-width="0.5"/>
    <path class="region-area" d="M201.3,345.0 L201.1,344.5 L201.3,344.3 L201.7,344.1 L202.4,344.3 L201.8,345.1 L201.3,345.0 Z" fill="rgba(139,26,43,0.15)" stroke="rgba(139,26,43,0.4)" stroke-width="0.5"/>
    <path class="region-area" d="M204.7,342.6 L203.9,343.2 L203.3,342.1 L203.4,341.8 L202.9,341.4 L202.9,341.1 L203.6,341.4 L203.8,341.3 L204.5,342.0 L204.7,342.6 Z" fill="rgba(139,26,43,0.15)" stroke="rgba(139,26,43,0.4)" stroke-width="0.5"/>
    <path class="region-area" d="M209.0,341.3 L209.5,341.2 L209.1,342.2 L209.4,342.5 L208.6,342.0 L208.6,341.7 L209.0,341.3 Z" fill="rgba(139,26,43,0.15)" stroke="rgba(139,26,43,0.4)" stroke-width="0.5"/>
    <path class="region-area" d="M212.3,341.1 L211.2,342.0 L210.5,342.0 L209.7,341.6 L209.7,341.5 L209.9,340.9 L210.5,340.5 L210.2,340.4 L210.4,340.2 L211.7,339.6 L211.5,339.8 L212.0,340.0 L212.2,339.8 L212.1,339.6 L212.5,339.6 L212.1,340.5 L212.1,340.7 L212.3,340.8 L212.1,341.0 L212.3,341.1 Z" fill="rgba(139,26,43,0.15)" stroke="rgba(139,26,43,0.4)" stroke-width="0.5"/>
    <path class="region-area" d="M200.5,338.8 L201.1,338.8 L201.2,339.1 L201.2,339.9 L201.0,339.7 L201.0,340.0 L200.7,340.2 L200.7,340.0 L200.2,340.0 L200.2,339.8 L199.6,340.0 L199.6,339.5 L199.9,339.2 L199.8,339.1 L200.5,338.8 Z" fill="rgba(139,26,43,0.15)" stroke="rgba(139,26,43,0.4)" stroke-width="0.5"/>
    <path class="region-area" d="M179.9,328.3 L178.7,328.1 L178.4,328.7 L178.7,329.2 L179.6,329.3 L180.2,329.2 L181.2,329.8 L181.2,330.3 L180.4,330.5 L180.3,330.8 L181.1,331.1 L180.9,331.7 L181.1,332.2 L180.9,332.2 L181.0,332.7 L181.3,332.8 L180.9,333.5 L180.9,334.1 L183.0,335.1 L184.9,335.1 L185.0,335.3 L185.0,335.7 L183.0,335.7 L183.1,335.9 L182.4,335.9 L182.4,336.0 L181.9,336.1 L182.0,336.3 L182.3,336.3 L182.2,336.5 L182.6,336.6 L181.2,336.8 L181.5,337.3 L181.0,337.4 L180.6,337.2 L180.9,337.0 L180.3,337.0 L180.2,336.8 L180.5,336.9 L180.3,336.7 L179.6,336.5 L179.6,335.9 L179.9,336.0 L180.2,335.5 L180.6,335.7 L180.4,335.2 L179.9,335.0 L179.2,335.0 L179.4,334.9 L179.2,334.6 L178.6,335.0 L178.2,334.3 L177.3,333.8 L177.0,333.8 L177.3,334.0 L176.8,333.9 L176.3,334.2 L175.8,333.9 L175.9,333.7 L175.5,333.5 L175.2,333.0 L174.4,333.4 L174.5,334.5 L175.0,335.4 L174.9,335.9 L175.8,336.7 L175.8,337.1 L177.1,338.9 L176.9,339.8 L177.0,340.0 L177.8,340.0 L177.8,340.4 L178.2,340.6 L177.9,340.6 L178.5,341.3 L178.7,342.0 L178.3,342.0 L178.6,342.3 L178.7,342.2 L178.7,342.7 L179.2,343.8 L179.9,344.5 L179.7,345.0 L180.2,345.1 L179.8,345.8 L179.3,345.6 L178.9,345.9 L179.0,346.4 L179.4,346.4 L179.0,346.6 L179.0,347.0 L179.7,348.1 L180.8,348.6 L180.6,348.7 L180.7,349.0 L180.5,349.1 L181.5,349.9 L181.4,350.2 L180.9,350.0 L180.6,350.2 L179.9,350.1 L179.5,349.6 L179.6,349.3 L179.2,348.9 L178.1,348.9 L177.4,347.8 L176.6,347.3 L176.8,347.1 L176.8,347.0 L176.1,346.5 L175.7,346.7 L175.8,346.0 L175.3,344.9 L173.8,344.6 L172.9,344.7 L172.2,345.0 L172.2,345.7 L171.7,346.0 L171.4,346.5 L171.8,346.6 L171.8,347.0 L171.6,346.7 L171.3,346.8 L171.2,347.0 L171.5,347.3 L171.4,347.6 L171.2,347.7 L171.1,347.4 L170.8,347.7 L170.9,348.9 L171.2,349.7 L171.0,350.2 L171.1,350.7 L170.9,350.9 L170.6,350.0 L169.7,349.4 L169.3,349.5 L168.9,349.1 L169.1,348.5 L169.3,348.6 L169.4,348.4 L169.2,348.0 L169.4,347.7 L169.1,347.7 L169.2,347.1 L169.4,347.1 L169.1,346.9 L169.4,346.2 L169.0,346.2 L168.2,345.2 L168.0,344.5 L166.9,343.3 L166.6,343.2 L166.2,343.4 L165.7,343.0 L165.9,341.5 L164.4,341.3 L162.8,341.9 L162.5,343.8 L162.7,344.3 L162.6,344.5 L163.2,344.9 L162.8,344.9 L162.7,345.3 L161.9,345.9 L161.0,344.7 L160.1,344.9 L159.5,344.5 L159.3,344.5 L159.0,344.1 L159.0,343.4 L159.3,342.7 L159.0,342.3 L158.7,342.4 L158.9,342.2 L158.6,342.4 L158.5,341.9 L157.4,340.7 L157.2,339.5 L157.3,339.0 L157.6,338.5 L158.9,337.6 L159.1,337.1 L158.9,336.2 L161.2,336.3 L162.0,335.6 L162.0,335.2 L162.3,334.8 L162.6,334.7 L162.9,334.9 L163.3,334.6 L161.5,333.3 L160.5,333.2 L160.5,331.6 L160.2,330.8 L160.3,330.3 L161.1,329.1 L161.7,329.0 L161.8,329.5 L163.8,330.3 L164.7,329.8 L165.2,329.8 L165.5,330.1 L167.0,329.4 L167.1,329.2 L166.8,328.8 L167.0,327.7 L167.1,327.5 L168.2,327.1 L168.6,326.8 L169.2,325.6 L168.8,325.1 L168.9,324.6 L169.8,324.9 L171.2,325.0 L173.7,326.0 L175.2,327.0 L175.5,327.3 L176.5,327.9 L177.7,327.8 L178.1,327.3 L177.8,326.9 L176.7,326.5 L176.8,326.5 L176.3,326.4 L176.6,326.2 L177.6,325.7 L179.6,326.1 L180.9,327.9 L179.9,328.3 Z" fill="rgba(139,26,43,0.15)" stroke="rgba(139,26,43,0.4)" stroke-width="0.5"/>
    <path class="region-area" d="M199.9,334.8 L199.7,335.2 L200.5,335.7 L200.4,336.0 L200.2,336.0 L199.9,336.6 L199.4,337.0 L198.8,337.2 L199.1,336.5 L199.3,336.3 L199.1,336.1 L199.2,335.7 L198.8,335.7 L198.9,335.3 L199.8,334.6 L199.9,334.8 Z" fill="rgba(139,26,43,0.15)" stroke="rgba(139,26,43,0.4)" stroke-width="0.5"/>
    <path class="region-area" d="M207.6,335.9 L206.4,336.4 L206.5,335.9 L206.1,335.9 L206.4,335.5 L206.2,335.4 L206.7,335.2 L206.6,334.2 L207.1,334.3 L207.4,334.6 L207.6,335.0 L207.3,335.4 L207.6,335.6 L207.6,335.9 Z" fill="rgba(139,26,43,0.15)" stroke="rgba(139,26,43,0.4)" stroke-width="0.5"/>
    <path class="region-area" d="M199.2,332.5 L197.7,334.0 L197.4,333.9 L197.5,332.6 L197.9,332.0 L198.1,332.0 L198.3,331.8 L198.1,331.7 L198.9,331.6 L199.3,332.1 L199.2,332.5 Z" fill="rgba(139,26,43,0.15)" stroke="rgba(139,26,43,0.4)" stroke-width="0.5"/>
    <path class="region-area" d="M208.0,332.2 L208.0,331.7 L209.0,331.7 L209.2,331.8 L209.1,332.0 L209.5,332.2 L210.0,332.1 L210.4,332.4 L210.6,332.2 L211.8,332.5 L211.7,332.7 L212.0,333.1 L211.6,333.8 L210.7,333.8 L209.9,333.5 L208.9,332.7 L208.0,332.2 Z" fill="rgba(139,26,43,0.15)" stroke="rgba(139,26,43,0.4)" stroke-width="0.5"/>
    <path class="region-area" d="M203.1,332.8 L204.0,332.4 L204.3,332.5 L204.3,333.0 L203.1,332.8 Z" fill="rgba(139,26,43,0.15)" stroke="rgba(139,26,43,0.4)" stroke-width="0.5"/>
    <path class="region-area" d="M207.6,331.6 L206.9,331.1 L206.6,330.4 L206.2,330.3 L205.5,329.6 L205.2,329.7 L205.1,329.3 L204.3,328.6 L204.0,328.8 L204.0,328.5 L203.5,328.0 L203.7,327.9 L203.6,327.5 L204.9,327.0 L205.1,327.1 L205.1,327.3 L205.7,327.5 L205.8,328.2 L207.6,328.5 L207.3,329.3 L208.0,329.7 L207.6,330.3 L208.1,330.4 L208.1,330.6 L207.6,331.3 L207.6,331.6 Z" fill="rgba(139,26,43,0.15)" stroke="rgba(139,26,43,0.4)" stroke-width="0.5"/>
    <path class="region-area" d="M181.4,277.5 L181.6,277.0 L182.5,276.5 L182.8,276.5 L183.3,276.9 L184.6,276.5 L186.1,276.5 L187.1,276.9 L187.8,276.8 L187.7,277.2 L187.9,277.8 L189.2,278.3 L188.9,279.0 L189.0,279.3 L190.6,280.5 L191.4,281.0 L192.2,281.1 L192.6,281.5 L192.9,281.3 L193.4,281.3 L194.0,281.9 L195.1,282.5 L195.0,282.7 L195.1,283.1 L194.9,283.7 L193.6,284.7 L192.5,285.3 L189.7,285.9 L189.0,286.3 L188.8,286.9 L189.1,287.5 L189.7,287.7 L190.3,288.5 L191.1,289.0 L191.7,288.9 L192.1,289.3 L192.0,289.5 L190.9,289.6 L190.7,289.7 L190.8,290.4 L191.4,291.1 L192.1,291.5 L193.4,291.6 L193.4,292.5 L192.4,291.9 L191.1,291.7 L189.8,292.1 L189.3,291.9 L188.8,292.7 L189.0,293.4 L189.7,293.8 L190.0,294.3 L191.8,294.7 L193.2,295.5 L193.0,295.9 L193.4,296.3 L193.1,296.5 L193.1,296.6 L193.5,296.6 L193.6,297.0 L193.2,297.4 L193.3,297.6 L192.9,297.7 L193.2,298.0 L192.1,297.9 L192.2,297.6 L191.9,297.7 L191.9,297.4 L191.0,296.9 L190.7,296.9 L190.8,297.1 L190.1,296.3 L190.3,295.9 L188.5,294.0 L188.0,293.8 L186.5,293.6 L185.0,293.1 L183.9,293.4 L183.5,293.9 L183.5,294.2 L183.9,295.0 L184.4,295.1 L185.9,296.6 L187.4,297.3 L188.4,297.5 L188.8,298.2 L189.6,298.3 L188.9,298.6 L187.6,298.4 L185.5,297.7 L183.8,297.9 L184.2,297.2 L183.7,296.4 L183.0,295.7 L183.3,294.7 L183.2,294.1 L182.9,293.8 L180.7,293.2 L178.9,292.4 L178.6,292.1 L177.9,291.6 L176.8,291.5 L177.0,291.3 L176.8,291.1 L175.8,289.8 L177.6,289.6 L178.2,289.1 L178.1,288.8 L177.6,288.6 L177.7,288.3 L177.2,287.7 L176.3,287.8 L176.4,288.1 L176.3,288.5 L175.8,288.8 L175.2,288.7 L174.9,288.8 L174.7,289.2 L174.8,289.5 L174.6,289.4 L174.6,289.6 L174.4,289.5 L174.2,289.7 L173.6,289.4 L173.4,289.8 L173.7,289.9 L173.4,290.0 L173.3,290.3 L172.6,290.1 L172.2,290.3 L172.6,290.7 L172.6,291.1 L173.5,291.8 L172.9,292.7 L171.8,294.8 L172.1,296.5 L172.5,297.0 L174.1,297.8 L174.2,298.2 L173.2,298.4 L172.8,298.2 L171.6,298.4 L171.0,298.3 L170.2,297.5 L168.8,296.6 L168.5,295.3 L168.1,295.0 L167.4,295.2 L166.6,296.0 L166.2,295.7 L166.4,294.8 L165.6,294.7 L165.2,295.0 L165.0,294.5 L165.1,294.3 L165.9,293.9 L166.2,293.1 L165.5,292.8 L165.2,292.2 L164.7,291.8 L164.6,291.2 L163.8,291.3 L163.5,291.1 L163.5,290.9 L162.3,290.3 L161.7,289.7 L161.9,289.1 L161.5,288.7 L161.5,288.2 L161.8,287.6 L159.9,287.3 L160.2,286.4 L159.7,286.3 L159.1,285.2 L159.2,285.0 L160.3,284.9 L160.8,284.7 L160.9,284.5 L160.6,284.3 L160.1,284.1 L160.0,283.6 L160.3,283.4 L160.4,283.0 L162.1,281.6 L162.2,281.1 L164.4,280.2 L165.2,280.6 L166.7,280.0 L168.1,280.3 L168.2,280.6 L169.3,280.5 L170.3,280.7 L172.4,280.6 L172.9,280.2 L173.0,279.8 L173.2,279.7 L174.1,280.4 L174.4,280.0 L174.8,277.7 L175.2,277.5 L177.3,277.4 L180.2,277.8 L181.4,277.5 Z" fill="rgba(139,26,43,0.15)" stroke="rgba(139,26,43,0.4)" stroke-width="0.5"/>
    <path class="region-area" d="M237.9,365.2 L238.0,365.6 L237.3,365.7 L236.2,366.3 L235.9,366.3 L235.6,366.0 L236.4,365.2 L236.8,365.3 L238.1,365.0 L237.9,365.2 Z" fill="rgba(139,26,43,0.15)" stroke="rgba(139,26,43,0.4)" stroke-width="0.5"/>
    <path class="region-area" d="M240.6,364.6 L240.3,364.8 L240.2,365.2 L240.4,365.1 L240.3,365.2 L239.9,365.5 L240.0,365.3 L239.4,365.0 L239.4,364.4 L239.6,364.3 L239.6,363.3 L239.0,362.9 L238.9,362.6 L239.6,362.0 L239.8,361.2 L240.2,360.9 L240.2,359.6 L240.6,359.6 L241.2,359.2 L241.3,359.3 L241.0,360.0 L241.1,360.7 L240.3,361.8 L240.2,362.3 L241.2,363.3 L240.9,363.7 L241.4,364.2 L241.3,364.5 L240.6,364.6 Z" fill="rgba(139,26,43,0.15)" stroke="rgba(139,26,43,0.4)" stroke-width="0.5"/>
    <path class="region-area" d="M255.8,351.9 L255.3,352.4 L255.2,353.1 L254.7,353.9 L254.3,353.9 L253.6,354.9 L254.2,355.1 L253.9,355.5 L254.1,355.8 L253.3,355.7 L252.6,355.7 L251.7,356.3 L250.2,357.9 L249.5,358.3 L248.8,357.9 L248.5,357.4 L249.1,356.1 L249.1,355.4 L248.4,354.8 L248.5,354.5 L248.0,354.3 L249.3,353.7 L249.9,352.6 L250.3,352.5 L251.2,351.6 L254.5,350.3 L255.5,350.4 L256.0,349.9 L256.3,350.2 L256.1,350.5 L256.2,351.1 L255.9,351.4 L255.8,351.9 Z" fill="rgba(139,26,43,0.15)" stroke="rgba(139,26,43,0.4)" stroke-width="0.5"/>
    <path class="region-area" d="M247.0,353.4 L245.8,353.5 L245.6,353.2 L246.0,353.0 L247.0,353.1 L247.0,353.4 Z" fill="rgba(139,26,43,0.15)" stroke="rgba(139,26,43,0.4)" stroke-width="0.5"/>
    <path class="region-area" d="M220.9,351.3 L220.8,351.5 L220.3,351.3 L219.7,351.4 L219.2,351.3 L219.0,351.0 L219.6,350.7 L220.9,351.3 Z" fill="rgba(139,26,43,0.15)" stroke="rgba(139,26,43,0.4)" stroke-width="0.5"/>
    <path class="region-area" d="M215.4,351.1 L215.1,351.6 L214.8,351.7 L213.6,351.4 L214.3,351.3 L214.7,350.9 L214.4,350.2 L214.4,350.0 L213.7,349.6 L214.4,349.7 L214.9,350.0 L215.3,350.4 L215.4,351.1 Z" fill="rgba(139,26,43,0.15)" stroke="rgba(139,26,43,0.4)" stroke-width="0.5"/>
    <path class="region-area" d="M244.4,350.5 L244.2,350.9 L243.5,351.0 L243.2,350.6 L243.3,350.4 L242.9,350.3 L242.6,350.6 L242.3,350.3 L242.3,349.8 L242.3,349.6 L242.5,349.9 L243.2,349.5 L243.8,350.2 L243.6,350.4 L243.8,350.6 L244.4,350.5 Z" fill="rgba(139,26,43,0.15)" stroke="rgba(139,26,43,0.4)" stroke-width="0.5"/>
    <path class="region-area" d="M229.9,348.1 L229.6,347.9 L228.6,348.2 L228.2,348.6 L228.2,349.0 L227.7,349.1 L227.0,348.5 L227.1,348.3 L226.9,347.9 L227.4,347.8 L228.1,348.2 L228.5,347.9 L228.9,348.0 L229.0,347.9 L228.7,347.7 L228.8,347.5 L228.4,347.3 L228.9,347.2 L229.9,347.8 L229.9,348.1 Z" fill="rgba(139,26,43,0.15)" stroke="rgba(139,26,43,0.4)" stroke-width="0.5"/>
    <path class="region-area" d="M250.8,348.5 L250.9,348.6 L250.2,348.8 L250.5,348.5 L249.6,348.2 L249.9,348.1 L249.2,348.1 L249.6,347.5 L250.7,347.1 L250.7,347.2 L250.1,347.4 L250.0,347.6 L250.3,347.7 L250.8,347.4 L250.9,347.5 L250.7,347.7 L250.8,347.7 L250.9,348.3 L250.8,348.5 Z" fill="rgba(139,26,43,0.15)" stroke="rgba(139,26,43,0.4)" stroke-width="0.5"/>
    <path class="region-area" d="M240.0,348.3 L239.8,348.1 L240.4,347.5 L240.6,347.5 L240.9,347.9 L240.8,348.2 L240.0,348.3 Z" fill="rgba(139,26,43,0.15)" stroke="rgba(139,26,43,0.4)" stroke-width="0.5"/>
    <path class="region-area" d="M241.1,344.4 L239.8,345.4 L238.6,345.2 L237.8,345.5 L237.5,345.7 L237.7,346.0 L237.4,346.2 L237.5,346.6 L236.9,346.4 L236.7,346.0 L236.8,345.3 L237.0,345.4 L237.3,345.1 L237.7,345.3 L238.8,344.2 L240.3,343.4 L242.1,343.2 L242.2,343.4 L242.9,343.6 L243.2,343.8 L241.1,344.4 Z" fill="rgba(139,26,43,0.15)" stroke="rgba(139,26,43,0.4)" stroke-width="0.5"/>
    <path class="region-area" d="M215.3,343.7 L215.3,344.3 L214.6,344.5 L214.5,344.3 L215.3,343.7 Z" fill="rgba(139,26,43,0.15)" stroke="rgba(139,26,43,0.4)" stroke-width="0.5"/>
    <path class="region-area" d="M224.1,343.4 L223.1,343.4 L221.9,344.2 L221.2,344.9 L219.4,345.2 L219.2,344.9 L220.7,344.7 L221.0,344.3 L220.8,344.3 L220.7,344.1 L222.6,343.3 L222.3,343.0 L223.0,342.7 L224.1,343.4 Z" fill="rgba(139,26,43,0.15)" stroke="rgba(139,26,43,0.4)" stroke-width="0.5"/>
    <path class="region-area" d="M218.3,343.4 L218.2,343.6 L217.2,343.5 L217.8,343.1 L218.3,343.4 Z" fill="rgba(139,26,43,0.15)" stroke="rgba(139,26,43,0.4)" stroke-width="0.5"/>
    <path class="region-area" d="M236.8,342.1 L237.2,341.3 L236.6,341.2 L236.2,340.7 L236.2,340.5 L237.7,341.1 L237.5,341.2 L238.0,341.6 L238.0,341.8 L238.2,341.6 L238.5,341.7 L238.4,342.5 L238.6,342.4 L238.5,342.6 L237.8,342.5 L237.6,342.9 L237.1,342.9 L236.6,342.6 L236.9,342.3 L236.8,342.1 Z" fill="rgba(139,26,43,0.15)" stroke="rgba(139,26,43,0.4)" stroke-width="0.5"/>
    <path class="region-area" d="M217.0,339.7 L216.8,341.6 L216.4,342.3 L214.9,343.0 L214.5,342.3 L214.0,342.0 L213.9,341.3 L213.3,340.6 L213.7,340.5 L215.2,339.4 L215.5,339.0 L216.1,338.8 L216.7,339.2 L217.0,339.7 Z" fill="rgba(139,26,43,0.15)" stroke="rgba(139,26,43,0.4)" stroke-width="0.5"/>
    <path class="region-area" d="M219.8,340.0 L220.6,339.8 L220.5,340.0 L220.7,340.2 L220.5,340.4 L220.1,340.4 L219.8,340.0 Z" fill="rgba(139,26,43,0.15)" stroke="rgba(139,26,43,0.4)" stroke-width="0.5"/>
    <path class="region-area" d="M236.0,340.3 L235.5,340.3 L235.7,340.0 L235.2,340.0 L235.2,339.6 L234.5,339.1 L235.0,338.8 L235.6,339.0 L235.6,339.4 L235.9,339.5 L236.2,340.1 L236.0,340.3 Z" fill="rgba(139,26,43,0.15)" stroke="rgba(139,26,43,0.4)" stroke-width="0.5"/>
    <path class="region-area" d="M231.7,336.7 L231.2,337.0 L231.4,337.2 L231.5,337.7 L231.3,337.8 L230.9,337.4 L231.0,336.3 L231.7,336.3 L232.0,336.8 L231.7,336.7 Z" fill="rgba(139,26,43,0.15)" stroke="rgba(139,26,43,0.4)" stroke-width="0.5"/>
    <path class="region-area" d="M212.7,335.7 L213.0,334.9 L212.7,334.8 L212.8,334.6 L213.3,334.3 L213.8,334.9 L214.1,334.5 L215.1,334.9 L215.0,335.2 L214.2,335.3 L214.2,335.6 L212.7,335.7 Z" fill="rgba(139,26,43,0.15)" stroke="rgba(139,26,43,0.4)" stroke-width="0.5"/>
    <path class="region-area" d="M78.3,251.5 L78.3,251.8 L77.7,252.2 L76.3,252.5 L75.5,252.5 L75.8,252.3 L75.8,252.1 L75.3,251.8 L76.5,251.4 L77.5,251.5 L77.4,251.7 L78.3,251.5 Z" fill="rgba(139,26,43,0.15)" stroke="rgba(139,26,43,0.4)" stroke-width="0.5"/>
    <path class="region-area" d="M84.5,250.9 L80.1,249.8 L81.9,249.5 L82.8,249.9 L83.2,249.9 L82.3,249.3 L82.9,249.3 L83.2,249.5 L84.3,249.5 L84.8,249.9 L84.7,250.0 L85.4,250.3 L87.4,250.2 L87.9,250.4 L91.7,250.6 L92.3,250.8 L84.5,250.9 Z" fill="rgba(139,26,43,0.15)" stroke="rgba(139,26,43,0.4)" stroke-width="0.5"/>
    <path class="region-area" d="M80.6,247.8 L81.1,247.8 L81.0,247.6 L81.3,247.5 L80.9,246.9 L81.2,246.9 L81.9,247.1 L84.8,247.1 L86.6,247.5 L86.4,247.6 L86.9,247.6 L87.8,248.1 L87.1,248.7 L83.9,248.8 L82.0,248.5 L80.6,247.8 Z" fill="rgba(139,26,43,0.15)" stroke="rgba(139,26,43,0.4)" stroke-width="0.5"/>
    <path class="region-area" d="M79.7,247.7 L77.6,247.0 L77.7,246.9 L77.5,246.7 L78.7,246.6 L79.0,246.7 L79.0,247.0 L79.4,246.9 L80.4,247.6 L80.1,247.8 L79.7,247.7 Z" fill="rgba(139,26,43,0.15)" stroke="rgba(139,26,43,0.4)" stroke-width="0.5"/>
    <path class="region-area" d="M80.1,245.5 L78.2,245.6 L77.7,245.5 L78.2,245.4 L78.5,245.1 L80.1,245.5 Z" fill="rgba(139,26,43,0.15)" stroke="rgba(139,26,43,0.4)" stroke-width="0.5"/>
    <path class="region-area" d="M82.4,238.4 L84.6,240.2 L85.1,241.3 L86.8,242.2 L90.6,245.1 L93.4,245.8 L93.6,246.2 L93.4,247.5 L93.7,248.2 L94.3,248.9 L95.3,249.5 L96.1,250.6 L95.5,250.6 L94.6,250.4 L94.5,250.6 L94.9,250.7 L95.4,251.2 L94.8,251.6 L94.1,250.8 L92.0,250.0 L90.5,249.2 L90.1,248.6 L87.6,246.7 L85.7,246.5 L83.8,246.1 L82.3,245.1 L80.4,245.1 L81.6,244.7 L81.3,244.6 L79.5,244.5 L78.1,244.9 L76.3,244.9 L77.0,245.2 L77.1,245.5 L76.2,245.5 L76.2,245.6 L74.7,245.2 L75.4,245.1 L75.1,244.8 L75.8,244.6 L75.3,244.1 L75.3,243.8 L75.9,243.5 L76.9,242.6 L78.1,242.8 L79.8,242.1 L79.6,241.7 L79.7,241.2 L81.0,240.6 L80.3,239.9 L79.6,239.6 L79.8,239.0 L80.5,239.1 L81.5,238.4 L82.4,238.4 Z" fill="rgba(139,26,43,0.15)" stroke="rgba(139,26,43,0.4)" stroke-width="0.5"/>
    <path class="region-area" d="M41.3,216.2 L42.2,216.6 L43.2,216.7 L44.6,216.0 L44.3,215.7 L44.4,215.4 L46.6,216.0 L46.8,216.5 L47.9,217.0 L48.0,218.2 L47.7,218.7 L47.8,220.4 L48.3,220.7 L48.0,221.2 L47.5,221.0 L47.7,221.2 L47.7,221.5 L47.3,221.8 L47.2,221.7 L47.2,222.2 L47.0,222.1 L47.3,222.7 L47.3,223.1 L46.9,223.5 L46.4,223.4 L45.9,223.8 L46.1,223.2 L45.7,222.8 L45.6,222.5 L45.4,222.5 L45.5,223.0 L46.0,223.3 L45.5,223.8 L45.4,223.7 L45.4,224.0 L45.2,224.2 L45.2,224.5 L44.4,224.5 L44.7,224.8 L44.4,225.6 L44.8,225.8 L43.7,225.8 L43.6,225.6 L43.2,225.5 L43.1,225.6 L43.4,225.7 L43.6,226.3 L43.4,226.4 L43.3,225.8 L42.6,225.6 L42.7,225.4 L42.5,225.4 L42.5,225.2 L41.7,224.9 L42.2,225.0 L42.5,224.7 L42.1,224.8 L41.8,224.6 L42.0,224.3 L41.5,223.6 L39.8,222.1 L39.3,221.9 L39.5,221.6 L39.1,221.3 L39.5,221.1 L40.8,221.0 L38.9,221.0 L38.9,220.5 L38.6,220.1 L38.8,219.9 L38.8,219.3 L38.5,219.1 L38.9,218.8 L38.5,218.5 L39.1,218.3 L38.3,218.2 L38.0,217.9 L38.2,217.6 L37.6,216.6 L37.7,216.2 L37.4,215.6 L37.6,215.4 L39.5,216.2 L41.3,216.2 Z" fill="rgba(139,26,43,0.15)" stroke="rgba(139,26,43,0.4)" stroke-width="0.5"/>
    <path class="region-area" d="M39.2,208.7 L38.9,208.4 L39.3,208.2 L39.0,208.0 L39.5,208.2 L39.3,207.8 L39.7,207.4 L40.1,207.2 L41.0,207.3 L41.4,207.0 L41.4,206.7 L41.8,206.6 L42.2,207.6 L42.9,208.1 L40.9,209.6 L42.4,210.6 L39.3,210.0 L39.2,209.8 L40.2,209.3 L39.1,209.0 L39.2,208.7 Z" fill="rgba(139,26,43,0.15)" stroke="rgba(139,26,43,0.4)" stroke-width="0.5"/>
    <path class="region-area" d="M509.8,259.5 L510.4,259.9 L513.1,259.5 L515.5,260.0 L516.1,260.6 L516.1,260.9 L514.4,264.2 L514.5,264.6 L517.2,265.9 L518.2,266.1 L519.2,267.2 L519.9,267.1 L520.4,267.3 L520.9,267.3 L521.1,267.7 L521.5,267.8 L523.3,267.7 L524.4,268.5 L525.7,268.7 L526.4,269.2 L525.5,270.5 L524.7,271.2 L523.1,271.2 L522.8,271.4 L522.7,272.7 L522.9,273.4 L523.3,273.6 L523.8,273.3 L524.1,273.8 L524.4,274.8 L524.7,275.1 L526.6,276.1 L528.8,276.9 L529.0,277.3 L529.4,277.3 L530.2,278.2 L530.3,278.4 L530.0,278.5 L529.9,279.0 L529.6,279.3 L529.2,280.7 L528.9,281.0 L528.1,281.0 L527.8,281.1 L527.4,281.8 L527.1,281.8 L526.1,281.1 L524.9,280.7 L523.1,279.5 L521.7,279.5 L520.3,280.0 L517.3,279.3 L515.7,278.4 L515.3,278.0 L516.2,277.4 L512.8,276.6 L512.1,276.0 L511.0,276.1 L510.1,275.8 L509.5,274.5 L508.2,274.3 L508.1,273.6 L508.6,272.7 L508.2,271.4 L507.9,271.0 L506.8,270.7 L505.9,269.6 L505.5,269.3 L506.3,268.8 L507.1,269.2 L508.3,269.1 L507.8,268.6 L506.4,268.3 L506.2,267.9 L506.5,267.5 L506.0,266.0 L507.0,263.7 L507.7,263.1 L508.3,263.0 L508.5,262.5 L508.3,261.9 L508.4,261.5 L509.0,260.9 L509.1,259.8 L509.6,259.3 L509.8,259.5 Z" fill="rgba(139,26,43,0.15)" stroke="rgba(139,26,43,0.4)" stroke-width="0.5"/></g>
  <g>    <circle cx="129.6" cy="189.1" r="9" fill="#8B1A2B" stroke="#fff" stroke-width="0.8"/>
    <text x="129.6" y="192.6" text-anchor="middle" font-family="Inter, sans-serif" font-size="9" font-weight="700" fill="#fff">1</text>
    <circle cx="181.0" cy="312.9" r="9" fill="#8B1A2B" stroke="#fff" stroke-width="0.8"/>
    <text x="181.0" y="316.4" text-anchor="middle" font-family="Inter, sans-serif" font-size="9" font-weight="700" fill="#fff">2</text>
    <circle cx="68.1" cy="235.1" r="9" fill="#8B1A2B" stroke="#fff" stroke-width="0.8"/>
    <text x="68.1" y="238.6" text-anchor="middle" font-family="Inter, sans-serif" font-size="9" font-weight="700" fill="#fff">3</text>
    <circle cx="40.8" cy="208.6" r="9" fill="#8B1A2B" stroke="#fff" stroke-width="0.8"/>
    <text x="40.8" y="212.1" text-anchor="middle" font-family="Inter, sans-serif" font-size="9" font-weight="700" fill="#fff">4</text>
    <circle cx="516.5" cy="271.1" r="9" fill="#8B1A2B" stroke="#fff" stroke-width="0.8"/>
    <text x="516.5" y="274.6" text-anchor="middle" font-family="Inter, sans-serif" font-size="9" font-weight="700" fill="#fff">5</text></g>
  <line x1="28" y1="396" x2="522" y2="396" stroke="#8B1A2B" stroke-width="0.3" opacity="0.25"/>
  <text x="32" y="404" font-family="Inter, sans-serif" font-size="8.5" fill="#2D1B14"><tspan font-weight="700">1. Ungern</tspan> : Furmint, Kadarka, Kokfrankos</text>
  <text x="32" y="419" font-family="Inter, sans-serif" font-size="8.5" fill="#2D1B14"><tspan font-weight="700">2. Grekland</tspan> : Assyrtiko, Xinomavro, Agiorgitiko</text>
  <text x="32" y="434" font-family="Inter, sans-serif" font-size="8.5" fill="#2D1B14"><tspan font-weight="700">3. Kroatien</tspan> : Plavac Mali, Malvazija, Grasevina</text>
  <text x="32" y="449" font-family="Inter, sans-serif" font-size="8.5" fill="#2D1B14"><tspan font-weight="700">4. Slovenien</tspan> : Rebula, Refosco, Furmint</text>
  <text x="32" y="464" font-family="Inter, sans-serif" font-size="8.5" fill="#2D1B14"><tspan font-weight="700">5. Georgien</tspan> : Saperavi, Rkatsiteli</text>
  <text x="275" y="521" text-anchor="middle" font-family="Inter, sans-serif" font-size="7" fill="#b0a89e">Cellar -- Sommelier Companion</text>
</svg>