<svg xmlns="http://www.w3.org/2000/svg" viewBox="0 0 700 400">
  <defs><filter id="shadow"><feDropShadow dx="1" dy="1.5" stdDeviation="2" flood-color="#2D1B14" flood-opacity="0.08"/></filter></defs>
  <text x="350" y="24" text-anchor="middle" font-family="Cormorant Garamond, Georgia, serif" font-size="16" font-weight="400" fill="#2D1B14" letter-spacing="5">OVRIGA VARLDEN</text>
  <text x="350" y="42" text-anchor="middle" font-family="Inter, sans-serif" font-size="8" fill="#8a7a6a" letter-spacing="1" class="region-label">Placera regionerna och namnge de viktigaste druvorna</text>
  <g filter="url(#shadow)">    <path d="M462.2,293.6 L461.2,294.1 L461.0,293.7 L459.8,296.2 L459.2,296.1 L459.6,296.5 L459.8,296.2 L459.4,297.5 L459.0,298.0 L459.3,298.1 L459.4,297.6 L459.5,298.1 L456.8,299.6 L456.9,300.3 L456.5,300.3 L456.7,300.2 L456.8,299.9 L455.3,300.2 L455.2,300.9 L454.9,300.9 L455.3,301.0 L455.1,301.2 L454.3,301.4 L454.3,301.0 L453.9,301.3 L453.7,300.8 L452.2,300.8 L452.1,300.4 L449.7,299.6 L449.4,295.5 L452.5,293.1 L453.0,293.2 L452.8,292.8 L452.2,293.1 L453.0,292.1 L454.4,292.4 L454.1,291.9 L455.2,291.6 L455.8,292.0 L456.4,291.7 L456.6,292.2 L457.5,291.3 L458.5,291.4 L458.9,292.1 L458.7,291.2 L459.9,292.1 L459.7,291.3 L460.3,290.8 L460.9,291.6 L461.7,291.7 L462.2,293.6 Z" fill="#faf5ef" stroke="#8B1A2B" stroke-width="1.3" stroke-linejoin="round"/>
    <path d="M459.2,288.3 L458.9,288.2 L459.0,288.1 L459.2,288.3 Z" fill="#faf5ef" stroke="#8B1A2B" stroke-width="1.3" stroke-linejoin="round"/>
    <path d="M460.0,286.7 L459.6,286.8 L459.9,286.5 L460.0,286.7 Z" fill="#faf5ef" stroke="#8B1A2B" stroke-width="1.3" stroke-linejoin="round"/>
    <path d="M459.4,286.7 L459.0,286.3 L458.1,286.5 L458.0,286.2 L459.5,285.9 L459.4,286.7 Z" fill="#faf5ef" stroke="#8B1A2B" stroke-width="1.3" stroke-linejoin="round"/>
    <path d="M452.1,286.1 L451.8,286.1 L452.0,286.0 L452.1,286.1 Z" fill="#faf5ef" stroke="#8B1A2B" stroke-width="1.3" stroke-linejoin="round"/>
    <path d="M459.7,285.7 L458.9,285.3 L460.0,285.3 L459.7,285.7 Z" fill="#faf5ef" stroke="#8B1A2B" stroke-width="1.3" stroke-linejoin="round"/>
    <path d="M467.4,282.9 L466.6,283.3 L466.3,283.3 L466.5,282.9 L467.4,282.9 Z" fill="#faf5ef" stroke="#8B1A2B" stroke-width="1.3" stroke-linejoin="round"/>
    <path d="M470.8,282.5 L470.2,283.2 L470.1,283.0 L470.8,282.5 Z" fill="#faf5ef" stroke="#8B1A2B" stroke-width="1.3" stroke-linejoin="round"/>
    <path d="M471.9,282.2 L471.7,283.2 L471.4,283.2 L471.5,282.6 L471.1,282.6 L471.9,282.2 Z" fill="#faf5ef" stroke="#8B1A2B" stroke-width="1.3" stroke-linejoin="round"/>
    <path d="M474.2,281.4 L473.8,281.5 L474.0,281.3 L474.2,281.4 Z" fill="#faf5ef" stroke="#8B1A2B" stroke-width="1.3" stroke-linejoin="round"/>
    <path d="M476.6,281.0 L476.7,281.2 L476.7,281.1 L476.6,281.0 Z" fill="#faf5ef" stroke="#8B1A2B" stroke-width="1.3" stroke-linejoin="round"/>
    <path d="M479.1,280.9 L479.7,280.6 L479.6,280.8 L479.1,280.9 Z" fill="#faf5ef" stroke="#8B1A2B" stroke-width="1.3" stroke-linejoin="round"/>
    <path d="M474.3,280.9 L474.9,280.6 L474.8,281.0 L474.3,280.9 Z" fill="#faf5ef" stroke="#8B1A2B" stroke-width="1.3" stroke-linejoin="round"/>
    <path d="M475.2,280.4 L475.5,280.6 L475.2,280.6 L475.2,280.4 Z" fill="#faf5ef" stroke="#8B1A2B" stroke-width="1.3" stroke-linejoin="round"/>
    <path d="M474.3,280.6 L474.4,280.2 L474.6,280.2 L474.3,280.6 Z" fill="#faf5ef" stroke="#8B1A2B" stroke-width="1.3" stroke-linejoin="round"/>
    <path d="M476.2,278.7 L475.9,278.9 L476.0,278.7 L476.2,278.7 Z" fill="#faf5ef" stroke="#8B1A2B" stroke-width="1.3" stroke-linejoin="round"/>
    <path d="M475.7,277.1 L475.9,277.7 L475.2,277.1 L475.7,277.1 Z" fill="#faf5ef" stroke="#8B1A2B" stroke-width="1.3" stroke-linejoin="round"/>
    <path d="M475.9,276.9 L475.2,276.5 L474.8,276.2 L475.3,276.2 L475.9,276.9 Z" fill="#faf5ef" stroke="#8B1A2B" stroke-width="1.3" stroke-linejoin="round"/>
    <path d="M475.4,276.1 L475.6,276.0 L475.6,276.3 L475.4,276.1 Z" fill="#faf5ef" stroke="#8B1A2B" stroke-width="1.3" stroke-linejoin="round"/>
    <path d="M494.7,273.1 L494.7,273.5 L493.7,273.4 L494.7,273.1 Z" fill="#faf5ef" stroke="#8B1A2B" stroke-width="1.3" stroke-linejoin="round"/>
    <path d="M494.0,272.8 L493.7,272.8 L494.0,272.7 L494.0,272.8 Z" fill="#faf5ef" stroke="#8B1A2B" stroke-width="1.3" stroke-linejoin="round"/>
    <path d="M496.8,271.7 L496.3,272.6 L495.7,272.6 L496.0,271.6 L496.8,271.7 Z" fill="#faf5ef" stroke="#8B1A2B" stroke-width="1.3" stroke-linejoin="round"/>
    <path d="M500.3,267.5 L499.8,268.0 L499.8,267.4 L500.3,267.5 Z" fill="#faf5ef" stroke="#8B1A2B" stroke-width="1.3" stroke-linejoin="round"/>
    <path d="M506.5,262.6 L506.2,262.4 L506.5,261.9 L506.5,262.1 L506.5,262.6 Z" fill="#faf5ef" stroke="#8B1A2B" stroke-width="1.3" stroke-linejoin="round"/>
    <path d="M506.8,259.8 L506.0,259.7 L505.8,259.1 L506.8,259.8 Z" fill="#faf5ef" stroke="#8B1A2B" stroke-width="1.3" stroke-linejoin="round"/>
    <path d="M53.9,230.4 L55.8,226.2 L56.4,223.2 L57.0,223.0 L57.2,221.8 L58.5,219.6 L59.2,217.5 L60.1,217.0 L60.2,215.3 L61.9,214.1 L61.8,213.5 L63.4,213.7 L63.6,213.3 L64.3,213.6 L63.7,214.3 L64.8,214.7 L65.2,215.9 L63.5,217.3 L63.9,217.9 L62.7,217.8 L61.7,218.6 L61.6,218.9 L62.2,219.3 L60.7,220.5 L61.4,222.6 L60.7,223.7 L59.7,224.2 L59.7,225.6 L57.7,224.8 L56.6,225.9 L56.4,226.7 L56.9,228.2 L56.5,228.6 L57.7,228.7 L57.9,228.3 L58.1,229.0 L56.5,229.6 L56.0,231.1 L57.5,231.1 L58.7,230.4 L59.1,230.4 L59.1,230.7 L58.8,231.6 L59.0,232.4 L57.4,236.0 L57.4,237.7 L56.2,241.1 L52.7,231.9 L53.9,230.4 Z" fill="#faf5ef" stroke="#8B1A2B" stroke-width="1.3" stroke-linejoin="round"/>
    <path d="M290.4,219.9 L289.9,216.6 L291.2,215.8 L291.2,215.4 L289.5,214.2 L287.6,213.7 L286.0,210.2 L286.2,209.0 L285.4,209.4 L284.9,209.0 L282.7,209.1 L280.2,208.6 L278.4,207.7 L278.2,206.9 L276.2,207.4 L275.8,206.5 L274.8,206.0 L275.4,205.1 L275.2,203.9 L274.5,202.9 L273.5,202.3 L272.3,202.5 L271.7,201.4 L270.5,201.0 L269.3,201.5 L268.9,200.9 L267.6,200.9 L266.7,200.3 L268.5,199.4 L268.9,199.9 L269.4,199.8 L270.9,198.9 L269.4,197.8 L269.8,196.9 L268.9,195.2 L269.1,193.2 L266.4,192.1 L265.3,192.1 L264.8,192.9 L263.5,192.4 L263.0,191.0 L263.7,190.5 L262.5,189.1 L262.7,187.9 L263.8,187.8 L264.3,187.2 L263.8,185.9 L264.7,184.7 L266.4,184.5 L268.4,183.2 L269.3,183.3 L268.9,182.8 L269.1,182.3 L271.0,182.6 L273.0,181.6 L273.6,183.4 L276.6,182.6 L277.0,183.2 L278.6,181.8 L278.8,180.9 L279.9,179.6 L286.4,179.5 L287.9,178.2 L287.9,177.7 L289.5,176.8 L295.3,175.0 L295.8,174.3 L297.9,174.2 L298.1,173.1 L297.4,170.9 L298.0,170.0 L299.6,169.6 L298.6,168.8 L300.9,168.2 L300.1,167.3 L300.5,166.6 L298.5,163.0 L298.6,160.2 L299.3,159.8 L298.0,159.3 L296.6,159.4 L295.9,158.8 L297.2,158.2 L301.2,157.7 L305.5,156.5 L307.1,157.6 L308.6,157.1 L310.2,157.7 L310.7,156.1 L308.9,155.5 L312.6,148.0 L312.8,146.6 L317.5,147.8 L321.5,147.8 L322.0,148.1 L321.9,148.7 L324.5,147.4 L326.0,147.4 L327.0,146.2 L326.1,142.8 L327.2,140.4 L331.7,139.5 L332.7,138.5 L332.9,137.9 L332.5,137.2 L333.3,136.4 L336.1,136.6 L338.4,136.1 L338.7,137.2 L337.9,137.7 L339.7,138.6 L339.0,139.1 L339.2,139.4 L342.0,140.2 L342.5,141.3 L344.9,142.4 L347.6,142.2 L348.7,143.3 L350.2,143.0 L350.4,143.6 L351.8,144.2 L352.5,146.0 L353.8,147.6 L354.7,148.0 L355.6,150.0 L354.8,151.4 L355.3,152.9 L353.8,154.3 L353.5,155.7 L354.7,157.3 L355.6,157.2 L358.2,158.0 L361.8,158.3 L365.2,158.1 L368.8,158.6 L370.9,160.1 L372.3,160.1 L375.1,161.8 L376.9,162.3 L378.8,162.2 L378.4,163.6 L379.5,163.9 L381.3,167.7 L383.7,169.5 L383.9,170.5 L388.4,170.1 L400.5,171.3 L403.4,170.7 L411.5,171.5 L412.6,171.9 L414.2,173.3 L419.7,174.3 L423.0,175.6 L427.3,175.0 L427.4,176.2 L429.9,176.5 L431.1,175.7 L439.4,172.8 L446.9,171.9 L450.2,172.2 L453.9,171.9 L458.8,170.2 L461.9,167.3 L467.0,165.3 L466.5,164.0 L464.9,162.8 L464.1,161.6 L465.9,158.5 L467.1,157.9 L469.5,158.0 L471.3,159.1 L475.9,159.7 L478.5,158.5 L480.2,157.3 L480.8,156.3 L486.9,155.9 L489.6,154.6 L490.0,154.0 L489.8,153.5 L491.7,151.4 L493.0,150.9 L495.8,151.1 L496.1,150.0 L497.0,149.8 L498.3,150.2 L500.8,149.1 L503.2,149.4 L503.8,148.9 L506.4,149.7 L508.3,149.8 L509.2,149.5 L509.4,148.2 L508.4,146.8 L506.2,145.5 L506.3,145.1 L505.4,144.9 L505.1,144.1 L503.4,143.6 L502.2,142.5 L498.1,142.4 L495.9,144.2 L493.1,143.0 L490.0,143.1 L488.2,144.0 L486.4,142.8 L486.1,141.6 L487.6,141.0 L487.6,139.5 L488.8,138.2 L492.3,132.6 L498.5,134.3 L502.8,131.9 L505.2,131.7 L506.4,131.2 L506.6,129.8 L505.4,129.6 L507.3,127.7 L507.4,126.8 L508.6,126.0 L508.7,125.2 L509.6,124.6 L510.5,122.8 L513.5,121.5 L514.2,120.4 L513.3,119.2 L513.9,118.1 L512.4,117.6 L510.4,117.9 L510.2,116.9 L514.7,114.2 L516.4,114.2 L522.4,113.0 L525.3,113.1 L529.3,112.7 L536.0,115.1 L536.1,114.7 L537.1,114.5 L540.0,115.3 L540.6,115.8 L540.1,116.3 L541.1,116.2 L541.9,116.9 L542.5,116.9 L542.0,117.9 L543.1,118.2 L543.1,118.5 L543.9,119.0 L543.7,119.3 L544.3,119.5 L543.7,119.9 L545.0,120.3 L544.3,121.0 L545.9,122.6 L545.6,123.3 L546.9,124.2 L546.3,124.8 L547.2,124.6 L547.0,126.0 L548.9,127.7 L549.3,128.6 L548.9,129.2 L549.2,129.5 L549.1,129.9 L550.5,130.6 L549.9,131.5 L550.2,132.8 L551.9,133.9 L553.7,134.1 L556.2,133.7 L556.9,134.0 L556.7,134.5 L558.6,135.1 L559.8,135.2 L560.0,134.7 L560.6,134.8 L560.9,135.5 L561.8,135.5 L562.9,136.9 L564.4,137.6 L566.9,137.7 L566.2,139.0 L566.7,139.8 L567.4,139.7 L567.7,140.6 L566.9,142.0 L568.2,143.0 L568.4,143.8 L568.8,144.0 L570.9,143.7 L571.9,144.1 L576.8,143.9 L577.6,142.6 L578.3,142.7 L579.8,141.8 L582.1,141.8 L583.3,141.0 L586.7,140.3 L588.5,140.9 L587.6,142.3 L588.8,143.9 L587.6,145.2 L585.6,145.9 L585.9,147.0 L585.0,147.8 L584.7,149.5 L583.8,150.5 L584.3,150.9 L583.9,151.2 L584.1,151.6 L583.0,152.2 L582.8,153.3 L581.9,154.0 L581.9,155.0 L580.3,155.7 L579.9,157.8 L578.9,158.2 L573.8,157.1 L573.2,156.5 L571.0,158.5 L568.3,159.2 L569.0,160.0 L570.1,163.4 L569.5,166.2 L570.2,167.0 L569.1,168.8 L569.2,169.5 L565.5,170.4 L566.4,171.0 L566.2,171.5 L566.0,171.1 L565.7,171.4 L564.7,170.6 L564.6,169.5 L562.7,169.0 L561.8,172.0 L560.9,172.4 L559.8,172.0 L559.0,172.6 L559.1,173.2 L557.7,174.1 L552.9,174.4 L552.9,175.1 L554.3,176.6 L553.4,177.7 L552.7,177.2 L550.7,177.4 L548.1,176.9 L548.3,176.5 L547.0,175.4 L546.2,176.0 L545.6,175.7 L545.9,175.9 L545.0,176.4 L544.8,177.8 L542.7,179.3 L542.0,180.2 L540.7,180.3 L538.9,181.6 L536.8,182.2 L536.9,182.5 L536.1,182.4 L532.1,185.8 L530.1,186.0 L529.5,185.4 L529.2,186.2 L528.3,186.5 L528.2,185.9 L527.3,186.0 L527.2,186.7 L526.0,186.7 L522.2,188.5 L520.9,190.0 L519.7,190.1 L520.0,190.6 L519.2,190.2 L518.5,190.7 L519.0,191.1 L516.6,191.4 L516.3,191.8 L515.9,191.6 L516.0,190.6 L518.9,189.9 L518.5,188.9 L520.4,188.2 L518.1,188.4 L517.7,187.6 L516.5,187.5 L518.2,187.0 L517.8,186.0 L520.0,185.0 L519.7,184.9 L522.3,182.3 L521.5,181.8 L521.5,181.3 L519.9,180.6 L520.0,179.7 L519.3,180.5 L517.3,180.0 L515.2,180.6 L515.0,181.1 L515.4,181.2 L514.4,181.4 L512.9,182.9 L513.2,183.0 L512.5,183.9 L507.5,185.6 L507.5,186.0 L505.8,187.3 L506.2,187.3 L506.2,188.3 L504.3,189.6 L504.5,189.3 L504.0,189.2 L501.1,190.2 L499.5,189.2 L497.8,189.7 L498.1,190.4 L497.7,190.4 L496.9,192.4 L497.8,193.6 L499.7,194.9 L504.4,195.1 L506.1,197.2 L505.0,197.0 L504.5,197.8 L504.5,199.4 L505.4,200.0 L508.8,200.2 L509.5,199.7 L509.2,199.1 L511.7,197.6 L511.2,197.4 L513.9,196.6 L516.1,197.3 L516.2,197.9 L517.4,197.7 L518.4,198.7 L518.9,198.7 L518.5,198.6 L518.7,198.4 L520.6,198.7 L521.3,198.0 L521.6,198.8 L524.3,198.8 L523.6,199.3 L524.0,200.0 L523.1,200.2 L522.8,200.9 L523.5,200.9 L523.4,201.5 L522.8,201.4 L523.0,201.7 L522.4,201.9 L521.7,201.8 L522.1,201.5 L521.6,200.9 L520.8,201.5 L520.9,201.1 L520.3,201.0 L520.4,201.3 L518.7,201.9 L518.7,202.4 L518.0,202.2 L518.6,201.8 L517.8,201.9 L517.5,202.5 L515.5,203.2 L514.0,203.0 L514.0,203.4 L514.5,203.1 L515.1,203.4 L515.1,203.9 L514.6,204.3 L514.3,203.9 L513.8,204.0 L513.9,204.6 L513.4,204.6 L513.8,205.5 L513.3,205.7 L511.9,206.1 L511.6,206.0 L511.9,205.3 L511.6,204.9 L511.5,205.4 L510.5,205.1 L510.9,206.4 L511.6,206.5 L510.5,206.9 L510.0,207.8 L509.5,207.7 L509.5,208.3 L508.1,208.6 L507.6,209.6 L506.9,210.0 L506.6,211.1 L505.7,211.7 L505.7,213.2 L507.0,213.0 L508.1,214.2 L511.4,215.3 L512.6,218.9 L514.8,222.3 L514.4,223.9 L517.4,225.6 L517.6,226.3 L517.3,226.4 L517.7,227.1 L519.6,227.8 L520.3,229.0 L519.7,229.3 L516.9,228.3 L515.9,228.8 L515.2,228.7 L514.3,227.5 L513.4,227.3 L510.7,228.0 L510.0,227.6 L509.2,226.1 L507.9,225.8 L508.3,226.1 L507.9,226.6 L508.9,226.6 L508.8,227.0 L510.0,227.9 L511.2,228.2 L512.5,227.5 L514.0,227.8 L514.4,228.6 L513.9,228.7 L516.1,229.3 L519.2,231.5 L520.4,233.1 L520.5,233.7 L518.2,234.0 L515.3,235.4 L514.4,236.7 L513.7,236.2 L512.6,236.2 L512.3,236.3 L512.0,236.9 L511.4,236.7 L510.8,237.3 L511.5,236.9 L512.1,237.0 L512.4,236.4 L513.3,236.3 L513.9,237.1 L513.4,237.7 L513.6,237.9 L514.2,238.0 L513.4,237.7 L514.0,237.1 L514.8,237.4 L516.7,236.5 L517.6,236.8 L519.2,238.5 L521.4,238.8 L519.0,240.7 L517.7,240.9 L517.9,241.6 L519.1,240.8 L519.7,241.1 L519.8,240.8 L519.3,240.8 L519.6,240.5 L520.5,240.5 L520.2,240.9 L520.5,241.3 L520.1,242.1 L520.6,242.3 L520.4,242.6 L519.5,242.8 L519.8,242.0 L519.5,241.7 L519.2,242.7 L518.8,242.7 L518.7,242.0 L518.7,242.7 L518.4,242.0 L517.5,242.8 L517.8,243.0 L517.5,243.1 L518.6,243.1 L518.6,243.4 L518.2,243.3 L518.2,243.6 L519.0,243.6 L519.0,244.1 L518.5,243.9 L518.4,244.0 L518.1,243.9 L518.0,244.0 L518.9,244.6 L518.6,245.1 L517.2,245.2 L516.1,244.5 L516.9,245.1 L516.7,245.4 L518.1,245.5 L518.4,246.3 L518.1,246.4 L518.6,246.5 L518.8,247.2 L518.5,247.6 L518.2,247.3 L517.5,247.4 L517.2,248.2 L516.5,247.7 L516.7,247.0 L516.2,246.9 L516.0,247.4 L515.5,247.4 L516.0,247.7 L515.1,249.1 L513.2,248.8 L513.1,248.4 L513.0,248.4 L513.1,248.9 L514.5,249.2 L514.6,249.6 L513.9,250.5 L513.4,250.3 L513.6,250.8 L513.2,251.3 L513.6,251.8 L513.4,252.3 L512.7,252.5 L512.8,253.3 L512.3,253.4 L512.0,253.1 L511.9,253.0 L511.6,253.0 L511.7,252.6 L511.0,252.7 L511.0,253.2 L511.9,253.0 L512.2,253.5 L511.3,253.6 L511.4,254.3 L510.8,254.4 L511.2,254.8 L510.2,254.9 L510.7,255.4 L510.7,256.2 L509.2,256.9 L510.4,255.4 L509.6,255.4 L509.4,256.2 L508.9,256.0 L509.2,255.1 L508.7,255.7 L508.3,255.3 L508.5,255.9 L507.9,255.4 L507.6,255.7 L507.9,256.6 L508.9,256.6 L508.9,257.5 L508.2,257.0 L507.7,257.2 L508.1,257.3 L508.3,258.0 L509.1,257.4 L509.7,257.7 L508.2,258.2 L507.1,259.8 L505.2,258.9 L506.4,260.0 L507.0,259.9 L507.4,259.4 L508.4,259.7 L507.7,260.3 L507.8,261.3 L507.1,261.3 L507.3,262.0 L507.8,261.9 L508.2,263.1 L507.8,263.2 L507.7,262.5 L507.2,263.0 L507.4,262.5 L507.1,262.7 L506.7,261.8 L506.3,261.8 L505.2,262.8 L505.8,263.1 L505.7,263.6 L506.1,263.2 L506.5,263.7 L506.0,264.1 L505.3,263.9 L505.2,264.4 L504.8,264.3 L505.0,263.8 L504.5,263.8 L504.8,263.5 L504.0,263.7 L504.5,264.0 L503.9,264.6 L504.4,265.0 L504.7,264.7 L504.8,265.2 L504.2,265.2 L504.4,265.7 L503.2,265.8 L502.9,265.2 L502.9,265.7 L502.4,265.6 L502.7,266.2 L503.4,266.3 L502.8,266.7 L502.6,267.4 L502.3,267.6 L501.6,266.6 L501.5,267.1 L500.5,267.4 L500.2,266.6 L499.9,267.2 L499.2,267.4 L499.6,267.6 L499.4,268.0 L498.2,267.8 L498.8,268.3 L499.6,268.2 L499.4,268.6 L499.8,268.5 L500.0,268.9 L498.8,269.3 L498.8,270.2 L498.0,270.8 L498.3,270.2 L497.6,270.0 L497.7,270.6 L497.2,271.7 L497.0,270.8 L496.2,270.6 L496.6,271.2 L495.5,271.5 L495.4,272.4 L495.2,272.0 L494.4,272.7 L494.4,272.2 L493.6,272.1 L492.8,273.8 L491.5,273.4 L491.7,273.9 L492.7,273.9 L493.0,274.4 L492.2,274.2 L492.5,274.4 L492.1,274.8 L491.9,274.4 L491.4,274.4 L491.9,274.5 L491.3,276.0 L489.8,275.8 L490.2,275.9 L489.4,276.5 L488.9,276.0 L489.1,276.4 L487.7,277.0 L487.0,276.3 L487.2,276.0 L486.3,276.5 L486.3,276.2 L485.5,276.1 L485.8,276.5 L486.3,276.5 L486.6,276.4 L486.1,276.9 L486.4,277.4 L485.3,277.3 L485.5,276.8 L484.6,276.8 L485.0,276.2 L483.3,277.3 L482.6,276.9 L483.2,277.4 L482.8,278.1 L482.0,277.7 L482.1,276.6 L480.8,277.2 L480.7,277.6 L481.1,277.6 L480.6,278.0 L481.3,278.3 L480.8,278.6 L480.1,277.7 L477.8,278.1 L477.4,278.6 L476.7,277.0 L476.3,277.0 L475.9,276.5 L476.1,275.5 L475.8,276.1 L476.0,275.5 L475.7,276.0 L475.8,275.6 L475.5,275.6 L475.8,275.1 L477.1,275.0 L474.9,275.1 L475.3,275.6 L475.2,276.1 L473.8,276.2 L475.3,276.9 L474.7,276.9 L475.9,277.9 L475.8,279.7 L475.2,280.2 L473.5,277.9 L474.8,280.0 L474.3,280.0 L473.5,280.9 L473.1,279.9 L472.8,281.3 L472.2,281.8 L471.7,281.2 L470.3,282.2 L469.6,281.8 L470.0,281.2 L469.4,281.2 L469.5,280.6 L469.2,281.1 L469.5,282.1 L468.9,282.6 L468.3,282.3 L468.4,281.8 L467.5,282.1 L467.6,281.6 L467.2,281.9 L466.7,281.4 L466.8,282.0 L467.3,282.2 L466.6,282.7 L466.5,282.2 L465.6,282.2 L466.2,283.0 L465.4,283.5 L465.1,283.2 L464.5,283.6 L464.3,283.1 L464.3,283.5 L463.4,284.0 L463.6,283.7 L462.5,283.8 L462.1,283.4 L461.9,284.0 L462.2,283.7 L462.4,283.8 L462.0,284.1 L460.8,284.2 L460.1,284.9 L460.1,284.4 L460.7,284.1 L460.7,284.0 L460.1,284.3 L460.1,285.1 L459.0,285.3 L459.3,284.5 L459.0,284.7 L458.6,284.0 L458.8,285.4 L457.7,286.0 L457.5,287.1 L458.6,287.1 L458.9,287.7 L458.6,287.8 L458.5,287.3 L458.3,288.2 L459.5,289.1 L458.2,290.3 L456.9,290.1 L456.2,290.4 L455.9,289.5 L456.6,289.8 L456.7,289.4 L455.7,288.9 L455.9,288.5 L455.3,288.1 L455.9,287.9 L455.5,288.0 L455.4,287.1 L455.2,287.4 L454.9,286.7 L455.4,284.4 L456.3,284.4 L456.4,283.7 L455.7,283.9 L455.5,283.2 L455.5,283.7 L454.8,283.6 L454.9,283.0 L454.6,283.3 L454.5,282.4 L453.8,282.8 L454.4,283.2 L454.2,283.7 L452.6,284.0 L452.6,283.7 L452.1,284.2 L451.5,283.9 L452.1,283.6 L452.1,283.1 L450.9,283.1 L450.6,282.7 L450.9,282.2 L450.3,282.0 L450.5,282.4 L450.2,282.5 L450.6,282.9 L450.0,283.1 L449.9,282.4 L449.6,282.6 L449.5,282.4 L449.6,282.0 L449.2,282.4 L449.4,281.6 L449.1,281.3 L448.6,281.8 L448.4,281.4 L448.5,282.6 L449.0,282.7 L448.5,283.3 L448.1,283.3 L448.5,282.8 L447.8,282.5 L447.5,283.4 L447.1,283.7 L447.3,283.2 L447.1,282.9 L446.0,283.4 L446.4,283.7 L445.8,284.0 L445.0,282.9 L442.5,283.1 L442.1,282.5 L440.7,282.0 L440.7,281.4 L438.8,281.2 L438.9,279.8 L438.1,278.7 L438.4,277.8 L439.0,277.9 L439.5,276.7 L437.9,276.1 L436.7,276.4 L436.0,275.8 L434.6,276.2 L432.9,275.3 L431.7,273.7 L431.1,274.3 L429.3,274.8 L428.9,275.2 L429.1,276.1 L428.4,276.6 L427.6,276.5 L426.5,277.3 L425.9,277.0 L426.0,276.6 L425.1,276.8 L424.5,278.3 L422.8,276.7 L422.0,277.9 L421.0,276.8 L419.5,278.7 L416.5,276.9 L415.2,278.8 L414.0,278.6 L413.3,279.0 L412.3,278.4 L411.4,279.7 L413.0,283.0 L412.6,283.3 L412.5,284.6 L413.1,285.1 L412.7,285.6 L411.4,285.0 L410.0,285.3 L409.1,282.2 L406.6,283.8 L405.2,283.5 L404.2,284.0 L403.8,283.4 L404.1,282.8 L403.1,282.5 L403.0,280.8 L398.8,280.2 L399.9,278.4 L399.6,277.0 L400.2,276.0 L400.9,276.1 L400.6,275.4 L399.8,275.0 L399.2,275.4 L397.2,274.7 L397.4,273.5 L396.8,272.8 L397.2,272.4 L396.9,271.6 L396.2,271.4 L396.2,270.5 L397.3,269.6 L395.8,269.9 L393.2,269.8 L390.7,271.2 L390.1,270.6 L391.2,269.4 L390.8,268.0 L390.1,268.0 L390.2,266.4 L391.4,265.9 L391.1,264.6 L391.7,263.6 L392.2,263.9 L393.2,262.9 L393.4,261.7 L394.3,262.0 L395.3,260.6 L396.3,260.5 L395.6,259.1 L396.4,258.7 L396.1,258.3 L396.7,256.3 L396.3,251.3 L394.9,250.7 L394.7,251.4 L394.2,251.5 L393.2,249.1 L393.3,248.2 L392.1,247.1 L391.4,247.1 L390.9,246.3 L390.1,246.2 L389.7,247.4 L389.1,247.8 L387.9,247.0 L387.2,247.2 L385.8,246.7 L384.0,247.0 L383.6,246.8 L383.8,246.4 L385.2,245.2 L384.4,243.7 L384.0,243.5 L383.0,244.0 L382.9,243.1 L383.7,242.7 L383.9,242.2 L383.3,242.4 L382.8,241.7 L380.9,241.8 L380.5,242.5 L379.7,242.4 L379.3,243.3 L378.6,243.5 L375.5,242.8 L374.7,242.0 L372.9,242.9 L373.2,243.5 L371.3,244.5 L370.9,245.4 L368.4,245.4 L367.7,245.8 L367.0,246.7 L367.1,247.2 L364.3,248.3 L364.1,248.7 L364.6,249.1 L364.3,249.5 L362.3,250.1 L361.9,249.7 L360.4,250.5 L356.9,248.5 L355.6,249.2 L353.6,248.5 L352.5,248.6 L353.1,247.8 L351.6,247.6 L351.2,247.1 L349.6,247.3 L347.7,248.3 L344.6,251.5 L344.5,252.7 L343.4,252.0 L343.9,249.8 L343.7,249.0 L342.6,248.4 L340.0,249.3 L340.0,249.7 L338.5,249.5 L337.9,250.0 L336.0,250.0 L335.9,249.8 L334.8,249.9 L332.3,248.4 L331.6,248.4 L330.9,249.5 L329.7,249.0 L329.5,248.2 L329.0,248.6 L329.3,249.4 L328.6,249.6 L327.0,247.2 L326.6,247.7 L323.8,247.4 L324.2,245.8 L323.6,245.6 L322.3,246.1 L320.4,245.1 L319.1,244.0 L319.2,243.5 L318.5,242.3 L317.5,242.1 L316.1,242.8 L315.5,242.7 L313.6,240.4 L313.0,240.6 L312.5,240.1 L311.8,240.1 L310.2,238.7 L308.2,238.0 L307.8,236.6 L305.3,236.1 L304.7,236.6 L304.1,236.3 L303.9,237.5 L303.2,238.3 L302.5,238.2 L301.9,237.0 L299.8,235.9 L297.6,235.3 L297.9,234.5 L297.5,234.1 L297.0,234.1 L295.8,233.2 L294.4,233.3 L293.5,232.9 L292.0,230.7 L291.7,230.5 L290.9,231.6 L290.0,231.4 L289.7,230.3 L290.4,229.8 L289.6,228.9 L290.0,227.9 L288.4,226.4 L288.1,224.7 L289.9,224.3 L290.1,225.2 L291.0,225.8 L291.7,225.7 L291.9,225.1 L293.0,224.5 L293.7,224.8 L294.6,223.8 L293.1,222.4 L293.8,221.0 L291.9,220.8 L290.4,219.9 Z" fill="#faf5ef" stroke="#8B1A2B" stroke-width="1.3" stroke-linejoin="round"/>
    <path d="M502.1,190.8 L501.9,190.1 L502.8,190.0 L502.1,190.8 Z" fill="#faf5ef" stroke="#8B1A2B" stroke-width="1.3" stroke-linejoin="round"/>
    <path d="M91.2,170.7 L89.5,170.1 L88.8,169.1 L87.9,168.7 L85.1,168.2 L84.5,167.3 L83.3,166.9 L83.6,166.1 L86.8,166.1 L91.7,167.9 L98.4,168.1 L100.2,169.3 L103.6,170.4 L103.2,171.0 L104.3,171.4 L107.4,170.3 L108.3,170.5 L108.8,171.1 L109.2,170.3 L110.8,170.6 L111.7,171.5 L113.9,171.8 L113.4,173.3 L115.1,174.2 L117.5,174.8 L117.1,175.6 L116.3,175.7 L116.4,176.4 L119.0,178.2 L118.5,179.2 L117.9,179.4 L116.6,178.6 L115.2,178.8 L113.8,178.2 L114.0,177.9 L111.5,177.3 L109.8,178.3 L109.0,178.2 L109.2,178.6 L105.6,178.4 L101.7,179.1 L101.4,178.7 L99.9,178.3 L100.3,178.1 L98.1,177.0 L98.3,176.6 L97.1,176.6 L96.5,177.4 L93.7,177.0 L93.0,177.4 L91.4,176.9 L92.8,175.3 L92.7,174.4 L91.2,170.7 Z" fill="#faf5ef" stroke="#8B1A2B" stroke-width="1.3" stroke-linejoin="round"/>
    <path d="M526.0,268.0 L525.8,267.8 L526.1,267.9 L526.0,268.0 Z" fill="#faf5ef" stroke="#8B1A2B" stroke-width="1.3" stroke-linejoin="round"/>
    <path d="M507.7,263.9 L507.1,263.9 L507.0,263.7 L507.7,263.9 Z" fill="#faf5ef" stroke="#8B1A2B" stroke-width="1.3" stroke-linejoin="round"/>
    <path d="M509.2,262.5 L508.4,262.7 L508.3,262.3 L508.8,262.2 L508.4,261.8 L508.6,261.6 L509.3,262.0 L508.9,262.2 L509.2,262.5 Z" fill="#faf5ef" stroke="#8B1A2B" stroke-width="1.3" stroke-linejoin="round"/>
    <path d="M507.6,259.2 L508.0,259.1 L508.1,259.3 L507.6,259.2 Z" fill="#faf5ef" stroke="#8B1A2B" stroke-width="1.3" stroke-linejoin="round"/>
    <path d="M511.7,254.6 L512.0,254.6 L512.1,254.7 L511.7,254.6 Z" fill="#faf5ef" stroke="#8B1A2B" stroke-width="1.3" stroke-linejoin="round"/>
    <path d="M515.9,251.9 L515.7,251.8 L515.9,251.9 L515.9,251.9 Z" fill="#faf5ef" stroke="#8B1A2B" stroke-width="1.3" stroke-linejoin="round"/>
    <path d="M516.3,249.7 L516.2,250.0 L515.9,250.0 L516.3,249.7 Z" fill="#faf5ef" stroke="#8B1A2B" stroke-width="1.3" stroke-linejoin="round"/>
    <path d="M515.7,249.1 L516.1,249.2 L515.5,249.2 L515.7,249.1 Z" fill="#faf5ef" stroke="#8B1A2B" stroke-width="1.3" stroke-linejoin="round"/>
    <path d="M516.6,248.5 L516.1,248.8 L516.0,248.3 L516.6,247.8 L516.6,248.5 Z" fill="#faf5ef" stroke="#8B1A2B" stroke-width="1.3" stroke-linejoin="round"/>
    <path d="M520.3,243.3 L520.0,242.9 L520.4,242.8 L520.3,243.3 Z" fill="#faf5ef" stroke="#8B1A2B" stroke-width="1.3" stroke-linejoin="round"/>
    <path d="M519.9,243.0 L519.5,243.0 L519.5,242.9 L519.9,243.0 Z" fill="#faf5ef" stroke="#8B1A2B" stroke-width="1.3" stroke-linejoin="round"/>
    <path d="M521.7,240.1 L520.9,239.8 L521.0,239.5 L521.7,240.1 Z" fill="#faf5ef" stroke="#8B1A2B" stroke-width="1.3" stroke-linejoin="round"/>
    <path d="M521.9,239.3 L522.3,239.2 L522.3,239.5 L522.2,239.5 L521.9,239.3 Z" fill="#faf5ef" stroke="#8B1A2B" stroke-width="1.3" stroke-linejoin="round"/>
    <path d="M522.8,239.2 L522.4,238.7 L522.5,238.5 L522.8,238.6 L522.8,239.2 Z" fill="#faf5ef" stroke="#8B1A2B" stroke-width="1.3" stroke-linejoin="round"/>
    <path d="M520.4,238.8 L520.5,238.6 L520.6,238.8 L520.4,238.8 Z" fill="#faf5ef" stroke="#8B1A2B" stroke-width="1.3" stroke-linejoin="round"/>
    <path d="M520.2,238.1 L519.7,238.3 L519.9,237.9 L520.2,238.1 Z" fill="#faf5ef" stroke="#8B1A2B" stroke-width="1.3" stroke-linejoin="round"/>
    <path d="M522.3,238.6 L520.7,238.3 L520.5,237.6 L522.2,238.0 L522.3,238.6 Z" fill="#faf5ef" stroke="#8B1A2B" stroke-width="1.3" stroke-linejoin="round"/>
    <path d="M522.1,237.1 L522.7,236.9 L522.9,237.0 L522.1,237.1 Z" fill="#faf5ef" stroke="#8B1A2B" stroke-width="1.3" stroke-linejoin="round"/>
    <path d="M521.8,237.0 L521.4,237.0 L521.1,236.8 L521.8,236.5 L521.8,237.0 Z" fill="#faf5ef" stroke="#8B1A2B" stroke-width="1.3" stroke-linejoin="round"/>
    <path d="M522.5,236.0 L522.2,235.8 L522.9,236.1 L522.5,236.0 Z" fill="#faf5ef" stroke="#8B1A2B" stroke-width="1.3" stroke-linejoin="round"/>
    <path d="M523.5,234.6 L523.0,234.4 L523.5,234.5 L523.5,234.6 Z" fill="#faf5ef" stroke="#8B1A2B" stroke-width="1.3" stroke-linejoin="round"/>
    <path d="M519.8,231.4 L519.6,231.0 L519.6,231.0 L520.0,231.1 L519.8,231.4 Z" fill="#faf5ef" stroke="#8B1A2B" stroke-width="1.3" stroke-linejoin="round"/>
    <path d="M518.5,230.7 L519.2,230.9 L519.5,231.3 L519.4,231.3 L518.5,230.7 Z" fill="#faf5ef" stroke="#8B1A2B" stroke-width="1.3" stroke-linejoin="round"/>
    <path d="M519.5,230.5 L517.0,229.5 L516.3,228.8 L517.4,228.7 L520.6,230.1 L520.5,230.5 L519.5,230.5 Z" fill="#faf5ef" stroke="#8B1A2B" stroke-width="1.3" stroke-linejoin="round"/>
    <path d="M508.9,227.0 L509.0,226.6 L508.5,226.3 L508.7,226.1 L509.1,226.3 L509.5,227.3 L508.9,227.0 Z" fill="#faf5ef" stroke="#8B1A2B" stroke-width="1.3" stroke-linejoin="round"/>
    <path d="M513.9,196.2 L513.9,195.9 L514.0,196.2 L513.9,196.2 Z" fill="#faf5ef" stroke="#8B1A2B" stroke-width="1.3" stroke-linejoin="round"/>
    <path d="M513.3,195.9 L513.3,195.8 L513.3,195.9 L513.3,195.9 Z" fill="#faf5ef" stroke="#8B1A2B" stroke-width="1.3" stroke-linejoin="round"/>
    <path d="M513.7,195.8 L513.8,195.8 L513.9,195.8 L513.7,195.8 Z" fill="#faf5ef" stroke="#8B1A2B" stroke-width="1.3" stroke-linejoin="round"/>
    <path d="M527.0,190.1 L526.8,189.9 L527.0,189.8 L527.0,190.1 Z" fill="#faf5ef" stroke="#8B1A2B" stroke-width="1.3" stroke-linejoin="round"/>
    <path d="M522.8,189.2 L522.7,189.5 L522.4,189.4 L522.8,189.2 Z" fill="#faf5ef" stroke="#8B1A2B" stroke-width="1.3" stroke-linejoin="round"/>
    <path d="M524.6,189.1 L524.4,189.2 L524.1,189.1 L524.6,189.1 Z" fill="#faf5ef" stroke="#8B1A2B" stroke-width="1.3" stroke-linejoin="round"/>
    <path d="M523.6,188.7 L524.3,188.9 L523.4,188.7 L523.6,188.7 Z" fill="#faf5ef" stroke="#8B1A2B" stroke-width="1.3" stroke-linejoin="round"/>
    <path d="M517.7,188.1 L517.5,188.4 L517.1,188.3 L517.3,188.0 L516.7,188.2 L517.1,187.8 L517.7,188.1 Z" fill="#faf5ef" stroke="#8B1A2B" stroke-width="1.3" stroke-linejoin="round"/>
    <path d="M526.2,187.6 L525.8,187.4 L526.2,187.5 L526.2,187.6 Z" fill="#faf5ef" stroke="#8B1A2B" stroke-width="1.3" stroke-linejoin="round"/>
    <path d="M530.5,269.0 L529.6,268.8 L529.6,268.8 L530.1,268.1 L531.0,268.4 L530.5,269.0 Z" fill="#faf5ef" stroke="#8B1A2B" stroke-width="1.3" stroke-linejoin="round"/>
    <path d="M532.6,268.4 L532.1,268.5 L531.8,268.0 L532.5,267.9 L533.0,267.2 L532.6,268.4 Z" fill="#faf5ef" stroke="#8B1A2B" stroke-width="1.3" stroke-linejoin="round"/>
    <path d="M539.1,266.4 L538.0,266.4 L538.1,265.6 L539.1,266.4 Z" fill="#faf5ef" stroke="#8B1A2B" stroke-width="1.3" stroke-linejoin="round"/>
    <path d="M537.5,266.0 L537.6,265.8 L537.8,266.0 L537.5,266.0 Z" fill="#faf5ef" stroke="#8B1A2B" stroke-width="1.3" stroke-linejoin="round"/>
    <path d="M549.2,258.8 L549.2,258.6 L549.3,258.5 L549.2,258.8 Z" fill="#faf5ef" stroke="#8B1A2B" stroke-width="1.3" stroke-linejoin="round"/>
    <path d="M546.2,257.6 L546.1,258.0 L545.7,257.7 L546.2,257.6 Z" fill="#faf5ef" stroke="#8B1A2B" stroke-width="1.3" stroke-linejoin="round"/>
    <path d="M554.4,255.7 L553.4,256.7 L551.9,257.3 L552.2,258.0 L551.8,258.0 L551.6,258.9 L550.8,259.2 L551.2,257.4 L552.5,256.7 L552.0,256.0 L553.0,256.2 L554.0,254.9 L554.4,255.7 Z" fill="#faf5ef" stroke="#8B1A2B" stroke-width="1.3" stroke-linejoin="round"/>
    <path d="M548.5,256.6 L548.6,256.5 L548.6,256.5 L548.5,256.6 Z" fill="#faf5ef" stroke="#8B1A2B" stroke-width="1.3" stroke-linejoin="round"/>
    <path d="M551.4,255.8 L551.7,255.9 L551.4,255.9 L551.4,255.8 Z" fill="#faf5ef" stroke="#8B1A2B" stroke-width="1.3" stroke-linejoin="round"/>
    <path d="M555.0,254.2 L555.0,254.0 L555.1,254.2 L555.0,254.2 Z" fill="#faf5ef" stroke="#8B1A2B" stroke-width="1.3" stroke-linejoin="round"/>
    <path d="M552.6,253.8 L552.5,254.1 L552.3,254.3 L552.3,254.2 L552.6,253.8 Z" fill="#faf5ef" stroke="#8B1A2B" stroke-width="1.3" stroke-linejoin="round"/>
    <path d="M556.4,251.9 L555.9,252.4 L555.5,252.3 L556.4,251.9 Z" fill="#faf5ef" stroke="#8B1A2B" stroke-width="1.3" stroke-linejoin="round"/>
    <path d="M557.9,250.6 L557.4,249.9 L557.7,249.5 L558.2,250.2 L557.9,250.6 Z" fill="#faf5ef" stroke="#8B1A2B" stroke-width="1.3" stroke-linejoin="round"/>
    <path d="M559.9,248.5 L559.2,248.5 L559.0,248.0 L559.9,248.5 Z" fill="#faf5ef" stroke="#8B1A2B" stroke-width="1.3" stroke-linejoin="round"/>
    <path d="M561.7,246.7 L560.4,247.4 L560.0,248.4 L558.8,247.7 L559.4,247.6 L559.4,247.2 L561.4,246.7 L561.6,246.3 L561.7,246.7 Z" fill="#faf5ef" stroke="#8B1A2B" stroke-width="1.3" stroke-linejoin="round"/>
    <path d="M561.2,241.2 L561.3,241.3 L561.2,241.3 L561.2,241.2 Z" fill="#faf5ef" stroke="#8B1A2B" stroke-width="1.3" stroke-linejoin="round"/>
    <path d="M561.8,240.2 L562.0,240.3 L561.8,240.4 L561.8,240.2 Z" fill="#faf5ef" stroke="#8B1A2B" stroke-width="1.3" stroke-linejoin="round"/>
    <path d="M562.6,239.3 L562.7,239.0 L562.9,239.3 L562.6,239.3 Z" fill="#faf5ef" stroke="#8B1A2B" stroke-width="1.3" stroke-linejoin="round"/>
    <path d="M561.8,229.6 L561.5,229.5 L562.2,228.7 L562.3,229.0 L561.8,229.6 Z" fill="#faf5ef" stroke="#8B1A2B" stroke-width="1.3" stroke-linejoin="round"/>
    <path d="M563.0,228.4 L562.7,228.7 L562.4,228.5 L563.0,228.4 Z" fill="#faf5ef" stroke="#8B1A2B" stroke-width="1.3" stroke-linejoin="round"/>
    <path d="M557.5,224.2 L556.8,224.6 L555.9,224.4 L556.2,223.5 L557.0,223.4 L557.5,224.2 Z" fill="#faf5ef" stroke="#8B1A2B" stroke-width="1.3" stroke-linejoin="round"/>
    <path d="M557.4,223.6 L557.1,223.2 L557.5,223.3 L557.4,223.6 Z" fill="#faf5ef" stroke="#8B1A2B" stroke-width="1.3" stroke-linejoin="round"/>
    <path d="M557.7,223.0 L557.7,223.4 L557.4,223.1 L557.7,223.0 Z" fill="#faf5ef" stroke="#8B1A2B" stroke-width="1.3" stroke-linejoin="round"/>
    <path d="M558.1,222.8 L557.8,223.0 L557.9,222.7 L558.1,222.8 Z" fill="#faf5ef" stroke="#8B1A2B" stroke-width="1.3" stroke-linejoin="round"/>
    <path d="M559.0,222.4 L558.3,223.3 L557.9,222.6 L558.4,222.2 L558.6,221.4 L558.5,222.4 L559.0,222.4 Z" fill="#faf5ef" stroke="#8B1A2B" stroke-width="1.3" stroke-linejoin="round"/>
    <path d="M558.8,220.9 L558.5,220.8 L558.7,220.7 L558.8,220.9 Z" fill="#faf5ef" stroke="#8B1A2B" stroke-width="1.3" stroke-linejoin="round"/>
    <path d="M561.0,220.1 L560.4,221.3 L560.0,221.4 L559.8,221.4 L561.0,220.1 Z" fill="#faf5ef" stroke="#8B1A2B" stroke-width="1.3" stroke-linejoin="round"/>
    <path d="M561.0,219.8 L560.9,219.6 L561.1,219.7 L561.0,219.8 Z" fill="#faf5ef" stroke="#8B1A2B" stroke-width="1.3" stroke-linejoin="round"/>
    <path d="M561.8,218.6 L561.4,218.2 L561.7,217.7 L562.3,218.1 L561.8,218.6 Z" fill="#faf5ef" stroke="#8B1A2B" stroke-width="1.3" stroke-linejoin="round"/>
    <path d="M559.8,215.4 L559.3,216.5 L558.9,216.4 L559.1,215.2 L559.8,215.4 Z" fill="#faf5ef" stroke="#8B1A2B" stroke-width="1.3" stroke-linejoin="round"/>
    <path d="M560.5,213.3 L560.0,215.4 L559.6,214.9 L559.2,215.1 L559.7,213.5 L560.5,213.3 Z" fill="#faf5ef" stroke="#8B1A2B" stroke-width="1.3" stroke-linejoin="round"/>
    <path d="M570.0,260.6 L569.9,260.3 L570.1,260.4 L570.0,260.6 Z" fill="#faf5ef" stroke="#8B1A2B" stroke-width="1.3" stroke-linejoin="round"/>
    <path d="M570.3,260.1 L570.3,259.9 L570.4,260.0 L570.3,260.1 Z" fill="#faf5ef" stroke="#8B1A2B" stroke-width="1.3" stroke-linejoin="round"/>
    <path d="M562.9,247.4 L563.2,247.2 L563.5,247.0 L563.3,247.4 L562.9,247.4 Z" fill="#faf5ef" stroke="#8B1A2B" stroke-width="1.3" stroke-linejoin="round"/>
    <path d="M563.0,238.6 L562.9,238.3 L563.1,238.6 L563.0,238.6 Z" fill="#faf5ef" stroke="#8B1A2B" stroke-width="1.3" stroke-linejoin="round"/>
    <path d="M565.9,237.1 L565.3,236.2 L566.0,235.8 L566.9,236.3 L566.6,237.0 L565.9,237.1 Z" fill="#faf5ef" stroke="#8B1A2B" stroke-width="1.3" stroke-linejoin="round"/>
    <path d="M564.5,236.1 L564.1,235.7 L564.7,236.0 L564.5,236.1 Z" fill="#faf5ef" stroke="#8B1A2B" stroke-width="1.3" stroke-linejoin="round"/>
    <path d="M569.0,233.9 L568.5,236.3 L568.0,236.5 L567.9,235.8 L569.0,233.9 Z" fill="#faf5ef" stroke="#8B1A2B" stroke-width="1.3" stroke-linejoin="round"/>
    <path d="M563.0,234.0 L563.0,233.8 L563.1,233.9 L563.0,234.0 Z" fill="#faf5ef" stroke="#8B1A2B" stroke-width="1.3" stroke-linejoin="round"/>
    <path d="M564.1,227.0 L563.9,226.6 L564.0,226.5 L564.4,226.7 L564.1,227.0 Z" fill="#faf5ef" stroke="#8B1A2B" stroke-width="1.3" stroke-linejoin="round"/>
    <path d="M564.7,226.2 L564.5,226.1 L564.7,226.1 L564.7,226.2 Z" fill="#faf5ef" stroke="#8B1A2B" stroke-width="1.3" stroke-linejoin="round"/>
    <path d="M564.4,225.8 L563.3,226.6 L563.1,226.3 L563.7,226.0 L563.2,225.9 L563.3,224.8 L564.3,224.9 L564.4,225.8 Z" fill="#faf5ef" stroke="#8B1A2B" stroke-width="1.3" stroke-linejoin="round"/>
    <path d="M565.4,225.5 L564.5,225.3 L565.8,224.9 L565.4,225.5 Z" fill="#faf5ef" stroke="#8B1A2B" stroke-width="1.3" stroke-linejoin="round"/>
    <path d="M572.0,225.6 L570.5,231.0 L569.0,230.6 L568.7,231.1 L569.4,231.5 L566.8,233.0 L567.6,231.2 L567.0,230.1 L566.5,229.9 L567.4,230.0 L567.5,229.2 L566.8,229.2 L566.2,230.3 L566.3,231.2 L566.9,231.6 L566.5,232.2 L565.7,231.7 L564.5,231.7 L564.0,230.8 L564.6,231.0 L565.1,230.0 L564.2,228.8 L564.6,228.6 L564.3,227.2 L565.0,227.0 L566.1,225.9 L566.9,224.2 L565.7,224.4 L566.7,223.9 L566.6,223.5 L565.7,222.7 L565.6,221.9 L564.6,221.3 L564.0,221.7 L564.5,222.5 L563.9,223.0 L565.1,223.1 L565.3,224.0 L564.2,224.5 L564.0,224.0 L564.4,223.7 L563.8,223.4 L561.9,224.6 L562.6,223.8 L561.4,222.7 L561.6,221.8 L562.4,222.4 L562.2,223.0 L563.4,223.2 L563.0,222.2 L562.0,222.0 L561.8,221.5 L561.6,221.8 L560.9,221.1 L561.1,220.4 L561.6,220.2 L562.5,220.8 L562.6,220.2 L562.2,219.9 L562.6,220.0 L562.6,219.4 L563.4,220.0 L564.2,219.5 L563.8,219.3 L564.4,218.8 L564.9,219.3 L565.4,219.1 L565.5,218.8 L565.2,218.9 L564.9,218.8 L564.9,218.7 L565.4,218.7 L565.9,217.8 L567.0,217.3 L568.1,217.6 L568.7,217.2 L568.5,218.0 L569.2,219.0 L570.6,219.3 L571.4,218.7 L572.2,218.8 L572.6,219.7 L571.8,220.5 L571.4,220.4 L571.4,220.9 L573.5,220.9 L573.0,221.7 L574.0,221.8 L573.5,222.4 L574.4,222.7 L572.4,224.6 L572.6,225.0 L572.0,225.6 Z" fill="#faf5ef" stroke="#8B1A2B" stroke-width="1.3" stroke-linejoin="round"/>
    <path d="M565.8,224.6 L565.5,224.5 L565.7,224.4 L565.8,224.6 Z" fill="#faf5ef" stroke="#8B1A2B" stroke-width="1.3" stroke-linejoin="round"/>
    <path d="M576.9,223.9 L577.0,223.7 L577.0,223.8 L576.9,223.9 Z" fill="#faf5ef" stroke="#8B1A2B" stroke-width="1.3" stroke-linejoin="round"/>
    <path d="M588.7,217.9 L586.3,219.3 L585.6,221.1 L584.3,219.7 L583.3,219.5 L580.9,220.4 L580.5,221.5 L579.3,222.4 L579.3,223.9 L578.9,223.5 L577.3,223.7 L577.8,222.8 L576.7,222.9 L576.5,222.1 L576.0,222.2 L576.6,221.6 L576.1,221.2 L576.9,221.1 L576.8,220.7 L576.0,220.6 L576.2,220.0 L574.1,220.5 L577.6,218.5 L577.8,217.5 L578.9,216.6 L578.8,216.3 L580.0,217.4 L582.1,217.2 L582.8,216.6 L582.3,215.6 L583.1,215.8 L584.3,215.0 L585.4,214.9 L587.0,215.9 L588.1,215.7 L587.9,216.9 L588.4,217.3 L588.1,217.8 L588.7,217.9 Z" fill="#faf5ef" stroke="#8B1A2B" stroke-width="1.3" stroke-linejoin="round"/>
    <path d="M575.4,218.2 L575.2,218.1 L575.5,218.2 L575.4,218.2 Z" fill="#faf5ef" stroke="#8B1A2B" stroke-width="1.3" stroke-linejoin="round"/>
    <path d="M575.2,217.3 L575.7,217.6 L576.5,217.3 L576.0,217.8 L575.2,217.8 L575.2,217.3 Z" fill="#faf5ef" stroke="#8B1A2B" stroke-width="1.3" stroke-linejoin="round"/>
    <path d="M577.4,217.2 L577.1,217.2 L577.4,216.9 L577.4,217.2 Z" fill="#faf5ef" stroke="#8B1A2B" stroke-width="1.3" stroke-linejoin="round"/>
    <path d="M576.4,216.5 L576.9,216.1 L577.0,216.6 L576.4,216.5 Z" fill="#faf5ef" stroke="#8B1A2B" stroke-width="1.3" stroke-linejoin="round"/>
    <path d="M579.5,216.4 L579.5,216.0 L579.9,216.1 L579.5,216.4 Z" fill="#faf5ef" stroke="#8B1A2B" stroke-width="1.3" stroke-linejoin="round"/>
    <path d="M578.1,216.1 L577.7,216.0 L577.7,216.0 L578.1,216.1 Z" fill="#faf5ef" stroke="#8B1A2B" stroke-width="1.3" stroke-linejoin="round"/>
    <path d="M579.1,216.0 L579.2,215.7 L579.5,215.4 L579.6,215.8 L579.1,216.0 Z" fill="#faf5ef" stroke="#8B1A2B" stroke-width="1.3" stroke-linejoin="round"/>
    <path d="M578.9,215.8 L578.5,215.7 L579.0,215.5 L578.9,215.8 Z" fill="#faf5ef" stroke="#8B1A2B" stroke-width="1.3" stroke-linejoin="round"/>
    <path d="M575.6,215.7 L575.6,215.4 L575.8,215.4 L575.6,215.7 Z" fill="#faf5ef" stroke="#8B1A2B" stroke-width="1.3" stroke-linejoin="round"/>
    <path d="M583.2,215.0 L583.0,215.0 L583.2,214.9 L583.2,215.0 Z" fill="#faf5ef" stroke="#8B1A2B" stroke-width="1.3" stroke-linejoin="round"/>
    <path d="M590.0,213.8 L589.4,215.0 L589.8,215.6 L588.6,216.0 L588.3,215.2 L590.0,213.8 Z" fill="#faf5ef" stroke="#8B1A2B" stroke-width="1.3" stroke-linejoin="round"/>
    <path d="M591.3,214.6 L591.2,214.8 L591.1,214.7 L591.3,214.6 Z" fill="#faf5ef" stroke="#8B1A2B" stroke-width="1.3" stroke-linejoin="round"/>
    <path d="M585.1,214.3 L585.1,214.5 L584.9,214.4 L585.1,214.3 Z" fill="#faf5ef" stroke="#8B1A2B" stroke-width="1.3" stroke-linejoin="round"/>
    <path d="M586.6,214.0 L586.0,214.8 L585.5,214.4 L586.6,214.0 Z" fill="#faf5ef" stroke="#8B1A2B" stroke-width="1.3" stroke-linejoin="round"/>
    <path d="M599.6,212.5 L599.7,212.4 L599.7,212.5 L599.6,212.5 Z" fill="#faf5ef" stroke="#8B1A2B" stroke-width="1.3" stroke-linejoin="round"/>
    <path d="M579.5,206.4 L579.5,206.2 L579.8,206.4 L579.5,206.4 Z" fill="#faf5ef" stroke="#8B1A2B" stroke-width="1.3" stroke-linejoin="round"/>
    <path d="M579.8,205.9 L580.0,206.0 L579.8,206.2 L579.8,205.9 Z" fill="#faf5ef" stroke="#8B1A2B" stroke-width="1.3" stroke-linejoin="round"/>
    <path d="M579.8,205.7 L579.3,206.1 L579.1,206.0 L579.8,205.7 Z" fill="#faf5ef" stroke="#8B1A2B" stroke-width="1.3" stroke-linejoin="round"/>
    <path d="M581.1,205.3 L580.4,205.2 L580.5,204.7 L581.2,204.8 L581.1,205.3 Z" fill="#faf5ef" stroke="#8B1A2B" stroke-width="1.3" stroke-linejoin="round"/>
    <path d="M580.7,215.2 L581.0,215.0 L580.7,214.7 L580.3,215.5 L579.7,215.6 L580.2,215.1 L579.8,214.9 L577.0,216.0 L576.8,215.1 L575.8,215.1 L575.2,215.7 L574.9,217.8 L574.3,218.2 L574.5,217.7 L572.8,217.2 L573.1,216.9 L572.6,216.7 L571.0,217.1 L570.7,216.8 L570.0,217.4 L568.9,216.7 L568.2,217.5 L568.0,217.3 L568.1,215.2 L568.8,215.0 L568.4,214.7 L569.6,215.0 L569.6,214.7 L570.0,214.7 L570.2,214.8 L569.9,214.8 L569.8,215.0 L570.9,214.7 L571.8,213.5 L573.2,213.2 L577.4,210.1 L577.4,209.3 L579.8,208.5 L581.0,208.6 L580.7,209.0 L581.5,209.2 L582.4,208.8 L585.9,208.8 L587.5,208.1 L589.6,208.2 L591.2,207.5 L591.6,208.1 L591.0,208.8 L591.3,208.5 L591.7,209.3 L592.5,208.4 L592.8,209.0 L594.4,208.8 L594.3,208.2 L595.2,208.3 L595.1,207.8 L595.4,207.6 L595.7,208.1 L595.9,207.5 L595.1,206.3 L596.0,205.0 L597.4,204.2 L599.0,202.4 L599.4,201.1 L598.9,200.2 L599.5,199.0 L602.5,198.3 L601.9,199.4 L600.7,200.0 L600.4,199.7 L599.9,200.6 L600.9,200.5 L600.7,201.9 L602.3,202.3 L603.1,201.4 L607.3,200.0 L608.9,199.0 L610.6,196.6 L613.6,194.9 L614.0,193.2 L615.5,191.3 L616.6,188.6 L616.8,185.9 L616.2,185.5 L615.4,185.8 L615.1,185.1 L616.0,185.1 L616.7,183.7 L616.8,183.1 L615.9,181.8 L616.9,180.9 L618.1,180.7 L618.4,179.5 L618.8,179.5 L618.0,179.0 L618.5,178.2 L619.1,178.7 L620.0,178.6 L620.4,180.4 L621.2,180.3 L621.4,179.6 L622.7,180.3 L623.5,178.8 L623.1,178.3 L620.8,178.9 L621.5,176.8 L623.5,177.8 L624.5,177.4 L624.1,179.5 L624.3,181.4 L626.4,183.7 L626.5,184.6 L627.1,185.0 L627.4,186.2 L627.1,187.1 L627.5,186.9 L627.7,187.4 L627.1,187.9 L627.6,187.8 L626.8,188.6 L627.2,188.5 L626.5,189.5 L626.9,189.8 L626.4,189.8 L626.5,190.2 L625.9,190.1 L625.9,190.6 L625.4,190.4 L625.6,191.1 L625.1,191.0 L624.8,191.6 L625.0,191.9 L624.5,192.1 L624.9,192.3 L624.5,192.6 L624.9,192.9 L624.5,193.4 L624.9,193.6 L624.8,194.2 L623.6,193.5 L622.9,193.9 L622.4,193.7 L621.8,194.8 L621.6,195.9 L622.1,197.1 L622.0,200.3 L621.8,201.2 L620.6,202.2 L619.7,204.8 L620.1,206.3 L621.4,207.8 L619.2,208.6 L618.7,210.7 L617.4,211.0 L616.3,212.2 L615.4,211.9 L616.0,211.7 L616.0,210.4 L615.5,210.0 L617.2,208.6 L616.6,208.1 L615.5,208.4 L615.4,208.2 L615.5,208.9 L614.8,209.2 L614.8,210.1 L615.3,210.3 L615.0,210.9 L614.6,211.0 L614.2,210.0 L612.3,210.3 L611.7,211.3 L612.1,212.4 L611.3,213.5 L610.5,213.8 L610.0,213.3 L610.1,211.8 L610.8,211.5 L610.3,211.0 L609.0,211.2 L607.2,213.2 L607.2,213.8 L603.6,213.4 L600.8,213.9 L601.1,213.5 L602.5,213.1 L602.2,212.7 L600.8,212.8 L600.6,212.1 L600.2,212.9 L600.5,213.3 L599.9,213.1 L599.7,211.9 L600.1,211.2 L599.8,211.2 L598.8,211.8 L598.1,213.4 L598.3,213.8 L600.2,214.7 L600.1,215.6 L599.1,215.2 L597.1,216.0 L596.5,216.6 L596.8,217.2 L595.9,217.6 L595.1,219.2 L594.1,220.0 L592.4,219.4 L591.7,218.8 L592.1,218.5 L590.3,217.6 L590.9,216.9 L590.7,216.3 L591.0,216.2 L590.3,215.6 L592.0,214.4 L592.2,213.3 L590.2,213.7 L588.6,212.9 L587.3,212.8 L586.6,213.2 L585.8,213.1 L586.2,213.3 L585.5,213.8 L584.6,213.8 L584.3,213.9 L584.9,213.9 L584.3,214.6 L583.6,214.6 L583.2,214.2 L581.8,214.7 L582.0,214.4 L580.7,215.2 Z" fill="#faf5ef" stroke="#8B1A2B" stroke-width="1.3" stroke-linejoin="round"/>
    <path d="M623.5,266.5 L623.7,266.1 L623.9,266.2 L623.5,266.5 Z" fill="#faf5ef" stroke="#8B1A2B" stroke-width="1.3" stroke-linejoin="round"/>
    <path d="M623.6,262.6 L623.5,262.7 L623.5,262.6 L623.6,262.6 Z" fill="#faf5ef" stroke="#8B1A2B" stroke-width="1.3" stroke-linejoin="round"/>
    <path d="M627.9,255.8 L628.2,255.9 L628.3,256.4 L628.1,256.1 L627.9,255.8 Z" fill="#faf5ef" stroke="#8B1A2B" stroke-width="1.3" stroke-linejoin="round"/>
    <path d="M628.5,254.1 L628.6,253.8 L628.6,254.1 L628.5,254.1 Z" fill="#faf5ef" stroke="#8B1A2B" stroke-width="1.3" stroke-linejoin="round"/>
    <path d="M628.4,253.4 L628.3,253.5 L628.4,253.3 L628.4,253.4 Z" fill="#faf5ef" stroke="#8B1A2B" stroke-width="1.3" stroke-linejoin="round"/>
    <path d="M615.9,221.8 L615.5,222.0 L615.3,221.6 L615.9,221.8 Z" fill="#faf5ef" stroke="#8B1A2B" stroke-width="1.3" stroke-linejoin="round"/>
    <path d="M614.4,217.7 L614.7,217.6 L614.7,217.8 L614.4,217.7 Z" fill="#faf5ef" stroke="#8B1A2B" stroke-width="1.3" stroke-linejoin="round"/>
    <path d="M614.3,216.7 L614.0,216.5 L614.3,216.4 L614.3,216.7 Z" fill="#faf5ef" stroke="#8B1A2B" stroke-width="1.3" stroke-linejoin="round"/>
    <path d="M612.8,215.2 L612.7,214.9 L612.9,214.8 L612.8,215.2 Z" fill="#faf5ef" stroke="#8B1A2B" stroke-width="1.3" stroke-linejoin="round"/>
    <path d="M600.0,214.5 L600.1,214.3 L600.2,214.3 L600.0,214.5 Z" fill="#faf5ef" stroke="#8B1A2B" stroke-width="1.3" stroke-linejoin="round"/>
    <path d="M600.2,214.2 L599.9,214.3 L600.2,214.1 L600.2,214.2 Z" fill="#faf5ef" stroke="#8B1A2B" stroke-width="1.3" stroke-linejoin="round"/>
    <path d="M613.6,213.4 L613.2,213.3 L613.2,212.7 L613.7,213.0 L613.6,213.4 Z" fill="#faf5ef" stroke="#8B1A2B" stroke-width="1.3" stroke-linejoin="round"/>
    <path d="M600.9,200.4 L600.2,200.2 L600.9,200.2 L600.9,200.4 Z" fill="#faf5ef" stroke="#8B1A2B" stroke-width="1.3" stroke-linejoin="round"/>
    <path d="M608.7,196.0 L607.1,196.7 L607.8,195.8 L607.3,195.8 L607.3,195.3 L608.6,193.9 L608.3,195.3 L609.1,195.3 L608.7,196.0 Z" fill="#faf5ef" stroke="#8B1A2B" stroke-width="1.3" stroke-linejoin="round"/>
    <path d="M613.2,177.0 L613.3,176.9 L613.4,176.9 L613.2,177.0 Z" fill="#faf5ef" stroke="#8B1A2B" stroke-width="1.3" stroke-linejoin="round"/>
    <path d="M613.8,174.1 L613.5,173.4 L614.3,173.0 L614.0,173.8 L613.8,174.1 Z" fill="#faf5ef" stroke="#8B1A2B" stroke-width="1.3" stroke-linejoin="round"/>
    <path d="M647.7,167.0 L646.7,167.3 L646.2,168.1 L644.1,168.3 L644.2,168.6 L643.3,168.8 L643.4,169.1 L642.3,168.8 L642.0,169.4 L639.7,169.0 L637.4,169.8 L634.5,172.6 L634.0,174.7 L626.4,171.1 L624.3,171.3 L621.9,172.7 L620.6,171.3 L619.3,171.2 L618.4,172.0 L618.2,172.9 L619.6,173.8 L620.5,173.6 L623.1,175.4 L622.0,175.9 L620.4,175.7 L620.2,175.3 L619.1,176.0 L619.0,176.8 L617.8,177.5 L616.9,177.3 L616.6,176.6 L617.4,174.4 L615.4,172.7 L616.0,170.8 L617.7,170.0 L618.2,170.3 L619.4,169.0 L618.5,167.9 L618.6,167.3 L619.3,167.0 L620.9,168.0 L622.1,167.8 L622.9,168.2 L624.3,167.3 L623.8,165.2 L625.4,164.0 L625.5,162.2 L626.2,160.2 L625.1,157.0 L625.6,155.9 L626.4,156.1 L627.0,155.6 L632.6,160.5 L634.8,162.0 L636.8,162.7 L636.3,162.7 L636.6,163.1 L638.6,163.0 L638.8,163.6 L639.3,163.0 L640.0,163.9 L641.9,164.1 L645.2,161.8 L645.3,162.3 L643.7,164.9 L645.4,167.4 L644.7,167.3 L646.1,167.8 L646.8,167.0 L647.7,167.0 Z" fill="#faf5ef" stroke="#8B1A2B" stroke-width="1.3" stroke-linejoin="round"/>
    <path d="M644.8,166.2 L645.1,166.0 L644.4,165.7 L645.3,166.0 L644.8,166.2 Z" fill="#faf5ef" stroke="#8B1A2B" stroke-width="1.3" stroke-linejoin="round"/>
    <path d="M637.0,162.7 L637.5,162.9 L637.9,162.9 L637.4,162.9 L637.0,162.7 Z" fill="#faf5ef" stroke="#8B1A2B" stroke-width="1.3" stroke-linejoin="round"/>
    <path d="M623.3,157.8 L622.7,157.4 L622.9,157.1 L623.8,157.5 L623.3,157.8 Z" fill="#faf5ef" stroke="#8B1A2B" stroke-width="1.3" stroke-linejoin="round"/>
    <path d="M622.2,156.8 L622.0,156.5 L621.9,155.8 L622.4,156.0 L622.2,156.8 Z" fill="#faf5ef" stroke="#8B1A2B" stroke-width="1.3" stroke-linejoin="round"/></g>
  <g>    <path class="region-area" d="M111.6,171.3 L113.7,171.6 L113.9,171.9 L113.4,173.3 L114.7,173.8 L115.1,174.2 L115.6,174.2 L115.9,174.4 L116.5,174.4 L117.6,174.9 L117.0,175.6 L116.3,175.7 L116.3,176.2 L116.5,176.5 L116.7,176.4 L117.0,177.0 L118.5,177.7 L119.0,178.2 L118.5,179.2 L118.2,179.1 L117.9,179.4 L116.5,178.6 L115.4,178.8 L114.4,178.6 L113.7,178.1 L114.0,177.9 L112.5,177.4 L111.8,177.3 L111.5,176.8 L111.1,176.7 L111.0,176.5 L111.2,176.2 L111.1,175.7 L110.1,175.0 L110.4,174.8 L111.1,174.9 L110.4,174.6 L110.3,173.8 L110.7,173.0 L111.1,172.7 L111.2,172.2 L111.4,171.5 L111.6,171.3 Z" fill="rgba(139,26,43,0.15)" stroke="rgba(139,26,43,0.4)" stroke-width="0.5"/>
    <path class="region-area" d="M61.6,219.9 L60.8,220.1 L60.5,219.8 L60.1,220.0 L59.9,219.6 L60.7,218.5 L60.6,218.4 L61.0,218.2 L60.8,218.0 L61.8,217.0 L62.1,216.2 L62.2,216.2 L63.3,214.6 L63.6,214.4 L64.3,214.4 L64.8,214.8 L64.8,215.1 L65.1,215.4 L65.0,215.6 L65.2,215.9 L64.5,216.7 L64.1,216.8 L63.5,217.3 L63.4,217.5 L64.0,217.8 L63.9,217.9 L62.7,217.8 L62.0,218.3 L61.6,218.9 L62.2,219.1 L62.2,219.3 L61.6,219.5 L61.6,219.9 Z" fill="rgba(139,26,43,0.15)" stroke="rgba(139,26,43,0.4)" stroke-width="0.5"/>
    <path class="region-area" d="M607.9,206.6 L608.3,206.7 L608.4,206.9 L609.1,206.9 L609.4,207.1 L609.8,206.9 L610.9,207.2 L611.3,207.8 L612.0,208.2 L611.9,208.9 L611.0,209.3 L610.8,209.6 L610.4,209.7 L609.7,209.8 L608.9,209.4 L608.7,210.6 L608.5,210.8 L608.2,210.8 L607.8,210.1 L607.3,210.0 L607.3,208.9 L606.9,207.9 L607.2,207.1 L607.5,207.1 L607.9,206.6 Z" fill="rgba(139,26,43,0.15)" stroke="rgba(139,26,43,0.4)" stroke-width="0.5"/></g>
  <g>    <circle cx="114.1" cy="175.6" r="9" fill="#8B1A2B" stroke="#fff" stroke-width="0.8"/>
    <text x="114.1" y="179.1" text-anchor="middle" font-family="Inter, sans-serif" font-size="9" font-weight="700" fill="#fff">1</text>
    <circle cx="62.7" cy="217.0" r="9" fill="#8B1A2B" stroke="#fff" stroke-width="0.8"/>
    <text x="62.7" y="220.5" text-anchor="middle" font-family="Inter, sans-serif" font-size="9" font-weight="700" fill="#fff">2</text>
    <circle cx="609.2" cy="208.5" r="9" fill="#8B1A2B" stroke="#fff" stroke-width="0.8"/>
    <text x="609.2" y="212.0" text-anchor="middle" font-family="Inter, sans-serif" font-size="9" font-weight="700" fill="#fff">3</text></g>
  <line x1="28" y1="332" x2="672" y2="332" stroke="#8B1A2B" stroke-width="0.3" opacity="0.25"/>
  <text x="32" y="340" font-family="Inter, sans-serif" font-size="8.5" fill="#2D1B14"><tspan font-weight="700">1. Georgien</tspan> : Saperavi, Rkatsiteli</text>
  <text x="32" y="355" font-family="Inter, sans-serif" font-size="8.5" fill="#2D1B14"><tspan font-weight="700">2. Libanon</tspan> : Cab Sauv, Cinsault, Obaideh</text>
  <text x="32" y="370" font-family="Inter, sans-serif" font-size="8.5" fill="#2D1B14"><tspan font-weight="700">3. Japan</tspan> : Koshu, Muscat Bailey A</text>
  <text x="350" y="392" text-anchor="middle" font-family="Inter, sans-serif" font-size="7" fill="#b0a89e">Cellar -- Sommelier Companion</text>
</svg>