<svg xmlns="http://www.w3.org/2000/svg" viewBox="0 0 300 635">
  <defs><filter id="shadow"><feDropShadow dx="1" dy="1.5" stdDeviation="2" flood-color="#2D1B14" flood-opacity="0.08"/></filter></defs>
  <text x="150" y="24" text-anchor="middle" font-family="Cormorant Garamond, Georgia, serif" font-size="16" font-weight="400" fill="#2D1B14" letter-spacing="5">PORTUGAL</text>
  <text x="150" y="42" text-anchor="middle" font-family="Inter, sans-serif" font-size="8" fill="#8a7a6a" letter-spacing="1" class="region-label">Placera regionerna och namnge de viktigaste druvorna</text>
  <g filter="url(#shadow)">    <path d="M203.7,340.4 L200.9,340.8 L199.2,342.5 L193.8,345.7 L193.0,347.2 L192.4,350.6 L192.5,351.7 L193.8,352.9 L190.9,356.6 L189.3,360.4 L190.0,361.1 L189.9,361.8 L188.4,363.2 L191.0,364.5 L197.3,370.9 L198.2,372.5 L200.0,373.7 L202.4,378.5 L203.8,379.6 L206.2,379.3 L207.7,378.8 L208.4,378.0 L212.1,377.6 L213.1,378.2 L208.6,388.6 L207.0,388.8 L202.6,387.6 L200.4,390.2 L198.9,390.7 L196.6,390.4 L193.6,391.4 L193.9,393.0 L191.6,399.0 L189.9,401.3 L184.4,405.0 L183.4,406.2 L181.7,411.8 L179.1,413.9 L179.0,415.1 L178.2,416.0 L179.1,418.2 L181.4,420.3 L181.9,421.5 L182.3,424.9 L183.3,426.8 L184.3,433.5 L183.9,434.4 L184.2,435.8 L185.1,438.4 L186.0,439.3 L185.5,440.1 L183.3,439.2 L179.3,439.7 L172.4,443.2 L160.8,450.1 L153.0,449.2 L152.5,449.8 L150.5,449.2 L151.4,450.8 L150.0,449.2 L147.9,447.7 L143.6,445.8 L139.3,444.7 L132.4,445.3 L128.1,444.1 L123.7,445.0 L117.8,442.9 L115.2,442.6 L111.5,442.9 L108.8,445.0 L105.1,445.0 L102.1,446.3 L99.8,446.6 L98.5,447.6 L97.3,447.2 L93.2,449.5 L91.0,448.4 L90.1,448.7 L90.9,446.2 L93.5,442.9 L95.2,439.8 L94.6,438.0 L97.1,436.1 L98.0,433.4 L97.0,431.4 L99.7,428.4 L101.0,424.9 L102.1,420.6 L102.3,417.9 L100.4,414.0 L102.0,408.1 L104.5,407.6 L104.9,406.2 L101.5,406.6 L101.0,405.6 L102.2,399.3 L101.7,395.9 L100.8,394.4 L98.8,394.1 L96.3,392.8 L97.9,391.6 L101.1,386.3 L103.5,378.8 L102.3,368.4 L100.7,366.1 L97.3,363.1 L93.4,361.1 L94.4,360.4 L95.7,360.8 L97.9,362.3 L102.0,363.7 L102.1,364.4 L104.6,364.4 L110.6,365.6 L113.6,364.9 L110.2,364.5 L105.8,362.9 L104.8,360.7 L105.8,358.7 L104.3,357.7 L104.5,356.2 L103.6,356.1 L102.4,358.0 L101.2,358.3 L101.2,358.7 L102.6,358.8 L103.2,359.7 L103.2,360.7 L102.7,361.1 L100.1,360.8 L95.7,359.3 L92.7,359.7 L90.0,362.1 L90.5,362.4 L87.1,363.6 L81.3,364.1 L78.0,365.3 L76.2,364.9 L76.1,363.7 L78.6,361.6 L79.0,356.9 L74.8,350.1 L75.9,349.6 L81.3,349.1 L83.5,350.5 L83.2,349.2 L86.9,348.4 L88.7,346.4 L93.4,343.5 L91.8,339.9 L92.2,339.0 L90.8,339.0 L89.3,335.2 L93.4,329.1 L95.5,327.8 L100.4,327.0 L102.6,325.8 L104.1,324.1 L99.8,326.6 L94.6,327.0 L93.8,327.6 L89.8,332.5 L86.5,337.7 L84.0,340.2 L83.6,341.2 L84.1,345.7 L83.2,347.1 L76.8,348.4 L72.9,348.1 L70.7,349.8 L65.7,347.8 L61.7,347.9 L60.5,347.5 L60.9,345.3 L60.2,341.4 L62.7,339.0 L64.6,334.1 L64.5,330.5 L63.8,328.2 L64.6,325.3 L68.9,318.2 L69.6,314.0 L68.8,311.0 L65.4,307.5 L68.8,307.9 L74.4,304.9 L75.6,304.8 L76.9,305.6 L77.6,305.1 L76.2,303.6 L79.0,300.4 L81.9,299.0 L84.6,295.2 L84.6,293.1 L85.7,289.2 L97.9,262.5 L98.8,261.6 L100.5,262.8 L102.9,262.9 L102.9,262.4 L101.0,261.2 L96.2,260.1 L95.5,258.0 L98.1,253.5 L102.1,241.5 L104.8,231.6 L105.3,231.2 L105.3,232.9 L107.4,230.8 L108.6,231.2 L108.2,229.6 L108.8,229.3 L109.7,230.0 L110.3,229.8 L111.5,228.4 L110.0,227.2 L110.2,226.6 L113.8,225.9 L115.6,224.7 L111.6,225.6 L109.9,225.2 L109.0,223.0 L111.3,220.6 L110.7,219.3 L110.2,221.1 L109.8,221.3 L109.5,220.5 L108.6,221.8 L107.1,227.5 L105.0,230.8 L110.7,210.4 L110.0,202.0 L111.1,200.8 L108.9,200.4 L105.8,195.0 L106.1,194.2 L105.3,192.2 L105.3,190.3 L103.0,186.4 L102.9,183.9 L103.5,181.9 L102.8,180.5 L100.2,169.7 L100.4,169.0 L105.4,168.2 L108.2,166.7 L100.2,168.3 L98.3,167.7 L97.2,165.8 L97.7,161.4 L97.3,159.7 L97.9,158.5 L104.2,154.1 L105.0,151.9 L109.8,150.0 L110.8,148.1 L112.4,146.9 L115.6,146.7 L119.9,145.0 L129.2,143.9 L132.3,142.2 L134.9,141.7 L136.7,140.8 L137.7,142.3 L137.8,145.8 L138.5,146.3 L141.7,145.6 L143.8,146.7 L144.3,147.5 L143.5,149.3 L139.1,152.1 L136.8,154.6 L136.1,156.8 L136.8,157.9 L139.4,159.0 L139.2,161.4 L144.4,161.6 L147.1,161.0 L150.4,158.2 L153.3,158.0 L154.5,155.5 L155.6,155.2 L156.2,158.5 L158.1,158.5 L159.0,157.5 L165.0,156.7 L166.7,156.0 L170.3,157.5 L173.6,157.6 L172.6,159.5 L172.7,160.1 L173.6,160.5 L177.2,160.1 L178.1,159.6 L179.0,158.1 L181.8,158.8 L183.4,161.6 L186.5,159.5 L190.7,159.3 L196.9,157.3 L198.1,155.9 L198.0,152.2 L200.4,150.9 L201.3,150.8 L206.9,153.5 L210.5,152.0 L213.3,153.4 L218.7,153.4 L220.1,152.8 L220.5,151.0 L222.3,151.2 L224.5,153.7 L226.3,154.1 L232.6,153.5 L233.4,152.3 L235.7,153.4 L235.9,154.4 L235.5,157.0 L238.5,158.0 L236.4,164.0 L235.4,165.6 L236.7,169.5 L237.5,170.5 L239.8,170.8 L242.4,169.4 L248.0,170.2 L253.7,172.3 L257.6,175.8 L253.2,180.2 L252.8,180.8 L253.0,182.1 L250.7,185.3 L248.9,185.4 L247.3,186.2 L247.3,187.4 L246.0,187.4 L244.1,189.7 L240.2,192.3 L236.2,193.8 L231.2,193.9 L227.6,198.3 L224.7,200.5 L224.1,203.5 L221.7,206.1 L220.9,206.8 L219.3,206.9 L215.6,206.6 L214.3,207.1 L213.5,209.0 L213.6,209.8 L216.9,213.1 L218.7,216.8 L220.7,217.8 L221.0,218.6 L220.8,219.3 L219.8,219.6 L219.7,224.5 L221.1,231.2 L219.0,235.1 L219.1,236.1 L220.9,238.1 L221.2,239.1 L218.6,243.5 L218.9,245.4 L220.3,247.2 L222.3,248.6 L221.3,250.1 L217.8,252.3 L217.3,254.1 L216.2,254.7 L212.7,254.8 L209.1,256.5 L207.4,259.1 L208.3,262.0 L209.1,262.9 L212.7,263.8 L217.2,269.4 L215.9,271.4 L215.4,274.1 L214.5,274.9 L214.3,278.3 L212.8,280.0 L210.9,280.7 L210.0,281.8 L210.4,283.5 L209.2,285.7 L209.4,287.1 L208.7,288.4 L199.0,289.5 L197.2,289.4 L195.9,288.8 L189.5,289.7 L176.6,289.2 L179.0,294.4 L182.9,297.7 L184.9,298.5 L186.0,300.4 L188.2,301.4 L190.7,302.0 L191.2,302.6 L190.9,305.2 L190.1,306.9 L190.4,309.5 L194.9,313.8 L194.1,314.9 L194.1,316.1 L195.4,318.3 L199.9,319.8 L200.7,320.9 L199.9,322.7 L200.6,323.7 L202.4,324.2 L204.5,323.3 L207.7,323.5 L210.0,324.9 L210.9,326.0 L211.2,327.2 L210.8,328.2 L211.6,329.2 L208.7,333.4 L206.0,335.7 L206.9,336.9 L206.6,338.7 L203.7,340.4 Z" fill="#faf5ef" stroke="#8B1A2B" stroke-width="1.3" stroke-linejoin="round"/></g>
  <g>    <path class="region-area" d="M110.7,209.0 L110.0,202.0 L111.1,200.8 L108.9,200.4 L105.8,195.0 L105.3,190.3 L103.0,186.4 L103.5,181.9 L110.0,183.4 L113.4,185.3 L114.2,186.1 L112.6,187.2 L113.7,189.0 L117.9,188.9 L121.9,187.4 L131.1,188.0 L134.7,186.8 L136.8,185.1 L139.8,186.0 L141.2,187.8 L143.3,189.0 L147.8,190.5 L150.6,189.2 L151.5,187.8 L152.9,190.3 L155.4,191.6 L155.4,193.3 L157.5,195.2 L156.2,200.5 L153.6,201.7 L146.3,203.6 L136.6,203.8 L132.6,205.0 L129.2,207.4 L126.5,207.6 L126.6,209.3 L123.1,206.7 L120.9,209.0 L118.4,208.1 L114.9,209.1 L110.7,209.0 Z" fill="rgba(139,26,43,0.15)" stroke="rgba(139,26,43,0.4)" stroke-width="0.5"/>
    <path class="region-area" d="M236.2,193.8 L231.2,193.9 L227.6,198.3 L224.7,200.5 L224.1,203.5 L221.7,206.1 L219.3,206.9 L210.8,206.8 L205.5,204.8 L204.1,202.6 L204.4,201.1 L202.4,200.1 L203.2,198.5 L199.8,200.5 L190.4,200.5 L188.4,200.0 L185.9,197.6 L184.1,197.0 L184.8,195.6 L186.4,195.2 L186.6,193.2 L187.7,192.2 L187.8,190.9 L191.0,189.6 L188.6,187.7 L188.3,183.5 L191.3,182.0 L193.5,179.0 L195.8,178.2 L194.7,176.1 L194.8,173.7 L196.8,168.7 L199.6,165.2 L197.6,160.0 L198.0,152.2 L201.3,150.8 L206.9,153.5 L210.5,152.0 L215.0,153.7 L220.1,152.8 L220.5,151.0 L222.3,151.2 L224.5,153.7 L226.3,154.1 L232.6,153.5 L233.4,152.3 L234.9,152.7 L235.9,154.4 L235.5,157.0 L238.5,158.0 L235.4,165.6 L237.5,170.5 L239.8,170.8 L242.4,169.4 L248.0,170.2 L253.7,172.3 L257.6,175.8 L253.2,180.2 L253.0,182.1 L250.7,185.3 L248.0,185.7 L247.3,186.2 L247.3,187.4 L246.0,187.4 L242.2,191.2 L236.2,193.8 Z" fill="rgba(139,26,43,0.15)" stroke="rgba(139,26,43,0.4)" stroke-width="0.5"/>
    <path class="region-area" d="M137.6,144.9 L138.5,146.3 L141.7,145.6 L144.3,147.5 L143.5,149.3 L139.1,152.1 L136.2,155.7 L136.8,157.9 L139.4,159.0 L139.2,161.2 L131.1,164.0 L124.9,164.4 L119.8,166.0 L116.9,172.3 L111.8,170.9 L110.3,171.7 L100.8,172.9 L100.4,169.0 L105.4,168.2 L108.2,166.7 L100.2,168.3 L98.3,167.7 L97.2,165.8 L97.5,159.0 L104.2,154.1 L105.0,151.9 L109.8,150.0 L112.4,146.9 L115.6,146.7 L119.9,145.0 L129.2,143.9 L136.7,140.8 L137.7,142.3 L137.6,144.9 Z" fill="rgba(139,26,43,0.15)" stroke="rgba(139,26,43,0.4)" stroke-width="0.5"/>
    <path class="region-area" d="M236.7,193.5 L231.2,193.9 L227.6,198.3 L224.7,200.5 L224.1,203.5 L220.9,206.8 L210.8,206.8 L205.5,204.8 L204.1,202.6 L204.4,201.1 L202.4,200.1 L203.2,198.5 L199.8,200.5 L190.4,200.5 L188.4,200.0 L185.9,197.6 L184.1,197.0 L177.0,199.0 L170.5,199.2 L166.9,200.7 L163.6,200.6 L160.6,198.8 L156.2,200.5 L157.5,195.2 L155.4,193.3 L155.4,191.6 L152.9,190.3 L151.5,187.8 L151.8,186.0 L153.7,183.6 L154.0,181.5 L158.7,178.5 L161.2,175.0 L159.2,173.2 L156.2,174.6 L150.1,173.3 L150.7,169.3 L148.3,167.9 L142.9,168.5 L144.9,166.3 L147.0,161.0 L150.4,158.2 L153.3,158.0 L154.5,155.5 L155.6,155.2 L156.2,158.5 L166.7,156.0 L170.3,157.5 L173.6,157.6 L172.6,159.5 L173.6,160.5 L177.2,160.1 L179.0,158.1 L181.8,158.8 L183.4,161.6 L186.5,159.5 L190.7,159.3 L196.9,157.3 L198.1,155.9 L198.0,152.2 L200.4,150.9 L206.9,153.5 L210.5,152.0 L213.3,153.4 L218.7,153.4 L220.1,152.8 L220.5,151.0 L222.3,151.2 L224.5,153.7 L226.3,154.1 L232.6,153.5 L233.4,152.3 L235.7,153.4 L235.5,157.0 L238.5,158.0 L235.4,165.6 L237.5,170.5 L239.8,170.8 L242.4,169.4 L248.0,170.2 L253.7,172.3 L257.6,175.8 L253.2,180.2 L253.0,182.1 L250.7,185.3 L248.0,185.7 L247.3,186.2 L247.3,187.4 L246.0,187.4 L242.2,191.2 L236.7,193.5 Z" fill="rgba(139,26,43,0.15)" stroke="rgba(139,26,43,0.4)" stroke-width="0.5"/>
    <path class="region-area" d="M177.0,199.0 L185.0,197.1 L188.4,200.0 L192.0,200.4 L189.9,206.1 L190.0,208.8 L187.6,209.4 L190.0,211.6 L189.5,213.7 L187.6,215.1 L184.6,215.0 L185.2,217.8 L183.3,220.8 L182.3,220.8 L178.6,218.0 L176.5,217.7 L175.1,218.6 L172.9,222.3 L175.5,224.9 L174.6,226.3 L175.2,227.2 L177.6,228.9 L175.1,234.4 L175.3,235.7 L168.8,236.9 L159.3,240.4 L154.5,244.2 L143.0,249.7 L137.0,249.6 L135.9,250.8 L129.0,247.7 L128.7,245.8 L130.7,243.3 L130.1,240.9 L134.8,239.1 L133.0,237.2 L131.9,234.4 L135.1,232.9 L132.7,231.7 L132.2,229.3 L130.5,226.4 L133.9,223.5 L135.6,220.9 L135.0,218.7 L140.5,218.3 L143.1,218.8 L143.4,217.7 L142.3,213.8 L144.8,210.0 L144.1,209.4 L142.6,211.0 L141.0,211.1 L136.5,209.4 L136.2,206.8 L132.6,205.0 L138.6,203.5 L146.3,203.6 L153.6,201.7 L159.4,198.9 L165.7,200.8 L170.5,199.2 L177.0,199.0 Z" fill="rgba(139,26,43,0.15)" stroke="rgba(139,26,43,0.4)" stroke-width="0.5"/>
    <path class="region-area" d="M102.9,238.7 L105.0,231.4 L105.3,232.9 L107.4,230.8 L108.6,231.2 L108.2,229.6 L110.3,229.8 L111.5,228.4 L110.0,227.2 L110.2,226.6 L113.8,225.9 L115.6,224.7 L111.6,225.6 L109.9,225.2 L109.0,223.0 L111.3,220.6 L110.7,219.3 L110.2,221.1 L109.5,220.5 L108.6,221.8 L107.1,227.5 L105.0,230.8 L110.7,209.0 L114.9,209.1 L118.4,208.1 L120.9,209.0 L123.1,206.7 L126.6,209.3 L126.5,207.6 L129.2,207.4 L132.6,205.0 L136.2,206.8 L136.5,209.4 L141.0,211.1 L144.7,209.6 L142.3,213.8 L143.4,217.7 L143.1,218.8 L140.5,218.3 L135.0,218.7 L135.6,220.9 L133.9,223.5 L130.5,226.4 L132.2,229.3 L132.7,231.7 L135.1,232.9 L131.9,234.4 L133.0,237.2 L134.8,239.1 L130.1,240.9 L130.7,243.3 L128.7,245.8 L128.5,248.6 L126.0,249.4 L123.0,252.6 L118.7,252.2 L118.8,250.7 L120.8,247.4 L119.7,244.8 L116.1,245.7 L115.4,243.6 L115.8,242.2 L113.5,241.0 L111.5,244.1 L109.5,243.9 L102.9,238.7 Z" fill="rgba(139,26,43,0.15)" stroke="rgba(139,26,43,0.4)" stroke-width="0.5"/>
    <path class="region-area" d="M92.1,341.1 L92.2,339.0 L90.8,339.0 L89.3,335.2 L91.9,331.0 L95.5,327.8 L99.3,327.4 L102.6,325.8 L101.0,327.6 L98.7,328.1 L99.6,329.0 L92.7,339.5 L94.6,343.3 L93.4,343.5 L92.1,341.1 Z" fill="rgba(139,26,43,0.15)" stroke="rgba(139,26,43,0.4)" stroke-width="0.5"/>
    <path class="region-area" d="M93.8,327.6 L84.0,340.2 L84.1,345.7 L83.2,347.1 L76.8,348.4 L72.9,348.1 L70.7,349.8 L65.7,347.8 L60.5,347.5 L60.9,345.3 L60.2,341.4 L62.7,339.0 L64.6,334.1 L63.8,328.2 L64.6,325.3 L68.9,318.2 L69.6,314.0 L68.0,309.8 L65.4,307.5 L68.8,307.9 L74.4,304.9 L76.9,305.6 L77.6,305.1 L76.2,303.6 L79.0,300.4 L81.9,299.0 L84.6,295.2 L85.7,289.2 L95.9,267.2 L101.1,268.7 L103.9,267.8 L108.1,268.1 L112.3,270.2 L116.0,268.3 L116.8,268.8 L117.9,272.6 L122.9,269.3 L124.8,269.1 L126.9,272.6 L125.7,273.9 L126.6,274.0 L129.1,273.3 L131.2,271.5 L133.6,271.4 L132.4,269.0 L135.9,266.2 L137.7,266.7 L139.5,264.8 L140.7,265.4 L141.3,266.3 L141.0,269.0 L143.5,272.1 L142.6,272.7 L142.4,274.7 L141.3,276.5 L137.7,278.7 L134.4,279.3 L132.9,281.4 L133.3,282.3 L130.3,282.0 L130.3,284.0 L123.4,285.5 L121.8,279.8 L114.6,282.8 L110.1,283.6 L109.4,284.5 L109.6,286.7 L111.3,289.3 L108.3,291.5 L109.3,296.6 L107.7,298.1 L105.5,298.3 L106.0,300.1 L104.9,301.2 L96.3,301.8 L93.1,306.1 L91.4,306.6 L90.1,308.3 L91.0,314.4 L95.1,315.3 L97.5,314.7 L101.0,317.9 L96.7,318.9 L95.8,319.7 L102.5,325.1 L99.8,326.6 L93.8,327.6 Z" fill="rgba(139,26,43,0.15)" stroke="rgba(139,26,43,0.4)" stroke-width="0.5"/>
    <path class="region-area" d="M213.1,378.2 L208.6,388.6 L202.6,387.6 L200.4,390.2 L196.6,390.4 L193.6,391.4 L193.9,393.0 L191.6,399.0 L189.9,401.3 L183.4,406.2 L181.7,411.8 L179.1,413.9 L178.2,416.0 L179.1,418.3 L175.9,418.5 L172.8,420.3 L167.6,420.0 L162.9,421.6 L155.5,425.4 L151.1,425.9 L149.9,427.2 L150.6,428.2 L145.8,430.4 L139.8,429.8 L134.6,426.9 L133.2,424.3 L131.7,424.0 L125.2,425.2 L124.1,426.8 L122.0,427.5 L115.6,425.7 L112.7,426.1 L111.8,427.0 L106.8,426.0 L101.5,423.0 L102.3,417.9 L100.4,414.0 L102.0,408.1 L104.5,407.6 L104.9,406.2 L101.5,406.6 L101.0,405.6 L101.9,400.4 L103.1,401.4 L106.0,401.2 L109.0,404.5 L110.1,403.8 L113.2,404.7 L114.6,404.0 L117.1,399.6 L118.7,398.8 L124.1,398.0 L130.3,399.2 L132.0,395.5 L132.4,391.1 L131.4,389.2 L128.4,388.3 L126.4,386.7 L125.9,385.4 L126.5,383.9 L128.2,383.6 L129.9,381.0 L132.3,381.3 L133.4,379.2 L135.5,379.2 L136.1,378.1 L141.9,376.6 L142.2,375.9 L140.3,370.9 L131.5,367.4 L132.7,364.5 L130.8,363.1 L130.1,360.0 L127.9,357.9 L122.3,358.9 L120.0,357.5 L119.2,357.7 L119.0,358.8 L115.8,358.3 L111.7,357.0 L110.9,353.6 L119.5,347.2 L120.1,344.5 L117.2,344.0 L120.1,342.1 L126.7,340.0 L127.5,338.8 L131.3,339.0 L132.4,338.3 L135.0,340.2 L137.5,340.7 L139.9,343.1 L140.9,343.5 L141.9,342.8 L142.2,341.4 L139.5,339.5 L139.5,337.5 L134.5,335.6 L135.9,331.4 L138.2,329.9 L134.7,328.7 L132.5,325.2 L130.0,324.0 L130.0,323.0 L132.5,320.2 L140.8,314.9 L142.3,313.0 L145.3,312.6 L148.6,308.4 L151.9,306.6 L153.0,304.7 L149.4,301.9 L151.9,297.8 L153.8,296.8 L158.6,298.7 L165.6,293.7 L168.3,290.8 L171.7,291.5 L174.8,289.5 L176.6,289.4 L179.0,294.4 L181.9,297.0 L184.9,298.5 L186.9,301.0 L191.2,302.6 L190.1,306.9 L190.4,309.5 L194.9,313.8 L194.1,316.1 L195.4,318.3 L199.9,319.8 L200.7,320.9 L200.0,323.2 L202.4,324.2 L204.5,323.3 L207.7,323.5 L210.9,326.0 L210.8,328.2 L211.6,329.2 L208.7,333.4 L206.0,335.7 L206.9,336.9 L206.6,338.7 L203.7,340.4 L200.9,340.8 L193.2,346.8 L192.5,351.2 L193.8,352.9 L190.9,356.6 L189.3,360.4 L189.9,361.8 L188.4,363.2 L191.0,364.5 L200.0,373.7 L202.4,378.5 L204.7,379.6 L208.4,378.0 L212.1,377.6 L213.1,378.2 Z" fill="rgba(139,26,43,0.15)" stroke="rgba(139,26,43,0.4)" stroke-width="0.5"/>
    <path class="region-area" d="M179.1,418.3 L181.9,421.5 L182.3,424.9 L183.3,426.8 L184.2,435.8 L186.0,439.7 L185.5,440.1 L181.9,439.2 L179.3,439.7 L160.8,450.1 L153.0,449.2 L152.5,449.8 L150.5,449.2 L151.4,450.8 L147.9,447.7 L139.3,444.7 L132.4,445.3 L128.1,444.1 L123.7,445.0 L115.2,442.6 L111.5,442.9 L108.8,445.0 L105.1,445.0 L98.5,447.6 L97.3,447.2 L93.2,449.5 L91.0,448.4 L90.1,448.7 L90.9,446.2 L95.2,439.8 L94.6,438.0 L97.1,436.1 L98.0,433.4 L97.0,431.4 L99.7,428.4 L101.5,423.0 L106.8,426.0 L111.8,427.0 L112.7,426.1 L115.6,425.7 L122.0,427.5 L124.1,426.8 L125.2,425.2 L131.7,424.0 L133.2,424.3 L134.6,426.9 L139.8,429.8 L145.8,430.4 L150.6,428.2 L149.9,427.2 L151.1,425.9 L155.5,425.4 L158.7,423.3 L167.6,420.0 L172.3,420.4 L175.9,418.5 L179.1,418.3 Z" fill="rgba(139,26,43,0.15)" stroke="rgba(139,26,43,0.4)" stroke-width="0.5"/></g>
  <g>    <circle cx="178.9" cy="178.2" r="9" fill="#8B1A2B" stroke="#fff" stroke-width="0.8"/>
    <text x="178.9" y="181.7" text-anchor="middle" font-family="Inter, sans-serif" font-size="9" font-weight="700" fill="#fff">1</text>
    <circle cx="199.7" cy="178.0" r="9" fill="#8B1A2B" stroke="#fff" stroke-width="0.8"/>
    <text x="199.7" y="181.5" text-anchor="middle" font-family="Inter, sans-serif" font-size="9" font-weight="700" fill="#fff">2</text>
    <circle cx="157.8" cy="221.6" r="9" fill="#8B1A2B" stroke="#fff" stroke-width="0.8"/>
    <text x="157.8" y="225.1" text-anchor="middle" font-family="Inter, sans-serif" font-size="9" font-weight="700" fill="#fff">3</text>
    <circle cx="122.1" cy="226.6" r="9" fill="#8B1A2B" stroke="#fff" stroke-width="0.8"/>
    <text x="122.1" y="230.1" text-anchor="middle" font-family="Inter, sans-serif" font-size="9" font-weight="700" fill="#fff">4</text>
    <circle cx="93.0" cy="305.5" r="9" fill="#8B1A2B" stroke="#fff" stroke-width="0.8"/>
    <text x="93.0" y="309.0" text-anchor="middle" font-family="Inter, sans-serif" font-size="9" font-weight="700" fill="#fff">5</text>
    <circle cx="159.8" cy="364.7" r="9" fill="#8B1A2B" stroke="#fff" stroke-width="0.8"/>
    <text x="159.8" y="368.2" text-anchor="middle" font-family="Inter, sans-serif" font-size="9" font-weight="700" fill="#fff">6</text>
    <circle cx="141.5" cy="435.2" r="9" fill="#8B1A2B" stroke="#fff" stroke-width="0.8"/>
    <text x="141.5" y="438.7" text-anchor="middle" font-family="Inter, sans-serif" font-size="9" font-weight="700" fill="#fff">7</text></g>
  <line x1="28" y1="472" x2="272" y2="472" stroke="#8B1A2B" stroke-width="0.3" opacity="0.25"/>
  <text x="32" y="480" font-family="Inter, sans-serif" font-size="8.5" fill="#2D1B14"><tspan font-weight="700">1. Vinho Verde</tspan> : Alvarinho, Loureiro</text>
  <text x="32" y="495" font-family="Inter, sans-serif" font-size="8.5" fill="#2D1B14"><tspan font-weight="700">2. Douro</tspan> : Touriga Nacional, Tinta Roriz</text>
  <text x="32" y="510" font-family="Inter, sans-serif" font-size="8.5" fill="#2D1B14"><tspan font-weight="700">3. Dao</tspan> : Touriga Nacional, Encruzado</text>
  <text x="32" y="525" font-family="Inter, sans-serif" font-size="8.5" fill="#2D1B14"><tspan font-weight="700">4. Bairrada</tspan> : Baga, Arinto</text>
  <text x="32" y="540" font-family="Inter, sans-serif" font-size="8.5" fill="#2D1B14"><tspan font-weight="700">5. Lisboa</tspan> : Arinto, Castelao</text>
  <text x="32" y="555" font-family="Inter, sans-serif" font-size="8.5" fill="#2D1B14"><tspan font-weight="700">6. Alentejo</tspan> : Aragonez, Trincadeira</text>
  <text x="32" y="570" font-family="Inter, sans-serif" font-size="8.5" fill="#2D1B14"><tspan font-weight="700">7. Algarve</tspan> : Negra Mole, Castelao</text>
  <text x="150" y="627" text-anchor="middle" font-family="Inter, sans-serif" font-size="7" fill="#b0a89e">Cellar -- Sommelier Companion</text>
</svg>