<svg xmlns="http://www.w3.org/2000/svg" viewBox="0 0 550 684">
  <defs><filter id="shadow"><feDropShadow dx="1" dy="1.5" stdDeviation="2" flood-color="#2D1B14" flood-opacity="0.08"/></filter></defs>
  <text x="275" y="24" text-anchor="middle" font-family="Cormorant Garamond, Georgia, serif" font-size="16" font-weight="400" fill="#2D1B14" letter-spacing="5">SPANIEN</text>
  <text x="275" y="42" text-anchor="middle" font-family="Inter, sans-serif" font-size="8" fill="#8a7a6a" letter-spacing="1" class="region-label">Placera regionerna och namnge de viktigaste druvorna</text>
  <g filter="url(#shadow)">    <path d="M298.1,198.1 L298.0,199.5 L299.3,200.3 L299.6,201.2 L301.7,200.7 L302.6,200.9 L302.9,201.1 L303.1,202.3 L303.7,202.6 L304.8,202.4 L305.2,201.6 L305.7,201.4 L307.4,201.6 L308.8,202.1 L309.9,202.0 L310.8,202.7 L310.9,203.9 L310.1,206.2 L308.1,208.0 L309.1,209.2 L310.6,209.7 L312.0,209.6 L312.6,207.6 L313.9,207.0 L314.7,207.1 L313.7,208.0 L314.4,208.9 L316.9,209.4 L319.1,210.5 L320.3,210.4 L321.4,210.9 L323.1,211.1 L324.6,212.1 L325.9,212.4 L328.5,212.5 L331.0,212.2 L331.9,212.4 L332.5,213.6 L332.3,214.1 L332.5,214.4 L332.8,214.7 L333.8,214.7 L335.5,215.6 L336.8,216.8 L336.7,217.2 L337.6,217.3 L337.8,217.9 L338.1,218.1 L339.2,217.7 L339.2,216.9 L340.1,217.0 L341.8,217.6 L342.8,217.5 L345.2,216.2 L345.7,216.4 L346.1,215.8 L348.6,217.0 L349.0,217.6 L349.9,217.7 L351.4,217.4 L351.5,218.5 L352.6,219.5 L352.8,219.9 L355.4,221.0 L362.2,219.6 L364.5,220.1 L365.7,221.5 L366.1,221.4 L367.6,220.1 L368.2,219.9 L369.1,220.5 L369.4,221.0 L370.0,221.0 L371.9,220.8 L378.1,220.9 L378.4,220.0 L377.8,219.1 L377.4,219.0 L377.9,218.4 L377.6,218.0 L378.0,217.1 L378.1,215.9 L379.8,215.7 L383.2,216.2 L386.8,217.7 L387.7,217.3 L388.8,217.8 L392.2,218.1 L392.8,218.5 L393.7,219.9 L394.3,220.2 L395.7,220.0 L400.5,220.2 L400.4,220.6 L401.1,220.9 L403.4,223.9 L403.0,224.7 L403.3,225.0 L402.6,226.0 L403.3,226.0 L403.9,226.4 L404.0,226.9 L402.6,227.4 L403.6,228.5 L403.6,228.9 L404.0,229.1 L406.2,229.3 L407.1,228.6 L410.2,228.1 L410.7,227.1 L411.8,227.3 L412.4,226.9 L413.2,227.4 L415.2,227.6 L417.7,228.7 L419.6,229.1 L420.8,231.3 L422.3,232.0 L424.1,231.6 L425.4,230.8 L426.0,229.9 L426.5,229.7 L428.0,229.9 L431.1,229.3 L434.3,230.6 L435.8,230.8 L436.6,231.8 L438.8,232.7 L439.4,232.5 L439.9,231.8 L443.6,232.3 L442.9,231.2 L444.6,230.1 L445.1,229.8 L447.8,229.9 L449.8,228.7 L451.4,228.6 L452.5,228.0 L453.6,228.3 L454.1,228.0 L455.6,228.1 L456.4,229.0 L457.5,229.4 L460.6,229.2 L460.2,230.4 L460.4,231.4 L460.8,231.9 L461.3,232.2 L462.8,232.1 L463.3,232.6 L464.3,232.4 L465.0,232.8 L464.3,233.9 L464.0,234.7 L463.3,235.5 L462.7,235.3 L461.5,235.5 L460.5,235.2 L460.2,234.9 L459.6,234.9 L458.9,235.5 L458.5,236.2 L458.5,238.2 L458.7,238.7 L460.3,239.7 L461.7,241.1 L461.1,242.3 L461.5,243.7 L462.4,244.5 L462.3,245.1 L461.0,247.0 L459.6,248.4 L458.5,248.3 L457.2,249.0 L456.9,249.9 L453.1,252.0 L452.5,252.7 L449.4,253.3 L448.6,254.1 L447.9,254.1 L447.4,254.9 L436.7,258.5 L434.1,260.0 L430.7,261.3 L428.3,264.3 L426.3,266.1 L422.6,267.3 L420.4,267.5 L417.2,268.3 L416.1,268.3 L409.7,269.7 L406.9,269.9 L398.7,272.2 L396.4,272.6 L395.0,274.1 L394.0,273.7 L392.5,273.7 L389.9,274.3 L389.0,274.7 L385.3,277.5 L383.5,279.3 L380.0,282.0 L379.4,283.0 L381.2,283.7 L381.7,283.5 L381.2,283.0 L381.7,283.0 L384.2,284.8 L385.2,284.9 L385.2,285.6 L384.7,286.2 L384.4,286.6 L382.3,287.1 L381.4,287.7 L379.8,289.6 L378.8,290.2 L376.8,290.6 L376.0,289.7 L377.6,289.5 L378.3,289.9 L379.4,289.4 L380.6,288.0 L379.0,287.9 L376.3,288.6 L375.1,289.4 L373.0,292.8 L371.5,294.5 L371.2,295.3 L370.4,296.0 L368.1,299.4 L366.4,300.6 L365.3,301.8 L363.4,303.1 L361.4,306.1 L360.5,306.8 L358.8,307.6 L355.7,311.9 L353.7,313.6 L350.3,318.0 L349.8,319.6 L348.3,321.2 L347.5,322.7 L346.1,324.5 L345.9,325.6 L346.0,327.3 L346.8,330.8 L349.6,335.4 L348.8,335.9 L349.3,337.7 L351.5,341.3 L353.2,343.4 L356.3,345.6 L360.3,346.2 L361.7,346.9 L362.7,347.8 L362.2,348.0 L363.8,348.9 L364.1,348.8 L364.3,349.8 L364.1,350.0 L362.4,350.3 L361.4,351.6 L360.5,351.7 L359.4,352.4 L359.1,352.9 L359.3,353.4 L358.6,353.3 L356.2,353.6 L355.3,354.0 L354.9,354.6 L354.7,355.9 L354.2,356.4 L350.9,356.8 L345.9,358.6 L343.8,360.5 L343.2,362.1 L341.6,362.2 L341.2,363.0 L340.0,362.9 L339.7,364.2 L340.2,367.2 L339.8,367.6 L337.3,367.8 L336.3,368.7 L335.6,370.2 L335.3,374.3 L334.1,374.9 L333.2,375.9 L331.9,378.5 L331.8,380.7 L330.9,379.8 L330.1,381.5 L329.0,382.0 L328.7,382.4 L328.8,383.0 L330.2,384.9 L332.0,385.7 L332.7,385.8 L332.9,385.4 L333.5,385.7 L333.8,386.0 L333.6,386.4 L332.6,387.1 L332.0,386.9 L329.3,387.8 L327.7,387.9 L326.4,388.5 L324.9,387.8 L321.1,387.7 L320.6,387.8 L320.1,388.4 L320.5,389.3 L318.5,388.9 L318.2,388.2 L316.1,387.7 L315.5,388.4 L313.4,388.3 L311.9,389.0 L310.5,390.1 L308.6,390.9 L308.0,392.5 L307.8,392.7 L307.2,392.5 L306.2,393.1 L303.0,394.2 L302.7,394.9 L302.1,394.8 L300.2,397.4 L297.5,399.9 L296.1,404.2 L294.4,407.1 L294.6,408.6 L293.2,409.0 L291.7,409.9 L291.2,410.4 L290.9,411.7 L289.5,412.9 L289.0,414.0 L288.0,414.3 L287.7,415.0 L287.2,415.3 L285.9,415.6 L284.7,415.3 L282.1,412.9 L280.9,412.3 L279.5,412.0 L277.2,412.7 L275.6,412.2 L273.0,412.6 L272.5,412.8 L271.2,415.5 L269.8,416.6 L267.9,417.1 L267.3,416.9 L266.6,417.1 L264.5,416.0 L263.6,416.5 L262.4,415.3 L261.5,414.8 L260.8,414.8 L259.1,415.3 L256.2,414.8 L253.5,415.0 L251.2,414.7 L247.9,415.0 L245.1,416.6 L243.1,416.6 L241.8,415.8 L240.7,416.1 L239.5,415.6 L239.0,415.1 L236.9,415.2 L236.5,415.5 L234.8,415.7 L231.3,414.8 L227.3,415.6 L224.1,414.9 L222.4,415.6 L218.7,416.1 L212.8,415.7 L211.8,416.1 L208.9,420.4 L206.8,420.6 L205.9,422.0 L204.5,422.8 L202.4,423.2 L196.5,422.8 L193.5,424.4 L191.3,424.6 L189.8,425.3 L187.2,425.9 L185.9,427.6 L185.0,429.6 L183.8,430.3 L184.0,430.8 L182.4,433.2 L182.3,434.7 L181.6,434.7 L181.4,434.0 L180.8,433.7 L179.4,433.5 L178.9,434.5 L179.3,436.7 L179.0,437.3 L173.3,439.1 L172.8,438.1 L170.8,437.1 L170.0,437.4 L167.3,436.5 L166.1,435.3 L163.4,433.3 L161.2,433.6 L159.5,433.1 L157.2,430.2 L155.5,429.4 L154.6,427.2 L153.5,426.2 L151.5,422.6 L150.5,421.9 L151.2,421.8 L152.3,422.5 L152.5,422.8 L152.4,423.1 L153.1,423.9 L153.8,423.6 L154.8,422.6 L153.3,422.6 L153.1,422.1 L153.3,421.1 L153.0,420.5 L151.4,419.3 L148.3,418.9 L147.8,418.5 L147.4,417.2 L146.4,415.4 L146.5,414.8 L147.1,414.3 L149.4,413.4 L149.7,412.6 L149.4,411.2 L149.6,410.5 L150.7,409.7 L153.4,409.9 L154.3,408.9 L152.8,409.5 L152.0,409.5 L151.4,409.1 L149.4,409.9 L149.2,410.6 L149.3,412.6 L149.2,412.9 L148.0,412.9 L147.1,412.0 L145.3,408.8 L144.3,408.0 L136.3,403.4 L134.1,402.6 L131.5,401.2 L130.9,400.5 L130.7,399.6 L132.8,397.0 L130.2,399.0 L129.2,399.0 L130.3,401.0 L129.9,401.1 L124.7,399.3 L123.8,399.7 L125.2,399.9 L117.3,400.1 L116.1,400.7 L115.5,400.8 L114.5,400.4 L113.8,398.2 L114.0,397.7 L113.5,394.0 L112.9,393.0 L112.7,391.1 L112.5,390.5 L111.5,389.7 L110.7,388.5 L110.7,388.1 L111.3,387.4 L111.2,387.0 L112.6,385.9 L113.5,382.8 L114.1,382.1 L117.1,380.1 L118.0,378.9 L119.2,375.7 L119.1,374.8 L120.7,374.2 L121.9,374.4 L122.8,374.1 L124.0,372.7 L126.4,373.3 L127.2,373.3 L129.7,367.6 L129.2,367.3 L127.1,367.5 L126.7,367.9 L125.9,368.2 L124.6,368.3 L123.9,367.8 L122.5,365.1 L121.6,364.5 L121.1,363.6 L117.6,360.1 L116.3,359.4 L117.1,358.7 L117.1,358.3 L116.7,357.9 L117.6,355.8 L119.2,353.8 L118.5,353.2 L118.4,352.6 L118.7,350.7 L119.2,349.9 L122.1,348.2 L123.1,347.2 L124.6,347.0 L126.2,346.1 L126.3,345.1 L125.8,344.4 L127.3,343.2 L128.9,340.9 L128.4,340.4 L128.7,339.8 L128.5,339.2 L127.5,338.2 L125.9,337.6 L123.8,338.1 L122.9,337.9 L122.5,337.4 L122.9,336.4 L122.5,335.8 L120.0,334.9 L119.6,334.4 L119.4,333.1 L119.8,332.5 L117.3,330.2 L117.2,328.8 L117.6,327.8 L117.8,326.4 L117.5,326.1 L116.1,325.8 L115.0,325.2 L114.4,324.2 L113.3,323.8 L111.1,321.9 L109.8,319.1 L116.8,319.4 L120.3,318.9 L121.0,319.2 L122.0,319.3 L127.3,318.7 L127.7,318.0 L127.6,317.2 L128.2,316.0 L128.0,315.1 L128.5,314.5 L129.5,314.1 L130.4,313.2 L130.4,311.3 L131.0,310.9 L131.2,309.4 L131.9,308.4 L129.4,305.3 L127.5,304.8 L127.1,304.3 L126.6,302.7 L127.5,301.3 L129.5,300.4 L131.4,300.3 L132.0,300.0 L132.2,299.0 L134.1,297.8 L134.7,297.0 L133.6,296.2 L132.9,295.3 L132.7,294.2 L134.1,291.9 L133.9,291.3 L133.0,290.2 L132.9,289.6 L134.1,287.5 L133.3,283.9 L133.3,281.2 L133.9,281.1 L134.0,280.7 L133.8,280.2 L132.7,279.7 L131.8,277.7 L129.9,275.9 L129.9,275.5 L130.4,274.4 L131.0,274.2 L133.1,274.3 L133.9,274.2 L134.4,273.9 L135.7,272.4 L136.0,270.8 L137.6,269.7 L139.5,267.3 L142.3,267.2 L144.5,266.4 L146.6,264.9 L147.6,263.7 L148.3,263.7 L148.3,263.0 L149.2,262.6 L150.2,262.6 L151.4,260.8 L151.3,260.1 L151.5,259.8 L153.9,257.4 L151.8,255.5 L148.7,254.3 L145.6,253.9 L144.2,254.7 L143.0,254.5 L142.5,254.0 L141.8,251.8 L142.4,250.9 L143.5,247.7 L141.9,247.2 L142.1,245.7 L142.0,245.2 L140.8,244.6 L140.3,245.3 L136.9,245.6 L135.9,245.4 L134.7,244.0 L133.7,243.9 L133.5,244.8 L132.7,245.2 L129.8,245.2 L128.2,244.4 L126.3,245.2 L123.3,243.7 L121.5,244.5 L121.5,246.6 L120.9,247.3 L117.5,248.4 L115.2,248.5 L113.5,249.7 L112.7,248.2 L111.1,247.7 L110.6,248.6 L110.1,248.8 L108.2,249.0 L107.7,248.8 L107.7,248.5 L108.2,247.5 L106.4,247.4 L104.4,246.6 L103.5,247.0 L100.2,247.4 L99.7,248.0 L98.7,248.0 L98.4,246.1 L97.8,246.3 L97.1,247.7 L95.5,247.8 L93.7,249.3 L92.3,249.6 L89.5,249.5 L89.5,248.2 L88.1,247.6 L87.8,247.1 L87.8,246.4 L89.4,244.5 L91.8,243.0 L92.2,242.0 L92.0,241.5 L90.8,241.0 L89.1,241.3 L88.7,241.1 L88.7,239.1 L88.1,238.3 L87.1,238.8 L85.7,239.1 L84.0,240.0 L79.0,240.6 L76.6,241.6 L74.9,241.7 L74.0,242.3 L73.4,243.3 L70.8,244.3 L69.9,245.4 L68.1,246.1 L67.1,247.0 L66.5,246.8 L66.1,239.4 L66.4,239.2 L68.3,239.1 L68.6,238.8 L68.4,238.5 L67.7,238.1 L68.7,237.6 L69.0,236.9 L70.1,236.1 L74.9,233.5 L75.0,232.0 L74.1,232.4 L73.3,233.6 L69.7,234.8 L67.0,235.0 L67.5,233.4 L68.1,233.9 L68.3,233.6 L68.2,232.2 L70.1,232.1 L71.6,230.6 L73.7,229.4 L73.9,228.9 L72.6,229.0 L70.6,230.0 L67.8,230.1 L67.0,229.8 L66.3,228.4 L64.5,228.0 L65.4,227.4 L66.5,227.1 L67.2,227.5 L67.2,227.8 L66.8,228.0 L68.3,228.2 L68.4,227.2 L68.8,226.9 L68.4,225.8 L68.4,224.7 L70.0,223.6 L71.5,220.8 L71.3,220.8 L70.7,221.9 L69.7,222.4 L69.1,222.2 L67.9,221.0 L67.3,222.1 L67.7,222.4 L67.0,223.2 L66.6,223.3 L66.1,223.1 L66.3,222.7 L65.8,222.9 L64.7,223.5 L65.2,223.9 L63.7,224.4 L63.3,225.3 L62.3,226.0 L61.8,225.6 L61.6,224.4 L60.4,223.9 L60.5,223.1 L61.4,221.7 L61.7,220.2 L62.5,219.4 L63.9,218.8 L65.2,217.6 L66.0,217.5 L66.4,216.7 L66.3,216.2 L65.7,215.9 L65.5,216.7 L64.3,217.4 L61.1,217.4 L61.2,217.9 L60.4,218.5 L59.4,218.6 L59.0,218.3 L58.3,216.8 L59.0,216.7 L59.4,216.1 L59.1,215.7 L58.1,215.3 L57.8,214.4 L58.2,214.1 L58.3,213.4 L57.2,213.1 L56.3,212.3 L56.5,212.9 L56.3,213.1 L55.8,213.1 L55.7,212.7 L55.3,212.6 L54.7,213.0 L53.7,214.2 L53.1,213.0 L54.5,210.1 L53.8,209.6 L53.5,208.9 L54.2,208.7 L54.6,207.8 L55.4,207.3 L55.6,206.9 L56.5,207.3 L57.4,206.9 L58.1,206.3 L59.1,206.1 L59.1,205.8 L57.3,206.1 L57.4,205.8 L55.9,206.2 L55.6,205.6 L57.1,204.5 L58.2,204.1 L59.4,204.5 L61.0,204.3 L61.8,203.8 L62.3,202.9 L63.1,203.3 L64.9,203.0 L65.4,202.7 L64.4,202.5 L63.9,201.8 L63.1,201.4 L68.2,199.5 L69.7,200.5 L72.7,201.1 L76.0,200.1 L77.1,200.4 L78.8,199.8 L79.5,199.1 L80.4,198.8 L80.9,198.4 L82.6,198.1 L83.1,198.8 L83.8,199.3 L84.2,198.9 L84.2,197.8 L84.5,197.4 L86.6,198.1 L87.1,199.1 L88.2,199.9 L88.5,200.4 L88.7,199.9 L88.5,197.9 L89.6,197.1 L86.7,196.7 L85.4,195.9 L86.0,195.6 L89.5,195.2 L89.8,194.6 L86.9,195.1 L87.4,194.8 L86.9,194.6 L86.5,195.0 L85.9,195.2 L84.5,195.3 L85.0,193.6 L85.4,193.7 L85.8,193.3 L85.3,192.8 L85.1,192.1 L86.8,192.2 L87.7,191.9 L92.5,189.2 L92.9,189.8 L93.6,189.7 L93.2,189.7 L93.6,189.2 L93.0,188.8 L92.9,188.5 L93.4,187.5 L95.9,187.2 L96.9,186.8 L98.3,185.6 L99.2,185.7 L100.3,187.2 L100.3,187.4 L99.7,187.2 L99.3,187.8 L99.5,188.3 L99.1,188.5 L98.8,188.3 L98.3,188.8 L100.0,188.8 L100.3,188.6 L99.7,187.9 L100.4,187.7 L101.2,187.9 L101.0,187.4 L101.5,187.0 L104.7,185.8 L105.6,184.7 L106.2,185.4 L105.3,186.3 L105.4,186.9 L105.9,186.8 L106.0,186.4 L107.1,186.1 L108.0,187.7 L107.9,188.2 L108.8,187.2 L109.2,187.3 L110.3,186.8 L112.0,187.0 L116.0,188.5 L118.1,191.1 L119.6,191.7 L119.1,192.3 L119.6,192.5 L121.0,192.1 L122.9,192.4 L124.9,192.3 L125.4,192.1 L126.6,192.4 L126.9,192.6 L127.0,193.2 L126.2,194.4 L126.5,195.0 L126.7,195.0 L127.2,193.5 L127.7,193.2 L128.0,192.5 L129.8,192.2 L135.5,192.1 L137.7,192.5 L139.5,191.8 L141.1,191.9 L144.0,192.8 L145.5,192.5 L145.3,191.9 L147.0,192.3 L150.4,192.1 L153.4,191.2 L154.9,191.9 L158.4,192.1 L159.9,191.4 L163.7,191.4 L163.9,191.1 L163.5,190.6 L163.9,190.3 L163.7,189.9 L165.1,189.7 L165.5,189.0 L167.1,189.4 L170.2,192.1 L170.4,192.1 L170.6,191.6 L171.2,192.3 L172.9,192.5 L179.5,192.3 L180.5,192.5 L180.6,193.0 L179.6,193.9 L179.8,194.1 L181.2,193.7 L181.7,193.1 L183.5,193.1 L187.5,194.7 L190.3,194.8 L191.1,194.9 L191.5,195.4 L191.9,195.2 L194.1,195.7 L195.3,195.3 L198.7,196.0 L202.0,197.0 L209.4,197.5 L210.3,198.1 L210.9,197.6 L211.9,197.5 L213.6,198.1 L214.3,197.6 L215.8,197.7 L219.8,197.4 L220.7,196.9 L222.8,196.4 L225.0,196.4 L225.6,195.9 L226.6,196.4 L227.3,196.1 L226.8,195.7 L228.0,195.1 L229.5,194.8 L229.7,195.0 L231.7,194.4 L233.5,195.0 L231.1,196.1 L231.8,196.6 L231.5,196.8 L232.2,196.8 L233.4,195.9 L234.3,196.4 L234.4,195.9 L234.0,195.3 L234.9,195.5 L235.1,195.3 L234.9,195.0 L236.2,194.8 L237.2,194.3 L239.7,193.7 L240.6,193.8 L240.5,194.3 L241.1,194.4 L242.2,195.0 L244.6,195.4 L244.7,196.1 L243.3,195.8 L242.3,196.6 L242.9,196.7 L243.6,197.2 L244.1,196.6 L244.4,197.0 L245.8,196.8 L249.9,197.5 L251.8,197.9 L252.9,198.7 L254.4,199.0 L255.0,199.1 L255.7,198.7 L258.4,200.2 L257.7,198.4 L260.6,197.0 L260.4,196.6 L261.8,196.3 L265.0,196.2 L266.2,195.9 L268.0,196.8 L268.8,198.7 L269.2,197.4 L269.7,197.2 L275.5,198.6 L276.2,199.3 L279.3,200.4 L282.0,200.8 L284.9,200.4 L285.6,201.0 L286.6,200.8 L287.2,201.3 L288.1,200.7 L292.6,199.5 L293.1,199.5 L294.0,200.2 L294.4,199.9 L293.8,199.5 L297.5,197.8 L298.1,198.1 Z" fill="#faf5ef" stroke="#8B1A2B" stroke-width="1.3" stroke-linejoin="round"/>
    <path d="M406.5,351.9 L407.8,351.4 L408.4,352.0 L408.3,352.7 L406.4,352.8 L404.3,351.7 L402.8,352.9 L402.3,353.1 L401.8,353.0 L401.9,351.8 L402.2,351.0 L401.8,350.8 L402.4,350.1 L403.0,350.2 L403.4,349.3 L405.2,351.3 L406.5,351.9 Z" fill="#faf5ef" stroke="#8B1A2B" stroke-width="1.3" stroke-linejoin="round"/>
    <path d="M409.1,338.4 L409.0,338.6 L409.7,340.4 L408.7,340.7 L408.2,341.8 L407.0,342.4 L406.0,343.6 L404.3,344.6 L403.9,344.2 L402.9,344.9 L402.5,346.8 L401.4,346.8 L401.1,346.2 L400.6,345.8 L399.4,346.0 L399.1,345.6 L398.6,345.4 L398.0,345.6 L397.8,346.0 L396.4,345.1 L396.3,344.5 L396.8,343.2 L396.5,342.8 L397.1,342.5 L397.8,342.6 L399.2,342.4 L398.9,340.2 L401.0,338.8 L401.5,339.0 L402.1,338.6 L402.5,338.8 L404.1,338.0 L405.7,337.9 L406.4,337.4 L408.6,338.0 L409.1,338.4 Z" fill="#faf5ef" stroke="#8B1A2B" stroke-width="1.3" stroke-linejoin="round"/>
    <path d="M466.2,315.7 L469.0,316.8 L470.2,316.8 L470.0,317.2 L470.2,318.0 L469.7,318.5 L469.9,318.9 L469.5,319.8 L469.1,320.2 L468.2,320.6 L467.8,321.0 L467.7,321.5 L467.9,322.0 L465.2,324.2 L464.2,325.8 L463.9,327.6 L463.4,327.4 L462.9,328.7 L461.9,329.6 L458.9,331.0 L456.7,332.5 L455.6,331.4 L454.7,331.0 L454.4,330.0 L453.3,329.5 L449.0,329.5 L447.7,329.1 L446.9,328.3 L446.5,326.5 L446.1,326.2 L446.7,324.9 L446.3,324.2 L444.3,323.1 L443.4,322.9 L440.6,324.0 L440.2,324.3 L439.8,325.2 L439.0,325.9 L438.1,326.0 L437.3,324.8 L437.7,324.5 L436.8,323.8 L436.3,324.2 L435.9,323.8 L434.8,324.2 L433.6,323.1 L433.5,322.5 L433.7,321.3 L437.3,319.8 L438.9,318.5 L440.6,318.0 L442.2,316.8 L442.6,316.2 L443.3,316.2 L445.2,314.6 L446.4,314.2 L448.6,312.8 L449.6,312.8 L452.5,311.5 L457.1,310.8 L460.5,309.7 L461.0,310.1 L461.2,310.0 L461.7,310.1 L459.3,311.0 L458.4,311.6 L457.8,311.5 L457.8,312.5 L458.9,312.7 L461.4,312.2 L460.8,313.4 L458.8,314.2 L458.7,314.8 L459.1,315.6 L460.0,316.2 L462.0,316.8 L464.2,316.8 L466.2,315.7 Z" fill="#faf5ef" stroke="#8B1A2B" stroke-width="1.3" stroke-linejoin="round"/>
    <path d="M497.1,310.6 L498.3,313.0 L497.2,312.3 L497.1,314.5 L495.4,314.7 L486.7,310.8 L483.1,311.1 L481.8,310.8 L482.1,309.5 L482.5,309.2 L481.2,308.6 L480.9,308.1 L481.5,307.1 L483.8,306.7 L484.6,307.0 L489.0,306.8 L490.8,306.1 L490.9,306.5 L491.9,307.2 L491.8,307.7 L492.0,307.9 L492.7,307.2 L492.7,306.7 L492.9,306.6 L493.2,307.4 L496.0,309.1 L496.2,310.1 L495.6,310.3 L497.1,310.6 Z" fill="#faf5ef" stroke="#8B1A2B" stroke-width="1.3" stroke-linejoin="round"/></g>
  <g>    <path class="region-area" d="M88.7,239.1 L88.1,238.3 L87.1,238.8 L85.7,239.1 L84.0,240.0 L79.0,240.6 L76.6,241.6 L74.9,241.7 L74.0,242.3 L73.4,243.3 L70.8,244.3 L69.9,245.4 L68.1,246.1 L67.1,247.0 L66.5,246.8 L66.1,239.4 L68.3,239.1 L68.4,238.5 L67.7,238.1 L68.7,237.6 L69.0,236.9 L70.1,236.1 L74.9,233.5 L75.0,232.0 L74.1,232.4 L73.3,233.6 L69.7,234.8 L67.0,235.0 L67.5,233.4 L68.1,233.9 L68.3,233.6 L68.2,232.2 L70.1,232.1 L71.6,230.6 L73.7,229.4 L73.9,228.9 L72.6,229.0 L70.6,230.0 L67.8,230.1 L67.0,229.8 L66.3,228.4 L64.5,228.0 L65.4,227.4 L66.5,227.1 L67.2,227.5 L66.8,228.0 L68.3,228.2 L68.4,227.2 L68.8,226.9 L68.4,225.8 L68.4,224.7 L70.0,223.6 L71.5,220.8 L70.7,221.9 L69.7,222.4 L69.1,222.2 L67.9,221.0 L67.3,222.1 L67.7,222.4 L67.0,223.2 L66.6,223.3 L66.1,223.1 L66.3,222.7 L65.8,222.9 L64.7,223.5 L65.2,223.9 L63.7,224.4 L63.3,225.3 L62.3,226.0 L61.8,225.6 L61.6,224.4 L60.4,223.9 L60.5,223.1 L61.4,221.7 L61.7,220.2 L62.5,219.4 L63.9,218.8 L65.2,217.6 L66.0,217.5 L66.4,216.7 L66.3,216.2 L65.7,215.9 L65.5,216.7 L64.3,217.4 L61.1,217.4 L61.2,217.9 L60.4,218.5 L59.4,218.6 L59.0,218.3 L58.3,216.8 L59.0,216.7 L59.4,216.1 L58.1,215.3 L57.8,214.4 L58.3,213.4 L57.2,213.1 L56.3,212.3 L56.3,213.1 L55.8,213.1 L55.7,212.7 L55.3,212.6 L53.7,214.2 L53.1,213.0 L54.5,210.1 L53.8,209.6 L53.5,208.9 L54.2,208.7 L54.6,207.8 L55.6,206.9 L56.5,207.3 L58.1,206.3 L59.1,206.1 L59.1,205.8 L57.3,206.1 L57.4,205.8 L55.9,206.2 L55.6,205.6 L58.2,204.1 L59.4,204.5 L61.0,204.3 L61.8,203.8 L62.3,202.9 L63.1,203.3 L64.9,203.0 L65.4,202.7 L64.4,202.5 L63.9,201.8 L63.1,201.4 L68.2,199.5 L69.7,200.5 L72.7,201.1 L76.0,200.1 L77.1,200.4 L78.8,199.8 L79.5,199.1 L80.9,198.4 L82.6,198.1 L83.1,198.8 L83.8,199.3 L84.2,198.9 L84.2,197.8 L84.5,197.4 L86.6,198.1 L87.1,199.1 L88.5,200.4 L88.7,199.9 L88.5,197.9 L89.6,197.1 L86.7,196.7 L85.4,195.9 L86.0,195.6 L89.5,195.2 L89.8,194.6 L86.9,195.1 L87.4,194.8 L86.9,194.6 L85.9,195.2 L84.5,195.3 L85.0,193.6 L85.4,193.7 L85.8,193.3 L85.3,192.8 L85.1,192.1 L86.8,192.2 L87.7,191.9 L92.5,189.2 L92.9,189.8 L93.6,189.7 L93.2,189.7 L93.6,189.2 L92.9,188.5 L93.4,187.5 L95.9,187.2 L98.3,185.6 L99.2,185.7 L100.3,187.2 L100.3,187.4 L99.7,187.2 L99.3,187.8 L99.5,188.3 L98.8,188.3 L98.3,188.8 L100.0,188.8 L100.3,188.6 L99.7,187.9 L100.4,187.7 L101.2,187.9 L101.0,187.4 L101.5,187.0 L104.7,185.8 L105.6,184.7 L106.2,185.4 L105.3,186.3 L105.4,186.9 L105.9,186.8 L106.0,186.4 L107.1,186.1 L108.0,187.7 L107.9,188.2 L108.8,187.2 L109.2,187.3 L110.3,186.8 L112.0,187.0 L116.0,188.5 L118.1,191.1 L119.6,191.7 L119.1,192.3 L119.6,192.5 L121.0,192.1 L124.9,192.3 L125.4,192.1 L126.9,192.6 L127.0,193.2 L126.2,194.4 L126.4,195.1 L124.3,196.6 L122.7,196.6 L122.4,197.9 L123.8,198.3 L124.0,199.7 L125.7,200.9 L126.3,202.9 L129.1,204.3 L128.9,205.5 L129.3,206.1 L130.4,206.2 L132.4,204.9 L133.5,206.1 L133.5,206.7 L132.3,207.6 L129.8,208.2 L128.4,210.0 L129.1,210.9 L129.5,210.6 L129.6,209.8 L130.8,210.8 L132.3,211.0 L133.3,211.9 L133.6,213.4 L132.6,214.8 L132.8,216.2 L132.5,216.9 L130.3,218.8 L129.1,218.9 L127.3,219.9 L126.8,220.5 L126.8,221.3 L127.5,222.4 L126.6,223.2 L126.6,224.5 L125.7,226.9 L128.6,227.2 L130.6,226.6 L133.8,227.5 L134.2,228.2 L134.1,229.0 L133.3,229.9 L136.0,231.5 L136.6,232.2 L136.5,233.6 L134.6,235.5 L134.4,236.2 L132.4,236.2 L131.3,236.8 L129.9,237.9 L129.5,239.0 L127.2,240.9 L127.4,241.5 L128.5,241.7 L129.1,242.3 L128.4,243.7 L128.5,244.5 L126.3,245.2 L123.3,243.7 L122.8,243.8 L121.5,244.5 L121.5,246.6 L120.9,247.3 L117.5,248.4 L115.2,248.5 L113.5,249.7 L112.7,248.2 L111.1,247.7 L110.1,248.8 L108.2,249.0 L107.7,248.8 L107.7,248.5 L108.2,247.5 L106.4,247.4 L104.4,246.6 L100.2,247.4 L99.7,248.0 L98.7,248.0 L98.4,246.1 L97.8,246.3 L97.1,247.7 L95.5,247.8 L93.7,249.3 L92.3,249.6 L89.5,249.5 L89.5,248.2 L88.1,247.6 L87.8,247.1 L87.8,246.4 L89.4,244.5 L91.8,243.0 L92.2,242.0 L92.0,241.5 L90.8,241.0 L89.1,241.3 L88.7,241.1 L88.7,239.1 Z" fill="rgba(139,26,43,0.15)" stroke="rgba(139,26,43,0.4)" stroke-width="0.5"/>
    <path class="region-area" d="M276.2,226.8 L280.1,227.6 L282.2,227.3 L285.1,228.9 L288.8,228.9 L289.5,229.3 L289.1,229.8 L289.5,230.3 L292.1,230.5 L294.6,232.7 L295.8,233.4 L296.0,234.3 L296.9,234.3 L301.2,236.3 L301.5,238.7 L300.7,238.9 L299.7,238.5 L298.4,238.8 L297.1,238.6 L294.6,241.3 L294.9,242.5 L296.2,243.3 L296.4,243.9 L296.0,244.8 L293.9,245.8 L292.4,246.0 L290.6,245.3 L287.9,244.7 L287.5,243.8 L287.8,243.0 L286.5,241.7 L286.5,241.2 L287.3,240.6 L286.8,240.0 L285.1,239.9 L283.0,240.4 L282.4,240.0 L282.1,239.1 L281.7,238.8 L277.9,238.8 L275.6,239.8 L274.7,239.7 L274.5,241.1 L272.6,243.3 L269.6,243.3 L267.0,242.6 L266.9,242.2 L268.0,240.7 L268.1,240.0 L267.6,239.5 L266.4,239.5 L265.4,240.6 L265.1,241.8 L262.9,242.9 L261.6,242.6 L260.8,240.6 L257.8,240.5 L256.9,239.2 L256.1,238.8 L254.7,236.9 L255.3,236.2 L255.8,234.5 L255.1,231.9 L256.3,231.6 L256.8,230.9 L256.8,229.4 L257.1,228.6 L255.9,227.3 L256.4,226.0 L256.1,225.7 L254.9,225.7 L256.7,223.8 L256.3,222.7 L258.2,222.4 L261.7,222.9 L264.0,222.3 L264.0,223.0 L264.2,223.3 L264.7,223.1 L264.8,223.4 L264.3,223.9 L264.5,224.2 L265.9,224.2 L266.4,223.3 L267.4,223.2 L268.8,224.1 L269.0,225.8 L271.1,226.7 L271.9,226.4 L272.3,227.1 L273.1,226.6 L274.3,226.7 L274.2,226.2 L275.0,225.8 L275.3,226.3 L276.2,226.8 Z" fill="rgba(139,26,43,0.15)" stroke="rgba(139,26,43,0.4)" stroke-width="0.5"/>
    <path class="region-area" d="M318.8,229.4 L318.2,230.1 L317.6,229.9 L317.6,229.5 L318.6,228.9 L318.8,229.4 Z" fill="rgba(139,26,43,0.15)" stroke="rgba(139,26,43,0.4)" stroke-width="0.5"/>
    <path class="region-area" d="M320.9,228.2 L321.8,228.8 L321.8,229.1 L321.2,229.2 L319.6,228.7 L320.3,227.6 L320.8,227.6 L320.9,228.2 Z" fill="rgba(139,26,43,0.15)" stroke="rgba(139,26,43,0.4)" stroke-width="0.5"/>
    <path class="region-area" d="M298.7,201.2 L301.7,200.7 L302.6,200.9 L302.9,201.1 L303.1,202.3 L303.7,202.6 L304.8,202.4 L305.2,201.6 L305.7,201.4 L308.8,202.1 L309.9,202.0 L310.8,202.7 L310.9,203.9 L310.1,206.2 L308.1,208.0 L308.5,208.7 L309.8,209.5 L312.0,209.6 L312.6,207.6 L313.9,207.0 L314.7,207.1 L313.7,208.0 L313.9,208.4 L315.0,209.1 L316.9,209.4 L319.1,210.5 L320.3,210.4 L321.4,210.9 L323.1,211.1 L324.6,212.1 L325.9,212.4 L328.5,212.5 L331.0,212.2 L331.9,212.4 L332.3,213.3 L330.3,213.8 L328.9,215.9 L328.3,218.2 L327.1,219.1 L325.2,220.1 L323.2,220.6 L322.5,222.1 L319.3,222.4 L318.9,223.1 L318.4,223.3 L318.9,223.7 L317.6,224.5 L317.3,225.1 L316.6,225.4 L315.6,225.3 L314.9,226.0 L314.7,226.5 L315.1,227.4 L312.8,229.8 L312.6,230.9 L313.2,231.6 L311.5,233.5 L310.4,236.1 L311.0,237.5 L311.2,239.4 L312.5,241.0 L313.7,241.3 L313.7,242.1 L311.5,245.2 L310.3,246.3 L308.0,245.9 L305.8,246.2 L303.1,244.7 L301.0,244.8 L298.9,243.6 L296.2,243.3 L294.9,242.5 L294.6,241.8 L294.6,241.1 L297.1,238.6 L298.4,238.8 L299.7,238.5 L300.7,238.9 L301.5,238.7 L301.2,236.3 L296.9,234.3 L296.0,234.3 L295.8,233.4 L294.6,232.7 L292.1,230.5 L289.5,230.3 L289.1,229.8 L289.5,229.3 L288.8,228.9 L285.1,228.9 L282.2,227.3 L280.1,227.6 L278.1,227.1 L278.5,224.9 L278.2,224.0 L277.6,223.8 L276.6,224.5 L275.2,223.9 L275.2,223.4 L277.7,221.9 L278.6,221.8 L279.4,222.5 L280.3,222.4 L281.6,221.8 L281.8,221.4 L281.1,221.0 L280.9,219.5 L282.2,218.8 L282.4,217.5 L283.4,215.9 L283.5,215.3 L283.1,213.9 L283.8,212.8 L284.8,212.2 L285.6,212.5 L287.3,212.3 L288.2,211.5 L289.7,211.1 L290.0,210.5 L290.0,209.8 L290.9,208.5 L293.4,207.2 L294.2,206.3 L294.0,204.6 L294.3,203.5 L295.1,203.7 L295.5,203.2 L296.3,203.4 L297.2,202.9 L298.7,201.2 Z" fill="rgba(139,26,43,0.15)" stroke="rgba(139,26,43,0.4)" stroke-width="0.5"/>
    <path class="region-area" d="M396.4,272.6 L395.0,274.1 L394.0,273.7 L392.5,273.7 L389.0,274.7 L380.0,282.0 L379.4,283.0 L381.2,283.7 L381.7,283.5 L381.2,283.0 L382.2,283.2 L384.2,284.8 L385.2,284.9 L385.2,285.6 L384.4,286.6 L382.3,287.1 L381.4,287.7 L379.8,289.6 L378.8,290.2 L376.8,290.6 L376.0,289.7 L377.6,289.5 L378.3,289.9 L379.4,289.4 L380.6,288.0 L379.0,287.9 L375.6,288.9 L374.6,290.0 L373.8,291.5 L371.6,290.7 L370.3,289.4 L366.2,288.0 L365.7,287.3 L366.1,286.3 L364.6,285.7 L363.8,284.8 L362.3,284.8 L362.1,284.4 L364.1,283.5 L365.5,281.8 L364.8,279.6 L366.1,276.6 L365.6,275.4 L364.1,274.6 L363.4,272.8 L363.5,272.1 L366.2,270.8 L366.9,269.2 L368.4,268.4 L368.2,266.9 L369.0,265.5 L368.9,264.9 L368.2,264.2 L367.4,263.9 L367.3,263.3 L368.1,261.8 L368.1,260.4 L369.6,259.9 L371.1,258.2 L370.5,256.6 L368.6,256.5 L368.1,256.2 L367.4,253.9 L369.9,251.4 L371.8,250.9 L373.0,249.5 L374.4,249.0 L376.1,247.7 L376.0,246.2 L375.2,245.3 L378.0,243.3 L378.1,242.5 L379.6,239.4 L379.7,237.5 L381.0,234.5 L381.2,232.6 L381.0,230.6 L379.6,227.5 L380.5,227.0 L380.5,226.4 L381.5,224.9 L381.8,223.6 L380.1,222.9 L378.3,220.6 L378.2,219.5 L377.4,219.0 L377.9,218.4 L377.6,218.0 L378.0,217.1 L378.1,215.9 L379.8,215.7 L383.2,216.2 L386.8,217.7 L387.7,217.3 L388.8,217.8 L392.2,218.1 L394.3,220.2 L395.7,220.0 L400.5,220.2 L400.4,220.6 L401.1,220.9 L403.4,223.9 L403.0,224.7 L403.3,225.0 L402.6,226.0 L403.3,226.0 L403.9,226.4 L404.0,226.9 L402.6,227.4 L404.0,229.1 L406.2,229.3 L407.1,228.6 L410.2,228.1 L410.7,227.1 L411.8,227.3 L412.4,226.9 L413.2,227.4 L415.2,227.6 L417.7,228.7 L419.6,229.1 L420.8,231.3 L421.9,231.9 L423.7,231.8 L426.5,229.7 L428.0,229.9 L431.1,229.3 L434.3,230.6 L435.8,230.8 L436.6,231.8 L438.8,232.7 L439.4,232.5 L439.9,231.8 L443.6,232.3 L442.9,231.2 L445.1,229.8 L447.8,229.9 L449.8,228.7 L451.4,228.6 L452.5,228.0 L453.6,228.3 L454.1,228.0 L455.4,228.1 L456.4,229.0 L457.5,229.4 L460.6,229.2 L460.2,230.4 L460.4,231.4 L460.8,231.9 L461.3,232.2 L462.8,232.1 L463.3,232.6 L464.3,232.4 L465.0,232.8 L464.0,234.7 L463.3,235.5 L461.5,235.5 L460.2,234.9 L458.9,235.5 L458.5,236.2 L458.7,238.7 L460.3,239.7 L461.7,241.1 L461.1,242.3 L461.5,243.7 L462.4,244.5 L462.3,245.1 L461.0,247.0 L459.6,248.4 L458.5,248.3 L457.2,249.0 L456.9,249.9 L453.1,252.0 L452.5,252.7 L449.4,253.3 L448.6,254.1 L447.9,254.1 L447.4,254.9 L436.7,258.5 L434.1,260.0 L431.7,260.8 L429.9,262.2 L427.3,265.3 L424.0,267.0 L420.4,267.5 L417.2,268.3 L416.1,268.3 L409.7,269.7 L406.9,269.9 L398.7,272.2 L396.4,272.6 Z" fill="rgba(139,26,43,0.15)" stroke="rgba(139,26,43,0.4)" stroke-width="0.5"/>
    <path class="region-area" d="M133.9,298.0 L134.7,297.0 L132.9,295.3 L132.7,294.2 L134.1,291.9 L133.0,290.2 L132.9,289.6 L134.1,287.5 L133.3,283.9 L133.3,281.2 L133.9,281.1 L134.0,280.7 L133.8,280.2 L132.7,279.7 L131.8,277.7 L129.9,275.9 L130.4,274.4 L131.0,274.2 L133.9,274.2 L135.7,272.4 L136.0,270.8 L137.6,269.7 L139.5,267.3 L142.3,267.2 L144.5,266.4 L146.6,264.9 L147.6,263.7 L148.3,263.7 L148.3,263.0 L150.2,262.6 L151.4,260.8 L151.5,259.8 L153.9,257.4 L151.8,255.5 L148.7,254.3 L145.6,253.9 L144.2,254.7 L143.0,254.5 L142.5,254.0 L141.8,251.8 L143.5,247.7 L141.9,247.2 L142.1,245.7 L141.6,244.8 L140.8,244.6 L140.3,245.3 L136.9,245.6 L135.9,245.4 L134.7,244.0 L133.7,243.9 L133.5,244.8 L132.7,245.2 L129.8,245.2 L128.5,244.5 L128.4,243.7 L129.1,242.3 L128.5,241.7 L127.4,241.5 L127.2,240.9 L129.5,239.0 L129.9,237.9 L131.3,236.8 L132.4,236.2 L134.4,236.2 L134.6,235.5 L136.5,233.4 L136.5,231.9 L133.3,229.9 L134.1,229.0 L134.2,228.2 L133.8,227.5 L130.6,226.6 L128.6,227.2 L125.7,226.9 L126.6,224.5 L126.6,223.2 L127.5,222.4 L126.8,221.3 L126.8,220.5 L127.3,219.9 L129.1,218.9 L130.3,218.8 L132.5,216.9 L132.8,216.2 L132.6,214.8 L133.6,213.4 L134.7,213.6 L135.7,214.2 L137.8,213.1 L139.9,213.0 L142.3,213.4 L144.3,213.0 L146.1,212.0 L145.0,211.1 L147.0,210.6 L147.8,209.3 L148.7,209.0 L153.0,210.2 L153.7,209.4 L154.1,209.3 L156.7,209.8 L157.3,209.5 L158.1,208.5 L161.1,208.6 L161.6,209.0 L162.1,210.1 L163.3,210.7 L165.7,211.6 L167.6,211.6 L168.2,211.3 L169.5,209.3 L170.3,209.1 L175.7,210.0 L177.3,209.7 L177.9,209.0 L180.3,208.8 L181.1,207.7 L183.3,207.9 L186.4,207.6 L188.1,207.0 L189.5,207.1 L191.3,204.8 L196.7,202.9 L197.9,203.4 L198.8,204.5 L198.7,206.3 L199.0,207.1 L200.8,208.1 L201.9,209.1 L202.3,210.1 L208.0,209.9 L210.9,209.0 L211.8,209.1 L212.9,209.6 L214.4,211.1 L218.2,212.3 L218.9,215.7 L219.4,215.8 L221.1,215.2 L221.6,215.5 L221.4,216.1 L219.9,216.6 L220.8,217.4 L222.4,217.7 L223.2,218.4 L224.5,218.2 L225.4,216.7 L225.9,216.4 L226.0,218.2 L227.1,218.4 L228.7,218.1 L229.8,217.3 L231.5,217.2 L232.0,216.9 L231.5,214.8 L230.5,214.8 L229.7,215.5 L229.1,215.2 L229.0,214.6 L229.3,214.0 L230.3,213.9 L231.4,213.2 L230.9,212.6 L229.9,212.5 L229.2,213.3 L227.8,213.8 L227.1,213.7 L226.5,213.1 L227.5,210.7 L230.7,209.1 L231.5,207.8 L233.6,207.6 L237.5,204.9 L241.7,206.0 L243.9,206.1 L246.8,205.5 L249.9,204.1 L251.2,204.6 L253.7,204.7 L254.0,205.3 L253.5,205.6 L253.0,206.4 L253.3,206.9 L254.0,207.3 L253.8,209.0 L253.3,209.8 L255.9,210.3 L256.3,210.2 L256.9,209.3 L257.7,209.1 L257.9,209.6 L259.1,210.4 L258.7,211.0 L257.4,211.1 L257.4,211.4 L259.2,212.3 L259.4,212.8 L257.7,213.6 L255.9,213.8 L254.1,213.4 L253.2,212.5 L251.3,212.5 L249.8,213.9 L249.5,214.6 L251.6,216.2 L252.3,215.2 L253.5,215.1 L254.4,214.3 L254.9,214.4 L255.0,215.0 L253.7,216.6 L254.5,217.6 L254.2,218.2 L256.6,217.7 L257.6,218.1 L263.5,221.6 L264.0,222.3 L261.7,222.9 L258.2,222.4 L256.3,222.7 L256.7,223.8 L254.9,225.4 L255.1,225.8 L256.3,225.8 L255.9,227.3 L257.1,228.6 L256.8,229.4 L256.8,230.9 L256.3,231.6 L255.1,232.1 L255.4,232.5 L255.8,234.5 L255.3,236.2 L254.7,236.9 L256.1,238.8 L256.9,239.2 L257.8,240.5 L260.8,240.6 L261.6,242.6 L262.9,242.9 L265.1,241.8 L265.4,240.6 L266.1,239.7 L267.6,239.5 L268.1,240.3 L267.0,241.9 L267.0,242.6 L269.4,243.3 L272.0,243.3 L272.6,243.3 L274.5,241.1 L274.7,239.7 L275.6,239.8 L277.9,238.8 L281.7,238.8 L282.1,239.1 L282.4,240.0 L283.0,240.4 L285.7,239.9 L287.2,240.2 L287.3,240.6 L286.5,241.2 L286.5,241.7 L287.8,243.0 L287.5,244.0 L288.2,244.9 L290.6,245.3 L292.4,246.0 L293.9,245.8 L296.0,244.8 L296.2,246.4 L297.3,248.2 L296.4,250.2 L298.3,252.5 L297.6,254.1 L296.1,254.7 L293.8,256.3 L292.3,256.1 L291.6,256.8 L292.1,258.3 L292.1,260.0 L292.8,260.8 L293.1,262.4 L290.3,263.4 L290.0,263.1 L289.9,261.9 L288.1,261.5 L287.4,262.2 L287.2,263.7 L285.9,264.7 L285.7,266.4 L286.1,267.2 L286.5,269.7 L286.8,270.1 L288.6,270.4 L289.6,271.1 L289.3,272.4 L289.5,273.2 L289.2,273.5 L286.9,272.1 L285.5,273.0 L283.6,273.1 L281.9,273.8 L280.7,273.9 L279.4,273.4 L277.5,273.9 L276.3,273.4 L275.6,272.3 L274.8,271.9 L274.3,271.0 L272.2,271.1 L272.4,270.4 L271.4,269.7 L272.1,269.1 L272.0,268.7 L271.1,268.8 L269.9,268.1 L268.5,267.9 L267.5,267.1 L265.0,267.5 L263.8,267.2 L263.1,266.9 L262.6,265.7 L262.0,265.5 L261.0,265.7 L260.5,266.2 L259.2,266.6 L255.9,266.8 L252.2,266.2 L250.5,267.3 L247.6,267.7 L245.0,267.4 L245.4,268.0 L245.2,269.0 L244.2,269.3 L241.7,270.7 L239.3,271.0 L238.3,271.4 L236.3,273.2 L234.4,274.3 L233.0,276.1 L229.2,277.4 L227.7,279.0 L227.6,280.1 L226.3,283.0 L223.4,283.3 L220.7,286.2 L218.0,285.8 L216.2,285.9 L215.6,286.4 L215.5,287.2 L212.3,288.0 L211.5,284.1 L210.5,283.1 L210.1,281.7 L209.3,281.5 L208.1,281.7 L207.7,281.5 L208.2,280.1 L207.6,277.8 L206.3,277.1 L205.0,275.1 L203.2,273.8 L202.7,273.0 L203.1,270.9 L200.1,271.6 L198.0,272.8 L194.2,270.9 L192.7,270.8 L191.4,271.5 L189.8,271.4 L189.2,271.7 L188.6,272.7 L188.5,274.4 L189.9,275.1 L190.2,276.5 L189.2,277.5 L189.7,278.8 L188.0,280.3 L188.1,281.9 L187.5,282.8 L186.2,283.4 L185.4,284.5 L181.5,286.6 L180.7,288.4 L179.8,289.1 L178.7,289.5 L176.4,289.6 L176.6,290.8 L179.1,290.8 L178.1,293.4 L176.5,293.8 L176.7,294.7 L176.3,295.0 L175.4,294.7 L174.6,294.0 L174.5,293.4 L174.0,293.2 L173.2,293.4 L170.9,294.8 L170.6,295.1 L171.3,296.9 L169.6,299.1 L167.7,299.3 L167.5,299.0 L167.8,298.1 L167.1,297.5 L164.7,298.2 L163.5,299.5 L162.2,299.2 L157.6,297.1 L158.4,295.6 L157.1,295.1 L156.8,294.5 L153.3,293.0 L149.8,294.2 L148.5,295.4 L147.2,295.7 L146.2,296.4 L143.8,297.2 L142.6,298.0 L142.5,299.3 L141.6,299.8 L138.2,300.5 L137.2,300.2 L135.9,300.7 L133.7,300.6 L132.1,299.5 L132.4,298.8 L133.9,298.0 Z" fill="rgba(139,26,43,0.15)" stroke="rgba(139,26,43,0.4)" stroke-width="0.5"/>
    <path class="region-area" d="M270.9,218.1 L271.7,218.0 L273.2,218.6 L272.7,219.6 L271.7,220.3 L272.8,221.3 L274.2,220.8 L274.5,222.1 L273.8,222.3 L273.1,222.0 L270.6,221.9 L266.8,221.1 L264.7,220.4 L262.9,219.0 L264.1,217.6 L264.7,217.4 L267.6,217.4 L270.9,218.1 Z" fill="rgba(139,26,43,0.15)" stroke="rgba(139,26,43,0.4)" stroke-width="0.5"/>
    <path class="region-area" d="M320.4,350.7 L320.1,349.8 L318.3,349.4 L316.1,349.9 L313.1,351.6 L312.1,351.1 L311.4,351.2 L309.8,352.6 L309.3,353.5 L309.2,354.7 L307.6,356.5 L308.1,358.2 L308.4,360.8 L307.8,361.8 L305.5,363.3 L303.5,363.8 L301.9,363.3 L301.4,361.9 L299.5,361.6 L298.2,362.0 L298.0,362.4 L293.7,364.5 L291.6,364.9 L290.6,364.2 L289.9,364.3 L287.2,366.3 L285.8,366.7 L284.4,367.6 L283.1,369.5 L280.7,372.0 L280.3,373.1 L279.9,373.2 L276.1,372.4 L273.5,371.4 L276.8,367.9 L276.7,366.7 L277.1,366.2 L277.3,365.3 L277.0,364.8 L275.7,363.9 L275.4,361.0 L272.8,360.2 L272.7,357.7 L271.8,357.3 L269.3,357.7 L266.6,356.6 L262.6,359.0 L261.2,358.4 L259.8,358.7 L258.9,359.2 L258.6,360.0 L256.7,358.2 L254.2,359.2 L248.1,358.2 L246.8,358.5 L245.7,360.1 L243.7,360.8 L241.7,360.5 L241.1,359.5 L240.6,359.3 L239.8,359.5 L239.4,360.7 L238.8,360.9 L233.2,360.0 L231.8,360.4 L231.2,361.2 L229.5,361.5 L220.2,361.2 L217.6,360.8 L217.0,361.3 L217.0,362.5 L216.5,362.6 L212.7,361.6 L211.0,360.9 L208.3,358.6 L206.1,357.8 L205.3,356.9 L202.2,355.1 L198.3,353.9 L197.7,353.3 L197.5,351.8 L195.1,351.7 L192.1,350.2 L193.4,350.0 L193.9,349.5 L195.0,346.6 L196.0,345.3 L196.7,345.0 L198.4,344.9 L198.6,343.3 L195.9,342.5 L194.8,339.8 L195.7,339.7 L197.3,340.3 L198.7,339.8 L198.8,339.3 L197.8,338.7 L197.7,337.9 L198.3,335.9 L199.6,334.8 L202.2,334.9 L204.5,335.7 L202.6,333.8 L201.3,331.3 L201.5,330.7 L202.8,330.1 L203.9,327.7 L203.4,326.6 L200.9,328.1 L197.2,329.3 L194.4,328.1 L192.1,325.7 L190.7,325.2 L186.9,322.1 L186.9,321.7 L188.4,319.7 L188.7,317.8 L187.9,316.9 L188.1,316.1 L187.6,315.3 L186.5,315.4 L185.0,316.7 L183.3,316.6 L183.0,316.1 L183.1,315.4 L183.9,313.2 L182.8,312.3 L180.7,312.6 L180.6,311.3 L181.4,305.6 L181.7,305.2 L182.6,304.9 L185.8,305.2 L187.1,305.7 L188.4,305.7 L191.1,304.0 L192.3,303.6 L192.9,303.7 L193.2,304.8 L194.4,304.8 L195.9,304.1 L196.5,303.0 L199.0,301.6 L199.8,300.0 L203.1,299.7 L203.7,301.6 L204.0,301.9 L205.6,302.2 L207.3,301.7 L209.0,302.2 L211.6,300.9 L214.0,298.6 L214.6,298.9 L214.5,299.9 L214.9,300.5 L216.3,301.5 L218.4,299.9 L220.3,299.4 L221.7,300.4 L222.8,300.6 L224.1,300.2 L225.1,300.6 L226.0,301.4 L230.8,302.7 L231.6,303.3 L232.7,303.3 L233.9,304.2 L236.7,304.4 L238.6,305.2 L238.7,306.0 L238.0,307.2 L233.2,310.2 L230.1,311.1 L231.7,312.1 L232.6,312.1 L234.6,310.7 L237.8,309.7 L238.0,308.9 L241.5,307.9 L242.3,307.1 L245.4,307.2 L246.5,306.8 L247.5,307.2 L249.3,306.9 L252.5,305.8 L253.1,306.0 L253.3,306.5 L255.6,306.3 L256.6,305.2 L255.9,303.9 L255.9,303.5 L256.3,303.5 L256.0,301.2 L255.3,299.9 L254.9,299.6 L253.1,300.7 L252.6,300.5 L252.9,298.5 L253.7,297.7 L254.1,295.8 L253.5,294.8 L252.2,294.2 L252.0,291.9 L250.5,291.0 L249.1,291.2 L249.1,290.1 L248.0,289.1 L248.3,287.6 L247.1,287.4 L246.0,286.2 L244.5,286.6 L243.7,286.0 L244.3,285.0 L244.1,283.8 L243.6,283.2 L242.4,282.7 L243.0,281.8 L243.3,280.5 L244.1,279.9 L243.9,279.0 L245.2,276.4 L245.3,275.6 L244.4,273.5 L242.9,272.9 L241.0,271.3 L240.8,270.7 L241.7,270.7 L244.2,269.3 L245.2,269.0 L245.4,268.0 L245.0,267.4 L247.6,267.7 L250.5,267.3 L252.2,266.2 L255.9,266.8 L259.2,266.6 L261.6,265.5 L262.6,265.7 L263.1,266.9 L263.8,267.2 L265.0,267.5 L267.5,267.1 L268.5,267.9 L269.9,268.1 L271.1,268.8 L272.0,268.7 L272.1,269.1 L271.4,269.7 L272.4,270.4 L272.2,271.1 L274.3,271.0 L274.8,271.9 L275.6,272.3 L276.3,273.4 L277.5,273.9 L279.4,273.4 L280.7,273.9 L281.9,273.8 L283.6,273.1 L285.5,273.0 L286.9,272.1 L289.2,273.5 L289.5,273.2 L289.3,272.4 L289.6,271.1 L292.3,270.4 L293.1,270.6 L298.9,273.9 L300.1,275.1 L303.7,277.7 L304.1,278.4 L304.1,280.2 L305.1,281.3 L306.2,282.0 L306.4,282.5 L306.4,283.3 L305.8,284.6 L306.5,286.3 L305.9,288.2 L306.0,289.2 L304.5,290.1 L303.2,289.6 L301.9,289.5 L301.2,290.9 L301.1,292.6 L299.8,293.4 L297.6,295.5 L298.5,295.9 L300.5,297.7 L300.5,299.2 L301.6,299.1 L302.4,299.4 L306.3,302.2 L309.6,302.4 L309.2,304.4 L310.5,305.2 L311.9,308.1 L316.1,308.8 L318.7,308.3 L319.2,309.6 L317.3,310.7 L317.6,311.3 L317.4,313.1 L316.6,315.3 L315.3,317.0 L315.2,318.9 L314.1,319.4 L311.8,319.0 L310.2,320.1 L308.9,322.1 L307.6,323.3 L307.7,325.1 L307.1,326.8 L307.6,327.5 L309.1,328.5 L309.4,329.3 L310.7,329.2 L313.2,330.3 L318.2,331.4 L318.4,331.9 L318.2,334.1 L317.4,335.8 L316.6,336.5 L315.7,338.2 L315.4,338.9 L315.6,339.8 L319.6,343.4 L322.8,343.4 L324.6,343.0 L325.3,343.3 L326.6,345.1 L326.4,346.1 L326.9,347.2 L326.6,348.1 L325.7,348.6 L325.5,349.1 L325.9,350.1 L327.2,351.6 L325.4,352.5 L323.3,352.6 L320.4,350.7 Z" fill="rgba(139,26,43,0.15)" stroke="rgba(139,26,43,0.4)" stroke-width="0.5"/>
    <path class="region-area" d="M358.7,345.9 L361.7,346.9 L362.7,347.8 L362.2,348.0 L364.1,348.8 L364.3,349.8 L362.4,350.3 L361.4,351.6 L360.5,351.7 L359.4,352.4 L359.1,352.9 L359.3,353.4 L356.2,353.6 L355.3,354.0 L354.9,354.6 L354.7,355.9 L354.2,356.4 L350.9,356.8 L345.9,358.6 L343.8,360.5 L343.2,362.1 L341.6,362.2 L341.2,363.0 L340.0,362.9 L339.7,364.2 L340.2,367.2 L339.8,367.6 L337.3,367.8 L336.3,368.7 L335.6,370.2 L335.3,374.3 L333.5,375.4 L331.8,379.0 L331.0,379.1 L329.3,378.3 L326.7,376.2 L323.2,371.4 L323.1,369.6 L324.5,367.6 L325.0,365.2 L324.2,363.4 L321.5,362.6 L321.3,361.8 L321.3,359.9 L323.5,357.7 L323.8,354.7 L323.3,352.6 L325.4,352.5 L327.2,351.6 L325.9,350.1 L325.5,349.1 L325.7,348.6 L326.6,348.1 L326.9,347.2 L326.4,346.1 L326.6,345.1 L325.3,343.3 L324.6,343.0 L322.8,343.4 L319.6,343.4 L315.6,339.8 L315.4,338.9 L315.7,338.2 L316.6,336.5 L317.4,335.8 L318.2,334.1 L318.4,331.9 L318.2,331.4 L313.2,330.3 L310.7,329.2 L309.4,329.3 L309.1,328.5 L307.6,327.5 L307.1,326.8 L307.7,325.1 L307.6,323.3 L308.9,322.1 L310.2,320.1 L311.8,319.0 L314.1,319.4 L315.2,318.9 L315.3,317.0 L316.6,315.3 L317.4,313.1 L317.6,311.3 L317.3,310.7 L317.6,310.3 L319.2,309.6 L319.8,309.8 L322.3,309.4 L324.9,309.5 L327.0,310.5 L326.9,311.7 L327.4,313.3 L329.0,313.4 L330.8,312.7 L329.5,311.3 L329.3,310.4 L329.5,309.5 L331.3,308.6 L332.0,307.4 L334.3,307.2 L336.6,306.3 L336.5,305.2 L338.0,303.7 L338.6,302.1 L338.7,301.0 L341.9,301.0 L343.7,300.3 L343.9,299.0 L347.3,296.5 L347.2,296.0 L345.7,294.7 L345.6,294.2 L347.8,293.1 L347.5,292.3 L346.9,291.9 L347.1,288.9 L345.8,288.9 L344.4,288.5 L344.3,287.1 L345.4,286.7 L346.7,287.0 L349.0,286.0 L349.4,284.3 L350.7,283.2 L351.7,283.4 L354.2,284.8 L357.3,284.9 L357.8,285.9 L359.7,285.2 L363.8,284.8 L364.6,285.7 L366.1,286.3 L365.7,287.3 L366.2,288.0 L370.3,289.4 L371.6,290.7 L373.8,291.5 L373.0,292.8 L371.5,294.5 L371.2,295.3 L370.4,296.0 L368.1,299.4 L365.3,301.8 L363.4,303.1 L361.4,306.1 L358.8,307.6 L355.7,311.9 L353.7,313.6 L350.3,318.0 L349.8,319.6 L348.3,321.2 L346.1,324.5 L345.9,325.6 L346.2,328.7 L346.8,330.8 L349.6,335.4 L348.8,335.9 L349.8,338.8 L353.2,343.4 L356.3,345.6 L358.7,345.9 Z" fill="rgba(139,26,43,0.15)" stroke="rgba(139,26,43,0.4)" stroke-width="0.5"/>
    <path class="region-area" d="M314.4,302.1 L316.3,304.7 L319.1,305.1 L319.9,305.5 L321.4,306.5 L321.4,307.2 L319.5,308.1 L316.1,308.8 L311.6,307.9 L310.5,305.2 L309.2,304.4 L309.3,303.8 L311.1,304.1 L312.8,304.0 L313.6,303.6 L313.7,302.3 L314.4,302.1 Z" fill="rgba(139,26,43,0.15)" stroke="rgba(139,26,43,0.4)" stroke-width="0.5"/>
    <path class="region-area" d="M331.8,380.7 L330.9,379.8 L330.1,381.5 L329.0,382.0 L328.7,382.4 L328.8,383.0 L330.2,384.9 L332.0,385.7 L332.7,385.8 L332.9,385.4 L333.5,385.7 L333.6,386.4 L332.9,387.0 L332.0,386.9 L329.3,387.8 L327.7,387.9 L326.4,388.5 L324.9,387.8 L321.1,387.7 L320.1,388.4 L320.5,389.3 L318.5,388.9 L318.2,388.2 L316.1,387.7 L315.5,388.4 L313.4,388.3 L308.6,390.9 L307.8,392.7 L307.2,392.5 L303.0,394.2 L300.1,392.3 L298.1,391.9 L297.7,392.4 L297.0,392.1 L291.3,385.3 L291.2,383.7 L291.5,382.6 L291.2,380.9 L291.6,379.2 L292.1,378.4 L288.8,377.9 L287.2,377.3 L285.7,377.4 L283.7,376.4 L281.7,374.0 L280.3,373.1 L280.7,372.0 L283.1,369.5 L284.4,367.6 L285.8,366.7 L287.2,366.3 L289.9,364.3 L290.6,364.2 L291.6,364.9 L293.7,364.5 L298.0,362.4 L298.2,362.0 L299.5,361.6 L301.4,361.9 L301.7,363.2 L302.6,363.7 L303.5,363.8 L305.5,363.3 L308.3,361.3 L308.1,358.2 L307.6,356.5 L309.2,354.7 L309.3,353.5 L309.8,352.6 L311.9,351.0 L313.1,351.6 L316.1,349.9 L318.3,349.4 L320.1,349.8 L320.6,350.9 L323.3,352.6 L323.8,354.7 L323.4,358.0 L321.5,359.6 L321.2,360.4 L321.5,362.6 L324.2,363.4 L325.0,365.2 L324.5,367.6 L323.1,369.6 L323.2,371.4 L327.6,377.0 L329.3,378.3 L331.0,379.1 L331.8,379.0 L331.8,380.7 Z" fill="rgba(139,26,43,0.15)" stroke="rgba(139,26,43,0.4)" stroke-width="0.5"/>
    <path class="region-area" d="M181.4,434.0 L179.4,433.5 L178.9,434.5 L179.3,436.7 L179.0,437.3 L173.3,439.1 L172.8,438.1 L170.8,437.1 L170.0,437.4 L167.3,436.5 L163.4,433.3 L161.2,433.6 L159.5,433.1 L157.2,430.2 L155.5,429.4 L154.6,427.2 L153.5,426.2 L151.5,422.6 L150.5,421.9 L151.2,421.8 L152.3,422.5 L152.5,422.8 L152.4,423.1 L153.1,423.9 L153.8,423.6 L154.8,422.6 L153.3,422.6 L153.0,420.5 L151.4,419.3 L148.3,418.9 L147.8,418.5 L146.4,415.4 L146.5,414.8 L147.1,414.3 L149.4,413.4 L149.7,412.6 L149.4,411.2 L149.6,410.5 L150.7,409.7 L153.4,409.9 L154.3,408.9 L152.8,409.5 L152.0,409.5 L151.4,409.1 L149.4,409.9 L149.2,410.6 L149.3,412.6 L149.2,412.9 L148.0,412.9 L147.1,412.0 L145.3,408.8 L144.3,408.0 L136.3,403.4 L134.1,402.6 L131.5,401.2 L130.7,399.6 L132.8,397.0 L130.2,399.0 L129.2,399.0 L130.3,401.0 L124.7,399.3 L123.8,399.7 L125.2,399.9 L117.3,400.1 L115.5,400.8 L114.5,400.4 L113.8,398.2 L114.0,397.7 L113.5,394.0 L112.9,393.0 L112.7,391.1 L112.5,390.5 L111.2,389.4 L110.7,388.1 L111.1,387.7 L111.2,387.0 L112.6,385.9 L113.5,382.8 L117.1,380.1 L118.0,378.9 L119.2,375.7 L119.1,374.8 L120.7,374.2 L121.9,374.4 L122.8,374.1 L124.0,372.7 L126.4,373.3 L127.2,373.3 L129.6,367.5 L130.2,367.2 L134.6,368.4 L134.8,368.8 L134.1,370.1 L134.5,370.4 L136.2,370.9 L138.5,370.9 L140.5,371.2 L141.6,372.1 L142.0,373.2 L144.8,373.5 L146.0,372.3 L146.8,372.1 L148.5,373.0 L149.0,374.0 L154.1,375.6 L154.7,376.0 L156.9,374.7 L162.2,373.7 L163.6,371.8 L163.2,371.0 L163.4,370.3 L166.0,368.3 L169.6,367.8 L170.7,369.0 L169.4,369.8 L169.5,370.9 L170.7,371.0 L173.0,369.5 L174.4,369.6 L175.9,368.5 L176.4,366.7 L176.3,365.3 L174.8,363.0 L175.0,361.8 L174.5,361.1 L174.7,360.1 L177.4,358.8 L179.6,357.1 L180.3,356.1 L181.5,354.9 L183.3,354.9 L183.9,354.0 L185.0,353.3 L187.4,352.2 L187.9,351.3 L187.7,350.9 L188.1,350.5 L192.1,350.2 L195.1,351.7 L197.2,351.6 L197.6,352.0 L197.7,353.3 L198.3,353.9 L202.2,355.1 L205.3,356.9 L206.1,357.8 L208.3,358.6 L211.3,361.1 L216.5,362.6 L217.0,362.5 L217.0,361.3 L217.6,360.8 L220.2,361.2 L229.5,361.5 L231.2,361.2 L231.8,360.4 L233.2,360.0 L238.8,360.9 L239.4,360.7 L239.8,359.5 L240.6,359.3 L241.1,359.5 L241.7,360.5 L244.1,360.7 L245.7,360.1 L246.8,358.5 L248.1,358.2 L254.2,359.2 L256.7,358.2 L258.6,360.0 L258.9,359.2 L259.8,358.7 L261.2,358.4 L262.6,359.0 L266.6,356.6 L269.3,357.7 L270.9,357.3 L272.6,357.6 L272.7,360.0 L273.1,360.5 L275.4,361.0 L275.7,363.9 L277.0,364.8 L277.3,365.5 L276.7,366.7 L276.8,367.9 L273.5,371.4 L276.1,372.4 L279.5,373.2 L280.3,373.1 L281.7,374.0 L283.7,376.4 L285.7,377.4 L287.2,377.3 L288.8,377.9 L292.1,378.4 L291.6,379.2 L291.2,380.9 L291.5,382.6 L291.2,383.7 L291.3,385.3 L297.0,392.1 L297.7,392.4 L298.1,391.9 L300.1,392.3 L303.0,394.2 L302.7,394.9 L302.1,394.8 L301.8,395.1 L300.2,397.4 L297.5,399.9 L296.1,404.2 L294.4,407.1 L294.6,408.6 L293.2,409.0 L291.7,409.9 L291.2,410.4 L290.9,411.7 L289.5,412.9 L289.0,414.0 L288.0,414.3 L287.7,415.0 L286.5,415.5 L284.7,415.3 L282.1,412.9 L279.5,412.0 L277.2,412.7 L275.6,412.2 L273.0,412.6 L272.5,412.8 L271.2,415.5 L269.8,416.6 L267.9,417.1 L267.3,416.9 L266.6,417.1 L264.5,416.0 L263.6,416.5 L262.4,415.3 L260.8,414.8 L259.1,415.3 L256.2,414.8 L253.5,415.0 L251.2,414.7 L247.9,415.0 L245.1,416.6 L243.1,416.6 L241.8,415.8 L240.7,416.1 L239.5,415.6 L239.0,415.1 L234.8,415.7 L231.3,414.8 L227.3,415.6 L224.1,414.9 L222.4,415.6 L218.7,416.1 L212.8,415.7 L211.8,416.1 L208.9,420.4 L206.8,420.6 L205.9,422.0 L204.5,422.8 L202.4,423.2 L196.5,422.8 L193.5,424.4 L191.3,424.6 L189.8,425.3 L187.2,425.9 L185.9,427.6 L185.0,429.6 L183.8,430.3 L184.0,430.8 L182.4,433.2 L182.3,434.7 L181.6,434.7 L181.4,434.0 Z" fill="rgba(139,26,43,0.15)" stroke="rgba(139,26,43,0.4)" stroke-width="0.5"/>
    <path class="region-area" d="M318.7,308.3 L321.3,307.4 L321.5,307.0 L321.4,306.5 L319.1,305.1 L316.3,304.7 L314.4,302.1 L313.5,302.5 L313.4,303.8 L312.1,304.1 L309.3,303.8 L309.7,302.8 L309.5,302.2 L306.3,302.2 L302.4,299.4 L301.6,299.1 L300.5,299.2 L300.5,297.7 L298.5,295.9 L297.6,295.5 L299.8,293.4 L301.1,292.6 L301.2,290.9 L301.9,289.5 L303.2,289.6 L304.5,290.1 L306.0,289.2 L305.9,288.2 L306.4,287.0 L306.4,286.0 L305.8,285.0 L306.4,283.3 L306.2,282.0 L304.4,280.6 L303.9,279.7 L304.1,278.4 L303.7,277.7 L297.3,272.8 L293.1,270.6 L292.3,270.4 L289.6,271.1 L288.6,270.4 L286.8,270.1 L286.5,269.7 L286.1,267.2 L285.7,266.4 L285.7,265.3 L286.1,264.5 L287.2,263.7 L287.5,261.9 L288.1,261.5 L289.6,261.8 L290.0,262.1 L290.0,263.1 L290.3,263.4 L293.1,262.4 L292.8,260.8 L292.1,260.0 L291.7,256.5 L292.5,256.1 L293.8,256.3 L296.1,254.7 L297.3,254.4 L298.3,252.9 L298.3,252.5 L296.4,250.2 L297.3,248.2 L296.2,246.4 L296.0,244.8 L296.4,243.9 L296.2,243.3 L298.9,243.6 L301.0,244.8 L303.1,244.7 L305.8,246.2 L308.0,245.9 L310.5,246.2 L313.7,242.1 L313.7,241.3 L312.5,241.0 L311.2,239.4 L311.0,237.5 L310.4,236.1 L311.5,233.5 L313.2,231.6 L312.6,230.9 L312.8,229.8 L315.1,227.4 L314.7,226.5 L314.9,226.0 L315.6,225.3 L316.6,225.4 L317.3,225.1 L317.6,224.5 L318.9,223.7 L318.4,223.3 L318.9,223.1 L319.3,222.4 L322.5,222.1 L323.2,220.6 L325.2,220.1 L328.3,218.2 L329.0,215.6 L329.9,214.7 L330.3,213.8 L331.5,213.3 L332.3,213.3 L332.3,214.1 L332.8,214.7 L333.8,214.7 L335.5,215.6 L336.8,216.8 L336.7,217.2 L337.6,217.3 L338.1,218.1 L339.2,217.7 L339.2,216.9 L341.8,217.6 L342.8,217.5 L345.2,216.2 L345.7,216.4 L346.1,215.8 L348.6,217.0 L349.0,217.6 L351.4,217.4 L351.5,218.5 L352.8,219.9 L355.4,221.0 L362.2,219.6 L364.5,220.1 L365.7,221.5 L366.1,221.4 L367.6,220.1 L368.2,219.9 L369.4,221.0 L370.0,221.0 L371.9,220.8 L377.7,221.0 L378.3,220.6 L378.7,220.8 L380.1,222.9 L381.8,223.6 L381.5,224.9 L380.5,226.4 L380.5,227.0 L379.6,227.5 L381.0,230.6 L381.2,232.6 L381.0,234.5 L379.7,237.5 L379.6,239.4 L378.1,242.5 L378.0,243.3 L375.2,245.3 L376.0,246.2 L376.1,247.7 L374.4,249.0 L373.0,249.5 L371.8,250.9 L369.9,251.4 L367.4,253.9 L368.1,256.2 L368.6,256.5 L370.5,256.6 L371.1,258.2 L369.6,259.9 L368.1,260.4 L368.1,261.8 L367.3,263.3 L367.4,263.9 L368.2,264.2 L368.9,264.9 L369.0,265.5 L368.2,266.9 L368.4,268.4 L366.9,269.2 L366.2,270.8 L363.6,271.9 L363.4,272.3 L364.1,274.6 L365.6,275.4 L366.1,276.6 L364.8,279.6 L365.5,281.6 L365.4,282.1 L364.1,283.5 L362.1,284.4 L362.3,284.8 L359.3,285.3 L358.1,285.9 L357.6,285.8 L357.3,284.9 L354.2,284.8 L351.7,283.4 L350.7,283.2 L349.4,284.3 L349.0,286.0 L346.7,287.0 L345.4,286.7 L344.3,287.1 L344.4,288.5 L345.8,288.9 L347.1,288.9 L346.9,291.9 L347.5,292.3 L347.8,293.1 L345.6,294.2 L345.7,294.7 L347.2,296.0 L347.3,296.5 L343.9,299.0 L343.9,300.0 L343.4,300.5 L340.5,301.1 L339.2,300.8 L338.7,301.0 L338.6,302.1 L338.0,303.7 L336.5,305.2 L336.6,306.3 L334.3,307.2 L332.0,307.4 L331.3,308.6 L329.7,309.3 L329.3,310.2 L329.5,311.3 L330.8,312.7 L329.0,313.4 L327.7,313.4 L327.2,313.1 L326.9,311.7 L327.1,310.8 L326.5,310.1 L324.0,309.3 L319.8,309.8 L319.2,309.6 L318.7,308.3 Z" fill="rgba(139,26,43,0.15)" stroke="rgba(139,26,43,0.4)" stroke-width="0.5"/>
    <path class="region-area" d="M119.2,353.8 L118.5,353.2 L118.4,352.6 L118.7,350.7 L119.2,349.9 L122.1,348.2 L123.1,347.2 L124.6,347.0 L126.2,346.1 L126.3,345.1 L125.8,344.4 L127.3,343.2 L128.7,341.2 L128.8,340.6 L128.4,340.4 L128.7,339.8 L128.0,338.6 L126.7,337.8 L125.0,337.7 L123.8,338.1 L122.9,337.9 L122.5,337.4 L122.9,336.4 L122.5,335.8 L120.0,334.9 L119.3,333.8 L119.4,333.1 L119.8,332.5 L117.3,330.2 L117.2,328.8 L117.8,326.4 L117.5,326.1 L115.0,325.2 L114.4,324.2 L113.3,323.8 L111.1,321.9 L109.8,319.1 L116.8,319.4 L120.3,318.9 L122.0,319.3 L127.3,318.7 L127.7,318.0 L127.6,317.2 L128.2,316.0 L128.0,315.1 L128.5,314.5 L129.5,314.1 L130.4,313.2 L130.4,311.3 L131.0,310.9 L131.2,309.4 L131.9,308.4 L129.4,305.3 L127.5,304.8 L127.1,304.3 L126.6,302.7 L127.5,301.3 L129.5,300.4 L131.4,300.3 L132.0,300.0 L132.1,299.5 L134.1,300.7 L135.9,300.7 L137.2,300.2 L138.2,300.5 L142.0,299.6 L142.6,299.1 L142.4,298.2 L142.8,297.8 L146.2,296.4 L147.2,295.7 L148.5,295.4 L149.8,294.2 L151.5,293.8 L152.9,293.0 L153.9,293.1 L158.4,295.6 L157.6,297.1 L163.1,299.5 L164.0,299.2 L164.7,298.2 L167.1,297.5 L167.8,298.1 L167.5,299.0 L167.7,299.3 L169.6,299.1 L170.9,299.5 L173.6,301.5 L175.7,302.2 L177.4,302.1 L179.5,300.7 L181.7,300.3 L181.9,300.6 L181.4,301.8 L181.5,303.3 L182.6,304.9 L181.7,305.2 L181.4,305.6 L180.6,312.1 L180.7,312.6 L182.8,312.3 L183.9,313.2 L183.1,315.4 L183.0,316.1 L183.3,316.6 L184.8,316.8 L186.5,315.4 L187.8,315.4 L188.1,316.1 L187.9,316.9 L188.7,318.1 L188.2,320.1 L186.9,321.7 L186.9,322.1 L190.7,325.2 L192.1,325.7 L194.4,328.1 L197.2,329.3 L200.9,328.1 L203.4,326.6 L203.9,327.7 L202.8,330.1 L201.5,330.7 L201.3,331.3 L202.6,333.8 L204.5,335.7 L202.2,334.9 L199.6,334.8 L198.3,335.9 L197.7,337.9 L197.8,338.7 L198.8,339.3 L198.7,339.8 L197.3,340.3 L195.7,339.7 L194.8,339.8 L195.9,342.5 L198.6,343.3 L198.4,344.9 L196.4,345.1 L195.7,345.6 L193.6,349.8 L190.7,350.5 L187.8,350.7 L187.9,351.3 L187.4,352.2 L185.0,353.3 L183.9,354.0 L183.3,354.9 L181.5,354.9 L180.3,356.1 L179.6,357.1 L177.4,358.8 L174.7,360.1 L174.5,361.1 L175.0,361.8 L174.8,363.0 L176.3,365.2 L176.4,366.2 L175.8,368.7 L174.4,369.6 L173.0,369.5 L170.7,371.0 L170.1,371.1 L169.5,370.9 L169.3,370.0 L170.7,369.0 L170.0,368.1 L169.1,367.8 L166.0,368.3 L163.4,370.3 L163.2,371.0 L163.6,371.6 L163.5,372.1 L162.6,373.4 L161.5,374.0 L156.9,374.7 L154.7,376.0 L154.1,375.6 L149.0,374.0 L148.5,373.0 L146.8,372.1 L146.0,372.3 L144.8,373.5 L142.0,373.2 L141.6,372.1 L140.5,371.2 L138.5,370.9 L136.2,370.9 L134.5,370.4 L134.1,370.1 L134.8,368.8 L134.6,368.4 L130.2,367.2 L129.6,367.5 L129.2,367.3 L127.1,367.5 L125.9,368.2 L124.6,368.3 L123.9,367.8 L122.5,365.1 L121.6,364.5 L117.6,360.1 L116.3,359.4 L117.1,358.7 L116.7,357.9 L117.6,355.8 L119.0,354.3 L119.2,353.8 Z" fill="rgba(139,26,43,0.15)" stroke="rgba(139,26,43,0.4)" stroke-width="0.5"/></g>
  <g>    <circle cx="98.3" cy="218.6" r="9" fill="#8B1A2B" stroke="#fff" stroke-width="0.8"/>
    <text x="98.3" y="222.1" text-anchor="middle" font-family="Inter, sans-serif" font-size="9" font-weight="700" fill="#fff">1</text>
    <circle cx="275.1" cy="234.2" r="9" fill="#8B1A2B" stroke="#fff" stroke-width="0.8"/>
    <text x="275.1" y="237.7" text-anchor="middle" font-family="Inter, sans-serif" font-size="9" font-weight="700" fill="#fff">2</text>
    <circle cx="303.0" cy="221.5" r="9" fill="#8B1A2B" stroke="#fff" stroke-width="0.8"/>
    <text x="303.0" y="225.0" text-anchor="middle" font-family="Inter, sans-serif" font-size="9" font-weight="700" fill="#fff">3</text>
    <circle cx="406.7" cy="250.0" r="9" fill="#8B1A2B" stroke="#fff" stroke-width="0.8"/>
    <text x="406.7" y="253.5" text-anchor="middle" font-family="Inter, sans-serif" font-size="9" font-weight="700" fill="#fff">4</text>
    <circle cx="200.8" cy="247.8" r="9" fill="#8B1A2B" stroke="#fff" stroke-width="0.8"/>
    <text x="200.8" y="251.3" text-anchor="middle" font-family="Inter, sans-serif" font-size="9" font-weight="700" fill="#fff">5</text>
    <circle cx="258.6" cy="322.3" r="9" fill="#8B1A2B" stroke="#fff" stroke-width="0.8"/>
    <text x="258.6" y="325.8" text-anchor="middle" font-family="Inter, sans-serif" font-size="9" font-weight="700" fill="#fff">6</text>
    <circle cx="338.7" cy="328.1" r="9" fill="#8B1A2B" stroke="#fff" stroke-width="0.8"/>
    <text x="338.7" y="331.6" text-anchor="middle" font-family="Inter, sans-serif" font-size="9" font-weight="700" fill="#fff">7</text>
    <circle cx="308.2" cy="373.9" r="9" fill="#8B1A2B" stroke="#fff" stroke-width="0.8"/>
    <text x="308.2" y="377.4" text-anchor="middle" font-family="Inter, sans-serif" font-size="9" font-weight="700" fill="#fff">8</text>
    <circle cx="207.2" cy="391.5" r="9" fill="#8B1A2B" stroke="#fff" stroke-width="0.8"/>
    <text x="207.2" y="395.0" text-anchor="middle" font-family="Inter, sans-serif" font-size="9" font-weight="700" fill="#fff">9</text>
    <circle cx="335.1" cy="259.1" r="9" fill="#8B1A2B" stroke="#fff" stroke-width="0.8"/>
    <text x="335.1" y="262.6" text-anchor="middle" font-family="Inter, sans-serif" font-size="9" font-weight="700" fill="#fff">10</text>
    <circle cx="155.4" cy="335.1" r="9" fill="#8B1A2B" stroke="#fff" stroke-width="0.8"/>
    <text x="155.4" y="338.6" text-anchor="middle" font-family="Inter, sans-serif" font-size="9" font-weight="700" fill="#fff">11</text></g>
  <line x1="28" y1="461" x2="522" y2="461" stroke="#8B1A2B" stroke-width="0.3" opacity="0.25"/>
  <text x="32" y="469" font-family="Inter, sans-serif" font-size="8.5" fill="#2D1B14"><tspan font-weight="700">1. Galicien</tspan> : Albarino, Godello, Mencia</text>
  <text x="32" y="484" font-family="Inter, sans-serif" font-size="8.5" fill="#2D1B14"><tspan font-weight="700">2. Rioja</tspan> : Tempranillo, Garnacha, Graciano</text>
  <text x="32" y="499" font-family="Inter, sans-serif" font-size="8.5" fill="#2D1B14"><tspan font-weight="700">3. Navarra</tspan> : Garnacha, Tempranillo</text>
  <text x="32" y="514" font-family="Inter, sans-serif" font-size="8.5" fill="#2D1B14"><tspan font-weight="700">4. Katalonien</tspan> : Garnacha, Macabeo, Xarel-lo</text>
  <text x="32" y="529" font-family="Inter, sans-serif" font-size="8.5" fill="#2D1B14"><tspan font-weight="700">5. Kastilien-Leon</tspan> : Tempranillo, Verdejo</text>
  <text x="32" y="544" font-family="Inter, sans-serif" font-size="8.5" fill="#2D1B14"><tspan font-weight="700">6. Kastilien-La Mancha</tspan> : Airen, Tempranillo</text>
  <text x="32" y="559" font-family="Inter, sans-serif" font-size="8.5" fill="#2D1B14"><tspan font-weight="700">7. Valencia</tspan> : Monastrell, Bobal</text>
  <text x="32" y="574" font-family="Inter, sans-serif" font-size="8.5" fill="#2D1B14"><tspan font-weight="700">8. Murcia</tspan> : Monastrell</text>
  <text x="32" y="589" font-family="Inter, sans-serif" font-size="8.5" fill="#2D1B14"><tspan font-weight="700">9. Andalusien</tspan> : Palomino, Pedro Ximenez</text>
  <text x="32" y="604" font-family="Inter, sans-serif" font-size="8.5" fill="#2D1B14"><tspan font-weight="700">10. Aragonien</tspan> : Garnacha, Carinena</text>
  <text x="32" y="619" font-family="Inter, sans-serif" font-size="8.5" fill="#2D1B14"><tspan font-weight="700">11. Extremadura</tspan> : Tempranillo</text>
  <text x="275" y="676" text-anchor="middle" font-family="Inter, sans-serif" font-size="7" fill="#b0a89e">Cellar -- Sommelier Companion</text>
</svg>