<svg xmlns="http://www.w3.org/2000/svg" viewBox="0 0 520 520">
  <defs><filter id="shadow"><feDropShadow dx="1" dy="1.5" stdDeviation="2" flood-color="#2D1B14" flood-opacity="0.08"/></filter></defs>
  <style>.region-label { display: none !important; }</style>
  <text x="260" y="24" text-anchor="middle" font-family="Cormorant Garamond, Georgia, serif" font-size="16" font-weight="400" fill="#2D1B14" letter-spacing="5">SYDAFRIKA</text>
  <text x="260" y="42" text-anchor="middle" font-family="Inter, sans-serif" font-size="8" fill="#8a7a6a" letter-spacing="1" class="region-label">Placera regionerna och namnge de viktigaste druvorna</text>
  <g filter="url(#shadow)">    <path d="M115.7,170.1 L115.9,170.5 L117.1,171.9 L119.4,173.7 L120.8,174.1 L123.0,175.3 L126.7,178.1 L129.0,182.0 L128.7,182.9 L129.0,183.3 L130.1,183.8 L130.2,184.8 L131.1,185.3 L130.9,186.2 L131.5,187.0 L131.8,188.2 L133.2,188.8 L133.4,189.6 L133.8,189.6 L133.7,190.5 L134.0,190.6 L134.8,190.3 L135.1,190.6 L134.3,191.1 L134.1,191.6 L134.0,192.4 L135.3,193.4 L135.6,194.2 L134.6,195.0 L134.7,195.3 L135.5,195.7 L135.3,196.9 L136.6,197.7 L136.9,198.2 L137.5,200.2 L137.1,201.0 L138.0,200.7 L139.1,202.9 L139.4,208.0 L140.4,209.7 L140.3,210.2 L139.1,211.7 L137.9,213.9 L136.2,215.8 L135.4,217.2 L134.1,218.2 L133.7,220.1 L133.7,221.7 L134.4,223.1 L133.8,225.7 L133.9,227.6 L134.6,229.4 L135.7,230.4 L136.1,231.6 L140.7,229.1 L142.3,228.9 L144.7,230.0 L148.5,230.8 L149.4,230.8 L151.9,230.1 L153.5,230.2 L155.9,229.6 L157.3,229.6 L159.3,230.3 L161.8,230.3 L164.1,230.8 L166.9,229.1 L167.4,228.0 L167.1,225.7 L167.4,225.4 L169.1,225.0 L171.9,225.0 L173.7,224.6 L175.4,223.7 L176.9,222.4 L178.0,220.9 L179.4,217.6 L180.6,216.5 L180.9,215.9 L183.6,215.1 L186.7,212.0 L187.6,211.8 L188.9,212.1 L189.4,211.9 L190.4,210.1 L191.7,209.1 L192.9,207.4 L192.8,206.5 L193.9,206.0 L194.4,205.5 L194.6,203.7 L194.1,202.8 L195.8,201.0 L195.5,200.4 L195.1,199.9 L195.0,199.5 L195.6,198.3 L197.0,196.7 L197.1,195.2 L197.7,194.6 L197.2,193.5 L198.0,191.0 L199.3,190.1 L200.2,188.4 L201.2,187.9 L201.6,187.2 L202.7,186.1 L203.4,185.8 L204.1,185.9 L204.6,186.6 L207.3,185.2 L208.7,184.9 L210.1,184.8 L213.5,185.6 L215.3,185.2 L215.7,185.3 L216.8,186.5 L218.6,187.5 L222.2,190.3 L223.9,190.7 L224.6,191.8 L225.7,192.2 L226.8,193.5 L229.1,195.3 L230.9,195.0 L231.5,195.4 L231.4,196.0 L235.0,195.2 L236.5,195.2 L237.8,195.8 L239.8,198.0 L241.0,198.8 L242.4,199.0 L244.4,198.5 L247.8,199.7 L249.4,200.7 L250.4,200.9 L252.5,200.6 L254.2,201.0 L255.1,200.9 L257.4,200.3 L259.1,199.1 L260.4,198.5 L261.5,198.4 L265.1,199.1 L271.1,198.6 L273.2,197.6 L276.9,195.0 L279.1,189.8 L280.0,186.1 L282.5,181.0 L283.1,179.1 L284.0,177.7 L284.1,176.6 L285.2,173.9 L285.0,169.9 L286.3,169.5 L287.8,169.5 L289.1,168.7 L296.8,166.5 L298.1,166.3 L300.4,166.6 L302.2,164.9 L303.3,162.5 L304.0,161.6 L306.7,159.9 L308.7,157.8 L311.8,156.8 L312.9,156.1 L313.2,155.6 L313.7,153.0 L313.8,151.8 L315.8,144.1 L315.9,143.4 L315.7,142.8 L316.5,141.4 L316.6,140.4 L317.9,138.0 L318.2,138.2 L318.6,138.8 L319.1,138.8 L319.5,138.5 L319.3,137.1 L319.7,137.3 L320.8,135.9 L321.4,136.1 L321.6,135.7 L321.2,135.4 L321.2,134.8 L321.8,134.9 L322.0,135.1 L322.4,134.5 L322.9,134.8 L323.4,134.7 L323.0,134.2 L323.3,133.8 L324.4,133.5 L326.0,132.7 L327.6,130.9 L327.9,131.8 L328.5,131.2 L329.3,130.9 L329.5,130.9 L329.3,131.4 L329.7,131.6 L330.5,130.8 L332.1,130.6 L333.3,130.1 L333.7,129.5 L333.9,128.9 L333.7,128.3 L334.0,128.0 L334.2,127.3 L334.7,126.7 L335.0,125.9 L336.1,126.2 L337.6,125.2 L338.4,126.1 L338.8,126.2 L339.2,126.0 L339.8,124.7 L340.2,124.4 L339.8,123.7 L339.8,123.3 L341.1,123.2 L341.0,122.7 L343.2,122.0 L344.2,121.3 L344.7,120.5 L344.5,118.6 L346.5,117.8 L347.3,117.1 L347.8,115.9 L347.6,115.0 L349.2,114.4 L349.6,113.6 L350.7,113.1 L350.9,112.8 L350.8,111.6 L351.9,110.2 L353.5,109.8 L354.9,108.3 L357.1,107.5 L359.5,107.3 L361.3,107.8 L362.3,107.1 L364.2,107.1 L367.3,105.7 L369.7,105.1 L370.1,104.8 L370.6,103.9 L372.5,104.0 L373.0,103.6 L374.1,101.9 L373.9,99.9 L375.5,98.3 L376.1,97.4 L379.9,97.1 L381.4,96.2 L382.1,96.1 L383.7,96.4 L385.1,96.3 L385.9,96.5 L388.1,95.5 L390.3,95.9 L390.8,95.1 L392.4,95.1 L394.0,94.6 L394.5,94.9 L396.8,94.7 L397.4,94.9 L399.1,95.9 L402.2,96.6 L403.9,97.3 L404.8,98.2 L406.1,98.5 L407.6,99.4 L410.1,99.3 L412.4,100.6 L413.4,100.8 L415.6,100.6 L417.8,99.9 L421.0,100.0 L421.9,100.4 L423.7,99.6 L426.9,99.4 L427.8,99.1 L430.4,99.4 L435.0,100.6 L436.9,100.0 L438.6,101.3 L439.8,101.2 L440.8,102.4 L440.5,102.9 L447.9,124.2 L448.1,125.1 L447.5,131.6 L447.7,132.8 L448.2,133.8 L451.0,136.6 L451.5,137.6 L452.6,141.2 L454.2,144.3 L457.0,146.4 L457.5,153.1 L460.1,158.4 L460.9,160.6 L461.0,162.8 L460.8,164.8 L460.9,187.9 L460.4,189.3 L460.3,191.0 L460.9,193.1 L461.1,195.5 L461.0,195.9 L459.9,196.9 L458.5,200.6 L459.8,204.7 L458.1,205.5 L457.3,205.6 L456.5,205.4 L444.8,198.6 L444.0,198.3 L443.2,198.4 L441.4,199.0 L435.9,203.4 L433.6,208.8 L431.6,212.0 L426.9,217.4 L426.3,219.5 L426.3,226.5 L426.8,229.2 L427.8,229.1 L429.1,228.1 L429.7,229.8 L431.2,231.6 L431.4,232.1 L431.0,234.0 L431.2,234.7 L431.8,235.7 L434.8,238.1 L436.6,240.3 L445.7,243.3 L447.6,243.6 L460.3,243.8 L459.7,242.0 L459.6,237.6 L461.0,230.0 L461.0,229.2 L463.4,229.3 L464.1,229.9 L465.4,230.3 L467.7,230.1 L471.4,230.7 L486.9,230.3 L486.6,231.4 L486.1,235.2 L485.4,238.2 L484.4,239.5 L483.7,242.0 L480.7,249.7 L478.3,260.0 L478.5,261.2 L477.1,268.4 L474.5,272.3 L473.9,274.0 L473.4,274.4 L472.7,274.6 L473.0,274.9 L473.3,274.8 L473.6,275.8 L472.5,278.8 L469.7,281.6 L468.0,282.5 L466.8,284.0 L463.7,286.4 L462.9,285.8 L461.7,286.0 L461.1,286.6 L461.7,287.4 L462.3,286.9 L463.3,286.6 L462.7,287.5 L461.6,288.3 L458.0,290.0 L457.0,290.2 L454.6,290.0 L455.0,290.7 L454.1,291.2 L448.5,296.8 L446.5,298.2 L446.4,298.9 L444.8,300.6 L443.0,301.8 L442.7,302.6 L441.9,303.2 L437.9,308.3 L434.1,314.9 L433.8,316.0 L434.1,317.1 L433.0,317.1 L432.7,317.4 L432.5,318.1 L434.3,317.3 L434.2,317.9 L433.2,319.1 L429.4,322.4 L428.0,324.5 L426.4,327.8 L422.2,334.2 L421.3,336.2 L419.9,337.4 L415.0,345.3 L414.2,346.3 L413.0,347.2 L412.1,348.9 L407.3,354.3 L406.5,354.8 L405.6,356.6 L404.0,358.1 L399.8,361.5 L397.6,362.2 L396.3,362.8 L394.3,365.2 L393.4,365.6 L392.8,366.5 L392.0,366.7 L390.1,368.2 L388.2,369.0 L386.8,369.2 L386.7,369.4 L386.8,369.8 L386.3,370.8 L385.4,371.2 L384.8,372.5 L383.0,374.0 L381.1,376.8 L379.2,377.6 L377.8,380.0 L374.2,383.2 L371.3,386.7 L369.7,387.5 L365.6,390.8 L365.0,391.6 L364.0,392.2 L362.4,393.7 L362.0,394.6 L356.7,397.9 L356.6,398.4 L355.9,398.8 L352.3,400.7 L350.7,401.1 L349.4,402.5 L349.0,404.0 L345.4,406.6 L344.5,406.9 L343.5,407.8 L343.3,408.3 L341.9,408.9 L341.4,409.4 L338.6,410.3 L335.0,413.3 L333.0,413.9 L331.7,415.2 L330.9,415.0 L330.7,415.8 L330.0,416.4 L327.7,417.8 L327.3,417.6 L327.1,418.0 L323.8,420.1 L321.6,421.0 L320.9,421.5 L320.4,422.3 L319.5,422.4 L317.1,423.6 L315.2,423.9 L313.6,425.1 L311.6,425.4 L307.5,426.9 L306.9,427.7 L302.4,429.2 L298.8,428.9 L297.0,429.2 L295.2,428.4 L291.4,427.8 L287.5,427.6 L284.9,427.9 L282.6,428.6 L279.5,430.0 L278.2,431.8 L277.7,434.1 L277.8,434.4 L279.5,435.5 L280.3,436.5 L280.1,436.9 L279.1,436.7 L277.2,437.3 L273.9,436.7 L271.8,436.9 L271.0,436.5 L270.0,436.4 L268.0,435.4 L265.5,434.8 L262.9,434.8 L258.6,435.5 L257.5,436.3 L257.9,437.4 L257.6,438.0 L255.4,439.7 L255.2,440.2 L255.3,440.5 L256.0,441.1 L255.2,441.9 L254.1,441.2 L252.1,441.2 L249.9,440.8 L247.5,441.0 L245.0,440.5 L243.8,439.9 L242.8,439.2 L238.7,438.6 L235.9,437.5 L230.8,437.1 L228.9,436.6 L225.9,436.4 L220.8,435.4 L219.4,435.4 L214.8,436.3 L213.6,436.8 L212.9,437.9 L213.1,438.4 L213.6,438.8 L214.2,438.9 L214.2,439.1 L204.3,438.3 L203.9,437.1 L203.0,437.1 L202.4,436.7 L202.5,437.2 L203.6,438.0 L203.4,438.4 L202.1,438.1 L200.7,438.3 L198.4,437.7 L196.8,437.0 L196.5,436.1 L197.1,436.0 L196.0,435.5 L194.8,435.4 L195.4,436.2 L196.3,436.7 L195.8,436.9 L191.9,435.8 L190.5,435.8 L189.5,436.0 L186.8,437.6 L185.6,437.8 L181.7,437.6 L178.6,438.3 L177.3,439.4 L176.9,440.0 L177.1,440.5 L178.0,441.1 L177.0,441.5 L173.3,442.0 L172.2,442.4 L171.5,443.0 L171.6,444.4 L170.7,445.6 L167.7,446.9 L165.2,447.2 L162.2,446.7 L160.5,446.0 L157.6,446.6 L156.9,447.3 L155.0,448.0 L153.8,448.1 L152.5,448.1 L146.7,446.4 L143.9,446.2 L142.5,446.3 L139.4,447.4 L140.2,447.5 L140.9,447.9 L141.2,448.5 L141.0,449.1 L140.4,449.3 L135.3,448.5 L131.3,449.0 L130.1,449.5 L129.1,450.1 L127.0,452.3 L126.1,452.6 L125.4,453.3 L124.2,453.7 L123.2,454.4 L122.6,455.3 L121.6,455.4 L120.5,455.8 L118.3,457.1 L117.5,458.0 L117.9,459.0 L116.7,459.5 L115.3,459.4 L112.2,457.5 L107.6,457.6 L106.3,458.2 L104.1,456.9 L101.9,455.0 L100.4,454.3 L99.0,453.2 L98.3,453.2 L97.0,453.7 L96.5,453.5 L96.0,453.7 L97.9,451.4 L97.9,450.3 L96.8,448.5 L95.8,447.7 L93.5,448.0 L91.7,447.9 L90.9,447.5 L89.9,446.2 L90.7,446.1 L91.5,444.4 L91.0,444.6 L90.0,445.8 L87.5,445.7 L83.8,446.3 L82.8,447.0 L82.3,446.8 L82.0,446.4 L82.3,445.8 L82.0,444.6 L82.9,443.2 L82.4,441.3 L83.4,440.3 L82.2,438.7 L81.8,438.5 L77.4,438.0 L74.7,438.1 L72.5,439.0 L71.6,439.9 L71.4,440.5 L72.0,441.2 L72.4,442.4 L72.2,444.9 L72.3,445.5 L72.8,445.8 L72.3,445.9 L71.5,445.6 L70.4,444.6 L69.6,443.1 L69.8,442.2 L69.4,442.0 L68.9,441.0 L67.8,440.5 L67.9,439.7 L68.6,439.2 L68.7,438.1 L69.1,437.5 L68.2,437.7 L67.8,436.8 L68.9,435.4 L69.4,433.8 L70.4,433.2 L72.4,433.1 L72.8,432.0 L72.7,431.5 L72.1,430.7 L71.2,427.2 L70.3,425.4 L68.0,423.5 L67.6,421.0 L66.1,419.2 L63.0,417.4 L63.2,416.9 L63.1,416.4 L60.9,413.0 L59.6,411.9 L58.5,411.5 L57.5,410.1 L58.6,409.7 L58.9,409.8 L59.8,410.9 L59.7,411.2 L61.6,413.0 L62.0,413.1 L62.4,412.9 L61.5,411.8 L61.4,411.1 L60.8,410.9 L59.9,410.1 L59.8,408.2 L59.4,407.6 L57.9,407.3 L57.0,407.4 L57.5,408.0 L56.2,408.6 L55.9,408.2 L55.3,406.7 L55.5,406.2 L54.8,404.5 L55.3,403.4 L54.2,402.1 L54.3,401.9 L54.8,401.9 L55.8,401.2 L56.0,399.3 L57.8,398.7 L58.2,398.7 L58.0,398.9 L58.4,399.3 L59.8,400.5 L61.1,400.9 L62.2,400.7 L66.6,397.1 L67.3,395.9 L68.4,392.6 L68.5,391.4 L68.3,389.4 L67.8,388.3 L68.7,387.1 L68.8,385.9 L67.7,382.2 L67.4,379.1 L66.7,377.2 L66.7,375.4 L65.5,373.5 L65.5,372.7 L64.4,369.7 L60.8,365.0 L59.4,363.8 L59.0,362.8 L57.6,361.7 L56.5,360.2 L55.7,359.6 L55.1,357.5 L53.5,356.4 L51.4,353.4 L49.7,350.2 L47.7,347.8 L46.1,345.0 L45.4,342.6 L42.9,339.3 L43.1,338.2 L42.3,337.5 L40.5,334.3 L38.1,330.9 L37.5,328.0 L35.9,325.7 L34.8,321.3 L32.5,316.2 L31.6,313.2 L31.8,313.2 L31.6,311.6 L30.9,309.7 L30.5,309.4 L30.2,307.7 L28.1,302.5 L26.7,300.8 L26.1,299.1 L25.5,298.3 L25.5,297.6 L24.9,296.2 L24.9,295.1 L24.5,294.4 L22.7,293.0 L21.7,291.2 L20.4,289.6 L18.5,288.1 L17.9,286.4 L17.8,284.8 L17.4,283.9 L16.6,283.7 L16.0,282.4 L14.8,281.3 L15.2,280.7 L15.3,279.9 L18.4,278.6 L20.6,276.7 L21.2,276.7 L21.5,277.7 L22.0,277.7 L22.5,277.3 L23.4,276.2 L23.6,274.4 L24.4,274.0 L23.3,272.2 L23.4,271.1 L23.9,270.8 L24.7,271.2 L25.0,271.0 L25.0,270.7 L24.5,269.8 L24.8,269.5 L25.9,269.4 L25.3,268.3 L26.5,268.4 L26.7,268.1 L26.9,265.8 L27.7,265.1 L28.5,265.5 L29.6,264.9 L30.3,265.1 L31.3,264.5 L32.2,264.2 L32.8,264.3 L33.9,265.9 L35.2,266.3 L35.5,266.8 L35.5,269.4 L36.1,270.1 L37.0,270.3 L38.9,269.9 L39.9,270.0 L40.7,272.2 L41.5,273.4 L41.5,274.8 L41.3,275.5 L39.8,276.2 L39.3,277.0 L40.3,278.4 L40.7,279.5 L41.8,279.9 L42.1,280.5 L41.6,282.8 L41.6,283.7 L42.7,283.8 L46.8,283.0 L47.2,283.3 L47.5,285.2 L48.1,285.4 L49.4,285.6 L50.5,285.0 L51.5,285.0 L56.3,285.9 L58.3,286.8 L60.0,288.1 L63.5,289.4 L67.6,288.7 L70.2,289.3 L72.2,288.6 L73.0,289.0 L74.7,288.3 L80.2,287.6 L86.2,288.4 L87.7,290.1 L89.2,290.3 L89.8,291.0 L91.0,291.0 L93.8,289.9 L94.5,289.1 L95.8,288.8 L95.8,288.5 L94.5,286.2 L95.1,284.8 L95.8,284.1 L96.3,284.1 L97.2,284.6 L100.6,283.7 L101.4,282.9 L102.2,280.6 L102.8,280.2 L103.9,278.7 L104.4,278.5 L107.3,278.3 L109.0,277.4 L111.2,277.1 L113.3,275.7 L114.5,275.8 L115.7,275.6 L115.7,170.1 Z" fill="#faf5ef" stroke="#8B1A2B" stroke-width="1.3" stroke-linejoin="round"/></g>
  <g>    <path class="region-area" d="M214.2,436.5 L213.2,437.2 L212.9,437.9 L213.1,438.4 L214.2,439.1 L204.3,438.3 L203.9,437.1 L202.4,436.7 L202.5,437.2 L203.6,438.0 L203.4,438.4 L202.1,438.1 L200.7,438.3 L198.4,437.7 L196.8,437.0 L196.5,436.1 L197.1,436.0 L196.7,435.6 L194.8,435.4 L195.4,436.2 L196.3,436.7 L195.1,436.8 L191.9,435.8 L190.5,435.8 L189.5,436.0 L186.8,437.6 L185.6,437.8 L181.7,437.6 L179.2,438.1 L178.1,438.6 L176.9,440.0 L177.1,440.5 L178.0,441.1 L177.6,441.3 L173.3,442.0 L172.2,442.4 L171.5,443.0 L171.6,444.4 L170.7,445.6 L168.9,446.5 L166.5,447.1 L165.2,447.2 L162.2,446.7 L160.5,446.0 L157.6,446.6 L156.9,447.3 L155.0,448.0 L153.8,448.1 L152.5,448.1 L146.7,446.4 L142.5,446.3 L139.4,447.4 L140.9,447.9 L141.2,448.5 L141.0,449.1 L140.4,449.3 L135.3,448.5 L131.3,449.0 L130.1,449.5 L129.1,450.1 L127.0,452.3 L126.1,452.6 L125.4,453.3 L123.2,454.4 L122.6,455.3 L120.5,455.8 L118.3,457.1 L117.5,458.0 L117.9,459.0 L116.2,459.6 L114.9,459.2 L112.2,457.5 L107.6,457.6 L106.7,458.1 L106.0,458.1 L101.9,455.0 L100.4,454.3 L99.0,453.2 L98.3,453.2 L97.0,453.7 L96.5,453.5 L96.0,453.7 L97.9,451.4 L97.9,450.3 L96.8,448.5 L95.8,447.7 L93.5,448.0 L91.7,447.9 L90.9,447.5 L89.9,446.2 L90.7,446.1 L91.5,444.4 L90.0,445.8 L87.5,445.7 L83.8,446.3 L82.8,447.0 L82.3,446.8 L82.0,446.4 L82.3,445.8 L82.0,444.6 L82.9,443.2 L82.4,441.3 L83.4,440.3 L82.2,438.7 L81.8,438.5 L77.4,438.0 L74.7,438.1 L72.5,439.0 L71.6,439.9 L71.4,440.5 L72.0,441.2 L72.4,442.4 L72.2,444.9 L72.3,445.5 L72.8,445.8 L72.3,445.9 L71.5,445.6 L70.4,444.6 L69.7,443.5 L69.8,442.3 L69.4,442.0 L69.2,441.3 L68.1,440.7 L67.8,440.1 L67.9,439.7 L68.6,439.2 L69.1,437.5 L68.2,437.7 L67.8,436.8 L68.9,435.4 L69.4,433.8 L70.4,433.2 L72.4,433.1 L72.8,432.0 L72.1,430.7 L71.2,427.2 L70.3,425.4 L68.0,423.5 L67.8,421.5 L66.9,420.0 L66.1,419.2 L63.0,417.4 L63.2,416.9 L63.1,416.4 L60.9,413.0 L59.6,411.9 L58.5,411.5 L57.5,410.1 L58.9,409.8 L59.8,410.9 L59.7,411.2 L61.6,413.0 L62.4,412.9 L61.5,411.8 L61.4,411.1 L60.8,410.9 L59.9,410.1 L59.9,408.6 L59.4,407.6 L58.7,407.3 L57.0,407.4 L57.5,408.0 L56.2,408.6 L55.9,408.2 L55.3,406.7 L55.5,406.2 L54.8,404.5 L55.3,403.4 L54.2,402.1 L54.3,401.9 L54.8,401.9 L55.8,401.2 L56.0,399.3 L57.8,398.7 L58.2,398.7 L58.0,398.9 L58.4,399.3 L59.8,400.5 L61.1,400.9 L62.2,400.7 L66.6,397.1 L67.3,395.9 L68.4,392.6 L68.5,391.4 L68.3,389.4 L67.8,388.3 L68.7,387.1 L68.8,385.9 L67.7,382.2 L67.4,379.1 L66.7,377.2 L66.7,375.4 L65.5,373.5 L65.5,372.7 L64.4,369.7 L60.8,365.0 L59.4,363.8 L59.0,362.8 L57.6,361.7 L56.5,360.2 L55.7,359.6 L55.1,357.5 L53.5,356.4 L52.1,354.2 L53.6,354.6 L53.8,351.5 L55.2,349.9 L55.6,347.8 L57.3,346.4 L58.0,344.4 L59.4,343.2 L60.4,343.3 L63.3,344.6 L65.9,343.4 L68.4,339.8 L69.2,337.5 L70.6,335.3 L72.1,336.1 L72.5,335.2 L73.3,334.6 L74.9,334.5 L79.9,337.5 L81.7,339.8 L83.0,340.9 L85.7,341.8 L85.7,345.2 L84.8,346.3 L85.4,348.0 L84.8,350.0 L85.7,355.4 L86.3,356.8 L87.4,358.0 L87.2,359.3 L87.7,363.2 L88.0,363.9 L88.7,364.5 L89.4,366.3 L89.1,368.7 L89.6,371.2 L89.4,372.5 L88.8,373.5 L88.3,375.4 L90.2,375.6 L91.4,376.2 L92.2,376.0 L92.8,376.2 L95.0,375.1 L95.1,375.2 L94.6,377.1 L95.9,377.8 L96.9,379.3 L98.2,379.8 L99.2,379.6 L100.3,380.6 L101.2,380.8 L101.1,382.9 L101.7,385.1 L99.7,387.4 L100.1,389.5 L101.5,391.8 L101.1,395.2 L102.8,396.8 L104.5,396.1 L104.6,395.8 L104.0,394.6 L105.0,391.6 L105.6,391.2 L106.3,391.5 L107.7,391.0 L108.5,390.1 L110.5,389.2 L112.5,389.1 L114.1,388.7 L116.7,386.9 L117.7,385.9 L118.5,385.5 L120.3,383.9 L121.1,383.8 L121.6,384.1 L122.4,385.4 L122.4,386.6 L120.2,389.0 L118.6,390.3 L118.5,391.6 L119.0,393.4 L119.8,395.6 L121.2,398.1 L121.6,399.6 L122.3,400.4 L124.3,401.6 L126.5,404.1 L128.4,405.4 L130.3,405.1 L131.9,404.4 L133.7,404.9 L136.5,404.8 L138.8,403.2 L139.4,401.7 L139.9,399.0 L141.1,397.9 L143.2,397.3 L146.2,396.8 L148.4,395.9 L150.0,393.2 L150.5,391.6 L152.3,390.8 L153.8,389.3 L157.2,388.5 L160.1,386.7 L160.9,385.4 L162.3,384.8 L163.2,384.6 L164.4,384.8 L165.6,384.5 L169.5,385.4 L171.3,385.1 L172.9,384.1 L175.4,381.3 L176.0,381.2 L176.7,380.1 L176.0,378.5 L176.3,375.4 L176.8,374.4 L177.9,374.2 L181.3,367.1 L182.1,366.1 L188.6,369.2 L191.2,372.0 L193.8,372.8 L195.5,373.7 L200.9,374.3 L203.3,375.2 L203.6,376.5 L204.5,377.8 L208.3,374.7 L210.9,371.3 L212.8,370.4 L214.0,369.3 L217.6,369.3 L220.6,368.6 L222.6,368.9 L225.8,370.6 L226.0,371.1 L226.0,371.8 L227.3,372.7 L229.4,371.6 L230.2,370.6 L231.1,370.3 L231.9,370.4 L233.2,371.9 L235.5,372.4 L235.8,373.2 L235.0,374.3 L234.9,375.2 L235.6,375.6 L236.5,377.0 L234.5,378.9 L233.8,382.0 L232.7,382.6 L232.1,383.5 L228.0,385.0 L224.3,384.1 L221.9,385.3 L220.8,387.3 L219.8,387.8 L215.4,388.2 L214.0,388.8 L211.9,388.6 L209.5,390.6 L209.3,393.0 L210.0,394.0 L210.4,395.3 L210.5,397.6 L211.5,398.6 L212.0,399.6 L213.1,400.5 L211.9,401.7 L208.1,401.7 L205.8,402.4 L204.5,400.9 L204.6,402.8 L204.2,403.4 L202.5,404.0 L201.2,405.6 L201.0,406.5 L200.1,407.6 L200.5,408.8 L200.1,409.9 L195.2,416.6 L194.9,417.6 L195.3,418.7 L199.8,418.8 L203.3,418.4 L210.0,418.7 L215.1,419.6 L217.2,420.4 L218.7,421.4 L219.3,423.4 L220.7,425.0 L220.3,425.7 L215.1,427.7 L213.0,429.6 L217.1,429.7 L218.1,430.1 L218.7,430.8 L222.2,432.3 L220.9,434.1 L220.9,435.4 L219.4,435.4 L214.2,436.5 Z" fill="rgba(139,26,43,0.15)" stroke="rgba(139,26,43,0.4)" stroke-width="0.5"/>
    <path class="region-area" d="M364.6,324.7 L371.0,322.8 L375.5,320.3 L378.5,323.4 L378.4,325.3 L377.9,325.9 L378.7,328.0 L380.0,329.1 L382.0,329.6 L381.8,328.9 L382.4,328.8 L383.6,330.1 L383.5,331.7 L382.9,331.8 L383.1,332.3 L381.8,332.6 L380.8,333.5 L380.0,335.7 L379.3,335.7 L379.2,336.3 L379.7,336.9 L378.4,337.6 L379.0,338.5 L380.4,339.3 L381.3,338.7 L384.4,339.8 L385.5,339.2 L387.0,339.2 L388.5,338.7 L392.6,340.8 L394.2,340.7 L396.7,341.6 L397.8,341.3 L400.9,343.4 L402.1,343.4 L402.3,344.0 L403.0,344.9 L403.8,344.9 L405.5,345.5 L405.9,346.5 L407.2,347.3 L407.7,350.0 L408.5,350.5 L408.7,351.4 L409.4,351.9 L407.3,354.3 L406.5,354.8 L405.6,356.6 L404.0,358.1 L399.8,361.5 L397.6,362.2 L396.3,362.8 L394.3,365.2 L393.4,365.6 L393.0,366.4 L392.0,366.7 L390.6,368.0 L388.2,369.0 L386.8,369.2 L386.7,369.4 L386.8,369.8 L386.3,370.8 L385.4,371.2 L384.8,372.5 L383.0,374.0 L381.1,376.8 L379.2,377.6 L377.8,380.0 L374.2,383.2 L371.3,386.7 L369.7,387.5 L365.6,390.8 L365.0,391.6 L364.0,392.2 L362.4,393.7 L362.0,394.6 L356.7,397.9 L356.6,398.4 L355.9,398.8 L352.3,400.7 L350.7,401.1 L349.4,402.5 L349.0,404.0 L345.4,406.6 L344.5,406.9 L343.5,407.8 L343.3,408.3 L341.9,408.9 L341.4,409.4 L338.6,410.3 L335.0,413.3 L333.0,413.9 L331.7,415.2 L330.9,415.0 L330.7,415.8 L330.0,416.4 L327.7,417.8 L327.3,417.6 L327.1,418.0 L323.8,420.1 L321.6,421.0 L320.4,422.3 L317.1,423.6 L315.2,423.9 L313.6,425.1 L311.6,425.4 L307.5,426.9 L306.9,427.7 L302.4,429.2 L298.8,428.9 L297.0,429.2 L295.2,428.4 L291.4,427.8 L287.5,427.6 L282.6,428.6 L279.5,430.0 L278.2,431.8 L277.7,434.1 L279.5,435.5 L280.3,436.5 L280.1,436.9 L279.1,436.7 L277.2,437.3 L273.9,436.7 L271.8,436.9 L268.0,435.4 L265.5,434.8 L262.9,434.8 L258.6,435.5 L257.5,436.3 L257.9,437.4 L257.6,438.0 L255.4,439.7 L255.3,440.5 L256.0,441.1 L255.0,441.9 L254.7,441.4 L254.1,441.2 L252.1,441.2 L249.9,440.8 L247.5,441.0 L245.0,440.5 L242.8,439.2 L238.7,438.6 L235.9,437.5 L230.8,437.1 L228.9,436.6 L225.9,436.4 L220.8,435.4 L220.9,434.1 L222.2,432.3 L218.7,430.8 L218.1,430.1 L217.1,429.7 L213.0,429.6 L215.1,427.7 L220.3,425.7 L220.7,425.0 L219.3,423.4 L218.7,421.4 L217.2,420.4 L215.1,419.6 L210.0,418.7 L203.3,418.4 L199.8,418.8 L195.3,418.7 L194.9,417.6 L195.2,416.6 L200.1,409.9 L200.5,408.8 L200.1,407.6 L201.0,406.5 L201.2,405.6 L202.5,404.0 L204.2,403.4 L204.6,402.8 L204.5,400.9 L205.8,402.4 L208.1,401.7 L211.9,401.7 L213.1,400.5 L212.0,399.6 L211.5,398.6 L210.5,397.6 L210.4,395.3 L210.0,394.0 L209.3,393.0 L209.5,390.6 L211.9,388.6 L214.0,388.8 L215.4,388.2 L219.8,387.8 L220.8,387.3 L221.9,385.3 L224.3,384.1 L228.0,385.0 L232.1,383.5 L232.7,382.6 L233.8,382.0 L234.5,378.9 L236.5,377.0 L235.6,375.6 L234.9,375.2 L235.0,374.3 L235.8,373.2 L235.5,372.4 L235.7,371.5 L236.5,371.2 L238.2,371.2 L240.9,370.4 L245.6,370.0 L246.0,365.6 L246.3,364.0 L246.9,363.3 L247.3,361.2 L253.3,360.9 L255.6,360.0 L256.3,359.3 L259.1,357.8 L261.8,357.3 L266.2,355.5 L270.1,356.2 L270.9,355.7 L271.1,354.3 L272.8,352.4 L273.7,350.5 L273.6,349.6 L274.6,347.8 L274.0,345.9 L275.0,344.0 L273.9,342.7 L273.4,338.6 L277.6,338.4 L278.1,339.7 L280.9,340.5 L282.3,339.9 L284.8,338.1 L285.1,337.7 L285.0,336.9 L285.7,336.5 L287.0,337.2 L288.3,336.3 L290.5,335.7 L292.6,336.1 L293.0,334.9 L293.7,335.0 L294.6,336.0 L296.2,336.5 L296.8,337.6 L297.7,337.7 L301.4,337.0 L302.3,337.8 L302.5,338.8 L302.9,339.1 L304.6,339.8 L306.5,339.8 L307.0,340.0 L306.8,340.5 L308.0,340.2 L309.0,340.3 L311.2,339.4 L312.0,339.5 L313.2,340.4 L314.0,339.9 L315.6,339.7 L315.9,339.4 L315.7,338.9 L316.0,338.4 L316.5,338.0 L318.5,337.8 L318.3,337.2 L317.5,336.4 L317.8,336.3 L319.2,336.0 L320.9,336.4 L321.4,336.0 L321.3,335.4 L322.9,335.4 L324.2,334.7 L324.8,335.1 L326.1,335.0 L326.6,334.2 L325.8,333.8 L326.0,333.3 L327.1,333.7 L327.8,333.4 L326.8,332.7 L326.9,332.2 L328.7,332.0 L329.1,331.5 L328.7,331.1 L328.1,331.3 L327.5,330.1 L330.5,329.9 L331.2,331.2 L332.7,331.9 L332.9,332.5 L334.4,334.0 L334.7,335.0 L336.5,336.2 L338.0,337.7 L339.9,338.5 L341.1,338.6 L342.2,338.3 L344.4,339.4 L347.8,339.6 L348.5,339.9 L348.6,337.8 L349.7,336.8 L350.3,335.3 L349.9,334.1 L352.9,331.7 L353.0,330.4 L352.0,329.6 L352.0,329.1 L352.5,328.6 L354.7,327.9 L357.3,325.1 L359.4,325.2 L361.8,324.2 L364.6,324.7 Z" fill="rgba(139,26,43,0.15)" stroke="rgba(139,26,43,0.4)" stroke-width="0.5"/>
    <path class="region-area" d="M32.5,264.2 L33.2,264.8 L33.9,265.9 L35.2,266.3 L35.5,266.8 L35.5,269.4 L36.1,270.1 L37.0,270.3 L38.9,269.9 L39.9,270.0 L40.7,272.2 L41.5,273.4 L41.5,274.8 L41.3,275.5 L39.8,276.2 L39.3,277.0 L40.3,278.4 L40.7,279.5 L41.8,279.9 L42.1,280.5 L41.6,282.8 L41.6,283.7 L42.7,283.8 L46.8,283.0 L47.2,283.3 L47.5,285.2 L48.1,285.4 L49.4,285.6 L50.5,285.0 L51.5,285.0 L56.3,285.9 L58.3,286.8 L60.0,288.1 L63.5,289.4 L67.6,288.7 L70.2,289.3 L72.2,288.6 L73.0,289.0 L74.7,288.3 L80.2,287.6 L86.2,288.4 L87.7,290.1 L89.2,290.3 L89.8,291.0 L91.0,291.0 L93.8,289.9 L94.5,289.1 L95.8,288.8 L94.5,286.2 L95.1,284.8 L95.8,284.1 L97.2,284.6 L100.6,283.7 L101.4,282.9 L102.2,280.6 L102.8,280.2 L103.9,278.7 L107.3,278.3 L109.0,277.4 L111.2,277.1 L113.3,275.7 L115.7,275.6 L115.7,170.1 L117.1,171.9 L119.4,173.7 L120.8,174.1 L123.0,175.3 L126.7,178.1 L129.0,182.0 L128.7,182.9 L129.0,183.3 L130.1,183.8 L130.2,184.8 L131.1,185.3 L130.9,186.2 L131.8,188.2 L133.2,188.8 L133.4,189.6 L133.8,189.6 L133.7,190.5 L134.8,190.3 L135.1,190.6 L134.3,191.1 L134.1,191.6 L134.0,192.4 L135.3,193.4 L135.6,194.2 L134.6,195.0 L134.7,195.3 L135.5,195.7 L135.3,196.9 L136.6,197.7 L136.9,198.2 L137.5,200.2 L137.1,201.0 L138.0,200.7 L139.1,202.9 L139.4,208.0 L140.4,209.7 L137.9,213.9 L136.2,215.8 L135.4,217.2 L134.1,218.2 L133.7,220.1 L133.7,221.7 L134.4,223.1 L133.8,225.7 L133.9,227.6 L134.6,229.4 L135.7,230.4 L136.1,231.6 L140.7,229.1 L142.3,228.9 L144.7,230.0 L148.5,230.8 L151.9,230.1 L153.5,230.2 L155.9,229.6 L157.3,229.6 L159.3,230.3 L161.8,230.3 L164.1,230.8 L166.9,229.1 L167.4,228.0 L167.1,225.7 L167.4,225.4 L169.1,225.0 L171.9,225.0 L173.7,224.6 L175.4,223.7 L176.9,222.4 L178.0,220.9 L179.4,217.6 L180.9,215.9 L183.6,215.1 L186.7,212.0 L189.4,211.9 L190.4,210.1 L191.6,209.1 L194.0,209.7 L193.9,217.7 L197.2,218.8 L198.2,217.4 L200.1,210.4 L202.1,210.6 L202.3,208.6 L204.2,208.8 L205.4,205.6 L213.3,206.4 L212.6,208.2 L209.1,207.6 L208.9,209.4 L211.2,210.1 L208.9,213.6 L210.7,215.8 L210.3,219.7 L215.7,221.1 L219.2,223.6 L216.7,227.1 L226.8,231.4 L227.6,230.8 L229.1,230.8 L230.9,232.2 L231.9,235.2 L231.6,236.6 L230.2,237.6 L228.2,242.1 L231.0,243.7 L231.6,244.4 L233.7,245.0 L232.3,248.3 L232.2,249.3 L232.5,251.5 L234.6,252.8 L233.9,254.7 L234.5,256.0 L243.0,254.4 L243.9,254.9 L243.1,256.5 L244.0,257.2 L243.2,258.5 L242.3,259.4 L241.7,260.5 L242.2,261.4 L243.3,261.9 L244.1,262.8 L243.9,264.5 L246.2,266.3 L246.9,265.6 L247.4,264.6 L248.8,263.4 L249.1,260.7 L249.9,259.6 L250.8,259.1 L251.1,258.4 L251.2,257.7 L250.7,257.3 L250.8,256.3 L251.4,255.7 L250.7,255.1 L250.5,254.2 L251.2,253.2 L252.6,253.0 L253.2,252.3 L254.1,252.3 L253.7,253.9 L253.9,254.3 L259.8,254.4 L260.8,255.0 L255.5,260.7 L255.0,260.8 L258.1,266.2 L258.5,266.3 L259.6,265.5 L260.4,265.4 L260.3,266.7 L259.5,268.9 L258.6,270.2 L257.1,271.3 L257.0,271.7 L257.6,272.6 L257.5,273.5 L256.9,275.5 L255.5,278.4 L255.4,280.2 L255.6,281.0 L256.5,281.8 L256.4,282.1 L241.0,310.8 L241.7,312.7 L243.6,314.6 L244.9,314.8 L245.3,315.6 L246.5,315.7 L247.8,317.1 L250.2,317.9 L250.5,319.5 L251.1,320.0 L253.8,320.6 L257.3,326.7 L258.4,327.1 L259.5,328.5 L260.8,329.1 L261.2,330.4 L263.8,332.4 L265.3,334.0 L267.4,335.2 L268.3,336.6 L270.4,336.6 L273.4,338.6 L273.9,342.7 L275.0,344.0 L274.8,344.6 L274.1,345.4 L274.0,345.9 L274.6,347.8 L273.6,349.6 L273.7,350.5 L272.8,352.4 L271.1,354.3 L270.9,355.7 L270.1,356.2 L266.2,355.5 L261.8,357.3 L259.1,357.8 L256.3,359.3 L255.6,360.0 L253.3,360.9 L247.3,361.2 L246.9,363.3 L246.3,364.0 L246.0,365.6 L245.6,370.0 L240.9,370.4 L238.2,371.2 L236.5,371.2 L235.7,371.5 L235.5,372.4 L233.2,371.9 L231.9,370.4 L231.1,370.3 L230.2,370.6 L229.4,371.6 L227.3,372.7 L226.0,371.8 L226.0,371.1 L225.8,370.6 L222.6,368.9 L220.6,368.6 L217.6,369.3 L214.0,369.3 L212.8,370.4 L210.9,371.3 L208.3,374.7 L204.5,377.8 L203.6,376.5 L203.3,375.2 L200.9,374.3 L195.5,373.7 L193.8,372.8 L191.2,372.0 L188.6,369.2 L182.1,366.1 L181.3,367.1 L177.9,374.2 L176.8,374.4 L176.3,375.4 L176.0,378.5 L176.7,380.1 L176.0,381.2 L175.4,381.3 L172.9,384.1 L171.3,385.1 L169.5,385.4 L165.6,384.5 L164.4,384.8 L163.2,384.6 L162.3,384.8 L160.9,385.4 L160.1,386.7 L157.2,388.5 L153.8,389.3 L152.3,390.8 L150.5,391.6 L150.0,393.2 L148.4,395.9 L146.2,396.8 L143.2,397.3 L141.1,397.9 L139.9,399.0 L139.4,401.7 L138.8,403.2 L136.5,404.8 L133.7,404.9 L131.9,404.4 L130.3,405.1 L128.4,405.4 L126.5,404.1 L124.3,401.6 L122.3,400.4 L121.6,399.6 L121.2,398.1 L119.8,395.6 L118.5,391.6 L118.6,390.3 L120.2,389.0 L122.4,386.6 L122.4,385.4 L121.6,384.1 L121.1,383.8 L120.3,383.9 L118.5,385.5 L117.7,385.9 L116.7,386.9 L114.1,388.7 L112.5,389.1 L110.5,389.2 L108.5,390.1 L107.7,391.0 L106.3,391.5 L105.6,391.2 L105.0,391.6 L104.1,393.7 L104.0,394.6 L104.6,395.8 L102.8,396.8 L101.1,395.2 L101.5,391.8 L100.1,389.5 L99.7,387.4 L101.7,385.1 L101.1,382.9 L101.2,380.8 L100.3,380.6 L99.2,379.6 L98.2,379.8 L96.9,379.3 L95.9,377.8 L94.6,377.1 L95.1,375.2 L95.0,375.1 L92.8,376.2 L92.2,376.0 L91.4,376.2 L90.2,375.6 L88.3,375.4 L88.8,373.5 L89.4,372.5 L89.6,371.2 L89.1,368.7 L89.4,366.3 L88.7,364.5 L88.0,363.9 L87.7,363.2 L87.2,359.3 L87.4,358.0 L86.3,356.8 L85.7,355.4 L84.8,350.0 L85.4,348.0 L84.8,346.3 L85.7,345.2 L85.7,341.8 L83.0,340.9 L81.7,339.8 L79.9,337.5 L74.9,334.5 L73.3,334.6 L72.5,335.2 L72.1,336.1 L70.6,335.3 L69.2,337.5 L68.4,339.8 L65.9,343.4 L63.3,344.6 L60.4,343.3 L59.4,343.2 L58.0,344.4 L57.3,346.4 L55.6,347.8 L55.2,349.9 L53.8,351.5 L53.6,354.6 L52.1,354.2 L49.7,350.2 L47.7,347.8 L46.1,345.0 L45.4,342.6 L42.9,339.3 L43.1,338.2 L42.3,337.5 L40.5,334.3 L38.1,330.9 L37.5,328.0 L35.9,325.7 L34.8,321.3 L32.5,316.2 L31.6,313.2 L31.8,313.2 L31.6,311.6 L30.9,309.7 L30.5,309.4 L30.2,307.7 L28.1,302.5 L26.7,300.8 L26.1,299.1 L25.5,298.3 L25.5,297.6 L24.9,296.2 L24.9,295.1 L24.5,294.4 L22.7,293.0 L21.7,291.2 L20.4,289.6 L18.5,288.1 L17.4,283.9 L16.6,283.7 L16.0,282.4 L14.8,281.3 L15.2,280.7 L15.3,279.9 L18.4,278.6 L20.6,276.7 L21.2,276.7 L21.5,277.7 L22.0,277.7 L23.1,276.7 L23.4,276.2 L23.6,274.4 L24.4,274.0 L23.3,272.2 L23.4,271.1 L23.9,270.8 L24.7,271.2 L25.0,271.0 L24.7,269.6 L25.9,269.4 L25.3,268.3 L26.5,268.4 L26.7,268.1 L26.9,265.8 L27.5,265.2 L27.9,265.2 L28.5,265.5 L29.2,265.0 L30.3,265.1 L31.6,264.3 L32.5,264.2 Z" fill="rgba(139,26,43,0.15)" stroke="rgba(139,26,43,0.4)" stroke-width="0.5"/>
    <path class="region-area" d="M372.9,288.1 L371.7,286.4 L370.9,285.7 L372.0,283.2 L373.0,282.3 L373.1,281.1 L374.2,280.0 L376.2,279.3 L377.7,279.0 L379.0,279.3 L380.4,278.8 L380.7,278.4 L380.6,277.4 L381.6,276.2 L383.8,275.7 L384.9,274.4 L386.7,273.7 L389.2,271.0 L392.0,270.6 L392.9,269.1 L394.1,268.2 L394.4,266.9 L394.3,266.4 L393.1,265.3 L393.0,264.5 L394.1,262.5 L394.2,260.9 L395.8,258.0 L395.2,257.0 L395.3,255.3 L394.6,253.7 L395.3,252.9 L397.2,252.0 L397.3,251.5 L396.9,250.2 L395.7,249.7 L395.7,248.6 L395.8,248.3 L397.2,247.7 L398.2,247.9 L399.6,245.7 L401.7,245.2 L404.1,245.7 L405.4,245.0 L408.2,245.5 L408.6,244.9 L410.4,244.3 L411.8,243.4 L414.0,243.0 L415.1,242.3 L415.8,242.5 L416.1,243.4 L416.5,243.6 L418.2,243.4 L420.9,243.6 L422.0,242.9 L423.6,242.6 L427.7,244.3 L429.7,243.6 L431.2,244.8 L431.9,244.9 L435.5,244.0 L436.8,244.0 L437.9,243.2 L439.5,241.4 L445.7,243.3 L447.6,243.6 L460.3,243.8 L459.7,242.0 L459.6,237.6 L461.0,230.0 L461.0,229.2 L463.4,229.3 L464.1,229.9 L465.4,230.3 L467.7,230.1 L471.4,230.7 L486.9,230.3 L485.4,238.2 L484.4,239.5 L483.7,242.0 L480.7,249.7 L478.3,260.0 L478.5,261.2 L477.1,268.4 L474.5,272.3 L473.9,274.0 L472.7,274.6 L473.0,274.9 L473.3,274.8 L473.6,275.8 L472.5,278.8 L469.7,281.6 L468.0,282.5 L466.8,284.0 L463.7,286.4 L462.9,285.8 L461.7,286.0 L461.1,286.6 L461.7,287.4 L462.3,286.9 L463.3,286.6 L462.7,287.5 L461.6,288.3 L458.0,290.0 L457.0,290.2 L454.6,290.0 L455.0,290.7 L454.1,291.2 L448.5,296.8 L446.5,298.2 L446.4,298.9 L444.8,300.6 L443.0,301.8 L442.7,302.6 L441.9,303.2 L437.9,308.3 L434.1,314.9 L433.8,316.0 L434.1,317.1 L433.0,317.1 L432.5,318.1 L434.3,317.3 L434.2,317.9 L433.2,319.1 L429.4,322.4 L428.0,324.5 L426.4,327.8 L422.2,334.2 L421.3,336.2 L419.9,337.4 L415.0,345.3 L414.2,346.3 L413.0,347.2 L412.1,348.9 L409.4,351.9 L408.7,351.4 L408.5,350.5 L407.7,350.0 L407.2,347.3 L405.9,346.5 L405.5,345.5 L403.8,344.9 L403.0,344.9 L402.3,344.0 L402.1,343.4 L400.9,343.4 L397.8,341.3 L396.7,341.6 L394.2,340.7 L392.6,340.8 L388.3,338.7 L387.0,339.2 L385.3,339.3 L384.6,339.8 L381.3,338.7 L380.4,339.3 L379.0,338.5 L378.4,337.6 L379.7,336.9 L379.2,336.3 L379.3,335.7 L380.0,335.7 L380.8,333.5 L381.8,332.6 L383.1,332.3 L382.9,331.8 L383.5,331.7 L383.6,330.1 L382.4,328.8 L381.8,328.9 L382.0,329.6 L380.0,329.1 L378.7,328.0 L377.9,325.9 L378.4,325.3 L378.5,323.4 L375.5,320.3 L379.3,318.4 L378.8,316.7 L378.0,315.9 L378.3,313.8 L379.6,311.4 L380.5,310.8 L382.7,310.2 L383.0,309.8 L383.0,308.9 L383.5,308.6 L382.9,307.5 L383.1,306.1 L383.7,305.6 L386.5,304.6 L386.9,304.0 L386.9,303.1 L387.5,302.0 L386.9,301.4 L386.9,300.5 L385.8,299.0 L385.3,297.5 L384.1,296.4 L384.0,294.8 L381.0,294.2 L378.6,292.0 L376.6,291.2 L376.2,290.0 L374.4,289.6 L372.9,288.1 Z" fill="rgba(139,26,43,0.15)" stroke="rgba(139,26,43,0.4)" stroke-width="0.5"/></g>
  <g>    <circle cx="133.8" cy="407.5" r="9" fill="#8B1A2B" stroke="#fff" stroke-width="0.8"/>
    <text x="133.8" y="411.0" text-anchor="middle" font-family="Inter, sans-serif" font-size="9" font-weight="700" fill="#fff">1</text>
    <circle cx="301.4" cy="382.7" r="9" fill="#8B1A2B" stroke="#fff" stroke-width="0.8"/>
    <text x="301.4" y="386.2" text-anchor="middle" font-family="Inter, sans-serif" font-size="9" font-weight="700" fill="#fff">2</text>
    <circle cx="156.5" cy="305.1" r="9" fill="#8B1A2B" stroke="#fff" stroke-width="0.8"/>
    <text x="156.5" y="308.6" text-anchor="middle" font-family="Inter, sans-serif" font-size="9" font-weight="700" fill="#fff">3</text>
    <circle cx="424.5" cy="284.2" r="9" fill="#8B1A2B" stroke="#fff" stroke-width="0.8"/>
    <text x="424.5" y="287.7" text-anchor="middle" font-family="Inter, sans-serif" font-size="9" font-weight="700" fill="#fff">4</text></g>
  <line x1="28" y1="437" x2="492" y2="437" stroke="#8B1A2B" stroke-width="0.3" opacity="0.25"/>
  <text x="32" y="445" font-family="Inter, sans-serif" font-size="8.5" fill="#2D1B14"><tspan font-weight="700">1. _______________</tspan> : _______________</text>
  <text x="32" y="460" font-family="Inter, sans-serif" font-size="8.5" fill="#2D1B14"><tspan font-weight="700">2. _______________</tspan> : _______________</text>
  <text x="32" y="475" font-family="Inter, sans-serif" font-size="8.5" fill="#2D1B14"><tspan font-weight="700">3. _______________</tspan> : _______________</text>
  <text x="32" y="490" font-family="Inter, sans-serif" font-size="8.5" fill="#2D1B14"><tspan font-weight="700">4. _______________</tspan> : _______________</text>
  <text x="260" y="512" text-anchor="middle" font-family="Inter, sans-serif" font-size="7" fill="#b0a89e">Cellar -- Sommelier Companion</text>
</svg>