<svg xmlns="http://www.w3.org/2000/svg" viewBox="0 0 520 480">
  <defs><filter id="shadow"><feDropShadow dx="1" dy="1.5" stdDeviation="2" flood-color="#2D1B14" flood-opacity="0.08"/></filter></defs>
  <style>.region-label { display: none !important; }</style>
  <text x="260" y="24" text-anchor="middle" font-family="Cormorant Garamond, Georgia, serif" font-size="16" font-weight="400" fill="#2D1B14" letter-spacing="5">SYDAFRIKA</text>
  <text x="260" y="42" text-anchor="middle" font-family="Inter, sans-serif" font-size="8" fill="#8a7a6a" letter-spacing="1" class="region-label">Placera regionerna och namnge de viktigaste druvorna</text>
  <g filter="url(#shadow)">    <path d="M126.2,158.4 L126.3,158.8 L127.4,160.1 L129.5,161.8 L130.9,162.2 L133.0,163.3 L136.4,165.9 L138.5,169.5 L138.3,170.3 L138.5,170.7 L139.5,171.1 L139.6,172.0 L140.4,172.6 L140.3,173.3 L140.8,174.1 L141.1,175.2 L142.3,175.8 L142.6,176.5 L143.0,176.5 L142.8,177.3 L143.1,177.4 L143.8,177.2 L144.2,177.5 L143.4,177.9 L143.2,178.3 L143.2,179.1 L144.4,180.1 L144.6,180.8 L143.7,181.5 L143.8,181.8 L144.6,182.1 L144.3,183.3 L145.5,184.1 L145.8,184.5 L146.3,186.3 L146.0,187.1 L146.8,186.8 L147.8,188.8 L148.1,193.6 L149.1,195.2 L149.0,195.6 L147.9,197.1 L146.8,199.0 L145.2,200.8 L144.4,202.1 L143.3,203.1 L142.8,204.8 L142.8,206.3 L143.5,207.5 L142.9,210.0 L143.1,211.8 L143.7,213.5 L144.7,214.3 L145.1,215.4 L149.4,213.2 L150.9,213.0 L153.1,214.0 L156.6,214.7 L157.4,214.7 L159.7,214.1 L161.3,214.2 L163.5,213.6 L164.7,213.6 L166.6,214.2 L168.9,214.3 L171.1,214.7 L173.7,213.1 L174.1,212.2 L173.8,210.0 L174.1,209.8 L175.7,209.4 L178.3,209.4 L180.0,209.0 L181.5,208.1 L182.9,206.9 L183.9,205.5 L185.3,202.4 L186.3,201.4 L186.6,200.9 L189.1,200.1 L192.0,197.3 L192.9,197.1 L194.1,197.4 L194.5,197.2 L195.5,195.6 L196.6,194.6 L197.7,193.0 L197.6,192.2 L198.7,191.8 L199.2,191.2 L199.4,189.6 L198.9,188.8 L200.4,187.0 L200.2,186.5 L199.8,186.1 L199.7,185.7 L200.3,184.6 L201.6,183.1 L201.6,181.7 L202.2,181.2 L201.7,180.1 L202.5,177.8 L203.7,177.0 L204.5,175.4 L205.5,174.9 L205.8,174.3 L206.9,173.3 L207.5,173.0 L208.1,173.1 L208.6,173.7 L211.2,172.5 L212.4,172.1 L213.8,172.0 L216.8,172.8 L218.5,172.4 L218.9,172.5 L219.9,173.6 L221.6,174.5 L225.0,177.1 L226.5,177.5 L227.2,178.5 L228.2,179.0 L229.2,180.2 L231.3,181.8 L233.0,181.5 L233.6,181.9 L233.5,182.5 L236.8,181.7 L238.2,181.7 L239.4,182.3 L241.2,184.3 L242.4,185.0 L243.7,185.3 L245.5,184.8 L248.7,185.9 L250.1,186.8 L251.1,187.0 L253.0,186.8 L254.6,187.1 L255.4,187.0 L257.6,186.4 L259.1,185.3 L260.4,184.8 L261.4,184.7 L264.7,185.4 L270.3,184.8 L272.2,184.0 L275.7,181.5 L277.7,176.7 L278.5,173.3 L280.9,168.5 L281.5,166.7 L282.3,165.4 L282.3,164.4 L283.4,162.0 L283.2,158.3 L284.4,157.8 L285.8,157.9 L287.0,157.1 L294.1,155.1 L295.4,154.9 L297.4,155.2 L299.2,153.6 L300.2,151.4 L300.8,150.6 L303.3,149.0 L305.1,147.0 L308.1,146.1 L309.0,145.4 L309.3,145.0 L309.8,142.6 L309.9,141.4 L311.8,134.3 L311.9,133.6 L311.7,133.1 L312.4,131.8 L312.5,130.8 L313.7,128.7 L314.0,128.8 L314.3,129.4 L314.8,129.4 L315.2,129.2 L315.0,127.8 L315.3,128.0 L316.4,126.7 L317.0,126.9 L317.1,126.6 L316.7,126.2 L316.7,125.7 L317.3,125.7 L317.5,126.0 L317.9,125.4 L318.3,125.7 L318.8,125.6 L318.4,125.1 L318.7,124.8 L319.7,124.5 L321.2,123.7 L322.7,122.1 L323.0,122.9 L323.6,122.3 L324.3,122.0 L324.5,122.1 L324.3,122.5 L324.7,122.7 L325.4,121.9 L326.9,121.8 L328.0,121.3 L328.4,120.8 L328.5,120.2 L328.4,119.6 L328.6,119.4 L328.8,118.7 L329.3,118.2 L329.5,117.4 L330.6,117.7 L332.0,116.8 L332.7,117.6 L333.0,117.7 L333.4,117.6 L334.0,116.3 L334.4,116.0 L334.0,115.4 L334.0,115.0 L335.3,114.9 L335.1,114.5 L337.2,113.8 L338.1,113.2 L338.6,112.4 L338.3,110.7 L340.2,109.9 L341.0,109.3 L341.4,108.2 L341.3,107.3 L342.8,106.8 L343.1,106.1 L344.1,105.6 L344.3,105.2 L344.3,104.2 L345.2,102.9 L346.7,102.5 L348.0,101.1 L350.0,100.3 L352.3,100.2 L353.9,100.6 L354.9,100.0 L356.6,100.0 L359.5,98.7 L361.8,98.1 L362.2,97.9 L362.6,97.0 L364.3,97.1 L364.8,96.8 L365.8,95.1 L365.6,93.3 L367.1,91.8 L367.7,91.0 L371.2,90.7 L372.6,89.9 L373.3,89.8 L374.7,90.1 L376.0,90.0 L376.7,90.1 L378.9,89.2 L380.8,89.6 L381.4,88.9 L382.8,88.9 L384.3,88.4 L384.8,88.7 L386.9,88.5 L387.4,88.6 L389.0,89.6 L391.9,90.3 L393.5,90.9 L394.4,91.8 L395.5,92.0 L396.9,92.8 L399.2,92.8 L401.4,94.0 L402.3,94.2 L404.3,94.0 L406.4,93.3 L409.4,93.4 L410.2,93.8 L411.8,93.1 L414.8,92.9 L415.7,92.5 L418.1,92.9 L422.3,94.0 L424.1,93.4 L425.7,94.7 L426.8,94.5 L427.7,95.6 L427.4,96.1 L434.3,115.9 L434.5,116.7 L433.9,122.7 L434.1,123.8 L434.6,124.8 L437.1,127.3 L437.7,128.3 L438.7,131.6 L440.1,134.5 L442.7,136.5 L443.2,142.7 L445.6,147.6 L446.3,149.6 L446.5,151.7 L446.2,153.5 L446.4,174.9 L445.9,176.2 L445.8,177.8 L446.3,179.7 L446.6,182.0 L446.4,182.3 L445.5,183.3 L444.2,186.7 L445.3,190.5 L443.8,191.2 L443.0,191.4 L442.3,191.2 L431.4,184.8 L430.7,184.6 L429.9,184.6 L428.2,185.2 L423.2,189.3 L421.0,194.3 L419.2,197.2 L414.8,202.3 L414.2,204.3 L414.3,210.8 L414.7,213.2 L415.6,213.1 L416.8,212.3 L417.4,213.8 L418.8,215.4 L419.0,216.0 L418.7,217.7 L418.8,218.3 L419.4,219.3 L422.1,221.5 L423.8,223.6 L432.3,226.3 L434.0,226.6 L445.8,226.8 L445.3,225.1 L445.1,221.0 L446.5,214.0 L446.4,213.2 L448.6,213.3 L449.3,213.9 L450.5,214.2 L452.6,214.1 L456.1,214.6 L470.5,214.2 L470.1,215.3 L469.7,218.8 L469.0,221.6 L468.1,222.8 L467.5,225.2 L464.7,232.2 L462.4,241.8 L462.6,242.9 L461.3,249.6 L458.9,253.2 L458.4,254.8 L457.9,255.2 L457.3,255.3 L457.5,255.7 L457.9,255.5 L458.1,256.5 L457.1,259.3 L454.5,261.8 L452.9,262.6 L451.8,264.1 L448.9,266.3 L448.2,265.8 L447.1,265.9 L446.5,266.5 L447.1,267.2 L447.7,266.7 L448.5,266.5 L448.0,267.3 L447.0,268.1 L443.7,269.7 L442.7,269.8 L440.5,269.6 L440.9,270.3 L440.1,270.8 L434.9,276.0 L433.0,277.3 L432.9,277.9 L431.4,279.5 L429.7,280.5 L429.5,281.4 L428.7,281.9 L425.0,286.6 L421.5,292.7 L421.2,293.8 L421.5,294.8 L420.4,294.8 L420.2,295.0 L420.0,295.7 L421.7,295.0 L421.6,295.6 L420.6,296.6 L417.1,299.7 L415.8,301.6 L414.3,304.7 L410.4,310.6 L409.6,312.5 L408.3,313.6 L403.8,320.9 L403.0,321.9 L401.9,322.7 L401.0,324.2 L396.6,329.3 L395.9,329.8 L395.0,331.4 L393.6,332.8 L389.7,336.0 L387.6,336.6 L386.5,337.2 L384.6,339.4 L383.8,339.8 L383.2,340.6 L382.5,340.8 L380.7,342.2 L379.0,342.9 L377.6,343.1 L377.5,343.2 L377.6,343.6 L377.1,344.6 L376.3,345.0 L375.8,346.2 L374.0,347.5 L372.4,350.2 L370.6,350.9 L369.2,353.1 L366.0,356.1 L363.2,359.3 L361.8,360.1 L358.0,363.1 L357.4,363.9 L356.5,364.4 L355.0,365.9 L354.6,366.7 L349.7,369.8 L349.6,370.2 L349.0,370.6 L345.6,372.3 L344.1,372.7 L343.0,374.0 L342.5,375.3 L339.2,377.8 L338.4,378.1 L337.4,378.9 L337.3,379.4 L336.0,379.9 L335.5,380.4 L332.9,381.2 L329.6,384.0 L327.7,384.6 L326.5,385.7 L325.8,385.6 L325.6,386.3 L324.9,386.9 L322.8,388.2 L322.5,388.0 L322.3,388.4 L319.2,390.3 L317.1,391.1 L316.5,391.6 L316.0,392.3 L315.2,392.5 L312.9,393.5 L311.2,393.8 L309.7,394.9 L307.9,395.2 L304.1,396.6 L303.5,397.3 L299.4,398.7 L296.0,398.5 L294.3,398.8 L292.7,398.1 L289.1,397.5 L285.5,397.3 L283.1,397.6 L280.9,398.2 L278.1,399.5 L276.9,401.1 L276.4,403.3 L276.5,403.6 L278.1,404.6 L278.8,405.6 L278.6,405.9 L277.8,405.7 L276.0,406.3 L272.9,405.7 L270.9,405.9 L270.2,405.5 L269.3,405.4 L267.4,404.5 L265.1,404.0 L262.7,403.9 L258.7,404.6 L257.7,405.3 L258.1,406.4 L257.8,406.9 L255.8,408.5 L255.6,408.9 L255.7,409.3 L256.3,409.8 L255.6,410.5 L254.5,409.9 L252.7,409.9 L250.6,409.5 L248.4,409.7 L246.1,409.2 L244.9,408.7 L244.0,408.0 L240.2,407.5 L237.7,406.5 L232.9,406.1 L231.2,405.6 L228.3,405.4 L223.6,404.5 L222.4,404.5 L218.1,405.3 L217.0,405.8 L216.3,406.8 L216.5,407.3 L216.9,407.7 L217.6,407.8 L217.6,407.9 L208.3,407.2 L208.0,406.1 L207.2,406.0 L206.6,405.7 L206.7,406.1 L207.7,406.9 L207.5,407.3 L206.3,407.0 L205.0,407.2 L202.8,406.6 L201.3,405.9 L201.1,405.1 L201.7,405.0 L200.7,404.6 L199.5,404.5 L200.1,405.3 L200.9,405.7 L200.4,405.9 L196.8,404.9 L195.6,404.8 L194.6,405.1 L192.1,406.5 L190.9,406.7 L187.3,406.5 L184.5,407.2 L183.3,408.2 L183.0,408.8 L183.1,409.2 L183.9,409.8 L183.0,410.2 L179.6,410.6 L178.6,411.0 L177.9,411.6 L178.0,412.9 L177.2,414.0 L174.4,415.2 L172.1,415.4 L169.3,414.9 L167.7,414.3 L165.0,414.9 L164.4,415.5 L162.6,416.2 L161.5,416.3 L160.3,416.2 L154.9,414.7 L152.3,414.5 L151.0,414.6 L148.1,415.6 L148.9,415.7 L149.5,416.1 L149.8,416.7 L149.6,417.2 L149.1,417.4 L144.4,416.7 L140.7,417.1 L139.5,417.5 L138.6,418.2 L136.7,420.2 L135.8,420.4 L135.2,421.1 L134.1,421.5 L133.2,422.1 L132.6,423.0 L131.7,423.1 L130.6,423.5 L128.6,424.7 L127.9,425.5 L128.2,426.4 L127.1,426.8 L125.8,426.7 L122.9,425.0 L118.6,425.1 L117.4,425.6 L115.4,424.4 L113.3,422.7 L112.0,422.1 L110.6,421.0 L110.0,421.0 L108.8,421.5 L108.4,421.3 L107.9,421.5 L109.6,419.4 L109.6,418.3 L108.6,416.7 L107.7,415.9 L105.5,416.2 L103.9,416.1 L103.2,415.7 L102.3,414.5 L103.0,414.4 L103.7,412.8 L103.3,413.1 L102.4,414.1 L100.0,414.0 L96.6,414.7 L95.7,415.2 L95.1,415.1 L94.9,414.7 L95.1,414.1 L94.9,413.0 L95.7,411.8 L95.3,409.9 L96.2,409.0 L95.1,407.6 L94.7,407.4 L90.6,406.9 L88.1,407.0 L86.1,407.8 L85.2,408.7 L85.1,409.2 L85.6,409.9 L86.0,411.0 L85.8,413.3 L85.9,413.8 L86.4,414.1 L85.9,414.3 L85.2,414.0 L84.2,413.0 L83.4,411.7 L83.6,410.8 L83.3,410.7 L82.8,409.7 L81.8,409.2 L81.8,408.5 L82.4,408.1 L82.6,407.0 L82.9,406.5 L82.1,406.7 L81.7,405.8 L82.7,404.5 L83.3,403.0 L84.1,402.4 L86.0,402.3 L86.4,401.3 L86.3,400.8 L85.7,400.1 L84.8,396.9 L84.0,395.2 L81.9,393.5 L81.5,391.1 L80.1,389.5 L77.2,387.8 L77.5,387.4 L77.3,386.8 L75.3,383.7 L74.1,382.7 L73.1,382.3 L72.1,381.1 L73.2,380.7 L73.5,380.8 L74.3,381.8 L74.2,382.1 L76.0,383.7 L76.3,383.8 L76.7,383.6 L75.9,382.6 L75.8,381.9 L75.2,381.8 L74.4,381.0 L74.3,379.2 L74.0,378.7 L72.5,378.4 L71.8,378.5 L72.1,379.1 L71.0,379.6 L70.7,379.3 L70.1,377.8 L70.3,377.4 L69.7,375.9 L70.2,374.8 L69.1,373.6 L69.2,373.4 L69.6,373.4 L70.6,372.8 L70.8,371.0 L72.5,370.4 L72.9,370.5 L72.7,370.7 L73.0,371.1 L74.3,372.1 L75.5,372.5 L76.5,372.3 L80.6,368.9 L81.2,367.9 L82.2,364.8 L82.3,363.7 L82.2,361.9 L81.7,360.8 L82.5,359.7 L82.7,358.6 L81.6,355.1 L81.3,352.3 L80.7,350.5 L80.7,348.8 L79.6,347.1 L79.6,346.3 L78.6,343.6 L75.2,339.2 L74.0,338.1 L73.6,337.2 L72.3,336.1 L71.3,334.7 L70.5,334.2 L69.9,332.3 L68.5,331.2 L66.5,328.4 L65.0,325.5 L63.1,323.2 L61.6,320.7 L61.0,318.4 L58.7,315.4 L58.8,314.4 L58.1,313.7 L56.4,310.7 L54.2,307.6 L53.6,304.9 L52.2,302.7 L51.1,298.7 L49.0,293.9 L48.2,291.1 L48.3,291.1 L48.2,289.7 L47.5,287.9 L47.2,287.6 L46.9,286.0 L44.9,281.2 L43.6,279.6 L43.0,278.0 L42.5,277.3 L42.5,276.7 L41.9,275.4 L42.0,274.4 L41.6,273.8 L39.9,272.4 L39.0,270.7 L37.8,269.2 L36.0,267.9 L35.5,266.3 L35.4,264.8 L35.0,264.0 L34.3,263.8 L33.7,262.6 L32.5,261.5 L33.0,261.0 L33.0,260.3 L35.9,259.0 L37.9,257.3 L38.5,257.3 L38.8,258.2 L39.2,258.2 L39.7,257.8 L40.5,256.8 L40.8,255.2 L41.4,254.8 L40.5,253.1 L40.5,252.1 L41.0,251.9 L41.7,252.2 L42.0,252.1 L42.0,251.7 L41.6,250.9 L41.9,250.6 L42.8,250.5 L42.3,249.5 L43.4,249.6 L43.6,249.3 L43.8,247.2 L44.5,246.6 L45.3,246.9 L46.3,246.4 L47.0,246.6 L47.9,246.0 L48.7,245.7 L49.3,245.8 L50.3,247.3 L51.5,247.7 L51.7,248.1 L51.8,250.6 L52.4,251.2 L53.2,251.3 L54.9,251.0 L55.9,251.1 L56.6,253.2 L57.3,254.2 L57.3,255.5 L57.1,256.2 L55.8,256.8 L55.3,257.5 L56.3,258.9 L56.6,259.9 L57.6,260.2 L57.9,260.8 L57.4,263.0 L57.4,263.8 L58.4,263.9 L62.2,263.1 L62.6,263.4 L62.9,265.2 L63.4,265.4 L64.6,265.6 L65.7,265.0 L66.6,265.0 L71.0,265.8 L72.9,266.7 L74.5,267.9 L77.8,269.1 L81.6,268.5 L83.9,269.0 L85.9,268.3 L86.6,268.7 L88.1,268.1 L93.2,267.4 L98.8,268.1 L100.2,269.7 L101.6,270.0 L102.2,270.6 L103.2,270.5 L105.8,269.5 L106.5,268.8 L107.7,268.5 L107.7,268.2 L106.5,266.1 L107.1,264.8 L107.7,264.2 L108.1,264.2 L109.0,264.7 L112.1,263.8 L112.9,263.1 L113.6,260.9 L114.2,260.5 L115.2,259.2 L115.7,258.9 L118.4,258.8 L119.9,258.0 L122.0,257.7 L123.9,256.4 L125.1,256.5 L126.2,256.3 L126.2,158.4 Z" fill="#faf5ef" stroke="#8B1A2B" stroke-width="1.3" stroke-linejoin="round"/></g>
  <g>    <path class="region-area" d="M217.5,405.5 L216.6,406.2 L216.3,406.8 L216.5,407.3 L217.6,407.9 L208.3,407.2 L208.0,406.1 L206.6,405.7 L207.7,406.9 L207.5,407.3 L206.3,407.0 L205.0,407.2 L201.3,405.9 L201.1,405.1 L201.7,405.0 L201.2,404.7 L199.5,404.5 L200.9,405.7 L199.8,405.8 L196.8,404.9 L195.6,404.8 L192.1,406.5 L190.9,406.7 L187.3,406.5 L185.0,407.0 L184.1,407.5 L183.0,408.8 L183.1,409.2 L183.9,409.8 L183.6,410.0 L178.6,411.0 L177.9,411.6 L178.0,412.9 L177.2,414.0 L175.5,414.8 L173.2,415.4 L169.3,414.9 L167.7,414.3 L165.0,414.9 L164.4,415.5 L161.5,416.3 L154.9,414.7 L151.0,414.6 L148.1,415.6 L149.5,416.1 L149.8,416.7 L149.6,417.2 L149.1,417.4 L144.4,416.7 L140.7,417.1 L139.5,417.5 L136.7,420.2 L135.8,420.4 L135.2,421.1 L133.2,422.1 L132.6,423.0 L130.6,423.5 L128.6,424.7 L127.9,425.5 L128.2,426.4 L126.6,426.9 L125.4,426.6 L122.9,425.0 L118.6,425.1 L117.1,425.6 L110.6,421.0 L107.9,421.5 L109.6,419.4 L109.6,418.3 L108.6,416.7 L107.7,415.9 L105.5,416.2 L103.9,416.1 L103.2,415.7 L102.3,414.5 L103.0,414.4 L103.7,412.8 L102.4,414.1 L100.0,414.0 L96.6,414.7 L95.7,415.2 L95.1,415.1 L94.9,414.7 L95.1,414.1 L94.9,413.0 L95.7,411.8 L95.3,409.9 L96.2,409.0 L94.7,407.4 L90.6,406.9 L88.1,407.0 L86.1,407.8 L85.1,409.2 L86.0,411.0 L85.8,413.3 L85.9,413.8 L86.4,414.1 L85.2,414.0 L83.5,412.0 L83.6,410.9 L83.0,410.0 L82.0,409.5 L81.7,408.9 L82.4,408.1 L82.9,406.5 L82.1,406.7 L81.7,405.8 L82.7,404.5 L83.3,403.0 L84.1,402.4 L86.0,402.3 L86.4,401.3 L84.8,396.9 L84.0,395.2 L81.9,393.5 L81.7,391.6 L80.9,390.2 L77.2,387.8 L77.3,386.8 L75.3,383.7 L73.1,382.3 L72.1,381.1 L73.5,380.8 L74.3,381.8 L74.2,382.1 L76.0,383.7 L76.7,383.6 L75.8,381.9 L74.4,381.0 L74.4,379.6 L74.0,378.7 L71.8,378.5 L72.1,379.1 L71.0,379.6 L70.7,379.3 L69.7,375.9 L70.2,374.8 L69.1,373.6 L70.6,372.8 L70.8,371.0 L72.5,370.4 L72.9,370.5 L72.7,370.7 L73.0,371.1 L74.3,372.1 L75.5,372.5 L76.5,372.3 L80.6,368.9 L81.2,367.9 L82.3,363.7 L82.2,361.9 L81.7,360.8 L82.5,359.7 L82.7,358.6 L80.7,350.5 L80.7,348.8 L79.6,347.1 L78.6,343.6 L75.2,339.2 L74.0,338.1 L73.6,337.2 L70.5,334.2 L69.9,332.3 L68.5,331.2 L67.1,329.2 L68.6,329.5 L68.8,326.7 L70.1,325.2 L70.4,323.2 L72.0,322.0 L72.7,320.1 L74.0,319.0 L74.9,319.0 L77.5,320.2 L79.9,319.2 L82.3,315.8 L83.0,313.7 L84.3,311.7 L85.7,312.4 L86.1,311.6 L86.9,311.0 L88.3,310.9 L92.9,313.7 L95.8,316.9 L98.4,317.6 L98.3,320.8 L97.5,321.9 L98.1,323.5 L97.5,325.3 L98.3,330.3 L98.9,331.6 L99.9,332.7 L99.7,334.0 L100.2,337.6 L100.4,338.2 L101.1,338.7 L101.8,340.4 L101.4,342.7 L101.9,345.0 L100.8,348.8 L102.5,349.0 L103.7,349.6 L104.4,349.4 L104.9,349.6 L106.9,348.6 L106.6,350.4 L107.8,351.1 L108.7,352.5 L109.9,352.9 L110.9,352.7 L111.9,353.7 L112.7,353.8 L112.7,355.8 L113.1,357.9 L111.3,359.9 L111.7,362.0 L113.0,364.1 L112.6,367.2 L114.2,368.7 L115.8,368.0 L115.9,367.8 L115.3,366.7 L116.3,363.9 L116.8,363.5 L117.4,363.7 L118.8,363.3 L119.5,362.5 L121.4,361.6 L124.7,361.2 L130.4,356.7 L131.2,356.6 L132.3,358.1 L132.3,359.2 L128.9,362.6 L128.8,363.9 L129.2,365.6 L131.6,371.3 L134.1,373.2 L136.1,375.5 L137.9,376.6 L141.2,375.7 L142.9,376.2 L145.5,376.2 L147.6,374.6 L148.6,370.8 L149.7,369.7 L154.4,368.7 L156.5,367.9 L158.5,363.9 L160.1,363.2 L161.5,361.7 L164.6,361.0 L167.3,359.4 L168.1,358.1 L169.4,357.5 L172.4,357.3 L176.1,358.1 L177.7,357.8 L179.2,356.9 L181.5,354.3 L182.1,354.2 L182.7,353.2 L182.0,351.7 L182.4,348.8 L182.8,347.9 L183.8,347.8 L187.0,341.1 L187.8,340.2 L193.7,343.1 L196.1,345.7 L200.2,347.2 L205.1,347.8 L207.4,348.6 L207.7,349.9 L208.5,351.0 L212.0,348.2 L214.5,345.0 L216.2,344.2 L217.4,343.2 L220.7,343.2 L223.4,342.6 L225.3,342.8 L228.2,344.4 L228.4,345.5 L229.7,346.3 L231.6,345.3 L232.3,344.4 L234.0,344.2 L235.1,345.6 L237.3,346.1 L237.5,346.8 L236.8,347.9 L236.7,348.7 L237.4,349.0 L238.2,350.4 L236.4,352.1 L235.7,355.0 L234.7,355.5 L234.1,356.3 L230.3,357.7 L226.9,356.9 L224.6,358.0 L223.6,359.9 L222.7,360.3 L218.6,360.7 L217.3,361.3 L215.3,361.1 L213.1,363.0 L213.0,365.1 L214.0,367.3 L214.1,369.5 L216.5,372.2 L215.4,373.2 L211.9,373.2 L209.7,373.9 L208.5,372.5 L208.6,374.2 L208.2,374.8 L206.7,375.4 L205.4,376.8 L205.3,377.7 L204.4,378.7 L204.8,379.8 L204.4,380.9 L199.9,387.1 L199.6,388.0 L200.0,389.0 L204.1,389.1 L207.5,388.7 L213.6,389.0 L218.3,389.9 L220.3,390.6 L221.7,391.6 L222.2,393.4 L223.5,394.9 L223.2,395.5 L218.3,397.3 L216.4,399.2 L220.2,399.2 L221.2,399.6 L221.7,400.2 L225.0,401.6 L223.7,403.3 L223.7,404.5 L217.5,405.5 Z" fill="rgba(139,26,43,0.15)" stroke="rgba(139,26,43,0.4)" stroke-width="0.5"/>
    <path class="region-area" d="M357.1,301.8 L362.9,300.1 L367.1,297.8 L369.9,300.6 L369.8,302.4 L369.4,303.0 L370.1,304.9 L371.3,305.9 L373.2,306.4 L373.0,305.7 L373.5,305.6 L374.6,306.8 L374.6,308.3 L374.0,308.4 L374.1,308.9 L372.9,309.2 L372.0,310.0 L371.3,312.0 L370.7,312.0 L370.6,312.6 L371.0,313.1 L369.8,313.8 L370.4,314.6 L371.7,315.3 L372.5,314.8 L375.4,315.8 L376.4,315.3 L377.8,315.3 L379.2,314.8 L383.0,316.8 L384.5,316.6 L386.8,317.5 L387.8,317.2 L390.7,319.1 L391.8,319.1 L392.6,320.5 L395.0,321.1 L395.3,322.0 L396.5,322.8 L397.0,325.3 L397.8,325.8 L397.9,326.6 L398.6,327.1 L395.9,329.8 L395.0,331.4 L393.6,332.8 L389.7,336.0 L386.5,337.2 L384.6,339.4 L383.8,339.8 L383.4,340.5 L382.5,340.8 L381.1,342.0 L379.0,342.9 L377.6,343.1 L377.1,344.6 L376.3,345.0 L375.8,346.2 L374.0,347.5 L372.4,350.2 L370.6,350.9 L369.2,353.1 L366.0,356.1 L363.2,359.3 L361.8,360.1 L356.5,364.4 L355.0,365.9 L354.6,366.7 L349.7,369.8 L349.0,370.6 L345.6,372.3 L344.1,372.7 L343.0,374.0 L342.5,375.3 L339.2,377.8 L338.4,378.1 L337.3,379.4 L335.5,380.4 L332.9,381.2 L329.6,384.0 L327.7,384.6 L326.5,385.7 L325.8,385.6 L325.6,386.3 L324.9,386.9 L322.8,388.2 L322.5,388.0 L319.2,390.3 L317.1,391.1 L316.0,392.3 L312.9,393.5 L311.2,393.8 L309.7,394.9 L307.9,395.2 L304.1,396.6 L303.5,397.3 L299.4,398.7 L296.0,398.5 L294.3,398.8 L292.7,398.1 L289.1,397.5 L285.5,397.3 L280.9,398.2 L278.1,399.5 L276.9,401.1 L276.4,403.3 L278.1,404.6 L278.8,405.6 L278.6,405.9 L277.8,405.7 L276.0,406.3 L272.9,405.7 L270.9,405.9 L267.4,404.5 L265.1,404.0 L262.7,403.9 L258.7,404.6 L257.7,405.3 L258.1,406.4 L257.8,406.9 L255.8,408.5 L255.7,409.3 L256.3,409.8 L255.4,410.5 L254.5,409.9 L250.6,409.5 L248.4,409.7 L246.1,409.2 L244.0,408.0 L240.2,407.5 L237.7,406.5 L232.9,406.1 L231.2,405.6 L228.3,405.4 L223.6,404.5 L223.7,403.3 L225.0,401.6 L221.7,400.2 L221.2,399.6 L220.2,399.2 L216.4,399.2 L218.3,397.3 L223.2,395.5 L223.5,394.9 L222.2,393.4 L221.7,391.6 L220.3,390.6 L218.3,389.9 L213.6,389.0 L207.5,388.7 L204.1,389.1 L200.0,389.0 L199.6,388.0 L199.9,387.1 L204.4,380.9 L204.8,379.8 L204.4,378.7 L205.3,377.7 L205.4,376.8 L206.7,375.4 L208.2,374.8 L208.6,374.2 L208.5,372.5 L209.7,373.9 L211.9,373.2 L215.4,373.2 L216.5,372.2 L214.1,369.5 L214.0,367.3 L213.0,365.1 L213.1,363.0 L215.3,361.1 L217.3,361.3 L218.6,360.7 L222.7,360.3 L223.6,359.9 L224.6,358.0 L226.9,356.9 L230.3,357.7 L234.1,356.3 L234.7,355.5 L235.7,355.0 L236.4,352.1 L238.2,350.4 L237.4,349.0 L236.7,348.7 L236.8,347.9 L237.5,346.8 L237.3,346.1 L237.4,345.2 L239.8,345.0 L242.3,344.2 L246.7,343.8 L247.0,339.7 L248.2,335.7 L253.7,335.4 L255.9,334.6 L256.6,333.9 L259.1,332.6 L261.7,332.1 L265.7,330.4 L269.3,331.1 L270.1,330.6 L270.3,329.3 L271.9,327.5 L272.7,325.8 L272.6,324.9 L273.5,323.3 L273.0,321.5 L273.9,319.7 L272.9,318.5 L272.5,314.7 L276.3,314.5 L276.8,315.8 L279.3,316.5 L283.0,314.3 L283.3,313.9 L283.2,313.2 L283.8,312.8 L285.0,313.4 L286.3,312.6 L288.3,312.0 L290.3,312.4 L290.6,311.3 L291.2,311.4 L292.1,312.3 L293.6,312.8 L294.1,313.8 L298.4,313.3 L299.3,314.0 L299.8,315.1 L301.4,315.8 L303.1,315.8 L303.6,316.0 L303.4,316.5 L304.6,316.2 L305.4,316.3 L307.5,315.5 L308.2,315.5 L309.4,316.4 L310.1,315.9 L311.6,315.7 L311.9,315.5 L311.7,315.0 L311.9,314.5 L312.4,314.2 L314.2,314.0 L313.3,312.7 L313.6,312.5 L314.9,312.3 L316.5,312.7 L317.0,312.3 L316.9,311.7 L318.3,311.7 L319.6,311.1 L320.1,311.4 L321.3,311.4 L321.8,310.7 L321.1,310.3 L321.2,309.8 L322.3,310.2 L322.8,309.9 L322.0,309.2 L322.0,308.8 L323.7,308.6 L324.1,308.1 L323.7,307.8 L323.2,308.0 L322.6,306.9 L325.4,306.6 L326.1,307.8 L327.5,308.5 L329.0,310.5 L329.3,311.4 L332.4,313.9 L334.1,314.6 L336.2,314.4 L338.3,315.4 L342.1,315.9 L342.2,314.0 L343.2,313.1 L343.8,311.7 L343.3,310.5 L346.2,308.3 L346.3,307.1 L345.3,306.4 L345.8,305.5 L347.9,304.8 L350.2,302.2 L352.2,302.3 L354.4,301.4 L357.1,301.8 Z" fill="rgba(139,26,43,0.15)" stroke="rgba(139,26,43,0.4)" stroke-width="0.5"/>
    <path class="region-area" d="M49.0,245.7 L50.3,247.3 L51.5,247.7 L51.8,250.6 L52.4,251.2 L55.9,251.1 L56.6,253.2 L57.3,254.2 L57.3,255.5 L57.1,256.2 L55.8,256.8 L55.3,257.5 L56.6,259.9 L57.6,260.2 L57.9,260.8 L57.4,263.8 L58.4,263.9 L62.2,263.1 L62.6,263.4 L62.9,265.2 L63.4,265.4 L64.6,265.6 L66.6,265.0 L71.0,265.8 L74.5,267.9 L77.8,269.1 L81.6,268.5 L83.9,269.0 L85.9,268.3 L86.6,268.7 L88.1,268.1 L93.2,267.4 L98.8,268.1 L100.2,269.7 L101.6,270.0 L102.2,270.6 L103.2,270.5 L105.8,269.5 L106.5,268.8 L107.7,268.5 L106.5,266.1 L107.1,264.8 L107.7,264.2 L109.0,264.7 L112.1,263.8 L112.9,263.1 L113.6,260.9 L115.2,259.2 L118.4,258.8 L119.9,258.0 L122.0,257.7 L123.9,256.4 L126.2,256.3 L126.2,158.4 L127.4,160.1 L129.5,161.8 L130.9,162.2 L133.0,163.3 L136.4,165.9 L138.5,169.5 L138.3,170.3 L139.5,171.1 L139.6,172.0 L140.4,172.6 L140.3,173.3 L141.1,175.2 L142.3,175.8 L142.6,176.5 L143.0,176.5 L142.8,177.3 L143.8,177.2 L144.2,177.5 L143.2,178.3 L143.2,179.1 L144.4,180.1 L144.6,180.8 L143.7,181.5 L144.6,182.1 L144.3,183.3 L145.8,184.5 L146.3,186.3 L146.0,187.1 L146.8,186.8 L147.8,188.8 L148.1,193.6 L149.1,195.2 L146.8,199.0 L144.4,202.1 L143.3,203.1 L142.8,204.8 L142.8,206.3 L143.5,207.5 L142.9,210.0 L143.1,211.8 L143.7,213.5 L144.7,214.3 L145.1,215.4 L149.4,213.2 L150.9,213.0 L153.1,214.0 L156.6,214.7 L164.7,213.6 L166.6,214.2 L171.1,214.7 L173.7,213.1 L174.1,212.2 L173.8,210.0 L174.1,209.8 L180.0,209.0 L181.5,208.1 L183.9,205.5 L185.3,202.4 L186.6,200.9 L189.1,200.1 L192.0,197.3 L194.5,197.2 L195.5,195.6 L196.6,194.6 L198.8,195.1 L198.7,202.6 L201.7,203.6 L202.7,202.3 L204.4,195.8 L206.3,196.0 L206.5,194.2 L208.2,194.3 L209.3,191.3 L216.6,192.1 L216.0,193.8 L212.8,193.2 L212.6,194.9 L214.7,195.5 L212.6,198.8 L214.2,200.8 L213.9,204.5 L218.9,205.8 L222.2,208.1 L219.8,211.3 L229.2,215.3 L229.9,214.7 L231.4,214.8 L233.0,216.0 L234.0,218.8 L233.6,220.1 L232.3,221.0 L230.5,225.2 L233.7,227.3 L235.6,227.9 L234.2,231.9 L234.5,233.9 L236.4,235.1 L235.8,236.9 L236.3,238.1 L244.2,236.6 L245.1,237.1 L244.3,238.6 L245.2,239.2 L243.0,242.3 L243.5,243.1 L244.5,243.5 L245.3,244.4 L245.0,246.0 L247.2,247.7 L248.4,246.1 L249.6,245.0 L249.9,242.4 L251.8,240.4 L251.8,239.7 L251.4,239.4 L251.5,238.4 L252.0,237.8 L251.4,237.3 L251.2,236.5 L251.8,235.5 L253.1,235.3 L253.6,234.7 L254.6,234.6 L254.1,236.1 L254.4,236.5 L259.8,236.7 L260.7,237.2 L255.8,242.5 L255.3,242.6 L258.2,247.6 L260.4,246.8 L260.3,248.1 L259.5,250.0 L258.7,251.3 L257.2,252.6 L257.8,253.5 L257.7,254.3 L255.9,258.9 L255.8,260.5 L256.6,262.3 L242.4,289.0 L243.1,290.7 L244.7,292.4 L246.0,292.6 L246.4,293.3 L247.5,293.4 L248.7,294.8 L250.9,295.6 L251.2,297.0 L251.8,297.5 L254.3,298.0 L257.5,303.7 L258.5,304.1 L259.5,305.4 L260.8,305.9 L261.2,307.1 L264.9,310.5 L266.9,311.6 L267.7,312.8 L269.6,312.9 L272.5,314.7 L272.9,318.5 L273.9,319.7 L273.1,321.0 L273.5,323.3 L272.6,324.9 L272.7,325.8 L271.9,327.5 L270.3,329.3 L270.1,330.6 L269.3,331.1 L265.7,330.4 L261.7,332.1 L259.1,332.6 L256.6,333.9 L255.9,334.6 L253.7,335.4 L248.2,335.7 L247.0,339.7 L246.7,343.8 L242.3,344.2 L239.8,345.0 L238.2,345.0 L237.4,345.2 L237.3,346.1 L235.1,345.6 L234.0,344.2 L233.2,344.1 L232.3,344.4 L231.6,345.3 L229.7,346.3 L228.4,345.5 L228.2,344.4 L225.3,342.8 L223.4,342.6 L220.7,343.2 L217.4,343.2 L216.2,344.2 L214.5,345.0 L212.0,348.2 L208.5,351.0 L207.7,349.9 L207.4,348.6 L205.1,347.8 L200.2,347.2 L196.1,345.7 L193.7,343.1 L187.8,340.2 L187.0,341.1 L183.8,347.8 L182.8,347.9 L182.4,348.8 L182.0,351.7 L182.7,353.2 L182.1,354.2 L181.5,354.3 L179.2,356.9 L177.7,357.8 L176.1,358.1 L172.4,357.3 L169.4,357.5 L168.1,358.1 L167.3,359.4 L164.6,361.0 L161.5,361.7 L160.1,363.2 L158.5,363.9 L156.5,367.9 L154.4,368.7 L149.7,369.7 L148.6,370.8 L147.6,374.6 L145.5,376.2 L142.9,376.2 L141.2,375.7 L137.9,376.6 L136.1,375.5 L134.1,373.2 L131.6,371.3 L128.8,363.9 L128.9,362.6 L132.3,359.2 L132.3,358.1 L131.2,356.6 L130.4,356.7 L124.7,361.2 L121.4,361.6 L119.5,362.5 L118.8,363.3 L117.4,363.7 L116.8,363.5 L116.3,363.9 L115.4,365.8 L115.3,366.7 L115.9,367.8 L114.2,368.7 L112.6,367.2 L113.0,364.1 L111.7,362.0 L111.3,359.9 L113.1,357.9 L112.7,355.8 L112.7,353.8 L111.9,353.7 L110.9,352.7 L109.9,352.9 L108.7,352.5 L107.8,351.1 L106.6,350.4 L106.9,348.6 L104.9,349.6 L104.4,349.4 L103.7,349.6 L102.5,349.0 L100.8,348.8 L101.9,345.0 L101.4,342.7 L101.8,340.4 L101.1,338.7 L100.4,338.2 L100.2,337.6 L99.7,334.0 L99.9,332.7 L98.9,331.6 L98.3,330.3 L97.5,325.3 L98.1,323.5 L97.5,321.9 L98.3,320.8 L98.4,317.6 L95.8,316.9 L92.9,313.7 L88.3,310.9 L86.9,311.0 L86.1,311.6 L85.7,312.4 L84.3,311.7 L83.0,313.7 L82.3,315.8 L79.9,319.2 L77.5,320.2 L74.9,319.0 L74.0,319.0 L72.7,320.1 L72.0,322.0 L70.4,323.2 L70.1,325.2 L68.8,326.7 L68.6,329.5 L67.1,329.2 L65.0,325.5 L63.1,323.2 L61.6,320.7 L61.0,318.4 L58.7,315.4 L58.8,314.4 L54.2,307.6 L53.6,304.9 L52.2,302.7 L51.1,298.7 L49.0,293.9 L48.2,291.1 L48.2,289.7 L47.2,287.6 L46.9,286.0 L44.9,281.2 L43.6,279.6 L42.5,277.3 L42.0,274.4 L39.9,272.4 L37.8,269.2 L36.0,267.9 L35.0,264.0 L34.3,263.8 L33.7,262.6 L32.5,261.5 L33.0,261.0 L33.0,260.3 L35.9,259.0 L37.9,257.3 L38.5,257.3 L38.8,258.2 L39.2,258.2 L40.2,257.3 L40.8,255.2 L41.4,254.8 L40.5,253.1 L40.5,252.1 L42.0,252.1 L41.7,250.7 L42.8,250.5 L42.3,249.5 L43.4,249.6 L43.6,249.3 L43.8,247.2 L44.4,246.7 L45.3,246.9 L46.0,246.5 L47.0,246.6 L49.0,245.7 Z" fill="rgba(139,26,43,0.15)" stroke="rgba(139,26,43,0.4)" stroke-width="0.5"/></g>
  <g>    <circle cx="142.9" cy="378.6" r="9" fill="#8B1A2B" stroke="#fff" stroke-width="0.8"/>
    <text x="142.9" y="382.1" text-anchor="middle" font-family="Inter, sans-serif" font-size="9" font-weight="700" fill="#fff">1</text>
    <circle cx="298.4" cy="355.7" r="9" fill="#8B1A2B" stroke="#fff" stroke-width="0.8"/>
    <text x="298.4" y="359.2" text-anchor="middle" font-family="Inter, sans-serif" font-size="9" font-weight="700" fill="#fff">2</text>
    <circle cx="164.0" cy="283.7" r="9" fill="#8B1A2B" stroke="#fff" stroke-width="0.8"/>
    <text x="164.0" y="287.2" text-anchor="middle" font-family="Inter, sans-serif" font-size="9" font-weight="700" fill="#fff">3</text></g>
  <line x1="28" y1="412" x2="492" y2="412" stroke="#8B1A2B" stroke-width="0.3" opacity="0.25"/>
  <text x="32" y="420" font-family="Inter, sans-serif" font-size="8.5" fill="#2D1B14"><tspan font-weight="700">1. _______________</tspan> : _______________</text>
  <text x="32" y="435" font-family="Inter, sans-serif" font-size="8.5" fill="#2D1B14"><tspan font-weight="700">2. _______________</tspan> : _______________</text>
  <text x="32" y="450" font-family="Inter, sans-serif" font-size="8.5" fill="#2D1B14"><tspan font-weight="700">3. _______________</tspan> : _______________</text>
  <text x="260" y="472" text-anchor="middle" font-family="Inter, sans-serif" font-size="7" fill="#b0a89e">Cellar -- Sommelier Companion</text>
</svg>