<svg xmlns="http://www.w3.org/2000/svg" viewBox="0 0 420 638">
  <defs><filter id="shadow"><feDropShadow dx="1" dy="1.5" stdDeviation="2" flood-color="#2D1B14" flood-opacity="0.08"/></filter></defs>
  <text x="210" y="24" text-anchor="middle" font-family="Cormorant Garamond, Georgia, serif" font-size="16" font-weight="400" fill="#2D1B14" letter-spacing="5">TYSKLAND</text>
  <text x="210" y="42" text-anchor="middle" font-family="Inter, sans-serif" font-size="8" fill="#8a7a6a" letter-spacing="1" class="region-label">Placera regionerna och namnge de viktigaste druvorna</text>
  <g filter="url(#shadow)">    <path d="M329.4,414.4 L328.2,416.3 L329.4,417.0 L328.9,417.3 L328.8,417.7 L328.9,420.0 L327.9,421.5 L326.4,421.8 L325.8,423.2 L324.2,422.7 L323.7,422.2 L322.5,421.6 L318.7,421.0 L316.4,421.4 L315.8,421.8 L316.5,423.4 L315.8,424.8 L315.7,426.5 L314.6,428.4 L309.9,430.9 L304.9,431.5 L301.2,432.5 L297.6,434.5 L295.1,434.9 L293.6,436.2 L290.6,437.9 L290.7,438.9 L291.4,439.7 L293.9,441.4 L295.0,443.3 L297.5,444.7 L298.7,446.6 L299.7,447.5 L297.4,450.0 L297.0,451.0 L296.1,452.0 L296.7,452.4 L298.7,452.6 L300.7,452.3 L301.6,452.9 L302.6,454.3 L302.6,455.6 L302.1,456.5 L301.4,457.0 L301.5,457.8 L301.0,458.5 L301.3,460.3 L300.1,461.2 L298.9,460.9 L297.5,461.0 L293.8,458.7 L292.0,458.0 L291.9,457.1 L292.3,456.3 L293.3,456.0 L291.1,454.6 L291.4,454.0 L287.5,453.7 L285.5,454.1 L283.4,455.3 L281.9,455.4 L280.0,454.4 L279.3,453.1 L276.7,453.5 L274.6,453.2 L272.6,453.6 L272.0,452.9 L272.7,451.6 L270.4,452.6 L271.4,453.8 L271.4,454.8 L271.3,455.3 L270.2,456.2 L261.7,456.0 L258.7,456.4 L257.5,457.3 L250.3,456.8 L249.2,457.5 L248.5,459.0 L247.8,459.5 L245.4,459.9 L242.9,459.8 L241.2,461.1 L242.0,461.4 L242.1,461.6 L241.8,462.0 L239.0,462.3 L237.3,463.6 L236.5,463.8 L235.7,463.8 L235.7,462.8 L235.0,462.6 L231.0,464.0 L227.3,463.9 L226.4,463.3 L226.7,462.8 L226.6,462.4 L224.8,461.1 L222.9,460.5 L222.7,460.2 L224.1,459.5 L222.9,458.9 L219.4,459.5 L218.6,459.0 L213.0,457.8 L211.3,458.9 L209.4,458.8 L208.3,458.3 L208.6,457.5 L208.5,457.1 L207.5,457.2 L206.9,457.4 L207.5,458.5 L207.1,460.3 L208.1,461.0 L208.3,462.2 L207.4,463.7 L206.8,464.3 L205.4,464.8 L204.4,466.1 L203.0,467.1 L200.6,468.0 L197.8,468.2 L198.1,467.5 L198.9,467.3 L199.5,464.6 L198.9,464.3 L197.3,464.5 L196.7,464.9 L196.0,464.8 L195.0,465.1 L193.9,463.4 L194.7,463.0 L194.9,462.6 L194.6,462.2 L192.8,460.4 L191.8,460.8 L191.4,460.7 L191.0,459.8 L190.2,459.1 L190.1,458.5 L189.1,458.8 L186.9,458.5 L186.0,458.8 L185.3,458.5 L185.1,457.3 L184.2,456.8 L183.1,457.0 L181.3,458.9 L180.4,459.2 L178.1,459.2 L175.8,458.8 L165.8,454.6 L163.1,454.4 L162.6,453.9 L156.6,453.6 L154.0,454.4 L151.7,454.4 L150.2,453.5 L150.2,453.2 L150.8,453.1 L148.7,452.1 L147.7,452.0 L147.4,452.8 L147.7,453.0 L145.8,453.0 L145.2,452.0 L145.9,451.1 L145.7,450.7 L144.5,450.7 L143.7,449.6 L143.2,449.5 L142.9,449.8 L142.7,450.5 L142.2,450.7 L141.9,450.6 L141.7,449.4 L140.1,449.2 L139.5,449.4 L139.9,449.9 L136.7,450.5 L135.8,452.0 L134.1,452.8 L134.3,453.7 L134.1,454.0 L136.5,455.0 L140.5,454.1 L141.9,454.4 L141.7,455.2 L141.4,454.9 L140.9,455.0 L140.9,456.1 L140.7,456.7 L140.2,456.8 L138.8,455.6 L137.7,455.7 L136.6,456.2 L136.2,457.0 L132.7,457.1 L131.0,456.7 L130.4,455.8 L128.4,455.6 L126.4,455.8 L124.1,456.8 L123.1,457.6 L121.5,457.8 L116.8,457.8 L116.3,456.8 L113.5,456.6 L112.3,457.7 L111.6,458.0 L108.6,458.4 L106.0,457.7 L106.9,457.7 L107.7,456.5 L105.1,457.0 L105.3,456.1 L103.3,454.1 L102.6,453.7 L102.4,452.5 L103.4,451.7 L102.9,449.8 L103.5,448.1 L104.2,447.8 L104.1,446.2 L104.8,445.4 L105.1,444.1 L106.4,443.0 L106.3,441.9 L104.7,440.1 L104.6,438.6 L104.8,437.9 L106.1,435.5 L108.7,432.9 L109.3,430.8 L110.5,430.2 L111.0,429.7 L110.6,427.4 L112.0,424.1 L113.3,423.3 L112.9,422.3 L113.2,419.9 L114.7,418.3 L116.3,417.6 L118.5,416.0 L118.9,414.7 L120.6,414.6 L121.4,413.5 L123.3,412.9 L125.3,409.5 L127.2,407.5 L123.3,406.7 L117.5,404.7 L114.8,404.8 L111.9,404.3 L110.2,404.7 L108.7,404.5 L106.9,404.6 L105.9,403.8 L102.8,403.0 L101.0,401.4 L101.4,401.1 L101.1,400.5 L98.9,400.3 L98.8,399.9 L96.6,400.3 L96.0,401.2 L94.7,401.4 L93.9,402.2 L92.7,401.9 L89.6,401.9 L86.9,400.9 L86.5,401.1 L86.6,401.7 L85.5,402.1 L84.7,401.7 L84.3,400.7 L84.3,399.5 L80.9,398.6 L78.0,398.5 L77.8,399.0 L78.2,400.1 L77.6,400.7 L74.1,400.4 L73.2,399.8 L73.5,398.9 L73.3,398.3 L72.5,398.5 L71.9,397.2 L71.1,396.9 L71.0,396.2 L68.0,394.2 L67.8,393.8 L68.0,393.5 L68.6,393.5 L68.8,393.2 L66.7,391.5 L66.4,390.7 L62.5,389.2 L60.4,389.6 L60.6,385.6 L63.0,383.0 L62.5,382.4 L63.1,381.9 L65.7,380.8 L65.4,380.5 L65.5,380.3 L66.0,380.4 L65.5,379.6 L65.9,379.1 L66.1,377.4 L62.3,376.9 L60.0,375.8 L58.9,375.9 L58.3,375.0 L56.0,374.1 L54.2,371.6 L53.8,372.1 L52.2,369.8 L52.1,368.7 L51.5,368.2 L51.9,367.7 L51.6,367.7 L52.0,366.2 L52.7,365.2 L52.2,364.8 L52.4,364.2 L53.7,363.8 L53.9,363.5 L53.8,362.6 L53.3,362.3 L54.8,361.3 L57.8,360.4 L57.7,359.7 L58.3,359.1 L61.0,358.9 L61.5,358.6 L61.4,358.1 L60.2,356.7 L60.6,354.4 L59.9,353.9 L59.6,353.2 L60.1,352.7 L57.2,352.2 L55.5,352.5 L54.6,351.8 L54.9,351.5 L54.1,351.4 L54.4,350.9 L53.8,350.4 L54.4,349.8 L56.4,348.9 L57.0,348.1 L57.0,347.9 L54.5,347.8 L53.7,347.6 L53.3,347.1 L53.8,346.9 L50.9,344.3 L48.4,344.5 L48.4,343.5 L47.8,343.3 L47.9,342.5 L47.0,341.9 L46.9,341.4 L47.4,341.5 L47.9,341.2 L48.0,340.1 L48.3,339.7 L49.6,339.6 L50.0,339.3 L50.3,338.6 L50.0,337.9 L50.3,337.3 L48.0,336.5 L47.9,335.7 L48.1,334.9 L45.4,334.8 L43.5,335.2 L43.4,334.3 L42.9,333.3 L42.7,332.5 L43.7,332.1 L45.1,332.9 L45.8,332.9 L47.4,331.3 L53.3,328.5 L52.5,328.1 L53.7,327.5 L52.8,327.4 L51.0,328.1 L50.2,327.8 L49.9,327.2 L50.0,326.4 L50.3,325.7 L53.3,322.5 L55.0,321.6 L55.5,320.0 L54.9,319.6 L55.4,317.5 L55.0,315.7 L51.1,312.6 L51.0,312.1 L51.6,310.8 L49.1,310.1 L48.3,309.5 L48.8,308.5 L48.4,308.2 L47.2,307.7 L45.8,307.7 L45.8,307.3 L46.6,306.8 L46.7,306.0 L46.2,305.3 L45.4,305.0 L45.5,304.6 L51.0,303.3 L53.6,303.7 L51.3,302.1 L52.6,301.7 L56.1,302.9 L57.5,302.8 L58.3,303.5 L60.3,303.9 L60.4,304.4 L61.8,304.2 L61.9,303.8 L61.6,303.0 L64.7,303.5 L67.0,302.4 L70.6,301.7 L73.8,301.6 L74.8,301.3 L76.4,299.8 L77.2,299.4 L77.1,298.7 L76.0,298.0 L72.3,296.7 L72.5,295.8 L73.6,295.6 L75.0,294.3 L77.9,293.9 L79.9,292.2 L81.4,291.8 L83.3,290.3 L84.9,289.7 L84.4,288.4 L84.4,287.7 L85.4,286.2 L85.7,284.9 L85.2,283.9 L83.0,281.8 L82.3,282.3 L80.4,282.5 L73.7,281.4 L73.0,280.9 L72.6,279.1 L72.2,278.5 L74.8,277.9 L73.3,277.0 L73.6,276.1 L73.3,275.7 L74.5,275.2 L79.2,274.9 L81.1,275.2 L82.8,275.1 L84.7,275.5 L85.3,274.7 L86.2,268.3 L86.9,267.2 L89.8,264.4 L90.6,263.2 L90.9,262.1 L90.7,258.2 L90.2,257.0 L91.0,255.3 L91.0,253.2 L92.4,252.1 L92.5,251.7 L92.3,251.3 L93.2,250.5 L94.5,250.3 L97.2,251.1 L96.3,250.3 L94.9,250.0 L86.7,249.8 L85.4,249.5 L84.8,248.4 L84.8,245.8 L85.9,243.5 L86.2,243.2 L88.3,243.4 L89.1,242.7 L88.7,241.9 L87.2,241.3 L87.1,240.9 L92.1,238.0 L95.0,237.3 L100.5,237.0 L102.1,237.6 L118.3,236.0 L121.1,236.5 L120.9,237.8 L121.9,239.1 L123.4,240.2 L124.6,240.7 L124.3,241.4 L125.6,241.7 L126.0,242.1 L125.6,243.1 L124.2,243.6 L122.1,243.9 L122.8,245.1 L123.6,245.9 L124.5,245.7 L125.5,245.8 L127.4,247.2 L129.3,247.2 L130.5,246.1 L131.3,244.9 L131.5,243.7 L130.5,242.9 L128.3,243.1 L129.0,240.8 L129.7,239.9 L131.9,239.7 L132.5,239.9 L134.0,241.2 L139.9,242.4 L139.9,242.7 L138.2,243.7 L137.6,244.5 L137.5,247.6 L138.2,249.1 L137.9,244.9 L138.5,244.1 L140.0,243.3 L140.4,242.3 L138.3,239.5 L137.5,238.0 L137.5,236.8 L139.1,234.3 L140.0,232.1 L141.2,230.7 L142.7,230.0 L144.2,229.9 L146.8,231.3 L151.0,232.1 L156.6,231.7 L157.3,231.3 L160.1,230.9 L163.0,230.9 L163.6,230.6 L166.2,231.0 L170.5,235.3 L173.4,237.2 L173.9,238.2 L177.0,240.7 L178.9,241.1 L181.1,242.0 L186.0,242.4 L185.5,242.0 L184.2,241.5 L180.9,241.3 L177.0,240.0 L175.8,239.2 L175.2,236.4 L171.7,235.0 L170.8,234.0 L170.2,232.1 L168.9,231.8 L165.3,230.1 L159.4,229.9 L157.1,229.3 L156.3,229.9 L155.4,229.7 L153.0,228.3 L150.0,224.7 L152.1,224.3 L155.1,225.1 L155.9,224.9 L156.5,223.8 L156.7,222.5 L155.1,221.4 L155.2,220.8 L154.3,220.6 L153.0,220.7 L151.0,221.5 L149.3,219.5 L150.5,217.6 L150.2,216.8 L153.2,216.1 L154.7,214.6 L151.7,215.6 L152.0,215.1 L147.9,215.6 L146.6,215.4 L144.4,216.3 L142.4,215.6 L141.7,214.8 L141.6,213.8 L143.1,213.2 L145.0,213.1 L145.0,212.8 L143.4,212.4 L142.9,212.8 L142.5,212.4 L142.6,212.0 L143.3,211.4 L144.1,211.6 L147.0,211.1 L151.9,211.0 L156.2,209.2 L156.4,207.8 L152.6,205.1 L151.6,204.2 L149.7,204.5 L149.5,204.2 L150.7,203.7 L149.0,201.2 L144.8,199.5 L145.0,198.6 L143.3,196.6 L143.1,195.6 L143.8,193.7 L146.4,194.0 L149.7,193.4 L152.5,193.7 L155.4,194.3 L163.0,195.4 L163.6,195.7 L164.2,197.0 L164.8,197.1 L168.0,197.1 L169.9,196.5 L170.6,196.9 L172.3,196.8 L174.4,196.2 L176.9,194.8 L177.0,196.1 L182.4,196.9 L184.9,197.8 L185.7,198.8 L188.2,198.3 L188.1,197.6 L188.9,197.5 L190.1,197.9 L190.9,198.5 L191.7,200.1 L192.7,200.8 L192.2,201.0 L190.9,200.8 L189.6,201.3 L189.5,201.7 L191.9,201.6 L192.4,202.0 L193.2,201.8 L193.4,202.0 L193.1,202.5 L193.4,203.7 L193.0,205.8 L192.4,206.8 L190.8,207.8 L189.3,208.2 L186.2,208.6 L186.2,208.9 L187.8,209.4 L196.5,208.2 L197.2,208.3 L199.3,209.4 L198.6,209.8 L199.1,211.2 L198.9,211.7 L197.1,212.6 L197.3,212.9 L197.1,213.1 L197.6,213.6 L197.1,214.3 L198.5,213.7 L200.1,211.1 L201.8,210.9 L203.5,210.0 L205.0,210.1 L208.0,211.4 L213.6,212.8 L216.8,214.6 L218.3,214.8 L220.0,214.7 L223.2,213.1 L225.7,212.3 L228.7,212.1 L228.7,212.4 L227.1,212.4 L228.4,212.4 L229.2,212.8 L231.8,211.9 L232.9,212.1 L231.2,213.3 L230.4,213.1 L231.4,215.8 L231.1,216.2 L231.4,217.9 L231.2,218.5 L230.4,219.4 L226.2,221.0 L224.1,222.3 L222.1,222.8 L221.6,222.5 L221.0,222.6 L219.1,224.2 L220.1,225.6 L221.8,226.2 L223.5,226.2 L223.9,227.3 L224.5,227.4 L225.2,227.4 L226.7,226.5 L229.9,225.7 L234.3,225.4 L234.9,225.6 L235.4,226.4 L236.8,226.8 L236.7,228.0 L238.6,228.1 L240.0,227.4 L240.9,228.1 L242.4,228.1 L243.8,229.3 L244.5,229.4 L245.2,227.7 L245.0,227.1 L245.9,226.7 L245.7,225.9 L246.9,225.2 L246.7,224.7 L247.9,224.9 L248.6,224.6 L249.3,223.6 L250.5,223.0 L250.5,222.0 L251.7,220.9 L252.8,220.4 L254.2,220.3 L257.2,220.6 L265.8,219.5 L267.2,219.0 L267.3,221.9 L268.1,222.5 L267.4,220.8 L267.8,220.3 L268.8,220.0 L269.1,219.5 L267.6,219.7 L267.9,219.4 L270.7,217.2 L274.4,216.1 L276.3,215.1 L279.8,211.8 L282.1,209.0 L283.2,208.4 L283.0,208.6 L283.7,209.4 L285.3,209.7 L293.5,209.7 L294.8,210.1 L295.7,209.8 L296.7,210.0 L297.2,210.4 L295.3,211.0 L289.0,210.4 L288.1,210.9 L286.5,210.8 L285.9,211.4 L285.7,211.1 L284.9,211.4 L285.2,211.8 L285.7,211.9 L285.4,212.1 L283.9,211.9 L283.0,212.6 L281.7,212.0 L279.8,212.0 L279.1,213.0 L279.3,213.6 L278.3,213.3 L278.0,213.6 L278.3,214.0 L278.1,214.4 L277.1,214.8 L277.7,216.0 L277.3,216.3 L278.8,216.9 L279.7,217.1 L280.5,216.8 L278.8,216.3 L279.3,215.6 L281.0,214.8 L281.2,214.1 L284.2,213.1 L283.5,212.8 L283.5,212.6 L284.7,212.6 L284.7,212.4 L285.3,212.7 L288.4,211.9 L288.1,211.4 L288.5,211.2 L289.8,211.1 L289.8,211.4 L288.9,211.7 L288.6,212.6 L289.4,211.6 L290.5,212.4 L290.9,212.1 L291.7,212.3 L292.3,211.9 L293.4,213.1 L294.8,213.1 L295.5,212.8 L296.5,211.6 L297.5,211.1 L300.3,210.2 L301.2,210.4 L300.8,210.6 L300.8,211.1 L301.5,211.9 L303.4,212.6 L302.8,213.3 L302.9,213.9 L303.9,214.8 L304.1,215.9 L306.1,216.0 L306.1,216.3 L305.2,216.5 L306.3,216.5 L310.4,217.6 L311.6,219.0 L312.6,219.5 L311.6,220.0 L313.8,219.6 L314.5,219.7 L313.8,220.5 L315.0,220.5 L316.2,222.0 L317.4,222.7 L318.3,222.7 L318.3,222.5 L317.3,221.5 L321.7,221.0 L325.6,219.7 L325.7,220.1 L325.1,220.3 L325.1,220.5 L329.1,222.2 L327.8,224.3 L326.9,224.7 L328.7,226.0 L330.2,226.5 L330.6,227.6 L332.6,228.0 L332.7,228.4 L332.0,229.1 L329.5,230.4 L329.1,230.9 L329.4,231.3 L331.1,231.7 L332.4,232.9 L332.8,232.8 L335.4,234.1 L336.6,234.3 L337.3,234.8 L342.7,235.4 L343.7,235.2 L344.4,234.6 L345.5,234.9 L345.6,235.5 L345.3,235.8 L343.7,236.5 L345.5,236.8 L345.4,238.4 L346.7,240.5 L346.7,243.0 L347.0,243.7 L349.0,246.0 L350.5,252.0 L351.9,252.9 L349.7,255.2 L350.0,257.3 L348.4,260.2 L345.1,262.0 L341.2,263.4 L341.9,265.8 L341.4,266.9 L340.5,267.4 L341.5,268.2 L343.8,268.6 L345.0,269.4 L349.8,271.4 L351.5,273.3 L352.6,273.7 L353.6,274.6 L355.8,275.1 L359.2,277.2 L358.2,278.5 L357.9,279.4 L358.8,280.1 L357.3,281.8 L355.4,282.8 L355.6,284.2 L357.2,286.9 L357.0,287.5 L357.8,288.1 L361.1,288.9 L361.6,289.5 L361.6,290.2 L360.9,290.8 L361.5,291.5 L360.7,293.6 L361.1,294.2 L363.4,295.2 L362.5,296.1 L362.1,297.0 L361.2,298.3 L361.0,300.5 L360.7,301.2 L359.5,302.4 L357.5,303.7 L357.0,304.3 L357.1,305.1 L358.8,306.3 L359.3,308.2 L361.9,309.7 L362.4,310.3 L362.8,312.2 L361.7,313.6 L361.4,314.3 L361.6,314.9 L362.4,315.4 L368.8,317.1 L370.4,318.3 L370.1,318.8 L370.6,321.9 L372.7,324.2 L372.5,325.3 L372.8,325.5 L371.7,327.2 L371.3,329.6 L370.6,330.2 L370.4,331.7 L367.0,337.0 L365.2,338.4 L365.2,339.1 L364.6,340.1 L363.9,340.7 L363.3,340.8 L361.2,340.6 L359.3,339.8 L358.1,339.6 L358.0,338.6 L358.8,337.3 L358.7,336.9 L356.2,337.4 L355.8,337.2 L356.7,335.8 L356.7,334.9 L355.5,334.0 L354.1,333.7 L353.4,332.7 L352.6,333.3 L350.3,333.5 L349.5,333.4 L348.8,332.8 L347.5,332.6 L346.4,332.7 L345.5,333.2 L344.6,334.6 L346.9,335.1 L346.6,335.3 L346.5,335.7 L347.5,336.2 L349.7,336.8 L349.5,337.7 L348.5,338.3 L344.4,338.3 L342.9,339.5 L337.3,341.1 L334.5,341.1 L333.2,341.9 L332.1,341.9 L331.6,342.5 L331.8,343.3 L330.0,343.9 L320.0,344.6 L318.6,345.1 L319.0,345.7 L318.8,346.2 L317.8,346.8 L317.9,347.4 L316.1,348.5 L314.7,348.4 L313.3,347.4 L311.6,348.3 L311.0,349.3 L310.2,349.5 L308.4,349.0 L307.2,351.1 L305.8,352.1 L300.3,352.3 L299.9,354.4 L298.3,355.5 L297.1,355.4 L293.4,354.1 L290.6,354.5 L288.9,355.8 L286.5,355.6 L282.4,356.0 L281.1,356.7 L280.8,357.7 L278.3,358.7 L277.2,360.0 L276.1,360.7 L276.0,361.3 L275.1,362.2 L275.0,362.8 L275.3,364.0 L274.8,364.2 L274.2,364.2 L273.8,363.8 L273.2,362.2 L272.3,361.5 L272.7,361.1 L272.6,360.8 L270.4,360.3 L270.1,359.1 L269.4,358.8 L266.7,358.7 L267.9,359.5 L268.0,360.0 L267.9,360.5 L266.9,361.3 L267.2,361.7 L269.0,362.4 L270.3,363.4 L270.7,364.4 L270.5,365.8 L270.8,366.3 L272.4,367.1 L272.9,368.4 L278.9,370.6 L280.2,370.7 L280.9,371.1 L280.7,372.5 L282.9,373.4 L282.5,374.7 L281.4,376.2 L280.6,376.1 L280.3,377.9 L278.2,378.7 L277.8,379.3 L279.1,380.8 L281.9,381.9 L282.2,382.3 L281.9,383.2 L282.3,383.3 L282.1,383.7 L283.7,384.6 L284.2,386.2 L285.0,387.2 L286.4,387.6 L286.6,389.4 L287.2,390.5 L290.3,391.9 L291.4,393.6 L292.0,394.0 L294.8,394.4 L295.5,394.3 L295.4,393.9 L295.8,393.8 L297.8,394.2 L300.0,395.4 L300.4,396.4 L302.0,397.4 L305.4,400.4 L306.4,401.7 L307.4,402.1 L309.6,402.2 L310.8,402.6 L313.4,404.6 L313.8,405.2 L313.8,406.3 L314.3,406.8 L316.5,408.0 L317.4,408.2 L318.1,407.2 L318.6,407.1 L321.3,408.0 L321.9,407.9 L322.0,408.6 L322.9,409.8 L324.2,410.5 L326.1,410.8 L328.7,413.9 L329.4,414.4 Z" fill="#faf5ef" stroke="#8B1A2B" stroke-width="1.3" stroke-linejoin="round"/>
    <path d="M343.6,228.2 L343.0,229.2 L342.3,229.4 L343.2,230.4 L339.1,230.7 L337.7,230.3 L335.9,231.3 L333.8,231.6 L330.2,231.4 L329.6,230.9 L333.5,229.6 L333.8,228.6 L332.5,227.1 L332.6,226.2 L335.0,226.4 L334.5,228.1 L335.5,227.4 L337.0,227.4 L336.5,227.9 L337.7,228.1 L337.5,227.7 L337.9,226.8 L337.8,225.8 L337.3,225.2 L336.5,225.4 L335.3,224.0 L334.1,223.6 L333.0,224.0 L333.3,224.7 L332.1,225.6 L330.8,225.9 L330.9,225.4 L331.5,224.7 L331.1,224.2 L329.6,224.6 L328.6,225.3 L327.9,225.2 L329.1,223.3 L329.3,222.4 L329.0,221.8 L327.1,220.5 L328.0,219.7 L329.3,219.7 L330.8,221.7 L331.8,222.3 L336.6,223.8 L343.6,228.2 Z" fill="#faf5ef" stroke="#8B1A2B" stroke-width="1.3" stroke-linejoin="round"/>
    <path d="M154.7,207.1 L154.4,207.7 L152.8,208.9 L152.0,209.1 L150.4,209.2 L149.7,209.0 L149.3,208.6 L149.7,208.3 L149.3,207.9 L150.4,207.3 L153.1,206.9 L154.7,207.1 Z" fill="#faf5ef" stroke="#8B1A2B" stroke-width="1.3" stroke-linejoin="round"/>
    <path d="M237.2,208.8 L239.3,211.1 L234.8,210.7 L234.1,210.9 L234.4,211.1 L232.1,211.1 L231.6,210.8 L231.6,209.7 L230.1,209.6 L229.2,209.9 L228.9,209.5 L228.3,209.6 L228.2,209.1 L229.2,207.7 L230.6,206.9 L232.4,206.7 L235.4,207.5 L237.2,208.8 Z" fill="#faf5ef" stroke="#8B1A2B" stroke-width="1.3" stroke-linejoin="round"/>
    <path d="M325.1,211.9 L326.7,213.4 L327.6,213.6 L326.3,214.6 L326.0,216.0 L324.9,215.8 L325.6,215.7 L325.6,215.1 L324.5,215.4 L323.4,215.3 L323.4,215.1 L324.8,214.7 L325.6,214.1 L323.8,214.1 L322.2,214.6 L324.9,213.6 L324.9,213.3 L323.4,213.3 L322.6,213.8 L321.6,213.3 L318.0,213.6 L315.4,214.8 L314.6,215.7 L312.9,216.1 L312.8,217.0 L313.3,216.8 L313.1,216.5 L315.0,216.4 L315.2,217.6 L314.7,217.8 L312.5,217.5 L311.2,217.0 L312.1,215.8 L311.1,216.3 L311.3,216.5 L309.6,216.8 L307.6,216.1 L307.2,215.8 L307.4,215.3 L305.4,215.6 L305.1,215.3 L305.4,215.0 L306.4,215.1 L306.4,214.8 L304.2,213.8 L305.4,212.4 L306.3,212.2 L308.0,212.6 L309.6,212.1 L308.6,211.8 L308.6,210.9 L307.6,210.5 L305.7,210.6 L306.5,209.7 L309.3,209.1 L309.8,208.6 L308.4,208.2 L308.1,207.9 L308.4,207.4 L306.7,207.7 L306.0,207.3 L305.7,206.5 L305.2,206.5 L309.3,206.1 L310.4,206.6 L310.7,207.3 L311.1,206.7 L310.8,206.2 L312.0,205.4 L313.3,204.9 L312.3,206.2 L313.1,206.5 L312.6,207.1 L313.8,206.9 L314.0,206.5 L313.1,206.2 L313.6,205.7 L315.0,207.1 L314.8,207.7 L315.5,208.3 L318.3,208.4 L318.0,208.2 L318.7,207.1 L318.0,205.9 L318.7,205.7 L318.7,205.5 L317.5,205.9 L315.9,205.9 L315.3,205.3 L314.4,205.1 L313.3,204.0 L309.8,205.8 L309.1,205.7 L309.2,204.6 L310.2,203.7 L310.6,202.9 L308.1,203.1 L308.3,202.5 L309.1,202.1 L314.1,201.2 L316.0,201.5 L316.0,201.7 L314.1,202.6 L313.8,203.1 L314.2,204.2 L315.3,204.9 L316.8,205.2 L321.5,204.7 L323.1,204.9 L324.1,205.6 L324.4,206.5 L323.4,207.4 L321.1,208.5 L320.7,209.0 L321.2,210.2 L321.9,211.1 L325.1,211.9 Z" fill="#faf5ef" stroke="#8B1A2B" stroke-width="1.3" stroke-linejoin="round"/>
    <path d="M135.7,199.1 L139.9,198.8 L140.7,199.1 L141.4,200.0 L140.7,201.0 L139.9,201.3 L138.4,201.0 L137.5,201.2 L136.3,201.0 L134.2,200.3 L135.7,199.1 Z" fill="#faf5ef" stroke="#8B1A2B" stroke-width="1.3" stroke-linejoin="round"/>
    <path d="M133.0,191.9 L132.8,193.1 L134.0,193.8 L135.7,194.1 L143.6,193.8 L142.7,194.2 L138.2,194.1 L136.1,194.8 L133.6,194.8 L132.4,194.4 L131.1,194.8 L130.6,196.1 L130.6,198.7 L130.2,199.3 L130.0,197.8 L130.4,193.9 L130.7,193.1 L133.5,188.7 L135.0,187.6 L136.7,188.2 L134.2,188.4 L135.2,188.5 L135.5,188.9 L135.2,189.4 L133.7,189.9 L133.0,190.5 L132.7,191.2 L133.0,191.9 Z" fill="#faf5ef" stroke="#8B1A2B" stroke-width="1.3" stroke-linejoin="round"/></g>
  <g>    <path class="region-area" d="M51.6,367.7 L52.0,366.2 L52.7,365.2 L52.2,364.8 L52.4,364.2 L53.7,363.8 L53.9,363.5 L53.8,362.6 L53.3,362.3 L54.8,361.3 L57.8,360.4 L57.7,359.7 L58.3,359.1 L61.0,358.9 L61.4,358.4 L63.3,358.0 L62.1,356.6 L62.2,356.2 L64.0,357.1 L64.5,357.7 L67.0,356.7 L69.1,356.4 L70.4,356.8 L70.3,357.3 L70.5,357.4 L72.2,357.0 L73.9,357.7 L76.6,357.2 L76.8,356.9 L76.1,355.8 L76.0,354.7 L75.1,354.3 L75.4,353.1 L77.5,352.5 L78.2,353.2 L79.4,353.4 L80.0,352.8 L79.9,351.2 L80.9,350.9 L81.8,350.0 L84.0,349.6 L86.2,348.7 L87.4,348.9 L88.3,348.3 L89.6,348.4 L91.2,347.0 L92.1,347.6 L94.2,347.7 L96.3,347.4 L97.4,346.8 L97.9,344.7 L100.2,344.6 L104.6,343.5 L105.6,343.6 L106.2,342.9 L107.8,342.5 L108.4,341.9 L109.1,342.0 L109.2,341.5 L108.3,340.8 L110.6,339.7 L111.7,339.8 L111.3,337.2 L112.9,336.4 L114.9,336.8 L114.5,338.4 L115.9,338.8 L117.9,340.0 L118.9,339.9 L119.4,341.1 L119.3,342.2 L121.2,343.9 L122.0,345.1 L123.4,344.9 L124.8,345.4 L124.3,346.6 L125.2,348.3 L125.9,348.9 L124.9,350.5 L124.1,351.0 L123.4,351.0 L121.9,350.3 L120.2,351.3 L120.0,353.2 L120.7,353.6 L119.0,355.6 L120.9,356.0 L121.8,356.6 L122.9,358.1 L123.9,358.8 L124.3,360.3 L121.6,360.5 L121.2,361.1 L121.6,361.5 L120.8,362.2 L119.8,361.8 L117.2,362.8 L116.3,364.2 L117.5,365.1 L117.2,366.1 L116.3,365.7 L114.9,365.7 L114.2,367.0 L111.8,368.1 L114.6,369.6 L115.6,371.0 L118.6,370.6 L121.7,369.3 L126.3,368.4 L127.7,368.4 L132.1,371.5 L132.8,372.7 L132.2,373.9 L133.7,375.7 L135.0,378.0 L135.3,378.4 L137.2,378.4 L135.8,379.8 L133.7,380.4 L133.0,381.1 L133.0,382.1 L135.0,385.1 L134.7,386.0 L136.7,389.0 L135.9,389.7 L137.8,390.1 L138.2,390.5 L137.7,391.2 L137.9,392.4 L136.6,394.7 L137.4,394.9 L137.3,395.3 L133.9,397.6 L132.9,402.1 L130.2,405.6 L128.3,407.2 L127.2,407.5 L123.3,406.7 L117.5,404.7 L114.8,404.8 L111.9,404.3 L110.2,404.7 L108.7,404.5 L106.9,404.6 L105.9,403.8 L102.8,403.0 L101.0,401.4 L101.4,401.1 L101.1,400.5 L98.9,400.3 L98.8,399.9 L96.6,399.9 L94.6,398.6 L94.4,397.4 L95.9,396.5 L96.9,394.6 L97.9,393.9 L98.1,393.0 L97.5,392.6 L94.5,392.0 L94.6,391.7 L93.1,390.5 L92.9,389.9 L95.1,388.4 L94.6,387.7 L93.7,385.2 L91.5,385.7 L89.0,384.4 L86.3,384.2 L84.0,383.3 L83.0,383.7 L81.9,383.4 L73.6,386.2 L72.1,386.2 L69.8,386.9 L60.6,387.1 L60.8,385.2 L63.0,383.0 L62.5,382.4 L65.7,380.8 L65.5,380.3 L66.0,380.4 L65.5,379.6 L65.9,379.1 L66.1,377.4 L62.3,376.9 L60.0,375.8 L58.9,375.9 L58.3,375.0 L56.0,374.1 L54.8,372.2 L54.2,371.6 L53.8,372.1 L52.4,370.1 L52.1,368.7 L51.5,368.2 L51.9,367.7 L51.6,367.7 Z" fill="rgba(139,26,43,0.15)" stroke="rgba(139,26,43,0.4)" stroke-width="0.5"/>
    <path class="region-area" d="M175.7,458.8 L165.8,454.6 L163.1,454.4 L162.6,453.9 L156.6,453.6 L155.3,454.2 L152.6,454.5 L150.7,453.9 L150.2,453.2 L150.8,453.1 L148.7,452.1 L147.7,452.0 L147.4,452.8 L147.7,453.0 L145.8,453.0 L145.2,452.0 L145.9,451.1 L145.7,450.7 L144.5,450.7 L143.7,449.6 L143.2,449.5 L142.7,450.5 L142.2,450.7 L141.9,450.6 L141.7,449.4 L141.0,449.2 L139.5,449.4 L139.9,449.9 L139.3,450.1 L136.7,450.5 L135.8,452.0 L134.5,452.5 L134.1,453.1 L134.3,453.7 L134.1,454.0 L136.5,455.0 L140.5,454.1 L141.9,454.4 L141.7,455.2 L141.4,454.9 L140.9,455.0 L140.9,456.4 L140.2,456.8 L138.8,455.6 L136.6,456.2 L136.2,457.0 L132.7,457.1 L131.0,456.7 L130.4,455.8 L128.4,455.6 L126.4,455.8 L123.1,457.6 L121.5,457.8 L116.8,457.8 L116.3,456.8 L113.5,456.6 L111.6,458.0 L108.6,458.4 L106.0,457.7 L106.9,457.7 L107.7,456.5 L105.1,457.0 L105.3,456.1 L102.6,453.7 L102.4,452.5 L103.4,451.7 L103.0,449.3 L103.5,448.1 L104.2,447.8 L104.1,446.4 L104.8,445.4 L105.1,444.1 L106.4,443.0 L106.3,441.9 L104.7,440.1 L104.6,438.6 L106.1,435.5 L108.7,432.9 L109.3,430.8 L111.0,429.7 L110.6,427.4 L112.0,424.1 L113.3,423.3 L112.9,422.3 L113.2,419.9 L114.7,418.3 L116.3,417.6 L118.5,416.0 L118.9,414.7 L120.6,414.6 L121.4,413.5 L123.3,412.9 L126.5,408.1 L129.5,406.4 L132.9,402.1 L133.9,397.6 L137.3,395.3 L137.4,394.9 L136.6,394.7 L137.9,392.4 L137.7,391.2 L138.2,390.5 L137.8,390.1 L135.9,389.7 L136.7,389.0 L134.7,386.0 L135.0,385.1 L137.1,384.9 L140.4,387.0 L142.2,386.4 L141.6,384.0 L144.3,383.6 L144.9,384.3 L144.9,385.3 L145.9,386.5 L147.5,387.1 L149.1,387.2 L149.8,387.9 L152.1,387.8 L152.1,388.2 L151.6,388.9 L150.7,388.5 L149.9,389.2 L150.0,390.3 L149.3,390.8 L149.2,391.4 L150.5,391.7 L152.1,390.7 L152.4,389.9 L152.9,390.2 L153.9,389.9 L153.9,389.4 L153.4,388.7 L154.3,387.9 L157.3,388.0 L158.7,387.3 L160.6,387.7 L158.7,385.4 L159.6,385.7 L160.0,385.3 L165.3,385.2 L166.4,384.0 L166.3,383.4 L166.6,383.2 L169.6,382.6 L170.6,383.0 L171.2,382.6 L170.9,382.1 L171.3,380.4 L170.3,380.1 L169.8,380.8 L169.3,380.9 L169.2,380.0 L167.3,379.6 L167.5,379.0 L167.2,378.4 L167.8,378.0 L173.0,377.4 L175.6,378.0 L176.7,377.8 L177.7,378.2 L179.4,377.8 L179.3,379.8 L178.7,380.9 L180.2,381.2 L180.6,380.5 L181.5,380.0 L182.2,381.3 L183.5,380.4 L184.7,380.1 L186.0,381.2 L186.1,382.6 L187.8,384.0 L186.2,386.3 L187.1,386.4 L187.4,385.8 L188.9,385.2 L189.1,385.4 L188.8,385.8 L189.5,386.2 L189.7,388.7 L193.0,388.6 L194.4,387.7 L194.1,387.0 L195.1,386.4 L195.7,386.7 L195.6,387.3 L196.6,387.6 L196.3,388.3 L196.8,389.0 L196.0,390.1 L197.1,390.4 L198.2,392.2 L197.0,392.2 L196.4,392.7 L196.4,393.9 L197.5,394.6 L197.3,395.2 L197.7,396.3 L196.6,396.4 L197.8,398.4 L197.3,398.7 L199.9,400.4 L200.7,400.2 L201.5,400.7 L201.1,402.0 L200.3,402.3 L201.4,402.7 L201.3,403.2 L202.0,403.6 L201.9,404.2 L204.8,404.8 L205.2,405.6 L206.9,406.6 L208.5,408.2 L208.8,409.1 L208.0,409.4 L208.4,409.6 L208.1,411.4 L208.5,412.1 L207.8,413.2 L207.5,414.8 L207.9,415.3 L209.0,415.6 L209.8,416.8 L207.8,418.0 L207.6,417.6 L208.0,416.8 L207.5,416.6 L205.4,418.1 L204.6,417.2 L203.5,417.2 L202.6,416.7 L201.8,417.4 L201.7,417.9 L202.3,418.7 L204.0,419.6 L203.2,420.2 L203.7,421.1 L203.2,422.6 L203.5,422.8 L201.7,423.0 L201.0,423.8 L197.5,425.2 L196.7,424.4 L194.3,425.0 L193.5,425.8 L193.6,426.3 L191.3,428.3 L192.1,428.7 L193.9,431.0 L195.9,436.7 L197.0,438.6 L196.7,440.7 L195.1,443.2 L196.0,444.4 L195.8,445.7 L195.1,446.8 L195.7,447.0 L196.7,448.6 L194.9,449.6 L196.2,450.5 L196.6,453.6 L195.2,453.5 L194.7,454.6 L193.9,453.5 L190.3,454.3 L187.1,453.7 L181.7,456.2 L180.5,456.0 L179.6,456.5 L178.1,456.8 L175.7,458.8 Z" fill="rgba(139,26,43,0.15)" stroke="rgba(139,26,43,0.4)" stroke-width="0.5"/>
    <path class="region-area" d="M266.7,358.7 L267.9,359.5 L268.0,360.0 L267.9,360.5 L266.9,361.3 L270.3,363.4 L270.7,364.4 L270.5,365.8 L270.8,366.3 L272.4,367.1 L272.9,368.4 L278.9,370.6 L280.2,370.7 L280.9,371.1 L280.7,372.5 L282.9,373.4 L282.5,374.7 L281.4,376.2 L280.6,376.1 L280.3,377.9 L278.2,378.7 L277.8,379.3 L279.1,380.8 L281.9,381.9 L282.2,382.3 L281.9,383.2 L282.3,383.3 L282.1,383.7 L283.7,384.6 L285.0,387.2 L286.4,387.6 L286.6,389.4 L287.2,390.5 L290.3,391.9 L292.0,394.0 L294.8,394.4 L295.5,394.3 L295.4,393.9 L295.8,393.8 L297.8,394.2 L300.0,395.4 L300.4,396.4 L305.4,400.4 L306.4,401.7 L310.8,402.6 L313.4,404.6 L313.8,405.2 L313.8,406.3 L314.3,406.8 L316.5,408.0 L317.4,408.2 L318.1,407.2 L318.6,407.1 L321.9,407.9 L322.0,408.6 L322.9,409.8 L324.2,410.5 L326.1,410.8 L329.4,414.4 L328.2,416.3 L329.4,417.0 L328.8,417.7 L328.9,420.0 L327.9,421.5 L326.4,421.8 L325.8,423.2 L324.2,422.7 L322.5,421.6 L318.7,421.0 L316.4,421.4 L315.8,421.8 L316.5,423.4 L315.8,424.8 L315.7,426.5 L314.6,428.4 L309.9,430.9 L304.9,431.5 L301.2,432.5 L297.6,434.5 L295.1,434.9 L293.6,436.2 L290.6,437.9 L290.7,438.9 L291.4,439.7 L293.9,441.4 L295.0,443.3 L297.5,444.7 L299.7,447.5 L297.4,450.0 L297.0,451.0 L296.1,452.0 L296.7,452.4 L298.7,452.6 L300.7,452.3 L302.3,453.7 L302.7,454.7 L302.6,455.6 L301.4,457.0 L301.5,457.8 L301.0,458.5 L301.3,460.3 L300.1,461.2 L298.9,460.9 L297.9,461.1 L295.8,460.1 L293.8,458.7 L292.0,458.0 L291.9,457.1 L292.3,456.3 L293.3,456.0 L291.1,454.6 L291.4,454.0 L287.5,453.7 L285.5,454.1 L283.4,455.3 L281.9,455.4 L280.0,454.4 L279.3,453.1 L276.7,453.5 L274.6,453.2 L272.6,453.6 L272.0,452.9 L272.7,451.6 L270.4,452.6 L271.4,453.8 L271.4,454.8 L271.3,455.3 L270.2,456.2 L261.7,456.0 L258.7,456.4 L257.5,457.3 L250.3,456.8 L249.2,457.5 L248.5,459.0 L247.8,459.5 L245.4,459.9 L242.9,459.8 L241.2,461.1 L242.0,461.4 L241.8,462.0 L239.0,462.3 L236.5,463.8 L235.7,463.8 L235.7,462.8 L235.0,462.6 L231.0,464.0 L227.3,463.9 L226.4,463.3 L226.6,462.4 L224.8,461.1 L222.9,460.5 L222.7,460.2 L224.1,459.5 L222.9,458.9 L219.4,459.5 L218.6,459.0 L213.0,457.8 L211.3,458.9 L209.4,458.8 L208.3,458.3 L208.5,457.1 L207.5,457.2 L206.9,457.4 L207.5,458.5 L207.1,460.3 L208.1,461.0 L208.3,462.2 L207.4,463.7 L205.4,464.8 L204.4,466.1 L203.0,467.1 L200.6,468.0 L197.8,468.2 L198.1,467.5 L198.9,467.3 L199.5,464.6 L198.9,464.3 L195.0,465.1 L193.9,463.4 L194.7,463.0 L194.9,462.6 L194.6,462.2 L192.8,460.4 L191.8,460.8 L191.4,460.7 L191.0,459.8 L190.2,459.1 L190.1,458.5 L189.1,458.8 L186.9,458.5 L186.0,458.8 L185.3,458.5 L185.1,457.3 L184.2,456.8 L183.1,457.0 L181.3,458.9 L180.4,459.2 L178.1,459.2 L175.9,458.8 L178.1,456.8 L179.6,456.5 L180.5,456.0 L181.7,456.2 L187.1,453.7 L190.3,454.3 L193.9,453.5 L194.7,454.6 L195.2,453.5 L196.6,453.6 L196.2,450.5 L194.9,449.6 L196.7,448.6 L195.7,447.0 L195.1,446.8 L195.8,445.7 L196.0,444.4 L195.1,443.2 L196.7,440.7 L197.0,438.6 L195.9,436.7 L193.9,431.0 L192.1,428.7 L191.3,428.3 L193.6,426.3 L193.5,425.8 L194.3,425.0 L196.7,424.4 L197.5,425.2 L201.0,423.8 L201.7,423.0 L203.5,422.8 L203.2,422.6 L203.7,421.1 L203.2,420.2 L204.0,419.6 L202.3,418.7 L201.7,417.9 L201.8,417.4 L202.6,416.7 L203.5,417.2 L204.6,417.2 L205.4,418.1 L207.5,416.6 L208.0,416.8 L207.6,417.6 L207.8,418.0 L209.8,416.8 L209.0,415.6 L207.9,415.3 L207.5,414.8 L207.8,413.2 L208.5,412.1 L208.1,411.4 L208.4,409.6 L208.0,409.4 L208.8,408.8 L207.8,407.4 L205.4,405.8 L204.9,404.9 L201.9,404.2 L202.0,403.6 L201.3,403.2 L201.4,402.7 L200.3,402.3 L201.1,402.0 L201.5,400.7 L200.7,400.2 L199.9,400.4 L197.3,398.7 L197.8,398.4 L196.6,396.4 L197.7,396.3 L197.3,395.2 L197.5,394.6 L196.4,393.9 L196.4,392.7 L197.0,392.2 L198.2,392.2 L197.1,390.4 L196.0,390.1 L196.8,389.0 L196.3,388.3 L196.6,387.6 L195.6,387.3 L195.7,386.7 L195.1,386.4 L194.1,387.0 L194.4,387.7 L193.0,388.6 L189.7,388.7 L189.5,386.2 L188.8,385.8 L189.1,385.4 L188.9,385.2 L187.4,385.8 L187.1,386.4 L186.2,386.3 L187.8,384.0 L186.1,382.6 L186.0,381.2 L184.6,380.0 L182.2,381.3 L181.4,380.0 L180.6,380.5 L180.4,381.1 L179.5,381.2 L178.7,380.8 L179.3,379.8 L179.4,377.8 L177.7,378.2 L176.7,377.8 L175.6,378.0 L173.0,377.4 L168.2,377.8 L167.2,378.4 L167.5,379.0 L167.3,379.6 L169.2,380.0 L169.3,380.9 L169.8,380.8 L170.3,380.1 L171.3,380.4 L170.9,382.1 L171.2,382.6 L170.6,383.0 L169.6,382.6 L166.6,383.2 L166.3,383.4 L166.4,384.0 L165.3,385.2 L160.0,385.3 L158.6,384.0 L160.0,383.0 L159.6,381.3 L160.9,380.9 L160.8,380.2 L161.4,379.2 L160.3,378.6 L161.1,377.7 L159.6,377.2 L159.3,375.6 L158.5,376.1 L157.0,373.3 L157.0,370.5 L157.9,370.7 L156.9,368.4 L155.2,368.1 L156.2,367.6 L156.4,366.4 L160.0,365.5 L161.6,366.0 L161.4,366.5 L162.8,365.7 L163.0,365.1 L164.5,364.8 L167.8,365.0 L169.6,365.6 L170.6,366.7 L172.1,366.7 L174.2,366.1 L174.6,365.8 L174.4,364.9 L175.0,364.0 L173.9,363.6 L174.3,361.5 L177.5,361.9 L179.8,361.6 L179.7,360.8 L180.2,360.1 L182.9,359.0 L182.7,357.5 L184.0,355.1 L184.9,354.9 L185.8,355.6 L186.9,355.6 L191.3,354.3 L192.5,353.4 L194.0,351.4 L196.5,349.7 L196.7,350.3 L199.1,350.3 L199.9,350.7 L200.3,351.5 L203.8,352.4 L204.3,353.5 L206.4,354.8 L206.1,355.3 L206.4,355.7 L208.2,355.6 L210.0,357.3 L211.9,357.1 L213.3,358.3 L213.6,359.5 L213.4,360.2 L213.9,361.7 L217.9,362.5 L218.6,361.1 L222.4,361.1 L222.3,360.3 L221.3,360.0 L220.8,359.5 L219.7,359.5 L217.7,358.4 L218.0,357.1 L219.3,357.1 L220.4,356.1 L223.5,355.8 L224.2,356.2 L226.0,356.1 L227.6,357.4 L227.9,356.9 L229.8,357.5 L232.1,356.9 L233.6,358.2 L232.9,358.9 L233.2,359.2 L234.9,360.2 L235.5,359.7 L237.2,360.1 L237.6,359.0 L237.3,358.4 L237.7,357.3 L238.1,357.1 L237.3,355.5 L237.5,354.6 L237.0,353.0 L239.4,352.3 L240.5,351.3 L243.4,351.5 L243.8,352.1 L243.1,352.5 L243.2,354.1 L244.3,354.6 L245.2,354.6 L245.5,355.7 L246.9,356.4 L248.0,356.2 L248.5,355.8 L250.4,356.1 L256.3,355.1 L257.6,355.6 L257.8,355.9 L261.5,355.0 L263.3,356.1 L263.6,357.4 L267.6,358.7 L266.7,358.7 Z" fill="rgba(139,26,43,0.15)" stroke="rgba(139,26,43,0.4)" stroke-width="0.5"/>
    <path class="region-area" d="M189.5,320.6 L189.3,321.2 L190.1,323.1 L191.4,323.7 L193.8,324.0 L193.7,324.7 L194.5,325.2 L194.8,325.9 L198.2,326.6 L200.4,327.5 L199.5,328.6 L199.2,329.8 L198.3,328.8 L196.5,329.1 L197.1,329.6 L198.1,329.8 L197.1,331.9 L199.0,332.4 L199.4,332.9 L199.5,333.2 L198.9,334.1 L196.8,334.2 L196.4,333.7 L193.8,333.7 L192.9,334.2 L192.8,334.6 L193.6,335.4 L193.5,336.1 L190.7,336.0 L190.3,336.3 L190.4,336.7 L190.9,336.6 L191.1,337.4 L192.3,336.9 L194.0,338.2 L192.9,339.1 L192.8,340.0 L190.2,340.7 L190.1,342.0 L189.3,342.2 L189.1,342.5 L189.7,343.0 L189.6,343.6 L188.9,345.1 L187.7,346.0 L187.6,346.8 L187.8,347.2 L190.1,347.4 L190.6,347.0 L190.1,346.5 L190.2,346.1 L192.2,345.6 L194.2,346.0 L194.7,347.6 L193.7,348.2 L194.0,350.0 L193.6,351.2 L194.0,351.4 L192.0,353.9 L189.1,355.1 L186.5,355.7 L184.9,354.9 L184.0,355.1 L182.7,357.5 L182.9,359.0 L180.2,360.1 L179.7,360.8 L179.8,361.6 L177.5,361.9 L174.3,361.5 L173.9,363.6 L175.0,364.0 L174.4,364.9 L174.6,365.8 L174.2,366.1 L172.1,366.7 L170.6,366.7 L169.6,365.6 L167.8,365.0 L164.5,364.8 L163.0,365.1 L162.8,365.7 L161.4,366.5 L161.6,366.0 L160.0,365.5 L156.4,366.4 L156.2,367.6 L155.2,368.1 L156.9,368.4 L157.9,370.7 L157.0,370.5 L157.0,373.3 L158.5,376.1 L159.3,375.6 L159.6,377.2 L161.1,377.7 L160.3,378.6 L161.4,379.2 L160.8,380.2 L160.9,380.9 L159.6,381.3 L160.0,383.0 L158.6,384.0 L160.0,385.3 L159.7,385.7 L158.9,385.3 L158.7,385.6 L160.6,387.7 L158.7,387.3 L157.3,388.0 L154.3,387.9 L153.4,388.7 L153.9,389.4 L153.9,389.9 L152.9,390.2 L152.4,389.9 L152.1,390.7 L150.7,391.7 L149.3,391.5 L149.3,390.8 L150.0,390.3 L149.9,389.1 L150.7,388.5 L151.6,388.9 L152.1,388.2 L152.1,387.8 L149.8,387.9 L149.1,387.2 L147.5,387.1 L145.9,386.5 L144.9,385.3 L144.9,384.3 L144.3,383.6 L141.6,384.0 L142.2,386.4 L140.4,387.0 L137.1,384.9 L135.0,385.1 L133.0,382.1 L133.0,381.1 L133.7,380.4 L135.8,379.8 L137.2,378.4 L135.3,378.4 L133.7,375.7 L132.2,373.9 L132.8,372.7 L132.1,371.5 L128.2,368.6 L126.3,368.4 L121.7,369.3 L118.6,370.6 L115.6,371.0 L114.6,369.6 L111.8,368.1 L114.2,367.0 L114.9,365.7 L116.3,365.7 L117.2,366.1 L117.5,365.1 L116.3,364.2 L117.2,362.8 L119.8,361.8 L120.8,362.2 L121.6,361.5 L121.2,361.2 L121.5,360.6 L123.5,360.6 L124.4,360.2 L123.9,358.8 L122.9,358.1 L121.8,356.6 L120.9,356.0 L119.0,355.6 L120.7,353.6 L120.0,353.2 L120.2,351.3 L121.9,350.3 L123.4,351.0 L124.1,351.0 L124.9,350.5 L125.9,348.9 L125.2,348.3 L124.3,346.6 L125.2,344.9 L126.0,344.5 L126.3,343.2 L125.1,342.5 L124.8,341.9 L130.2,338.3 L130.9,338.3 L131.5,339.0 L133.1,339.0 L134.2,338.5 L134.3,338.0 L135.4,337.3 L136.7,337.1 L136.9,336.0 L137.7,335.0 L138.3,334.7 L139.6,333.3 L139.3,331.7 L138.7,330.9 L138.9,330.6 L143.8,330.8 L145.4,330.2 L145.0,329.3 L147.1,327.6 L146.3,325.0 L145.9,324.8 L146.0,324.3 L143.0,324.9 L142.2,325.4 L141.7,325.2 L140.7,324.3 L141.4,323.3 L144.5,321.0 L149.1,320.3 L150.8,320.5 L152.2,320.0 L153.7,319.9 L154.2,319.2 L153.0,318.8 L152.4,316.9 L156.6,315.7 L158.8,316.4 L159.1,317.5 L159.9,318.1 L161.5,318.2 L163.6,317.5 L164.1,316.5 L166.7,315.4 L168.1,314.1 L168.8,312.7 L168.0,312.2 L171.0,311.4 L171.8,310.6 L172.1,310.8 L172.8,310.4 L173.5,310.5 L173.7,311.2 L174.3,311.4 L175.8,311.0 L177.1,311.5 L178.4,311.3 L180.7,313.4 L180.2,313.9 L179.0,313.4 L179.2,314.2 L178.3,314.1 L178.1,315.1 L177.4,315.3 L178.2,316.6 L179.0,317.1 L178.7,317.5 L178.9,319.5 L176.8,319.7 L176.3,320.3 L176.6,321.0 L175.3,320.8 L175.5,321.1 L176.5,321.7 L180.6,322.7 L182.0,323.5 L183.7,322.7 L184.3,321.8 L183.0,322.1 L181.7,320.9 L184.5,319.9 L184.9,319.7 L184.7,319.3 L186.0,319.7 L187.0,320.6 L187.5,320.3 L187.1,319.3 L188.5,318.9 L188.6,319.5 L190.2,320.3 L189.5,320.6 Z" fill="rgba(139,26,43,0.15)" stroke="rgba(139,26,43,0.4)" stroke-width="0.5"/>
    <path class="region-area" d="M349.9,333.5 L348.8,332.8 L346.4,332.7 L345.5,333.2 L344.6,334.6 L346.9,335.1 L346.5,335.7 L347.5,336.2 L349.7,336.8 L349.5,337.7 L348.5,338.3 L344.4,338.3 L342.9,339.5 L337.3,341.1 L334.5,341.1 L333.2,341.9 L332.1,341.9 L331.6,342.5 L331.8,343.3 L330.0,343.9 L320.0,344.6 L318.6,345.1 L319.0,345.7 L318.8,346.2 L317.8,346.8 L317.9,347.4 L316.1,348.5 L314.7,348.4 L313.3,347.4 L311.6,348.3 L311.0,349.3 L310.2,349.5 L308.4,349.0 L307.2,351.1 L305.8,352.1 L300.3,352.3 L299.9,354.4 L298.3,355.5 L297.1,355.4 L293.4,354.1 L290.6,354.5 L288.9,355.8 L286.5,355.6 L282.4,356.0 L281.1,356.7 L280.8,357.7 L278.3,358.7 L276.1,360.7 L276.0,361.3 L275.1,362.2 L275.3,364.0 L274.8,364.2 L273.8,363.8 L273.2,362.2 L272.3,361.5 L272.6,360.8 L270.4,360.3 L270.1,359.1 L265.6,358.2 L263.6,357.4 L263.3,356.1 L261.9,355.1 L260.6,355.1 L260.3,354.8 L261.6,354.1 L262.1,353.4 L262.0,352.9 L261.3,352.4 L261.6,351.8 L263.6,350.3 L265.7,350.9 L266.9,349.8 L269.2,349.7 L269.8,349.0 L269.7,348.3 L270.7,347.5 L273.1,347.5 L274.9,346.5 L275.6,345.7 L274.0,345.5 L273.6,344.8 L273.7,344.1 L272.7,344.0 L273.0,343.3 L274.4,342.5 L273.2,341.8 L273.3,341.5 L275.9,341.0 L277.3,340.3 L279.3,340.3 L282.3,338.3 L286.0,338.7 L287.3,337.9 L285.7,335.7 L283.2,334.7 L281.7,333.0 L281.4,331.9 L275.8,330.8 L272.0,330.8 L271.6,330.0 L270.5,329.1 L270.6,328.1 L269.5,327.9 L270.0,326.9 L269.9,325.8 L269.1,324.9 L268.8,323.5 L269.3,322.7 L270.5,322.3 L270.7,321.6 L270.1,320.5 L269.6,317.9 L270.9,317.1 L271.0,315.0 L272.1,314.4 L272.5,313.8 L274.7,314.2 L276.8,313.6 L279.5,313.4 L280.0,312.3 L280.3,312.3 L283.6,312.5 L287.8,312.3 L289.8,311.0 L292.1,311.4 L295.0,309.9 L296.1,309.9 L296.9,310.6 L299.2,311.4 L300.5,311.1 L304.1,312.9 L304.9,312.9 L306.1,313.5 L306.0,314.4 L307.1,315.0 L307.6,316.1 L306.8,316.9 L307.2,317.5 L307.0,318.8 L306.3,319.4 L306.6,320.1 L307.9,319.5 L309.1,320.1 L314.8,318.8 L316.5,319.3 L319.2,320.9 L327.6,321.5 L334.9,321.1 L337.6,318.6 L338.4,316.9 L339.8,315.8 L341.7,315.0 L344.0,314.7 L345.7,314.8 L348.2,315.6 L354.3,314.0 L357.4,313.8 L359.9,314.5 L361.4,314.5 L362.4,315.4 L368.8,317.1 L370.0,317.8 L370.4,318.3 L370.1,318.8 L370.6,321.9 L372.7,324.2 L372.5,325.3 L372.8,325.5 L371.7,327.2 L371.3,329.6 L370.6,330.2 L370.4,331.7 L367.0,337.0 L365.2,338.4 L365.2,339.1 L364.3,340.5 L363.3,340.8 L361.2,340.6 L358.1,339.6 L358.0,338.6 L358.8,337.3 L358.7,336.9 L356.2,337.4 L355.8,337.2 L356.7,335.8 L356.7,334.9 L355.5,334.0 L354.1,333.7 L353.4,332.7 L352.6,333.3 L349.9,333.5 Z" fill="rgba(139,26,43,0.15)" stroke="rgba(139,26,43,0.4)" stroke-width="0.5"/>
    <path class="region-area" d="M190.1,323.1 L189.3,321.2 L189.5,320.6 L193.5,318.4 L194.5,318.9 L195.0,318.5 L197.4,318.5 L197.3,318.1 L198.2,317.8 L198.8,316.8 L200.4,317.1 L202.5,316.3 L202.9,315.7 L205.1,314.5 L205.7,313.4 L205.5,312.9 L207.5,312.7 L210.5,314.0 L212.1,314.0 L214.3,313.4 L215.2,313.8 L215.5,313.2 L214.7,312.4 L215.4,311.7 L217.1,311.1 L220.9,311.2 L226.0,312.6 L226.3,313.2 L225.1,313.3 L224.8,313.6 L226.1,315.2 L226.0,316.0 L227.0,317.2 L226.7,318.6 L227.0,318.9 L228.0,319.3 L238.4,320.0 L241.2,321.1 L244.3,324.2 L243.2,325.2 L240.5,325.8 L240.0,326.2 L242.0,327.2 L243.1,328.3 L243.4,329.4 L243.0,329.6 L243.6,330.6 L246.2,330.8 L247.3,330.4 L252.0,330.4 L253.0,330.8 L253.1,331.7 L254.6,333.5 L259.0,333.2 L261.5,334.1 L263.9,335.8 L266.4,335.6 L268.5,336.0 L269.5,335.7 L271.2,336.6 L271.9,336.3 L271.8,335.6 L273.9,333.6 L273.7,333.2 L272.8,332.7 L273.5,331.0 L275.8,330.8 L281.4,331.9 L281.7,333.0 L283.2,334.7 L285.7,335.7 L287.3,337.9 L286.0,338.7 L282.3,338.3 L279.3,340.3 L277.3,340.3 L275.9,341.0 L273.3,341.5 L273.2,341.8 L274.4,342.5 L273.0,343.3 L272.7,344.0 L273.7,344.1 L273.6,344.8 L274.0,345.5 L275.6,345.7 L274.9,346.5 L273.1,347.5 L270.7,347.5 L269.7,348.3 L269.8,349.0 L269.2,349.7 L266.9,349.8 L265.7,350.9 L263.6,350.3 L261.4,352.1 L261.4,352.5 L262.1,353.0 L261.6,354.1 L260.4,354.5 L260.6,355.1 L259.4,355.5 L257.7,355.9 L257.6,355.6 L256.3,355.1 L250.4,356.1 L248.5,355.8 L248.0,356.2 L246.9,356.4 L245.5,355.7 L245.2,354.6 L244.3,354.6 L243.2,354.1 L243.1,352.5 L243.8,352.1 L243.4,351.5 L240.5,351.3 L239.4,352.3 L237.0,353.0 L237.5,354.6 L237.3,355.5 L238.1,357.1 L237.7,357.3 L237.3,358.4 L237.6,359.0 L237.2,360.1 L235.5,359.7 L234.9,360.2 L233.2,359.2 L232.9,358.9 L233.6,358.2 L232.1,356.9 L229.8,357.5 L227.9,356.9 L227.6,357.4 L226.0,356.1 L224.2,356.2 L223.5,355.8 L220.4,356.1 L219.3,357.1 L218.0,357.1 L217.7,358.4 L219.7,359.5 L220.8,359.5 L221.3,360.0 L222.3,360.3 L222.4,361.1 L218.6,361.1 L217.9,362.5 L215.8,361.9 L214.2,361.9 L213.4,360.4 L213.6,359.5 L213.3,358.3 L211.9,357.1 L209.9,357.2 L208.2,355.6 L206.3,355.6 L206.4,354.8 L204.3,353.5 L203.8,352.4 L200.3,351.5 L199.9,350.7 L199.1,350.3 L196.7,350.3 L196.5,349.7 L193.7,351.4 L194.0,350.0 L193.7,348.2 L194.7,347.6 L194.7,346.8 L194.0,346.0 L191.9,345.7 L190.2,346.1 L190.1,346.5 L190.6,347.0 L190.1,347.4 L187.7,347.1 L187.7,346.0 L188.9,345.1 L189.6,343.6 L189.7,343.0 L189.1,342.5 L189.3,342.2 L190.1,342.0 L190.2,340.7 L192.8,340.0 L192.9,339.1 L194.0,338.2 L192.3,336.9 L191.1,337.4 L190.9,336.6 L190.3,336.6 L190.3,336.2 L193.5,336.1 L193.6,335.4 L192.8,334.6 L192.9,334.2 L193.8,333.7 L196.4,333.7 L196.8,334.2 L198.9,334.1 L199.5,333.2 L199.4,332.9 L199.0,332.4 L197.1,331.9 L198.1,329.8 L197.1,329.6 L196.5,329.1 L198.3,328.8 L199.2,329.8 L199.5,328.6 L200.4,327.5 L198.2,326.6 L194.8,325.9 L194.5,325.2 L193.7,324.7 L193.8,324.0 L191.4,323.7 L190.1,323.1 Z" fill="rgba(139,26,43,0.15)" stroke="rgba(139,26,43,0.4)" stroke-width="0.5"/></g>
  <g>    <circle cx="100.0" cy="373.4" r="9" fill="#8B1A2B" stroke="#fff" stroke-width="0.8"/>
    <text x="100.0" y="376.9" text-anchor="middle" font-family="Inter, sans-serif" font-size="9" font-weight="700" fill="#fff">1</text>
    <circle cx="157.9" cy="422.5" r="9" fill="#8B1A2B" stroke="#fff" stroke-width="0.8"/>
    <text x="157.9" y="426.0" text-anchor="middle" font-family="Inter, sans-serif" font-size="9" font-weight="700" fill="#fff">2</text>
    <circle cx="242.8" cy="408.1" r="9" fill="#8B1A2B" stroke="#fff" stroke-width="0.8"/>
    <text x="242.8" y="411.6" text-anchor="middle" font-family="Inter, sans-serif" font-size="9" font-weight="700" fill="#fff">3</text>
    <circle cx="157.3" cy="348.4" r="9" fill="#8B1A2B" stroke="#fff" stroke-width="0.8"/>
    <text x="157.3" y="351.9" text-anchor="middle" font-family="Inter, sans-serif" font-size="9" font-weight="700" fill="#fff">4</text>
    <circle cx="312.4" cy="332.4" r="9" fill="#8B1A2B" stroke="#fff" stroke-width="0.8"/>
    <text x="312.4" y="335.9" text-anchor="middle" font-family="Inter, sans-serif" font-size="9" font-weight="700" fill="#fff">5</text>
    <circle cx="228.9" cy="337.7" r="9" fill="#8B1A2B" stroke="#fff" stroke-width="0.8"/>
    <text x="228.9" y="341.2" text-anchor="middle" font-family="Inter, sans-serif" font-size="9" font-weight="700" fill="#fff">6</text></g>
  <line x1="28" y1="490" x2="392" y2="490" stroke="#8B1A2B" stroke-width="0.3" opacity="0.25"/>
  <text x="32" y="498" font-family="Inter, sans-serif" font-size="8.5" fill="#2D1B14"><tspan font-weight="700">1. Rheinland-Pfalz</tspan> : Riesling (Mosel, Rheinhessen, Pfalz, Nahe, Ahr)</text>
  <text x="32" y="513" font-family="Inter, sans-serif" font-size="8.5" fill="#2D1B14"><tspan font-weight="700">2. Baden-Wurttemberg</tspan> : Spatburgunder, Grauburgunder, Lemberger</text>
  <text x="32" y="528" font-family="Inter, sans-serif" font-size="8.5" fill="#2D1B14"><tspan font-weight="700">3. Bayern (Franken)</tspan> : Silvaner, Muller-Thurgau</text>
  <text x="32" y="543" font-family="Inter, sans-serif" font-size="8.5" fill="#2D1B14"><tspan font-weight="700">4. Hessen</tspan> : Riesling (Rheingau)</text>
  <text x="32" y="558" font-family="Inter, sans-serif" font-size="8.5" fill="#2D1B14"><tspan font-weight="700">5. Sachsen</tspan> : Muller-Thurgau, Riesling</text>
  <text x="32" y="573" font-family="Inter, sans-serif" font-size="8.5" fill="#2D1B14"><tspan font-weight="700">6. Thuringen</tspan> : Muller-Thurgau</text>
  <text x="210" y="630" text-anchor="middle" font-family="Inter, sans-serif" font-size="7" fill="#b0a89e">Cellar -- Sommelier Companion</text>
</svg>