<svg xmlns="http://www.w3.org/2000/svg" viewBox="0 0 420 560">
  <defs><filter id="shadow"><feDropShadow dx="1" dy="1.5" stdDeviation="2" flood-color="#2D1B14" flood-opacity="0.08"/></filter></defs>
  <text x="210" y="24" text-anchor="middle" font-family="Cormorant Garamond, Georgia, serif" font-size="16" font-weight="400" fill="#2D1B14" letter-spacing="5">TYSKLAND</text>
  <text x="210" y="42" text-anchor="middle" font-family="Inter, sans-serif" font-size="8" fill="#8a7a6a" letter-spacing="1" class="region-label">Placera regionerna och namnge de viktigaste druvorna</text>
  <g filter="url(#shadow)">    <path d="M329.4,394.4 L328.2,396.3 L329.4,397.0 L328.9,397.3 L328.8,397.7 L328.9,400.0 L327.9,401.5 L326.4,401.8 L325.8,403.2 L324.2,402.7 L323.7,402.2 L322.5,401.6 L318.7,401.0 L316.4,401.4 L315.8,401.8 L316.5,403.4 L315.8,404.8 L315.7,406.5 L314.6,408.4 L309.9,410.9 L304.9,411.5 L301.2,412.5 L297.6,414.5 L295.1,414.9 L293.6,416.2 L290.6,417.9 L290.7,418.9 L291.4,419.7 L293.9,421.4 L295.0,423.3 L297.5,424.7 L298.7,426.6 L299.7,427.5 L297.4,430.0 L297.0,431.0 L296.1,432.0 L296.7,432.4 L298.7,432.6 L300.7,432.3 L301.6,432.9 L302.6,434.3 L302.6,435.6 L302.1,436.5 L301.4,437.0 L301.5,437.8 L301.0,438.5 L301.3,440.3 L300.1,441.2 L298.9,440.9 L297.5,441.0 L293.8,438.7 L292.0,438.0 L291.9,437.1 L292.3,436.3 L293.3,436.0 L291.1,434.6 L291.4,434.0 L287.5,433.7 L285.5,434.1 L283.4,435.3 L281.9,435.4 L280.0,434.4 L279.3,433.1 L276.7,433.5 L274.6,433.2 L272.6,433.6 L272.0,432.9 L272.7,431.6 L270.4,432.6 L271.4,433.8 L271.4,434.8 L271.3,435.3 L270.2,436.2 L261.7,436.0 L258.7,436.4 L257.5,437.3 L250.3,436.8 L249.2,437.5 L248.5,439.0 L247.8,439.5 L245.4,439.9 L242.9,439.8 L241.2,441.1 L242.0,441.4 L242.1,441.6 L241.8,442.0 L239.0,442.3 L237.3,443.6 L236.5,443.8 L235.7,443.8 L235.7,442.8 L235.0,442.6 L231.0,444.0 L227.3,443.9 L226.4,443.3 L226.7,442.8 L226.6,442.4 L224.8,441.1 L222.9,440.5 L222.7,440.2 L224.1,439.5 L222.9,438.9 L219.4,439.5 L218.6,439.0 L213.0,437.8 L211.3,438.9 L209.4,438.8 L208.3,438.3 L208.6,437.5 L208.5,437.1 L207.5,437.2 L206.9,437.4 L207.5,438.5 L207.1,440.3 L208.1,441.0 L208.3,442.2 L207.4,443.7 L206.8,444.3 L205.4,444.8 L204.4,446.1 L203.0,447.1 L200.6,448.0 L197.8,448.2 L198.1,447.5 L198.9,447.3 L199.5,444.6 L198.9,444.3 L197.3,444.5 L196.7,444.9 L196.0,444.8 L195.0,445.1 L193.9,443.4 L194.7,443.0 L194.9,442.6 L194.6,442.2 L192.8,440.4 L191.8,440.8 L191.4,440.7 L191.0,439.8 L190.2,439.1 L190.1,438.5 L189.1,438.8 L186.9,438.5 L186.0,438.8 L185.3,438.5 L185.1,437.3 L184.2,436.8 L183.1,437.0 L181.3,438.9 L180.4,439.2 L178.1,439.2 L175.8,438.8 L165.8,434.6 L163.1,434.4 L162.6,433.9 L156.6,433.6 L154.0,434.4 L151.7,434.4 L150.2,433.5 L150.2,433.2 L150.8,433.1 L148.7,432.1 L147.7,432.0 L147.4,432.8 L147.7,433.0 L145.8,433.0 L145.2,432.0 L145.9,431.1 L145.7,430.7 L144.5,430.7 L143.7,429.6 L143.2,429.5 L142.9,429.8 L142.7,430.5 L142.2,430.7 L141.9,430.6 L141.7,429.4 L140.1,429.2 L139.5,429.4 L139.9,429.9 L136.7,430.5 L135.8,432.0 L134.1,432.8 L134.3,433.7 L134.1,434.0 L136.5,435.0 L140.5,434.1 L141.9,434.4 L141.7,435.2 L141.4,434.9 L140.9,435.0 L140.9,436.1 L140.7,436.7 L140.2,436.8 L138.8,435.6 L137.7,435.7 L136.6,436.2 L136.2,437.0 L132.7,437.1 L131.0,436.7 L130.4,435.8 L128.4,435.6 L126.4,435.8 L124.1,436.8 L123.1,437.6 L121.5,437.8 L116.8,437.8 L116.3,436.8 L113.5,436.6 L112.3,437.7 L111.6,438.0 L108.6,438.4 L106.0,437.7 L106.9,437.7 L107.7,436.5 L105.1,437.0 L105.3,436.1 L103.3,434.1 L102.6,433.7 L102.4,432.5 L103.4,431.7 L102.9,429.8 L103.5,428.1 L104.2,427.8 L104.1,426.2 L104.8,425.4 L105.1,424.1 L106.4,423.0 L106.3,421.9 L104.7,420.1 L104.6,418.6 L104.8,417.9 L106.1,415.5 L108.7,412.9 L109.3,410.8 L110.5,410.2 L111.0,409.7 L110.6,407.4 L112.0,404.1 L113.3,403.3 L112.9,402.3 L113.2,399.9 L114.7,398.3 L116.3,397.6 L118.5,396.0 L118.9,394.7 L120.6,394.6 L121.4,393.5 L123.3,392.9 L125.3,389.5 L127.2,387.5 L123.3,386.7 L117.5,384.7 L114.8,384.8 L111.9,384.3 L110.2,384.7 L108.7,384.5 L106.9,384.6 L105.9,383.8 L102.8,383.0 L101.0,381.4 L101.4,381.1 L101.1,380.5 L98.9,380.3 L98.8,379.9 L96.6,380.3 L96.0,381.2 L94.7,381.4 L93.9,382.2 L92.7,381.9 L89.6,381.9 L86.9,380.9 L86.5,381.1 L86.6,381.7 L85.5,382.1 L84.7,381.7 L84.3,380.7 L84.3,379.5 L80.9,378.6 L78.0,378.5 L77.8,379.0 L78.2,380.1 L77.6,380.7 L74.1,380.4 L73.2,379.8 L73.5,378.9 L73.3,378.3 L72.5,378.5 L71.9,377.2 L71.1,376.9 L71.0,376.2 L68.0,374.2 L67.8,373.8 L68.0,373.5 L68.6,373.5 L68.8,373.2 L66.7,371.5 L66.4,370.7 L62.5,369.2 L60.4,369.6 L60.6,365.6 L63.0,363.0 L62.5,362.4 L63.1,361.9 L65.7,360.8 L65.4,360.5 L65.5,360.3 L66.0,360.4 L65.5,359.6 L65.9,359.1 L66.1,357.4 L62.3,356.9 L60.0,355.8 L58.9,355.9 L58.3,355.0 L56.0,354.1 L54.2,351.6 L53.8,352.1 L52.2,349.8 L52.1,348.7 L51.5,348.2 L51.9,347.7 L51.6,347.7 L52.0,346.2 L52.7,345.2 L52.2,344.8 L52.4,344.2 L53.7,343.8 L53.9,343.5 L53.8,342.6 L53.3,342.3 L54.8,341.3 L57.8,340.4 L57.7,339.7 L58.3,339.1 L61.0,338.9 L61.5,338.6 L61.4,338.1 L60.2,336.7 L60.6,334.4 L59.9,333.9 L59.6,333.2 L60.1,332.7 L57.2,332.2 L55.5,332.5 L54.6,331.8 L54.9,331.5 L54.1,331.4 L54.4,330.9 L53.8,330.4 L54.4,329.8 L56.4,328.9 L57.0,328.1 L57.0,327.9 L54.5,327.8 L53.7,327.6 L53.3,327.1 L53.8,326.9 L50.9,324.3 L48.4,324.5 L48.4,323.5 L47.8,323.3 L47.9,322.5 L47.0,321.9 L46.9,321.4 L47.4,321.5 L47.9,321.2 L48.0,320.1 L48.3,319.7 L49.6,319.6 L50.0,319.3 L50.3,318.6 L50.0,317.9 L50.3,317.3 L48.0,316.5 L47.9,315.7 L48.1,314.9 L45.4,314.8 L43.5,315.2 L43.4,314.3 L42.9,313.3 L42.7,312.5 L43.7,312.1 L45.1,312.9 L45.8,312.9 L47.4,311.3 L53.3,308.5 L52.5,308.1 L53.7,307.5 L52.8,307.4 L51.0,308.1 L50.2,307.8 L49.9,307.2 L50.0,306.4 L50.3,305.7 L53.3,302.5 L55.0,301.6 L55.5,300.0 L54.9,299.6 L55.4,297.5 L55.0,295.7 L51.1,292.6 L51.0,292.1 L51.6,290.8 L49.1,290.1 L48.3,289.5 L48.8,288.5 L48.4,288.2 L47.2,287.7 L45.8,287.7 L45.8,287.3 L46.6,286.8 L46.7,286.0 L46.2,285.3 L45.4,285.0 L45.5,284.6 L51.0,283.3 L53.6,283.7 L51.3,282.1 L52.6,281.7 L56.1,282.9 L57.5,282.8 L58.3,283.5 L60.3,283.9 L60.4,284.4 L61.8,284.2 L61.9,283.8 L61.6,283.0 L64.7,283.5 L67.0,282.4 L70.6,281.7 L73.8,281.6 L74.8,281.3 L76.4,279.8 L77.2,279.4 L77.1,278.7 L76.0,278.0 L72.3,276.7 L72.5,275.8 L73.6,275.6 L75.0,274.3 L77.9,273.9 L79.9,272.2 L81.4,271.8 L83.3,270.3 L84.9,269.7 L84.4,268.4 L84.4,267.7 L85.4,266.2 L85.7,264.9 L85.2,263.9 L83.0,261.8 L82.3,262.3 L80.4,262.5 L73.7,261.4 L73.0,260.9 L72.6,259.1 L72.2,258.5 L74.8,257.9 L73.3,257.0 L73.6,256.1 L73.3,255.7 L74.5,255.2 L79.2,254.9 L81.1,255.2 L82.8,255.1 L84.7,255.5 L85.3,254.7 L86.2,248.3 L86.9,247.2 L89.8,244.4 L90.6,243.2 L90.9,242.1 L90.7,238.2 L90.2,237.0 L91.0,235.3 L91.0,233.2 L92.4,232.1 L92.5,231.7 L92.3,231.3 L93.2,230.5 L94.5,230.3 L97.2,231.1 L96.3,230.3 L94.9,230.0 L86.7,229.8 L85.4,229.5 L84.8,228.4 L84.8,225.8 L85.9,223.5 L86.2,223.2 L88.3,223.4 L89.1,222.7 L88.7,221.9 L87.2,221.3 L87.1,220.9 L92.1,218.0 L95.0,217.3 L100.5,217.0 L102.1,217.6 L118.3,216.0 L121.1,216.5 L120.9,217.8 L121.9,219.1 L123.4,220.2 L124.6,220.7 L124.3,221.4 L125.6,221.7 L126.0,222.1 L125.6,223.1 L124.2,223.6 L122.1,223.9 L122.8,225.1 L123.6,225.9 L124.5,225.7 L125.5,225.8 L127.4,227.2 L129.3,227.2 L130.5,226.1 L131.3,224.9 L131.5,223.7 L130.5,222.9 L128.3,223.1 L129.0,220.8 L129.7,219.9 L131.9,219.7 L132.5,219.9 L134.0,221.2 L139.9,222.4 L139.9,222.7 L138.2,223.7 L137.6,224.5 L137.5,227.6 L138.2,229.1 L137.9,224.9 L138.5,224.1 L140.0,223.3 L140.4,222.3 L138.3,219.5 L137.5,218.0 L137.5,216.8 L139.1,214.3 L140.0,212.1 L141.2,210.7 L142.7,210.0 L144.2,209.9 L146.8,211.3 L151.0,212.1 L156.6,211.7 L157.3,211.3 L160.1,210.9 L163.0,210.9 L163.6,210.6 L166.2,211.0 L170.5,215.3 L173.4,217.2 L173.9,218.2 L177.0,220.7 L178.9,221.1 L181.1,222.0 L186.0,222.4 L185.5,222.0 L184.2,221.5 L180.9,221.3 L177.0,220.0 L175.8,219.2 L175.2,216.4 L171.7,215.0 L170.8,214.0 L170.2,212.1 L168.9,211.8 L165.3,210.1 L159.4,209.9 L157.1,209.3 L156.3,209.9 L155.4,209.7 L153.0,208.3 L150.0,204.7 L152.1,204.3 L155.1,205.1 L155.9,204.9 L156.5,203.8 L156.7,202.5 L155.1,201.4 L155.2,200.8 L154.3,200.6 L153.0,200.7 L151.0,201.5 L149.3,199.5 L150.5,197.6 L150.2,196.8 L153.2,196.1 L154.7,194.6 L151.7,195.6 L152.0,195.1 L147.9,195.6 L146.6,195.4 L144.4,196.3 L142.4,195.6 L141.7,194.8 L141.6,193.8 L143.1,193.2 L145.0,193.1 L145.0,192.8 L143.4,192.4 L142.9,192.8 L142.5,192.4 L142.6,192.0 L143.3,191.4 L144.1,191.6 L147.0,191.1 L151.9,191.0 L156.2,189.2 L156.4,187.8 L152.6,185.1 L151.6,184.2 L149.7,184.5 L149.5,184.2 L150.7,183.7 L149.0,181.2 L144.8,179.5 L145.0,178.6 L143.3,176.6 L143.1,175.6 L143.8,173.7 L146.4,174.0 L149.7,173.4 L152.5,173.7 L155.4,174.3 L163.0,175.4 L163.6,175.7 L164.2,177.0 L164.8,177.1 L168.0,177.1 L169.9,176.5 L170.6,176.9 L172.3,176.8 L174.4,176.2 L176.9,174.8 L177.0,176.1 L182.4,176.9 L184.9,177.8 L185.7,178.8 L188.2,178.3 L188.1,177.6 L188.9,177.5 L190.1,177.9 L190.9,178.5 L191.7,180.1 L192.7,180.8 L192.2,181.0 L190.9,180.8 L189.6,181.3 L189.5,181.7 L191.9,181.6 L192.4,182.0 L193.2,181.8 L193.4,182.0 L193.1,182.5 L193.4,183.7 L193.0,185.8 L192.4,186.8 L190.8,187.8 L189.3,188.2 L186.2,188.6 L186.2,188.9 L187.8,189.4 L196.5,188.2 L197.2,188.3 L199.3,189.4 L198.6,189.8 L199.1,191.2 L198.9,191.7 L197.1,192.6 L197.3,192.9 L197.1,193.1 L197.6,193.6 L197.1,194.3 L198.5,193.7 L200.1,191.1 L201.8,190.9 L203.5,190.0 L205.0,190.1 L208.0,191.4 L213.6,192.8 L216.8,194.6 L218.3,194.8 L220.0,194.7 L223.2,193.1 L225.7,192.3 L228.7,192.1 L228.7,192.4 L227.1,192.4 L228.4,192.4 L229.2,192.8 L231.8,191.9 L232.9,192.1 L231.2,193.3 L230.4,193.1 L231.4,195.8 L231.1,196.2 L231.4,197.9 L231.2,198.5 L230.4,199.4 L226.2,201.0 L224.1,202.3 L222.1,202.8 L221.6,202.5 L221.0,202.6 L219.1,204.2 L220.1,205.6 L221.8,206.2 L223.5,206.2 L223.9,207.3 L224.5,207.4 L225.2,207.4 L226.7,206.5 L229.9,205.7 L234.3,205.4 L234.9,205.6 L235.4,206.4 L236.8,206.8 L236.7,208.0 L238.6,208.1 L240.0,207.4 L240.9,208.1 L242.4,208.1 L243.8,209.3 L244.5,209.4 L245.2,207.7 L245.0,207.1 L245.9,206.7 L245.7,205.9 L246.9,205.2 L246.7,204.7 L247.9,204.9 L248.6,204.6 L249.3,203.6 L250.5,203.0 L250.5,202.0 L251.7,200.9 L252.8,200.4 L254.2,200.3 L257.2,200.6 L265.8,199.5 L267.2,199.0 L267.3,201.9 L268.1,202.5 L267.4,200.8 L267.8,200.3 L268.8,200.0 L269.1,199.5 L267.6,199.7 L267.9,199.4 L270.7,197.2 L274.4,196.1 L276.3,195.1 L279.8,191.8 L282.1,189.0 L283.2,188.4 L283.0,188.6 L283.7,189.4 L285.3,189.7 L293.5,189.7 L294.8,190.1 L295.7,189.8 L296.7,190.0 L297.2,190.4 L295.3,191.0 L289.0,190.4 L288.1,190.9 L286.5,190.8 L285.9,191.4 L285.7,191.1 L284.9,191.4 L285.2,191.8 L285.7,191.9 L285.4,192.1 L283.9,191.9 L283.0,192.6 L281.7,192.0 L279.8,192.0 L279.1,193.0 L279.3,193.6 L278.3,193.3 L278.0,193.6 L278.3,194.0 L278.1,194.4 L277.1,194.8 L277.7,196.0 L277.3,196.3 L278.8,196.9 L279.7,197.1 L280.5,196.8 L278.8,196.3 L279.3,195.6 L281.0,194.8 L281.2,194.1 L284.2,193.1 L283.5,192.8 L283.5,192.6 L284.7,192.6 L284.7,192.4 L285.3,192.7 L288.4,191.9 L288.1,191.4 L288.5,191.2 L289.8,191.1 L289.8,191.4 L288.9,191.7 L288.6,192.6 L289.4,191.6 L290.5,192.4 L290.9,192.1 L291.7,192.3 L292.3,191.9 L293.4,193.1 L294.8,193.1 L295.5,192.8 L296.5,191.6 L297.5,191.1 L300.3,190.2 L301.2,190.4 L300.8,190.6 L300.8,191.1 L301.5,191.9 L303.4,192.6 L302.8,193.3 L302.9,193.9 L303.9,194.8 L304.1,195.9 L306.1,196.0 L306.1,196.3 L305.2,196.5 L306.3,196.5 L310.4,197.6 L311.6,199.0 L312.6,199.5 L311.6,200.0 L313.8,199.6 L314.5,199.7 L313.8,200.5 L315.0,200.5 L316.2,202.0 L317.4,202.7 L318.3,202.7 L318.3,202.5 L317.3,201.5 L321.7,201.0 L325.6,199.7 L325.7,200.1 L325.1,200.3 L325.1,200.5 L329.1,202.2 L327.8,204.3 L326.9,204.7 L328.7,206.0 L330.2,206.5 L330.6,207.6 L332.6,208.0 L332.7,208.4 L332.0,209.1 L329.5,210.4 L329.1,210.9 L329.4,211.3 L331.1,211.7 L332.4,212.9 L332.8,212.8 L335.4,214.1 L336.6,214.3 L337.3,214.8 L342.7,215.4 L343.7,215.2 L344.4,214.6 L345.5,214.9 L345.6,215.5 L345.3,215.8 L343.7,216.5 L345.5,216.8 L345.4,218.4 L346.7,220.5 L346.7,223.0 L347.0,223.7 L349.0,226.0 L350.5,232.0 L351.9,232.9 L349.7,235.2 L350.0,237.3 L348.4,240.2 L345.1,242.0 L341.2,243.4 L341.9,245.8 L341.4,246.9 L340.5,247.4 L341.5,248.2 L343.8,248.6 L345.0,249.4 L349.8,251.4 L351.5,253.3 L352.6,253.7 L353.6,254.6 L355.8,255.1 L359.2,257.2 L358.2,258.5 L357.9,259.4 L358.8,260.1 L357.3,261.8 L355.4,262.8 L355.6,264.2 L357.2,266.9 L357.0,267.5 L357.8,268.1 L361.1,268.9 L361.6,269.5 L361.6,270.2 L360.9,270.8 L361.5,271.5 L360.7,273.6 L361.1,274.2 L363.4,275.2 L362.5,276.1 L362.1,277.0 L361.2,278.3 L361.0,280.5 L360.7,281.2 L359.5,282.4 L357.5,283.7 L357.0,284.3 L357.1,285.1 L358.8,286.3 L359.3,288.2 L361.9,289.7 L362.4,290.3 L362.8,292.2 L361.7,293.6 L361.4,294.3 L361.6,294.9 L362.4,295.4 L368.8,297.1 L370.4,298.3 L370.1,298.8 L370.6,301.9 L372.7,304.2 L372.5,305.3 L372.8,305.5 L371.7,307.2 L371.3,309.6 L370.6,310.2 L370.4,311.7 L367.0,317.0 L365.2,318.4 L365.2,319.1 L364.6,320.1 L363.9,320.7 L363.3,320.8 L361.2,320.6 L359.3,319.8 L358.1,319.6 L358.0,318.6 L358.8,317.3 L358.7,316.9 L356.2,317.4 L355.8,317.2 L356.7,315.8 L356.7,314.9 L355.5,314.0 L354.1,313.7 L353.4,312.7 L352.6,313.3 L350.3,313.5 L349.5,313.4 L348.8,312.8 L347.5,312.6 L346.4,312.7 L345.5,313.2 L344.6,314.6 L346.9,315.1 L346.6,315.3 L346.5,315.7 L347.5,316.2 L349.7,316.8 L349.5,317.7 L348.5,318.3 L344.4,318.3 L342.9,319.5 L337.3,321.1 L334.5,321.1 L333.2,321.9 L332.1,321.9 L331.6,322.5 L331.8,323.3 L330.0,323.9 L320.0,324.6 L318.6,325.1 L319.0,325.7 L318.8,326.2 L317.8,326.8 L317.9,327.4 L316.1,328.5 L314.7,328.4 L313.3,327.4 L311.6,328.3 L311.0,329.3 L310.2,329.5 L308.4,329.0 L307.2,331.1 L305.8,332.1 L300.3,332.3 L299.9,334.4 L298.3,335.5 L297.1,335.4 L293.4,334.1 L290.6,334.5 L288.9,335.8 L286.5,335.6 L282.4,336.0 L281.1,336.7 L280.8,337.7 L278.3,338.7 L277.2,340.0 L276.1,340.7 L276.0,341.3 L275.1,342.2 L275.0,342.8 L275.3,344.0 L274.8,344.2 L274.2,344.2 L273.8,343.8 L273.2,342.2 L272.3,341.5 L272.7,341.1 L272.6,340.8 L270.4,340.3 L270.1,339.1 L269.4,338.8 L266.7,338.7 L267.9,339.5 L268.0,340.0 L267.9,340.5 L266.9,341.3 L267.2,341.7 L269.0,342.4 L270.3,343.4 L270.7,344.4 L270.5,345.8 L270.8,346.3 L272.4,347.1 L272.9,348.4 L278.9,350.6 L280.2,350.7 L280.9,351.1 L280.7,352.5 L282.9,353.4 L282.5,354.7 L281.4,356.2 L280.6,356.1 L280.3,357.9 L278.2,358.7 L277.8,359.3 L279.1,360.8 L281.9,361.9 L282.2,362.3 L281.9,363.2 L282.3,363.3 L282.1,363.7 L283.7,364.6 L284.2,366.2 L285.0,367.2 L286.4,367.6 L286.6,369.4 L287.2,370.5 L290.3,371.9 L291.4,373.6 L292.0,374.0 L294.8,374.4 L295.5,374.3 L295.4,373.9 L295.8,373.8 L297.8,374.2 L300.0,375.4 L300.4,376.4 L302.0,377.4 L305.4,380.4 L306.4,381.7 L307.4,382.1 L309.6,382.2 L310.8,382.6 L313.4,384.6 L313.8,385.2 L313.8,386.3 L314.3,386.8 L316.5,388.0 L317.4,388.2 L318.1,387.2 L318.6,387.1 L321.3,388.0 L321.9,387.9 L322.0,388.6 L322.9,389.8 L324.2,390.5 L326.1,390.8 L328.7,393.9 L329.4,394.4 Z" fill="#faf5ef" stroke="#8B1A2B" stroke-width="1.3" stroke-linejoin="round"/>
    <path d="M343.6,208.2 L343.0,209.2 L342.3,209.4 L343.2,210.4 L339.1,210.7 L337.7,210.3 L335.9,211.3 L333.8,211.6 L330.2,211.4 L329.6,210.9 L333.5,209.6 L333.8,208.6 L332.5,207.1 L332.6,206.2 L335.0,206.4 L334.5,208.1 L335.5,207.4 L337.0,207.4 L336.5,207.9 L337.7,208.1 L337.5,207.7 L337.9,206.8 L337.8,205.8 L337.3,205.2 L336.5,205.4 L335.3,204.0 L334.1,203.6 L333.0,204.0 L333.3,204.7 L332.1,205.6 L330.8,205.9 L330.9,205.4 L331.5,204.7 L331.1,204.2 L329.6,204.6 L328.6,205.3 L327.9,205.2 L329.1,203.3 L329.3,202.4 L329.0,201.8 L327.1,200.5 L328.0,199.7 L329.3,199.7 L330.8,201.7 L331.8,202.3 L336.6,203.8 L343.6,208.2 Z" fill="#faf5ef" stroke="#8B1A2B" stroke-width="1.3" stroke-linejoin="round"/>
    <path d="M154.7,187.1 L154.4,187.7 L152.8,188.9 L152.0,189.1 L150.4,189.2 L149.7,189.0 L149.3,188.6 L149.7,188.3 L149.3,187.9 L150.4,187.3 L153.1,186.9 L154.7,187.1 Z" fill="#faf5ef" stroke="#8B1A2B" stroke-width="1.3" stroke-linejoin="round"/>
    <path d="M237.2,188.8 L239.3,191.1 L234.8,190.7 L234.1,190.9 L234.4,191.1 L232.1,191.1 L231.6,190.8 L231.6,189.7 L230.1,189.6 L229.2,189.9 L228.9,189.5 L228.3,189.6 L228.2,189.1 L229.2,187.7 L230.6,186.9 L232.4,186.7 L235.4,187.5 L237.2,188.8 Z" fill="#faf5ef" stroke="#8B1A2B" stroke-width="1.3" stroke-linejoin="round"/>
    <path d="M325.1,191.9 L326.7,193.4 L327.6,193.6 L326.3,194.6 L326.0,196.0 L324.9,195.8 L325.6,195.7 L325.6,195.1 L324.5,195.4 L323.4,195.3 L323.4,195.1 L324.8,194.7 L325.6,194.1 L323.8,194.1 L322.2,194.6 L324.9,193.6 L324.9,193.3 L323.4,193.3 L322.6,193.8 L321.6,193.3 L318.0,193.6 L315.4,194.8 L314.6,195.7 L312.9,196.1 L312.8,197.0 L313.3,196.8 L313.1,196.5 L315.0,196.4 L315.2,197.6 L314.7,197.8 L312.5,197.5 L311.2,197.0 L312.1,195.8 L311.1,196.3 L311.3,196.5 L309.6,196.8 L307.6,196.1 L307.2,195.8 L307.4,195.3 L305.4,195.6 L305.1,195.3 L305.4,195.0 L306.4,195.1 L306.4,194.8 L304.2,193.8 L305.4,192.4 L306.3,192.2 L308.0,192.6 L309.6,192.1 L308.6,191.8 L308.6,190.9 L307.6,190.5 L305.7,190.6 L306.5,189.7 L309.3,189.1 L309.8,188.6 L308.4,188.2 L308.1,187.9 L308.4,187.4 L306.7,187.7 L306.0,187.3 L305.7,186.5 L305.2,186.5 L309.3,186.1 L310.4,186.6 L310.7,187.3 L311.1,186.7 L310.8,186.2 L312.0,185.4 L313.3,184.9 L312.3,186.2 L313.1,186.5 L312.6,187.1 L313.8,186.9 L314.0,186.5 L313.1,186.2 L313.6,185.7 L315.0,187.1 L314.8,187.7 L315.5,188.3 L318.3,188.4 L318.0,188.2 L318.7,187.1 L318.0,185.9 L318.7,185.7 L318.7,185.5 L317.5,185.9 L315.9,185.9 L315.3,185.3 L314.4,185.1 L313.3,184.0 L309.8,185.8 L309.1,185.7 L309.2,184.6 L310.2,183.7 L310.6,182.9 L308.1,183.1 L308.3,182.5 L309.1,182.1 L314.1,181.2 L316.0,181.5 L316.0,181.7 L314.1,182.6 L313.8,183.1 L314.2,184.2 L315.3,184.9 L316.8,185.2 L321.5,184.7 L323.1,184.9 L324.1,185.6 L324.4,186.5 L323.4,187.4 L321.1,188.5 L320.7,189.0 L321.2,190.2 L321.9,191.1 L325.1,191.9 Z" fill="#faf5ef" stroke="#8B1A2B" stroke-width="1.3" stroke-linejoin="round"/>
    <path d="M135.7,179.1 L139.9,178.8 L140.7,179.1 L141.4,180.0 L140.7,181.0 L139.9,181.3 L138.4,181.0 L137.5,181.2 L136.3,181.0 L134.2,180.3 L135.7,179.1 Z" fill="#faf5ef" stroke="#8B1A2B" stroke-width="1.3" stroke-linejoin="round"/>
    <path d="M133.0,171.9 L132.8,173.1 L134.0,173.8 L135.7,174.1 L143.6,173.8 L142.7,174.2 L138.2,174.1 L136.1,174.8 L133.6,174.8 L132.4,174.4 L131.1,174.8 L130.6,176.1 L130.6,178.7 L130.2,179.3 L130.0,177.8 L130.4,173.9 L130.7,173.1 L133.5,168.7 L135.0,167.6 L136.7,168.2 L134.2,168.4 L135.2,168.5 L135.5,168.9 L135.2,169.4 L133.7,169.9 L133.0,170.5 L132.7,171.2 L133.0,171.9 Z" fill="#faf5ef" stroke="#8B1A2B" stroke-width="1.3" stroke-linejoin="round"/></g>
  <g>    <path class="region-area" d="M51.6,347.7 L52.7,345.2 L52.2,344.8 L52.4,344.2 L53.9,343.5 L53.3,342.3 L54.8,341.3 L57.8,340.4 L57.7,339.7 L58.3,339.1 L61.0,338.9 L61.4,338.4 L63.3,338.0 L62.1,336.6 L62.2,336.2 L64.5,337.7 L69.1,336.4 L70.4,336.8 L70.5,337.4 L72.2,337.0 L73.9,337.7 L76.6,337.2 L76.0,334.7 L75.1,334.3 L75.4,333.1 L77.5,332.5 L78.2,333.2 L79.4,333.4 L80.0,332.8 L79.9,331.2 L80.9,330.9 L81.8,330.0 L86.2,328.7 L87.4,328.9 L88.3,328.3 L89.6,328.4 L91.2,327.0 L92.1,327.6 L96.3,327.4 L97.4,326.8 L97.9,324.7 L105.6,323.6 L106.2,322.9 L109.1,322.0 L109.2,321.5 L108.3,320.8 L110.6,319.7 L111.7,319.8 L111.3,317.2 L112.9,316.4 L114.9,316.8 L114.5,318.4 L117.9,320.0 L118.9,319.9 L119.3,322.2 L122.0,325.1 L123.4,324.9 L124.8,325.4 L124.3,326.6 L125.9,328.9 L124.9,330.5 L124.1,331.0 L121.9,330.3 L120.2,331.3 L120.0,333.2 L120.7,333.6 L119.0,335.6 L121.8,336.6 L123.9,338.8 L124.3,340.3 L121.6,340.5 L121.2,341.1 L121.6,341.5 L120.8,342.2 L119.8,341.8 L117.2,342.8 L116.3,344.2 L117.5,345.1 L117.2,346.1 L114.9,345.7 L114.2,347.0 L111.8,348.1 L114.6,349.6 L115.6,351.0 L118.6,350.6 L121.7,349.3 L126.3,348.4 L127.7,348.4 L132.1,351.5 L132.8,352.7 L132.2,353.9 L135.0,358.0 L135.3,358.4 L137.2,358.4 L135.8,359.8 L133.7,360.4 L133.0,361.1 L133.0,362.1 L135.0,365.1 L134.7,366.0 L136.7,369.0 L135.9,369.7 L138.2,370.5 L137.7,371.2 L137.9,372.4 L136.6,374.7 L137.4,374.9 L137.3,375.3 L133.9,377.6 L132.9,382.1 L130.2,385.6 L128.3,387.2 L127.2,387.5 L123.3,386.7 L117.5,384.7 L114.8,384.8 L111.9,384.3 L110.2,384.7 L106.9,384.6 L105.9,383.8 L102.8,383.0 L101.0,381.4 L101.4,381.1 L101.1,380.5 L98.9,380.3 L98.8,379.9 L96.6,379.9 L94.6,378.6 L94.4,377.4 L95.9,376.5 L96.9,374.6 L97.9,373.9 L98.1,373.0 L97.5,372.6 L94.5,372.0 L94.6,371.7 L93.1,370.5 L92.9,369.9 L95.1,368.4 L93.7,365.2 L91.5,365.7 L89.0,364.4 L86.3,364.2 L84.0,363.3 L83.0,363.7 L81.9,363.4 L73.6,366.2 L69.8,366.9 L60.6,367.1 L60.8,365.2 L63.0,363.0 L62.5,362.4 L66.0,360.4 L65.5,359.6 L66.1,357.4 L62.3,356.9 L60.0,355.8 L58.9,355.9 L58.3,355.0 L56.0,354.1 L54.8,352.2 L54.2,351.6 L53.8,352.1 L52.4,350.1 L52.1,348.7 L51.5,348.2 L51.9,347.7 L51.6,347.7 Z" fill="rgba(139,26,43,0.15)" stroke="rgba(139,26,43,0.4)" stroke-width="0.5"/>
    <path class="region-area" d="M51.6,347.7 L52.7,345.2 L52.2,344.8 L52.4,344.2 L53.9,343.5 L53.3,342.3 L54.8,341.3 L57.8,340.4 L57.7,339.7 L58.3,339.1 L61.0,338.9 L61.4,338.4 L63.3,338.0 L62.1,336.6 L62.2,336.2 L64.5,337.7 L69.1,336.4 L70.4,336.8 L70.5,337.4 L72.2,337.0 L73.9,337.7 L76.6,337.2 L76.0,334.7 L75.1,334.3 L75.4,333.1 L77.5,332.5 L78.2,333.2 L79.4,333.4 L80.0,332.8 L79.9,331.2 L80.9,330.9 L81.8,330.0 L86.2,328.7 L87.4,328.9 L88.3,328.3 L89.6,328.4 L91.2,327.0 L92.1,327.6 L96.3,327.4 L97.4,326.8 L97.9,324.7 L105.6,323.6 L106.2,322.9 L109.1,322.0 L109.2,321.5 L108.3,320.8 L110.6,319.7 L111.7,319.8 L111.3,317.2 L112.9,316.4 L114.9,316.8 L114.5,318.4 L117.9,320.0 L118.9,319.9 L119.3,322.2 L122.0,325.1 L123.4,324.9 L124.8,325.4 L124.3,326.6 L125.9,328.9 L124.9,330.5 L124.1,331.0 L121.9,330.3 L120.2,331.3 L120.0,333.2 L120.7,333.6 L119.0,335.6 L121.8,336.6 L123.9,338.8 L124.3,340.3 L121.6,340.5 L121.2,341.1 L121.6,341.5 L120.8,342.2 L119.8,341.8 L117.2,342.8 L116.3,344.2 L117.5,345.1 L117.2,346.1 L114.9,345.7 L114.2,347.0 L111.8,348.1 L114.6,349.6 L115.6,351.0 L118.6,350.6 L121.7,349.3 L126.3,348.4 L127.7,348.4 L132.1,351.5 L132.8,352.7 L132.2,353.9 L135.0,358.0 L135.3,358.4 L137.2,358.4 L135.8,359.8 L133.7,360.4 L133.0,361.1 L133.0,362.1 L135.0,365.1 L134.7,366.0 L136.7,369.0 L135.9,369.7 L138.2,370.5 L137.7,371.2 L137.9,372.4 L136.6,374.7 L137.4,374.9 L137.3,375.3 L133.9,377.6 L132.9,382.1 L130.2,385.6 L128.3,387.2 L127.2,387.5 L123.3,386.7 L117.5,384.7 L114.8,384.8 L111.9,384.3 L110.2,384.7 L106.9,384.6 L105.9,383.8 L102.8,383.0 L101.0,381.4 L101.4,381.1 L101.1,380.5 L98.9,380.3 L98.8,379.9 L96.6,379.9 L94.6,378.6 L94.4,377.4 L95.9,376.5 L96.9,374.6 L97.9,373.9 L98.1,373.0 L97.5,372.6 L94.5,372.0 L94.6,371.7 L93.1,370.5 L92.9,369.9 L95.1,368.4 L93.7,365.2 L91.5,365.7 L89.0,364.4 L86.3,364.2 L84.0,363.3 L83.0,363.7 L81.9,363.4 L73.6,366.2 L69.8,366.9 L60.6,367.1 L60.8,365.2 L63.0,363.0 L62.5,362.4 L66.0,360.4 L65.5,359.6 L66.1,357.4 L62.3,356.9 L60.0,355.8 L58.9,355.9 L58.3,355.0 L56.0,354.1 L54.8,352.2 L54.2,351.6 L53.8,352.1 L52.4,350.1 L52.1,348.7 L51.5,348.2 L51.9,347.7 L51.6,347.7 Z" fill="rgba(139,26,43,0.15)" stroke="rgba(139,26,43,0.4)" stroke-width="0.5"/>
    <path class="region-area" d="M51.6,347.7 L52.7,345.2 L52.2,344.8 L52.4,344.2 L53.9,343.5 L53.3,342.3 L54.8,341.3 L57.8,340.4 L57.7,339.7 L58.3,339.1 L61.0,338.9 L61.4,338.4 L63.3,338.0 L62.1,336.6 L62.2,336.2 L64.5,337.7 L69.1,336.4 L70.4,336.8 L70.5,337.4 L72.2,337.0 L73.9,337.7 L76.6,337.2 L76.0,334.7 L75.1,334.3 L75.4,333.1 L77.5,332.5 L78.2,333.2 L79.4,333.4 L80.0,332.8 L79.9,331.2 L80.9,330.9 L81.8,330.0 L86.2,328.7 L87.4,328.9 L88.3,328.3 L89.6,328.4 L91.2,327.0 L92.1,327.6 L96.3,327.4 L97.4,326.8 L97.9,324.7 L105.6,323.6 L106.2,322.9 L109.1,322.0 L109.2,321.5 L108.3,320.8 L110.6,319.7 L111.7,319.8 L111.3,317.2 L112.9,316.4 L114.9,316.8 L114.5,318.4 L117.9,320.0 L118.9,319.9 L119.3,322.2 L122.0,325.1 L123.4,324.9 L124.8,325.4 L124.3,326.6 L125.9,328.9 L124.9,330.5 L124.1,331.0 L121.9,330.3 L120.2,331.3 L120.0,333.2 L120.7,333.6 L119.0,335.6 L121.8,336.6 L123.9,338.8 L124.3,340.3 L121.6,340.5 L121.2,341.1 L121.6,341.5 L120.8,342.2 L119.8,341.8 L117.2,342.8 L116.3,344.2 L117.5,345.1 L117.2,346.1 L114.9,345.7 L114.2,347.0 L111.8,348.1 L114.6,349.6 L115.6,351.0 L118.6,350.6 L121.7,349.3 L126.3,348.4 L127.7,348.4 L132.1,351.5 L132.8,352.7 L132.2,353.9 L135.0,358.0 L135.3,358.4 L137.2,358.4 L135.8,359.8 L133.7,360.4 L133.0,361.1 L133.0,362.1 L135.0,365.1 L134.7,366.0 L136.7,369.0 L135.9,369.7 L138.2,370.5 L137.7,371.2 L137.9,372.4 L136.6,374.7 L137.4,374.9 L137.3,375.3 L133.9,377.6 L132.9,382.1 L130.2,385.6 L128.3,387.2 L127.2,387.5 L123.3,386.7 L117.5,384.7 L114.8,384.8 L111.9,384.3 L110.2,384.7 L106.9,384.6 L105.9,383.8 L102.8,383.0 L101.0,381.4 L101.4,381.1 L101.1,380.5 L98.9,380.3 L98.8,379.9 L96.6,379.9 L94.6,378.6 L94.4,377.4 L95.9,376.5 L96.9,374.6 L97.9,373.9 L98.1,373.0 L97.5,372.6 L94.5,372.0 L94.6,371.7 L93.1,370.5 L92.9,369.9 L95.1,368.4 L93.7,365.2 L91.5,365.7 L89.0,364.4 L86.3,364.2 L84.0,363.3 L83.0,363.7 L81.9,363.4 L73.6,366.2 L69.8,366.9 L60.6,367.1 L60.8,365.2 L63.0,363.0 L62.5,362.4 L66.0,360.4 L65.5,359.6 L66.1,357.4 L62.3,356.9 L60.0,355.8 L58.9,355.9 L58.3,355.0 L56.0,354.1 L54.8,352.2 L54.2,351.6 L53.8,352.1 L52.4,350.1 L52.1,348.7 L51.5,348.2 L51.9,347.7 L51.6,347.7 Z" fill="rgba(139,26,43,0.15)" stroke="rgba(139,26,43,0.4)" stroke-width="0.5"/>
    <path class="region-area" d="M165.8,434.6 L163.1,434.4 L162.6,433.9 L156.6,433.6 L154.0,434.4 L151.7,434.4 L150.2,433.5 L150.8,433.1 L148.7,432.1 L147.7,432.0 L147.4,432.8 L147.7,433.0 L145.8,433.0 L145.2,432.0 L145.9,431.1 L145.7,430.7 L144.5,430.7 L143.2,429.5 L142.2,430.7 L141.7,429.4 L140.1,429.2 L139.5,429.4 L139.9,429.9 L136.7,430.5 L135.8,432.0 L134.1,432.8 L134.1,434.0 L136.5,435.0 L140.5,434.1 L141.9,434.4 L141.7,435.2 L140.9,435.0 L140.7,436.7 L140.2,436.8 L138.8,435.6 L136.6,436.2 L136.2,437.0 L132.7,437.1 L131.0,436.7 L130.4,435.8 L128.4,435.6 L126.4,435.8 L123.1,437.6 L121.5,437.8 L116.8,437.8 L116.3,436.8 L113.5,436.6 L111.6,438.0 L108.6,438.4 L106.0,437.7 L106.9,437.7 L107.7,436.5 L105.1,437.0 L105.3,436.1 L102.6,433.7 L102.4,432.5 L103.4,431.7 L102.9,429.8 L103.5,428.1 L104.2,427.8 L104.1,426.2 L104.8,425.4 L105.1,424.1 L106.4,423.0 L106.3,421.9 L104.7,420.1 L104.8,417.9 L106.1,415.5 L108.7,412.9 L109.3,410.8 L111.0,409.7 L110.6,407.4 L112.0,404.1 L113.3,403.3 L112.9,402.3 L113.2,399.9 L114.7,398.3 L118.5,396.0 L118.9,394.7 L120.6,394.6 L121.4,393.5 L123.3,392.9 L126.5,388.1 L129.5,386.4 L132.9,382.1 L133.9,377.6 L137.3,375.3 L137.4,374.9 L136.6,374.7 L137.9,372.4 L137.7,371.2 L138.2,370.5 L135.9,369.7 L136.7,369.0 L134.7,366.0 L135.0,365.1 L137.1,364.9 L140.4,367.0 L142.2,366.4 L141.6,364.0 L144.3,363.6 L144.9,364.3 L144.9,365.3 L145.9,366.5 L147.5,367.1 L149.1,367.2 L149.8,367.9 L152.1,367.8 L151.6,368.9 L150.7,368.5 L149.9,369.2 L150.0,370.3 L149.2,371.4 L150.5,371.7 L152.1,370.7 L152.4,369.9 L152.9,370.2 L153.9,369.9 L153.4,368.7 L154.3,367.9 L157.3,368.0 L158.7,367.3 L160.6,367.7 L158.7,365.4 L159.6,365.7 L160.0,365.3 L165.3,365.2 L166.4,364.0 L166.6,363.2 L169.6,362.6 L170.6,363.0 L171.2,362.6 L171.3,360.4 L170.3,360.1 L169.3,360.9 L169.2,360.0 L167.3,359.6 L167.2,358.4 L167.8,358.0 L173.0,357.4 L177.7,358.2 L179.4,357.8 L179.3,359.8 L178.7,360.9 L180.2,361.2 L181.5,360.0 L182.2,361.3 L184.7,360.1 L186.0,361.2 L186.1,362.6 L187.8,364.0 L186.2,366.3 L187.1,366.4 L188.9,365.2 L188.8,365.8 L189.5,366.2 L189.7,368.7 L193.0,368.6 L194.4,367.7 L194.1,367.0 L195.1,366.4 L195.7,366.7 L195.6,367.3 L196.6,367.6 L196.3,368.3 L196.8,369.0 L196.0,370.1 L197.1,370.4 L198.2,372.2 L197.0,372.2 L196.4,372.7 L196.4,373.9 L197.5,374.6 L197.3,375.2 L197.7,376.3 L196.6,376.4 L197.8,378.4 L197.3,378.7 L199.9,380.4 L200.7,380.2 L201.5,380.7 L201.1,382.0 L200.3,382.3 L201.4,382.7 L201.3,383.2 L202.0,383.6 L201.9,384.2 L204.8,384.8 L205.2,385.6 L208.5,388.2 L208.8,389.1 L208.0,389.4 L208.4,389.6 L208.1,391.4 L208.5,392.1 L207.5,394.8 L209.0,395.6 L209.8,396.8 L207.8,398.0 L207.6,397.6 L208.0,396.8 L207.5,396.6 L205.4,398.1 L204.6,397.2 L202.6,396.7 L201.7,397.9 L204.0,399.6 L203.2,400.2 L203.7,401.1 L203.2,402.6 L203.5,402.8 L201.7,403.0 L201.0,403.8 L197.5,405.2 L196.7,404.4 L194.3,405.0 L193.5,405.8 L193.6,406.3 L191.3,408.3 L193.9,411.0 L197.0,418.6 L196.7,420.7 L195.1,423.2 L196.0,424.4 L195.8,425.7 L195.1,426.8 L195.7,427.0 L196.7,428.6 L194.9,429.6 L196.2,430.5 L196.5,433.7 L195.2,433.5 L194.7,434.6 L193.9,433.5 L190.3,434.3 L187.1,433.7 L181.7,436.2 L180.5,436.0 L178.1,436.8 L175.9,438.8 L165.8,434.6 Z" fill="rgba(139,26,43,0.15)" stroke="rgba(139,26,43,0.4)" stroke-width="0.5"/>
    <path class="region-area" d="M266.7,338.7 L268.0,340.0 L266.9,341.3 L270.3,343.4 L270.7,344.4 L270.5,345.8 L272.4,347.1 L272.9,348.4 L278.9,350.6 L280.2,350.7 L280.9,351.1 L280.7,352.5 L282.9,353.4 L281.4,356.2 L280.6,356.1 L280.3,357.9 L277.8,359.3 L279.1,360.8 L281.9,361.9 L282.1,363.7 L283.7,364.6 L285.0,367.2 L286.4,367.6 L286.6,369.4 L287.2,370.5 L290.3,371.9 L292.0,374.0 L294.8,374.4 L295.5,374.3 L295.4,373.9 L295.8,373.8 L297.8,374.2 L300.0,375.4 L300.4,376.4 L306.4,381.7 L310.8,382.6 L313.4,384.6 L314.3,386.8 L316.5,388.0 L317.4,388.2 L318.6,387.1 L321.9,387.9 L322.9,389.8 L326.1,390.8 L329.4,394.4 L328.2,396.3 L329.4,397.0 L328.8,397.7 L328.9,400.0 L327.9,401.5 L326.4,401.8 L325.8,403.2 L322.5,401.6 L318.7,401.0 L316.4,401.4 L315.8,401.8 L316.5,403.4 L315.8,404.8 L315.7,406.5 L314.6,408.4 L309.9,410.9 L304.9,411.5 L301.2,412.5 L297.6,414.5 L295.1,414.9 L290.6,417.9 L291.4,419.7 L293.9,421.4 L295.0,423.3 L297.5,424.7 L299.7,427.5 L296.1,432.0 L298.7,432.6 L300.7,432.3 L302.3,433.7 L302.6,435.6 L301.4,437.0 L301.5,437.8 L301.0,438.5 L301.3,440.3 L300.1,441.2 L297.9,441.1 L292.0,438.0 L291.9,437.1 L292.3,436.3 L293.3,436.0 L291.1,434.6 L291.4,434.0 L287.5,433.7 L285.5,434.1 L283.4,435.3 L281.9,435.4 L280.0,434.4 L279.3,433.1 L272.6,433.6 L272.0,432.9 L272.7,431.6 L270.4,432.6 L271.4,433.8 L271.4,434.8 L270.2,436.2 L261.7,436.0 L258.7,436.4 L257.5,437.3 L250.3,436.8 L249.2,437.5 L247.8,439.5 L242.9,439.8 L241.2,441.1 L242.0,441.4 L241.8,442.0 L239.0,442.3 L236.5,443.8 L235.7,443.8 L235.7,442.8 L235.0,442.6 L231.0,444.0 L227.3,443.9 L226.4,443.3 L226.6,442.4 L224.8,441.1 L222.9,440.5 L222.7,440.2 L224.1,439.5 L222.9,438.9 L219.4,439.5 L218.6,439.0 L213.0,437.8 L211.3,438.9 L209.4,438.8 L208.3,438.3 L208.5,437.1 L207.5,437.2 L206.9,437.4 L207.5,438.5 L207.1,440.3 L208.1,441.0 L208.3,442.2 L207.4,443.7 L205.4,444.8 L203.0,447.1 L200.6,448.0 L197.8,448.2 L198.1,447.5 L198.9,447.3 L199.5,444.6 L198.9,444.3 L195.0,445.1 L193.9,443.4 L194.7,443.0 L194.6,442.2 L192.8,440.4 L191.4,440.7 L190.1,438.5 L186.0,438.8 L185.3,438.5 L185.1,437.3 L184.2,436.8 L183.1,437.0 L181.3,438.9 L180.4,439.2 L175.9,438.8 L178.1,436.8 L180.5,436.0 L181.7,436.2 L187.1,433.7 L190.3,434.3 L193.9,433.5 L194.7,434.6 L195.2,433.5 L196.6,433.6 L196.2,430.5 L194.9,429.6 L196.7,428.6 L195.7,427.0 L195.1,426.8 L195.8,425.7 L196.0,424.4 L195.1,423.2 L196.7,420.7 L197.0,418.6 L193.9,411.0 L191.3,408.3 L193.6,406.3 L193.5,405.8 L194.3,405.0 L196.7,404.4 L197.5,405.2 L201.0,403.8 L201.7,403.0 L203.5,402.8 L203.2,402.6 L203.7,401.1 L203.2,400.2 L204.0,399.6 L201.7,397.9 L202.6,396.7 L204.6,397.2 L205.4,398.1 L207.5,396.6 L208.0,396.8 L207.6,397.6 L207.8,398.0 L209.8,396.8 L209.0,395.6 L207.5,394.8 L208.5,392.1 L208.1,391.4 L208.4,389.6 L208.0,389.4 L208.8,388.8 L204.9,384.9 L201.9,384.2 L202.0,383.6 L201.3,383.2 L201.4,382.7 L200.3,382.3 L201.1,382.0 L201.5,380.7 L200.7,380.2 L199.9,380.4 L197.3,378.7 L197.8,378.4 L196.6,376.4 L197.7,376.3 L197.3,375.2 L197.5,374.6 L196.4,373.9 L196.4,372.7 L197.0,372.2 L198.2,372.2 L197.1,370.4 L196.0,370.1 L196.8,369.0 L196.3,368.3 L196.6,367.6 L195.6,367.3 L195.7,366.7 L195.1,366.4 L194.1,367.0 L194.4,367.7 L193.0,368.6 L189.7,368.7 L189.5,366.2 L188.8,365.8 L188.9,365.2 L187.1,366.4 L186.2,366.3 L187.8,364.0 L186.1,362.6 L186.0,361.2 L184.6,360.0 L182.2,361.3 L181.4,360.0 L180.4,361.1 L179.5,361.2 L178.7,360.8 L179.3,359.8 L179.4,357.8 L177.7,358.2 L173.0,357.4 L168.2,357.8 L167.2,358.4 L167.3,359.6 L169.2,360.0 L169.3,360.9 L170.3,360.1 L171.3,360.4 L171.2,362.6 L170.6,363.0 L169.6,362.6 L166.6,363.2 L166.4,364.0 L165.3,365.2 L160.0,365.3 L158.6,364.0 L160.0,363.0 L159.6,361.3 L160.9,360.9 L161.4,359.2 L160.3,358.6 L161.1,357.7 L159.6,357.2 L159.3,355.6 L158.5,356.1 L157.0,353.3 L157.0,350.5 L157.9,350.7 L156.9,348.4 L155.2,348.1 L156.2,347.6 L156.4,346.4 L160.0,345.5 L161.6,346.0 L161.4,346.5 L162.8,345.7 L163.0,345.1 L164.5,344.8 L167.8,345.0 L169.6,345.6 L170.6,346.7 L174.2,346.1 L175.0,344.0 L173.9,343.6 L174.3,341.5 L177.5,341.9 L179.8,341.6 L179.7,340.8 L180.2,340.1 L182.9,339.0 L182.7,337.5 L184.0,335.1 L184.9,334.9 L185.8,335.6 L186.9,335.6 L191.3,334.3 L194.0,331.4 L196.5,329.7 L196.7,330.3 L199.1,330.3 L200.3,331.5 L203.8,332.4 L204.3,333.5 L206.4,334.8 L206.1,335.3 L206.4,335.7 L208.2,335.6 L210.0,337.3 L211.9,337.1 L213.3,338.3 L213.9,341.7 L217.9,342.5 L218.6,341.1 L222.4,341.1 L222.3,340.3 L217.7,338.4 L218.0,337.1 L219.3,337.1 L220.4,336.1 L226.0,336.1 L227.6,337.4 L227.9,336.9 L229.8,337.5 L232.1,336.9 L233.6,338.2 L232.9,338.9 L233.2,339.2 L234.9,340.2 L235.5,339.7 L237.2,340.1 L237.6,339.0 L237.3,338.4 L238.1,337.1 L237.3,335.5 L237.0,333.0 L239.4,332.3 L240.5,331.3 L243.4,331.5 L243.8,332.1 L243.1,332.5 L243.2,334.1 L245.2,334.6 L245.5,335.7 L246.9,336.4 L248.5,335.8 L250.4,336.1 L256.3,335.1 L257.8,335.9 L261.5,335.0 L263.3,336.1 L263.6,337.4 L267.6,338.7 L266.7,338.7 Z" fill="rgba(139,26,43,0.15)" stroke="rgba(139,26,43,0.4)" stroke-width="0.5"/></g>
  <g>    <circle cx="100.0" cy="353.4" r="9" fill="#8B1A2B" stroke="#fff" stroke-width="0.8"/>
    <text x="100.0" y="356.9" text-anchor="middle" font-family="Inter, sans-serif" font-size="9" font-weight="700" fill="#fff">1</text>
    <circle cx="100.0" cy="353.4" r="9" fill="#8B1A2B" stroke="#fff" stroke-width="0.8"/>
    <text x="100.0" y="356.9" text-anchor="middle" font-family="Inter, sans-serif" font-size="9" font-weight="700" fill="#fff">2</text>
    <circle cx="100.0" cy="353.4" r="9" fill="#8B1A2B" stroke="#fff" stroke-width="0.8"/>
    <text x="100.0" y="356.9" text-anchor="middle" font-family="Inter, sans-serif" font-size="9" font-weight="700" fill="#fff">3</text>
    <circle cx="157.9" cy="402.5" r="9" fill="#8B1A2B" stroke="#fff" stroke-width="0.8"/>
    <text x="157.9" y="406.0" text-anchor="middle" font-family="Inter, sans-serif" font-size="9" font-weight="700" fill="#fff">4</text>
    <circle cx="242.8" cy="388.1" r="9" fill="#8B1A2B" stroke="#fff" stroke-width="0.8"/>
    <text x="242.8" y="391.6" text-anchor="middle" font-family="Inter, sans-serif" font-size="9" font-weight="700" fill="#fff">5</text></g>
  <line x1="28" y1="462" x2="392" y2="462" stroke="#8B1A2B" stroke-width="0.3" opacity="0.25"/>
  <text x="32" y="470" font-family="Inter, sans-serif" font-size="8.5" fill="#2D1B14"><tspan font-weight="700">1. Mosel</tspan> : Riesling</text>
  <text x="32" y="485" font-family="Inter, sans-serif" font-size="8.5" fill="#2D1B14"><tspan font-weight="700">2. Rheinhessen</tspan> : Riesling, Muller-Thurgau</text>
  <text x="32" y="500" font-family="Inter, sans-serif" font-size="8.5" fill="#2D1B14"><tspan font-weight="700">3. Pfalz</tspan> : Riesling, Dornfelder</text>
  <text x="32" y="515" font-family="Inter, sans-serif" font-size="8.5" fill="#2D1B14"><tspan font-weight="700">4. Baden</tspan> : Spatburgunder, Grauburgunder</text>
  <text x="32" y="530" font-family="Inter, sans-serif" font-size="8.5" fill="#2D1B14"><tspan font-weight="700">5. Franken</tspan> : Silvaner, Muller-Thurgau</text>
  <text x="210" y="552" text-anchor="middle" font-family="Inter, sans-serif" font-size="7" fill="#b0a89e">Cellar -- Sommelier Companion</text>
</svg>